<?xml version="1.0" encoding="UTF-8" standalone="no"?><svg xmlns="http://www.w3.org/2000/svg" xmlns:xlink="http://www.w3.org/1999/xlink" clip-rule="evenodd" stroke-miterlimit="10" viewBox="0 0 1024 768"><desc>SVG generated by Keynote</desc><defs></defs><g transform="matrix(1.00, 0.00, -0.00, -1.00, 0.0, 768.0)"><path d="M 0.0 768.0 L 1024.0 768.0 L 1024.0 0.0 L 0.0 0.0 Z M 0.0 768.0 " fill="#000000"></path><text xml:space="preserve" font-family="LucidaGrande,Lucida Grande" font-size="22.0" fill="#FEFFFE" transform="matrix(1.00, 0.00, -0.00, -1.00, 332.4, 11.6)">F</text><text xml:space="preserve" font-family="LucidaGrande,Lucida Grande" font-size="22.0" fill="#FEFFFE" transform="matrix(1.00, 0.00, -0.00, -1.00, 344.2, 11.6)">e</text><text xml:space="preserve" font-family="LucidaGrande,Lucida Grande" font-size="22.0" fill="#FEFFFE" transform="matrix(1.00, 0.00, -0.00, -1.00, 356.4, 11.6)">e</text><text xml:space="preserve" font-family="LucidaGrande,Lucida Grande" font-size="22.0" fill="#FEFFFE" transform="matrix(1.00, 0.00, -0.00, -1.00, 368.7, 11.6)">d</text><text xml:space="preserve" font-family="LucidaGrande,Lucida Grande" font-size="22.0" fill="#FEFFFE" transform="matrix(1.00, 0.00, -0.00, -1.00, 382.5, 11.6)">b</text><text xml:space="preserve" font-family="LucidaGrande,Lucida Grande" font-size="22.0" fill="#FEFFFE" transform="matrix(1.00, 0.00, -0.00, -1.00, 396.4, 11.6)">a</text><text xml:space="preserve" font-family="LucidaGrande,Lucida Grande" font-size="22.0" fill="#FEFFFE" transform="matrix(1.00, 0.00, -0.00, -1.00, 408.5, 11.6)">c</text><text xml:space="preserve" font-family="LucidaGrande,Lucida Grande" font-size="22.0" fill="#FEFFFE" transform="matrix(1.00, 0.00, -0.00, -1.00, 419.8, 11.6)">k</text><text xml:space="preserve" font-family="LucidaGrande,Lucida Grande" font-size="22.0" fill="#FEFFFE" transform="matrix(1.00, 0.00, -0.00, -1.00, 432.7, 11.6)">:</text><text xml:space="preserve" font-family="LucidaGrande,Lucida Grande" font-size="22.0" fill="#FEFFFE" transform="matrix(1.00, 0.00, -0.00, -1.00, 439.6, 11.6)"> </text><text xml:space="preserve" font-family="LucidaGrande,Lucida Grande" font-size="22.0" fill="#FEFFFE" transform="matrix(1.00, 0.00, -0.00, -1.00, 446.6, 11.6)">h</text><text xml:space="preserve" font-family="LucidaGrande,Lucida Grande" font-size="22.0" fill="#FEFFFE" transform="matrix(1.00, 0.00, -0.00, -1.00, 460.2, 11.6)">t</text><text xml:space="preserve" font-family="LucidaGrande,Lucida Grande" font-size="22.0" fill="#FEFFFE" transform="matrix(1.00, 0.00, -0.00, -1.00, 468.4, 11.6)">t</text><text xml:space="preserve" font-family="LucidaGrande,Lucida Grande" font-size="22.0" fill="#FEFFFE" transform="matrix(1.00, 0.00, -0.00, -1.00, 476.7, 11.6)">p</text><text xml:space="preserve" font-family="LucidaGrande,Lucida Grande" font-size="22.0" fill="#FEFFFE" transform="matrix(1.00, 0.00, -0.00, -1.00, 490.5, 11.6)">:</text><text xml:space="preserve" font-family="LucidaGrande,Lucida Grande" font-size="22.0" fill="#FEFFFE" transform="matrix(1.00, 0.00, -0.00, -1.00, 497.5, 11.6)">/</text><text xml:space="preserve" font-family="LucidaGrande,Lucida Grande" font-size="22.0" fill="#FEFFFE" transform="matrix(1.00, 0.00, -0.00, -1.00, 509.0, 11.6)">/</text><text xml:space="preserve" font-family="LucidaGrande,Lucida Grande" font-size="22.0" fill="#FEFFFE" transform="matrix(1.00, 0.00, -0.00, -1.00, 520.6, 11.6)">j</text><text xml:space="preserve" font-family="LucidaGrande,Lucida Grande" font-size="22.0" fill="#FEFFFE" transform="matrix(1.00, 0.00, -0.00, -1.00, 527.3, 11.6)">.</text><text xml:space="preserve" font-family="LucidaGrande,Lucida Grande" font-size="22.0" fill="#FEFFFE" transform="matrix(1.00, 0.00, -0.00, -1.00, 534.3, 11.6)">m</text><text xml:space="preserve" font-family="LucidaGrande,Lucida Grande" font-size="22.0" fill="#FEFFFE" transform="matrix(1.00, 0.00, -0.00, -1.00, 554.8, 11.6)">p</text><text xml:space="preserve" font-family="LucidaGrande,Lucida Grande" font-size="22.0" fill="#FEFFFE" transform="matrix(1.00, 0.00, -0.00, -1.00, 568.6, 11.6)">/</text><text xml:space="preserve" font-family="LucidaGrande,Lucida Grande" font-size="22.0" fill="#FEFFFE" transform="matrix(1.00, 0.00, -0.00, -1.00, 580.2, 11.6)">p</text><text xml:space="preserve" font-family="LucidaGrande,Lucida Grande" font-size="22.0" fill="#FEFFFE" transform="matrix(1.00, 0.00, -0.00, -1.00, 594.0, 11.6)">s</text><text xml:space="preserve" font-family="LucidaGrande,Lucida Grande" font-size="22.0" fill="#FEFFFE" transform="matrix(1.00, 0.00, -0.00, -1.00, 605.3, 11.6)">u</text><text xml:space="preserve" font-family="LucidaGrande,Lucida Grande" font-size="22.0" fill="#FEFFFE" transform="matrix(1.00, 0.00, -0.00, -1.00, 618.9, 11.6)">m</text><text xml:space="preserve" font-family="LucidaGrande,Lucida Grande" font-size="22.0" fill="#FEFFFE" transform="matrix(1.00, 0.00, -0.00, -1.00, 639.4, 11.6)">a</text><text xml:space="preserve" font-family="LucidaGrande,Lucida Grande" font-size="22.0" fill="#FEFFFE" transform="matrix(1.00, 0.00, -0.00, -1.00, 651.6, 11.6)">c</text><text xml:space="preserve" font-family="LucidaGrande,Lucida Grande" font-size="22.0" fill="#FEFFFE" transform="matrix(1.00, 0.00, -0.00, -1.00, 662.9, 11.6)">1</text><text xml:space="preserve" font-family="LucidaGrande,Lucida Grande" font-size="22.0" fill="#FEFFFE" transform="matrix(1.00, 0.00, -0.00, -1.00, 676.8, 11.6)">3</text><text xml:space="preserve" font-family="Monaco,Monaco" font-size="84.0" fill="#FEFFFF" transform="matrix(1.00, 0.00, -0.00, -1.00, 411.2, 620.0)">G</text><text xml:space="preserve" font-family="Monaco,Monaco" font-size="84.0" fill="#FEFFFF" transform="matrix(1.00, 0.00, -0.00, -1.00, 461.6, 620.0)">r</text><text xml:space="preserve" font-family="Monaco,Monaco" font-size="84.0" fill="#FEFFFF" transform="matrix(1.00, 0.00, -0.00, -1.00, 512.0, 620.0)">e</text><text xml:space="preserve" font-family="Monaco,Monaco" font-size="84.0" fill="#FEFFFF" transform="matrix(1.00, 0.00, -0.00, -1.00, 562.4, 620.0)">p</text><text xml:space="preserve" font-family="Monaco,Monaco" font-size="38.2" fill="#FEFFFF" transform="matrix(1.00, 0.00, -0.00, -1.00, 129.0, 507.7)">•</text><text xml:space="preserve" font-family="Monaco,Monaco" font-size="38.2" fill="#FEFFFF" transform="matrix(1.00, 0.00, -0.00, -1.00, 170.0, 507.7)">S</text><text xml:space="preserve" font-family="Monaco,Monaco" font-size="38.2" fill="#FEFFFF" transform="matrix(1.00, 0.00, -0.00, -1.00, 192.9, 507.7)">e</text><text xml:space="preserve" font-family="Monaco,Monaco" font-size="38.2" fill="#FEFFFF" transform="matrix(1.00, 0.00, -0.00, -1.00, 215.8, 507.7)">a</text><text xml:space="preserve" font-family="Monaco,Monaco" font-size="38.2" fill="#FEFFFF" transform="matrix(1.00, 0.00, -0.00, -1.00, 238.8, 507.7)">r</text><text xml:space="preserve" font-family="Monaco,Monaco" font-size="38.2" fill="#FEFFFF" transform="matrix(1.00, 0.00, -0.00, -1.00, 261.7, 507.7)">c</text><text xml:space="preserve" font-family="Monaco,Monaco" font-size="38.2" fill="#FEFFFF" transform="matrix(1.00, 0.00, -0.00, -1.00, 284.6, 507.7)">h</text><text xml:space="preserve" font-family="Monaco,Monaco" font-size="38.2" fill="#FEFFFF" transform="matrix(1.00, 0.00, -0.00, -1.00, 307.6, 507.7)"> </text><text xml:space="preserve" font-family="Monaco,Monaco" font-size="38.2" fill="#FEFFFF" transform="matrix(1.00, 0.00, -0.00, -1.00, 330.5, 507.7)">&amp;</text><text xml:space="preserve" font-family="Monaco,Monaco" font-size="38.2" fill="#FEFFFF" transform="matrix(1.00, 0.00, -0.00, -1.00, 353.5, 507.7)"> </text><text xml:space="preserve" font-family="Monaco,Monaco" font-size="38.2" fill="#FEFFFF" transform="matrix(1.00, 0.00, -0.00, -1.00, 376.4, 507.7)">M</text><text xml:space="preserve" font-family="Monaco,Monaco" font-size="38.2" fill="#FEFFFF" transform="matrix(1.00, 0.00, -0.00, -1.00, 399.3, 507.7)">a</text><text xml:space="preserve" font-family="Monaco,Monaco" font-size="38.2" fill="#FEFFFF" transform="matrix(1.00, 0.00, -0.00, -1.00, 422.3, 507.7)">t</text><text xml:space="preserve" font-family="Monaco,Monaco" font-size="38.2" fill="#FEFFFF" transform="matrix(1.00, 0.00, -0.00, -1.00, 445.2, 507.7)">c</text><text xml:space="preserve" font-family="Monaco,Monaco" font-size="38.2" fill="#FEFFFF" transform="matrix(1.00, 0.00, -0.00, -1.00, 468.2, 507.7)">h</text><text xml:space="preserve" font-family="Monaco,Monaco" font-size="38.2" fill="#FEFFFF" transform="matrix(1.00, 0.00, -0.00, -1.00, 491.1, 507.7)"> </text><text xml:space="preserve" font-family="Monaco,Monaco" font-size="38.2" fill="#FEFFFF" transform="matrix(1.00, 0.00, -0.00, -1.00, 514.0, 507.7)">P</text><text xml:space="preserve" font-family="Monaco,Monaco" font-size="38.2" fill="#FEFFFF" transform="matrix(1.00, 0.00, -0.00, -1.00, 537.0, 507.7)">a</text><text xml:space="preserve" font-family="Monaco,Monaco" font-size="38.2" fill="#FEFFFF" transform="matrix(1.00, 0.00, -0.00, -1.00, 559.9, 507.7)">t</text><text xml:space="preserve" font-family="Monaco,Monaco" font-size="38.2" fill="#FEFFFF" transform="matrix(1.00, 0.00, -0.00, -1.00, 582.9, 507.7)">t</text><text xml:space="preserve" font-family="Monaco,Monaco" font-size="38.2" fill="#FEFFFF" transform="matrix(1.00, 0.00, -0.00, -1.00, 605.8, 507.7)">e</text><text xml:space="preserve" font-family="Monaco,Monaco" font-size="38.2" fill="#FEFFFF" transform="matrix(1.00, 0.00, -0.00, -1.00, 628.7, 507.7)">r</text><text xml:space="preserve" font-family="Monaco,Monaco" font-size="38.2" fill="#FEFFFF" transform="matrix(1.00, 0.00, -0.00, -1.00, 651.7, 507.7)">n</text><text xml:space="preserve" font-family="Monaco,Monaco" font-size="38.2" fill="#FEFFFF" transform="matrix(1.00, 0.00, -0.00, -1.00, 674.6, 507.7)">s</text><text xml:space="preserve" font-family="Monaco,Monaco" font-size="38.2" fill="#FEFFFF" transform="matrix(1.00, 0.00, -0.00, -1.00, 697.6, 507.7)"> </text><text xml:space="preserve" font-family="Monaco,Monaco" font-size="38.2" fill="#FEFFFF" transform="matrix(1.00, 0.00, -0.00, -1.00, 720.5, 507.7)">w</text><text xml:space="preserve" font-family="Monaco,Monaco" font-size="38.2" fill="#FEFFFF" transform="matrix(1.00, 0.00, -0.00, -1.00, 743.4, 507.7)">i</text><text xml:space="preserve" font-family="Monaco,Monaco" font-size="38.2" fill="#FEFFFF" transform="matrix(1.00, 0.00, -0.00, -1.00, 766.4, 507.7)">t</text><text xml:space="preserve" font-family="Monaco,Monaco" font-size="38.2" fill="#FEFFFF" transform="matrix(1.00, 0.00, -0.00, -1.00, 789.3, 507.7)">h</text><text xml:space="preserve" font-family="Monaco,Monaco" font-size="38.2" fill="#FEFFFF" transform="matrix(1.00, 0.00, -0.00, -1.00, 812.3, 507.7)"> </text><text xml:space="preserve" font-family="Monaco,Monaco" font-size="38.2" fill="#FEFFFF" transform="matrix(1.00, 0.00, -0.00, -1.00, 835.2, 507.7)">R</text><text xml:space="preserve" font-family="Monaco,Monaco" font-size="38.2" fill="#FEFFFF" transform="matrix(1.00, 0.00, -0.00, -1.00, 858.1, 507.7)">E</text><text xml:space="preserve" font-family="Monaco,Monaco" font-size="38.2" fill="#FEFFFF" transform="matrix(1.00, 0.00, -0.00, -1.00, 881.0, 507.7)">	</text><text xml:space="preserve" font-family="Monaco,Monaco" font-size="38.2" fill="#FEFFFF" transform="matrix(1.00, 0.00, -0.00, -1.00, 129.0, 434.9)">•</text><text xml:space="preserve" font-family="Monaco,Monaco" font-size="38.2" fill="#FEFFFF" transform="matrix(1.00, 0.00, -0.00, -1.00, 170.0, 434.9)">P</text><text xml:space="preserve" font-family="Monaco,Monaco" font-size="38.2" fill="#FEFFFF" transform="matrix(1.00, 0.00, -0.00, -1.00, 192.9, 434.9)">r</text><text xml:space="preserve" font-family="Monaco,Monaco" font-size="38.2" fill="#FEFFFF" transform="matrix(1.00, 0.00, -0.00, -1.00, 215.8, 434.9)">i</text><text xml:space="preserve" font-family="Monaco,Monaco" font-size="38.2" fill="#FEFFFF" transform="matrix(1.00, 0.00, -0.00, -1.00, 238.8, 434.9)">n</text><text xml:space="preserve" font-family="Monaco,Monaco" font-size="38.2" fill="#FEFFFF" transform="matrix(1.00, 0.00, -0.00, -1.00, 261.7, 434.9)">t</text><text xml:space="preserve" font-family="Monaco,Monaco" font-size="38.2" fill="#FEFFFF" transform="matrix(1.00, 0.00, -0.00, -1.00, 284.6, 434.9)">s</text><text xml:space="preserve" font-family="Monaco,Monaco" font-size="38.2" fill="#FEFFFF" transform="matrix(1.00, 0.00, -0.00, -1.00, 307.6, 434.9)"> </text><text xml:space="preserve" font-family="Monaco,Monaco" font-size="38.2" fill="#FEFFFF" transform="matrix(1.00, 0.00, -0.00, -1.00, 330.5, 434.9)">M</text><text xml:space="preserve" font-family="Monaco,Monaco" font-size="38.2" fill="#FEFFFF" transform="matrix(1.00, 0.00, -0.00, -1.00, 353.5, 434.9)">a</text><text xml:space="preserve" font-family="Monaco,Monaco" font-size="38.2" fill="#FEFFFF" transform="matrix(1.00, 0.00, -0.00, -1.00, 376.4, 434.9)">t</text><text xml:space="preserve" font-family="Monaco,Monaco" font-size="38.2" fill="#FEFFFF" transform="matrix(1.00, 0.00, -0.00, -1.00, 399.3, 434.9)">c</text><text xml:space="preserve" font-family="Monaco,Monaco" font-size="38.2" fill="#FEFFFF" transform="matrix(1.00, 0.00, -0.00, -1.00, 422.3, 434.9)">h</text><text xml:space="preserve" font-family="Monaco,Monaco" font-size="38.2" fill="#FEFFFF" transform="matrix(1.00, 0.00, -0.00, -1.00, 445.2, 434.9)"> </text><text xml:space="preserve" font-family="Monaco,Monaco" font-size="38.2" fill="#FEFFFF" transform="matrix(1.00, 0.00, -0.00, -1.00, 468.2, 434.9)">t</text><text xml:space="preserve" font-family="Monaco,Monaco" font-size="38.2" fill="#FEFFFF" transform="matrix(1.00, 0.00, -0.00, -1.00, 491.1, 434.9)">o</text><text xml:space="preserve" font-family="Monaco,Monaco" font-size="38.2" fill="#FEFFFF" transform="matrix(1.00, 0.00, -0.00, -1.00, 514.0, 434.9)"> </text><text xml:space="preserve" font-family="Monaco,Monaco" font-size="38.2" fill="#FEFFFF" transform="matrix(1.00, 0.00, -0.00, -1.00, 537.0, 434.9)">s</text><text xml:space="preserve" font-family="Monaco,Monaco" font-size="38.2" fill="#FEFFFF" transform="matrix(1.00, 0.00, -0.00, -1.00, 559.9, 434.9)">t</text><text xml:space="preserve" font-family="Monaco,Monaco" font-size="38.2" fill="#FEFFFF" transform="matrix(1.00, 0.00, -0.00, -1.00, 582.9, 434.9)">d</text><text xml:space="preserve" font-family="Monaco,Monaco" font-size="38.2" fill="#FEFFFF" transform="matrix(1.00, 0.00, -0.00, -1.00, 605.8, 434.9)">o</text><text xml:space="preserve" font-family="Monaco,Monaco" font-size="38.2" fill="#FEFFFF" transform="matrix(1.00, 0.00, -0.00, -1.00, 628.7, 434.9)">u</text><text xml:space="preserve" font-family="Monaco,Monaco" font-size="38.2" fill="#FEFFFF" transform="matrix(1.00, 0.00, -0.00, -1.00, 651.7, 434.9)">t</text><text xml:space="preserve" font-family="Monaco,Monaco" font-size="38.2" fill="#FEFFFF" transform="matrix(1.00, 0.00, -0.00, -1.00, 674.6, 434.9)">	</text><text xml:space="preserve" font-family="Monaco,Monaco" font-size="38.2" fill="#FEFFFF" transform="matrix(1.00, 0.00, -0.00, -1.00, 129.0, 362.1)">•</text><text xml:space="preserve" font-family="Monaco,Monaco" font-size="38.2" fill="#FEFFFF" transform="matrix(1.00, 0.00, -0.00, -1.00, 170.0, 362.1)">I</text><text xml:space="preserve" font-family="Monaco,Monaco" font-size="38.2" fill="#FEFFFF" transform="matrix(1.00, 0.00, -0.00, -1.00, 192.9, 362.1)">g</text><text xml:space="preserve" font-family="Monaco,Monaco" font-size="38.2" fill="#FEFFFF" transform="matrix(1.00, 0.00, -0.00, -1.00, 215.8, 362.1)">n</text><text xml:space="preserve" font-family="Monaco,Monaco" font-size="38.2" fill="#FEFFFF" transform="matrix(1.00, 0.00, -0.00, -1.00, 238.8, 362.1)">o</text><text xml:space="preserve" font-family="Monaco,Monaco" font-size="38.2" fill="#FEFFFF" transform="matrix(1.00, 0.00, -0.00, -1.00, 261.7, 362.1)">r</text><text xml:space="preserve" font-family="Monaco,Monaco" font-size="38.2" fill="#FEFFFF" transform="matrix(1.00, 0.00, -0.00, -1.00, 284.6, 362.1)">e</text><text xml:space="preserve" font-family="Monaco,Monaco" font-size="38.2" fill="#FEFFFF" transform="matrix(1.00, 0.00, -0.00, -1.00, 307.6, 362.1)"> </text><text xml:space="preserve" font-family="Monaco,Monaco" font-size="38.2" fill="#FEFFFF" transform="matrix(1.00, 0.00, -0.00, -1.00, 330.5, 362.1)">C</text><text xml:space="preserve" font-family="Monaco,Monaco" font-size="38.2" fill="#FEFFFF" transform="matrix(1.00, 0.00, -0.00, -1.00, 353.5, 362.1)">a</text><text xml:space="preserve" font-family="Monaco,Monaco" font-size="38.2" fill="#FEFFFF" transform="matrix(1.00, 0.00, -0.00, -1.00, 376.4, 362.1)">s</text><text xml:space="preserve" font-family="Monaco,Monaco" font-size="38.2" fill="#FEFFFF" transform="matrix(1.00, 0.00, -0.00, -1.00, 399.3, 362.1)">e</text><text xml:space="preserve" font-family="Monaco,Monaco" font-size="38.2" fill="#FEFFFF" transform="matrix(1.00, 0.00, -0.00, -1.00, 422.3, 362.1)">:</text><text xml:space="preserve" font-family="Monaco,Monaco" font-size="38.2" fill="#FEFFFF" transform="matrix(1.00, 0.00, -0.00, -1.00, 445.2, 362.1)"> </text><text xml:space="preserve" font-family="Monaco,Monaco" font-size="38.2" fill="#FEFFFF" transform="matrix(1.00, 0.00, -0.00, -1.00, 468.2, 362.1)">-</text><text xml:space="preserve" font-family="Monaco,Monaco" font-size="38.2" fill="#FEFFFF" transform="matrix(1.00, 0.00, -0.00, -1.00, 491.1, 362.1)">i</text><text xml:space="preserve" font-family="Monaco,Monaco" font-size="38.2" fill="#FEFFFF" transform="matrix(1.00, 0.00, -0.00, -1.00, 514.0, 362.1)">	</text><text xml:space="preserve" font-family="Monaco,Monaco" font-size="38.2" fill="#FEFFFF" transform="matrix(1.00, 0.00, -0.00, -1.00, 129.0, 289.2)">•</text><text xml:space="preserve" font-family="Monaco,Monaco" font-size="38.2" fill="#FEFFFF" transform="matrix(1.00, 0.00, -0.00, -1.00, 170.0, 289.2)">P</text><text xml:space="preserve" font-family="Monaco,Monaco" font-size="38.2" fill="#FEFFFF" transform="matrix(1.00, 0.00, -0.00, -1.00, 192.9, 289.2)">r</text><text xml:space="preserve" font-family="Monaco,Monaco" font-size="38.2" fill="#FEFFFF" transform="matrix(1.00, 0.00, -0.00, -1.00, 215.8, 289.2)">i</text><text xml:space="preserve" font-family="Monaco,Monaco" font-size="38.2" fill="#FEFFFF" transform="matrix(1.00, 0.00, -0.00, -1.00, 238.8, 289.2)">n</text><text xml:space="preserve" font-family="Monaco,Monaco" font-size="38.2" fill="#FEFFFF" transform="matrix(1.00, 0.00, -0.00, -1.00, 261.7, 289.2)">t</text><text xml:space="preserve" font-family="Monaco,Monaco" font-size="38.2" fill="#FEFFFF" transform="matrix(1.00, 0.00, -0.00, -1.00, 284.6, 289.2)"> </text><text xml:space="preserve" font-family="Monaco,Monaco" font-size="38.2" fill="#FEFFFF" transform="matrix(1.00, 0.00, -0.00, -1.00, 307.6, 289.2)">5</text><text xml:space="preserve" font-family="Monaco,Monaco" font-size="38.2" fill="#FEFFFF" transform="matrix(1.00, 0.00, -0.00, -1.00, 330.5, 289.2)"> </text><text xml:space="preserve" font-family="Monaco,Monaco" font-size="38.2" fill="#FEFFFF" transform="matrix(1.00, 0.00, -0.00, -1.00, 353.5, 289.2)">L</text><text xml:space="preserve" font-family="Monaco,Monaco" font-size="38.2" fill="#FEFFFF" transform="matrix(1.00, 0.00, -0.00, -1.00, 376.4, 289.2)">i</text><text xml:space="preserve" font-family="Monaco,Monaco" font-size="38.2" fill="#FEFFFF" transform="matrix(1.00, 0.00, -0.00, -1.00, 399.3, 289.2)">n</text><text xml:space="preserve" font-family="Monaco,Monaco" font-size="38.2" fill="#FEFFFF" transform="matrix(1.00, 0.00, -0.00, -1.00, 422.3, 289.2)">e</text><text xml:space="preserve" font-family="Monaco,Monaco" font-size="38.2" fill="#FEFFFF" transform="matrix(1.00, 0.00, -0.00, -1.00, 445.2, 289.2)">s</text><text xml:space="preserve" font-family="Monaco,Monaco" font-size="38.2" fill="#FEFFFF" transform="matrix(1.00, 0.00, -0.00, -1.00, 468.2, 289.2)"> </text><text xml:space="preserve" font-family="Monaco,Monaco" font-size="38.2" fill="#FEFFFF" transform="matrix(1.00, 0.00, -0.00, -1.00, 491.1, 289.2)">A</text><text xml:space="preserve" font-family="Monaco,Monaco" font-size="38.2" fill="#FEFFFF" transform="matrix(1.00, 0.00, -0.00, -1.00, 514.0, 289.2)">f</text><text xml:space="preserve" font-family="Monaco,Monaco" font-size="38.2" fill="#FEFFFF" transform="matrix(1.00, 0.00, -0.00, -1.00, 537.0, 289.2)">t</text><text xml:space="preserve" font-family="Monaco,Monaco" font-size="38.2" fill="#FEFFFF" transform="matrix(1.00, 0.00, -0.00, -1.00, 559.9, 289.2)">e</text><text xml:space="preserve" font-family="Monaco,Monaco" font-size="38.2" fill="#FEFFFF" transform="matrix(1.00, 0.00, -0.00, -1.00, 582.9, 289.2)">r</text><text xml:space="preserve" font-family="Monaco,Monaco" font-size="38.2" fill="#FEFFFF" transform="matrix(1.00, 0.00, -0.00, -1.00, 605.8, 289.2)"> </text><text xml:space="preserve" font-family="Monaco,Monaco" font-size="38.2" fill="#FEFFFF" transform="matrix(1.00, 0.00, -0.00, -1.00, 628.7, 289.2)">M</text><text xml:space="preserve" font-family="Monaco,Monaco" font-size="38.2" fill="#FEFFFF" transform="matrix(1.00, 0.00, -0.00, -1.00, 651.7, 289.2)">a</text><text xml:space="preserve" font-family="Monaco,Monaco" font-size="38.2" fill="#FEFFFF" transform="matrix(1.00, 0.00, -0.00, -1.00, 674.6, 289.2)">t</text><text xml:space="preserve" font-family="Monaco,Monaco" font-size="38.2" fill="#FEFFFF" transform="matrix(1.00, 0.00, -0.00, -1.00, 697.6, 289.2)">c</text><text xml:space="preserve" font-family="Monaco,Monaco" font-size="38.2" fill="#FEFFFF" transform="matrix(1.00, 0.00, -0.00, -1.00, 720.5, 289.2)">h</text><text xml:space="preserve" font-family="Monaco,Monaco" font-size="38.2" fill="#FEFFFF" transform="matrix(1.00, 0.00, -0.00, -1.00, 743.4, 289.2)">:</text><text xml:space="preserve" font-family="Monaco,Monaco" font-size="38.2" fill="#FEFFFF" transform="matrix(1.00, 0.00, -0.00, -1.00, 766.4, 289.2)"> </text><text xml:space="preserve" font-family="Monaco,Monaco" font-size="38.2" fill="#FEFFFF" transform="matrix(1.00, 0.00, -0.00, -1.00, 789.3, 289.2)"> </text><text xml:space="preserve" font-family="Monaco,Monaco" font-size="38.2" fill="#FEFFFF" transform="matrix(1.00, 0.00, -0.00, -1.00, 170.0, 238.2)">-</text><text xml:space="preserve" font-family="Monaco,Monaco" font-size="38.2" fill="#FEFFFF" transform="matrix(1.00, 0.00, -0.00, -1.00, 192.9, 238.2)">A</text><text xml:space="preserve" font-family="Monaco,Monaco" font-size="38.2" fill="#FEFFFF" transform="matrix(1.00, 0.00, -0.00, -1.00, 215.8, 238.2)">5</text><text xml:space="preserve" font-family="Monaco,Monaco" font-size="38.2" fill="#FEFFFF" transform="matrix(1.00, 0.00, -0.00, -1.00, 238.8, 238.2)">	</text><text xml:space="preserve" font-family="Monaco,Monaco" font-size="38.2" fill="#FEFFFF" transform="matrix(1.00, 0.00, -0.00, -1.00, 129.0, 165.4)">•</text><text xml:space="preserve" font-family="Monaco,Monaco" font-size="38.2" fill="#FEFFFF" transform="matrix(1.00, 0.00, -0.00, -1.00, 170.0, 165.4)">P</text><text xml:space="preserve" font-family="Monaco,Monaco" font-size="38.2" fill="#FEFFFF" transform="matrix(1.00, 0.00, -0.00, -1.00, 192.9, 165.4)">r</text><text xml:space="preserve" font-family="Monaco,Monaco" font-size="38.2" fill="#FEFFFF" transform="matrix(1.00, 0.00, -0.00, -1.00, 215.8, 165.4)">i</text><text xml:space="preserve" font-family="Monaco,Monaco" font-size="38.2" fill="#FEFFFF" transform="matrix(1.00, 0.00, -0.00, -1.00, 238.8, 165.4)">n</text><text xml:space="preserve" font-family="Monaco,Monaco" font-size="38.2" fill="#FEFFFF" transform="matrix(1.00, 0.00, -0.00, -1.00, 261.7, 165.4)">t</text><text xml:space="preserve" font-family="Monaco,Monaco" font-size="38.2" fill="#FEFFFF" transform="matrix(1.00, 0.00, -0.00, -1.00, 284.6, 165.4)"> </text><text xml:space="preserve" font-family="Monaco,Monaco" font-size="38.2" fill="#FEFFFF" transform="matrix(1.00, 0.00, -0.00, -1.00, 307.6, 165.4)">5</text><text xml:space="preserve" font-family="Monaco,Monaco" font-size="38.2" fill="#FEFFFF" transform="matrix(1.00, 0.00, -0.00, -1.00, 330.5, 165.4)"> </text><text xml:space="preserve" font-family="Monaco,Monaco" font-size="38.2" fill="#FEFFFF" transform="matrix(1.00, 0.00, -0.00, -1.00, 353.5, 165.4)">L</text><text xml:space="preserve" font-family="Monaco,Monaco" font-size="38.2" fill="#FEFFFF" transform="matrix(1.00, 0.00, -0.00, -1.00, 376.4, 165.4)">i</text><text xml:space="preserve" font-family="Monaco,Monaco" font-size="38.2" fill="#FEFFFF" transform="matrix(1.00, 0.00, -0.00, -1.00, 399.3, 165.4)">n</text><text xml:space="preserve" font-family="Monaco,Monaco" font-size="38.2" fill="#FEFFFF" transform="matrix(1.00, 0.00, -0.00, -1.00, 422.3, 165.4)">e</text><text xml:space="preserve" font-family="Monaco,Monaco" font-size="38.2" fill="#FEFFFF" transform="matrix(1.00, 0.00, -0.00, -1.00, 445.2, 165.4)">s</text><text xml:space="preserve" font-family="Monaco,Monaco" font-size="38.2" fill="#FEFFFF" transform="matrix(1.00, 0.00, -0.00, -1.00, 468.2, 165.4)"> </text><text xml:space="preserve" font-family="Monaco,Monaco" font-size="38.2" fill="#FEFFFF" transform="matrix(1.00, 0.00, -0.00, -1.00, 491.1, 165.4)">B</text><text xml:space="preserve" font-family="Monaco,Monaco" font-size="38.2" fill="#FEFFFF" transform="matrix(1.00, 0.00, -0.00, -1.00, 514.0, 165.4)">e</text><text xml:space="preserve" font-family="Monaco,Monaco" font-size="38.2" fill="#FEFFFF" transform="matrix(1.00, 0.00, -0.00, -1.00, 537.0, 165.4)">f</text><text xml:space="preserve" font-family="Monaco,Monaco" font-size="38.2" fill="#FEFFFF" transform="matrix(1.00, 0.00, -0.00, -1.00, 559.9, 165.4)">o</text><text xml:space="preserve" font-family="Monaco,Monaco" font-size="38.2" fill="#FEFFFF" transform="matrix(1.00, 0.00, -0.00, -1.00, 582.9, 165.4)">r</text><text xml:space="preserve" font-family="Monaco,Monaco" font-size="38.2" fill="#FEFFFF" transform="matrix(1.00, 0.00, -0.00, -1.00, 605.8, 165.4)">e</text><text xml:space="preserve" font-family="Monaco,Monaco" font-size="38.2" fill="#FEFFFF" transform="matrix(1.00, 0.00, -0.00, -1.00, 628.7, 165.4)"> </text><text xml:space="preserve" font-family="Monaco,Monaco" font-size="38.2" fill="#FEFFFF" transform="matrix(1.00, 0.00, -0.00, -1.00, 651.7, 165.4)">M</text><text xml:space="preserve" font-family="Monaco,Monaco" font-size="38.2" fill="#FEFFFF" transform="matrix(1.00, 0.00, -0.00, -1.00, 674.6, 165.4)">a</text><text xml:space="preserve" font-family="Monaco,Monaco" font-size="38.2" fill="#FEFFFF" transform="matrix(1.00, 0.00, -0.00, -1.00, 697.6, 165.4)">t</text><text xml:space="preserve" font-family="Monaco,Monaco" font-size="38.2" fill="#FEFFFF" transform="matrix(1.00, 0.00, -0.00, -1.00, 720.5, 165.4)">c</text><text xml:space="preserve" font-family="Monaco,Monaco" font-size="38.2" fill="#FEFFFF" transform="matrix(1.00, 0.00, -0.00, -1.00, 743.4, 165.4)">h</text><text xml:space="preserve" font-family="Monaco,Monaco" font-size="38.2" fill="#FEFFFF" transform="matrix(1.00, 0.00, -0.00, -1.00, 766.4, 165.4)">:</text><text xml:space="preserve" font-family="Monaco,Monaco" font-size="38.2" fill="#FEFFFF" transform="matrix(1.00, 0.00, -0.00, -1.00, 789.3, 165.4)"> </text><text xml:space="preserve" font-family="Monaco,Monaco" font-size="38.2" fill="#FEFFFF" transform="matrix(1.00, 0.00, -0.00, -1.00, 170.0, 114.4)">-</text><text xml:space="preserve" font-family="Monaco,Monaco" font-size="38.2" fill="#FEFFFF" transform="matrix(1.00, 0.00, -0.00, -1.00, 192.9, 114.4)">B</text><text xml:space="preserve" font-family="Monaco,Monaco" font-size="38.2" fill="#FEFFFF" transform="matrix(1.00, 0.00, -0.00, -1.00, 215.8, 114.4)">5</text></g></svg>