<?xml version="1.0" encoding="UTF-8" standalone="no"?><svg xmlns="http://www.w3.org/2000/svg" xmlns:xlink="http://www.w3.org/1999/xlink" clip-rule="evenodd" stroke-miterlimit="10" viewBox="0 0 1024 768"><desc>SVG generated by Keynote</desc><defs></defs><g transform="matrix(1.00, 0.00, -0.00, -1.00, 0.0, 768.0)"><path d="M 0.0 768.0 L 1024.0 768.0 L 1024.0 0.0 L 0.0 0.0 Z M 0.0 768.0 " fill="#000000"></path><text xml:space="preserve" font-family="LucidaGrande,Lucida Grande" font-size="22.0" fill="#FEFFFE" transform="matrix(1.00, 0.00, -0.00, -1.00, 332.4, 11.6)">F</text><text xml:space="preserve" font-family="LucidaGrande,Lucida Grande" font-size="22.0" fill="#FEFFFE" transform="matrix(1.00, 0.00, -0.00, -1.00, 344.2, 11.6)">e</text><text xml:space="preserve" font-family="LucidaGrande,Lucida Grande" font-size="22.0" fill="#FEFFFE" transform="matrix(1.00, 0.00, -0.00, -1.00, 356.4, 11.6)">e</text><text xml:space="preserve" font-family="LucidaGrande,Lucida Grande" font-size="22.0" fill="#FEFFFE" transform="matrix(1.00, 0.00, -0.00, -1.00, 368.7, 11.6)">d</text><text xml:space="preserve" font-family="LucidaGrande,Lucida Grande" font-size="22.0" fill="#FEFFFE" transform="matrix(1.00, 0.00, -0.00, -1.00, 382.5, 11.6)">b</text><text xml:space="preserve" font-family="LucidaGrande,Lucida Grande" font-size="22.0" fill="#FEFFFE" transform="matrix(1.00, 0.00, -0.00, -1.00, 396.4, 11.6)">a</text><text xml:space="preserve" font-family="LucidaGrande,Lucida Grande" font-size="22.0" fill="#FEFFFE" transform="matrix(1.00, 0.00, -0.00, -1.00, 408.5, 11.6)">c</text><text xml:space="preserve" font-family="LucidaGrande,Lucida Grande" font-size="22.0" fill="#FEFFFE" transform="matrix(1.00, 0.00, -0.00, -1.00, 419.8, 11.6)">k</text><text xml:space="preserve" font-family="LucidaGrande,Lucida Grande" font-size="22.0" fill="#FEFFFE" transform="matrix(1.00, 0.00, -0.00, -1.00, 432.7, 11.6)">:</text><text xml:space="preserve" font-family="LucidaGrande,Lucida Grande" font-size="22.0" fill="#FEFFFE" transform="matrix(1.00, 0.00, -0.00, -1.00, 439.6, 11.6)"> </text><text xml:space="preserve" font-family="LucidaGrande,Lucida Grande" font-size="22.0" fill="#FEFFFE" transform="matrix(1.00, 0.00, -0.00, -1.00, 446.6, 11.6)">h</text><text xml:space="preserve" font-family="LucidaGrande,Lucida Grande" font-size="22.0" fill="#FEFFFE" transform="matrix(1.00, 0.00, -0.00, -1.00, 460.2, 11.6)">t</text><text xml:space="preserve" font-family="LucidaGrande,Lucida Grande" font-size="22.0" fill="#FEFFFE" transform="matrix(1.00, 0.00, -0.00, -1.00, 468.4, 11.6)">t</text><text xml:space="preserve" font-family="LucidaGrande,Lucida Grande" font-size="22.0" fill="#FEFFFE" transform="matrix(1.00, 0.00, -0.00, -1.00, 476.7, 11.6)">p</text><text xml:space="preserve" font-family="LucidaGrande,Lucida Grande" font-size="22.0" fill="#FEFFFE" transform="matrix(1.00, 0.00, -0.00, -1.00, 490.5, 11.6)">:</text><text xml:space="preserve" font-family="LucidaGrande,Lucida Grande" font-size="22.0" fill="#FEFFFE" transform="matrix(1.00, 0.00, -0.00, -1.00, 497.5, 11.6)">/</text><text xml:space="preserve" font-family="LucidaGrande,Lucida Grande" font-size="22.0" fill="#FEFFFE" transform="matrix(1.00, 0.00, -0.00, -1.00, 509.0, 11.6)">/</text><text xml:space="preserve" font-family="LucidaGrande,Lucida Grande" font-size="22.0" fill="#FEFFFE" transform="matrix(1.00, 0.00, -0.00, -1.00, 520.6, 11.6)">j</text><text xml:space="preserve" font-family="LucidaGrande,Lucida Grande" font-size="22.0" fill="#FEFFFE" transform="matrix(1.00, 0.00, -0.00, -1.00, 527.3, 11.6)">.</text><text xml:space="preserve" font-family="LucidaGrande,Lucida Grande" font-size="22.0" fill="#FEFFFE" transform="matrix(1.00, 0.00, -0.00, -1.00, 534.3, 11.6)">m</text><text xml:space="preserve" font-family="LucidaGrande,Lucida Grande" font-size="22.0" fill="#FEFFFE" transform="matrix(1.00, 0.00, -0.00, -1.00, 554.8, 11.6)">p</text><text xml:space="preserve" font-family="LucidaGrande,Lucida Grande" font-size="22.0" fill="#FEFFFE" transform="matrix(1.00, 0.00, -0.00, -1.00, 568.6, 11.6)">/</text><text xml:space="preserve" font-family="LucidaGrande,Lucida Grande" font-size="22.0" fill="#FEFFFE" transform="matrix(1.00, 0.00, -0.00, -1.00, 580.2, 11.6)">p</text><text xml:space="preserve" font-family="LucidaGrande,Lucida Grande" font-size="22.0" fill="#FEFFFE" transform="matrix(1.00, 0.00, -0.00, -1.00, 594.0, 11.6)">s</text><text xml:space="preserve" font-family="LucidaGrande,Lucida Grande" font-size="22.0" fill="#FEFFFE" transform="matrix(1.00, 0.00, -0.00, -1.00, 605.3, 11.6)">u</text><text xml:space="preserve" font-family="LucidaGrande,Lucida Grande" font-size="22.0" fill="#FEFFFE" transform="matrix(1.00, 0.00, -0.00, -1.00, 618.9, 11.6)">m</text><text xml:space="preserve" font-family="LucidaGrande,Lucida Grande" font-size="22.0" fill="#FEFFFE" transform="matrix(1.00, 0.00, -0.00, -1.00, 639.4, 11.6)">a</text><text xml:space="preserve" font-family="LucidaGrande,Lucida Grande" font-size="22.0" fill="#FEFFFE" transform="matrix(1.00, 0.00, -0.00, -1.00, 651.6, 11.6)">c</text><text xml:space="preserve" font-family="LucidaGrande,Lucida Grande" font-size="22.0" fill="#FEFFFE" transform="matrix(1.00, 0.00, -0.00, -1.00, 662.9, 11.6)">1</text><text xml:space="preserve" font-family="LucidaGrande,Lucida Grande" font-size="22.0" fill="#FEFFFE" transform="matrix(1.00, 0.00, -0.00, -1.00, 676.8, 11.6)">3</text><text xml:space="preserve" font-family="Monaco,Monaco" font-size="84.0" fill="#FEFFFF" transform="matrix(1.00, 0.00, -0.00, -1.00, 386.0, 620.0)">l</text><text xml:space="preserve" font-family="Monaco,Monaco" font-size="84.0" fill="#FEFFFF" transform="matrix(1.00, 0.00, -0.00, -1.00, 436.4, 620.0)">s</text><text xml:space="preserve" font-family="Monaco,Monaco" font-size="84.0" fill="#FEFFFF" transform="matrix(1.00, 0.00, -0.00, -1.00, 486.8, 620.0)"> </text><text xml:space="preserve" font-family="Monaco,Monaco" font-size="84.0" fill="#FEFFFF" transform="matrix(1.00, 0.00, -0.00, -1.00, 537.2, 620.0)">-</text><text xml:space="preserve" font-family="Monaco,Monaco" font-size="84.0" fill="#FEFFFF" transform="matrix(1.00, 0.00, -0.00, -1.00, 587.6, 620.0)">l</text><text xml:space="preserve" font-family="Monaco,Monaco" font-size="30.0" fill="#FEFFFF" transform="matrix(1.00, 0.00, -0.00, -1.00, 237.5, 494.9)">•</text><text xml:space="preserve" font-family="Monaco,Monaco" font-size="30.0" fill="#FEFFFF" transform="matrix(1.00, 0.00, -0.00, -1.00, 276.5, 494.9)">L</text><text xml:space="preserve" font-family="Monaco,Monaco" font-size="30.0" fill="#FEFFFF" transform="matrix(1.00, 0.00, -0.00, -1.00, 294.5, 494.9)">o</text><text xml:space="preserve" font-family="Monaco,Monaco" font-size="30.0" fill="#FEFFFF" transform="matrix(1.00, 0.00, -0.00, -1.00, 312.5, 494.9)">n</text><text xml:space="preserve" font-family="Monaco,Monaco" font-size="30.0" fill="#FEFFFF" transform="matrix(1.00, 0.00, -0.00, -1.00, 330.5, 494.9)">g</text><text xml:space="preserve" font-family="Monaco,Monaco" font-size="30.0" fill="#FEFFFF" transform="matrix(1.00, 0.00, -0.00, -1.00, 348.5, 494.9)"> </text><text xml:space="preserve" font-family="Monaco,Monaco" font-size="30.0" fill="#FEFFFF" transform="matrix(1.00, 0.00, -0.00, -1.00, 366.5, 494.9)">L</text><text xml:space="preserve" font-family="Monaco,Monaco" font-size="30.0" fill="#FEFFFF" transform="matrix(1.00, 0.00, -0.00, -1.00, 384.5, 494.9)">i</text><text xml:space="preserve" font-family="Monaco,Monaco" font-size="30.0" fill="#FEFFFF" transform="matrix(1.00, 0.00, -0.00, -1.00, 402.5, 494.9)">s</text><text xml:space="preserve" font-family="Monaco,Monaco" font-size="30.0" fill="#FEFFFF" transform="matrix(1.00, 0.00, -0.00, -1.00, 420.5, 494.9)">t</text><text xml:space="preserve" font-family="Monaco,Monaco" font-size="30.0" fill="#FEFFFF" transform="matrix(1.00, 0.00, -0.00, -1.00, 438.5, 494.9)">i</text><text xml:space="preserve" font-family="Monaco,Monaco" font-size="30.0" fill="#FEFFFF" transform="matrix(1.00, 0.00, -0.00, -1.00, 456.6, 494.9)">n</text><text xml:space="preserve" font-family="Monaco,Monaco" font-size="30.0" fill="#FEFFFF" transform="matrix(1.00, 0.00, -0.00, -1.00, 474.6, 494.9)">g</text><text xml:space="preserve" font-family="Monaco,Monaco" font-size="30.0" fill="#FEFFFF" transform="matrix(1.00, 0.00, -0.00, -1.00, 492.5, 494.9)"> </text><text xml:space="preserve" font-family="Monaco,Monaco" font-size="30.0" fill="#FEFFFF" transform="matrix(1.00, 0.00, -0.00, -1.00, 510.5, 494.9)">s</text><text xml:space="preserve" font-family="Monaco,Monaco" font-size="30.0" fill="#FEFFFF" transform="matrix(1.00, 0.00, -0.00, -1.00, 528.5, 494.9)">h</text><text xml:space="preserve" font-family="Monaco,Monaco" font-size="30.0" fill="#FEFFFF" transform="matrix(1.00, 0.00, -0.00, -1.00, 546.5, 494.9)">o</text><text xml:space="preserve" font-family="Monaco,Monaco" font-size="30.0" fill="#FEFFFF" transform="matrix(1.00, 0.00, -0.00, -1.00, 564.6, 494.9)">w</text><text xml:space="preserve" font-family="Monaco,Monaco" font-size="30.0" fill="#FEFFFF" transform="matrix(1.00, 0.00, -0.00, -1.00, 582.6, 494.9)">s</text><text xml:space="preserve" font-family="Monaco,Monaco" font-size="30.0" fill="#FEFFFF" transform="matrix(1.00, 0.00, -0.00, -1.00, 600.6, 494.9)"> </text><text xml:space="preserve" font-family="Monaco,Monaco" font-size="30.0" fill="#FEFFFF" transform="matrix(1.00, 0.00, -0.00, -1.00, 618.6, 494.9)">f</text><text xml:space="preserve" font-family="Monaco,Monaco" font-size="30.0" fill="#FEFFFF" transform="matrix(1.00, 0.00, -0.00, -1.00, 636.6, 494.9)">i</text><text xml:space="preserve" font-family="Monaco,Monaco" font-size="30.0" fill="#FEFFFF" transform="matrix(1.00, 0.00, -0.00, -1.00, 654.6, 494.9)">l</text><text xml:space="preserve" font-family="Monaco,Monaco" font-size="30.0" fill="#FEFFFF" transform="matrix(1.00, 0.00, -0.00, -1.00, 672.6, 494.9)">e</text><text xml:space="preserve" font-family="Monaco,Monaco" font-size="30.0" fill="#FEFFFF" transform="matrix(1.00, 0.00, -0.00, -1.00, 690.6, 494.9)"> </text><text xml:space="preserve" font-family="Monaco,Monaco" font-size="30.0" fill="#FEFFFF" transform="matrix(1.00, 0.00, -0.00, -1.00, 708.6, 494.9)">t</text><text xml:space="preserve" font-family="Monaco,Monaco" font-size="30.0" fill="#FEFFFF" transform="matrix(1.00, 0.00, -0.00, -1.00, 726.6, 494.9)">y</text><text xml:space="preserve" font-family="Monaco,Monaco" font-size="30.0" fill="#FEFFFF" transform="matrix(1.00, 0.00, -0.00, -1.00, 744.6, 494.9)">p</text><text xml:space="preserve" font-family="Monaco,Monaco" font-size="30.0" fill="#FEFFFF" transform="matrix(1.00, 0.00, -0.00, -1.00, 762.6, 494.9)">e</text><text xml:space="preserve" font-family="Monaco,Monaco" font-size="24.0" fill="#FEFFFF" transform="matrix(1.00, 0.00, -0.00, -1.00, 93.7, 360.8)">•</text><text xml:space="preserve" font-family="Monaco,Monaco" font-size="24.0" fill="#FEFFFF" transform="matrix(1.00, 0.00, -0.00, -1.00, 132.7, 360.8)">d</text><text xml:space="preserve" font-family="Monaco,Monaco" font-size="24.0" fill="#FEFFFF" transform="matrix(1.00, 0.00, -0.00, -1.00, 147.1, 360.8)">i</text><text xml:space="preserve" font-family="Monaco,Monaco" font-size="24.0" fill="#FEFFFF" transform="matrix(1.00, 0.00, -0.00, -1.00, 161.5, 360.8)">r</text><text xml:space="preserve" font-family="Monaco,Monaco" font-size="24.0" fill="#FEFFFF" transform="matrix(1.00, 0.00, -0.00, -1.00, 175.9, 360.8)">e</text><text xml:space="preserve" font-family="Monaco,Monaco" font-size="24.0" fill="#FEFFFF" transform="matrix(1.00, 0.00, -0.00, -1.00, 190.3, 360.8)">c</text><text xml:space="preserve" font-family="Monaco,Monaco" font-size="24.0" fill="#FEFFFF" transform="matrix(1.00, 0.00, -0.00, -1.00, 204.7, 360.8)">t</text><text xml:space="preserve" font-family="Monaco,Monaco" font-size="24.0" fill="#FEFFFF" transform="matrix(1.00, 0.00, -0.00, -1.00, 219.1, 360.8)">o</text><text xml:space="preserve" font-family="Monaco,Monaco" font-size="24.0" fill="#FEFFFF" transform="matrix(1.00, 0.00, -0.00, -1.00, 233.5, 360.8)">r</text><text xml:space="preserve" font-family="Monaco,Monaco" font-size="24.0" fill="#FEFFFF" transform="matrix(1.00, 0.00, -0.00, -1.00, 247.9, 360.8)">i</text><text xml:space="preserve" font-family="Monaco,Monaco" font-size="24.0" fill="#FEFFFF" transform="matrix(1.00, 0.00, -0.00, -1.00, 262.3, 360.8)">e</text><text xml:space="preserve" font-family="Monaco,Monaco" font-size="24.0" fill="#FEFFFF" transform="matrix(1.00, 0.00, -0.00, -1.00, 276.7, 360.8)">s</text><text xml:space="preserve" font-family="Monaco,Monaco" font-size="24.0" fill="#FEFFFF" transform="matrix(1.00, 0.00, -0.00, -1.00, 291.1, 360.8)"> </text><text xml:space="preserve" font-family="Monaco,Monaco" font-size="24.0" fill="#FEFFFF" transform="matrix(1.00, 0.00, -0.00, -1.00, 305.5, 360.8)">=</text><text xml:space="preserve" font-family="Monaco,Monaco" font-size="24.0" fill="#FEFFFF" transform="matrix(1.00, 0.00, -0.00, -1.00, 320.0, 360.8)"> </text><text xml:space="preserve" font-family="Monaco,Monaco" font-size="24.0" fill="#FEFFFF" transform="matrix(1.00, 0.00, -0.00, -1.00, 334.4, 360.8)">d</text><text xml:space="preserve" font-family="Monaco,Monaco" font-size="24.0" fill="#FEFFFF" transform="matrix(1.00, 0.00, -0.00, -1.00, 348.8, 360.8)">	</text><text xml:space="preserve" font-family="Monaco,Monaco" font-size="24.0" fill="#FEFFFF" transform="matrix(1.00, 0.00, -0.00, -1.00, 93.7, 290.8)">•</text><text xml:space="preserve" font-family="Monaco,Monaco" font-size="24.0" fill="#FEFFFF" transform="matrix(1.00, 0.00, -0.00, -1.00, 132.7, 290.8)">f</text><text xml:space="preserve" font-family="Monaco,Monaco" font-size="24.0" fill="#FEFFFF" transform="matrix(1.00, 0.00, -0.00, -1.00, 147.1, 290.8)">i</text><text xml:space="preserve" font-family="Monaco,Monaco" font-size="24.0" fill="#FEFFFF" transform="matrix(1.00, 0.00, -0.00, -1.00, 161.5, 290.8)">l</text><text xml:space="preserve" font-family="Monaco,Monaco" font-size="24.0" fill="#FEFFFF" transform="matrix(1.00, 0.00, -0.00, -1.00, 175.9, 290.8)">e</text><text xml:space="preserve" font-family="Monaco,Monaco" font-size="24.0" fill="#FEFFFF" transform="matrix(1.00, 0.00, -0.00, -1.00, 190.3, 290.8)"> </text><text xml:space="preserve" font-family="Monaco,Monaco" font-size="24.0" fill="#FEFFFF" transform="matrix(1.00, 0.00, -0.00, -1.00, 204.7, 290.8)">=</text><text xml:space="preserve" font-family="Monaco,Monaco" font-size="24.0" fill="#FEFFFF" transform="matrix(1.00, 0.00, -0.00, -1.00, 219.1, 290.8)"> </text><text xml:space="preserve" font-family="Monaco,Monaco" font-size="24.0" fill="#FEFFFF" transform="matrix(1.00, 0.00, -0.00, -1.00, 233.5, 290.8)">-</text><text xml:space="preserve" font-family="Monaco,Monaco" font-size="24.0" fill="#FEFFFF" transform="matrix(1.00, 0.00, -0.00, -1.00, 247.9, 290.8)">	</text><text xml:space="preserve" font-family="Monaco,Monaco" font-size="24.0" fill="#FEFFFF" transform="matrix(1.00, 0.00, -0.00, -1.00, 93.7, 220.8)">•</text><text xml:space="preserve" font-family="Monaco,Monaco" font-size="24.0" fill="#FEFFFF" transform="matrix(1.00, 0.00, -0.00, -1.00, 132.7, 220.8)">s</text><text xml:space="preserve" font-family="Monaco,Monaco" font-size="24.0" fill="#FEFFFF" transform="matrix(1.00, 0.00, -0.00, -1.00, 147.1, 220.8)">o</text><text xml:space="preserve" font-family="Monaco,Monaco" font-size="24.0" fill="#FEFFFF" transform="matrix(1.00, 0.00, -0.00, -1.00, 161.5, 220.8)">f</text><text xml:space="preserve" font-family="Monaco,Monaco" font-size="24.0" fill="#FEFFFF" transform="matrix(1.00, 0.00, -0.00, -1.00, 175.9, 220.8)">t</text><text xml:space="preserve" font-family="Monaco,Monaco" font-size="24.0" fill="#FEFFFF" transform="matrix(1.00, 0.00, -0.00, -1.00, 190.3, 220.8)"> </text><text xml:space="preserve" font-family="Monaco,Monaco" font-size="24.0" fill="#FEFFFF" transform="matrix(1.00, 0.00, -0.00, -1.00, 204.7, 220.8)">(</text><text xml:space="preserve" font-family="Monaco,Monaco" font-size="24.0" fill="#FEFFFF" transform="matrix(1.00, 0.00, -0.00, -1.00, 219.1, 220.8)">s</text><text xml:space="preserve" font-family="Monaco,Monaco" font-size="24.0" fill="#FEFFFF" transform="matrix(1.00, 0.00, -0.00, -1.00, 233.5, 220.8)">y</text><text xml:space="preserve" font-family="Monaco,Monaco" font-size="24.0" fill="#FEFFFF" transform="matrix(1.00, 0.00, -0.00, -1.00, 247.9, 220.8)">m</text><text xml:space="preserve" font-family="Monaco,Monaco" font-size="24.0" fill="#FEFFFF" transform="matrix(1.00, 0.00, -0.00, -1.00, 262.3, 220.8)">b</text><text xml:space="preserve" font-family="Monaco,Monaco" font-size="24.0" fill="#FEFFFF" transform="matrix(1.00, 0.00, -0.00, -1.00, 276.7, 220.8)">o</text><text xml:space="preserve" font-family="Monaco,Monaco" font-size="24.0" fill="#FEFFFF" transform="matrix(1.00, 0.00, -0.00, -1.00, 291.1, 220.8)">l</text><text xml:space="preserve" font-family="Monaco,Monaco" font-size="24.0" fill="#FEFFFF" transform="matrix(1.00, 0.00, -0.00, -1.00, 305.5, 220.8)">i</text><text xml:space="preserve" font-family="Monaco,Monaco" font-size="24.0" fill="#FEFFFF" transform="matrix(1.00, 0.00, -0.00, -1.00, 320.0, 220.8)">c</text><text xml:space="preserve" font-family="Monaco,Monaco" font-size="24.0" fill="#FEFFFF" transform="matrix(1.00, 0.00, -0.00, -1.00, 334.4, 220.8)">)</text><text xml:space="preserve" font-family="Monaco,Monaco" font-size="24.0" fill="#FEFFFF" transform="matrix(1.00, 0.00, -0.00, -1.00, 348.8, 220.8)"> </text><text xml:space="preserve" font-family="Monaco,Monaco" font-size="24.0" fill="#FEFFFF" transform="matrix(1.00, 0.00, -0.00, -1.00, 363.2, 220.8)">l</text><text xml:space="preserve" font-family="Monaco,Monaco" font-size="24.0" fill="#FEFFFF" transform="matrix(1.00, 0.00, -0.00, -1.00, 377.6, 220.8)">i</text><text xml:space="preserve" font-family="Monaco,Monaco" font-size="24.0" fill="#FEFFFF" transform="matrix(1.00, 0.00, -0.00, -1.00, 392.0, 220.8)">n</text><text xml:space="preserve" font-family="Monaco,Monaco" font-size="24.0" fill="#FEFFFF" transform="matrix(1.00, 0.00, -0.00, -1.00, 406.4, 220.8)">k</text><text xml:space="preserve" font-family="Monaco,Monaco" font-size="24.0" fill="#FEFFFF" transform="matrix(1.00, 0.00, -0.00, -1.00, 420.8, 220.8)"> </text><text xml:space="preserve" font-family="Monaco,Monaco" font-size="24.0" fill="#FEFFFF" transform="matrix(1.00, 0.00, -0.00, -1.00, 435.2, 220.8)">=</text><text xml:space="preserve" font-family="Monaco,Monaco" font-size="24.0" fill="#FEFFFF" transform="matrix(1.00, 0.00, -0.00, -1.00, 449.6, 220.8)"> </text><text xml:space="preserve" font-family="Monaco,Monaco" font-size="24.0" fill="#FEFFFF" transform="matrix(1.00, 0.00, -0.00, -1.00, 464.0, 220.8)">l</text><text xml:space="preserve" font-family="Monaco,Monaco" font-size="24.0" fill="#FEFFFF" transform="matrix(1.00, 0.00, -0.00, -1.00, 478.4, 220.8)">	</text><text xml:space="preserve" font-family="Monaco,Monaco" font-size="24.0" fill="#FEFFFF" transform="matrix(1.00, 0.00, -0.00, -1.00, 559.2, 360.8)">•</text><text xml:space="preserve" font-family="Monaco,Monaco" font-size="24.0" fill="#FEFFFF" transform="matrix(1.00, 0.00, -0.00, -1.00, 598.1, 360.8)">h</text><text xml:space="preserve" font-family="Monaco,Monaco" font-size="24.0" fill="#FEFFFF" transform="matrix(1.00, 0.00, -0.00, -1.00, 612.5, 360.8)">a</text><text xml:space="preserve" font-family="Monaco,Monaco" font-size="24.0" fill="#FEFFFF" transform="matrix(1.00, 0.00, -0.00, -1.00, 626.9, 360.8)">r</text><text xml:space="preserve" font-family="Monaco,Monaco" font-size="24.0" fill="#FEFFFF" transform="matrix(1.00, 0.00, -0.00, -1.00, 641.3, 360.8)">d</text><text xml:space="preserve" font-family="Monaco,Monaco" font-size="24.0" fill="#FEFFFF" transform="matrix(1.00, 0.00, -0.00, -1.00, 655.7, 360.8)"> </text><text xml:space="preserve" font-family="Monaco,Monaco" font-size="24.0" fill="#FEFFFF" transform="matrix(1.00, 0.00, -0.00, -1.00, 670.1, 360.8)">l</text><text xml:space="preserve" font-family="Monaco,Monaco" font-size="24.0" fill="#FEFFFF" transform="matrix(1.00, 0.00, -0.00, -1.00, 684.5, 360.8)">i</text><text xml:space="preserve" font-family="Monaco,Monaco" font-size="24.0" fill="#FEFFFF" transform="matrix(1.00, 0.00, -0.00, -1.00, 698.9, 360.8)">n</text><text xml:space="preserve" font-family="Monaco,Monaco" font-size="24.0" fill="#FEFFFF" transform="matrix(1.00, 0.00, -0.00, -1.00, 713.3, 360.8)">k</text><text xml:space="preserve" font-family="Monaco,Monaco" font-size="24.0" fill="#FEFFFF" transform="matrix(1.00, 0.00, -0.00, -1.00, 727.8, 360.8)"> </text><text xml:space="preserve" font-family="Monaco,Monaco" font-size="24.0" fill="#FEFFFF" transform="matrix(1.00, 0.00, -0.00, -1.00, 742.2, 360.8)">=</text><text xml:space="preserve" font-family="Monaco,Monaco" font-size="24.0" fill="#FEFFFF" transform="matrix(1.00, 0.00, -0.00, -1.00, 756.6, 360.8)"> </text><text xml:space="preserve" font-family="Monaco,Monaco" font-size="24.0" fill="#FEFFFF" transform="matrix(1.00, 0.00, -0.00, -1.00, 771.0, 360.8)">-</text><text xml:space="preserve" font-family="Monaco,Monaco" font-size="24.0" fill="#FEFFFF" transform="matrix(1.00, 0.00, -0.00, -1.00, 785.4, 360.8)">	</text><text xml:space="preserve" font-family="Monaco,Monaco" font-size="24.0" fill="#FEFFFF" transform="matrix(1.00, 0.00, -0.00, -1.00, 559.2, 290.8)">•</text><text xml:space="preserve" font-family="Monaco,Monaco" font-size="24.0" fill="#FEFFFF" transform="matrix(1.00, 0.00, -0.00, -1.00, 598.1, 290.8)">b</text><text xml:space="preserve" font-family="Monaco,Monaco" font-size="24.0" fill="#FEFFFF" transform="matrix(1.00, 0.00, -0.00, -1.00, 612.5, 290.8)">l</text><text xml:space="preserve" font-family="Monaco,Monaco" font-size="24.0" fill="#FEFFFF" transform="matrix(1.00, 0.00, -0.00, -1.00, 626.9, 290.8)">o</text><text xml:space="preserve" font-family="Monaco,Monaco" font-size="24.0" fill="#FEFFFF" transform="matrix(1.00, 0.00, -0.00, -1.00, 641.3, 290.8)">c</text><text xml:space="preserve" font-family="Monaco,Monaco" font-size="24.0" fill="#FEFFFF" transform="matrix(1.00, 0.00, -0.00, -1.00, 655.7, 290.8)">k</text><text xml:space="preserve" font-family="Monaco,Monaco" font-size="24.0" fill="#FEFFFF" transform="matrix(1.00, 0.00, -0.00, -1.00, 670.1, 290.8)"> </text><text xml:space="preserve" font-family="Monaco,Monaco" font-size="24.0" fill="#FEFFFF" transform="matrix(1.00, 0.00, -0.00, -1.00, 684.5, 290.8)">d</text><text xml:space="preserve" font-family="Monaco,Monaco" font-size="24.0" fill="#FEFFFF" transform="matrix(1.00, 0.00, -0.00, -1.00, 698.9, 290.8)">e</text><text xml:space="preserve" font-family="Monaco,Monaco" font-size="24.0" fill="#FEFFFF" transform="matrix(1.00, 0.00, -0.00, -1.00, 713.3, 290.8)">v</text><text xml:space="preserve" font-family="Monaco,Monaco" font-size="24.0" fill="#FEFFFF" transform="matrix(1.00, 0.00, -0.00, -1.00, 727.8, 290.8)">i</text><text xml:space="preserve" font-family="Monaco,Monaco" font-size="24.0" fill="#FEFFFF" transform="matrix(1.00, 0.00, -0.00, -1.00, 742.2, 290.8)">c</text><text xml:space="preserve" font-family="Monaco,Monaco" font-size="24.0" fill="#FEFFFF" transform="matrix(1.00, 0.00, -0.00, -1.00, 756.6, 290.8)">e</text><text xml:space="preserve" font-family="Monaco,Monaco" font-size="24.0" fill="#FEFFFF" transform="matrix(1.00, 0.00, -0.00, -1.00, 771.0, 290.8)"> </text><text xml:space="preserve" font-family="Monaco,Monaco" font-size="24.0" fill="#FEFFFF" transform="matrix(1.00, 0.00, -0.00, -1.00, 785.4, 290.8)">=</text><text xml:space="preserve" font-family="Monaco,Monaco" font-size="24.0" fill="#FEFFFF" transform="matrix(1.00, 0.00, -0.00, -1.00, 799.8, 290.8)"> </text><text xml:space="preserve" font-family="Monaco,Monaco" font-size="24.0" fill="#FEFFFF" transform="matrix(1.00, 0.00, -0.00, -1.00, 814.2, 290.8)">b</text><text xml:space="preserve" font-family="Monaco,Monaco" font-size="24.0" fill="#FEFFFF" transform="matrix(1.00, 0.00, -0.00, -1.00, 828.6, 290.8)">	</text><text xml:space="preserve" font-family="Monaco,Monaco" font-size="24.0" fill="#FEFFFF" transform="matrix(1.00, 0.00, -0.00, -1.00, 559.2, 220.8)">•</text><text xml:space="preserve" font-family="Monaco,Monaco" font-size="24.0" fill="#FEFFFF" transform="matrix(1.00, 0.00, -0.00, -1.00, 598.1, 220.8)">c</text><text xml:space="preserve" font-family="Monaco,Monaco" font-size="24.0" fill="#FEFFFF" transform="matrix(1.00, 0.00, -0.00, -1.00, 612.5, 220.8)">h</text><text xml:space="preserve" font-family="Monaco,Monaco" font-size="24.0" fill="#FEFFFF" transform="matrix(1.00, 0.00, -0.00, -1.00, 626.9, 220.8)">a</text><text xml:space="preserve" font-family="Monaco,Monaco" font-size="24.0" fill="#FEFFFF" transform="matrix(1.00, 0.00, -0.00, -1.00, 641.3, 220.8)">r</text><text xml:space="preserve" font-family="Monaco,Monaco" font-size="24.0" fill="#FEFFFF" transform="matrix(1.00, 0.00, -0.00, -1.00, 655.7, 220.8)">a</text><text xml:space="preserve" font-family="Monaco,Monaco" font-size="24.0" fill="#FEFFFF" transform="matrix(1.00, 0.00, -0.00, -1.00, 670.1, 220.8)">c</text><text xml:space="preserve" font-family="Monaco,Monaco" font-size="24.0" fill="#FEFFFF" transform="matrix(1.00, 0.00, -0.00, -1.00, 684.5, 220.8)">t</text><text xml:space="preserve" font-family="Monaco,Monaco" font-size="24.0" fill="#FEFFFF" transform="matrix(1.00, 0.00, -0.00, -1.00, 698.9, 220.8)">e</text><text xml:space="preserve" font-family="Monaco,Monaco" font-size="24.0" fill="#FEFFFF" transform="matrix(1.00, 0.00, -0.00, -1.00, 713.3, 220.8)">r</text><text xml:space="preserve" font-family="Monaco,Monaco" font-size="24.0" fill="#FEFFFF" transform="matrix(1.00, 0.00, -0.00, -1.00, 727.8, 220.8)"> </text><text xml:space="preserve" font-family="Monaco,Monaco" font-size="24.0" fill="#FEFFFF" transform="matrix(1.00, 0.00, -0.00, -1.00, 742.2, 220.8)">d</text><text xml:space="preserve" font-family="Monaco,Monaco" font-size="24.0" fill="#FEFFFF" transform="matrix(1.00, 0.00, -0.00, -1.00, 756.6, 220.8)">e</text><text xml:space="preserve" font-family="Monaco,Monaco" font-size="24.0" fill="#FEFFFF" transform="matrix(1.00, 0.00, -0.00, -1.00, 771.0, 220.8)">v</text><text xml:space="preserve" font-family="Monaco,Monaco" font-size="24.0" fill="#FEFFFF" transform="matrix(1.00, 0.00, -0.00, -1.00, 785.4, 220.8)">i</text><text xml:space="preserve" font-family="Monaco,Monaco" font-size="24.0" fill="#FEFFFF" transform="matrix(1.00, 0.00, -0.00, -1.00, 799.8, 220.8)">c</text><text xml:space="preserve" font-family="Monaco,Monaco" font-size="24.0" fill="#FEFFFF" transform="matrix(1.00, 0.00, -0.00, -1.00, 814.2, 220.8)">e</text><text xml:space="preserve" font-family="Monaco,Monaco" font-size="24.0" fill="#FEFFFF" transform="matrix(1.00, 0.00, -0.00, -1.00, 828.6, 220.8)"> </text><text xml:space="preserve" font-family="Monaco,Monaco" font-size="24.0" fill="#FEFFFF" transform="matrix(1.00, 0.00, -0.00, -1.00, 843.0, 220.8)">=</text><text xml:space="preserve" font-family="Monaco,Monaco" font-size="24.0" fill="#FEFFFF" transform="matrix(1.00, 0.00, -0.00, -1.00, 857.4, 220.8)"> </text><text xml:space="preserve" font-family="Monaco,Monaco" font-size="24.0" fill="#FEFFFF" transform="matrix(1.00, 0.00, -0.00, -1.00, 871.8, 220.8)">c</text></g></svg>