<?xml version="1.0" encoding="UTF-8" standalone="no"?><svg xmlns="http://www.w3.org/2000/svg" xmlns:xlink="http://www.w3.org/1999/xlink" clip-rule="evenodd" stroke-miterlimit="10" viewBox="0 0 1024 768"><desc>SVG generated by Keynote</desc><defs></defs><g transform="matrix(1.00, 0.00, -0.00, -1.00, 0.0, 768.0)"><path d="M 0.0 768.0 L 1024.0 768.0 L 1024.0 0.0 L 0.0 0.0 Z M 0.0 768.0 " fill="#000000"></path><text xml:space="preserve" font-family="LucidaGrande,Lucida Grande" font-size="22.0" fill="#FEFFFE" transform="matrix(1.00, 0.00, -0.00, -1.00, 332.4, 11.6)">F</text><text xml:space="preserve" font-family="LucidaGrande,Lucida Grande" font-size="22.0" fill="#FEFFFE" transform="matrix(1.00, 0.00, -0.00, -1.00, 344.2, 11.6)">e</text><text xml:space="preserve" font-family="LucidaGrande,Lucida Grande" font-size="22.0" fill="#FEFFFE" transform="matrix(1.00, 0.00, -0.00, -1.00, 356.4, 11.6)">e</text><text xml:space="preserve" font-family="LucidaGrande,Lucida Grande" font-size="22.0" fill="#FEFFFE" transform="matrix(1.00, 0.00, -0.00, -1.00, 368.7, 11.6)">d</text><text xml:space="preserve" font-family="LucidaGrande,Lucida Grande" font-size="22.0" fill="#FEFFFE" transform="matrix(1.00, 0.00, -0.00, -1.00, 382.5, 11.6)">b</text><text xml:space="preserve" font-family="LucidaGrande,Lucida Grande" font-size="22.0" fill="#FEFFFE" transform="matrix(1.00, 0.00, -0.00, -1.00, 396.4, 11.6)">a</text><text xml:space="preserve" font-family="LucidaGrande,Lucida Grande" font-size="22.0" fill="#FEFFFE" transform="matrix(1.00, 0.00, -0.00, -1.00, 408.5, 11.6)">c</text><text xml:space="preserve" font-family="LucidaGrande,Lucida Grande" font-size="22.0" fill="#FEFFFE" transform="matrix(1.00, 0.00, -0.00, -1.00, 419.8, 11.6)">k</text><text xml:space="preserve" font-family="LucidaGrande,Lucida Grande" font-size="22.0" fill="#FEFFFE" transform="matrix(1.00, 0.00, -0.00, -1.00, 432.7, 11.6)">:</text><text xml:space="preserve" font-family="LucidaGrande,Lucida Grande" font-size="22.0" fill="#FEFFFE" transform="matrix(1.00, 0.00, -0.00, -1.00, 439.6, 11.6)"> </text><text xml:space="preserve" font-family="LucidaGrande,Lucida Grande" font-size="22.0" fill="#FEFFFE" transform="matrix(1.00, 0.00, -0.00, -1.00, 446.6, 11.6)">h</text><text xml:space="preserve" font-family="LucidaGrande,Lucida Grande" font-size="22.0" fill="#FEFFFE" transform="matrix(1.00, 0.00, -0.00, -1.00, 460.2, 11.6)">t</text><text xml:space="preserve" font-family="LucidaGrande,Lucida Grande" font-size="22.0" fill="#FEFFFE" transform="matrix(1.00, 0.00, -0.00, -1.00, 468.4, 11.6)">t</text><text xml:space="preserve" font-family="LucidaGrande,Lucida Grande" font-size="22.0" fill="#FEFFFE" transform="matrix(1.00, 0.00, -0.00, -1.00, 476.7, 11.6)">p</text><text xml:space="preserve" font-family="LucidaGrande,Lucida Grande" font-size="22.0" fill="#FEFFFE" transform="matrix(1.00, 0.00, -0.00, -1.00, 490.5, 11.6)">:</text><text xml:space="preserve" font-family="LucidaGrande,Lucida Grande" font-size="22.0" fill="#FEFFFE" transform="matrix(1.00, 0.00, -0.00, -1.00, 497.5, 11.6)">/</text><text xml:space="preserve" font-family="LucidaGrande,Lucida Grande" font-size="22.0" fill="#FEFFFE" transform="matrix(1.00, 0.00, -0.00, -1.00, 509.0, 11.6)">/</text><text xml:space="preserve" font-family="LucidaGrande,Lucida Grande" font-size="22.0" fill="#FEFFFE" transform="matrix(1.00, 0.00, -0.00, -1.00, 520.6, 11.6)">j</text><text xml:space="preserve" font-family="LucidaGrande,Lucida Grande" font-size="22.0" fill="#FEFFFE" transform="matrix(1.00, 0.00, -0.00, -1.00, 527.3, 11.6)">.</text><text xml:space="preserve" font-family="LucidaGrande,Lucida Grande" font-size="22.0" fill="#FEFFFE" transform="matrix(1.00, 0.00, -0.00, -1.00, 534.3, 11.6)">m</text><text xml:space="preserve" font-family="LucidaGrande,Lucida Grande" font-size="22.0" fill="#FEFFFE" transform="matrix(1.00, 0.00, -0.00, -1.00, 554.8, 11.6)">p</text><text xml:space="preserve" font-family="LucidaGrande,Lucida Grande" font-size="22.0" fill="#FEFFFE" transform="matrix(1.00, 0.00, -0.00, -1.00, 568.6, 11.6)">/</text><text xml:space="preserve" font-family="LucidaGrande,Lucida Grande" font-size="22.0" fill="#FEFFFE" transform="matrix(1.00, 0.00, -0.00, -1.00, 580.2, 11.6)">p</text><text xml:space="preserve" font-family="LucidaGrande,Lucida Grande" font-size="22.0" fill="#FEFFFE" transform="matrix(1.00, 0.00, -0.00, -1.00, 594.0, 11.6)">s</text><text xml:space="preserve" font-family="LucidaGrande,Lucida Grande" font-size="22.0" fill="#FEFFFE" transform="matrix(1.00, 0.00, -0.00, -1.00, 605.3, 11.6)">u</text><text xml:space="preserve" font-family="LucidaGrande,Lucida Grande" font-size="22.0" fill="#FEFFFE" transform="matrix(1.00, 0.00, -0.00, -1.00, 618.9, 11.6)">m</text><text xml:space="preserve" font-family="LucidaGrande,Lucida Grande" font-size="22.0" fill="#FEFFFE" transform="matrix(1.00, 0.00, -0.00, -1.00, 639.4, 11.6)">a</text><text xml:space="preserve" font-family="LucidaGrande,Lucida Grande" font-size="22.0" fill="#FEFFFE" transform="matrix(1.00, 0.00, -0.00, -1.00, 651.6, 11.6)">c</text><text xml:space="preserve" font-family="LucidaGrande,Lucida Grande" font-size="22.0" fill="#FEFFFE" transform="matrix(1.00, 0.00, -0.00, -1.00, 662.9, 11.6)">1</text><text xml:space="preserve" font-family="LucidaGrande,Lucida Grande" font-size="22.0" fill="#FEFFFE" transform="matrix(1.00, 0.00, -0.00, -1.00, 676.8, 11.6)">3</text><text xml:space="preserve" font-family="Monaco,Monaco" font-size="84.0" fill="#FEFFFF" transform="matrix(1.00, 0.00, -0.00, -1.00, 260.0, 620.0)">F</text><text xml:space="preserve" font-family="Monaco,Monaco" font-size="84.0" fill="#FEFFFF" transform="matrix(1.00, 0.00, -0.00, -1.00, 310.4, 620.0)">i</text><text xml:space="preserve" font-family="Monaco,Monaco" font-size="84.0" fill="#FEFFFF" transform="matrix(1.00, 0.00, -0.00, -1.00, 360.8, 620.0)">l</text><text xml:space="preserve" font-family="Monaco,Monaco" font-size="84.0" fill="#FEFFFF" transform="matrix(1.00, 0.00, -0.00, -1.00, 411.2, 620.0)">e</text><text xml:space="preserve" font-family="Monaco,Monaco" font-size="84.0" fill="#FEFFFF" transform="matrix(1.00, 0.00, -0.00, -1.00, 461.6, 620.0)"> </text><text xml:space="preserve" font-family="Monaco,Monaco" font-size="84.0" fill="#FEFFFF" transform="matrix(1.00, 0.00, -0.00, -1.00, 512.0, 620.0)">T</text><text xml:space="preserve" font-family="Monaco,Monaco" font-size="84.0" fill="#FEFFFF" transform="matrix(1.00, 0.00, -0.00, -1.00, 562.5, 620.0)">e</text><text xml:space="preserve" font-family="Monaco,Monaco" font-size="84.0" fill="#FEFFFF" transform="matrix(1.00, 0.00, -0.00, -1.00, 612.9, 620.0)">s</text><text xml:space="preserve" font-family="Monaco,Monaco" font-size="84.0" fill="#FEFFFF" transform="matrix(1.00, 0.00, -0.00, -1.00, 663.3, 620.0)">t</text><text xml:space="preserve" font-family="Monaco,Monaco" font-size="84.0" fill="#FEFFFF" transform="matrix(1.00, 0.00, -0.00, -1.00, 713.7, 620.0)">s</text><text xml:space="preserve" font-family="Monaco,Monaco" font-size="41.0" fill="#FEFFFF" transform="matrix(1.00, 0.00, -0.00, -1.00, 129.0, 453.7)">•</text><text xml:space="preserve" font-family="Monaco,Monaco" font-size="41.0" fill="#FEFFFF" transform="matrix(1.00, 0.00, -0.00, -1.00, 174.0, 453.7)">F</text><text xml:space="preserve" font-family="Monaco,Monaco" font-size="41.0" fill="#FEFFFF" transform="matrix(1.00, 0.00, -0.00, -1.00, 198.6, 453.7)">i</text><text xml:space="preserve" font-family="Monaco,Monaco" font-size="41.0" fill="#FEFFFF" transform="matrix(1.00, 0.00, -0.00, -1.00, 223.2, 453.7)">l</text><text xml:space="preserve" font-family="Monaco,Monaco" font-size="41.0" fill="#FEFFFF" transform="matrix(1.00, 0.00, -0.00, -1.00, 247.8, 453.7)">e</text><text xml:space="preserve" font-family="Monaco,Monaco" font-size="41.0" fill="#FEFFFF" transform="matrix(1.00, 0.00, -0.00, -1.00, 272.4, 453.7)"> </text><text xml:space="preserve" font-family="Monaco,Monaco" font-size="41.0" fill="#FEFFFF" transform="matrix(1.00, 0.00, -0.00, -1.00, 297.0, 453.7)">E</text><text xml:space="preserve" font-family="Monaco,Monaco" font-size="41.0" fill="#FEFFFF" transform="matrix(1.00, 0.00, -0.00, -1.00, 321.6, 453.7)">x</text><text xml:space="preserve" font-family="Monaco,Monaco" font-size="41.0" fill="#FEFFFF" transform="matrix(1.00, 0.00, -0.00, -1.00, 346.3, 453.7)">i</text><text xml:space="preserve" font-family="Monaco,Monaco" font-size="41.0" fill="#FEFFFF" transform="matrix(1.00, 0.00, -0.00, -1.00, 370.9, 453.7)">s</text><text xml:space="preserve" font-family="Monaco,Monaco" font-size="41.0" fill="#FEFFFF" transform="matrix(1.00, 0.00, -0.00, -1.00, 395.5, 453.7)">t</text><text xml:space="preserve" font-family="Monaco,Monaco" font-size="41.0" fill="#FEFFFF" transform="matrix(1.00, 0.00, -0.00, -1.00, 420.1, 453.7)">s</text><text xml:space="preserve" font-family="Monaco,Monaco" font-size="41.0" fill="#FEFFFF" transform="matrix(1.00, 0.00, -0.00, -1.00, 444.7, 453.7)">:</text><text xml:space="preserve" font-family="Monaco,Monaco" font-size="41.0" fill="#FEFFFF" transform="matrix(1.00, 0.00, -0.00, -1.00, 469.3, 453.7)"> </text><text xml:space="preserve" font-family="Monaco,Monaco" font-size="41.0" fill="#FEFFFF" transform="matrix(1.00, 0.00, -0.00, -1.00, 493.9, 453.7)"> </text><text xml:space="preserve" font-family="Monaco,Monaco" font-size="41.0" fill="#FEFFFF" transform="matrix(1.00, 0.00, -0.00, -1.00, 518.5, 453.7)">[</text><text xml:space="preserve" font-family="Monaco,Monaco" font-size="41.0" fill="#FEFFFF" transform="matrix(1.00, 0.00, -0.00, -1.00, 543.1, 453.7)">[</text><text xml:space="preserve" font-family="Monaco,Monaco" font-size="41.0" fill="#FEFFFF" transform="matrix(1.00, 0.00, -0.00, -1.00, 567.7, 453.7)"> </text><text xml:space="preserve" font-family="Monaco,Monaco" font-size="41.0" fill="#FEFFFF" transform="matrix(1.00, 0.00, -0.00, -1.00, 592.3, 453.7)">-</text><text xml:space="preserve" font-family="Monaco,Monaco" font-size="41.0" fill="#FEFFFF" transform="matrix(1.00, 0.00, -0.00, -1.00, 616.9, 453.7)">e</text><text xml:space="preserve" font-family="Monaco,Monaco" font-size="41.0" fill="#FEFFFF" transform="matrix(1.00, 0.00, -0.00, -1.00, 641.6, 453.7)"> </text><text xml:space="preserve" font-family="Monaco,Monaco" font-size="41.0" fill="#FEFFFF" transform="matrix(1.00, 0.00, -0.00, -1.00, 666.2, 453.7)">.</text><text xml:space="preserve" font-family="Monaco,Monaco" font-size="41.0" fill="#FEFFFF" transform="matrix(1.00, 0.00, -0.00, -1.00, 690.8, 453.7)">/</text><text xml:space="preserve" font-family="Monaco,Monaco" font-size="41.0" fill="#FEFFFF" transform="matrix(1.00, 0.00, -0.00, -1.00, 715.4, 453.7)">f</text><text xml:space="preserve" font-family="Monaco,Monaco" font-size="41.0" fill="#FEFFFF" transform="matrix(1.00, 0.00, -0.00, -1.00, 740.0, 453.7)">i</text><text xml:space="preserve" font-family="Monaco,Monaco" font-size="41.0" fill="#FEFFFF" transform="matrix(1.00, 0.00, -0.00, -1.00, 764.6, 453.7)">l</text><text xml:space="preserve" font-family="Monaco,Monaco" font-size="41.0" fill="#FEFFFF" transform="matrix(1.00, 0.00, -0.00, -1.00, 789.2, 453.7)">e</text><text xml:space="preserve" font-family="Monaco,Monaco" font-size="41.0" fill="#FEFFFF" transform="matrix(1.00, 0.00, -0.00, -1.00, 813.8, 453.7)"> </text><text xml:space="preserve" font-family="Monaco,Monaco" font-size="41.0" fill="#FEFFFF" transform="matrix(1.00, 0.00, -0.00, -1.00, 838.4, 453.7)">]</text><text xml:space="preserve" font-family="Monaco,Monaco" font-size="41.0" fill="#FEFFFF" transform="matrix(1.00, 0.00, -0.00, -1.00, 863.0, 453.7)">]</text><text xml:space="preserve" font-family="Monaco,Monaco" font-size="41.0" fill="#FEFFFF" transform="matrix(1.00, 0.00, -0.00, -1.00, 887.5, 453.7)">	</text><text xml:space="preserve" font-family="Monaco,Monaco" font-size="41.0" fill="#FEFFFF" transform="matrix(1.00, 0.00, -0.00, -1.00, 129.0, 375.7)">•</text><text xml:space="preserve" font-family="Monaco,Monaco" font-size="41.0" fill="#FEFFFF" transform="matrix(1.00, 0.00, -0.00, -1.00, 174.0, 375.7)">D</text><text xml:space="preserve" font-family="Monaco,Monaco" font-size="41.0" fill="#FEFFFF" transform="matrix(1.00, 0.00, -0.00, -1.00, 198.6, 375.7)">i</text><text xml:space="preserve" font-family="Monaco,Monaco" font-size="41.0" fill="#FEFFFF" transform="matrix(1.00, 0.00, -0.00, -1.00, 223.2, 375.7)">r</text><text xml:space="preserve" font-family="Monaco,Monaco" font-size="41.0" fill="#FEFFFF" transform="matrix(1.00, 0.00, -0.00, -1.00, 247.8, 375.7)"> </text><text xml:space="preserve" font-family="Monaco,Monaco" font-size="41.0" fill="#FEFFFF" transform="matrix(1.00, 0.00, -0.00, -1.00, 272.4, 375.7)">E</text><text xml:space="preserve" font-family="Monaco,Monaco" font-size="41.0" fill="#FEFFFF" transform="matrix(1.00, 0.00, -0.00, -1.00, 297.0, 375.7)">x</text><text xml:space="preserve" font-family="Monaco,Monaco" font-size="41.0" fill="#FEFFFF" transform="matrix(1.00, 0.00, -0.00, -1.00, 321.6, 375.7)">i</text><text xml:space="preserve" font-family="Monaco,Monaco" font-size="41.0" fill="#FEFFFF" transform="matrix(1.00, 0.00, -0.00, -1.00, 346.3, 375.7)">s</text><text xml:space="preserve" font-family="Monaco,Monaco" font-size="41.0" fill="#FEFFFF" transform="matrix(1.00, 0.00, -0.00, -1.00, 370.9, 375.7)">t</text><text xml:space="preserve" font-family="Monaco,Monaco" font-size="41.0" fill="#FEFFFF" transform="matrix(1.00, 0.00, -0.00, -1.00, 395.5, 375.7)">s</text><text xml:space="preserve" font-family="Monaco,Monaco" font-size="41.0" fill="#FEFFFF" transform="matrix(1.00, 0.00, -0.00, -1.00, 420.1, 375.7)">:</text><text xml:space="preserve" font-family="Monaco,Monaco" font-size="41.0" fill="#FEFFFF" transform="matrix(1.00, 0.00, -0.00, -1.00, 444.7, 375.7)"> </text><text xml:space="preserve" font-family="Monaco,Monaco" font-size="41.0" fill="#FEFFFF" transform="matrix(1.00, 0.00, -0.00, -1.00, 469.3, 375.7)"> </text><text xml:space="preserve" font-family="Monaco,Monaco" font-size="41.0" fill="#FEFFFF" transform="matrix(1.00, 0.00, -0.00, -1.00, 493.9, 375.7)">[</text><text xml:space="preserve" font-family="Monaco,Monaco" font-size="41.0" fill="#FEFFFF" transform="matrix(1.00, 0.00, -0.00, -1.00, 518.5, 375.7)">[</text><text xml:space="preserve" font-family="Monaco,Monaco" font-size="41.0" fill="#FEFFFF" transform="matrix(1.00, 0.00, -0.00, -1.00, 543.1, 375.7)"> </text><text xml:space="preserve" font-family="Monaco,Monaco" font-size="41.0" fill="#FEFFFF" transform="matrix(1.00, 0.00, -0.00, -1.00, 567.7, 375.7)">-</text><text xml:space="preserve" font-family="Monaco,Monaco" font-size="41.0" fill="#FEFFFF" transform="matrix(1.00, 0.00, -0.00, -1.00, 592.3, 375.7)">d</text><text xml:space="preserve" font-family="Monaco,Monaco" font-size="41.0" fill="#FEFFFF" transform="matrix(1.00, 0.00, -0.00, -1.00, 616.9, 375.7)"> </text><text xml:space="preserve" font-family="Monaco,Monaco" font-size="41.0" fill="#FEFFFF" transform="matrix(1.00, 0.00, -0.00, -1.00, 641.6, 375.7)">.</text><text xml:space="preserve" font-family="Monaco,Monaco" font-size="41.0" fill="#FEFFFF" transform="matrix(1.00, 0.00, -0.00, -1.00, 666.2, 375.7)">/</text><text xml:space="preserve" font-family="Monaco,Monaco" font-size="41.0" fill="#FEFFFF" transform="matrix(1.00, 0.00, -0.00, -1.00, 690.8, 375.7)">f</text><text xml:space="preserve" font-family="Monaco,Monaco" font-size="41.0" fill="#FEFFFF" transform="matrix(1.00, 0.00, -0.00, -1.00, 715.4, 375.7)">i</text><text xml:space="preserve" font-family="Monaco,Monaco" font-size="41.0" fill="#FEFFFF" transform="matrix(1.00, 0.00, -0.00, -1.00, 740.0, 375.7)">l</text><text xml:space="preserve" font-family="Monaco,Monaco" font-size="41.0" fill="#FEFFFF" transform="matrix(1.00, 0.00, -0.00, -1.00, 764.6, 375.7)">e</text><text xml:space="preserve" font-family="Monaco,Monaco" font-size="41.0" fill="#FEFFFF" transform="matrix(1.00, 0.00, -0.00, -1.00, 789.2, 375.7)"> </text><text xml:space="preserve" font-family="Monaco,Monaco" font-size="41.0" fill="#FEFFFF" transform="matrix(1.00, 0.00, -0.00, -1.00, 813.8, 375.7)">]</text><text xml:space="preserve" font-family="Monaco,Monaco" font-size="41.0" fill="#FEFFFF" transform="matrix(1.00, 0.00, -0.00, -1.00, 838.3, 375.7)">]</text><text xml:space="preserve" font-family="Monaco,Monaco" font-size="41.0" fill="#FEFFFF" transform="matrix(1.00, 0.00, -0.00, -1.00, 862.9, 375.7)">	</text><text xml:space="preserve" font-family="Monaco,Monaco" font-size="41.0" fill="#FEFFFF" transform="matrix(1.00, 0.00, -0.00, -1.00, 129.0, 297.7)">•</text><text xml:space="preserve" font-family="Monaco,Monaco" font-size="41.0" fill="#FEFFFF" transform="matrix(1.00, 0.00, -0.00, -1.00, 174.0, 297.7)">N</text><text xml:space="preserve" font-family="Monaco,Monaco" font-size="41.0" fill="#FEFFFF" transform="matrix(1.00, 0.00, -0.00, -1.00, 198.6, 297.7)">o</text><text xml:space="preserve" font-family="Monaco,Monaco" font-size="41.0" fill="#FEFFFF" transform="matrix(1.00, 0.00, -0.00, -1.00, 223.2, 297.7)">t</text><text xml:space="preserve" font-family="Monaco,Monaco" font-size="41.0" fill="#FEFFFF" transform="matrix(1.00, 0.00, -0.00, -1.00, 247.8, 297.7)"> </text><text xml:space="preserve" font-family="Monaco,Monaco" font-size="41.0" fill="#FEFFFF" transform="matrix(1.00, 0.00, -0.00, -1.00, 272.4, 297.7)">Z</text><text xml:space="preserve" font-family="Monaco,Monaco" font-size="41.0" fill="#FEFFFF" transform="matrix(1.00, 0.00, -0.00, -1.00, 297.0, 297.7)">e</text><text xml:space="preserve" font-family="Monaco,Monaco" font-size="41.0" fill="#FEFFFF" transform="matrix(1.00, 0.00, -0.00, -1.00, 321.6, 297.7)">r</text><text xml:space="preserve" font-family="Monaco,Monaco" font-size="41.0" fill="#FEFFFF" transform="matrix(1.00, 0.00, -0.00, -1.00, 346.3, 297.7)">o</text><text xml:space="preserve" font-family="Monaco,Monaco" font-size="41.0" fill="#FEFFFF" transform="matrix(1.00, 0.00, -0.00, -1.00, 370.9, 297.7)"> </text><text xml:space="preserve" font-family="Monaco,Monaco" font-size="41.0" fill="#FEFFFF" transform="matrix(1.00, 0.00, -0.00, -1.00, 395.5, 297.7)">S</text><text xml:space="preserve" font-family="Monaco,Monaco" font-size="41.0" fill="#FEFFFF" transform="matrix(1.00, 0.00, -0.00, -1.00, 420.1, 297.7)">i</text><text xml:space="preserve" font-family="Monaco,Monaco" font-size="41.0" fill="#FEFFFF" transform="matrix(1.00, 0.00, -0.00, -1.00, 444.7, 297.7)">z</text><text xml:space="preserve" font-family="Monaco,Monaco" font-size="41.0" fill="#FEFFFF" transform="matrix(1.00, 0.00, -0.00, -1.00, 469.3, 297.7)">e</text><text xml:space="preserve" font-family="Monaco,Monaco" font-size="41.0" fill="#FEFFFF" transform="matrix(1.00, 0.00, -0.00, -1.00, 493.9, 297.7)">:</text><text xml:space="preserve" font-family="Monaco,Monaco" font-size="41.0" fill="#FEFFFF" transform="matrix(1.00, 0.00, -0.00, -1.00, 518.5, 297.7)"> </text><text xml:space="preserve" font-family="Monaco,Monaco" font-size="41.0" fill="#FEFFFF" transform="matrix(1.00, 0.00, -0.00, -1.00, 543.1, 297.7)">[</text><text xml:space="preserve" font-family="Monaco,Monaco" font-size="41.0" fill="#FEFFFF" transform="matrix(1.00, 0.00, -0.00, -1.00, 567.7, 297.7)">[</text><text xml:space="preserve" font-family="Monaco,Monaco" font-size="41.0" fill="#FEFFFF" transform="matrix(1.00, 0.00, -0.00, -1.00, 592.3, 297.7)"> </text><text xml:space="preserve" font-family="Monaco,Monaco" font-size="41.0" fill="#FEFFFF" transform="matrix(1.00, 0.00, -0.00, -1.00, 616.9, 297.7)">-</text><text xml:space="preserve" font-family="Monaco,Monaco" font-size="41.0" fill="#FEFFFF" transform="matrix(1.00, 0.00, -0.00, -1.00, 641.6, 297.7)">s</text><text xml:space="preserve" font-family="Monaco,Monaco" font-size="41.0" fill="#FEFFFF" transform="matrix(1.00, 0.00, -0.00, -1.00, 666.2, 297.7)"> </text><text xml:space="preserve" font-family="Monaco,Monaco" font-size="41.0" fill="#FEFFFF" transform="matrix(1.00, 0.00, -0.00, -1.00, 690.8, 297.7)">.</text><text xml:space="preserve" font-family="Monaco,Monaco" font-size="41.0" fill="#FEFFFF" transform="matrix(1.00, 0.00, -0.00, -1.00, 715.4, 297.7)">/</text><text xml:space="preserve" font-family="Monaco,Monaco" font-size="41.0" fill="#FEFFFF" transform="matrix(1.00, 0.00, -0.00, -1.00, 740.0, 297.7)">f</text><text xml:space="preserve" font-family="Monaco,Monaco" font-size="41.0" fill="#FEFFFF" transform="matrix(1.00, 0.00, -0.00, -1.00, 764.6, 297.7)">i</text><text xml:space="preserve" font-family="Monaco,Monaco" font-size="41.0" fill="#FEFFFF" transform="matrix(1.00, 0.00, -0.00, -1.00, 789.2, 297.7)">l</text><text xml:space="preserve" font-family="Monaco,Monaco" font-size="41.0" fill="#FEFFFF" transform="matrix(1.00, 0.00, -0.00, -1.00, 813.8, 297.7)">e</text><text xml:space="preserve" font-family="Monaco,Monaco" font-size="41.0" fill="#FEFFFF" transform="matrix(1.00, 0.00, -0.00, -1.00, 838.4, 297.7)"> </text><text xml:space="preserve" font-family="Monaco,Monaco" font-size="41.0" fill="#FEFFFF" transform="matrix(1.00, 0.00, -0.00, -1.00, 863.0, 297.7)">]</text><text xml:space="preserve" font-family="Monaco,Monaco" font-size="41.0" fill="#FEFFFF" transform="matrix(1.00, 0.00, -0.00, -1.00, 887.6, 297.7)">]</text><text xml:space="preserve" font-family="Monaco,Monaco" font-size="41.0" fill="#FEFFFF" transform="matrix(1.00, 0.00, -0.00, -1.00, 912.1, 297.7)">	</text><text xml:space="preserve" font-family="Monaco,Monaco" font-size="41.0" fill="#FEFFFF" transform="matrix(1.00, 0.00, -0.00, -1.00, 129.0, 219.7)">•</text><text xml:space="preserve" font-family="Monaco,Monaco" font-size="41.0" fill="#FEFFFF" transform="matrix(1.00, 0.00, -0.00, -1.00, 174.0, 219.7)">S</text><text xml:space="preserve" font-family="Monaco,Monaco" font-size="41.0" fill="#FEFFFF" transform="matrix(1.00, 0.00, -0.00, -1.00, 198.6, 219.7)">y</text><text xml:space="preserve" font-family="Monaco,Monaco" font-size="41.0" fill="#FEFFFF" transform="matrix(1.00, 0.00, -0.00, -1.00, 223.2, 219.7)">m</text><text xml:space="preserve" font-family="Monaco,Monaco" font-size="41.0" fill="#FEFFFF" transform="matrix(1.00, 0.00, -0.00, -1.00, 247.8, 219.7)">b</text><text xml:space="preserve" font-family="Monaco,Monaco" font-size="41.0" fill="#FEFFFF" transform="matrix(1.00, 0.00, -0.00, -1.00, 272.4, 219.7)">o</text><text xml:space="preserve" font-family="Monaco,Monaco" font-size="41.0" fill="#FEFFFF" transform="matrix(1.00, 0.00, -0.00, -1.00, 297.0, 219.7)">l</text><text xml:space="preserve" font-family="Monaco,Monaco" font-size="41.0" fill="#FEFFFF" transform="matrix(1.00, 0.00, -0.00, -1.00, 321.6, 219.7)">i</text><text xml:space="preserve" font-family="Monaco,Monaco" font-size="41.0" fill="#FEFFFF" transform="matrix(1.00, 0.00, -0.00, -1.00, 346.3, 219.7)">c</text><text xml:space="preserve" font-family="Monaco,Monaco" font-size="41.0" fill="#FEFFFF" transform="matrix(1.00, 0.00, -0.00, -1.00, 370.9, 219.7)"> </text><text xml:space="preserve" font-family="Monaco,Monaco" font-size="41.0" fill="#FEFFFF" transform="matrix(1.00, 0.00, -0.00, -1.00, 395.5, 219.7)">L</text><text xml:space="preserve" font-family="Monaco,Monaco" font-size="41.0" fill="#FEFFFF" transform="matrix(1.00, 0.00, -0.00, -1.00, 420.1, 219.7)">i</text><text xml:space="preserve" font-family="Monaco,Monaco" font-size="41.0" fill="#FEFFFF" transform="matrix(1.00, 0.00, -0.00, -1.00, 444.7, 219.7)">n</text><text xml:space="preserve" font-family="Monaco,Monaco" font-size="41.0" fill="#FEFFFF" transform="matrix(1.00, 0.00, -0.00, -1.00, 469.3, 219.7)">k</text><text xml:space="preserve" font-family="Monaco,Monaco" font-size="41.0" fill="#FEFFFF" transform="matrix(1.00, 0.00, -0.00, -1.00, 493.9, 219.7)">:</text><text xml:space="preserve" font-family="Monaco,Monaco" font-size="41.0" fill="#FEFFFF" transform="matrix(1.00, 0.00, -0.00, -1.00, 518.5, 219.7)"> </text><text xml:space="preserve" font-family="Monaco,Monaco" font-size="41.0" fill="#FEFFFF" transform="matrix(1.00, 0.00, -0.00, -1.00, 543.1, 219.7)">[</text><text xml:space="preserve" font-family="Monaco,Monaco" font-size="41.0" fill="#FEFFFF" transform="matrix(1.00, 0.00, -0.00, -1.00, 567.7, 219.7)">[</text><text xml:space="preserve" font-family="Monaco,Monaco" font-size="41.0" fill="#FEFFFF" transform="matrix(1.00, 0.00, -0.00, -1.00, 592.3, 219.7)"> </text><text xml:space="preserve" font-family="Monaco,Monaco" font-size="41.0" fill="#FEFFFF" transform="matrix(1.00, 0.00, -0.00, -1.00, 616.9, 219.7)">-</text><text xml:space="preserve" font-family="Monaco,Monaco" font-size="41.0" fill="#FEFFFF" transform="matrix(1.00, 0.00, -0.00, -1.00, 641.6, 219.7)">h</text><text xml:space="preserve" font-family="Monaco,Monaco" font-size="41.0" fill="#FEFFFF" transform="matrix(1.00, 0.00, -0.00, -1.00, 666.2, 219.7)"> </text><text xml:space="preserve" font-family="Monaco,Monaco" font-size="41.0" fill="#FEFFFF" transform="matrix(1.00, 0.00, -0.00, -1.00, 690.8, 219.7)">.</text><text xml:space="preserve" font-family="Monaco,Monaco" font-size="41.0" fill="#FEFFFF" transform="matrix(1.00, 0.00, -0.00, -1.00, 715.4, 219.7)">/</text><text xml:space="preserve" font-family="Monaco,Monaco" font-size="41.0" fill="#FEFFFF" transform="matrix(1.00, 0.00, -0.00, -1.00, 740.0, 219.7)">f</text><text xml:space="preserve" font-family="Monaco,Monaco" font-size="41.0" fill="#FEFFFF" transform="matrix(1.00, 0.00, -0.00, -1.00, 764.6, 219.7)">i</text><text xml:space="preserve" font-family="Monaco,Monaco" font-size="41.0" fill="#FEFFFF" transform="matrix(1.00, 0.00, -0.00, -1.00, 789.2, 219.7)">l</text><text xml:space="preserve" font-family="Monaco,Monaco" font-size="41.0" fill="#FEFFFF" transform="matrix(1.00, 0.00, -0.00, -1.00, 813.8, 219.7)">e</text><text xml:space="preserve" font-family="Monaco,Monaco" font-size="41.0" fill="#FEFFFF" transform="matrix(1.00, 0.00, -0.00, -1.00, 838.4, 219.7)"> </text><text xml:space="preserve" font-family="Monaco,Monaco" font-size="41.0" fill="#FEFFFF" transform="matrix(1.00, 0.00, -0.00, -1.00, 863.0, 219.7)">]</text><text xml:space="preserve" font-family="Monaco,Monaco" font-size="41.0" fill="#FEFFFF" transform="matrix(1.00, 0.00, -0.00, -1.00, 887.5, 219.7)">]</text><text xml:space="preserve" font-family="Monaco,Monaco" font-size="41.0" fill="#FEFFFF" transform="matrix(1.00, 0.00, -0.00, -1.00, 912.1, 219.7)"> </text><text xml:space="preserve" font-family="GillSans,Gill Sans" font-size="42.0" fill="#FEFFFF" transform="matrix(1.00, 0.00, -0.00, -1.00, 202.5, 62.7)">h</text><text xml:space="preserve" font-family="GillSans,Gill Sans" font-size="42.0" fill="#FEFFFF" transform="matrix(1.00, 0.00, -0.00, -1.00, 223.5, 62.7)">t</text><text xml:space="preserve" font-family="GillSans,Gill Sans" font-size="42.0" fill="#FEFFFF" transform="matrix(1.00, 0.00, -0.00, -1.00, 237.5, 62.7)">t</text><text xml:space="preserve" font-family="GillSans,Gill Sans" font-size="42.0" fill="#FEFFFF" transform="matrix(1.00, 0.00, -0.00, -1.00, 251.5, 62.7)">p</text><text xml:space="preserve" font-family="GillSans,Gill Sans" font-size="42.0" fill="#FEFFFF" transform="matrix(1.00, 0.00, -0.00, -1.00, 272.5, 62.7)">:</text><text xml:space="preserve" font-family="GillSans,Gill Sans" font-size="42.0" fill="#FEFFFF" transform="matrix(1.00, 0.00, -0.00, -1.00, 281.7, 62.7)">/</text><text xml:space="preserve" font-family="GillSans,Gill Sans" font-size="42.0" fill="#FEFFFF" transform="matrix(1.00, 0.00, -0.00, -1.00, 293.5, 62.7)">/</text><text xml:space="preserve" font-family="GillSans,Gill Sans" font-size="42.0" fill="#FEFFFF" transform="matrix(1.00, 0.00, -0.00, -1.00, 305.3, 62.7)">t</text><text xml:space="preserve" font-family="GillSans,Gill Sans" font-size="42.0" fill="#FEFFFF" transform="matrix(1.00, 0.00, -0.00, -1.00, 319.2, 62.7)">l</text><text xml:space="preserve" font-family="GillSans,Gill Sans" font-size="42.0" fill="#FEFFFF" transform="matrix(1.00, 0.00, -0.00, -1.00, 328.5, 62.7)">d</text><text xml:space="preserve" font-family="GillSans,Gill Sans" font-size="42.0" fill="#FEFFFF" transform="matrix(1.00, 0.00, -0.00, -1.00, 349.9, 62.7)">p</text><text xml:space="preserve" font-family="GillSans,Gill Sans" font-size="42.0" fill="#FEFFFF" transform="matrix(1.00, 0.00, -0.00, -1.00, 369.6, 62.7)">.</text><text xml:space="preserve" font-family="GillSans,Gill Sans" font-size="42.0" fill="#FEFFFF" transform="matrix(1.00, 0.00, -0.00, -1.00, 378.8, 62.7)">o</text><text xml:space="preserve" font-family="GillSans,Gill Sans" font-size="42.0" fill="#FEFFFF" transform="matrix(1.00, 0.00, -0.00, -1.00, 402.0, 62.7)">r</text><text xml:space="preserve" font-family="GillSans,Gill Sans" font-size="42.0" fill="#FEFFFF" transform="matrix(1.00, 0.00, -0.00, -1.00, 418.6, 62.7)">g</text><text xml:space="preserve" font-family="GillSans,Gill Sans" font-size="42.0" fill="#FEFFFF" transform="matrix(1.00, 0.00, -0.00, -1.00, 436.5, 62.7)">/</text><text xml:space="preserve" font-family="GillSans,Gill Sans" font-size="42.0" fill="#FEFFFF" transform="matrix(1.00, 0.00, -0.00, -1.00, 448.3, 62.7)">L</text><text xml:space="preserve" font-family="GillSans,Gill Sans" font-size="42.0" fill="#FEFFFF" transform="matrix(1.00, 0.00, -0.00, -1.00, 468.9, 62.7)">D</text><text xml:space="preserve" font-family="GillSans,Gill Sans" font-size="42.0" fill="#FEFFFF" transform="matrix(1.00, 0.00, -0.00, -1.00, 500.4, 62.7)">P</text><text xml:space="preserve" font-family="GillSans,Gill Sans" font-size="42.0" fill="#FEFFFF" transform="matrix(1.00, 0.00, -0.00, -1.00, 521.8, 62.7)">/</text><text xml:space="preserve" font-family="GillSans,Gill Sans" font-size="42.0" fill="#FEFFFF" transform="matrix(1.00, 0.00, -0.00, -1.00, 533.6, 62.7)">a</text><text xml:space="preserve" font-family="GillSans,Gill Sans" font-size="42.0" fill="#FEFFFF" transform="matrix(1.00, 0.00, -0.00, -1.00, 551.5, 62.7)">b</text><text xml:space="preserve" font-family="GillSans,Gill Sans" font-size="42.0" fill="#FEFFFF" transform="matrix(1.00, 0.00, -0.00, -1.00, 572.5, 62.7)">s</text><text xml:space="preserve" font-family="GillSans,Gill Sans" font-size="42.0" fill="#FEFFFF" transform="matrix(1.00, 0.00, -0.00, -1.00, 588.7, 62.7)">/</text><text xml:space="preserve" font-family="GillSans,Gill Sans" font-size="42.0" fill="#FEFFFF" transform="matrix(1.00, 0.00, -0.00, -1.00, 600.5, 62.7)">h</text><text xml:space="preserve" font-family="GillSans,Gill Sans" font-size="42.0" fill="#FEFFFF" transform="matrix(1.00, 0.00, -0.00, -1.00, 621.5, 62.7)">t</text><text xml:space="preserve" font-family="GillSans,Gill Sans" font-size="42.0" fill="#FEFFFF" transform="matrix(1.00, 0.00, -0.00, -1.00, 635.4, 62.7)">m</text><text xml:space="preserve" font-family="GillSans,Gill Sans" font-size="42.0" fill="#FEFFFF" transform="matrix(1.00, 0.00, -0.00, -1.00, 667.8, 62.7)">l</text><text xml:space="preserve" font-family="GillSans,Gill Sans" font-size="42.0" fill="#FEFFFF" transform="matrix(1.00, 0.00, -0.00, -1.00, 677.0, 62.7)">/</text><text xml:space="preserve" font-family="GillSans,Gill Sans" font-size="42.0" fill="#FEFFFF" transform="matrix(1.00, 0.00, -0.00, -1.00, 688.8, 62.7)">f</text><text xml:space="preserve" font-family="GillSans,Gill Sans" font-size="42.0" fill="#FEFFFF" transform="matrix(1.00, 0.00, -0.00, -1.00, 699.3, 62.7)">t</text><text xml:space="preserve" font-family="GillSans,Gill Sans" font-size="42.0" fill="#FEFFFF" transform="matrix(1.00, 0.00, -0.00, -1.00, 713.3, 62.7)">o</text><text xml:space="preserve" font-family="GillSans,Gill Sans" font-size="42.0" fill="#FEFFFF" transform="matrix(1.00, 0.00, -0.00, -1.00, 735.2, 62.7)">.</text><text xml:space="preserve" font-family="GillSans,Gill Sans" font-size="42.0" fill="#FEFFFF" transform="matrix(1.00, 0.00, -0.00, -1.00, 744.4, 62.7)">h</text><text xml:space="preserve" font-family="GillSans,Gill Sans" font-size="42.0" fill="#FEFFFF" transform="matrix(1.00, 0.00, -0.00, -1.00, 765.4, 62.7)">t</text><text xml:space="preserve" font-family="GillSans,Gill Sans" font-size="42.0" fill="#FEFFFF" transform="matrix(1.00, 0.00, -0.00, -1.00, 779.4, 62.7)">m</text><text xml:space="preserve" font-family="GillSans,Gill Sans" font-size="42.0" fill="#FEFFFF" transform="matrix(1.00, 0.00, -0.00, -1.00, 811.8, 62.7)">l</text><g><clipPath id="clip0x7f9c28e23b10"><path d="M 201.5 57.5 L 821.1 57.5 L 821.1 61.6 L 201.5 61.6 Z M 201.5 57.5 "></path></clipPath><g clip-path="url(#clip0x7f9c28e23b10)"><path d="M 4.5 46.5 L 623.1 46.5 " fill="none" stroke="#FEFFFF" stroke-width="2.09" transform="matrix(1.00, 0.00, 0.00, -1.00, 198.0, 106.0)"></path></g></g></g></svg>