<?xml version="1.0" encoding="UTF-8" standalone="no"?><svg xmlns="http://www.w3.org/2000/svg" xmlns:xlink="http://www.w3.org/1999/xlink" clip-rule="evenodd" stroke-miterlimit="10" viewBox="0 0 1024 768"><desc>SVG generated by Keynote</desc><defs></defs><g transform="matrix(1.00, 0.00, -0.00, -1.00, 0.0, 768.0)"><path d="M 0.0 768.0 L 1024.0 768.0 L 1024.0 0.0 L 0.0 0.0 Z M 0.0 768.0 " fill="#000000"></path><text xml:space="preserve" font-family="LucidaGrande,Lucida Grande" font-size="22.0" fill="#FEFFFE" transform="matrix(1.00, 0.00, -0.00, -1.00, 332.4, 11.6)">F</text><text xml:space="preserve" font-family="LucidaGrande,Lucida Grande" font-size="22.0" fill="#FEFFFE" transform="matrix(1.00, 0.00, -0.00, -1.00, 344.2, 11.6)">e</text><text xml:space="preserve" font-family="LucidaGrande,Lucida Grande" font-size="22.0" fill="#FEFFFE" transform="matrix(1.00, 0.00, -0.00, -1.00, 356.4, 11.6)">e</text><text xml:space="preserve" font-family="LucidaGrande,Lucida Grande" font-size="22.0" fill="#FEFFFE" transform="matrix(1.00, 0.00, -0.00, -1.00, 368.7, 11.6)">d</text><text xml:space="preserve" font-family="LucidaGrande,Lucida Grande" font-size="22.0" fill="#FEFFFE" transform="matrix(1.00, 0.00, -0.00, -1.00, 382.5, 11.6)">b</text><text xml:space="preserve" font-family="LucidaGrande,Lucida Grande" font-size="22.0" fill="#FEFFFE" transform="matrix(1.00, 0.00, -0.00, -1.00, 396.4, 11.6)">a</text><text xml:space="preserve" font-family="LucidaGrande,Lucida Grande" font-size="22.0" fill="#FEFFFE" transform="matrix(1.00, 0.00, -0.00, -1.00, 408.5, 11.6)">c</text><text xml:space="preserve" font-family="LucidaGrande,Lucida Grande" font-size="22.0" fill="#FEFFFE" transform="matrix(1.00, 0.00, -0.00, -1.00, 419.8, 11.6)">k</text><text xml:space="preserve" font-family="LucidaGrande,Lucida Grande" font-size="22.0" fill="#FEFFFE" transform="matrix(1.00, 0.00, -0.00, -1.00, 432.7, 11.6)">:</text><text xml:space="preserve" font-family="LucidaGrande,Lucida Grande" font-size="22.0" fill="#FEFFFE" transform="matrix(1.00, 0.00, -0.00, -1.00, 439.6, 11.6)"> </text><text xml:space="preserve" font-family="LucidaGrande,Lucida Grande" font-size="22.0" fill="#FEFFFE" transform="matrix(1.00, 0.00, -0.00, -1.00, 446.6, 11.6)">h</text><text xml:space="preserve" font-family="LucidaGrande,Lucida Grande" font-size="22.0" fill="#FEFFFE" transform="matrix(1.00, 0.00, -0.00, -1.00, 460.2, 11.6)">t</text><text xml:space="preserve" font-family="LucidaGrande,Lucida Grande" font-size="22.0" fill="#FEFFFE" transform="matrix(1.00, 0.00, -0.00, -1.00, 468.4, 11.6)">t</text><text xml:space="preserve" font-family="LucidaGrande,Lucida Grande" font-size="22.0" fill="#FEFFFE" transform="matrix(1.00, 0.00, -0.00, -1.00, 476.7, 11.6)">p</text><text xml:space="preserve" font-family="LucidaGrande,Lucida Grande" font-size="22.0" fill="#FEFFFE" transform="matrix(1.00, 0.00, -0.00, -1.00, 490.5, 11.6)">:</text><text xml:space="preserve" font-family="LucidaGrande,Lucida Grande" font-size="22.0" fill="#FEFFFE" transform="matrix(1.00, 0.00, -0.00, -1.00, 497.5, 11.6)">/</text><text xml:space="preserve" font-family="LucidaGrande,Lucida Grande" font-size="22.0" fill="#FEFFFE" transform="matrix(1.00, 0.00, -0.00, -1.00, 509.0, 11.6)">/</text><text xml:space="preserve" font-family="LucidaGrande,Lucida Grande" font-size="22.0" fill="#FEFFFE" transform="matrix(1.00, 0.00, -0.00, -1.00, 520.6, 11.6)">j</text><text xml:space="preserve" font-family="LucidaGrande,Lucida Grande" font-size="22.0" fill="#FEFFFE" transform="matrix(1.00, 0.00, -0.00, -1.00, 527.3, 11.6)">.</text><text xml:space="preserve" font-family="LucidaGrande,Lucida Grande" font-size="22.0" fill="#FEFFFE" transform="matrix(1.00, 0.00, -0.00, -1.00, 534.3, 11.6)">m</text><text xml:space="preserve" font-family="LucidaGrande,Lucida Grande" font-size="22.0" fill="#FEFFFE" transform="matrix(1.00, 0.00, -0.00, -1.00, 554.8, 11.6)">p</text><text xml:space="preserve" font-family="LucidaGrande,Lucida Grande" font-size="22.0" fill="#FEFFFE" transform="matrix(1.00, 0.00, -0.00, -1.00, 568.6, 11.6)">/</text><text xml:space="preserve" font-family="LucidaGrande,Lucida Grande" font-size="22.0" fill="#FEFFFE" transform="matrix(1.00, 0.00, -0.00, -1.00, 580.2, 11.6)">p</text><text xml:space="preserve" font-family="LucidaGrande,Lucida Grande" font-size="22.0" fill="#FEFFFE" transform="matrix(1.00, 0.00, -0.00, -1.00, 594.0, 11.6)">s</text><text xml:space="preserve" font-family="LucidaGrande,Lucida Grande" font-size="22.0" fill="#FEFFFE" transform="matrix(1.00, 0.00, -0.00, -1.00, 605.3, 11.6)">u</text><text xml:space="preserve" font-family="LucidaGrande,Lucida Grande" font-size="22.0" fill="#FEFFFE" transform="matrix(1.00, 0.00, -0.00, -1.00, 618.9, 11.6)">m</text><text xml:space="preserve" font-family="LucidaGrande,Lucida Grande" font-size="22.0" fill="#FEFFFE" transform="matrix(1.00, 0.00, -0.00, -1.00, 639.4, 11.6)">a</text><text xml:space="preserve" font-family="LucidaGrande,Lucida Grande" font-size="22.0" fill="#FEFFFE" transform="matrix(1.00, 0.00, -0.00, -1.00, 651.6, 11.6)">c</text><text xml:space="preserve" font-family="LucidaGrande,Lucida Grande" font-size="22.0" fill="#FEFFFE" transform="matrix(1.00, 0.00, -0.00, -1.00, 662.9, 11.6)">1</text><text xml:space="preserve" font-family="LucidaGrande,Lucida Grande" font-size="22.0" fill="#FEFFFE" transform="matrix(1.00, 0.00, -0.00, -1.00, 676.8, 11.6)">3</text><text xml:space="preserve" font-family="Monaco,Monaco" font-size="84.0" fill="#FEFFFF" transform="matrix(1.00, 0.00, -0.00, -1.00, 209.6, 620.0)">M</text><text xml:space="preserve" font-family="Monaco,Monaco" font-size="84.0" fill="#FEFFFF" transform="matrix(1.00, 0.00, -0.00, -1.00, 260.0, 620.0)">a</text><text xml:space="preserve" font-family="Monaco,Monaco" font-size="84.0" fill="#FEFFFF" transform="matrix(1.00, 0.00, -0.00, -1.00, 310.4, 620.0)">k</text><text xml:space="preserve" font-family="Monaco,Monaco" font-size="84.0" fill="#FEFFFF" transform="matrix(1.00, 0.00, -0.00, -1.00, 360.8, 620.0)">i</text><text xml:space="preserve" font-family="Monaco,Monaco" font-size="84.0" fill="#FEFFFF" transform="matrix(1.00, 0.00, -0.00, -1.00, 411.2, 620.0)">n</text><text xml:space="preserve" font-family="Monaco,Monaco" font-size="84.0" fill="#FEFFFF" transform="matrix(1.00, 0.00, -0.00, -1.00, 461.6, 620.0)">g</text><text xml:space="preserve" font-family="Monaco,Monaco" font-size="84.0" fill="#FEFFFF" transform="matrix(1.00, 0.00, -0.00, -1.00, 512.1, 620.0)"> </text><text xml:space="preserve" font-family="Monaco,Monaco" font-size="84.0" fill="#FEFFFF" transform="matrix(1.00, 0.00, -0.00, -1.00, 562.5, 620.0)">L</text><text xml:space="preserve" font-family="Monaco,Monaco" font-size="84.0" fill="#FEFFFF" transform="matrix(1.00, 0.00, -0.00, -1.00, 612.9, 620.0)">i</text><text xml:space="preserve" font-family="Monaco,Monaco" font-size="84.0" fill="#FEFFFF" transform="matrix(1.00, 0.00, -0.00, -1.00, 663.3, 620.0)">n</text><text xml:space="preserve" font-family="Monaco,Monaco" font-size="84.0" fill="#FEFFFF" transform="matrix(1.00, 0.00, -0.00, -1.00, 713.7, 620.0)">k</text><text xml:space="preserve" font-family="Monaco,Monaco" font-size="84.0" fill="#FEFFFF" transform="matrix(1.00, 0.00, -0.00, -1.00, 764.1, 620.0)">s</text><text xml:space="preserve" font-family="Monaco,Monaco" font-size="34.0" fill="#FEFFFF" transform="matrix(1.00, 0.00, -0.00, -1.00, 129.0, 486.3)">•</text><text xml:space="preserve" font-family="Monaco,Monaco" font-size="34.0" fill="#FEFFFF" transform="matrix(1.00, 0.00, -0.00, -1.00, 174.0, 486.3)">H</text><text xml:space="preserve" font-family="Monaco,Monaco" font-size="34.0" fill="#FEFFFF" transform="matrix(1.00, 0.00, -0.00, -1.00, 194.4, 486.3)">a</text><text xml:space="preserve" font-family="Monaco,Monaco" font-size="34.0" fill="#FEFFFF" transform="matrix(1.00, 0.00, -0.00, -1.00, 214.8, 486.3)">r</text><text xml:space="preserve" font-family="Monaco,Monaco" font-size="34.0" fill="#FEFFFF" transform="matrix(1.00, 0.00, -0.00, -1.00, 235.2, 486.3)">d</text><text xml:space="preserve" font-family="Monaco,Monaco" font-size="34.0" fill="#FEFFFF" transform="matrix(1.00, 0.00, -0.00, -1.00, 255.6, 486.3)"> </text><text xml:space="preserve" font-family="Monaco,Monaco" font-size="34.0" fill="#FEFFFF" transform="matrix(1.00, 0.00, -0.00, -1.00, 276.0, 486.3)">L</text><text xml:space="preserve" font-family="Monaco,Monaco" font-size="34.0" fill="#FEFFFF" transform="matrix(1.00, 0.00, -0.00, -1.00, 296.4, 486.3)">i</text><text xml:space="preserve" font-family="Monaco,Monaco" font-size="34.0" fill="#FEFFFF" transform="matrix(1.00, 0.00, -0.00, -1.00, 316.8, 486.3)">n</text><text xml:space="preserve" font-family="Monaco,Monaco" font-size="34.0" fill="#FEFFFF" transform="matrix(1.00, 0.00, -0.00, -1.00, 337.3, 486.3)">k</text><text xml:space="preserve" font-family="Monaco,Monaco" font-size="34.0" fill="#FEFFFF" transform="matrix(1.00, 0.00, -0.00, -1.00, 357.7, 486.3)">:</text><text xml:space="preserve" font-family="Monaco,Monaco" font-size="34.0" fill="#FEFFFF" transform="matrix(1.00, 0.00, -0.00, -1.00, 378.1, 486.3)"> </text><text xml:space="preserve" font-family="Monaco,Monaco" font-size="34.0" fill="#FEFFFF" transform="matrix(1.00, 0.00, -0.00, -1.00, 174.0, 440.3)">C</text><text xml:space="preserve" font-family="Monaco,Monaco" font-size="34.0" fill="#FEFFFF" transform="matrix(1.00, 0.00, -0.00, -1.00, 194.4, 440.3)">a</text><text xml:space="preserve" font-family="Monaco,Monaco" font-size="34.0" fill="#FEFFFF" transform="matrix(1.00, 0.00, -0.00, -1.00, 214.8, 440.3)">n</text><text xml:space="preserve" font-family="Monaco,Monaco" font-size="34.0" fill="#FEFFFF" transform="matrix(1.00, 0.00, -0.00, -1.00, 235.2, 440.3)">’</text><text xml:space="preserve" font-family="Monaco,Monaco" font-size="34.0" fill="#FEFFFF" transform="matrix(1.00, 0.00, -0.00, -1.00, 255.6, 440.3)">t</text><text xml:space="preserve" font-family="Monaco,Monaco" font-size="34.0" fill="#FEFFFF" transform="matrix(1.00, 0.00, -0.00, -1.00, 276.0, 440.3)"> </text><text xml:space="preserve" font-family="Monaco,Monaco" font-size="34.0" fill="#FEFFFF" transform="matrix(1.00, 0.00, -0.00, -1.00, 296.4, 440.3)">S</text><text xml:space="preserve" font-family="Monaco,Monaco" font-size="34.0" fill="#FEFFFF" transform="matrix(1.00, 0.00, -0.00, -1.00, 316.8, 440.3)">p</text><text xml:space="preserve" font-family="Monaco,Monaco" font-size="34.0" fill="#FEFFFF" transform="matrix(1.00, 0.00, -0.00, -1.00, 337.3, 440.3)">a</text><text xml:space="preserve" font-family="Monaco,Monaco" font-size="34.0" fill="#FEFFFF" transform="matrix(1.00, 0.00, -0.00, -1.00, 357.7, 440.3)">n</text><text xml:space="preserve" font-family="Monaco,Monaco" font-size="34.0" fill="#FEFFFF" transform="matrix(1.00, 0.00, -0.00, -1.00, 378.1, 440.3)"> </text><text xml:space="preserve" font-family="Monaco,Monaco" font-size="34.0" fill="#FEFFFF" transform="matrix(1.00, 0.00, -0.00, -1.00, 398.5, 440.3)">F</text><text xml:space="preserve" font-family="Monaco,Monaco" font-size="34.0" fill="#FEFFFF" transform="matrix(1.00, 0.00, -0.00, -1.00, 418.9, 440.3)">i</text><text xml:space="preserve" font-family="Monaco,Monaco" font-size="34.0" fill="#FEFFFF" transform="matrix(1.00, 0.00, -0.00, -1.00, 439.3, 440.3)">l</text><text xml:space="preserve" font-family="Monaco,Monaco" font-size="34.0" fill="#FEFFFF" transform="matrix(1.00, 0.00, -0.00, -1.00, 459.7, 440.3)">e</text><text xml:space="preserve" font-family="Monaco,Monaco" font-size="34.0" fill="#FEFFFF" transform="matrix(1.00, 0.00, -0.00, -1.00, 480.1, 440.3)">S</text><text xml:space="preserve" font-family="Monaco,Monaco" font-size="34.0" fill="#FEFFFF" transform="matrix(1.00, 0.00, -0.00, -1.00, 500.5, 440.3)">y</text><text xml:space="preserve" font-family="Monaco,Monaco" font-size="34.0" fill="#FEFFFF" transform="matrix(1.00, 0.00, -0.00, -1.00, 520.9, 440.3)">s</text><text xml:space="preserve" font-family="Monaco,Monaco" font-size="34.0" fill="#FEFFFF" transform="matrix(1.00, 0.00, -0.00, -1.00, 541.3, 440.3)">t</text><text xml:space="preserve" font-family="Monaco,Monaco" font-size="34.0" fill="#FEFFFF" transform="matrix(1.00, 0.00, -0.00, -1.00, 561.7, 440.3)">e</text><text xml:space="preserve" font-family="Monaco,Monaco" font-size="34.0" fill="#FEFFFF" transform="matrix(1.00, 0.00, -0.00, -1.00, 582.1, 440.3)">m</text><text xml:space="preserve" font-family="Monaco,Monaco" font-size="34.0" fill="#FEFFFF" transform="matrix(1.00, 0.00, -0.00, -1.00, 602.5, 440.3)">s</text><text xml:space="preserve" font-family="Monaco,Monaco" font-size="34.0" fill="#FEFFFF" transform="matrix(1.00, 0.00, -0.00, -1.00, 622.9, 440.3)">,</text><text xml:space="preserve" font-family="Monaco,Monaco" font-size="34.0" fill="#FEFFFF" transform="matrix(1.00, 0.00, -0.00, -1.00, 643.4, 440.3)"> </text><text xml:space="preserve" font-family="Monaco,Monaco" font-size="34.0" fill="#FEFFFF" transform="matrix(1.00, 0.00, -0.00, -1.00, 663.8, 440.3)">D</text><text xml:space="preserve" font-family="Monaco,Monaco" font-size="34.0" fill="#FEFFFF" transform="matrix(1.00, 0.00, -0.00, -1.00, 684.2, 440.3)">i</text><text xml:space="preserve" font-family="Monaco,Monaco" font-size="34.0" fill="#FEFFFF" transform="matrix(1.00, 0.00, -0.00, -1.00, 704.6, 440.3)">r</text><text xml:space="preserve" font-family="Monaco,Monaco" font-size="34.0" fill="#FEFFFF" transform="matrix(1.00, 0.00, -0.00, -1.00, 725.0, 440.3)">e</text><text xml:space="preserve" font-family="Monaco,Monaco" font-size="34.0" fill="#FEFFFF" transform="matrix(1.00, 0.00, -0.00, -1.00, 745.4, 440.3)">c</text><text xml:space="preserve" font-family="Monaco,Monaco" font-size="34.0" fill="#FEFFFF" transform="matrix(1.00, 0.00, -0.00, -1.00, 765.8, 440.3)">t</text><text xml:space="preserve" font-family="Monaco,Monaco" font-size="34.0" fill="#FEFFFF" transform="matrix(1.00, 0.00, -0.00, -1.00, 786.2, 440.3)"> </text><text xml:space="preserve" font-family="Monaco,Monaco" font-size="34.0" fill="#FEFFFF" transform="matrix(1.00, 0.00, -0.00, -1.00, 174.0, 394.3)">P</text><text xml:space="preserve" font-family="Monaco,Monaco" font-size="34.0" fill="#FEFFFF" transform="matrix(1.00, 0.00, -0.00, -1.00, 194.4, 394.3)">o</text><text xml:space="preserve" font-family="Monaco,Monaco" font-size="34.0" fill="#FEFFFF" transform="matrix(1.00, 0.00, -0.00, -1.00, 214.8, 394.3)">i</text><text xml:space="preserve" font-family="Monaco,Monaco" font-size="34.0" fill="#FEFFFF" transform="matrix(1.00, 0.00, -0.00, -1.00, 235.2, 394.3)">n</text><text xml:space="preserve" font-family="Monaco,Monaco" font-size="34.0" fill="#FEFFFF" transform="matrix(1.00, 0.00, -0.00, -1.00, 255.6, 394.3)">t</text><text xml:space="preserve" font-family="Monaco,Monaco" font-size="34.0" fill="#FEFFFF" transform="matrix(1.00, 0.00, -0.00, -1.00, 276.0, 394.3)">e</text><text xml:space="preserve" font-family="Monaco,Monaco" font-size="34.0" fill="#FEFFFF" transform="matrix(1.00, 0.00, -0.00, -1.00, 296.4, 394.3)">r</text><text xml:space="preserve" font-family="Monaco,Monaco" font-size="34.0" fill="#FEFFFF" transform="matrix(1.00, 0.00, -0.00, -1.00, 316.8, 394.3)"> </text><text xml:space="preserve" font-family="Monaco,Monaco" font-size="34.0" fill="#FEFFFF" transform="matrix(1.00, 0.00, -0.00, -1.00, 337.3, 394.3)">t</text><text xml:space="preserve" font-family="Monaco,Monaco" font-size="34.0" fill="#FEFFFF" transform="matrix(1.00, 0.00, -0.00, -1.00, 357.7, 394.3)">o</text><text xml:space="preserve" font-family="Monaco,Monaco" font-size="34.0" fill="#FEFFFF" transform="matrix(1.00, 0.00, -0.00, -1.00, 378.1, 394.3)"> </text><text xml:space="preserve" font-family="Monaco,Monaco" font-size="34.0" fill="#FEFFFF" transform="matrix(1.00, 0.00, -0.00, -1.00, 398.5, 394.3)">i</text><text xml:space="preserve" font-family="Monaco,Monaco" font-size="34.0" fill="#FEFFFF" transform="matrix(1.00, 0.00, -0.00, -1.00, 418.9, 394.3)">n</text><text xml:space="preserve" font-family="Monaco,Monaco" font-size="34.0" fill="#FEFFFF" transform="matrix(1.00, 0.00, -0.00, -1.00, 439.3, 394.3)">o</text><text xml:space="preserve" font-family="Monaco,Monaco" font-size="34.0" fill="#FEFFFF" transform="matrix(1.00, 0.00, -0.00, -1.00, 459.7, 394.3)">d</text><text xml:space="preserve" font-family="Monaco,Monaco" font-size="34.0" fill="#FEFFFF" transform="matrix(1.00, 0.00, -0.00, -1.00, 480.1, 394.3)">e</text><text xml:space="preserve" font-family="Monaco,Monaco" font-size="34.0" fill="#FEFFFF" transform="matrix(1.00, 0.00, -0.00, -1.00, 500.5, 394.3)">	</text><text xml:space="preserve" font-family="Monaco,Monaco" font-size="34.0" fill="#FEFFFF" transform="matrix(1.00, 0.00, -0.00, -1.00, 164.0, 324.3)">•</text><text xml:space="preserve" font-family="Monaco,Monaco" font-size="34.0" fill="#7ADA45" transform="matrix(1.00, 0.00, -0.00, -1.00, 209.0, 324.3)">l</text><text xml:space="preserve" font-family="Monaco,Monaco" font-size="34.0" fill="#7ADA45" transform="matrix(1.00, 0.00, -0.00, -1.00, 229.4, 324.3)">n</text><text xml:space="preserve" font-family="Monaco,Monaco" font-size="34.0" fill="#FEFFFF" transform="matrix(1.00, 0.00, -0.00, -1.00, 249.8, 324.3)"> </text><text xml:space="preserve" font-family="Monaco,Monaco" font-size="34.0" fill="#1497FC" transform="matrix(1.00, 0.00, -0.00, -1.00, 270.2, 324.3)">o</text><text xml:space="preserve" font-family="Monaco,Monaco" font-size="34.0" fill="#1497FC" transform="matrix(1.00, 0.00, -0.00, -1.00, 290.6, 324.3)">r</text><text xml:space="preserve" font-family="Monaco,Monaco" font-size="34.0" fill="#1497FC" transform="matrix(1.00, 0.00, -0.00, -1.00, 311.0, 324.3)">i</text><text xml:space="preserve" font-family="Monaco,Monaco" font-size="34.0" fill="#1497FC" transform="matrix(1.00, 0.00, -0.00, -1.00, 331.4, 324.3)">g</text><text xml:space="preserve" font-family="Monaco,Monaco" font-size="34.0" fill="#1497FC" transform="matrix(1.00, 0.00, -0.00, -1.00, 351.8, 324.3)">i</text><text xml:space="preserve" font-family="Monaco,Monaco" font-size="34.0" fill="#1497FC" transform="matrix(1.00, 0.00, -0.00, -1.00, 372.2, 324.3)">n</text><text xml:space="preserve" font-family="Monaco,Monaco" font-size="34.0" fill="#1497FC" transform="matrix(1.00, 0.00, -0.00, -1.00, 392.7, 324.3)">a</text><text xml:space="preserve" font-family="Monaco,Monaco" font-size="34.0" fill="#1497FC" transform="matrix(1.00, 0.00, -0.00, -1.00, 413.1, 324.3)">l</text><text xml:space="preserve" font-family="Monaco,Monaco" font-size="34.0" fill="#FEFFFF" transform="matrix(1.00, 0.00, -0.00, -1.00, 433.4, 324.3)"> </text><text xml:space="preserve" font-family="Monaco,Monaco" font-size="34.0" fill="#D35854" transform="matrix(1.00, 0.00, -0.00, -1.00, 453.8, 324.3)">h</text><text xml:space="preserve" font-family="Monaco,Monaco" font-size="34.0" fill="#D35854" transform="matrix(1.00, 0.00, -0.00, -1.00, 474.2, 324.3)">a</text><text xml:space="preserve" font-family="Monaco,Monaco" font-size="34.0" fill="#D35854" transform="matrix(1.00, 0.00, -0.00, -1.00, 494.7, 324.3)">r</text><text xml:space="preserve" font-family="Monaco,Monaco" font-size="34.0" fill="#D35854" transform="matrix(1.00, 0.00, -0.00, -1.00, 515.1, 324.3)">d</text><text xml:space="preserve" font-family="Monaco,Monaco" font-size="34.0" fill="#D35854" transform="matrix(1.00, 0.00, -0.00, -1.00, 535.5, 324.3)">l</text><text xml:space="preserve" font-family="Monaco,Monaco" font-size="34.0" fill="#D35854" transform="matrix(1.00, 0.00, -0.00, -1.00, 555.9, 324.3)">i</text><text xml:space="preserve" font-family="Monaco,Monaco" font-size="34.0" fill="#D35854" transform="matrix(1.00, 0.00, -0.00, -1.00, 576.3, 324.3)">n</text><text xml:space="preserve" font-family="Monaco,Monaco" font-size="34.0" fill="#D35854" transform="matrix(1.00, 0.00, -0.00, -1.00, 596.7, 324.3)">k</text><text xml:space="preserve" font-family="Monaco,Monaco" font-size="34.0" fill="#D35854" transform="matrix(1.00, 0.00, -0.00, -1.00, 617.1, 324.3)">	</text><text xml:space="preserve" font-family="Monaco,Monaco" font-size="34.0" fill="#FEFFFF" transform="matrix(1.00, 0.00, -0.00, -1.00, 129.0, 254.3)">•</text><text xml:space="preserve" font-family="Monaco,Monaco" font-size="34.0" fill="#FEFFFF" transform="matrix(1.00, 0.00, -0.00, -1.00, 174.0, 254.3)">S</text><text xml:space="preserve" font-family="Monaco,Monaco" font-size="34.0" fill="#FEFFFF" transform="matrix(1.00, 0.00, -0.00, -1.00, 194.4, 254.3)">y</text><text xml:space="preserve" font-family="Monaco,Monaco" font-size="34.0" fill="#FEFFFF" transform="matrix(1.00, 0.00, -0.00, -1.00, 214.8, 254.3)">m</text><text xml:space="preserve" font-family="Monaco,Monaco" font-size="34.0" fill="#FEFFFF" transform="matrix(1.00, 0.00, -0.00, -1.00, 235.2, 254.3)"> </text><text xml:space="preserve" font-family="Monaco,Monaco" font-size="34.0" fill="#FEFFFF" transform="matrix(1.00, 0.00, -0.00, -1.00, 255.6, 254.3)">L</text><text xml:space="preserve" font-family="Monaco,Monaco" font-size="34.0" fill="#FEFFFF" transform="matrix(1.00, 0.00, -0.00, -1.00, 276.0, 254.3)">i</text><text xml:space="preserve" font-family="Monaco,Monaco" font-size="34.0" fill="#FEFFFF" transform="matrix(1.00, 0.00, -0.00, -1.00, 296.4, 254.3)">n</text><text xml:space="preserve" font-family="Monaco,Monaco" font-size="34.0" fill="#FEFFFF" transform="matrix(1.00, 0.00, -0.00, -1.00, 316.8, 254.3)">k</text><text xml:space="preserve" font-family="Monaco,Monaco" font-size="34.0" fill="#FEFFFF" transform="matrix(1.00, 0.00, -0.00, -1.00, 337.3, 254.3)">s</text><text xml:space="preserve" font-family="Monaco,Monaco" font-size="34.0" fill="#FEFFFF" transform="matrix(1.00, 0.00, -0.00, -1.00, 357.7, 254.3)">:</text><text xml:space="preserve" font-family="Monaco,Monaco" font-size="34.0" fill="#FEFFFF" transform="matrix(1.00, 0.00, -0.00, -1.00, 378.1, 254.3)"> </text><text xml:space="preserve" font-family="Monaco,Monaco" font-size="34.0" fill="#FEFFFF" transform="matrix(1.00, 0.00, -0.00, -1.00, 174.0, 208.3)">C</text><text xml:space="preserve" font-family="Monaco,Monaco" font-size="34.0" fill="#FEFFFF" transform="matrix(1.00, 0.00, -0.00, -1.00, 194.4, 208.3)">a</text><text xml:space="preserve" font-family="Monaco,Monaco" font-size="34.0" fill="#FEFFFF" transform="matrix(1.00, 0.00, -0.00, -1.00, 214.8, 208.3)">n</text><text xml:space="preserve" font-family="Monaco,Monaco" font-size="34.0" fill="#FEFFFF" transform="matrix(1.00, 0.00, -0.00, -1.00, 235.2, 208.3)"> </text><text xml:space="preserve" font-family="Monaco,Monaco" font-size="34.0" fill="#FEFFFF" transform="matrix(1.00, 0.00, -0.00, -1.00, 255.6, 208.3)">s</text><text xml:space="preserve" font-family="Monaco,Monaco" font-size="34.0" fill="#FEFFFF" transform="matrix(1.00, 0.00, -0.00, -1.00, 276.0, 208.3)">p</text><text xml:space="preserve" font-family="Monaco,Monaco" font-size="34.0" fill="#FEFFFF" transform="matrix(1.00, 0.00, -0.00, -1.00, 296.4, 208.3)">a</text><text xml:space="preserve" font-family="Monaco,Monaco" font-size="34.0" fill="#FEFFFF" transform="matrix(1.00, 0.00, -0.00, -1.00, 316.8, 208.3)">n</text><text xml:space="preserve" font-family="Monaco,Monaco" font-size="34.0" fill="#FEFFFF" transform="matrix(1.00, 0.00, -0.00, -1.00, 337.3, 208.3)"> </text><text xml:space="preserve" font-family="Monaco,Monaco" font-size="34.0" fill="#FEFFFF" transform="matrix(1.00, 0.00, -0.00, -1.00, 357.7, 208.3)">v</text><text xml:space="preserve" font-family="Monaco,Monaco" font-size="34.0" fill="#FEFFFF" transform="matrix(1.00, 0.00, -0.00, -1.00, 378.1, 208.3)">o</text><text xml:space="preserve" font-family="Monaco,Monaco" font-size="34.0" fill="#FEFFFF" transform="matrix(1.00, 0.00, -0.00, -1.00, 398.5, 208.3)">l</text><text xml:space="preserve" font-family="Monaco,Monaco" font-size="34.0" fill="#FEFFFF" transform="matrix(1.00, 0.00, -0.00, -1.00, 418.9, 208.3)">u</text><text xml:space="preserve" font-family="Monaco,Monaco" font-size="34.0" fill="#FEFFFF" transform="matrix(1.00, 0.00, -0.00, -1.00, 439.3, 208.3)">m</text><text xml:space="preserve" font-family="Monaco,Monaco" font-size="34.0" fill="#FEFFFF" transform="matrix(1.00, 0.00, -0.00, -1.00, 459.7, 208.3)">e</text><text xml:space="preserve" font-family="Monaco,Monaco" font-size="34.0" fill="#FEFFFF" transform="matrix(1.00, 0.00, -0.00, -1.00, 480.1, 208.3)">s</text><text xml:space="preserve" font-family="Monaco,Monaco" font-size="34.0" fill="#FEFFFF" transform="matrix(1.00, 0.00, -0.00, -1.00, 500.5, 208.3)">,</text><text xml:space="preserve" font-family="Monaco,Monaco" font-size="34.0" fill="#FEFFFF" transform="matrix(1.00, 0.00, -0.00, -1.00, 520.9, 208.3)"> </text><text xml:space="preserve" font-family="Monaco,Monaco" font-size="34.0" fill="#FEFFFF" transform="matrix(1.00, 0.00, -0.00, -1.00, 541.3, 208.3)">P</text><text xml:space="preserve" font-family="Monaco,Monaco" font-size="34.0" fill="#FEFFFF" transform="matrix(1.00, 0.00, -0.00, -1.00, 561.7, 208.3)">o</text><text xml:space="preserve" font-family="Monaco,Monaco" font-size="34.0" fill="#FEFFFF" transform="matrix(1.00, 0.00, -0.00, -1.00, 582.1, 208.3)">i</text><text xml:space="preserve" font-family="Monaco,Monaco" font-size="34.0" fill="#FEFFFF" transform="matrix(1.00, 0.00, -0.00, -1.00, 602.5, 208.3)">n</text><text xml:space="preserve" font-family="Monaco,Monaco" font-size="34.0" fill="#FEFFFF" transform="matrix(1.00, 0.00, -0.00, -1.00, 622.9, 208.3)">t</text><text xml:space="preserve" font-family="Monaco,Monaco" font-size="34.0" fill="#FEFFFF" transform="matrix(1.00, 0.00, -0.00, -1.00, 643.4, 208.3)">s</text><text xml:space="preserve" font-family="Monaco,Monaco" font-size="34.0" fill="#FEFFFF" transform="matrix(1.00, 0.00, -0.00, -1.00, 663.8, 208.3)"> </text><text xml:space="preserve" font-family="Monaco,Monaco" font-size="34.0" fill="#FEFFFF" transform="matrix(1.00, 0.00, -0.00, -1.00, 684.2, 208.3)">t</text><text xml:space="preserve" font-family="Monaco,Monaco" font-size="34.0" fill="#FEFFFF" transform="matrix(1.00, 0.00, -0.00, -1.00, 704.6, 208.3)">o</text><text xml:space="preserve" font-family="Monaco,Monaco" font-size="34.0" fill="#FEFFFF" transform="matrix(1.00, 0.00, -0.00, -1.00, 725.0, 208.3)"> </text><text xml:space="preserve" font-family="Monaco,Monaco" font-size="34.0" fill="#FEFFFF" transform="matrix(1.00, 0.00, -0.00, -1.00, 745.4, 208.3)">O</text><text xml:space="preserve" font-family="Monaco,Monaco" font-size="34.0" fill="#FEFFFF" transform="matrix(1.00, 0.00, -0.00, -1.00, 765.8, 208.3)">r</text><text xml:space="preserve" font-family="Monaco,Monaco" font-size="34.0" fill="#FEFFFF" transform="matrix(1.00, 0.00, -0.00, -1.00, 786.2, 208.3)">i</text><text xml:space="preserve" font-family="Monaco,Monaco" font-size="34.0" fill="#FEFFFF" transform="matrix(1.00, 0.00, -0.00, -1.00, 806.6, 208.3)">g</text><text xml:space="preserve" font-family="Monaco,Monaco" font-size="34.0" fill="#FEFFFF" transform="matrix(1.00, 0.00, -0.00, -1.00, 827.0, 208.3)">i</text><text xml:space="preserve" font-family="Monaco,Monaco" font-size="34.0" fill="#FEFFFF" transform="matrix(1.00, 0.00, -0.00, -1.00, 847.4, 208.3)">n</text><text xml:space="preserve" font-family="Monaco,Monaco" font-size="34.0" fill="#FEFFFF" transform="matrix(1.00, 0.00, -0.00, -1.00, 867.8, 208.3)">a</text><text xml:space="preserve" font-family="Monaco,Monaco" font-size="34.0" fill="#FEFFFF" transform="matrix(1.00, 0.00, -0.00, -1.00, 888.2, 208.3)">l</text><text xml:space="preserve" font-family="Monaco,Monaco" font-size="34.0" fill="#FEFFFF" transform="matrix(1.00, 0.00, -0.00, -1.00, 908.6, 208.3)">	</text><text xml:space="preserve" font-family="Monaco,Monaco" font-size="34.0" fill="#FEFFFF" transform="matrix(1.00, 0.00, -0.00, -1.00, 164.0, 138.3)">•</text><text xml:space="preserve" font-family="Monaco,Monaco" font-size="34.0" fill="#7ADA45" transform="matrix(1.00, 0.00, -0.00, -1.00, 209.0, 138.3)">l</text><text xml:space="preserve" font-family="Monaco,Monaco" font-size="34.0" fill="#7ADA45" transform="matrix(1.00, 0.00, -0.00, -1.00, 229.4, 138.3)">n</text><text xml:space="preserve" font-family="Monaco,Monaco" font-size="34.0" fill="#FEFFFF" transform="matrix(1.00, 0.00, -0.00, -1.00, 249.8, 138.3)"> </text><text xml:space="preserve" font-family="Monaco,Monaco" font-size="34.0" fill="#E7A432" transform="matrix(1.00, 0.00, -0.00, -1.00, 270.2, 138.3)">-</text><text xml:space="preserve" font-family="Monaco,Monaco" font-size="34.0" fill="#E7A432" transform="matrix(1.00, 0.00, -0.00, -1.00, 290.6, 138.3)">s</text><text xml:space="preserve" font-family="Monaco,Monaco" font-size="34.0" fill="#FEFFFF" transform="matrix(1.00, 0.00, -0.00, -1.00, 311.0, 138.3)"> </text><text xml:space="preserve" font-family="Monaco,Monaco" font-size="34.0" fill="#1497FC" transform="matrix(1.00, 0.00, -0.00, -1.00, 331.4, 138.3)">o</text><text xml:space="preserve" font-family="Monaco,Monaco" font-size="34.0" fill="#1497FC" transform="matrix(1.00, 0.00, -0.00, -1.00, 351.8, 138.3)">r</text><text xml:space="preserve" font-family="Monaco,Monaco" font-size="34.0" fill="#1497FC" transform="matrix(1.00, 0.00, -0.00, -1.00, 372.2, 138.3)">i</text><text xml:space="preserve" font-family="Monaco,Monaco" font-size="34.0" fill="#1497FC" transform="matrix(1.00, 0.00, -0.00, -1.00, 392.6, 138.3)">g</text><text xml:space="preserve" font-family="Monaco,Monaco" font-size="34.0" fill="#1497FC" transform="matrix(1.00, 0.00, -0.00, -1.00, 413.0, 138.3)">i</text><text xml:space="preserve" font-family="Monaco,Monaco" font-size="34.0" fill="#1497FC" transform="matrix(1.00, 0.00, -0.00, -1.00, 433.5, 138.3)">n</text><text xml:space="preserve" font-family="Monaco,Monaco" font-size="34.0" fill="#1497FC" transform="matrix(1.00, 0.00, -0.00, -1.00, 453.9, 138.3)">a</text><text xml:space="preserve" font-family="Monaco,Monaco" font-size="34.0" fill="#1497FC" transform="matrix(1.00, 0.00, -0.00, -1.00, 474.3, 138.3)">l</text><text xml:space="preserve" font-family="Monaco,Monaco" font-size="34.0" fill="#FEFFFF" transform="matrix(1.00, 0.00, -0.00, -1.00, 494.6, 138.3)"> </text><text xml:space="preserve" font-family="Monaco,Monaco" font-size="34.0" fill="#D35854" transform="matrix(1.00, 0.00, -0.00, -1.00, 515.0, 138.3)">s</text><text xml:space="preserve" font-family="Monaco,Monaco" font-size="34.0" fill="#D35854" transform="matrix(1.00, 0.00, -0.00, -1.00, 535.5, 138.3)">y</text><text xml:space="preserve" font-family="Monaco,Monaco" font-size="34.0" fill="#D35854" transform="matrix(1.00, 0.00, -0.00, -1.00, 555.9, 138.3)">m</text><text xml:space="preserve" font-family="Monaco,Monaco" font-size="34.0" fill="#D35854" transform="matrix(1.00, 0.00, -0.00, -1.00, 576.3, 138.3)">l</text><text xml:space="preserve" font-family="Monaco,Monaco" font-size="34.0" fill="#D35854" transform="matrix(1.00, 0.00, -0.00, -1.00, 596.7, 138.3)">i</text><text xml:space="preserve" font-family="Monaco,Monaco" font-size="34.0" fill="#D35854" transform="matrix(1.00, 0.00, -0.00, -1.00, 617.1, 138.3)">n</text><text xml:space="preserve" font-family="Monaco,Monaco" font-size="34.0" fill="#D35854" transform="matrix(1.00, 0.00, -0.00, -1.00, 637.5, 138.3)">k</text></g></svg>