<?xml version="1.0" encoding="UTF-8" standalone="no"?><svg xmlns="http://www.w3.org/2000/svg" xmlns:xlink="http://www.w3.org/1999/xlink" clip-rule="evenodd" stroke-miterlimit="10" viewBox="0 0 1024 768"><desc>SVG generated by Keynote</desc><defs></defs><g transform="matrix(1.00, 0.00, -0.00, -1.00, 0.0, 768.0)"><path d="M 0.0 768.0 L 1024.0 768.0 L 1024.0 0.0 L 0.0 0.0 Z M 0.0 768.0 " fill="#000000"></path><text xml:space="preserve" font-family="LucidaGrande,Lucida Grande" font-size="22.0" fill="#FEFFFE" transform="matrix(1.00, 0.00, -0.00, -1.00, 332.4, 11.6)">F</text><text xml:space="preserve" font-family="LucidaGrande,Lucida Grande" font-size="22.0" fill="#FEFFFE" transform="matrix(1.00, 0.00, -0.00, -1.00, 344.2, 11.6)">e</text><text xml:space="preserve" font-family="LucidaGrande,Lucida Grande" font-size="22.0" fill="#FEFFFE" transform="matrix(1.00, 0.00, -0.00, -1.00, 356.4, 11.6)">e</text><text xml:space="preserve" font-family="LucidaGrande,Lucida Grande" font-size="22.0" fill="#FEFFFE" transform="matrix(1.00, 0.00, -0.00, -1.00, 368.7, 11.6)">d</text><text xml:space="preserve" font-family="LucidaGrande,Lucida Grande" font-size="22.0" fill="#FEFFFE" transform="matrix(1.00, 0.00, -0.00, -1.00, 382.5, 11.6)">b</text><text xml:space="preserve" font-family="LucidaGrande,Lucida Grande" font-size="22.0" fill="#FEFFFE" transform="matrix(1.00, 0.00, -0.00, -1.00, 396.4, 11.6)">a</text><text xml:space="preserve" font-family="LucidaGrande,Lucida Grande" font-size="22.0" fill="#FEFFFE" transform="matrix(1.00, 0.00, -0.00, -1.00, 408.5, 11.6)">c</text><text xml:space="preserve" font-family="LucidaGrande,Lucida Grande" font-size="22.0" fill="#FEFFFE" transform="matrix(1.00, 0.00, -0.00, -1.00, 419.8, 11.6)">k</text><text xml:space="preserve" font-family="LucidaGrande,Lucida Grande" font-size="22.0" fill="#FEFFFE" transform="matrix(1.00, 0.00, -0.00, -1.00, 432.7, 11.6)">:</text><text xml:space="preserve" font-family="LucidaGrande,Lucida Grande" font-size="22.0" fill="#FEFFFE" transform="matrix(1.00, 0.00, -0.00, -1.00, 439.6, 11.6)"> </text><text xml:space="preserve" font-family="LucidaGrande,Lucida Grande" font-size="22.0" fill="#FEFFFE" transform="matrix(1.00, 0.00, -0.00, -1.00, 446.6, 11.6)">h</text><text xml:space="preserve" font-family="LucidaGrande,Lucida Grande" font-size="22.0" fill="#FEFFFE" transform="matrix(1.00, 0.00, -0.00, -1.00, 460.2, 11.6)">t</text><text xml:space="preserve" font-family="LucidaGrande,Lucida Grande" font-size="22.0" fill="#FEFFFE" transform="matrix(1.00, 0.00, -0.00, -1.00, 468.4, 11.6)">t</text><text xml:space="preserve" font-family="LucidaGrande,Lucida Grande" font-size="22.0" fill="#FEFFFE" transform="matrix(1.00, 0.00, -0.00, -1.00, 476.7, 11.6)">p</text><text xml:space="preserve" font-family="LucidaGrande,Lucida Grande" font-size="22.0" fill="#FEFFFE" transform="matrix(1.00, 0.00, -0.00, -1.00, 490.5, 11.6)">:</text><text xml:space="preserve" font-family="LucidaGrande,Lucida Grande" font-size="22.0" fill="#FEFFFE" transform="matrix(1.00, 0.00, -0.00, -1.00, 497.5, 11.6)">/</text><text xml:space="preserve" font-family="LucidaGrande,Lucida Grande" font-size="22.0" fill="#FEFFFE" transform="matrix(1.00, 0.00, -0.00, -1.00, 509.0, 11.6)">/</text><text xml:space="preserve" font-family="LucidaGrande,Lucida Grande" font-size="22.0" fill="#FEFFFE" transform="matrix(1.00, 0.00, -0.00, -1.00, 520.6, 11.6)">j</text><text xml:space="preserve" font-family="LucidaGrande,Lucida Grande" font-size="22.0" fill="#FEFFFE" transform="matrix(1.00, 0.00, -0.00, -1.00, 527.3, 11.6)">.</text><text xml:space="preserve" font-family="LucidaGrande,Lucida Grande" font-size="22.0" fill="#FEFFFE" transform="matrix(1.00, 0.00, -0.00, -1.00, 534.3, 11.6)">m</text><text xml:space="preserve" font-family="LucidaGrande,Lucida Grande" font-size="22.0" fill="#FEFFFE" transform="matrix(1.00, 0.00, -0.00, -1.00, 554.8, 11.6)">p</text><text xml:space="preserve" font-family="LucidaGrande,Lucida Grande" font-size="22.0" fill="#FEFFFE" transform="matrix(1.00, 0.00, -0.00, -1.00, 568.6, 11.6)">/</text><text xml:space="preserve" font-family="LucidaGrande,Lucida Grande" font-size="22.0" fill="#FEFFFE" transform="matrix(1.00, 0.00, -0.00, -1.00, 580.2, 11.6)">p</text><text xml:space="preserve" font-family="LucidaGrande,Lucida Grande" font-size="22.0" fill="#FEFFFE" transform="matrix(1.00, 0.00, -0.00, -1.00, 594.0, 11.6)">s</text><text xml:space="preserve" font-family="LucidaGrande,Lucida Grande" font-size="22.0" fill="#FEFFFE" transform="matrix(1.00, 0.00, -0.00, -1.00, 605.3, 11.6)">u</text><text xml:space="preserve" font-family="LucidaGrande,Lucida Grande" font-size="22.0" fill="#FEFFFE" transform="matrix(1.00, 0.00, -0.00, -1.00, 618.9, 11.6)">m</text><text xml:space="preserve" font-family="LucidaGrande,Lucida Grande" font-size="22.0" fill="#FEFFFE" transform="matrix(1.00, 0.00, -0.00, -1.00, 639.4, 11.6)">a</text><text xml:space="preserve" font-family="LucidaGrande,Lucida Grande" font-size="22.0" fill="#FEFFFE" transform="matrix(1.00, 0.00, -0.00, -1.00, 651.6, 11.6)">c</text><text xml:space="preserve" font-family="LucidaGrande,Lucida Grande" font-size="22.0" fill="#FEFFFE" transform="matrix(1.00, 0.00, -0.00, -1.00, 662.9, 11.6)">1</text><text xml:space="preserve" font-family="LucidaGrande,Lucida Grande" font-size="22.0" fill="#FEFFFE" transform="matrix(1.00, 0.00, -0.00, -1.00, 676.8, 11.6)">3</text><text xml:space="preserve" font-family="Monaco,Monaco" font-size="74.8" fill="#FEFFFF" transform="matrix(1.00, 0.00, -0.00, -1.00, 108.2, 623.9)">S</text><text xml:space="preserve" font-family="Monaco,Monaco" font-size="74.8" fill="#FEFFFF" transform="matrix(1.00, 0.00, -0.00, -1.00, 153.1, 623.9)">t</text><text xml:space="preserve" font-family="Monaco,Monaco" font-size="74.8" fill="#FEFFFF" transform="matrix(1.00, 0.00, -0.00, -1.00, 198.0, 623.9)">a</text><text xml:space="preserve" font-family="Monaco,Monaco" font-size="74.8" fill="#FEFFFF" transform="matrix(1.00, 0.00, -0.00, -1.00, 242.8, 623.9)">r</text><text xml:space="preserve" font-family="Monaco,Monaco" font-size="74.8" fill="#FEFFFF" transform="matrix(1.00, 0.00, -0.00, -1.00, 287.7, 623.9)">t</text><text xml:space="preserve" font-family="Monaco,Monaco" font-size="74.8" fill="#FEFFFF" transform="matrix(1.00, 0.00, -0.00, -1.00, 332.6, 623.9)">i</text><text xml:space="preserve" font-family="Monaco,Monaco" font-size="74.8" fill="#FEFFFF" transform="matrix(1.00, 0.00, -0.00, -1.00, 377.5, 623.9)">n</text><text xml:space="preserve" font-family="Monaco,Monaco" font-size="74.8" fill="#FEFFFF" transform="matrix(1.00, 0.00, -0.00, -1.00, 422.3, 623.9)">g</text><text xml:space="preserve" font-family="Monaco,Monaco" font-size="74.8" fill="#FEFFFF" transform="matrix(1.00, 0.00, -0.00, -1.00, 467.2, 623.9)"> </text><text xml:space="preserve" font-family="Monaco,Monaco" font-size="74.8" fill="#FEFFFF" transform="matrix(1.00, 0.00, -0.00, -1.00, 512.1, 623.9)">Y</text><text xml:space="preserve" font-family="Monaco,Monaco" font-size="74.8" fill="#FEFFFF" transform="matrix(1.00, 0.00, -0.00, -1.00, 556.9, 623.9)">o</text><text xml:space="preserve" font-family="Monaco,Monaco" font-size="74.8" fill="#FEFFFF" transform="matrix(1.00, 0.00, -0.00, -1.00, 601.8, 623.9)">u</text><text xml:space="preserve" font-family="Monaco,Monaco" font-size="74.8" fill="#FEFFFF" transform="matrix(1.00, 0.00, -0.00, -1.00, 646.7, 623.9)">r</text><text xml:space="preserve" font-family="Monaco,Monaco" font-size="74.8" fill="#FEFFFF" transform="matrix(1.00, 0.00, -0.00, -1.00, 691.6, 623.9)"> </text><text xml:space="preserve" font-family="Monaco,Monaco" font-size="74.8" fill="#FEFFFF" transform="matrix(1.00, 0.00, -0.00, -1.00, 736.4, 623.9)">C</text><text xml:space="preserve" font-family="Monaco,Monaco" font-size="74.8" fill="#FEFFFF" transform="matrix(1.00, 0.00, -0.00, -1.00, 781.3, 623.9)">o</text><text xml:space="preserve" font-family="Monaco,Monaco" font-size="74.8" fill="#FEFFFF" transform="matrix(1.00, 0.00, -0.00, -1.00, 826.2, 623.9)">d</text><text xml:space="preserve" font-family="Monaco,Monaco" font-size="74.8" fill="#FEFFFF" transform="matrix(1.00, 0.00, -0.00, -1.00, 871.0, 623.9)">e</text><text xml:space="preserve" font-family="Monaco,Monaco" font-size="42.0" fill="#FEFFFF" transform="matrix(1.00, 0.00, -0.00, -1.00, 129.0, 430.0)">•</text><text xml:space="preserve" font-family="Monaco,Monaco" font-size="42.0" fill="#FEFFFF" transform="matrix(1.00, 0.00, -0.00, -1.00, 174.0, 430.0)">#</text><text xml:space="preserve" font-family="Monaco,Monaco" font-size="42.0" fill="#FEFFFF" transform="matrix(1.00, 0.00, -0.00, -1.00, 199.2, 430.0)">!</text><text xml:space="preserve" font-family="Monaco,Monaco" font-size="42.0" fill="#FEFFFF" transform="matrix(1.00, 0.00, -0.00, -1.00, 224.4, 430.0)">/</text><text xml:space="preserve" font-family="Monaco,Monaco" font-size="42.0" fill="#FEFFFF" transform="matrix(1.00, 0.00, -0.00, -1.00, 249.6, 430.0)">b</text><text xml:space="preserve" font-family="Monaco,Monaco" font-size="42.0" fill="#FEFFFF" transform="matrix(1.00, 0.00, -0.00, -1.00, 274.8, 430.0)">i</text><text xml:space="preserve" font-family="Monaco,Monaco" font-size="42.0" fill="#FEFFFF" transform="matrix(1.00, 0.00, -0.00, -1.00, 300.0, 430.0)">n</text><text xml:space="preserve" font-family="Monaco,Monaco" font-size="42.0" fill="#FEFFFF" transform="matrix(1.00, 0.00, -0.00, -1.00, 325.2, 430.0)">/</text><text xml:space="preserve" font-family="Monaco,Monaco" font-size="42.0" fill="#FEFFFF" transform="matrix(1.00, 0.00, -0.00, -1.00, 350.5, 430.0)">b</text><text xml:space="preserve" font-family="Monaco,Monaco" font-size="42.0" fill="#FEFFFF" transform="matrix(1.00, 0.00, -0.00, -1.00, 375.7, 430.0)">a</text><text xml:space="preserve" font-family="Monaco,Monaco" font-size="42.0" fill="#FEFFFF" transform="matrix(1.00, 0.00, -0.00, -1.00, 400.9, 430.0)">s</text><text xml:space="preserve" font-family="Monaco,Monaco" font-size="42.0" fill="#FEFFFF" transform="matrix(1.00, 0.00, -0.00, -1.00, 426.1, 430.0)">h</text><text xml:space="preserve" font-family="Monaco,Monaco" font-size="42.0" fill="#FEFFFF" transform="matrix(1.00, 0.00, -0.00, -1.00, 451.3, 430.0)"> </text><text xml:space="preserve" font-family="Monaco,Monaco" font-size="42.0" fill="#FEFFFF" transform="matrix(1.00, 0.00, -0.00, -1.00, 476.5, 430.0)">o</text><text xml:space="preserve" font-family="Monaco,Monaco" font-size="42.0" fill="#FEFFFF" transform="matrix(1.00, 0.00, -0.00, -1.00, 501.7, 430.0)">f</text><text xml:space="preserve" font-family="Monaco,Monaco" font-size="42.0" fill="#FEFFFF" transform="matrix(1.00, 0.00, -0.00, -1.00, 526.9, 430.0)"> </text><text xml:space="preserve" font-family="Monaco,Monaco" font-size="42.0" fill="#FEFFFF" transform="matrix(1.00, 0.00, -0.00, -1.00, 552.1, 430.0)">c</text><text xml:space="preserve" font-family="Monaco,Monaco" font-size="42.0" fill="#FEFFFF" transform="matrix(1.00, 0.00, -0.00, -1.00, 577.3, 430.0)">o</text><text xml:space="preserve" font-family="Monaco,Monaco" font-size="42.0" fill="#FEFFFF" transform="matrix(1.00, 0.00, -0.00, -1.00, 602.5, 430.0)">u</text><text xml:space="preserve" font-family="Monaco,Monaco" font-size="42.0" fill="#FEFFFF" transform="matrix(1.00, 0.00, -0.00, -1.00, 627.7, 430.0)">r</text><text xml:space="preserve" font-family="Monaco,Monaco" font-size="42.0" fill="#FEFFFF" transform="matrix(1.00, 0.00, -0.00, -1.00, 653.0, 430.0)">s</text><text xml:space="preserve" font-family="Monaco,Monaco" font-size="42.0" fill="#FEFFFF" transform="matrix(1.00, 0.00, -0.00, -1.00, 678.2, 430.0)">e</text><text xml:space="preserve" font-family="Monaco,Monaco" font-size="42.0" fill="#FEFFFF" transform="matrix(1.00, 0.00, -0.00, -1.00, 703.4, 430.0)">!</text><text xml:space="preserve" font-family="Monaco,Monaco" font-size="42.0" fill="#FEFFFF" transform="matrix(1.00, 0.00, -0.00, -1.00, 728.6, 430.0)">	</text><text xml:space="preserve" font-family="Monaco,Monaco" font-size="42.0" fill="#FEFFFF" transform="matrix(1.00, 0.00, -0.00, -1.00, 129.0, 349.0)">•</text><text xml:space="preserve" font-family="Monaco,Monaco" font-size="42.0" fill="#FEFFFF" transform="matrix(1.00, 0.00, -0.00, -1.00, 174.0, 349.0)">W</text><text xml:space="preserve" font-family="Monaco,Monaco" font-size="42.0" fill="#FEFFFF" transform="matrix(1.00, 0.00, -0.00, -1.00, 199.2, 349.0)">r</text><text xml:space="preserve" font-family="Monaco,Monaco" font-size="42.0" fill="#FEFFFF" transform="matrix(1.00, 0.00, -0.00, -1.00, 224.4, 349.0)">i</text><text xml:space="preserve" font-family="Monaco,Monaco" font-size="42.0" fill="#FEFFFF" transform="matrix(1.00, 0.00, -0.00, -1.00, 249.6, 349.0)">t</text><text xml:space="preserve" font-family="Monaco,Monaco" font-size="42.0" fill="#FEFFFF" transform="matrix(1.00, 0.00, -0.00, -1.00, 274.8, 349.0)">e</text><text xml:space="preserve" font-family="Monaco,Monaco" font-size="42.0" fill="#FEFFFF" transform="matrix(1.00, 0.00, -0.00, -1.00, 300.0, 349.0)"> </text><text xml:space="preserve" font-family="Monaco,Monaco" font-size="42.0" fill="#FEFFFF" transform="matrix(1.00, 0.00, -0.00, -1.00, 325.2, 349.0)">i</text><text xml:space="preserve" font-family="Monaco,Monaco" font-size="42.0" fill="#FEFFFF" transform="matrix(1.00, 0.00, -0.00, -1.00, 350.5, 349.0)">t</text><text xml:space="preserve" font-family="Monaco,Monaco" font-size="42.0" fill="#FEFFFF" transform="matrix(1.00, 0.00, -0.00, -1.00, 375.7, 349.0)"> </text><text xml:space="preserve" font-family="Monaco,Monaco" font-size="42.0" fill="#FEFFFF" transform="matrix(1.00, 0.00, -0.00, -1.00, 400.9, 349.0)">i</text><text xml:space="preserve" font-family="Monaco,Monaco" font-size="42.0" fill="#FEFFFF" transform="matrix(1.00, 0.00, -0.00, -1.00, 426.1, 349.0)">n</text><text xml:space="preserve" font-family="Monaco,Monaco" font-size="42.0" fill="#FEFFFF" transform="matrix(1.00, 0.00, -0.00, -1.00, 451.3, 349.0)"> </text><text xml:space="preserve" font-family="Monaco,Monaco" font-size="42.0" fill="#FEFFFF" transform="matrix(1.00, 0.00, -0.00, -1.00, 476.5, 349.0)">e</text><text xml:space="preserve" font-family="Monaco,Monaco" font-size="42.0" fill="#FEFFFF" transform="matrix(1.00, 0.00, -0.00, -1.00, 501.7, 349.0)">n</text><text xml:space="preserve" font-family="Monaco,Monaco" font-size="42.0" fill="#FEFFFF" transform="matrix(1.00, 0.00, -0.00, -1.00, 526.9, 349.0)">g</text><text xml:space="preserve" font-family="Monaco,Monaco" font-size="42.0" fill="#FEFFFF" transform="matrix(1.00, 0.00, -0.00, -1.00, 552.1, 349.0)">l</text><text xml:space="preserve" font-family="Monaco,Monaco" font-size="42.0" fill="#FEFFFF" transform="matrix(1.00, 0.00, -0.00, -1.00, 577.3, 349.0)">i</text><text xml:space="preserve" font-family="Monaco,Monaco" font-size="42.0" fill="#FEFFFF" transform="matrix(1.00, 0.00, -0.00, -1.00, 602.5, 349.0)">s</text><text xml:space="preserve" font-family="Monaco,Monaco" font-size="42.0" fill="#FEFFFF" transform="matrix(1.00, 0.00, -0.00, -1.00, 627.7, 349.0)">h</text><text xml:space="preserve" font-family="Monaco,Monaco" font-size="42.0" fill="#FEFFFF" transform="matrix(1.00, 0.00, -0.00, -1.00, 653.0, 349.0)">	</text><text xml:space="preserve" font-family="Monaco,Monaco" font-size="42.0" fill="#FEFFFF" transform="matrix(1.00, 0.00, -0.00, -1.00, 129.0, 268.0)">•</text><text xml:space="preserve" font-family="Monaco,Monaco" font-size="42.0" fill="#FEFFFF" transform="matrix(1.00, 0.00, -0.00, -1.00, 174.0, 268.0)">V</text><text xml:space="preserve" font-family="Monaco,Monaco" font-size="42.0" fill="#FEFFFF" transform="matrix(1.00, 0.00, -0.00, -1.00, 199.2, 268.0)">e</text><text xml:space="preserve" font-family="Monaco,Monaco" font-size="42.0" fill="#FEFFFF" transform="matrix(1.00, 0.00, -0.00, -1.00, 224.4, 268.0)">r</text><text xml:space="preserve" font-family="Monaco,Monaco" font-size="42.0" fill="#FEFFFF" transform="matrix(1.00, 0.00, -0.00, -1.00, 249.6, 268.0)">b</text><text xml:space="preserve" font-family="Monaco,Monaco" font-size="42.0" fill="#FEFFFF" transform="matrix(1.00, 0.00, -0.00, -1.00, 274.8, 268.0)">a</text><text xml:space="preserve" font-family="Monaco,Monaco" font-size="42.0" fill="#FEFFFF" transform="matrix(1.00, 0.00, -0.00, -1.00, 300.0, 268.0)">l</text><text xml:space="preserve" font-family="Monaco,Monaco" font-size="42.0" fill="#FEFFFF" transform="matrix(1.00, 0.00, -0.00, -1.00, 325.2, 268.0)">i</text><text xml:space="preserve" font-family="Monaco,Monaco" font-size="42.0" fill="#FEFFFF" transform="matrix(1.00, 0.00, -0.00, -1.00, 350.5, 268.0)">z</text><text xml:space="preserve" font-family="Monaco,Monaco" font-size="42.0" fill="#FEFFFF" transform="matrix(1.00, 0.00, -0.00, -1.00, 375.7, 268.0)">e</text><text xml:space="preserve" font-family="Monaco,Monaco" font-size="42.0" fill="#FEFFFF" transform="matrix(1.00, 0.00, -0.00, -1.00, 400.9, 268.0)"> </text><text xml:space="preserve" font-family="Monaco,Monaco" font-size="42.0" fill="#FEFFFF" transform="matrix(1.00, 0.00, -0.00, -1.00, 426.1, 268.0)">t</text><text xml:space="preserve" font-family="Monaco,Monaco" font-size="42.0" fill="#FEFFFF" transform="matrix(1.00, 0.00, -0.00, -1.00, 451.3, 268.0)">h</text><text xml:space="preserve" font-family="Monaco,Monaco" font-size="42.0" fill="#FEFFFF" transform="matrix(1.00, 0.00, -0.00, -1.00, 476.5, 268.0)">e</text><text xml:space="preserve" font-family="Monaco,Monaco" font-size="42.0" fill="#FEFFFF" transform="matrix(1.00, 0.00, -0.00, -1.00, 501.7, 268.0)"> </text><text xml:space="preserve" font-family="Monaco,Monaco" font-size="42.0" fill="#FEFFFF" transform="matrix(1.00, 0.00, -0.00, -1.00, 526.9, 268.0)">p</text><text xml:space="preserve" font-family="Monaco,Monaco" font-size="42.0" fill="#FEFFFF" transform="matrix(1.00, 0.00, -0.00, -1.00, 552.1, 268.0)">r</text><text xml:space="preserve" font-family="Monaco,Monaco" font-size="42.0" fill="#FEFFFF" transform="matrix(1.00, 0.00, -0.00, -1.00, 577.3, 268.0)">o</text><text xml:space="preserve" font-family="Monaco,Monaco" font-size="42.0" fill="#FEFFFF" transform="matrix(1.00, 0.00, -0.00, -1.00, 602.5, 268.0)">b</text><text xml:space="preserve" font-family="Monaco,Monaco" font-size="42.0" fill="#FEFFFF" transform="matrix(1.00, 0.00, -0.00, -1.00, 627.7, 268.0)">l</text><text xml:space="preserve" font-family="Monaco,Monaco" font-size="42.0" fill="#FEFFFF" transform="matrix(1.00, 0.00, -0.00, -1.00, 653.0, 268.0)">e</text><text xml:space="preserve" font-family="Monaco,Monaco" font-size="42.0" fill="#FEFFFF" transform="matrix(1.00, 0.00, -0.00, -1.00, 678.2, 268.0)">m</text><text xml:space="preserve" font-family="Monaco,Monaco" font-size="42.0" fill="#FEFFFF" transform="matrix(1.00, 0.00, -0.00, -1.00, 703.4, 268.0)">	</text><text xml:space="preserve" font-family="Monaco,Monaco" font-size="42.0" fill="#FEFFFF" transform="matrix(1.00, 0.00, -0.00, -1.00, 129.0, 187.0)">•</text><text xml:space="preserve" font-family="Monaco,Monaco" font-size="42.0" fill="#FEFFFF" transform="matrix(1.00, 0.00, -0.00, -1.00, 174.0, 187.0)">S</text><text xml:space="preserve" font-family="Monaco,Monaco" font-size="42.0" fill="#FEFFFF" transform="matrix(1.00, 0.00, -0.00, -1.00, 199.2, 187.0)">t</text><text xml:space="preserve" font-family="Monaco,Monaco" font-size="42.0" fill="#FEFFFF" transform="matrix(1.00, 0.00, -0.00, -1.00, 224.4, 187.0)">a</text><text xml:space="preserve" font-family="Monaco,Monaco" font-size="42.0" fill="#FEFFFF" transform="matrix(1.00, 0.00, -0.00, -1.00, 249.6, 187.0)">r</text><text xml:space="preserve" font-family="Monaco,Monaco" font-size="42.0" fill="#FEFFFF" transform="matrix(1.00, 0.00, -0.00, -1.00, 274.8, 187.0)">t</text><text xml:space="preserve" font-family="Monaco,Monaco" font-size="42.0" fill="#FEFFFF" transform="matrix(1.00, 0.00, -0.00, -1.00, 300.0, 187.0)"> </text><text xml:space="preserve" font-family="Monaco,Monaco" font-size="42.0" fill="#FEFFFF" transform="matrix(1.00, 0.00, -0.00, -1.00, 325.2, 187.0)">w</text><text xml:space="preserve" font-family="Monaco,Monaco" font-size="42.0" fill="#FEFFFF" transform="matrix(1.00, 0.00, -0.00, -1.00, 350.5, 187.0)">i</text><text xml:space="preserve" font-family="Monaco,Monaco" font-size="42.0" fill="#FEFFFF" transform="matrix(1.00, 0.00, -0.00, -1.00, 375.7, 187.0)">t</text><text xml:space="preserve" font-family="Monaco,Monaco" font-size="42.0" fill="#FEFFFF" transform="matrix(1.00, 0.00, -0.00, -1.00, 400.9, 187.0)">h</text><text xml:space="preserve" font-family="Monaco,Monaco" font-size="42.0" fill="#FEFFFF" transform="matrix(1.00, 0.00, -0.00, -1.00, 426.1, 187.0)"> </text><text xml:space="preserve" font-family="Monaco,Monaco" font-size="42.0" fill="#FEFFFF" transform="matrix(1.00, 0.00, -0.00, -1.00, 451.3, 187.0)">o</text><text xml:space="preserve" font-family="Monaco,Monaco" font-size="42.0" fill="#FEFFFF" transform="matrix(1.00, 0.00, -0.00, -1.00, 476.5, 187.0)">n</text><text xml:space="preserve" font-family="Monaco,Monaco" font-size="42.0" fill="#FEFFFF" transform="matrix(1.00, 0.00, -0.00, -1.00, 501.7, 187.0)">e</text><text xml:space="preserve" font-family="Monaco,Monaco" font-size="42.0" fill="#FEFFFF" transform="matrix(1.00, 0.00, -0.00, -1.00, 526.9, 187.0)"> </text><text xml:space="preserve" font-family="Monaco,Monaco" font-size="42.0" fill="#FEFFFF" transform="matrix(1.00, 0.00, -0.00, -1.00, 552.1, 187.0)">s</text><text xml:space="preserve" font-family="Monaco,Monaco" font-size="42.0" fill="#FEFFFF" transform="matrix(1.00, 0.00, -0.00, -1.00, 577.3, 187.0)">m</text><text xml:space="preserve" font-family="Monaco,Monaco" font-size="42.0" fill="#FEFFFF" transform="matrix(1.00, 0.00, -0.00, -1.00, 602.5, 187.0)">a</text><text xml:space="preserve" font-family="Monaco,Monaco" font-size="42.0" fill="#FEFFFF" transform="matrix(1.00, 0.00, -0.00, -1.00, 627.7, 187.0)">l</text><text xml:space="preserve" font-family="Monaco,Monaco" font-size="42.0" fill="#FEFFFF" transform="matrix(1.00, 0.00, -0.00, -1.00, 653.0, 187.0)">l</text><text xml:space="preserve" font-family="Monaco,Monaco" font-size="42.0" fill="#FEFFFF" transform="matrix(1.00, 0.00, -0.00, -1.00, 678.2, 187.0)"> </text><text xml:space="preserve" font-family="Monaco,Monaco" font-size="42.0" fill="#FEFFFF" transform="matrix(1.00, 0.00, -0.00, -1.00, 703.4, 187.0)">p</text><text xml:space="preserve" font-family="Monaco,Monaco" font-size="42.0" fill="#FEFFFF" transform="matrix(1.00, 0.00, -0.00, -1.00, 728.6, 187.0)">a</text><text xml:space="preserve" font-family="Monaco,Monaco" font-size="42.0" fill="#FEFFFF" transform="matrix(1.00, 0.00, -0.00, -1.00, 753.8, 187.0)">r</text><text xml:space="preserve" font-family="Monaco,Monaco" font-size="42.0" fill="#FEFFFF" transform="matrix(1.00, 0.00, -0.00, -1.00, 779.0, 187.0)">t</text></g></svg>