<?xml version="1.0" encoding="UTF-8" standalone="no"?><svg xmlns="http://www.w3.org/2000/svg" xmlns:xlink="http://www.w3.org/1999/xlink" clip-rule="evenodd" stroke-miterlimit="10" viewBox="0 0 1024 768"><desc>SVG generated by Keynote</desc><defs></defs><g transform="matrix(1.00, 0.00, -0.00, -1.00, 0.0, 768.0)"><path d="M 0.0 768.0 L 1024.0 768.0 L 1024.0 0.0 L 0.0 0.0 Z M 0.0 768.0 " fill="#000000"></path><text xml:space="preserve" font-family="LucidaGrande,Lucida Grande" font-size="22.0" fill="#FEFFFE" transform="matrix(1.00, 0.00, -0.00, -1.00, 332.4, 11.6)">F</text><text xml:space="preserve" font-family="LucidaGrande,Lucida Grande" font-size="22.0" fill="#FEFFFE" transform="matrix(1.00, 0.00, -0.00, -1.00, 344.2, 11.6)">e</text><text xml:space="preserve" font-family="LucidaGrande,Lucida Grande" font-size="22.0" fill="#FEFFFE" transform="matrix(1.00, 0.00, -0.00, -1.00, 356.4, 11.6)">e</text><text xml:space="preserve" font-family="LucidaGrande,Lucida Grande" font-size="22.0" fill="#FEFFFE" transform="matrix(1.00, 0.00, -0.00, -1.00, 368.7, 11.6)">d</text><text xml:space="preserve" font-family="LucidaGrande,Lucida Grande" font-size="22.0" fill="#FEFFFE" transform="matrix(1.00, 0.00, -0.00, -1.00, 382.5, 11.6)">b</text><text xml:space="preserve" font-family="LucidaGrande,Lucida Grande" font-size="22.0" fill="#FEFFFE" transform="matrix(1.00, 0.00, -0.00, -1.00, 396.4, 11.6)">a</text><text xml:space="preserve" font-family="LucidaGrande,Lucida Grande" font-size="22.0" fill="#FEFFFE" transform="matrix(1.00, 0.00, -0.00, -1.00, 408.5, 11.6)">c</text><text xml:space="preserve" font-family="LucidaGrande,Lucida Grande" font-size="22.0" fill="#FEFFFE" transform="matrix(1.00, 0.00, -0.00, -1.00, 419.8, 11.6)">k</text><text xml:space="preserve" font-family="LucidaGrande,Lucida Grande" font-size="22.0" fill="#FEFFFE" transform="matrix(1.00, 0.00, -0.00, -1.00, 432.7, 11.6)">:</text><text xml:space="preserve" font-family="LucidaGrande,Lucida Grande" font-size="22.0" fill="#FEFFFE" transform="matrix(1.00, 0.00, -0.00, -1.00, 439.6, 11.6)"> </text><text xml:space="preserve" font-family="LucidaGrande,Lucida Grande" font-size="22.0" fill="#FEFFFE" transform="matrix(1.00, 0.00, -0.00, -1.00, 446.6, 11.6)">h</text><text xml:space="preserve" font-family="LucidaGrande,Lucida Grande" font-size="22.0" fill="#FEFFFE" transform="matrix(1.00, 0.00, -0.00, -1.00, 460.2, 11.6)">t</text><text xml:space="preserve" font-family="LucidaGrande,Lucida Grande" font-size="22.0" fill="#FEFFFE" transform="matrix(1.00, 0.00, -0.00, -1.00, 468.4, 11.6)">t</text><text xml:space="preserve" font-family="LucidaGrande,Lucida Grande" font-size="22.0" fill="#FEFFFE" transform="matrix(1.00, 0.00, -0.00, -1.00, 476.7, 11.6)">p</text><text xml:space="preserve" font-family="LucidaGrande,Lucida Grande" font-size="22.0" fill="#FEFFFE" transform="matrix(1.00, 0.00, -0.00, -1.00, 490.5, 11.6)">:</text><text xml:space="preserve" font-family="LucidaGrande,Lucida Grande" font-size="22.0" fill="#FEFFFE" transform="matrix(1.00, 0.00, -0.00, -1.00, 497.5, 11.6)">/</text><text xml:space="preserve" font-family="LucidaGrande,Lucida Grande" font-size="22.0" fill="#FEFFFE" transform="matrix(1.00, 0.00, -0.00, -1.00, 509.0, 11.6)">/</text><text xml:space="preserve" font-family="LucidaGrande,Lucida Grande" font-size="22.0" fill="#FEFFFE" transform="matrix(1.00, 0.00, -0.00, -1.00, 520.6, 11.6)">j</text><text xml:space="preserve" font-family="LucidaGrande,Lucida Grande" font-size="22.0" fill="#FEFFFE" transform="matrix(1.00, 0.00, -0.00, -1.00, 527.3, 11.6)">.</text><text xml:space="preserve" font-family="LucidaGrande,Lucida Grande" font-size="22.0" fill="#FEFFFE" transform="matrix(1.00, 0.00, -0.00, -1.00, 534.3, 11.6)">m</text><text xml:space="preserve" font-family="LucidaGrande,Lucida Grande" font-size="22.0" fill="#FEFFFE" transform="matrix(1.00, 0.00, -0.00, -1.00, 554.8, 11.6)">p</text><text xml:space="preserve" font-family="LucidaGrande,Lucida Grande" font-size="22.0" fill="#FEFFFE" transform="matrix(1.00, 0.00, -0.00, -1.00, 568.6, 11.6)">/</text><text xml:space="preserve" font-family="LucidaGrande,Lucida Grande" font-size="22.0" fill="#FEFFFE" transform="matrix(1.00, 0.00, -0.00, -1.00, 580.2, 11.6)">p</text><text xml:space="preserve" font-family="LucidaGrande,Lucida Grande" font-size="22.0" fill="#FEFFFE" transform="matrix(1.00, 0.00, -0.00, -1.00, 594.0, 11.6)">s</text><text xml:space="preserve" font-family="LucidaGrande,Lucida Grande" font-size="22.0" fill="#FEFFFE" transform="matrix(1.00, 0.00, -0.00, -1.00, 605.3, 11.6)">u</text><text xml:space="preserve" font-family="LucidaGrande,Lucida Grande" font-size="22.0" fill="#FEFFFE" transform="matrix(1.00, 0.00, -0.00, -1.00, 618.9, 11.6)">m</text><text xml:space="preserve" font-family="LucidaGrande,Lucida Grande" font-size="22.0" fill="#FEFFFE" transform="matrix(1.00, 0.00, -0.00, -1.00, 639.4, 11.6)">a</text><text xml:space="preserve" font-family="LucidaGrande,Lucida Grande" font-size="22.0" fill="#FEFFFE" transform="matrix(1.00, 0.00, -0.00, -1.00, 651.6, 11.6)">c</text><text xml:space="preserve" font-family="LucidaGrande,Lucida Grande" font-size="22.0" fill="#FEFFFE" transform="matrix(1.00, 0.00, -0.00, -1.00, 662.9, 11.6)">1</text><text xml:space="preserve" font-family="LucidaGrande,Lucida Grande" font-size="22.0" fill="#FEFFFE" transform="matrix(1.00, 0.00, -0.00, -1.00, 676.8, 11.6)">3</text><text xml:space="preserve" font-family="Monaco,Monaco" font-size="79.8" fill="#FEFFFF" transform="matrix(1.00, 0.00, -0.00, -1.00, 105.0, 621.6)">S</text><text xml:space="preserve" font-family="Monaco,Monaco" font-size="79.8" fill="#FEFFFF" transform="matrix(1.00, 0.00, -0.00, -1.00, 152.8, 621.6)">t</text><text xml:space="preserve" font-family="Monaco,Monaco" font-size="79.8" fill="#FEFFFF" transform="matrix(1.00, 0.00, -0.00, -1.00, 200.7, 621.6)">r</text><text xml:space="preserve" font-family="Monaco,Monaco" font-size="79.8" fill="#FEFFFF" transform="matrix(1.00, 0.00, -0.00, -1.00, 248.6, 621.6)">i</text><text xml:space="preserve" font-family="Monaco,Monaco" font-size="79.8" fill="#FEFFFF" transform="matrix(1.00, 0.00, -0.00, -1.00, 296.5, 621.6)">n</text><text xml:space="preserve" font-family="Monaco,Monaco" font-size="79.8" fill="#FEFFFF" transform="matrix(1.00, 0.00, -0.00, -1.00, 344.4, 621.6)">g</text><text xml:space="preserve" font-family="Monaco,Monaco" font-size="79.8" fill="#FEFFFF" transform="matrix(1.00, 0.00, -0.00, -1.00, 392.3, 621.6)"> </text><text xml:space="preserve" font-family="Monaco,Monaco" font-size="79.8" fill="#FEFFFF" transform="matrix(1.00, 0.00, -0.00, -1.00, 440.2, 621.6)">C</text><text xml:space="preserve" font-family="Monaco,Monaco" font-size="79.8" fill="#FEFFFF" transform="matrix(1.00, 0.00, -0.00, -1.00, 488.1, 621.6)">o</text><text xml:space="preserve" font-family="Monaco,Monaco" font-size="79.8" fill="#FEFFFF" transform="matrix(1.00, 0.00, -0.00, -1.00, 536.0, 621.6)">m</text><text xml:space="preserve" font-family="Monaco,Monaco" font-size="79.8" fill="#FEFFFF" transform="matrix(1.00, 0.00, -0.00, -1.00, 583.9, 621.6)">p</text><text xml:space="preserve" font-family="Monaco,Monaco" font-size="79.8" fill="#FEFFFF" transform="matrix(1.00, 0.00, -0.00, -1.00, 631.8, 621.6)">a</text><text xml:space="preserve" font-family="Monaco,Monaco" font-size="79.8" fill="#FEFFFF" transform="matrix(1.00, 0.00, -0.00, -1.00, 679.7, 621.6)">r</text><text xml:space="preserve" font-family="Monaco,Monaco" font-size="79.8" fill="#FEFFFF" transform="matrix(1.00, 0.00, -0.00, -1.00, 727.6, 621.6)">i</text><text xml:space="preserve" font-family="Monaco,Monaco" font-size="79.8" fill="#FEFFFF" transform="matrix(1.00, 0.00, -0.00, -1.00, 775.5, 621.6)">s</text><text xml:space="preserve" font-family="Monaco,Monaco" font-size="79.8" fill="#FEFFFF" transform="matrix(1.00, 0.00, -0.00, -1.00, 823.4, 621.6)">o</text><text xml:space="preserve" font-family="Monaco,Monaco" font-size="79.8" fill="#FEFFFF" transform="matrix(1.00, 0.00, -0.00, -1.00, 871.3, 621.6)">n</text><text xml:space="preserve" font-family="Monaco,Monaco" font-size="40.0" fill="#FEFFFF" transform="matrix(1.00, 0.00, -0.00, -1.00, 129.0, 466.3)">•</text><text xml:space="preserve" font-family="Monaco,Monaco" font-size="40.0" fill="#FEFFFF" transform="matrix(1.00, 0.00, -0.00, -1.00, 174.0, 466.3)">I</text><text xml:space="preserve" font-family="Monaco,Monaco" font-size="40.0" fill="#FEFFFF" transform="matrix(1.00, 0.00, -0.00, -1.00, 198.0, 466.3)">s</text><text xml:space="preserve" font-family="Monaco,Monaco" font-size="40.0" fill="#FEFFFF" transform="matrix(1.00, 0.00, -0.00, -1.00, 222.0, 466.3)"> </text><text xml:space="preserve" font-family="Monaco,Monaco" font-size="40.0" fill="#FEFFFF" transform="matrix(1.00, 0.00, -0.00, -1.00, 246.0, 466.3)">E</text><text xml:space="preserve" font-family="Monaco,Monaco" font-size="40.0" fill="#FEFFFF" transform="matrix(1.00, 0.00, -0.00, -1.00, 270.0, 466.3)">q</text><text xml:space="preserve" font-family="Monaco,Monaco" font-size="40.0" fill="#FEFFFF" transform="matrix(1.00, 0.00, -0.00, -1.00, 294.0, 466.3)">u</text><text xml:space="preserve" font-family="Monaco,Monaco" font-size="40.0" fill="#FEFFFF" transform="matrix(1.00, 0.00, -0.00, -1.00, 318.0, 466.3)">a</text><text xml:space="preserve" font-family="Monaco,Monaco" font-size="40.0" fill="#FEFFFF" transform="matrix(1.00, 0.00, -0.00, -1.00, 342.1, 466.3)">l</text><text xml:space="preserve" font-family="Monaco,Monaco" font-size="40.0" fill="#FEFFFF" transform="matrix(1.00, 0.00, -0.00, -1.00, 366.1, 466.3)"> </text><text xml:space="preserve" font-family="Monaco,Monaco" font-size="40.0" fill="#FEFFFF" transform="matrix(1.00, 0.00, -0.00, -1.00, 390.1, 466.3)">T</text><text xml:space="preserve" font-family="Monaco,Monaco" font-size="40.0" fill="#FEFFFF" transform="matrix(1.00, 0.00, -0.00, -1.00, 414.1, 466.3)">o</text><text xml:space="preserve" font-family="Monaco,Monaco" font-size="40.0" fill="#FEFFFF" transform="matrix(1.00, 0.00, -0.00, -1.00, 438.1, 466.3)">:</text><text xml:space="preserve" font-family="Monaco,Monaco" font-size="40.0" fill="#FEFFFF" transform="matrix(1.00, 0.00, -0.00, -1.00, 462.1, 466.3)"> </text><text xml:space="preserve" font-family="Monaco,Monaco" font-size="40.0" fill="#FEFFFF" transform="matrix(1.00, 0.00, -0.00, -1.00, 486.1, 466.3)"> </text><text xml:space="preserve" font-family="Monaco,Monaco" font-size="40.0" fill="#FEFFFF" transform="matrix(1.00, 0.00, -0.00, -1.00, 510.1, 466.3)"> </text><text xml:space="preserve" font-family="Monaco,Monaco" font-size="40.0" fill="#FEFFFF" transform="matrix(1.00, 0.00, -0.00, -1.00, 174.0, 413.3)">[</text><text xml:space="preserve" font-family="Monaco,Monaco" font-size="40.0" fill="#FEFFFF" transform="matrix(1.00, 0.00, -0.00, -1.00, 198.0, 413.3)">[</text><text xml:space="preserve" font-family="Monaco,Monaco" font-size="40.0" fill="#FEFFFF" transform="matrix(1.00, 0.00, -0.00, -1.00, 222.0, 413.3)"> </text><text xml:space="preserve" font-family="Monaco,Monaco" font-size="40.0" fill="#FEFFFF" transform="matrix(1.00, 0.00, -0.00, -1.00, 246.0, 413.3)">"</text><text xml:space="preserve" font-family="Monaco,Monaco" font-size="40.0" fill="#FEFFFF" transform="matrix(1.00, 0.00, -0.00, -1.00, 270.0, 413.3)">$</text><text xml:space="preserve" font-family="Monaco,Monaco" font-size="40.0" fill="#FEFFFF" transform="matrix(1.00, 0.00, -0.00, -1.00, 294.0, 413.3)">s</text><text xml:space="preserve" font-family="Monaco,Monaco" font-size="40.0" fill="#FEFFFF" transform="matrix(1.00, 0.00, -0.00, -1.00, 318.0, 413.3)">t</text><text xml:space="preserve" font-family="Monaco,Monaco" font-size="40.0" fill="#FEFFFF" transform="matrix(1.00, 0.00, -0.00, -1.00, 342.1, 413.3)">r</text><text xml:space="preserve" font-family="Monaco,Monaco" font-size="40.0" fill="#FEFFFF" transform="matrix(1.00, 0.00, -0.00, -1.00, 366.1, 413.3)">i</text><text xml:space="preserve" font-family="Monaco,Monaco" font-size="40.0" fill="#FEFFFF" transform="matrix(1.00, 0.00, -0.00, -1.00, 390.1, 413.3)">n</text><text xml:space="preserve" font-family="Monaco,Monaco" font-size="40.0" fill="#FEFFFF" transform="matrix(1.00, 0.00, -0.00, -1.00, 414.1, 413.3)">g</text><text xml:space="preserve" font-family="Monaco,Monaco" font-size="40.0" fill="#FEFFFF" transform="matrix(1.00, 0.00, -0.00, -1.00, 438.1, 413.3)">1</text><text xml:space="preserve" font-family="Monaco,Monaco" font-size="40.0" fill="#FEFFFF" transform="matrix(1.00, 0.00, -0.00, -1.00, 462.1, 413.3)">"</text><text xml:space="preserve" font-family="Monaco,Monaco" font-size="40.0" fill="#FEFFFF" transform="matrix(1.00, 0.00, -0.00, -1.00, 486.1, 413.3)"> </text><text xml:space="preserve" font-family="Monaco,Monaco" font-size="40.0" fill="#FEFFFF" transform="matrix(1.00, 0.00, -0.00, -1.00, 510.1, 413.3)">=</text><text xml:space="preserve" font-family="Monaco,Monaco" font-size="40.0" fill="#FEFFFF" transform="matrix(1.00, 0.00, -0.00, -1.00, 534.1, 413.3)">=</text><text xml:space="preserve" font-family="Monaco,Monaco" font-size="40.0" fill="#FEFFFF" transform="matrix(1.00, 0.00, -0.00, -1.00, 558.1, 413.3)"> </text><text xml:space="preserve" font-family="Monaco,Monaco" font-size="40.0" fill="#FEFFFF" transform="matrix(1.00, 0.00, -0.00, -1.00, 582.1, 413.3)">"</text><text xml:space="preserve" font-family="Monaco,Monaco" font-size="40.0" fill="#FEFFFF" transform="matrix(1.00, 0.00, -0.00, -1.00, 606.1, 413.3)">$</text><text xml:space="preserve" font-family="Monaco,Monaco" font-size="40.0" fill="#FEFFFF" transform="matrix(1.00, 0.00, -0.00, -1.00, 630.2, 413.3)">s</text><text xml:space="preserve" font-family="Monaco,Monaco" font-size="40.0" fill="#FEFFFF" transform="matrix(1.00, 0.00, -0.00, -1.00, 654.2, 413.3)">t</text><text xml:space="preserve" font-family="Monaco,Monaco" font-size="40.0" fill="#FEFFFF" transform="matrix(1.00, 0.00, -0.00, -1.00, 678.2, 413.3)">r</text><text xml:space="preserve" font-family="Monaco,Monaco" font-size="40.0" fill="#FEFFFF" transform="matrix(1.00, 0.00, -0.00, -1.00, 702.2, 413.3)">i</text><text xml:space="preserve" font-family="Monaco,Monaco" font-size="40.0" fill="#FEFFFF" transform="matrix(1.00, 0.00, -0.00, -1.00, 726.2, 413.3)">n</text><text xml:space="preserve" font-family="Monaco,Monaco" font-size="40.0" fill="#FEFFFF" transform="matrix(1.00, 0.00, -0.00, -1.00, 750.2, 413.3)">g</text><text xml:space="preserve" font-family="Monaco,Monaco" font-size="40.0" fill="#FEFFFF" transform="matrix(1.00, 0.00, -0.00, -1.00, 774.2, 413.3)">2</text><text xml:space="preserve" font-family="Monaco,Monaco" font-size="40.0" fill="#FEFFFF" transform="matrix(1.00, 0.00, -0.00, -1.00, 798.2, 413.3)">"</text><text xml:space="preserve" font-family="Monaco,Monaco" font-size="40.0" fill="#FEFFFF" transform="matrix(1.00, 0.00, -0.00, -1.00, 822.2, 413.3)"> </text><text xml:space="preserve" font-family="Monaco,Monaco" font-size="40.0" fill="#FEFFFF" transform="matrix(1.00, 0.00, -0.00, -1.00, 846.2, 413.3)">]</text><text xml:space="preserve" font-family="Monaco,Monaco" font-size="40.0" fill="#FEFFFF" transform="matrix(1.00, 0.00, -0.00, -1.00, 870.2, 413.3)">]</text><text xml:space="preserve" font-family="Monaco,Monaco" font-size="40.0" fill="#FEFFFF" transform="matrix(1.00, 0.00, -0.00, -1.00, 894.1, 413.3)">	</text><text xml:space="preserve" font-family="Monaco,Monaco" font-size="40.0" fill="#FEFFFF" transform="matrix(1.00, 0.00, -0.00, -1.00, 129.0, 336.3)">•</text><text xml:space="preserve" font-family="Monaco,Monaco" font-size="40.0" fill="#FEFFFF" transform="matrix(1.00, 0.00, -0.00, -1.00, 174.0, 336.3)">I</text><text xml:space="preserve" font-family="Monaco,Monaco" font-size="40.0" fill="#FEFFFF" transform="matrix(1.00, 0.00, -0.00, -1.00, 198.0, 336.3)">s</text><text xml:space="preserve" font-family="Monaco,Monaco" font-size="40.0" fill="#FEFFFF" transform="matrix(1.00, 0.00, -0.00, -1.00, 222.0, 336.3)"> </text><text xml:space="preserve" font-family="Monaco,Monaco" font-size="40.0" fill="#FEFFFF" transform="matrix(1.00, 0.00, -0.00, -1.00, 246.0, 336.3)">N</text><text xml:space="preserve" font-family="Monaco,Monaco" font-size="40.0" fill="#FEFFFF" transform="matrix(1.00, 0.00, -0.00, -1.00, 270.0, 336.3)">O</text><text xml:space="preserve" font-family="Monaco,Monaco" font-size="40.0" fill="#FEFFFF" transform="matrix(1.00, 0.00, -0.00, -1.00, 294.0, 336.3)">T</text><text xml:space="preserve" font-family="Monaco,Monaco" font-size="40.0" fill="#FEFFFF" transform="matrix(1.00, 0.00, -0.00, -1.00, 318.0, 336.3)"> </text><text xml:space="preserve" font-family="Monaco,Monaco" font-size="40.0" fill="#FEFFFF" transform="matrix(1.00, 0.00, -0.00, -1.00, 342.1, 336.3)">E</text><text xml:space="preserve" font-family="Monaco,Monaco" font-size="40.0" fill="#FEFFFF" transform="matrix(1.00, 0.00, -0.00, -1.00, 366.1, 336.3)">q</text><text xml:space="preserve" font-family="Monaco,Monaco" font-size="40.0" fill="#FEFFFF" transform="matrix(1.00, 0.00, -0.00, -1.00, 390.1, 336.3)">u</text><text xml:space="preserve" font-family="Monaco,Monaco" font-size="40.0" fill="#FEFFFF" transform="matrix(1.00, 0.00, -0.00, -1.00, 414.1, 336.3)">a</text><text xml:space="preserve" font-family="Monaco,Monaco" font-size="40.0" fill="#FEFFFF" transform="matrix(1.00, 0.00, -0.00, -1.00, 438.1, 336.3)">l</text><text xml:space="preserve" font-family="Monaco,Monaco" font-size="40.0" fill="#FEFFFF" transform="matrix(1.00, 0.00, -0.00, -1.00, 462.1, 336.3)">:</text><text xml:space="preserve" font-family="Monaco,Monaco" font-size="40.0" fill="#FEFFFF" transform="matrix(1.00, 0.00, -0.00, -1.00, 486.1, 336.3)"> </text><text xml:space="preserve" font-family="Monaco,Monaco" font-size="40.0" fill="#FEFFFF" transform="matrix(1.00, 0.00, -0.00, -1.00, 510.1, 336.3)"> </text><text xml:space="preserve" font-family="Monaco,Monaco" font-size="40.0" fill="#FEFFFF" transform="matrix(1.00, 0.00, -0.00, -1.00, 174.0, 283.3)">[</text><text xml:space="preserve" font-family="Monaco,Monaco" font-size="40.0" fill="#FEFFFF" transform="matrix(1.00, 0.00, -0.00, -1.00, 198.0, 283.3)">[</text><text xml:space="preserve" font-family="Monaco,Monaco" font-size="40.0" fill="#FEFFFF" transform="matrix(1.00, 0.00, -0.00, -1.00, 222.0, 283.3)"> </text><text xml:space="preserve" font-family="Monaco,Monaco" font-size="40.0" fill="#FEFFFF" transform="matrix(1.00, 0.00, -0.00, -1.00, 246.0, 283.3)">"</text><text xml:space="preserve" font-family="Monaco,Monaco" font-size="40.0" fill="#FEFFFF" transform="matrix(1.00, 0.00, -0.00, -1.00, 270.0, 283.3)">$</text><text xml:space="preserve" font-family="Monaco,Monaco" font-size="40.0" fill="#FEFFFF" transform="matrix(1.00, 0.00, -0.00, -1.00, 294.0, 283.3)">s</text><text xml:space="preserve" font-family="Monaco,Monaco" font-size="40.0" fill="#FEFFFF" transform="matrix(1.00, 0.00, -0.00, -1.00, 318.0, 283.3)">t</text><text xml:space="preserve" font-family="Monaco,Monaco" font-size="40.0" fill="#FEFFFF" transform="matrix(1.00, 0.00, -0.00, -1.00, 342.1, 283.3)">r</text><text xml:space="preserve" font-family="Monaco,Monaco" font-size="40.0" fill="#FEFFFF" transform="matrix(1.00, 0.00, -0.00, -1.00, 366.1, 283.3)">i</text><text xml:space="preserve" font-family="Monaco,Monaco" font-size="40.0" fill="#FEFFFF" transform="matrix(1.00, 0.00, -0.00, -1.00, 390.1, 283.3)">n</text><text xml:space="preserve" font-family="Monaco,Monaco" font-size="40.0" fill="#FEFFFF" transform="matrix(1.00, 0.00, -0.00, -1.00, 414.1, 283.3)">g</text><text xml:space="preserve" font-family="Monaco,Monaco" font-size="40.0" fill="#FEFFFF" transform="matrix(1.00, 0.00, -0.00, -1.00, 438.1, 283.3)">1</text><text xml:space="preserve" font-family="Monaco,Monaco" font-size="40.0" fill="#FEFFFF" transform="matrix(1.00, 0.00, -0.00, -1.00, 462.1, 283.3)">"</text><text xml:space="preserve" font-family="Monaco,Monaco" font-size="40.0" fill="#FEFFFF" transform="matrix(1.00, 0.00, -0.00, -1.00, 486.1, 283.3)"> </text><text xml:space="preserve" font-family="Monaco,Monaco" font-size="40.0" fill="#FEFFFF" transform="matrix(1.00, 0.00, -0.00, -1.00, 510.1, 283.3)">!</text><text xml:space="preserve" font-family="Monaco,Monaco" font-size="40.0" fill="#FEFFFF" transform="matrix(1.00, 0.00, -0.00, -1.00, 534.1, 283.3)">=</text><text xml:space="preserve" font-family="Monaco,Monaco" font-size="40.0" fill="#FEFFFF" transform="matrix(1.00, 0.00, -0.00, -1.00, 558.1, 283.3)"> </text><text xml:space="preserve" font-family="Monaco,Monaco" font-size="40.0" fill="#FEFFFF" transform="matrix(1.00, 0.00, -0.00, -1.00, 582.1, 283.3)">"</text><text xml:space="preserve" font-family="Monaco,Monaco" font-size="40.0" fill="#FEFFFF" transform="matrix(1.00, 0.00, -0.00, -1.00, 606.1, 283.3)">$</text><text xml:space="preserve" font-family="Monaco,Monaco" font-size="40.0" fill="#FEFFFF" transform="matrix(1.00, 0.00, -0.00, -1.00, 630.2, 283.3)">s</text><text xml:space="preserve" font-family="Monaco,Monaco" font-size="40.0" fill="#FEFFFF" transform="matrix(1.00, 0.00, -0.00, -1.00, 654.2, 283.3)">t</text><text xml:space="preserve" font-family="Monaco,Monaco" font-size="40.0" fill="#FEFFFF" transform="matrix(1.00, 0.00, -0.00, -1.00, 678.2, 283.3)">r</text><text xml:space="preserve" font-family="Monaco,Monaco" font-size="40.0" fill="#FEFFFF" transform="matrix(1.00, 0.00, -0.00, -1.00, 702.2, 283.3)">i</text><text xml:space="preserve" font-family="Monaco,Monaco" font-size="40.0" fill="#FEFFFF" transform="matrix(1.00, 0.00, -0.00, -1.00, 726.2, 283.3)">n</text><text xml:space="preserve" font-family="Monaco,Monaco" font-size="40.0" fill="#FEFFFF" transform="matrix(1.00, 0.00, -0.00, -1.00, 750.2, 283.3)">g</text><text xml:space="preserve" font-family="Monaco,Monaco" font-size="40.0" fill="#FEFFFF" transform="matrix(1.00, 0.00, -0.00, -1.00, 774.2, 283.3)">2</text><text xml:space="preserve" font-family="Monaco,Monaco" font-size="40.0" fill="#FEFFFF" transform="matrix(1.00, 0.00, -0.00, -1.00, 798.2, 283.3)">"</text><text xml:space="preserve" font-family="Monaco,Monaco" font-size="40.0" fill="#FEFFFF" transform="matrix(1.00, 0.00, -0.00, -1.00, 822.2, 283.3)"> </text><text xml:space="preserve" font-family="Monaco,Monaco" font-size="40.0" fill="#FEFFFF" transform="matrix(1.00, 0.00, -0.00, -1.00, 846.2, 283.3)">]</text><text xml:space="preserve" font-family="Monaco,Monaco" font-size="40.0" fill="#FEFFFF" transform="matrix(1.00, 0.00, -0.00, -1.00, 870.2, 283.3)">]</text><text xml:space="preserve" font-family="Monaco,Monaco" font-size="40.0" fill="#FEFFFF" transform="matrix(1.00, 0.00, -0.00, -1.00, 894.1, 283.3)">	</text><text xml:space="preserve" font-family="Monaco,Monaco" font-size="40.0" fill="#FEFFFF" transform="matrix(1.00, 0.00, -0.00, -1.00, 129.0, 206.3)">•</text><text xml:space="preserve" font-family="Monaco,Monaco" font-size="40.0" fill="#FEFFFF" transform="matrix(1.00, 0.00, -0.00, -1.00, 174.0, 206.3)">S</text><text xml:space="preserve" font-family="Monaco,Monaco" font-size="40.0" fill="#FEFFFF" transform="matrix(1.00, 0.00, -0.00, -1.00, 198.0, 206.3)">t</text><text xml:space="preserve" font-family="Monaco,Monaco" font-size="40.0" fill="#FEFFFF" transform="matrix(1.00, 0.00, -0.00, -1.00, 222.0, 206.3)">r</text><text xml:space="preserve" font-family="Monaco,Monaco" font-size="40.0" fill="#FEFFFF" transform="matrix(1.00, 0.00, -0.00, -1.00, 246.0, 206.3)">i</text><text xml:space="preserve" font-family="Monaco,Monaco" font-size="40.0" fill="#FEFFFF" transform="matrix(1.00, 0.00, -0.00, -1.00, 270.0, 206.3)">n</text><text xml:space="preserve" font-family="Monaco,Monaco" font-size="40.0" fill="#FEFFFF" transform="matrix(1.00, 0.00, -0.00, -1.00, 294.0, 206.3)">g</text><text xml:space="preserve" font-family="Monaco,Monaco" font-size="40.0" fill="#FEFFFF" transform="matrix(1.00, 0.00, -0.00, -1.00, 318.0, 206.3)"> </text><text xml:space="preserve" font-family="Monaco,Monaco" font-size="40.0" fill="#FEFFFF" transform="matrix(1.00, 0.00, -0.00, -1.00, 342.1, 206.3)">i</text><text xml:space="preserve" font-family="Monaco,Monaco" font-size="40.0" fill="#FEFFFF" transform="matrix(1.00, 0.00, -0.00, -1.00, 366.1, 206.3)">s</text><text xml:space="preserve" font-family="Monaco,Monaco" font-size="40.0" fill="#FEFFFF" transform="matrix(1.00, 0.00, -0.00, -1.00, 390.1, 206.3)"> </text><text xml:space="preserve" font-family="Monaco,Monaco" font-size="40.0" fill="#FEFFFF" transform="matrix(1.00, 0.00, -0.00, -1.00, 414.1, 206.3)">N</text><text xml:space="preserve" font-family="Monaco,Monaco" font-size="40.0" fill="#FEFFFF" transform="matrix(1.00, 0.00, -0.00, -1.00, 438.1, 206.3)">u</text><text xml:space="preserve" font-family="Monaco,Monaco" font-size="40.0" fill="#FEFFFF" transform="matrix(1.00, 0.00, -0.00, -1.00, 462.1, 206.3)">l</text><text xml:space="preserve" font-family="Monaco,Monaco" font-size="40.0" fill="#FEFFFF" transform="matrix(1.00, 0.00, -0.00, -1.00, 486.1, 206.3)">l</text><text xml:space="preserve" font-family="Monaco,Monaco" font-size="40.0" fill="#FEFFFF" transform="matrix(1.00, 0.00, -0.00, -1.00, 510.1, 206.3)">:</text><text xml:space="preserve" font-family="Monaco,Monaco" font-size="40.0" fill="#FEFFFF" transform="matrix(1.00, 0.00, -0.00, -1.00, 534.1, 206.3)"> </text><text xml:space="preserve" font-family="Monaco,Monaco" font-size="40.0" fill="#FEFFFF" transform="matrix(1.00, 0.00, -0.00, -1.00, 174.0, 153.3)">[</text><text xml:space="preserve" font-family="Monaco,Monaco" font-size="40.0" fill="#FEFFFF" transform="matrix(1.00, 0.00, -0.00, -1.00, 198.0, 153.3)">[</text><text xml:space="preserve" font-family="Monaco,Monaco" font-size="40.0" fill="#FEFFFF" transform="matrix(1.00, 0.00, -0.00, -1.00, 222.0, 153.3)"> </text><text xml:space="preserve" font-family="Monaco,Monaco" font-size="40.0" fill="#FEFFFF" transform="matrix(1.00, 0.00, -0.00, -1.00, 246.0, 153.3)">-</text><text xml:space="preserve" font-family="Monaco,Monaco" font-size="40.0" fill="#FEFFFF" transform="matrix(1.00, 0.00, -0.00, -1.00, 270.0, 153.3)">n</text><text xml:space="preserve" font-family="Monaco,Monaco" font-size="40.0" fill="#FEFFFF" transform="matrix(1.00, 0.00, -0.00, -1.00, 294.0, 153.3)"> </text><text xml:space="preserve" font-family="Monaco,Monaco" font-size="40.0" fill="#FEFFFF" transform="matrix(1.00, 0.00, -0.00, -1.00, 318.0, 153.3)">"</text><text xml:space="preserve" font-family="Monaco,Monaco" font-size="40.0" fill="#FEFFFF" transform="matrix(1.00, 0.00, -0.00, -1.00, 342.1, 153.3)">$</text><text xml:space="preserve" font-family="Monaco,Monaco" font-size="40.0" fill="#FEFFFF" transform="matrix(1.00, 0.00, -0.00, -1.00, 366.1, 153.3)">s</text><text xml:space="preserve" font-family="Monaco,Monaco" font-size="40.0" fill="#FEFFFF" transform="matrix(1.00, 0.00, -0.00, -1.00, 390.1, 153.3)">t</text><text xml:space="preserve" font-family="Monaco,Monaco" font-size="40.0" fill="#FEFFFF" transform="matrix(1.00, 0.00, -0.00, -1.00, 414.1, 153.3)">r</text><text xml:space="preserve" font-family="Monaco,Monaco" font-size="40.0" fill="#FEFFFF" transform="matrix(1.00, 0.00, -0.00, -1.00, 438.1, 153.3)">i</text><text xml:space="preserve" font-family="Monaco,Monaco" font-size="40.0" fill="#FEFFFF" transform="matrix(1.00, 0.00, -0.00, -1.00, 462.1, 153.3)">n</text><text xml:space="preserve" font-family="Monaco,Monaco" font-size="40.0" fill="#FEFFFF" transform="matrix(1.00, 0.00, -0.00, -1.00, 486.1, 153.3)">g</text><text xml:space="preserve" font-family="Monaco,Monaco" font-size="40.0" fill="#FEFFFF" transform="matrix(1.00, 0.00, -0.00, -1.00, 510.1, 153.3)">1</text><text xml:space="preserve" font-family="Monaco,Monaco" font-size="40.0" fill="#FEFFFF" transform="matrix(1.00, 0.00, -0.00, -1.00, 534.1, 153.3)">"</text><text xml:space="preserve" font-family="Monaco,Monaco" font-size="40.0" fill="#FEFFFF" transform="matrix(1.00, 0.00, -0.00, -1.00, 558.1, 153.3)"> </text><text xml:space="preserve" font-family="Monaco,Monaco" font-size="40.0" fill="#FEFFFF" transform="matrix(1.00, 0.00, -0.00, -1.00, 582.1, 153.3)">]</text><text xml:space="preserve" font-family="Monaco,Monaco" font-size="40.0" fill="#FEFFFF" transform="matrix(1.00, 0.00, -0.00, -1.00, 606.1, 153.3)">]</text></g></svg>