<?xml version="1.0" encoding="UTF-8" standalone="no"?><svg xmlns="http://www.w3.org/2000/svg" xmlns:xlink="http://www.w3.org/1999/xlink" clip-rule="evenodd" stroke-miterlimit="10" viewBox="0 0 1024 768"><desc>SVG generated by Keynote</desc><defs></defs><g transform="matrix(1.00, 0.00, -0.00, -1.00, 0.0, 768.0)"><path d="M 0.0 768.0 L 1024.0 768.0 L 1024.0 0.0 L 0.0 0.0 Z M 0.0 768.0 " fill="#000000"></path><text xml:space="preserve" font-family="LucidaGrande,Lucida Grande" font-size="22.0" fill="#FEFFFE" transform="matrix(1.00, 0.00, -0.00, -1.00, 332.4, 11.6)">F</text><text xml:space="preserve" font-family="LucidaGrande,Lucida Grande" font-size="22.0" fill="#FEFFFE" transform="matrix(1.00, 0.00, -0.00, -1.00, 344.2, 11.6)">e</text><text xml:space="preserve" font-family="LucidaGrande,Lucida Grande" font-size="22.0" fill="#FEFFFE" transform="matrix(1.00, 0.00, -0.00, -1.00, 356.4, 11.6)">e</text><text xml:space="preserve" font-family="LucidaGrande,Lucida Grande" font-size="22.0" fill="#FEFFFE" transform="matrix(1.00, 0.00, -0.00, -1.00, 368.7, 11.6)">d</text><text xml:space="preserve" font-family="LucidaGrande,Lucida Grande" font-size="22.0" fill="#FEFFFE" transform="matrix(1.00, 0.00, -0.00, -1.00, 382.5, 11.6)">b</text><text xml:space="preserve" font-family="LucidaGrande,Lucida Grande" font-size="22.0" fill="#FEFFFE" transform="matrix(1.00, 0.00, -0.00, -1.00, 396.4, 11.6)">a</text><text xml:space="preserve" font-family="LucidaGrande,Lucida Grande" font-size="22.0" fill="#FEFFFE" transform="matrix(1.00, 0.00, -0.00, -1.00, 408.5, 11.6)">c</text><text xml:space="preserve" font-family="LucidaGrande,Lucida Grande" font-size="22.0" fill="#FEFFFE" transform="matrix(1.00, 0.00, -0.00, -1.00, 419.8, 11.6)">k</text><text xml:space="preserve" font-family="LucidaGrande,Lucida Grande" font-size="22.0" fill="#FEFFFE" transform="matrix(1.00, 0.00, -0.00, -1.00, 432.7, 11.6)">:</text><text xml:space="preserve" font-family="LucidaGrande,Lucida Grande" font-size="22.0" fill="#FEFFFE" transform="matrix(1.00, 0.00, -0.00, -1.00, 439.6, 11.6)"> </text><text xml:space="preserve" font-family="LucidaGrande,Lucida Grande" font-size="22.0" fill="#FEFFFE" transform="matrix(1.00, 0.00, -0.00, -1.00, 446.6, 11.6)">h</text><text xml:space="preserve" font-family="LucidaGrande,Lucida Grande" font-size="22.0" fill="#FEFFFE" transform="matrix(1.00, 0.00, -0.00, -1.00, 460.2, 11.6)">t</text><text xml:space="preserve" font-family="LucidaGrande,Lucida Grande" font-size="22.0" fill="#FEFFFE" transform="matrix(1.00, 0.00, -0.00, -1.00, 468.4, 11.6)">t</text><text xml:space="preserve" font-family="LucidaGrande,Lucida Grande" font-size="22.0" fill="#FEFFFE" transform="matrix(1.00, 0.00, -0.00, -1.00, 476.7, 11.6)">p</text><text xml:space="preserve" font-family="LucidaGrande,Lucida Grande" font-size="22.0" fill="#FEFFFE" transform="matrix(1.00, 0.00, -0.00, -1.00, 490.5, 11.6)">:</text><text xml:space="preserve" font-family="LucidaGrande,Lucida Grande" font-size="22.0" fill="#FEFFFE" transform="matrix(1.00, 0.00, -0.00, -1.00, 497.5, 11.6)">/</text><text xml:space="preserve" font-family="LucidaGrande,Lucida Grande" font-size="22.0" fill="#FEFFFE" transform="matrix(1.00, 0.00, -0.00, -1.00, 509.0, 11.6)">/</text><text xml:space="preserve" font-family="LucidaGrande,Lucida Grande" font-size="22.0" fill="#FEFFFE" transform="matrix(1.00, 0.00, -0.00, -1.00, 520.6, 11.6)">j</text><text xml:space="preserve" font-family="LucidaGrande,Lucida Grande" font-size="22.0" fill="#FEFFFE" transform="matrix(1.00, 0.00, -0.00, -1.00, 527.3, 11.6)">.</text><text xml:space="preserve" font-family="LucidaGrande,Lucida Grande" font-size="22.0" fill="#FEFFFE" transform="matrix(1.00, 0.00, -0.00, -1.00, 534.3, 11.6)">m</text><text xml:space="preserve" font-family="LucidaGrande,Lucida Grande" font-size="22.0" fill="#FEFFFE" transform="matrix(1.00, 0.00, -0.00, -1.00, 554.8, 11.6)">p</text><text xml:space="preserve" font-family="LucidaGrande,Lucida Grande" font-size="22.0" fill="#FEFFFE" transform="matrix(1.00, 0.00, -0.00, -1.00, 568.6, 11.6)">/</text><text xml:space="preserve" font-family="LucidaGrande,Lucida Grande" font-size="22.0" fill="#FEFFFE" transform="matrix(1.00, 0.00, -0.00, -1.00, 580.2, 11.6)">p</text><text xml:space="preserve" font-family="LucidaGrande,Lucida Grande" font-size="22.0" fill="#FEFFFE" transform="matrix(1.00, 0.00, -0.00, -1.00, 594.0, 11.6)">s</text><text xml:space="preserve" font-family="LucidaGrande,Lucida Grande" font-size="22.0" fill="#FEFFFE" transform="matrix(1.00, 0.00, -0.00, -1.00, 605.3, 11.6)">u</text><text xml:space="preserve" font-family="LucidaGrande,Lucida Grande" font-size="22.0" fill="#FEFFFE" transform="matrix(1.00, 0.00, -0.00, -1.00, 618.9, 11.6)">m</text><text xml:space="preserve" font-family="LucidaGrande,Lucida Grande" font-size="22.0" fill="#FEFFFE" transform="matrix(1.00, 0.00, -0.00, -1.00, 639.4, 11.6)">a</text><text xml:space="preserve" font-family="LucidaGrande,Lucida Grande" font-size="22.0" fill="#FEFFFE" transform="matrix(1.00, 0.00, -0.00, -1.00, 651.6, 11.6)">c</text><text xml:space="preserve" font-family="LucidaGrande,Lucida Grande" font-size="22.0" fill="#FEFFFE" transform="matrix(1.00, 0.00, -0.00, -1.00, 662.9, 11.6)">1</text><text xml:space="preserve" font-family="LucidaGrande,Lucida Grande" font-size="22.0" fill="#FEFFFE" transform="matrix(1.00, 0.00, -0.00, -1.00, 676.8, 11.6)">3</text><text xml:space="preserve" font-family="Monaco,Monaco" font-size="84.0" fill="#FEFFFF" transform="matrix(1.00, 0.00, -0.00, -1.00, 159.1, 620.0)">S</text><text xml:space="preserve" font-family="Monaco,Monaco" font-size="84.0" fill="#FEFFFF" transform="matrix(1.00, 0.00, -0.00, -1.00, 209.6, 620.0)">c</text><text xml:space="preserve" font-family="Monaco,Monaco" font-size="84.0" fill="#FEFFFF" transform="matrix(1.00, 0.00, -0.00, -1.00, 260.0, 620.0)">r</text><text xml:space="preserve" font-family="Monaco,Monaco" font-size="84.0" fill="#FEFFFF" transform="matrix(1.00, 0.00, -0.00, -1.00, 310.4, 620.0)">i</text><text xml:space="preserve" font-family="Monaco,Monaco" font-size="84.0" fill="#FEFFFF" transform="matrix(1.00, 0.00, -0.00, -1.00, 360.8, 620.0)">p</text><text xml:space="preserve" font-family="Monaco,Monaco" font-size="84.0" fill="#FEFFFF" transform="matrix(1.00, 0.00, -0.00, -1.00, 411.2, 620.0)">t</text><text xml:space="preserve" font-family="Monaco,Monaco" font-size="84.0" fill="#FEFFFF" transform="matrix(1.00, 0.00, -0.00, -1.00, 461.6, 620.0)"> </text><text xml:space="preserve" font-family="Monaco,Monaco" font-size="84.0" fill="#FEFFFF" transform="matrix(1.00, 0.00, -0.00, -1.00, 512.1, 620.0)">E</text><text xml:space="preserve" font-family="Monaco,Monaco" font-size="84.0" fill="#FEFFFF" transform="matrix(1.00, 0.00, -0.00, -1.00, 562.5, 620.0)">d</text><text xml:space="preserve" font-family="Monaco,Monaco" font-size="84.0" fill="#FEFFFF" transform="matrix(1.00, 0.00, -0.00, -1.00, 612.9, 620.0)">i</text><text xml:space="preserve" font-family="Monaco,Monaco" font-size="84.0" fill="#FEFFFF" transform="matrix(1.00, 0.00, -0.00, -1.00, 663.3, 620.0)">t</text><text xml:space="preserve" font-family="Monaco,Monaco" font-size="84.0" fill="#FEFFFF" transform="matrix(1.00, 0.00, -0.00, -1.00, 713.7, 620.0)">o</text><text xml:space="preserve" font-family="Monaco,Monaco" font-size="84.0" fill="#FEFFFF" transform="matrix(1.00, 0.00, -0.00, -1.00, 764.1, 620.0)">r</text><text xml:space="preserve" font-family="Monaco,Monaco" font-size="84.0" fill="#FEFFFF" transform="matrix(1.00, 0.00, -0.00, -1.00, 814.6, 620.0)">s</text><text xml:space="preserve" font-family="Monaco,Monaco" font-size="38.1" fill="#FEFFFF" transform="matrix(1.00, 0.00, -0.00, -1.00, 129.0, 512.4)">•</text><text xml:space="preserve" font-family="Monaco,Monaco" font-size="30.0" fill="#FEFFFF" transform="matrix(1.00, 0.00, -0.00, -1.00, 167.9, 515.0)">G</text><text xml:space="preserve" font-family="Monaco,Monaco" font-size="30.0" fill="#FEFFFF" transform="matrix(1.00, 0.00, -0.00, -1.00, 186.0, 515.0)">U</text><text xml:space="preserve" font-family="Monaco,Monaco" font-size="30.0" fill="#FEFFFF" transform="matrix(1.00, 0.00, -0.00, -1.00, 204.0, 515.0)">I</text><text xml:space="preserve" font-family="Monaco,Monaco" font-size="30.0" fill="#FEFFFF" transform="matrix(1.00, 0.00, -0.00, -1.00, 222.0, 515.0)">	</text><text xml:space="preserve" font-family="Monaco,Monaco" font-size="38.1" fill="#FEFFFF" transform="matrix(1.00, 0.00, -0.00, -1.00, 164.0, 433.4)">•</text><text xml:space="preserve" font-family="Monaco,Monaco" font-size="30.0" fill="#FEFFFF" transform="matrix(1.00, 0.00, -0.00, -1.00, 202.9, 436.0)">T</text><text xml:space="preserve" font-family="Monaco,Monaco" font-size="30.0" fill="#FEFFFF" transform="matrix(1.00, 0.00, -0.00, -1.00, 221.0, 436.0)">e</text><text xml:space="preserve" font-family="Monaco,Monaco" font-size="30.0" fill="#FEFFFF" transform="matrix(1.00, 0.00, -0.00, -1.00, 239.0, 436.0)">x</text><text xml:space="preserve" font-family="Monaco,Monaco" font-size="30.0" fill="#FEFFFF" transform="matrix(1.00, 0.00, -0.00, -1.00, 257.0, 436.0)">t</text><text xml:space="preserve" font-family="Monaco,Monaco" font-size="30.0" fill="#FEFFFF" transform="matrix(1.00, 0.00, -0.00, -1.00, 275.0, 436.0)">M</text><text xml:space="preserve" font-family="Monaco,Monaco" font-size="30.0" fill="#FEFFFF" transform="matrix(1.00, 0.00, -0.00, -1.00, 293.0, 436.0)">a</text><text xml:space="preserve" font-family="Monaco,Monaco" font-size="30.0" fill="#FEFFFF" transform="matrix(1.00, 0.00, -0.00, -1.00, 311.0, 436.0)">t</text><text xml:space="preserve" font-family="Monaco,Monaco" font-size="30.0" fill="#FEFFFF" transform="matrix(1.00, 0.00, -0.00, -1.00, 329.0, 436.0)">e</text><text xml:space="preserve" font-family="Monaco,Monaco" font-size="30.0" fill="#FEFFFF" transform="matrix(1.00, 0.00, -0.00, -1.00, 347.0, 436.0)">	</text><text xml:space="preserve" font-family="Monaco,Monaco" font-size="38.1" fill="#FEFFFF" transform="matrix(1.00, 0.00, -0.00, -1.00, 164.0, 354.4)">•</text><text xml:space="preserve" font-family="Monaco,Monaco" font-size="30.0" fill="#FEFFFF" transform="matrix(1.00, 0.00, -0.00, -1.00, 202.9, 357.0)">B</text><text xml:space="preserve" font-family="Monaco,Monaco" font-size="30.0" fill="#FEFFFF" transform="matrix(1.00, 0.00, -0.00, -1.00, 221.0, 357.0)">B</text><text xml:space="preserve" font-family="Monaco,Monaco" font-size="30.0" fill="#FEFFFF" transform="matrix(1.00, 0.00, -0.00, -1.00, 239.0, 357.0)">E</text><text xml:space="preserve" font-family="Monaco,Monaco" font-size="30.0" fill="#FEFFFF" transform="matrix(1.00, 0.00, -0.00, -1.00, 257.0, 357.0)">d</text><text xml:space="preserve" font-family="Monaco,Monaco" font-size="30.0" fill="#FEFFFF" transform="matrix(1.00, 0.00, -0.00, -1.00, 275.0, 357.0)">i</text><text xml:space="preserve" font-family="Monaco,Monaco" font-size="30.0" fill="#FEFFFF" transform="matrix(1.00, 0.00, -0.00, -1.00, 293.0, 357.0)">t</text><text xml:space="preserve" font-family="Monaco,Monaco" font-size="30.0" fill="#FEFFFF" transform="matrix(1.00, 0.00, -0.00, -1.00, 311.0, 357.0)">	</text><text xml:space="preserve" font-family="Monaco,Monaco" font-size="38.1" fill="#FEFFFF" transform="matrix(1.00, 0.00, -0.00, -1.00, 164.0, 275.4)">•</text><text xml:space="preserve" font-family="Monaco,Monaco" font-size="30.0" fill="#FEFFFF" transform="matrix(1.00, 0.00, -0.00, -1.00, 202.9, 278.0)">T</text><text xml:space="preserve" font-family="Monaco,Monaco" font-size="30.0" fill="#FEFFFF" transform="matrix(1.00, 0.00, -0.00, -1.00, 221.0, 278.0)">e</text><text xml:space="preserve" font-family="Monaco,Monaco" font-size="30.0" fill="#FEFFFF" transform="matrix(1.00, 0.00, -0.00, -1.00, 239.0, 278.0)">x</text><text xml:space="preserve" font-family="Monaco,Monaco" font-size="30.0" fill="#FEFFFF" transform="matrix(1.00, 0.00, -0.00, -1.00, 257.0, 278.0)">t</text><text xml:space="preserve" font-family="Monaco,Monaco" font-size="30.0" fill="#FEFFFF" transform="matrix(1.00, 0.00, -0.00, -1.00, 275.0, 278.0)">W</text><text xml:space="preserve" font-family="Monaco,Monaco" font-size="30.0" fill="#FEFFFF" transform="matrix(1.00, 0.00, -0.00, -1.00, 293.0, 278.0)">r</text><text xml:space="preserve" font-family="Monaco,Monaco" font-size="30.0" fill="#FEFFFF" transform="matrix(1.00, 0.00, -0.00, -1.00, 311.0, 278.0)">a</text><text xml:space="preserve" font-family="Monaco,Monaco" font-size="30.0" fill="#FEFFFF" transform="matrix(1.00, 0.00, -0.00, -1.00, 329.0, 278.0)">n</text><text xml:space="preserve" font-family="Monaco,Monaco" font-size="30.0" fill="#FEFFFF" transform="matrix(1.00, 0.00, -0.00, -1.00, 347.0, 278.0)">g</text><text xml:space="preserve" font-family="Monaco,Monaco" font-size="30.0" fill="#FEFFFF" transform="matrix(1.00, 0.00, -0.00, -1.00, 365.0, 278.0)">l</text><text xml:space="preserve" font-family="Monaco,Monaco" font-size="30.0" fill="#FEFFFF" transform="matrix(1.00, 0.00, -0.00, -1.00, 383.0, 278.0)">e</text><text xml:space="preserve" font-family="Monaco,Monaco" font-size="30.0" fill="#FEFFFF" transform="matrix(1.00, 0.00, -0.00, -1.00, 401.0, 278.0)">r</text><text xml:space="preserve" font-family="Monaco,Monaco" font-size="30.0" fill="#FEFFFF" transform="matrix(1.00, 0.00, -0.00, -1.00, 419.0, 278.0)">	</text><text xml:space="preserve" font-family="Monaco,Monaco" font-size="38.1" fill="#FEFFFF" transform="matrix(1.00, 0.00, -0.00, -1.00, 557.4, 512.4)">•</text><text xml:space="preserve" font-family="Monaco,Monaco" font-size="30.0" fill="#FEFFFF" transform="matrix(1.00, 0.00, -0.00, -1.00, 596.3, 515.0)">C</text><text xml:space="preserve" font-family="Monaco,Monaco" font-size="30.0" fill="#FEFFFF" transform="matrix(1.00, 0.00, -0.00, -1.00, 614.4, 515.0)">L</text><text xml:space="preserve" font-family="Monaco,Monaco" font-size="30.0" fill="#FEFFFF" transform="matrix(1.00, 0.00, -0.00, -1.00, 632.4, 515.0)">I</text><text xml:space="preserve" font-family="Monaco,Monaco" font-size="30.0" fill="#FEFFFF" transform="matrix(1.00, 0.00, -0.00, -1.00, 650.4, 515.0)">	</text><text xml:space="preserve" font-family="Monaco,Monaco" font-size="38.1" fill="#FEFFFF" transform="matrix(1.00, 0.00, -0.00, -1.00, 592.4, 433.4)">•</text><text xml:space="preserve" font-family="Monaco,Monaco" font-size="30.0" fill="#FEFFFF" transform="matrix(1.00, 0.00, -0.00, -1.00, 631.3, 436.0)">v</text><text xml:space="preserve" font-family="Monaco,Monaco" font-size="30.0" fill="#FEFFFF" transform="matrix(1.00, 0.00, -0.00, -1.00, 649.4, 436.0)">i</text><text xml:space="preserve" font-family="Monaco,Monaco" font-size="30.0" fill="#FEFFFF" transform="matrix(1.00, 0.00, -0.00, -1.00, 667.4, 436.0)">	</text><text xml:space="preserve" font-family="Monaco,Monaco" font-size="38.1" fill="#FEFFFF" transform="matrix(1.00, 0.00, -0.00, -1.00, 592.4, 354.4)">•</text><text xml:space="preserve" font-family="Monaco,Monaco" font-size="30.0" fill="#FEFFFF" transform="matrix(1.00, 0.00, -0.00, -1.00, 631.3, 357.0)">e</text><text xml:space="preserve" font-family="Monaco,Monaco" font-size="30.0" fill="#FEFFFF" transform="matrix(1.00, 0.00, -0.00, -1.00, 649.4, 357.0)">m</text><text xml:space="preserve" font-family="Monaco,Monaco" font-size="30.0" fill="#FEFFFF" transform="matrix(1.00, 0.00, -0.00, -1.00, 667.4, 357.0)">a</text><text xml:space="preserve" font-family="Monaco,Monaco" font-size="30.0" fill="#FEFFFF" transform="matrix(1.00, 0.00, -0.00, -1.00, 685.4, 357.0)">c</text><text xml:space="preserve" font-family="Monaco,Monaco" font-size="30.0" fill="#FEFFFF" transform="matrix(1.00, 0.00, -0.00, -1.00, 703.4, 357.0)">s</text><text xml:space="preserve" font-family="Monaco,Monaco" font-size="30.0" fill="#FEFFFF" transform="matrix(1.00, 0.00, -0.00, -1.00, 721.4, 357.0)">	</text><text xml:space="preserve" font-family="Monaco,Monaco" font-size="38.1" fill="#FEFFFF" transform="matrix(1.00, 0.00, -0.00, -1.00, 592.4, 275.4)">•</text><text xml:space="preserve" font-family="Monaco,Monaco" font-size="30.0" fill="#FEFFFF" transform="matrix(1.00, 0.00, -0.00, -1.00, 631.3, 278.0)">p</text><text xml:space="preserve" font-family="Monaco,Monaco" font-size="30.0" fill="#FEFFFF" transform="matrix(1.00, 0.00, -0.00, -1.00, 649.4, 278.0)">i</text><text xml:space="preserve" font-family="Monaco,Monaco" font-size="30.0" fill="#FEFFFF" transform="matrix(1.00, 0.00, -0.00, -1.00, 667.4, 278.0)">c</text><text xml:space="preserve" font-family="Monaco,Monaco" font-size="30.0" fill="#FEFFFF" transform="matrix(1.00, 0.00, -0.00, -1.00, 685.4, 278.0)">o</text><text xml:space="preserve" font-family="Monaco,Monaco" font-size="30.0" fill="#FEFFFF" transform="matrix(1.00, 0.00, -0.00, -1.00, 703.4, 278.0)">/</text><text xml:space="preserve" font-family="Monaco,Monaco" font-size="30.0" fill="#FEFFFF" transform="matrix(1.00, 0.00, -0.00, -1.00, 721.4, 278.0)">n</text><text xml:space="preserve" font-family="Monaco,Monaco" font-size="30.0" fill="#FEFFFF" transform="matrix(1.00, 0.00, -0.00, -1.00, 739.4, 278.0)">a</text><text xml:space="preserve" font-family="Monaco,Monaco" font-size="30.0" fill="#FEFFFF" transform="matrix(1.00, 0.00, -0.00, -1.00, 757.4, 278.0)">n</text><text xml:space="preserve" font-family="Monaco,Monaco" font-size="30.0" fill="#FEFFFF" transform="matrix(1.00, 0.00, -0.00, -1.00, 775.4, 278.0)">o</text></g></svg>