<?xml version="1.0" encoding="UTF-8" standalone="no"?><svg xmlns="http://www.w3.org/2000/svg" xmlns:xlink="http://www.w3.org/1999/xlink" clip-rule="evenodd" stroke-miterlimit="10" viewBox="0 0 1024 768"><desc>SVG generated by Keynote</desc><defs></defs><g transform="matrix(1.00, 0.00, -0.00, -1.00, 0.0, 768.0)"><path d="M 0.0 768.0 L 1024.0 768.0 L 1024.0 0.0 L 0.0 0.0 Z M 0.0 768.0 " fill="#000000"></path><text xml:space="preserve" font-family="LucidaGrande,Lucida Grande" font-size="22.0" fill="#FEFFFE" transform="matrix(1.00, 0.00, -0.00, -1.00, 332.4, 11.6)">F</text><text xml:space="preserve" font-family="LucidaGrande,Lucida Grande" font-size="22.0" fill="#FEFFFE" transform="matrix(1.00, 0.00, -0.00, -1.00, 344.2, 11.6)">e</text><text xml:space="preserve" font-family="LucidaGrande,Lucida Grande" font-size="22.0" fill="#FEFFFE" transform="matrix(1.00, 0.00, -0.00, -1.00, 356.4, 11.6)">e</text><text xml:space="preserve" font-family="LucidaGrande,Lucida Grande" font-size="22.0" fill="#FEFFFE" transform="matrix(1.00, 0.00, -0.00, -1.00, 368.7, 11.6)">d</text><text xml:space="preserve" font-family="LucidaGrande,Lucida Grande" font-size="22.0" fill="#FEFFFE" transform="matrix(1.00, 0.00, -0.00, -1.00, 382.5, 11.6)">b</text><text xml:space="preserve" font-family="LucidaGrande,Lucida Grande" font-size="22.0" fill="#FEFFFE" transform="matrix(1.00, 0.00, -0.00, -1.00, 396.4, 11.6)">a</text><text xml:space="preserve" font-family="LucidaGrande,Lucida Grande" font-size="22.0" fill="#FEFFFE" transform="matrix(1.00, 0.00, -0.00, -1.00, 408.5, 11.6)">c</text><text xml:space="preserve" font-family="LucidaGrande,Lucida Grande" font-size="22.0" fill="#FEFFFE" transform="matrix(1.00, 0.00, -0.00, -1.00, 419.8, 11.6)">k</text><text xml:space="preserve" font-family="LucidaGrande,Lucida Grande" font-size="22.0" fill="#FEFFFE" transform="matrix(1.00, 0.00, -0.00, -1.00, 432.7, 11.6)">:</text><text xml:space="preserve" font-family="LucidaGrande,Lucida Grande" font-size="22.0" fill="#FEFFFE" transform="matrix(1.00, 0.00, -0.00, -1.00, 439.6, 11.6)"> </text><text xml:space="preserve" font-family="LucidaGrande,Lucida Grande" font-size="22.0" fill="#FEFFFE" transform="matrix(1.00, 0.00, -0.00, -1.00, 446.6, 11.6)">h</text><text xml:space="preserve" font-family="LucidaGrande,Lucida Grande" font-size="22.0" fill="#FEFFFE" transform="matrix(1.00, 0.00, -0.00, -1.00, 460.2, 11.6)">t</text><text xml:space="preserve" font-family="LucidaGrande,Lucida Grande" font-size="22.0" fill="#FEFFFE" transform="matrix(1.00, 0.00, -0.00, -1.00, 468.4, 11.6)">t</text><text xml:space="preserve" font-family="LucidaGrande,Lucida Grande" font-size="22.0" fill="#FEFFFE" transform="matrix(1.00, 0.00, -0.00, -1.00, 476.7, 11.6)">p</text><text xml:space="preserve" font-family="LucidaGrande,Lucida Grande" font-size="22.0" fill="#FEFFFE" transform="matrix(1.00, 0.00, -0.00, -1.00, 490.5, 11.6)">:</text><text xml:space="preserve" font-family="LucidaGrande,Lucida Grande" font-size="22.0" fill="#FEFFFE" transform="matrix(1.00, 0.00, -0.00, -1.00, 497.5, 11.6)">/</text><text xml:space="preserve" font-family="LucidaGrande,Lucida Grande" font-size="22.0" fill="#FEFFFE" transform="matrix(1.00, 0.00, -0.00, -1.00, 509.0, 11.6)">/</text><text xml:space="preserve" font-family="LucidaGrande,Lucida Grande" font-size="22.0" fill="#FEFFFE" transform="matrix(1.00, 0.00, -0.00, -1.00, 520.6, 11.6)">j</text><text xml:space="preserve" font-family="LucidaGrande,Lucida Grande" font-size="22.0" fill="#FEFFFE" transform="matrix(1.00, 0.00, -0.00, -1.00, 527.3, 11.6)">.</text><text xml:space="preserve" font-family="LucidaGrande,Lucida Grande" font-size="22.0" fill="#FEFFFE" transform="matrix(1.00, 0.00, -0.00, -1.00, 534.3, 11.6)">m</text><text xml:space="preserve" font-family="LucidaGrande,Lucida Grande" font-size="22.0" fill="#FEFFFE" transform="matrix(1.00, 0.00, -0.00, -1.00, 554.8, 11.6)">p</text><text xml:space="preserve" font-family="LucidaGrande,Lucida Grande" font-size="22.0" fill="#FEFFFE" transform="matrix(1.00, 0.00, -0.00, -1.00, 568.6, 11.6)">/</text><text xml:space="preserve" font-family="LucidaGrande,Lucida Grande" font-size="22.0" fill="#FEFFFE" transform="matrix(1.00, 0.00, -0.00, -1.00, 580.2, 11.6)">p</text><text xml:space="preserve" font-family="LucidaGrande,Lucida Grande" font-size="22.0" fill="#FEFFFE" transform="matrix(1.00, 0.00, -0.00, -1.00, 594.0, 11.6)">s</text><text xml:space="preserve" font-family="LucidaGrande,Lucida Grande" font-size="22.0" fill="#FEFFFE" transform="matrix(1.00, 0.00, -0.00, -1.00, 605.3, 11.6)">u</text><text xml:space="preserve" font-family="LucidaGrande,Lucida Grande" font-size="22.0" fill="#FEFFFE" transform="matrix(1.00, 0.00, -0.00, -1.00, 618.9, 11.6)">m</text><text xml:space="preserve" font-family="LucidaGrande,Lucida Grande" font-size="22.0" fill="#FEFFFE" transform="matrix(1.00, 0.00, -0.00, -1.00, 639.4, 11.6)">a</text><text xml:space="preserve" font-family="LucidaGrande,Lucida Grande" font-size="22.0" fill="#FEFFFE" transform="matrix(1.00, 0.00, -0.00, -1.00, 651.6, 11.6)">c</text><text xml:space="preserve" font-family="LucidaGrande,Lucida Grande" font-size="22.0" fill="#FEFFFE" transform="matrix(1.00, 0.00, -0.00, -1.00, 662.9, 11.6)">1</text><text xml:space="preserve" font-family="LucidaGrande,Lucida Grande" font-size="22.0" fill="#FEFFFE" transform="matrix(1.00, 0.00, -0.00, -1.00, 676.8, 11.6)">3</text><text xml:space="preserve" font-family="Monaco,Monaco" font-size="84.0" fill="#FEFFFF" transform="matrix(1.00, 0.00, -0.00, -1.00, 234.8, 616.0)">P</text><text xml:space="preserve" font-family="Monaco,Monaco" font-size="84.0" fill="#FEFFFF" transform="matrix(1.00, 0.00, -0.00, -1.00, 285.2, 616.0)">e</text><text xml:space="preserve" font-family="Monaco,Monaco" font-size="84.0" fill="#FEFFFF" transform="matrix(1.00, 0.00, -0.00, -1.00, 335.6, 616.0)">r</text><text xml:space="preserve" font-family="Monaco,Monaco" font-size="84.0" fill="#FEFFFF" transform="matrix(1.00, 0.00, -0.00, -1.00, 386.0, 616.0)">m</text><text xml:space="preserve" font-family="Monaco,Monaco" font-size="84.0" fill="#FEFFFF" transform="matrix(1.00, 0.00, -0.00, -1.00, 436.4, 616.0)">i</text><text xml:space="preserve" font-family="Monaco,Monaco" font-size="84.0" fill="#FEFFFF" transform="matrix(1.00, 0.00, -0.00, -1.00, 486.8, 616.0)">s</text><text xml:space="preserve" font-family="Monaco,Monaco" font-size="84.0" fill="#FEFFFF" transform="matrix(1.00, 0.00, -0.00, -1.00, 537.3, 616.0)">s</text><text xml:space="preserve" font-family="Monaco,Monaco" font-size="84.0" fill="#FEFFFF" transform="matrix(1.00, 0.00, -0.00, -1.00, 587.7, 616.0)">i</text><text xml:space="preserve" font-family="Monaco,Monaco" font-size="84.0" fill="#FEFFFF" transform="matrix(1.00, 0.00, -0.00, -1.00, 638.1, 616.0)">o</text><text xml:space="preserve" font-family="Monaco,Monaco" font-size="84.0" fill="#FEFFFF" transform="matrix(1.00, 0.00, -0.00, -1.00, 688.5, 616.0)">n</text><text xml:space="preserve" font-family="Monaco,Monaco" font-size="84.0" fill="#FEFFFF" transform="matrix(1.00, 0.00, -0.00, -1.00, 738.9, 616.0)">s</text><text xml:space="preserve" font-family="Monaco,Monaco" font-size="40.0" fill="#FEFFFF" transform="matrix(1.00, 0.00, -0.00, -1.00, 116.0, 493.3)">•</text><text xml:space="preserve" font-family="Monaco,Monaco" font-size="40.0" fill="#FEFFFF" transform="matrix(1.00, 0.00, -0.00, -1.00, 161.0, 493.3)">L</text><text xml:space="preserve" font-family="Monaco,Monaco" font-size="40.0" fill="#FEFFFF" transform="matrix(1.00, 0.00, -0.00, -1.00, 185.0, 493.3)">i</text><text xml:space="preserve" font-family="Monaco,Monaco" font-size="40.0" fill="#FEFFFF" transform="matrix(1.00, 0.00, -0.00, -1.00, 209.0, 493.3)">s</text><text xml:space="preserve" font-family="Monaco,Monaco" font-size="40.0" fill="#FEFFFF" transform="matrix(1.00, 0.00, -0.00, -1.00, 233.0, 493.3)">t</text><text xml:space="preserve" font-family="Monaco,Monaco" font-size="40.0" fill="#FEFFFF" transform="matrix(1.00, 0.00, -0.00, -1.00, 257.0, 493.3)"> </text><text xml:space="preserve" font-family="Monaco,Monaco" font-size="40.0" fill="#FEFFFF" transform="matrix(1.00, 0.00, -0.00, -1.00, 281.0, 493.3)">t</text><text xml:space="preserve" font-family="Monaco,Monaco" font-size="40.0" fill="#FEFFFF" transform="matrix(1.00, 0.00, -0.00, -1.00, 305.0, 493.3)">h</text><text xml:space="preserve" font-family="Monaco,Monaco" font-size="40.0" fill="#FEFFFF" transform="matrix(1.00, 0.00, -0.00, -1.00, 329.1, 493.3)">e</text><text xml:space="preserve" font-family="Monaco,Monaco" font-size="40.0" fill="#FEFFFF" transform="matrix(1.00, 0.00, -0.00, -1.00, 353.1, 493.3)"> </text><text xml:space="preserve" font-family="Monaco,Monaco" font-size="40.0" fill="#FEFFFF" transform="matrix(1.00, 0.00, -0.00, -1.00, 377.1, 493.3)">p</text><text xml:space="preserve" font-family="Monaco,Monaco" font-size="40.0" fill="#FEFFFF" transform="matrix(1.00, 0.00, -0.00, -1.00, 401.1, 493.3)">e</text><text xml:space="preserve" font-family="Monaco,Monaco" font-size="40.0" fill="#FEFFFF" transform="matrix(1.00, 0.00, -0.00, -1.00, 425.1, 493.3)">r</text><text xml:space="preserve" font-family="Monaco,Monaco" font-size="40.0" fill="#FEFFFF" transform="matrix(1.00, 0.00, -0.00, -1.00, 449.1, 493.3)">m</text><text xml:space="preserve" font-family="Monaco,Monaco" font-size="40.0" fill="#FEFFFF" transform="matrix(1.00, 0.00, -0.00, -1.00, 473.1, 493.3)">i</text><text xml:space="preserve" font-family="Monaco,Monaco" font-size="40.0" fill="#FEFFFF" transform="matrix(1.00, 0.00, -0.00, -1.00, 497.1, 493.3)">s</text><text xml:space="preserve" font-family="Monaco,Monaco" font-size="40.0" fill="#FEFFFF" transform="matrix(1.00, 0.00, -0.00, -1.00, 521.1, 493.3)">s</text><text xml:space="preserve" font-family="Monaco,Monaco" font-size="40.0" fill="#FEFFFF" transform="matrix(1.00, 0.00, -0.00, -1.00, 545.1, 493.3)">i</text><text xml:space="preserve" font-family="Monaco,Monaco" font-size="40.0" fill="#FEFFFF" transform="matrix(1.00, 0.00, -0.00, -1.00, 569.1, 493.3)">o</text><text xml:space="preserve" font-family="Monaco,Monaco" font-size="40.0" fill="#FEFFFF" transform="matrix(1.00, 0.00, -0.00, -1.00, 593.1, 493.3)">n</text><text xml:space="preserve" font-family="Monaco,Monaco" font-size="40.0" fill="#FEFFFF" transform="matrix(1.00, 0.00, -0.00, -1.00, 617.1, 493.3)">s</text><text xml:space="preserve" font-family="Monaco,Monaco" font-size="40.0" fill="#FEFFFF" transform="matrix(1.00, 0.00, -0.00, -1.00, 641.2, 493.3)">:</text><text xml:space="preserve" font-family="Monaco,Monaco" font-size="40.0" fill="#FEFFFF" transform="matrix(1.00, 0.00, -0.00, -1.00, 665.2, 493.3)"> </text><text xml:space="preserve" font-family="Monaco,Monaco" font-size="40.0" fill="#FEFFFF" transform="matrix(1.00, 0.00, -0.00, -1.00, 689.2, 493.3)">l</text><text xml:space="preserve" font-family="Monaco,Monaco" font-size="40.0" fill="#FEFFFF" transform="matrix(1.00, 0.00, -0.00, -1.00, 713.2, 493.3)">s</text><text xml:space="preserve" font-family="Monaco,Monaco" font-size="40.0" fill="#FEFFFF" transform="matrix(1.00, 0.00, -0.00, -1.00, 737.2, 493.3)"> </text><text xml:space="preserve" font-family="Monaco,Monaco" font-size="40.0" fill="#FEFFFF" transform="matrix(1.00, 0.00, -0.00, -1.00, 761.2, 493.3)">-</text><text xml:space="preserve" font-family="Monaco,Monaco" font-size="40.0" fill="#FEFFFF" transform="matrix(1.00, 0.00, -0.00, -1.00, 785.2, 493.3)">l</text><text xml:space="preserve" font-family="Monaco,Monaco" font-size="40.0" fill="#FEFFFF" transform="matrix(1.00, 0.00, -0.00, -1.00, 809.2, 493.3)">	</text><text xml:space="preserve" font-family="Monaco,Monaco" font-size="40.0" fill="#FEFFFF" transform="matrix(1.00, 0.00, -0.00, -1.00, 116.0, 416.3)">•</text><text xml:space="preserve" font-family="Monaco,Monaco" font-size="40.0" fill="#FEFFFF" transform="matrix(1.00, 0.00, -0.00, -1.00, 161.0, 416.3)">C</text><text xml:space="preserve" font-family="Monaco,Monaco" font-size="40.0" fill="#FEFFFF" transform="matrix(1.00, 0.00, -0.00, -1.00, 185.0, 416.3)">h</text><text xml:space="preserve" font-family="Monaco,Monaco" font-size="40.0" fill="#FEFFFF" transform="matrix(1.00, 0.00, -0.00, -1.00, 209.0, 416.3)">a</text><text xml:space="preserve" font-family="Monaco,Monaco" font-size="40.0" fill="#FEFFFF" transform="matrix(1.00, 0.00, -0.00, -1.00, 233.0, 416.3)">n</text><text xml:space="preserve" font-family="Monaco,Monaco" font-size="40.0" fill="#FEFFFF" transform="matrix(1.00, 0.00, -0.00, -1.00, 257.0, 416.3)">g</text><text xml:space="preserve" font-family="Monaco,Monaco" font-size="40.0" fill="#FEFFFF" transform="matrix(1.00, 0.00, -0.00, -1.00, 281.0, 416.3)">e</text><text xml:space="preserve" font-family="Monaco,Monaco" font-size="40.0" fill="#FEFFFF" transform="matrix(1.00, 0.00, -0.00, -1.00, 305.0, 416.3)"> </text><text xml:space="preserve" font-family="Monaco,Monaco" font-size="40.0" fill="#FEFFFF" transform="matrix(1.00, 0.00, -0.00, -1.00, 329.1, 416.3)">P</text><text xml:space="preserve" font-family="Monaco,Monaco" font-size="40.0" fill="#FEFFFF" transform="matrix(1.00, 0.00, -0.00, -1.00, 353.1, 416.3)">e</text><text xml:space="preserve" font-family="Monaco,Monaco" font-size="40.0" fill="#FEFFFF" transform="matrix(1.00, 0.00, -0.00, -1.00, 377.1, 416.3)">r</text><text xml:space="preserve" font-family="Monaco,Monaco" font-size="40.0" fill="#FEFFFF" transform="matrix(1.00, 0.00, -0.00, -1.00, 401.1, 416.3)">m</text><text xml:space="preserve" font-family="Monaco,Monaco" font-size="40.0" fill="#FEFFFF" transform="matrix(1.00, 0.00, -0.00, -1.00, 425.1, 416.3)">i</text><text xml:space="preserve" font-family="Monaco,Monaco" font-size="40.0" fill="#FEFFFF" transform="matrix(1.00, 0.00, -0.00, -1.00, 449.1, 416.3)">s</text><text xml:space="preserve" font-family="Monaco,Monaco" font-size="40.0" fill="#FEFFFF" transform="matrix(1.00, 0.00, -0.00, -1.00, 473.1, 416.3)">s</text><text xml:space="preserve" font-family="Monaco,Monaco" font-size="40.0" fill="#FEFFFF" transform="matrix(1.00, 0.00, -0.00, -1.00, 497.1, 416.3)">i</text><text xml:space="preserve" font-family="Monaco,Monaco" font-size="40.0" fill="#FEFFFF" transform="matrix(1.00, 0.00, -0.00, -1.00, 521.1, 416.3)">o</text><text xml:space="preserve" font-family="Monaco,Monaco" font-size="40.0" fill="#FEFFFF" transform="matrix(1.00, 0.00, -0.00, -1.00, 545.1, 416.3)">n</text><text xml:space="preserve" font-family="Monaco,Monaco" font-size="40.0" fill="#FEFFFF" transform="matrix(1.00, 0.00, -0.00, -1.00, 569.1, 416.3)">s</text><text xml:space="preserve" font-family="Monaco,Monaco" font-size="40.0" fill="#FEFFFF" transform="matrix(1.00, 0.00, -0.00, -1.00, 593.1, 416.3)">:</text><text xml:space="preserve" font-family="Monaco,Monaco" font-size="40.0" fill="#FEFFFF" transform="matrix(1.00, 0.00, -0.00, -1.00, 617.2, 416.3)"> </text><text xml:space="preserve" font-family="Monaco,Monaco" font-size="40.0" fill="#FEFFFF" transform="matrix(1.00, 0.00, -0.00, -1.00, 161.0, 363.3)"> </text><text xml:space="preserve" font-family="Monaco,Monaco" font-size="40.0" fill="#FEFFFF" transform="matrix(1.00, 0.00, -0.00, -1.00, 185.0, 363.3)"> </text><text xml:space="preserve" font-family="Monaco,Monaco" font-size="40.0" fill="#7ADA45" transform="matrix(1.00, 0.00, -0.00, -1.00, 161.0, 310.3)">c</text><text xml:space="preserve" font-family="Monaco,Monaco" font-size="40.0" fill="#7ADA45" transform="matrix(1.00, 0.00, -0.00, -1.00, 185.0, 310.3)">h</text><text xml:space="preserve" font-family="Monaco,Monaco" font-size="40.0" fill="#7ADA45" transform="matrix(1.00, 0.00, -0.00, -1.00, 209.0, 310.3)">m</text><text xml:space="preserve" font-family="Monaco,Monaco" font-size="40.0" fill="#7ADA45" transform="matrix(1.00, 0.00, -0.00, -1.00, 233.0, 310.3)">o</text><text xml:space="preserve" font-family="Monaco,Monaco" font-size="40.0" fill="#7ADA45" transform="matrix(1.00, 0.00, -0.00, -1.00, 257.0, 310.3)">d</text><text xml:space="preserve" font-family="Monaco,Monaco" font-size="40.0" fill="#FEFFFF" transform="matrix(1.00, 0.00, -0.00, -1.00, 281.0, 310.3)"> </text><text xml:space="preserve" font-family="Monaco,Monaco" font-size="40.0" fill="#1497FC" transform="matrix(1.00, 0.00, -0.00, -1.00, 305.0, 310.3)">f</text><text xml:space="preserve" font-family="Monaco,Monaco" font-size="40.0" fill="#1497FC" transform="matrix(1.00, 0.00, -0.00, -1.00, 329.0, 310.3)">i</text><text xml:space="preserve" font-family="Monaco,Monaco" font-size="40.0" fill="#1497FC" transform="matrix(1.00, 0.00, -0.00, -1.00, 353.0, 310.3)">e</text><text xml:space="preserve" font-family="Monaco,Monaco" font-size="40.0" fill="#1497FC" transform="matrix(1.00, 0.00, -0.00, -1.00, 377.0, 310.3)">l</text><text xml:space="preserve" font-family="Monaco,Monaco" font-size="40.0" fill="#1497FC" transform="matrix(1.00, 0.00, -0.00, -1.00, 401.1, 310.3)">d</text><text xml:space="preserve" font-family="Monaco,Monaco" font-size="40.0" fill="#BC8027" transform="matrix(1.00, 0.00, -0.00, -1.00, 425.0, 310.3)">+</text><text xml:space="preserve" font-family="Monaco,Monaco" font-size="40.0" fill="#BC8027" transform="matrix(1.00, 0.00, -0.00, -1.00, 449.1, 310.3)">-</text><text xml:space="preserve" font-family="Monaco,Monaco" font-size="40.0" fill="#D35854" transform="matrix(1.00, 0.00, -0.00, -1.00, 473.1, 310.3)">b</text><text xml:space="preserve" font-family="Monaco,Monaco" font-size="40.0" fill="#D35854" transform="matrix(1.00, 0.00, -0.00, -1.00, 497.1, 310.3)">i</text><text xml:space="preserve" font-family="Monaco,Monaco" font-size="40.0" fill="#D35854" transform="matrix(1.00, 0.00, -0.00, -1.00, 521.1, 310.3)">t</text><text xml:space="preserve" font-family="Monaco,Monaco" font-size="40.0" fill="#D35854" transform="matrix(1.00, 0.00, -0.00, -1.00, 545.1, 310.3)">(</text><text xml:space="preserve" font-family="Monaco,Monaco" font-size="40.0" fill="#D35854" transform="matrix(1.00, 0.00, -0.00, -1.00, 569.1, 310.3)">s</text><text xml:space="preserve" font-family="Monaco,Monaco" font-size="40.0" fill="#D35854" transform="matrix(1.00, 0.00, -0.00, -1.00, 593.1, 310.3)">)</text><text xml:space="preserve" font-family="Monaco,Monaco" font-size="40.0" fill="#FEFFFF" transform="matrix(1.00, 0.00, -0.00, -1.00, 617.1, 310.3)"> </text><text xml:space="preserve" font-family="Monaco,Monaco" font-size="40.0" fill="#8881F0" transform="matrix(1.00, 0.00, -0.00, -1.00, 641.1, 310.3)">f</text><text xml:space="preserve" font-family="Monaco,Monaco" font-size="40.0" fill="#8881F0" transform="matrix(1.00, 0.00, -0.00, -1.00, 665.1, 310.3)">i</text><text xml:space="preserve" font-family="Monaco,Monaco" font-size="40.0" fill="#8881F0" transform="matrix(1.00, 0.00, -0.00, -1.00, 689.1, 310.3)">l</text><text xml:space="preserve" font-family="Monaco,Monaco" font-size="40.0" fill="#8881F0" transform="matrix(1.00, 0.00, -0.00, -1.00, 713.1, 310.3)">e</text><text xml:space="preserve" font-family="Monaco,Monaco" font-size="40.0" fill="#8881F0" transform="matrix(1.00, 0.00, -0.00, -1.00, 737.1, 310.3)">n</text><text xml:space="preserve" font-family="Monaco,Monaco" font-size="40.0" fill="#8881F0" transform="matrix(1.00, 0.00, -0.00, -1.00, 761.1, 310.3)">a</text><text xml:space="preserve" font-family="Monaco,Monaco" font-size="40.0" fill="#8881F0" transform="matrix(1.00, 0.00, -0.00, -1.00, 785.1, 310.3)">m</text><text xml:space="preserve" font-family="Monaco,Monaco" font-size="40.0" fill="#8881F0" transform="matrix(1.00, 0.00, -0.00, -1.00, 809.1, 310.3)">e</text><text xml:space="preserve" font-family="Monaco,Monaco" font-size="40.0" fill="#FEFA00" transform="matrix(1.00, 0.00, -0.00, -1.00, 833.1, 310.3)">	</text><g><clipPath id="clip0x7f81899c7f20"><path d="M 640.1 306.3 L 833.1 306.3 L 833.1 311.3 L 640.1 311.3 Z M 640.1 306.3 "></path></clipPath><g clip-path="url(#clip0x7f81899c7f20)"><path d="M 554.1 241.2 L 746.1 241.2 " fill="none" stroke="#8881F0" stroke-width="3.03" transform="matrix(1.00, 0.00, 0.00, -1.00, 87.0, 550.0)"></path></g></g><text xml:space="preserve" font-family="Monaco,Monaco" font-size="40.0" fill="#FEFFFF" transform="matrix(1.00, 0.00, -0.00, -1.00, 116.0, 233.3)">•</text><text xml:space="preserve" font-family="Monaco,Monaco" font-size="40.0" fill="#FEFFFF" transform="matrix(1.00, 0.00, -0.00, -1.00, 161.0, 233.3)">C</text><text xml:space="preserve" font-family="Monaco,Monaco" font-size="40.0" fill="#FEFFFF" transform="matrix(1.00, 0.00, -0.00, -1.00, 185.0, 233.3)">h</text><text xml:space="preserve" font-family="Monaco,Monaco" font-size="40.0" fill="#FEFFFF" transform="matrix(1.00, 0.00, -0.00, -1.00, 209.0, 233.3)">a</text><text xml:space="preserve" font-family="Monaco,Monaco" font-size="40.0" fill="#FEFFFF" transform="matrix(1.00, 0.00, -0.00, -1.00, 233.0, 233.3)">n</text><text xml:space="preserve" font-family="Monaco,Monaco" font-size="40.0" fill="#FEFFFF" transform="matrix(1.00, 0.00, -0.00, -1.00, 257.0, 233.3)">g</text><text xml:space="preserve" font-family="Monaco,Monaco" font-size="40.0" fill="#FEFFFF" transform="matrix(1.00, 0.00, -0.00, -1.00, 281.0, 233.3)">e</text><text xml:space="preserve" font-family="Monaco,Monaco" font-size="40.0" fill="#FEFFFF" transform="matrix(1.00, 0.00, -0.00, -1.00, 305.0, 233.3)"> </text><text xml:space="preserve" font-family="Monaco,Monaco" font-size="40.0" fill="#FEFFFF" transform="matrix(1.00, 0.00, -0.00, -1.00, 329.1, 233.3)">O</text><text xml:space="preserve" font-family="Monaco,Monaco" font-size="40.0" fill="#FEFFFF" transform="matrix(1.00, 0.00, -0.00, -1.00, 353.1, 233.3)">w</text><text xml:space="preserve" font-family="Monaco,Monaco" font-size="40.0" fill="#FEFFFF" transform="matrix(1.00, 0.00, -0.00, -1.00, 377.1, 233.3)">n</text><text xml:space="preserve" font-family="Monaco,Monaco" font-size="40.0" fill="#FEFFFF" transform="matrix(1.00, 0.00, -0.00, -1.00, 401.1, 233.3)">e</text><text xml:space="preserve" font-family="Monaco,Monaco" font-size="40.0" fill="#FEFFFF" transform="matrix(1.00, 0.00, -0.00, -1.00, 425.1, 233.3)">r</text><text xml:space="preserve" font-family="Monaco,Monaco" font-size="40.0" fill="#FEFFFF" transform="matrix(1.00, 0.00, -0.00, -1.00, 449.1, 233.3)">s</text><text xml:space="preserve" font-family="Monaco,Monaco" font-size="40.0" fill="#FEFFFF" transform="matrix(1.00, 0.00, -0.00, -1.00, 473.1, 233.3)">h</text><text xml:space="preserve" font-family="Monaco,Monaco" font-size="40.0" fill="#FEFFFF" transform="matrix(1.00, 0.00, -0.00, -1.00, 497.1, 233.3)">i</text><text xml:space="preserve" font-family="Monaco,Monaco" font-size="40.0" fill="#FEFFFF" transform="matrix(1.00, 0.00, -0.00, -1.00, 521.1, 233.3)">p</text><text xml:space="preserve" font-family="Monaco,Monaco" font-size="40.0" fill="#FEFFFF" transform="matrix(1.00, 0.00, -0.00, -1.00, 545.1, 233.3)">:</text><text xml:space="preserve" font-family="Monaco,Monaco" font-size="40.0" fill="#FEFFFF" transform="matrix(1.00, 0.00, -0.00, -1.00, 569.1, 233.3)"> </text><text xml:space="preserve" font-family="Monaco,Monaco" font-size="40.0" fill="#FEFFFF" transform="matrix(1.00, 0.00, -0.00, -1.00, 161.0, 180.3)"> </text><text xml:space="preserve" font-family="Monaco,Monaco" font-size="40.0" fill="#7ADA45" transform="matrix(1.00, 0.00, -0.00, -1.00, 161.0, 127.3)">c</text><text xml:space="preserve" font-family="Monaco,Monaco" font-size="40.0" fill="#7ADA45" transform="matrix(1.00, 0.00, -0.00, -1.00, 185.0, 127.3)">h</text><text xml:space="preserve" font-family="Monaco,Monaco" font-size="40.0" fill="#7ADA45" transform="matrix(1.00, 0.00, -0.00, -1.00, 209.0, 127.3)">o</text><text xml:space="preserve" font-family="Monaco,Monaco" font-size="40.0" fill="#7ADA45" transform="matrix(1.00, 0.00, -0.00, -1.00, 233.0, 127.3)">w</text><text xml:space="preserve" font-family="Monaco,Monaco" font-size="40.0" fill="#7ADA45" transform="matrix(1.00, 0.00, -0.00, -1.00, 257.0, 127.3)">n</text><text xml:space="preserve" font-family="Monaco,Monaco" font-size="40.0" fill="#FEFFFF" transform="matrix(1.00, 0.00, -0.00, -1.00, 281.0, 127.3)"> </text><text xml:space="preserve" font-family="Monaco,Monaco" font-size="40.0" fill="#1497FC" transform="matrix(1.00, 0.00, -0.00, -1.00, 305.0, 127.3)">o</text><text xml:space="preserve" font-family="Monaco,Monaco" font-size="40.0" fill="#1497FC" transform="matrix(1.00, 0.00, -0.00, -1.00, 329.0, 127.3)">w</text><text xml:space="preserve" font-family="Monaco,Monaco" font-size="40.0" fill="#1497FC" transform="matrix(1.00, 0.00, -0.00, -1.00, 353.0, 127.3)">n</text><text xml:space="preserve" font-family="Monaco,Monaco" font-size="40.0" fill="#1497FC" transform="matrix(1.00, 0.00, -0.00, -1.00, 377.0, 127.3)">e</text><text xml:space="preserve" font-family="Monaco,Monaco" font-size="40.0" fill="#1497FC" transform="matrix(1.00, 0.00, -0.00, -1.00, 401.1, 127.3)">r</text><text xml:space="preserve" font-family="Monaco,Monaco" font-size="40.0" fill="#D35854" transform="matrix(1.00, 0.00, -0.00, -1.00, 425.0, 127.3)">:</text><text xml:space="preserve" font-family="Monaco,Monaco" font-size="40.0" fill="#D35854" transform="matrix(1.00, 0.00, -0.00, -1.00, 449.1, 127.3)">g</text><text xml:space="preserve" font-family="Monaco,Monaco" font-size="40.0" fill="#D35854" transform="matrix(1.00, 0.00, -0.00, -1.00, 473.1, 127.3)">r</text><text xml:space="preserve" font-family="Monaco,Monaco" font-size="40.0" fill="#D35854" transform="matrix(1.00, 0.00, -0.00, -1.00, 497.1, 127.3)">o</text><text xml:space="preserve" font-family="Monaco,Monaco" font-size="40.0" fill="#D35854" transform="matrix(1.00, 0.00, -0.00, -1.00, 521.1, 127.3)">u</text><text xml:space="preserve" font-family="Monaco,Monaco" font-size="40.0" fill="#D35854" transform="matrix(1.00, 0.00, -0.00, -1.00, 545.1, 127.3)">p</text><text xml:space="preserve" font-family="Monaco,Monaco" font-size="40.0" fill="#FEFFFF" transform="matrix(1.00, 0.00, -0.00, -1.00, 569.1, 127.3)"> </text><text xml:space="preserve" font-family="Monaco,Monaco" font-size="40.0" fill="#8881F0" transform="matrix(1.00, 0.00, -0.00, -1.00, 593.1, 127.3)">f</text><text xml:space="preserve" font-family="Monaco,Monaco" font-size="40.0" fill="#8881F0" transform="matrix(1.00, 0.00, -0.00, -1.00, 617.1, 127.3)">i</text><text xml:space="preserve" font-family="Monaco,Monaco" font-size="40.0" fill="#8881F0" transform="matrix(1.00, 0.00, -0.00, -1.00, 641.1, 127.3)">l</text><text xml:space="preserve" font-family="Monaco,Monaco" font-size="40.0" fill="#8881F0" transform="matrix(1.00, 0.00, -0.00, -1.00, 665.1, 127.3)">e</text><text xml:space="preserve" font-family="Monaco,Monaco" font-size="40.0" fill="#8881F0" transform="matrix(1.00, 0.00, -0.00, -1.00, 689.1, 127.3)">n</text><text xml:space="preserve" font-family="Monaco,Monaco" font-size="40.0" fill="#8881F0" transform="matrix(1.00, 0.00, -0.00, -1.00, 713.1, 127.3)">a</text><text xml:space="preserve" font-family="Monaco,Monaco" font-size="40.0" fill="#8881F0" transform="matrix(1.00, 0.00, -0.00, -1.00, 737.1, 127.3)">m</text><text xml:space="preserve" font-family="Monaco,Monaco" font-size="40.0" fill="#8881F0" transform="matrix(1.00, 0.00, -0.00, -1.00, 761.1, 127.3)">e</text><g><clipPath id="clip0x7f81899df010"><path d="M 592.1 123.3 L 785.1 123.3 L 785.1 128.3 L 592.1 128.3 Z M 592.1 123.3 "></path></clipPath><g clip-path="url(#clip0x7f81899df010)"><path d="M 506.1 424.2 L 698.1 424.2 " fill="none" stroke="#8881F0" stroke-width="3.03" transform="matrix(1.00, 0.00, 0.00, -1.00, 87.0, 550.0)"></path></g></g></g></svg>