<?xml version="1.0" encoding="UTF-8" standalone="no"?><svg xmlns="http://www.w3.org/2000/svg" xmlns:xlink="http://www.w3.org/1999/xlink" clip-rule="evenodd" stroke-miterlimit="10" viewBox="0 0 1024 768"><desc>SVG generated by Keynote</desc><defs></defs><g transform="matrix(1.00, 0.00, -0.00, -1.00, 0.0, 768.0)"><path d="M 0.0 768.0 L 1024.0 768.0 L 1024.0 0.0 L 0.0 0.0 Z M 0.0 768.0 " fill="#000000"></path><image xlink:href="../../ACF26528-510F-4087-92A7-D9431E4A7675/assets/C07D05C049E9C3A813AD52BFC7182A2D.png" width="983.00" height="584.00" transform="matrix(1.00, 0.00, -0.00, -1.00, 10.2, 664.7)" opacity="0.75"></image><image xlink:href="../../ACF26528-510F-4087-92A7-D9431E4A7675/assets/B8B89F8D2E49298F363D8341A9D067FB.png" width="963.00" height="564.00" transform="matrix(1.00, 0.00, -0.00, -1.00, 30.0, 666.0)"></image><text xml:space="preserve" font-family="LucidaGrande,Lucida Grande" font-size="22.0" fill="#FEFFFE" transform="matrix(1.00, 0.00, -0.00, -1.00, 332.4, 11.6)">F</text><text xml:space="preserve" font-family="LucidaGrande,Lucida Grande" font-size="22.0" fill="#FEFFFE" transform="matrix(1.00, 0.00, -0.00, -1.00, 344.2, 11.6)">e</text><text xml:space="preserve" font-family="LucidaGrande,Lucida Grande" font-size="22.0" fill="#FEFFFE" transform="matrix(1.00, 0.00, -0.00, -1.00, 356.4, 11.6)">e</text><text xml:space="preserve" font-family="LucidaGrande,Lucida Grande" font-size="22.0" fill="#FEFFFE" transform="matrix(1.00, 0.00, -0.00, -1.00, 368.7, 11.6)">d</text><text xml:space="preserve" font-family="LucidaGrande,Lucida Grande" font-size="22.0" fill="#FEFFFE" transform="matrix(1.00, 0.00, -0.00, -1.00, 382.5, 11.6)">b</text><text xml:space="preserve" font-family="LucidaGrande,Lucida Grande" font-size="22.0" fill="#FEFFFE" transform="matrix(1.00, 0.00, -0.00, -1.00, 396.4, 11.6)">a</text><text xml:space="preserve" font-family="LucidaGrande,Lucida Grande" font-size="22.0" fill="#FEFFFE" transform="matrix(1.00, 0.00, -0.00, -1.00, 408.5, 11.6)">c</text><text xml:space="preserve" font-family="LucidaGrande,Lucida Grande" font-size="22.0" fill="#FEFFFE" transform="matrix(1.00, 0.00, -0.00, -1.00, 419.8, 11.6)">k</text><text xml:space="preserve" font-family="LucidaGrande,Lucida Grande" font-size="22.0" fill="#FEFFFE" transform="matrix(1.00, 0.00, -0.00, -1.00, 432.7, 11.6)">:</text><text xml:space="preserve" font-family="LucidaGrande,Lucida Grande" font-size="22.0" fill="#FEFFFE" transform="matrix(1.00, 0.00, -0.00, -1.00, 439.6, 11.6)"> </text><text xml:space="preserve" font-family="LucidaGrande,Lucida Grande" font-size="22.0" fill="#FEFFFE" transform="matrix(1.00, 0.00, -0.00, -1.00, 446.6, 11.6)">h</text><text xml:space="preserve" font-family="LucidaGrande,Lucida Grande" font-size="22.0" fill="#FEFFFE" transform="matrix(1.00, 0.00, -0.00, -1.00, 460.2, 11.6)">t</text><text xml:space="preserve" font-family="LucidaGrande,Lucida Grande" font-size="22.0" fill="#FEFFFE" transform="matrix(1.00, 0.00, -0.00, -1.00, 468.4, 11.6)">t</text><text xml:space="preserve" font-family="LucidaGrande,Lucida Grande" font-size="22.0" fill="#FEFFFE" transform="matrix(1.00, 0.00, -0.00, -1.00, 476.7, 11.6)">p</text><text xml:space="preserve" font-family="LucidaGrande,Lucida Grande" font-size="22.0" fill="#FEFFFE" transform="matrix(1.00, 0.00, -0.00, -1.00, 490.5, 11.6)">:</text><text xml:space="preserve" font-family="LucidaGrande,Lucida Grande" font-size="22.0" fill="#FEFFFE" transform="matrix(1.00, 0.00, -0.00, -1.00, 497.5, 11.6)">/</text><text xml:space="preserve" font-family="LucidaGrande,Lucida Grande" font-size="22.0" fill="#FEFFFE" transform="matrix(1.00, 0.00, -0.00, -1.00, 509.0, 11.6)">/</text><text xml:space="preserve" font-family="LucidaGrande,Lucida Grande" font-size="22.0" fill="#FEFFFE" transform="matrix(1.00, 0.00, -0.00, -1.00, 520.6, 11.6)">j</text><text xml:space="preserve" font-family="LucidaGrande,Lucida Grande" font-size="22.0" fill="#FEFFFE" transform="matrix(1.00, 0.00, -0.00, -1.00, 527.3, 11.6)">.</text><text xml:space="preserve" font-family="LucidaGrande,Lucida Grande" font-size="22.0" fill="#FEFFFE" transform="matrix(1.00, 0.00, -0.00, -1.00, 534.3, 11.6)">m</text><text xml:space="preserve" font-family="LucidaGrande,Lucida Grande" font-size="22.0" fill="#FEFFFE" transform="matrix(1.00, 0.00, -0.00, -1.00, 554.8, 11.6)">p</text><text xml:space="preserve" font-family="LucidaGrande,Lucida Grande" font-size="22.0" fill="#FEFFFE" transform="matrix(1.00, 0.00, -0.00, -1.00, 568.6, 11.6)">/</text><text xml:space="preserve" font-family="LucidaGrande,Lucida Grande" font-size="22.0" fill="#FEFFFE" transform="matrix(1.00, 0.00, -0.00, -1.00, 580.2, 11.6)">p</text><text xml:space="preserve" font-family="LucidaGrande,Lucida Grande" font-size="22.0" fill="#FEFFFE" transform="matrix(1.00, 0.00, -0.00, -1.00, 594.0, 11.6)">s</text><text xml:space="preserve" font-family="LucidaGrande,Lucida Grande" font-size="22.0" fill="#FEFFFE" transform="matrix(1.00, 0.00, -0.00, -1.00, 605.3, 11.6)">u</text><text xml:space="preserve" font-family="LucidaGrande,Lucida Grande" font-size="22.0" fill="#FEFFFE" transform="matrix(1.00, 0.00, -0.00, -1.00, 618.9, 11.6)">m</text><text xml:space="preserve" font-family="LucidaGrande,Lucida Grande" font-size="22.0" fill="#FEFFFE" transform="matrix(1.00, 0.00, -0.00, -1.00, 639.4, 11.6)">a</text><text xml:space="preserve" font-family="LucidaGrande,Lucida Grande" font-size="22.0" fill="#FEFFFE" transform="matrix(1.00, 0.00, -0.00, -1.00, 651.6, 11.6)">c</text><text xml:space="preserve" font-family="LucidaGrande,Lucida Grande" font-size="22.0" fill="#FEFFFE" transform="matrix(1.00, 0.00, -0.00, -1.00, 662.9, 11.6)">1</text><text xml:space="preserve" font-family="LucidaGrande,Lucida Grande" font-size="22.0" fill="#FEFFFE" transform="matrix(1.00, 0.00, -0.00, -1.00, 676.8, 11.6)">3</text><text xml:space="preserve" font-family="Monaco,Monaco" font-size="36.0" fill="#37DE1B" transform="matrix(1.00, 0.00, -0.00, -1.00, 57.0, 610.5)">$</text><text xml:space="preserve" font-family="Monaco,Monaco" font-size="36.0" fill="#37DE1B" transform="matrix(1.00, 0.00, -0.00, -1.00, 78.6, 610.5)"> </text><text xml:space="preserve" font-family="Monaco,Monaco" font-size="36.0" fill="#37DE1B" transform="matrix(1.00, 0.00, -0.00, -1.00, 100.2, 610.5)">m</text><text xml:space="preserve" font-family="Monaco,Monaco" font-size="36.0" fill="#37DE1B" transform="matrix(1.00, 0.00, -0.00, -1.00, 121.8, 610.5)">a</text><text xml:space="preserve" font-family="Monaco,Monaco" font-size="36.0" fill="#37DE1B" transform="matrix(1.00, 0.00, -0.00, -1.00, 143.4, 610.5)">n</text><text xml:space="preserve" font-family="Monaco,Monaco" font-size="36.0" fill="#37DE1B" transform="matrix(1.00, 0.00, -0.00, -1.00, 165.0, 610.5)"> </text><text xml:space="preserve" font-family="Monaco,Monaco" font-size="36.0" fill="#37DE1B" transform="matrix(1.00, 0.00, -0.00, -1.00, 186.6, 610.5)">t</text><text xml:space="preserve" font-family="Monaco,Monaco" font-size="36.0" fill="#37DE1B" transform="matrix(1.00, 0.00, -0.00, -1.00, 208.2, 610.5)">e</text><text xml:space="preserve" font-family="Monaco,Monaco" font-size="36.0" fill="#37DE1B" transform="matrix(1.00, 0.00, -0.00, -1.00, 229.9, 610.5)">e</text><text xml:space="preserve" font-family="Monaco,Monaco" font-size="36.0" fill="#37DE1B" transform="matrix(1.00, 0.00, -0.00, -1.00, 251.5, 610.5)">	</text><text xml:space="preserve" font-family="Monaco,Monaco" font-size="36.0" fill="#37DE1B" transform="matrix(1.00, 0.00, -0.00, -1.00, 57.0, 562.5)">N</text><text xml:space="preserve" font-family="Monaco,Monaco" font-size="36.0" fill="#37DE1B" transform="matrix(1.00, 0.00, -0.00, -1.00, 78.6, 562.5)">A</text><text xml:space="preserve" font-family="Monaco,Monaco" font-size="36.0" fill="#37DE1B" transform="matrix(1.00, 0.00, -0.00, -1.00, 100.2, 562.5)">M</text><text xml:space="preserve" font-family="Monaco,Monaco" font-size="36.0" fill="#37DE1B" transform="matrix(1.00, 0.00, -0.00, -1.00, 121.8, 562.5)">E</text><text xml:space="preserve" font-family="Monaco,Monaco" font-size="36.0" fill="#37DE1B" transform="matrix(1.00, 0.00, -0.00, -1.00, 143.4, 562.5)">	</text><text xml:space="preserve" font-family="Monaco,Monaco" font-size="36.0" fill="#37DE1B" transform="matrix(1.00, 0.00, -0.00, -1.00, 57.0, 514.5)"> </text><text xml:space="preserve" font-family="Monaco,Monaco" font-size="36.0" fill="#37DE1B" transform="matrix(1.00, 0.00, -0.00, -1.00, 78.6, 514.5)"> </text><text xml:space="preserve" font-family="Monaco,Monaco" font-size="36.0" fill="#37DE1B" transform="matrix(1.00, 0.00, -0.00, -1.00, 100.2, 514.5)"> </text><text xml:space="preserve" font-family="Monaco,Monaco" font-size="36.0" fill="#37DE1B" transform="matrix(1.00, 0.00, -0.00, -1.00, 121.8, 514.5)"> </text><text xml:space="preserve" font-family="Monaco,Monaco" font-size="36.0" fill="#37DE1B" transform="matrix(1.00, 0.00, -0.00, -1.00, 143.4, 514.5)"> </text><text xml:space="preserve" font-family="Monaco,Monaco" font-size="36.0" fill="#37DE1B" transform="matrix(1.00, 0.00, -0.00, -1.00, 165.0, 514.5)">t</text><text xml:space="preserve" font-family="Monaco,Monaco" font-size="36.0" fill="#37DE1B" transform="matrix(1.00, 0.00, -0.00, -1.00, 186.6, 514.5)">e</text><text xml:space="preserve" font-family="Monaco,Monaco" font-size="36.0" fill="#37DE1B" transform="matrix(1.00, 0.00, -0.00, -1.00, 208.2, 514.5)">e</text><text xml:space="preserve" font-family="Monaco,Monaco" font-size="36.0" fill="#37DE1B" transform="matrix(1.00, 0.00, -0.00, -1.00, 229.9, 514.5)"> </text><text xml:space="preserve" font-family="Monaco,Monaco" font-size="36.0" fill="#37DE1B" transform="matrix(1.00, 0.00, -0.00, -1.00, 251.5, 514.5)">-</text><text xml:space="preserve" font-family="Monaco,Monaco" font-size="36.0" fill="#37DE1B" transform="matrix(1.00, 0.00, -0.00, -1.00, 273.1, 514.5)">-</text><text xml:space="preserve" font-family="Monaco,Monaco" font-size="36.0" fill="#37DE1B" transform="matrix(1.00, 0.00, -0.00, -1.00, 294.7, 514.5)"> </text><text xml:space="preserve" font-family="Monaco,Monaco" font-size="36.0" fill="#37DE1B" transform="matrix(1.00, 0.00, -0.00, -1.00, 316.3, 514.5)">p</text><text xml:space="preserve" font-family="Monaco,Monaco" font-size="36.0" fill="#37DE1B" transform="matrix(1.00, 0.00, -0.00, -1.00, 337.9, 514.5)">i</text><text xml:space="preserve" font-family="Monaco,Monaco" font-size="36.0" fill="#37DE1B" transform="matrix(1.00, 0.00, -0.00, -1.00, 359.5, 514.5)">p</text><text xml:space="preserve" font-family="Monaco,Monaco" font-size="36.0" fill="#37DE1B" transform="matrix(1.00, 0.00, -0.00, -1.00, 381.1, 514.5)">e</text><text xml:space="preserve" font-family="Monaco,Monaco" font-size="36.0" fill="#37DE1B" transform="matrix(1.00, 0.00, -0.00, -1.00, 402.7, 514.5)"> </text><text xml:space="preserve" font-family="Monaco,Monaco" font-size="36.0" fill="#37DE1B" transform="matrix(1.00, 0.00, -0.00, -1.00, 424.3, 514.5)">f</text><text xml:space="preserve" font-family="Monaco,Monaco" font-size="36.0" fill="#37DE1B" transform="matrix(1.00, 0.00, -0.00, -1.00, 445.9, 514.5)">i</text><text xml:space="preserve" font-family="Monaco,Monaco" font-size="36.0" fill="#37DE1B" transform="matrix(1.00, 0.00, -0.00, -1.00, 467.5, 514.5)">t</text><text xml:space="preserve" font-family="Monaco,Monaco" font-size="36.0" fill="#37DE1B" transform="matrix(1.00, 0.00, -0.00, -1.00, 489.1, 514.5)">t</text><text xml:space="preserve" font-family="Monaco,Monaco" font-size="36.0" fill="#37DE1B" transform="matrix(1.00, 0.00, -0.00, -1.00, 510.7, 514.5)">i</text><text xml:space="preserve" font-family="Monaco,Monaco" font-size="36.0" fill="#37DE1B" transform="matrix(1.00, 0.00, -0.00, -1.00, 532.4, 514.5)">n</text><text xml:space="preserve" font-family="Monaco,Monaco" font-size="36.0" fill="#37DE1B" transform="matrix(1.00, 0.00, -0.00, -1.00, 554.0, 514.5)">g</text><text xml:space="preserve" font-family="Monaco,Monaco" font-size="36.0" fill="#37DE1B" transform="matrix(1.00, 0.00, -0.00, -1.00, 575.6, 514.5)">	</text><text xml:space="preserve" font-family="Monaco,Monaco" font-size="36.0" fill="#37DE1B" transform="matrix(1.00, 0.00, -0.00, -1.00, 57.0, 418.5)">S</text><text xml:space="preserve" font-family="Monaco,Monaco" font-size="36.0" fill="#37DE1B" transform="matrix(1.00, 0.00, -0.00, -1.00, 78.6, 418.5)">Y</text><text xml:space="preserve" font-family="Monaco,Monaco" font-size="36.0" fill="#37DE1B" transform="matrix(1.00, 0.00, -0.00, -1.00, 100.2, 418.5)">N</text><text xml:space="preserve" font-family="Monaco,Monaco" font-size="36.0" fill="#37DE1B" transform="matrix(1.00, 0.00, -0.00, -1.00, 121.8, 418.5)">O</text><text xml:space="preserve" font-family="Monaco,Monaco" font-size="36.0" fill="#37DE1B" transform="matrix(1.00, 0.00, -0.00, -1.00, 143.4, 418.5)">P</text><text xml:space="preserve" font-family="Monaco,Monaco" font-size="36.0" fill="#37DE1B" transform="matrix(1.00, 0.00, -0.00, -1.00, 165.0, 418.5)">S</text><text xml:space="preserve" font-family="Monaco,Monaco" font-size="36.0" fill="#37DE1B" transform="matrix(1.00, 0.00, -0.00, -1.00, 186.6, 418.5)">I</text><text xml:space="preserve" font-family="Monaco,Monaco" font-size="36.0" fill="#37DE1B" transform="matrix(1.00, 0.00, -0.00, -1.00, 208.2, 418.5)">S</text><text xml:space="preserve" font-family="Monaco,Monaco" font-size="36.0" fill="#37DE1B" transform="matrix(1.00, 0.00, -0.00, -1.00, 229.9, 418.5)">	</text><text xml:space="preserve" font-family="Monaco,Monaco" font-size="36.0" fill="#37DE1B" transform="matrix(1.00, 0.00, -0.00, -1.00, 57.0, 370.5)"> </text><text xml:space="preserve" font-family="Monaco,Monaco" font-size="36.0" fill="#37DE1B" transform="matrix(1.00, 0.00, -0.00, -1.00, 78.6, 370.5)"> </text><text xml:space="preserve" font-family="Monaco,Monaco" font-size="36.0" fill="#37DE1B" transform="matrix(1.00, 0.00, -0.00, -1.00, 100.2, 370.5)"> </text><text xml:space="preserve" font-family="Monaco,Monaco" font-size="36.0" fill="#37DE1B" transform="matrix(1.00, 0.00, -0.00, -1.00, 121.8, 370.5)"> </text><text xml:space="preserve" font-family="Monaco,Monaco" font-size="36.0" fill="#37DE1B" transform="matrix(1.00, 0.00, -0.00, -1.00, 143.4, 370.5)"> </text><text xml:space="preserve" font-family="Monaco,Monaco" font-size="36.0" fill="#37DE1B" transform="matrix(1.00, 0.00, -0.00, -1.00, 165.0, 370.5)">t</text><text xml:space="preserve" font-family="Monaco,Monaco" font-size="36.0" fill="#37DE1B" transform="matrix(1.00, 0.00, -0.00, -1.00, 186.6, 370.5)">e</text><text xml:space="preserve" font-family="Monaco,Monaco" font-size="36.0" fill="#37DE1B" transform="matrix(1.00, 0.00, -0.00, -1.00, 208.2, 370.5)">e</text><text xml:space="preserve" font-family="Monaco,Monaco" font-size="36.0" fill="#37DE1B" transform="matrix(1.00, 0.00, -0.00, -1.00, 229.9, 370.5)"> </text><text xml:space="preserve" font-family="Monaco,Monaco" font-size="36.0" fill="#37DE1B" transform="matrix(1.00, 0.00, -0.00, -1.00, 251.5, 370.5)">[</text><text xml:space="preserve" font-family="Monaco,Monaco" font-size="36.0" fill="#37DE1B" transform="matrix(1.00, 0.00, -0.00, -1.00, 273.1, 370.5)">-</text><text xml:space="preserve" font-family="Monaco,Monaco" font-size="36.0" fill="#37DE1B" transform="matrix(1.00, 0.00, -0.00, -1.00, 294.7, 370.5)">a</text><text xml:space="preserve" font-family="Monaco,Monaco" font-size="36.0" fill="#37DE1B" transform="matrix(1.00, 0.00, -0.00, -1.00, 316.3, 370.5)">i</text><text xml:space="preserve" font-family="Monaco,Monaco" font-size="36.0" fill="#37DE1B" transform="matrix(1.00, 0.00, -0.00, -1.00, 337.9, 370.5)">]</text><text xml:space="preserve" font-family="Monaco,Monaco" font-size="36.0" fill="#37DE1B" transform="matrix(1.00, 0.00, -0.00, -1.00, 359.5, 370.5)"> </text><text xml:space="preserve" font-family="Monaco,Monaco" font-size="36.0" fill="#37DE1B" transform="matrix(1.00, 0.00, -0.00, -1.00, 381.1, 370.5)">[</text><text xml:space="preserve" font-family="Monaco,Monaco" font-size="36.0" fill="#37DE1B" transform="matrix(1.00, 0.00, -0.00, -1.00, 402.7, 370.5)">f</text><text xml:space="preserve" font-family="Monaco,Monaco" font-size="36.0" fill="#37DE1B" transform="matrix(1.00, 0.00, -0.00, -1.00, 424.3, 370.5)">i</text><text xml:space="preserve" font-family="Monaco,Monaco" font-size="36.0" fill="#37DE1B" transform="matrix(1.00, 0.00, -0.00, -1.00, 445.9, 370.5)">l</text><text xml:space="preserve" font-family="Monaco,Monaco" font-size="36.0" fill="#37DE1B" transform="matrix(1.00, 0.00, -0.00, -1.00, 467.5, 370.5)">e</text><text xml:space="preserve" font-family="Monaco,Monaco" font-size="36.0" fill="#37DE1B" transform="matrix(1.00, 0.00, -0.00, -1.00, 489.1, 370.5)"> </text><text xml:space="preserve" font-family="Monaco,Monaco" font-size="36.0" fill="#37DE1B" transform="matrix(1.00, 0.00, -0.00, -1.00, 510.7, 370.5)">.</text><text xml:space="preserve" font-family="Monaco,Monaco" font-size="36.0" fill="#37DE1B" transform="matrix(1.00, 0.00, -0.00, -1.00, 532.4, 370.5)">.</text><text xml:space="preserve" font-family="Monaco,Monaco" font-size="36.0" fill="#37DE1B" transform="matrix(1.00, 0.00, -0.00, -1.00, 554.0, 370.5)">.</text><text xml:space="preserve" font-family="Monaco,Monaco" font-size="36.0" fill="#37DE1B" transform="matrix(1.00, 0.00, -0.00, -1.00, 575.6, 370.5)">]</text><text xml:space="preserve" font-family="Monaco,Monaco" font-size="36.0" fill="#37DE1B" transform="matrix(1.00, 0.00, -0.00, -1.00, 597.2, 370.5)">	</text><text xml:space="preserve" font-family="Monaco,Monaco" font-size="36.0" fill="#37DE1B" transform="matrix(1.00, 0.00, -0.00, -1.00, 57.0, 274.5)">D</text><text xml:space="preserve" font-family="Monaco,Monaco" font-size="36.0" fill="#37DE1B" transform="matrix(1.00, 0.00, -0.00, -1.00, 78.6, 274.5)">E</text><text xml:space="preserve" font-family="Monaco,Monaco" font-size="36.0" fill="#37DE1B" transform="matrix(1.00, 0.00, -0.00, -1.00, 100.2, 274.5)">S</text><text xml:space="preserve" font-family="Monaco,Monaco" font-size="36.0" fill="#37DE1B" transform="matrix(1.00, 0.00, -0.00, -1.00, 121.8, 274.5)">C</text><text xml:space="preserve" font-family="Monaco,Monaco" font-size="36.0" fill="#37DE1B" transform="matrix(1.00, 0.00, -0.00, -1.00, 143.4, 274.5)">R</text><text xml:space="preserve" font-family="Monaco,Monaco" font-size="36.0" fill="#37DE1B" transform="matrix(1.00, 0.00, -0.00, -1.00, 165.0, 274.5)">I</text><text xml:space="preserve" font-family="Monaco,Monaco" font-size="36.0" fill="#37DE1B" transform="matrix(1.00, 0.00, -0.00, -1.00, 186.6, 274.5)">P</text><text xml:space="preserve" font-family="Monaco,Monaco" font-size="36.0" fill="#37DE1B" transform="matrix(1.00, 0.00, -0.00, -1.00, 208.2, 274.5)">T</text><text xml:space="preserve" font-family="Monaco,Monaco" font-size="36.0" fill="#37DE1B" transform="matrix(1.00, 0.00, -0.00, -1.00, 229.9, 274.5)">I</text><text xml:space="preserve" font-family="Monaco,Monaco" font-size="36.0" fill="#37DE1B" transform="matrix(1.00, 0.00, -0.00, -1.00, 251.5, 274.5)">O</text><text xml:space="preserve" font-family="Monaco,Monaco" font-size="36.0" fill="#37DE1B" transform="matrix(1.00, 0.00, -0.00, -1.00, 273.1, 274.5)">N</text><text xml:space="preserve" font-family="Monaco,Monaco" font-size="36.0" fill="#37DE1B" transform="matrix(1.00, 0.00, -0.00, -1.00, 294.7, 274.5)">	</text><text xml:space="preserve" font-family="Monaco,Monaco" font-size="36.0" fill="#37DE1B" transform="matrix(1.00, 0.00, -0.00, -1.00, 57.0, 226.5)"> </text><text xml:space="preserve" font-family="Monaco,Monaco" font-size="36.0" fill="#37DE1B" transform="matrix(1.00, 0.00, -0.00, -1.00, 78.6, 226.5)"> </text><text xml:space="preserve" font-family="Monaco,Monaco" font-size="36.0" fill="#37DE1B" transform="matrix(1.00, 0.00, -0.00, -1.00, 100.2, 226.5)"> </text><text xml:space="preserve" font-family="Monaco,Monaco" font-size="36.0" fill="#37DE1B" transform="matrix(1.00, 0.00, -0.00, -1.00, 121.8, 226.5)"> </text><text xml:space="preserve" font-family="Monaco,Monaco" font-size="36.0" fill="#37DE1B" transform="matrix(1.00, 0.00, -0.00, -1.00, 143.4, 226.5)"> </text><text xml:space="preserve" font-family="Monaco,Monaco" font-size="36.0" fill="#37DE1B" transform="matrix(1.00, 0.00, -0.00, -1.00, 165.0, 226.5)">T</text><text xml:space="preserve" font-family="Monaco,Monaco" font-size="36.0" fill="#37DE1B" transform="matrix(1.00, 0.00, -0.00, -1.00, 186.6, 226.5)">h</text><text xml:space="preserve" font-family="Monaco,Monaco" font-size="36.0" fill="#37DE1B" transform="matrix(1.00, 0.00, -0.00, -1.00, 208.2, 226.5)">e</text><text xml:space="preserve" font-family="Monaco,Monaco" font-size="36.0" fill="#37DE1B" transform="matrix(1.00, 0.00, -0.00, -1.00, 229.9, 226.5)"> </text><text xml:space="preserve" font-family="Monaco,Monaco" font-size="36.0" fill="#37DE1B" transform="matrix(1.00, 0.00, -0.00, -1.00, 251.5, 226.5)">t</text><text xml:space="preserve" font-family="Monaco,Monaco" font-size="36.0" fill="#37DE1B" transform="matrix(1.00, 0.00, -0.00, -1.00, 273.1, 226.5)">e</text><text xml:space="preserve" font-family="Monaco,Monaco" font-size="36.0" fill="#37DE1B" transform="matrix(1.00, 0.00, -0.00, -1.00, 294.7, 226.5)">e</text><text xml:space="preserve" font-family="Monaco,Monaco" font-size="36.0" fill="#37DE1B" transform="matrix(1.00, 0.00, -0.00, -1.00, 316.3, 226.5)"> </text><text xml:space="preserve" font-family="Monaco,Monaco" font-size="36.0" fill="#37DE1B" transform="matrix(1.00, 0.00, -0.00, -1.00, 337.9, 226.5)">u</text><text xml:space="preserve" font-family="Monaco,Monaco" font-size="36.0" fill="#37DE1B" transform="matrix(1.00, 0.00, -0.00, -1.00, 359.5, 226.5)">t</text><text xml:space="preserve" font-family="Monaco,Monaco" font-size="36.0" fill="#37DE1B" transform="matrix(1.00, 0.00, -0.00, -1.00, 381.1, 226.5)">i</text><text xml:space="preserve" font-family="Monaco,Monaco" font-size="36.0" fill="#37DE1B" transform="matrix(1.00, 0.00, -0.00, -1.00, 402.7, 226.5)">l</text><text xml:space="preserve" font-family="Monaco,Monaco" font-size="36.0" fill="#37DE1B" transform="matrix(1.00, 0.00, -0.00, -1.00, 424.3, 226.5)">i</text><text xml:space="preserve" font-family="Monaco,Monaco" font-size="36.0" fill="#37DE1B" transform="matrix(1.00, 0.00, -0.00, -1.00, 445.9, 226.5)">t</text><text xml:space="preserve" font-family="Monaco,Monaco" font-size="36.0" fill="#37DE1B" transform="matrix(1.00, 0.00, -0.00, -1.00, 467.5, 226.5)">y</text><text xml:space="preserve" font-family="Monaco,Monaco" font-size="36.0" fill="#37DE1B" transform="matrix(1.00, 0.00, -0.00, -1.00, 489.1, 226.5)"> </text><text xml:space="preserve" font-family="Monaco,Monaco" font-size="36.0" fill="#37DE1B" transform="matrix(1.00, 0.00, -0.00, -1.00, 510.7, 226.5)">c</text><text xml:space="preserve" font-family="Monaco,Monaco" font-size="36.0" fill="#37DE1B" transform="matrix(1.00, 0.00, -0.00, -1.00, 532.4, 226.5)">o</text><text xml:space="preserve" font-family="Monaco,Monaco" font-size="36.0" fill="#37DE1B" transform="matrix(1.00, 0.00, -0.00, -1.00, 554.0, 226.5)">p</text><text xml:space="preserve" font-family="Monaco,Monaco" font-size="36.0" fill="#37DE1B" transform="matrix(1.00, 0.00, -0.00, -1.00, 575.6, 226.5)">i</text><text xml:space="preserve" font-family="Monaco,Monaco" font-size="36.0" fill="#37DE1B" transform="matrix(1.00, 0.00, -0.00, -1.00, 597.2, 226.5)">e</text><text xml:space="preserve" font-family="Monaco,Monaco" font-size="36.0" fill="#37DE1B" transform="matrix(1.00, 0.00, -0.00, -1.00, 618.8, 226.5)">s</text><text xml:space="preserve" font-family="Monaco,Monaco" font-size="36.0" fill="#37DE1B" transform="matrix(1.00, 0.00, -0.00, -1.00, 640.4, 226.5)"> </text><text xml:space="preserve" font-family="Monaco,Monaco" font-size="36.0" fill="#37DE1B" transform="matrix(1.00, 0.00, -0.00, -1.00, 662.0, 226.5)">s</text><text xml:space="preserve" font-family="Monaco,Monaco" font-size="36.0" fill="#37DE1B" transform="matrix(1.00, 0.00, -0.00, -1.00, 683.6, 226.5)">t</text><text xml:space="preserve" font-family="Monaco,Monaco" font-size="36.0" fill="#37DE1B" transform="matrix(1.00, 0.00, -0.00, -1.00, 705.2, 226.5)">a</text><text xml:space="preserve" font-family="Monaco,Monaco" font-size="36.0" fill="#37DE1B" transform="matrix(1.00, 0.00, -0.00, -1.00, 726.8, 226.5)">n</text><text xml:space="preserve" font-family="Monaco,Monaco" font-size="36.0" fill="#37DE1B" transform="matrix(1.00, 0.00, -0.00, -1.00, 748.4, 226.5)">d</text><text xml:space="preserve" font-family="Monaco,Monaco" font-size="36.0" fill="#37DE1B" transform="matrix(1.00, 0.00, -0.00, -1.00, 770.0, 226.5)">a</text><text xml:space="preserve" font-family="Monaco,Monaco" font-size="36.0" fill="#37DE1B" transform="matrix(1.00, 0.00, -0.00, -1.00, 791.6, 226.5)">r</text><text xml:space="preserve" font-family="Monaco,Monaco" font-size="36.0" fill="#37DE1B" transform="matrix(1.00, 0.00, -0.00, -1.00, 813.2, 226.5)">d</text><text xml:space="preserve" font-family="Monaco,Monaco" font-size="36.0" fill="#37DE1B" transform="matrix(1.00, 0.00, -0.00, -1.00, 834.9, 226.5)"> </text><text xml:space="preserve" font-family="Monaco,Monaco" font-size="36.0" fill="#37DE1B" transform="matrix(1.00, 0.00, -0.00, -1.00, 856.5, 226.5)">i</text><text xml:space="preserve" font-family="Monaco,Monaco" font-size="36.0" fill="#37DE1B" transform="matrix(1.00, 0.00, -0.00, -1.00, 878.1, 226.5)">n</text><text xml:space="preserve" font-family="Monaco,Monaco" font-size="36.0" fill="#37DE1B" transform="matrix(1.00, 0.00, -0.00, -1.00, 899.7, 226.5)">p</text><text xml:space="preserve" font-family="Monaco,Monaco" font-size="36.0" fill="#37DE1B" transform="matrix(1.00, 0.00, -0.00, -1.00, 921.3, 226.5)">u</text><text xml:space="preserve" font-family="Monaco,Monaco" font-size="36.0" fill="#37DE1B" transform="matrix(1.00, 0.00, -0.00, -1.00, 942.9, 226.5)">t</text><text xml:space="preserve" font-family="Monaco,Monaco" font-size="36.0" fill="#37DE1B" transform="matrix(1.00, 0.00, -0.00, -1.00, 964.5, 226.5)"> </text><text xml:space="preserve" font-family="Monaco,Monaco" font-size="36.0" fill="#37DE1B" transform="matrix(1.00, 0.00, -0.00, -1.00, 57.0, 178.5)">t</text><text xml:space="preserve" font-family="Monaco,Monaco" font-size="36.0" fill="#37DE1B" transform="matrix(1.00, 0.00, -0.00, -1.00, 78.6, 178.5)">o</text><text xml:space="preserve" font-family="Monaco,Monaco" font-size="36.0" fill="#37DE1B" transform="matrix(1.00, 0.00, -0.00, -1.00, 100.2, 178.5)"> </text><text xml:space="preserve" font-family="Monaco,Monaco" font-size="36.0" fill="#37DE1B" transform="matrix(1.00, 0.00, -0.00, -1.00, 121.8, 178.5)">s</text><text xml:space="preserve" font-family="Monaco,Monaco" font-size="36.0" fill="#37DE1B" transform="matrix(1.00, 0.00, -0.00, -1.00, 143.4, 178.5)">t</text><text xml:space="preserve" font-family="Monaco,Monaco" font-size="36.0" fill="#37DE1B" transform="matrix(1.00, 0.00, -0.00, -1.00, 165.0, 178.5)">a</text><text xml:space="preserve" font-family="Monaco,Monaco" font-size="36.0" fill="#37DE1B" transform="matrix(1.00, 0.00, -0.00, -1.00, 186.6, 178.5)">n</text><text xml:space="preserve" font-family="Monaco,Monaco" font-size="36.0" fill="#37DE1B" transform="matrix(1.00, 0.00, -0.00, -1.00, 208.2, 178.5)">d</text><text xml:space="preserve" font-family="Monaco,Monaco" font-size="36.0" fill="#37DE1B" transform="matrix(1.00, 0.00, -0.00, -1.00, 229.9, 178.5)">a</text><text xml:space="preserve" font-family="Monaco,Monaco" font-size="36.0" fill="#37DE1B" transform="matrix(1.00, 0.00, -0.00, -1.00, 251.5, 178.5)">r</text><text xml:space="preserve" font-family="Monaco,Monaco" font-size="36.0" fill="#37DE1B" transform="matrix(1.00, 0.00, -0.00, -1.00, 273.1, 178.5)">d</text><text xml:space="preserve" font-family="Monaco,Monaco" font-size="36.0" fill="#37DE1B" transform="matrix(1.00, 0.00, -0.00, -1.00, 294.7, 178.5)"> </text><text xml:space="preserve" font-family="Monaco,Monaco" font-size="36.0" fill="#37DE1B" transform="matrix(1.00, 0.00, -0.00, -1.00, 316.3, 178.5)">o</text><text xml:space="preserve" font-family="Monaco,Monaco" font-size="36.0" fill="#37DE1B" transform="matrix(1.00, 0.00, -0.00, -1.00, 337.9, 178.5)">u</text><text xml:space="preserve" font-family="Monaco,Monaco" font-size="36.0" fill="#37DE1B" transform="matrix(1.00, 0.00, -0.00, -1.00, 359.5, 178.5)">t</text><text xml:space="preserve" font-family="Monaco,Monaco" font-size="36.0" fill="#37DE1B" transform="matrix(1.00, 0.00, -0.00, -1.00, 381.1, 178.5)">p</text><text xml:space="preserve" font-family="Monaco,Monaco" font-size="36.0" fill="#37DE1B" transform="matrix(1.00, 0.00, -0.00, -1.00, 402.7, 178.5)">u</text><text xml:space="preserve" font-family="Monaco,Monaco" font-size="36.0" fill="#37DE1B" transform="matrix(1.00, 0.00, -0.00, -1.00, 424.3, 178.5)">t</text><text xml:space="preserve" font-family="Monaco,Monaco" font-size="36.0" fill="#37DE1B" transform="matrix(1.00, 0.00, -0.00, -1.00, 445.9, 178.5)">,</text><text xml:space="preserve" font-family="Monaco,Monaco" font-size="36.0" fill="#37DE1B" transform="matrix(1.00, 0.00, -0.00, -1.00, 467.5, 178.5)"> </text><text xml:space="preserve" font-family="Monaco,Monaco" font-size="36.0" fill="#37DE1B" transform="matrix(1.00, 0.00, -0.00, -1.00, 489.1, 178.5)">m</text><text xml:space="preserve" font-family="Monaco,Monaco" font-size="36.0" fill="#37DE1B" transform="matrix(1.00, 0.00, -0.00, -1.00, 510.7, 178.5)">a</text><text xml:space="preserve" font-family="Monaco,Monaco" font-size="36.0" fill="#37DE1B" transform="matrix(1.00, 0.00, -0.00, -1.00, 532.4, 178.5)">k</text><text xml:space="preserve" font-family="Monaco,Monaco" font-size="36.0" fill="#37DE1B" transform="matrix(1.00, 0.00, -0.00, -1.00, 554.0, 178.5)">i</text><text xml:space="preserve" font-family="Monaco,Monaco" font-size="36.0" fill="#37DE1B" transform="matrix(1.00, 0.00, -0.00, -1.00, 575.6, 178.5)">n</text><text xml:space="preserve" font-family="Monaco,Monaco" font-size="36.0" fill="#37DE1B" transform="matrix(1.00, 0.00, -0.00, -1.00, 597.2, 178.5)">g</text><text xml:space="preserve" font-family="Monaco,Monaco" font-size="36.0" fill="#37DE1B" transform="matrix(1.00, 0.00, -0.00, -1.00, 618.8, 178.5)"> </text><text xml:space="preserve" font-family="Monaco,Monaco" font-size="36.0" fill="#37DE1B" transform="matrix(1.00, 0.00, -0.00, -1.00, 640.4, 178.5)">a</text><text xml:space="preserve" font-family="Monaco,Monaco" font-size="36.0" fill="#37DE1B" transform="matrix(1.00, 0.00, -0.00, -1.00, 662.0, 178.5)"> </text><text xml:space="preserve" font-family="Monaco,Monaco" font-size="36.0" fill="#37DE1B" transform="matrix(1.00, 0.00, -0.00, -1.00, 683.6, 178.5)">c</text><text xml:space="preserve" font-family="Monaco,Monaco" font-size="36.0" fill="#37DE1B" transform="matrix(1.00, 0.00, -0.00, -1.00, 705.2, 178.5)">o</text><text xml:space="preserve" font-family="Monaco,Monaco" font-size="36.0" fill="#37DE1B" transform="matrix(1.00, 0.00, -0.00, -1.00, 726.8, 178.5)">p</text><text xml:space="preserve" font-family="Monaco,Monaco" font-size="36.0" fill="#37DE1B" transform="matrix(1.00, 0.00, -0.00, -1.00, 748.4, 178.5)">y</text><text xml:space="preserve" font-family="Monaco,Monaco" font-size="36.0" fill="#37DE1B" transform="matrix(1.00, 0.00, -0.00, -1.00, 770.0, 178.5)"> </text><text xml:space="preserve" font-family="Monaco,Monaco" font-size="36.0" fill="#37DE1B" transform="matrix(1.00, 0.00, -0.00, -1.00, 791.6, 178.5)">i</text><text xml:space="preserve" font-family="Monaco,Monaco" font-size="36.0" fill="#37DE1B" transform="matrix(1.00, 0.00, -0.00, -1.00, 813.2, 178.5)">n</text><text xml:space="preserve" font-family="Monaco,Monaco" font-size="36.0" fill="#37DE1B" transform="matrix(1.00, 0.00, -0.00, -1.00, 834.9, 178.5)"> </text><text xml:space="preserve" font-family="Monaco,Monaco" font-size="36.0" fill="#37DE1B" transform="matrix(1.00, 0.00, -0.00, -1.00, 856.5, 178.5)">z</text><text xml:space="preserve" font-family="Monaco,Monaco" font-size="36.0" fill="#37DE1B" transform="matrix(1.00, 0.00, -0.00, -1.00, 878.1, 178.5)">e</text><text xml:space="preserve" font-family="Monaco,Monaco" font-size="36.0" fill="#37DE1B" transform="matrix(1.00, 0.00, -0.00, -1.00, 899.7, 178.5)">r</text><text xml:space="preserve" font-family="Monaco,Monaco" font-size="36.0" fill="#37DE1B" transform="matrix(1.00, 0.00, -0.00, -1.00, 921.3, 178.5)">o</text><text xml:space="preserve" font-family="Monaco,Monaco" font-size="36.0" fill="#37DE1B" transform="matrix(1.00, 0.00, -0.00, -1.00, 942.9, 178.5)"> </text><text xml:space="preserve" font-family="Monaco,Monaco" font-size="36.0" fill="#37DE1B" transform="matrix(1.00, 0.00, -0.00, -1.00, 57.0, 130.5)">o</text><text xml:space="preserve" font-family="Monaco,Monaco" font-size="36.0" fill="#37DE1B" transform="matrix(1.00, 0.00, -0.00, -1.00, 78.6, 130.5)">r</text><text xml:space="preserve" font-family="Monaco,Monaco" font-size="36.0" fill="#37DE1B" transform="matrix(1.00, 0.00, -0.00, -1.00, 100.2, 130.5)"> </text><text xml:space="preserve" font-family="Monaco,Monaco" font-size="36.0" fill="#37DE1B" transform="matrix(1.00, 0.00, -0.00, -1.00, 121.8, 130.5)">m</text><text xml:space="preserve" font-family="Monaco,Monaco" font-size="36.0" fill="#37DE1B" transform="matrix(1.00, 0.00, -0.00, -1.00, 143.4, 130.5)">o</text><text xml:space="preserve" font-family="Monaco,Monaco" font-size="36.0" fill="#37DE1B" transform="matrix(1.00, 0.00, -0.00, -1.00, 165.0, 130.5)">r</text><text xml:space="preserve" font-family="Monaco,Monaco" font-size="36.0" fill="#37DE1B" transform="matrix(1.00, 0.00, -0.00, -1.00, 186.6, 130.5)">e</text><text xml:space="preserve" font-family="Monaco,Monaco" font-size="36.0" fill="#37DE1B" transform="matrix(1.00, 0.00, -0.00, -1.00, 208.2, 130.5)"> </text><text xml:space="preserve" font-family="Monaco,Monaco" font-size="36.0" fill="#37DE1B" transform="matrix(1.00, 0.00, -0.00, -1.00, 229.9, 130.5)">f</text><text xml:space="preserve" font-family="Monaco,Monaco" font-size="36.0" fill="#37DE1B" transform="matrix(1.00, 0.00, -0.00, -1.00, 251.5, 130.5)">i</text><text xml:space="preserve" font-family="Monaco,Monaco" font-size="36.0" fill="#37DE1B" transform="matrix(1.00, 0.00, -0.00, -1.00, 273.1, 130.5)">l</text><text xml:space="preserve" font-family="Monaco,Monaco" font-size="36.0" fill="#37DE1B" transform="matrix(1.00, 0.00, -0.00, -1.00, 294.7, 130.5)">e</text><text xml:space="preserve" font-family="Monaco,Monaco" font-size="36.0" fill="#37DE1B" transform="matrix(1.00, 0.00, -0.00, -1.00, 316.3, 130.5)">s</text><text xml:space="preserve" font-family="Monaco,Monaco" font-size="36.0" fill="#37DE1B" transform="matrix(1.00, 0.00, -0.00, -1.00, 337.9, 130.5)">.</text></g></svg>