<?xml version="1.0" encoding="UTF-8" standalone="no"?><svg xmlns="http://www.w3.org/2000/svg" xmlns:xlink="http://www.w3.org/1999/xlink" clip-rule="evenodd" stroke-miterlimit="10" viewBox="0 0 1024 768"><desc>SVG generated by Keynote</desc><defs></defs><g transform="matrix(1.00, 0.00, -0.00, -1.00, 0.0, 768.0)"><path d="M 0.0 768.0 L 1024.0 768.0 L 1024.0 0.0 L 0.0 0.0 Z M 0.0 768.0 " fill="#000000"></path><image xlink:href="../../ACF26528-510F-4087-92A7-D9431E4A7675/assets/C07D05C049E9C3A813AD52BFC7182A2D.png" width="983.00" height="584.00" transform="matrix(1.00, 0.00, -0.00, -1.00, 10.2, 664.7)" opacity="0.75"></image><image xlink:href="../../ACF26528-510F-4087-92A7-D9431E4A7675/assets/B8B89F8D2E49298F363D8341A9D067FB.png" width="963.00" height="564.00" transform="matrix(1.00, 0.00, -0.00, -1.00, 30.0, 666.0)"></image><text xml:space="preserve" font-family="LucidaGrande,Lucida Grande" font-size="22.0" fill="#FEFFFE" transform="matrix(1.00, 0.00, -0.00, -1.00, 332.4, 11.6)">F</text><text xml:space="preserve" font-family="LucidaGrande,Lucida Grande" font-size="22.0" fill="#FEFFFE" transform="matrix(1.00, 0.00, -0.00, -1.00, 344.2, 11.6)">e</text><text xml:space="preserve" font-family="LucidaGrande,Lucida Grande" font-size="22.0" fill="#FEFFFE" transform="matrix(1.00, 0.00, -0.00, -1.00, 356.4, 11.6)">e</text><text xml:space="preserve" font-family="LucidaGrande,Lucida Grande" font-size="22.0" fill="#FEFFFE" transform="matrix(1.00, 0.00, -0.00, -1.00, 368.7, 11.6)">d</text><text xml:space="preserve" font-family="LucidaGrande,Lucida Grande" font-size="22.0" fill="#FEFFFE" transform="matrix(1.00, 0.00, -0.00, -1.00, 382.5, 11.6)">b</text><text xml:space="preserve" font-family="LucidaGrande,Lucida Grande" font-size="22.0" fill="#FEFFFE" transform="matrix(1.00, 0.00, -0.00, -1.00, 396.4, 11.6)">a</text><text xml:space="preserve" font-family="LucidaGrande,Lucida Grande" font-size="22.0" fill="#FEFFFE" transform="matrix(1.00, 0.00, -0.00, -1.00, 408.5, 11.6)">c</text><text xml:space="preserve" font-family="LucidaGrande,Lucida Grande" font-size="22.0" fill="#FEFFFE" transform="matrix(1.00, 0.00, -0.00, -1.00, 419.8, 11.6)">k</text><text xml:space="preserve" font-family="LucidaGrande,Lucida Grande" font-size="22.0" fill="#FEFFFE" transform="matrix(1.00, 0.00, -0.00, -1.00, 432.7, 11.6)">:</text><text xml:space="preserve" font-family="LucidaGrande,Lucida Grande" font-size="22.0" fill="#FEFFFE" transform="matrix(1.00, 0.00, -0.00, -1.00, 439.6, 11.6)"> </text><text xml:space="preserve" font-family="LucidaGrande,Lucida Grande" font-size="22.0" fill="#FEFFFE" transform="matrix(1.00, 0.00, -0.00, -1.00, 446.6, 11.6)">h</text><text xml:space="preserve" font-family="LucidaGrande,Lucida Grande" font-size="22.0" fill="#FEFFFE" transform="matrix(1.00, 0.00, -0.00, -1.00, 460.2, 11.6)">t</text><text xml:space="preserve" font-family="LucidaGrande,Lucida Grande" font-size="22.0" fill="#FEFFFE" transform="matrix(1.00, 0.00, -0.00, -1.00, 468.4, 11.6)">t</text><text xml:space="preserve" font-family="LucidaGrande,Lucida Grande" font-size="22.0" fill="#FEFFFE" transform="matrix(1.00, 0.00, -0.00, -1.00, 476.7, 11.6)">p</text><text xml:space="preserve" font-family="LucidaGrande,Lucida Grande" font-size="22.0" fill="#FEFFFE" transform="matrix(1.00, 0.00, -0.00, -1.00, 490.5, 11.6)">:</text><text xml:space="preserve" font-family="LucidaGrande,Lucida Grande" font-size="22.0" fill="#FEFFFE" transform="matrix(1.00, 0.00, -0.00, -1.00, 497.5, 11.6)">/</text><text xml:space="preserve" font-family="LucidaGrande,Lucida Grande" font-size="22.0" fill="#FEFFFE" transform="matrix(1.00, 0.00, -0.00, -1.00, 509.0, 11.6)">/</text><text xml:space="preserve" font-family="LucidaGrande,Lucida Grande" font-size="22.0" fill="#FEFFFE" transform="matrix(1.00, 0.00, -0.00, -1.00, 520.6, 11.6)">j</text><text xml:space="preserve" font-family="LucidaGrande,Lucida Grande" font-size="22.0" fill="#FEFFFE" transform="matrix(1.00, 0.00, -0.00, -1.00, 527.3, 11.6)">.</text><text xml:space="preserve" font-family="LucidaGrande,Lucida Grande" font-size="22.0" fill="#FEFFFE" transform="matrix(1.00, 0.00, -0.00, -1.00, 534.3, 11.6)">m</text><text xml:space="preserve" font-family="LucidaGrande,Lucida Grande" font-size="22.0" fill="#FEFFFE" transform="matrix(1.00, 0.00, -0.00, -1.00, 554.8, 11.6)">p</text><text xml:space="preserve" font-family="LucidaGrande,Lucida Grande" font-size="22.0" fill="#FEFFFE" transform="matrix(1.00, 0.00, -0.00, -1.00, 568.6, 11.6)">/</text><text xml:space="preserve" font-family="LucidaGrande,Lucida Grande" font-size="22.0" fill="#FEFFFE" transform="matrix(1.00, 0.00, -0.00, -1.00, 580.2, 11.6)">p</text><text xml:space="preserve" font-family="LucidaGrande,Lucida Grande" font-size="22.0" fill="#FEFFFE" transform="matrix(1.00, 0.00, -0.00, -1.00, 594.0, 11.6)">s</text><text xml:space="preserve" font-family="LucidaGrande,Lucida Grande" font-size="22.0" fill="#FEFFFE" transform="matrix(1.00, 0.00, -0.00, -1.00, 605.3, 11.6)">u</text><text xml:space="preserve" font-family="LucidaGrande,Lucida Grande" font-size="22.0" fill="#FEFFFE" transform="matrix(1.00, 0.00, -0.00, -1.00, 618.9, 11.6)">m</text><text xml:space="preserve" font-family="LucidaGrande,Lucida Grande" font-size="22.0" fill="#FEFFFE" transform="matrix(1.00, 0.00, -0.00, -1.00, 639.4, 11.6)">a</text><text xml:space="preserve" font-family="LucidaGrande,Lucida Grande" font-size="22.0" fill="#FEFFFE" transform="matrix(1.00, 0.00, -0.00, -1.00, 651.6, 11.6)">c</text><text xml:space="preserve" font-family="LucidaGrande,Lucida Grande" font-size="22.0" fill="#FEFFFE" transform="matrix(1.00, 0.00, -0.00, -1.00, 662.9, 11.6)">1</text><text xml:space="preserve" font-family="LucidaGrande,Lucida Grande" font-size="22.0" fill="#FEFFFE" transform="matrix(1.00, 0.00, -0.00, -1.00, 676.8, 11.6)">3</text><text xml:space="preserve" font-family="Monaco,Monaco" font-size="38.0" fill="#37DE1B" transform="matrix(1.00, 0.00, -0.00, -1.00, 57.2, 548.2)">$</text><text xml:space="preserve" font-family="Monaco,Monaco" font-size="38.0" fill="#37DE1B" transform="matrix(1.00, 0.00, -0.00, -1.00, 80.0, 548.2)"> </text><text xml:space="preserve" font-family="Monaco,Monaco" font-size="38.0" fill="#37DE1B" transform="matrix(1.00, 0.00, -0.00, -1.00, 102.8, 548.2)">s</text><text xml:space="preserve" font-family="Monaco,Monaco" font-size="38.0" fill="#37DE1B" transform="matrix(1.00, 0.00, -0.00, -1.00, 125.6, 548.2)">y</text><text xml:space="preserve" font-family="Monaco,Monaco" font-size="38.0" fill="#37DE1B" transform="matrix(1.00, 0.00, -0.00, -1.00, 148.4, 548.2)">s</text><text xml:space="preserve" font-family="Monaco,Monaco" font-size="38.0" fill="#37DE1B" transform="matrix(1.00, 0.00, -0.00, -1.00, 171.2, 548.2)">t</text><text xml:space="preserve" font-family="Monaco,Monaco" font-size="38.0" fill="#37DE1B" transform="matrix(1.00, 0.00, -0.00, -1.00, 194.0, 548.2)">e</text><text xml:space="preserve" font-family="Monaco,Monaco" font-size="38.0" fill="#37DE1B" transform="matrix(1.00, 0.00, -0.00, -1.00, 216.8, 548.2)">m</text><text xml:space="preserve" font-family="Monaco,Monaco" font-size="38.0" fill="#37DE1B" transform="matrix(1.00, 0.00, -0.00, -1.00, 239.6, 548.2)">_</text><text xml:space="preserve" font-family="Monaco,Monaco" font-size="38.0" fill="#37DE1B" transform="matrix(1.00, 0.00, -0.00, -1.00, 262.4, 548.2)">p</text><text xml:space="preserve" font-family="Monaco,Monaco" font-size="38.0" fill="#37DE1B" transform="matrix(1.00, 0.00, -0.00, -1.00, 285.3, 548.2)">r</text><text xml:space="preserve" font-family="Monaco,Monaco" font-size="38.0" fill="#37DE1B" transform="matrix(1.00, 0.00, -0.00, -1.00, 308.1, 548.2)">o</text><text xml:space="preserve" font-family="Monaco,Monaco" font-size="38.0" fill="#37DE1B" transform="matrix(1.00, 0.00, -0.00, -1.00, 330.9, 548.2)">f</text><text xml:space="preserve" font-family="Monaco,Monaco" font-size="38.0" fill="#37DE1B" transform="matrix(1.00, 0.00, -0.00, -1.00, 353.7, 548.2)">i</text><text xml:space="preserve" font-family="Monaco,Monaco" font-size="38.0" fill="#37DE1B" transform="matrix(1.00, 0.00, -0.00, -1.00, 376.5, 548.2)">l</text><text xml:space="preserve" font-family="Monaco,Monaco" font-size="38.0" fill="#37DE1B" transform="matrix(1.00, 0.00, -0.00, -1.00, 399.3, 548.2)">e</text><text xml:space="preserve" font-family="Monaco,Monaco" font-size="38.0" fill="#37DE1B" transform="matrix(1.00, 0.00, -0.00, -1.00, 422.1, 548.2)">r</text><text xml:space="preserve" font-family="Monaco,Monaco" font-size="38.0" fill="#37DE1B" transform="matrix(1.00, 0.00, -0.00, -1.00, 444.9, 548.2)"> </text><text xml:space="preserve" font-family="Monaco,Monaco" font-size="38.0" fill="#37DE1B" transform="matrix(1.00, 0.00, -0.00, -1.00, 467.7, 548.2)">S</text><text xml:space="preserve" font-family="Monaco,Monaco" font-size="38.0" fill="#37DE1B" transform="matrix(1.00, 0.00, -0.00, -1.00, 490.5, 548.2)">P</text><text xml:space="preserve" font-family="Monaco,Monaco" font-size="38.0" fill="#37DE1B" transform="matrix(1.00, 0.00, -0.00, -1.00, 513.3, 548.2)">H</text><text xml:space="preserve" font-family="Monaco,Monaco" font-size="38.0" fill="#37DE1B" transform="matrix(1.00, 0.00, -0.00, -1.00, 536.1, 548.2)">a</text><text xml:space="preserve" font-family="Monaco,Monaco" font-size="38.0" fill="#37DE1B" transform="matrix(1.00, 0.00, -0.00, -1.00, 558.9, 548.2)">r</text><text xml:space="preserve" font-family="Monaco,Monaco" font-size="38.0" fill="#37DE1B" transform="matrix(1.00, 0.00, -0.00, -1.00, 581.7, 548.2)">d</text><text xml:space="preserve" font-family="Monaco,Monaco" font-size="38.0" fill="#37DE1B" transform="matrix(1.00, 0.00, -0.00, -1.00, 604.6, 548.2)">w</text><text xml:space="preserve" font-family="Monaco,Monaco" font-size="38.0" fill="#37DE1B" transform="matrix(1.00, 0.00, -0.00, -1.00, 627.4, 548.2)">a</text><text xml:space="preserve" font-family="Monaco,Monaco" font-size="38.0" fill="#37DE1B" transform="matrix(1.00, 0.00, -0.00, -1.00, 650.2, 548.2)">r</text><text xml:space="preserve" font-family="Monaco,Monaco" font-size="38.0" fill="#37DE1B" transform="matrix(1.00, 0.00, -0.00, -1.00, 673.0, 548.2)">e</text><text xml:space="preserve" font-family="Monaco,Monaco" font-size="38.0" fill="#37DE1B" transform="matrix(1.00, 0.00, -0.00, -1.00, 695.8, 548.2)">D</text><text xml:space="preserve" font-family="Monaco,Monaco" font-size="38.0" fill="#37DE1B" transform="matrix(1.00, 0.00, -0.00, -1.00, 718.6, 548.2)">a</text><text xml:space="preserve" font-family="Monaco,Monaco" font-size="38.0" fill="#37DE1B" transform="matrix(1.00, 0.00, -0.00, -1.00, 741.4, 548.2)">t</text><text xml:space="preserve" font-family="Monaco,Monaco" font-size="38.0" fill="#37DE1B" transform="matrix(1.00, 0.00, -0.00, -1.00, 764.2, 548.2)">a</text><text xml:space="preserve" font-family="Monaco,Monaco" font-size="38.0" fill="#37DE1B" transform="matrix(1.00, 0.00, -0.00, -1.00, 787.0, 548.2)">T</text><text xml:space="preserve" font-family="Monaco,Monaco" font-size="38.0" fill="#37DE1B" transform="matrix(1.00, 0.00, -0.00, -1.00, 809.8, 548.2)">y</text><text xml:space="preserve" font-family="Monaco,Monaco" font-size="38.0" fill="#37DE1B" transform="matrix(1.00, 0.00, -0.00, -1.00, 832.6, 548.2)">p</text><text xml:space="preserve" font-family="Monaco,Monaco" font-size="38.0" fill="#37DE1B" transform="matrix(1.00, 0.00, -0.00, -1.00, 855.4, 548.2)">e</text><text xml:space="preserve" font-family="Monaco,Monaco" font-size="38.0" fill="#37DE1B" transform="matrix(1.00, 0.00, -0.00, -1.00, 878.2, 548.2)">|</text><text xml:space="preserve" font-family="Monaco,Monaco" font-size="38.0" fill="#37DE1B" transform="matrix(1.00, 0.00, -0.00, -1.00, 57.2, 497.2)">g</text><text xml:space="preserve" font-family="Monaco,Monaco" font-size="38.0" fill="#37DE1B" transform="matrix(1.00, 0.00, -0.00, -1.00, 80.0, 497.2)">r</text><text xml:space="preserve" font-family="Monaco,Monaco" font-size="38.0" fill="#37DE1B" transform="matrix(1.00, 0.00, -0.00, -1.00, 102.8, 497.2)">e</text><text xml:space="preserve" font-family="Monaco,Monaco" font-size="38.0" fill="#37DE1B" transform="matrix(1.00, 0.00, -0.00, -1.00, 125.6, 497.2)">p</text><text xml:space="preserve" font-family="Monaco,Monaco" font-size="38.0" fill="#37DE1B" transform="matrix(1.00, 0.00, -0.00, -1.00, 148.4, 497.2)"> </text><text xml:space="preserve" font-family="Monaco,Monaco" font-size="38.0" fill="#37DE1B" transform="matrix(1.00, 0.00, -0.00, -1.00, 171.2, 497.2)">"</text><text xml:space="preserve" font-family="Monaco,Monaco" font-size="38.0" fill="#37DE1B" transform="matrix(1.00, 0.00, -0.00, -1.00, 194.0, 497.2)">S</text><text xml:space="preserve" font-family="Monaco,Monaco" font-size="38.0" fill="#37DE1B" transform="matrix(1.00, 0.00, -0.00, -1.00, 216.8, 497.2)">e</text><text xml:space="preserve" font-family="Monaco,Monaco" font-size="38.0" fill="#37DE1B" transform="matrix(1.00, 0.00, -0.00, -1.00, 239.6, 497.2)">r</text><text xml:space="preserve" font-family="Monaco,Monaco" font-size="38.0" fill="#37DE1B" transform="matrix(1.00, 0.00, -0.00, -1.00, 262.4, 497.2)">i</text><text xml:space="preserve" font-family="Monaco,Monaco" font-size="38.0" fill="#37DE1B" transform="matrix(1.00, 0.00, -0.00, -1.00, 285.3, 497.2)">a</text><text xml:space="preserve" font-family="Monaco,Monaco" font-size="38.0" fill="#37DE1B" transform="matrix(1.00, 0.00, -0.00, -1.00, 308.1, 497.2)">l</text><text xml:space="preserve" font-family="Monaco,Monaco" font-size="38.0" fill="#37DE1B" transform="matrix(1.00, 0.00, -0.00, -1.00, 330.9, 497.2)"> </text><text xml:space="preserve" font-family="Monaco,Monaco" font-size="38.0" fill="#37DE1B" transform="matrix(1.00, 0.00, -0.00, -1.00, 353.7, 497.2)">N</text><text xml:space="preserve" font-family="Monaco,Monaco" font-size="38.0" fill="#37DE1B" transform="matrix(1.00, 0.00, -0.00, -1.00, 376.5, 497.2)">u</text><text xml:space="preserve" font-family="Monaco,Monaco" font-size="38.0" fill="#37DE1B" transform="matrix(1.00, 0.00, -0.00, -1.00, 399.3, 497.2)">m</text><text xml:space="preserve" font-family="Monaco,Monaco" font-size="38.0" fill="#37DE1B" transform="matrix(1.00, 0.00, -0.00, -1.00, 422.1, 497.2)">b</text><text xml:space="preserve" font-family="Monaco,Monaco" font-size="38.0" fill="#37DE1B" transform="matrix(1.00, 0.00, -0.00, -1.00, 444.9, 497.2)">e</text><text xml:space="preserve" font-family="Monaco,Monaco" font-size="38.0" fill="#37DE1B" transform="matrix(1.00, 0.00, -0.00, -1.00, 467.7, 497.2)">r</text><text xml:space="preserve" font-family="Monaco,Monaco" font-size="38.0" fill="#37DE1B" transform="matrix(1.00, 0.00, -0.00, -1.00, 490.5, 497.2)">"</text><text xml:space="preserve" font-family="Monaco,Monaco" font-size="38.0" fill="#37DE1B" transform="matrix(1.00, 0.00, -0.00, -1.00, 513.3, 497.2)">	</text><text xml:space="preserve" font-family="Monaco,Monaco" font-size="38.0" fill="#1497FC" transform="matrix(1.00, 0.00, -0.00, -1.00, 57.2, 446.2)"> </text><text xml:space="preserve" font-family="Monaco,Monaco" font-size="38.0" fill="#1497FC" transform="matrix(1.00, 0.00, -0.00, -1.00, 80.0, 446.2)">S</text><text xml:space="preserve" font-family="Monaco,Monaco" font-size="38.0" fill="#1497FC" transform="matrix(1.00, 0.00, -0.00, -1.00, 102.8, 446.2)">e</text><text xml:space="preserve" font-family="Monaco,Monaco" font-size="38.0" fill="#1497FC" transform="matrix(1.00, 0.00, -0.00, -1.00, 125.6, 446.2)">r</text><text xml:space="preserve" font-family="Monaco,Monaco" font-size="38.0" fill="#1497FC" transform="matrix(1.00, 0.00, -0.00, -1.00, 148.4, 446.2)">i</text><text xml:space="preserve" font-family="Monaco,Monaco" font-size="38.0" fill="#1497FC" transform="matrix(1.00, 0.00, -0.00, -1.00, 171.2, 446.2)">a</text><text xml:space="preserve" font-family="Monaco,Monaco" font-size="38.0" fill="#1497FC" transform="matrix(1.00, 0.00, -0.00, -1.00, 194.0, 446.2)">l</text><text xml:space="preserve" font-family="Monaco,Monaco" font-size="38.0" fill="#1497FC" transform="matrix(1.00, 0.00, -0.00, -1.00, 216.8, 446.2)"> </text><text xml:space="preserve" font-family="Monaco,Monaco" font-size="38.0" fill="#1497FC" transform="matrix(1.00, 0.00, -0.00, -1.00, 239.6, 446.2)">N</text><text xml:space="preserve" font-family="Monaco,Monaco" font-size="38.0" fill="#1497FC" transform="matrix(1.00, 0.00, -0.00, -1.00, 262.4, 446.2)">u</text><text xml:space="preserve" font-family="Monaco,Monaco" font-size="38.0" fill="#1497FC" transform="matrix(1.00, 0.00, -0.00, -1.00, 285.3, 446.2)">m</text><text xml:space="preserve" font-family="Monaco,Monaco" font-size="38.0" fill="#1497FC" transform="matrix(1.00, 0.00, -0.00, -1.00, 308.1, 446.2)">b</text><text xml:space="preserve" font-family="Monaco,Monaco" font-size="38.0" fill="#1497FC" transform="matrix(1.00, 0.00, -0.00, -1.00, 330.9, 446.2)">e</text><text xml:space="preserve" font-family="Monaco,Monaco" font-size="38.0" fill="#1497FC" transform="matrix(1.00, 0.00, -0.00, -1.00, 353.7, 446.2)">r</text><text xml:space="preserve" font-family="Monaco,Monaco" font-size="38.0" fill="#1497FC" transform="matrix(1.00, 0.00, -0.00, -1.00, 376.5, 446.2)"> </text><text xml:space="preserve" font-family="Monaco,Monaco" font-size="38.0" fill="#1497FC" transform="matrix(1.00, 0.00, -0.00, -1.00, 399.3, 446.2)">(</text><text xml:space="preserve" font-family="Monaco,Monaco" font-size="38.0" fill="#1497FC" transform="matrix(1.00, 0.00, -0.00, -1.00, 422.1, 446.2)">s</text><text xml:space="preserve" font-family="Monaco,Monaco" font-size="38.0" fill="#1497FC" transform="matrix(1.00, 0.00, -0.00, -1.00, 444.9, 446.2)">y</text><text xml:space="preserve" font-family="Monaco,Monaco" font-size="38.0" fill="#1497FC" transform="matrix(1.00, 0.00, -0.00, -1.00, 467.7, 446.2)">s</text><text xml:space="preserve" font-family="Monaco,Monaco" font-size="38.0" fill="#1497FC" transform="matrix(1.00, 0.00, -0.00, -1.00, 490.5, 446.2)">t</text><text xml:space="preserve" font-family="Monaco,Monaco" font-size="38.0" fill="#1497FC" transform="matrix(1.00, 0.00, -0.00, -1.00, 513.3, 446.2)">e</text><text xml:space="preserve" font-family="Monaco,Monaco" font-size="38.0" fill="#1497FC" transform="matrix(1.00, 0.00, -0.00, -1.00, 536.1, 446.2)">m</text><text xml:space="preserve" font-family="Monaco,Monaco" font-size="38.0" fill="#1497FC" transform="matrix(1.00, 0.00, -0.00, -1.00, 558.9, 446.2)">)</text><text xml:space="preserve" font-family="Monaco,Monaco" font-size="38.0" fill="#1497FC" transform="matrix(1.00, 0.00, -0.00, -1.00, 581.7, 446.2)">:</text><text xml:space="preserve" font-family="Monaco,Monaco" font-size="38.0" fill="#1497FC" transform="matrix(1.00, 0.00, -0.00, -1.00, 604.6, 446.2)"> </text><text xml:space="preserve" font-family="Monaco,Monaco" font-size="38.0" fill="#37DE1B" transform="matrix(1.00, 0.00, -0.00, -1.00, 627.3, 446.2)">C</text><text xml:space="preserve" font-family="Monaco,Monaco" font-size="38.0" fill="#37DE1B" transform="matrix(1.00, 0.00, -0.00, -1.00, 650.1, 446.2)">0</text><text xml:space="preserve" font-family="Monaco,Monaco" font-size="38.0" fill="#37DE1B" transform="matrix(1.00, 0.00, -0.00, -1.00, 672.9, 446.2)">2</text><text xml:space="preserve" font-family="Monaco,Monaco" font-size="38.0" fill="#37DE1B" transform="matrix(1.00, 0.00, -0.00, -1.00, 695.7, 446.2)">F</text><text xml:space="preserve" font-family="Monaco,Monaco" font-size="38.0" fill="#37DE1B" transform="matrix(1.00, 0.00, -0.00, -1.00, 718.5, 446.2)">G</text><text xml:space="preserve" font-family="Monaco,Monaco" font-size="38.0" fill="#37DE1B" transform="matrix(1.00, 0.00, -0.00, -1.00, 741.3, 446.2)">7</text><text xml:space="preserve" font-family="Monaco,Monaco" font-size="38.0" fill="#37DE1B" transform="matrix(1.00, 0.00, -0.00, -1.00, 764.1, 446.2)">Q</text><text xml:space="preserve" font-family="Monaco,Monaco" font-size="38.0" fill="#37DE1B" transform="matrix(1.00, 0.00, -0.00, -1.00, 786.9, 446.2)">G</text><text xml:space="preserve" font-family="Monaco,Monaco" font-size="38.0" fill="#37DE1B" transform="matrix(1.00, 0.00, -0.00, -1.00, 809.7, 446.2)">F</text><text xml:space="preserve" font-family="Monaco,Monaco" font-size="38.0" fill="#37DE1B" transform="matrix(1.00, 0.00, -0.00, -1.00, 832.5, 446.2)">7</text><text xml:space="preserve" font-family="Monaco,Monaco" font-size="38.0" fill="#37DE1B" transform="matrix(1.00, 0.00, -0.00, -1.00, 855.3, 446.2)">F</text><text xml:space="preserve" font-family="Monaco,Monaco" font-size="38.0" fill="#37DE1B" transform="matrix(1.00, 0.00, -0.00, -1.00, 878.2, 446.2)">G</text><text xml:space="preserve" font-family="Monaco,Monaco" font-size="38.0" fill="#37DE1B" transform="matrix(1.00, 0.00, -0.00, -1.00, 900.9, 446.2)">	</text><text xml:space="preserve" font-family="Monaco,Monaco" font-size="38.0" fill="#37DE1B" transform="matrix(1.00, 0.00, -0.00, -1.00, 57.2, 344.2)">$</text><text xml:space="preserve" font-family="Monaco,Monaco" font-size="38.0" fill="#37DE1B" transform="matrix(1.00, 0.00, -0.00, -1.00, 80.0, 344.2)"> </text><text xml:space="preserve" font-family="Monaco,Monaco" font-size="38.0" fill="#37DE1B" transform="matrix(1.00, 0.00, -0.00, -1.00, 102.8, 344.2)">s</text><text xml:space="preserve" font-family="Monaco,Monaco" font-size="38.0" fill="#37DE1B" transform="matrix(1.00, 0.00, -0.00, -1.00, 125.6, 344.2)">y</text><text xml:space="preserve" font-family="Monaco,Monaco" font-size="38.0" fill="#37DE1B" transform="matrix(1.00, 0.00, -0.00, -1.00, 148.4, 344.2)">s</text><text xml:space="preserve" font-family="Monaco,Monaco" font-size="38.0" fill="#37DE1B" transform="matrix(1.00, 0.00, -0.00, -1.00, 171.2, 344.2)">t</text><text xml:space="preserve" font-family="Monaco,Monaco" font-size="38.0" fill="#37DE1B" transform="matrix(1.00, 0.00, -0.00, -1.00, 194.0, 344.2)">e</text><text xml:space="preserve" font-family="Monaco,Monaco" font-size="38.0" fill="#37DE1B" transform="matrix(1.00, 0.00, -0.00, -1.00, 216.8, 344.2)">m</text><text xml:space="preserve" font-family="Monaco,Monaco" font-size="38.0" fill="#37DE1B" transform="matrix(1.00, 0.00, -0.00, -1.00, 239.6, 344.2)">_</text><text xml:space="preserve" font-family="Monaco,Monaco" font-size="38.0" fill="#37DE1B" transform="matrix(1.00, 0.00, -0.00, -1.00, 262.4, 344.2)">p</text><text xml:space="preserve" font-family="Monaco,Monaco" font-size="38.0" fill="#37DE1B" transform="matrix(1.00, 0.00, -0.00, -1.00, 285.3, 344.2)">r</text><text xml:space="preserve" font-family="Monaco,Monaco" font-size="38.0" fill="#37DE1B" transform="matrix(1.00, 0.00, -0.00, -1.00, 308.1, 344.2)">o</text><text xml:space="preserve" font-family="Monaco,Monaco" font-size="38.0" fill="#37DE1B" transform="matrix(1.00, 0.00, -0.00, -1.00, 330.9, 344.2)">f</text><text xml:space="preserve" font-family="Monaco,Monaco" font-size="38.0" fill="#37DE1B" transform="matrix(1.00, 0.00, -0.00, -1.00, 353.7, 344.2)">i</text><text xml:space="preserve" font-family="Monaco,Monaco" font-size="38.0" fill="#37DE1B" transform="matrix(1.00, 0.00, -0.00, -1.00, 376.5, 344.2)">l</text><text xml:space="preserve" font-family="Monaco,Monaco" font-size="38.0" fill="#37DE1B" transform="matrix(1.00, 0.00, -0.00, -1.00, 399.3, 344.2)">e</text><text xml:space="preserve" font-family="Monaco,Monaco" font-size="38.0" fill="#37DE1B" transform="matrix(1.00, 0.00, -0.00, -1.00, 422.1, 344.2)">r</text><text xml:space="preserve" font-family="Monaco,Monaco" font-size="38.0" fill="#37DE1B" transform="matrix(1.00, 0.00, -0.00, -1.00, 444.9, 344.2)"> </text><text xml:space="preserve" font-family="Monaco,Monaco" font-size="38.0" fill="#37DE1B" transform="matrix(1.00, 0.00, -0.00, -1.00, 467.7, 344.2)">S</text><text xml:space="preserve" font-family="Monaco,Monaco" font-size="38.0" fill="#37DE1B" transform="matrix(1.00, 0.00, -0.00, -1.00, 490.5, 344.2)">P</text><text xml:space="preserve" font-family="Monaco,Monaco" font-size="38.0" fill="#37DE1B" transform="matrix(1.00, 0.00, -0.00, -1.00, 513.3, 344.2)">H</text><text xml:space="preserve" font-family="Monaco,Monaco" font-size="38.0" fill="#37DE1B" transform="matrix(1.00, 0.00, -0.00, -1.00, 536.1, 344.2)">a</text><text xml:space="preserve" font-family="Monaco,Monaco" font-size="38.0" fill="#37DE1B" transform="matrix(1.00, 0.00, -0.00, -1.00, 558.9, 344.2)">r</text><text xml:space="preserve" font-family="Monaco,Monaco" font-size="38.0" fill="#37DE1B" transform="matrix(1.00, 0.00, -0.00, -1.00, 581.7, 344.2)">d</text><text xml:space="preserve" font-family="Monaco,Monaco" font-size="38.0" fill="#37DE1B" transform="matrix(1.00, 0.00, -0.00, -1.00, 604.6, 344.2)">w</text><text xml:space="preserve" font-family="Monaco,Monaco" font-size="38.0" fill="#37DE1B" transform="matrix(1.00, 0.00, -0.00, -1.00, 627.4, 344.2)">a</text><text xml:space="preserve" font-family="Monaco,Monaco" font-size="38.0" fill="#37DE1B" transform="matrix(1.00, 0.00, -0.00, -1.00, 650.2, 344.2)">r</text><text xml:space="preserve" font-family="Monaco,Monaco" font-size="38.0" fill="#37DE1B" transform="matrix(1.00, 0.00, -0.00, -1.00, 673.0, 344.2)">e</text><text xml:space="preserve" font-family="Monaco,Monaco" font-size="38.0" fill="#37DE1B" transform="matrix(1.00, 0.00, -0.00, -1.00, 695.8, 344.2)">D</text><text xml:space="preserve" font-family="Monaco,Monaco" font-size="38.0" fill="#37DE1B" transform="matrix(1.00, 0.00, -0.00, -1.00, 718.6, 344.2)">a</text><text xml:space="preserve" font-family="Monaco,Monaco" font-size="38.0" fill="#37DE1B" transform="matrix(1.00, 0.00, -0.00, -1.00, 741.4, 344.2)">t</text><text xml:space="preserve" font-family="Monaco,Monaco" font-size="38.0" fill="#37DE1B" transform="matrix(1.00, 0.00, -0.00, -1.00, 764.2, 344.2)">a</text><text xml:space="preserve" font-family="Monaco,Monaco" font-size="38.0" fill="#37DE1B" transform="matrix(1.00, 0.00, -0.00, -1.00, 787.0, 344.2)">T</text><text xml:space="preserve" font-family="Monaco,Monaco" font-size="38.0" fill="#37DE1B" transform="matrix(1.00, 0.00, -0.00, -1.00, 809.8, 344.2)">y</text><text xml:space="preserve" font-family="Monaco,Monaco" font-size="38.0" fill="#37DE1B" transform="matrix(1.00, 0.00, -0.00, -1.00, 832.6, 344.2)">p</text><text xml:space="preserve" font-family="Monaco,Monaco" font-size="38.0" fill="#37DE1B" transform="matrix(1.00, 0.00, -0.00, -1.00, 855.4, 344.2)">e</text><text xml:space="preserve" font-family="Monaco,Monaco" font-size="38.0" fill="#37DE1B" transform="matrix(1.00, 0.00, -0.00, -1.00, 878.2, 344.2)">|</text><text xml:space="preserve" font-family="Monaco,Monaco" font-size="38.0" fill="#37DE1B" transform="matrix(1.00, 0.00, -0.00, -1.00, 57.2, 293.2)">g</text><text xml:space="preserve" font-family="Monaco,Monaco" font-size="38.0" fill="#37DE1B" transform="matrix(1.00, 0.00, -0.00, -1.00, 80.0, 293.2)">r</text><text xml:space="preserve" font-family="Monaco,Monaco" font-size="38.0" fill="#37DE1B" transform="matrix(1.00, 0.00, -0.00, -1.00, 102.8, 293.2)">e</text><text xml:space="preserve" font-family="Monaco,Monaco" font-size="38.0" fill="#37DE1B" transform="matrix(1.00, 0.00, -0.00, -1.00, 125.6, 293.2)">p</text><text xml:space="preserve" font-family="Monaco,Monaco" font-size="38.0" fill="#37DE1B" transform="matrix(1.00, 0.00, -0.00, -1.00, 148.4, 293.2)"> </text><text xml:space="preserve" font-family="Monaco,Monaco" font-size="38.0" fill="#37DE1B" transform="matrix(1.00, 0.00, -0.00, -1.00, 171.2, 293.2)">"</text><text xml:space="preserve" font-family="Monaco,Monaco" font-size="38.0" fill="#37DE1B" transform="matrix(1.00, 0.00, -0.00, -1.00, 194.0, 293.2)">S</text><text xml:space="preserve" font-family="Monaco,Monaco" font-size="38.0" fill="#37DE1B" transform="matrix(1.00, 0.00, -0.00, -1.00, 216.8, 293.2)">e</text><text xml:space="preserve" font-family="Monaco,Monaco" font-size="38.0" fill="#37DE1B" transform="matrix(1.00, 0.00, -0.00, -1.00, 239.6, 293.2)">r</text><text xml:space="preserve" font-family="Monaco,Monaco" font-size="38.0" fill="#37DE1B" transform="matrix(1.00, 0.00, -0.00, -1.00, 262.4, 293.2)">i</text><text xml:space="preserve" font-family="Monaco,Monaco" font-size="38.0" fill="#37DE1B" transform="matrix(1.00, 0.00, -0.00, -1.00, 285.3, 293.2)">a</text><text xml:space="preserve" font-family="Monaco,Monaco" font-size="38.0" fill="#37DE1B" transform="matrix(1.00, 0.00, -0.00, -1.00, 308.1, 293.2)">l</text><text xml:space="preserve" font-family="Monaco,Monaco" font-size="38.0" fill="#37DE1B" transform="matrix(1.00, 0.00, -0.00, -1.00, 330.9, 293.2)"> </text><text xml:space="preserve" font-family="Monaco,Monaco" font-size="38.0" fill="#37DE1B" transform="matrix(1.00, 0.00, -0.00, -1.00, 353.7, 293.2)">N</text><text xml:space="preserve" font-family="Monaco,Monaco" font-size="38.0" fill="#37DE1B" transform="matrix(1.00, 0.00, -0.00, -1.00, 376.5, 293.2)">u</text><text xml:space="preserve" font-family="Monaco,Monaco" font-size="38.0" fill="#37DE1B" transform="matrix(1.00, 0.00, -0.00, -1.00, 399.3, 293.2)">m</text><text xml:space="preserve" font-family="Monaco,Monaco" font-size="38.0" fill="#37DE1B" transform="matrix(1.00, 0.00, -0.00, -1.00, 422.1, 293.2)">b</text><text xml:space="preserve" font-family="Monaco,Monaco" font-size="38.0" fill="#37DE1B" transform="matrix(1.00, 0.00, -0.00, -1.00, 444.9, 293.2)">e</text><text xml:space="preserve" font-family="Monaco,Monaco" font-size="38.0" fill="#37DE1B" transform="matrix(1.00, 0.00, -0.00, -1.00, 467.7, 293.2)">r</text><text xml:space="preserve" font-family="Monaco,Monaco" font-size="38.0" fill="#37DE1B" transform="matrix(1.00, 0.00, -0.00, -1.00, 490.5, 293.2)">"</text><text xml:space="preserve" font-family="Monaco,Monaco" font-size="38.0" fill="#37DE1B" transform="matrix(1.00, 0.00, -0.00, -1.00, 513.3, 293.2)">|</text><text xml:space="preserve" font-family="Monaco,Monaco" font-size="38.0" fill="#37DE1B" transform="matrix(1.00, 0.00, -0.00, -1.00, 536.1, 293.2)"> </text><text xml:space="preserve" font-family="Monaco,Monaco" font-size="38.0" fill="#37DE1B" transform="matrix(1.00, 0.00, -0.00, -1.00, 558.9, 293.2)">s</text><text xml:space="preserve" font-family="Monaco,Monaco" font-size="38.0" fill="#37DE1B" transform="matrix(1.00, 0.00, -0.00, -1.00, 581.7, 293.2)">e</text><text xml:space="preserve" font-family="Monaco,Monaco" font-size="38.0" fill="#37DE1B" transform="matrix(1.00, 0.00, -0.00, -1.00, 604.6, 293.2)">d</text><text xml:space="preserve" font-family="Monaco,Monaco" font-size="38.0" fill="#37DE1B" transform="matrix(1.00, 0.00, -0.00, -1.00, 627.4, 293.2)"> </text><text xml:space="preserve" font-family="Monaco,Monaco" font-size="38.0" fill="#37DE1B" transform="matrix(1.00, 0.00, -0.00, -1.00, 650.2, 293.2)">s</text><text xml:space="preserve" font-family="Monaco,Monaco" font-size="38.0" fill="#37DE1B" transform="matrix(1.00, 0.00, -0.00, -1.00, 673.0, 293.2)">/</text><text xml:space="preserve" font-family="Monaco,Monaco" font-size="38.0" fill="#1497FC" transform="matrix(1.00, 0.00, -0.00, -1.00, 695.7, 293.2)">\</text><text xml:space="preserve" font-family="Monaco,Monaco" font-size="38.0" fill="#1497FC" transform="matrix(1.00, 0.00, -0.00, -1.00, 718.5, 293.2)"> </text><text xml:space="preserve" font-family="Monaco,Monaco" font-size="38.0" fill="#1497FC" transform="matrix(1.00, 0.00, -0.00, -1.00, 741.3, 293.2)">*</text><text xml:space="preserve" font-family="Monaco,Monaco" font-size="38.0" fill="#1497FC" transform="matrix(1.00, 0.00, -0.00, -1.00, 764.1, 293.2)">S</text><text xml:space="preserve" font-family="Monaco,Monaco" font-size="38.0" fill="#1497FC" transform="matrix(1.00, 0.00, -0.00, -1.00, 786.9, 293.2)">e</text><text xml:space="preserve" font-family="Monaco,Monaco" font-size="38.0" fill="#1497FC" transform="matrix(1.00, 0.00, -0.00, -1.00, 809.7, 293.2)">r</text><text xml:space="preserve" font-family="Monaco,Monaco" font-size="38.0" fill="#1497FC" transform="matrix(1.00, 0.00, -0.00, -1.00, 832.5, 293.2)">i</text><text xml:space="preserve" font-family="Monaco,Monaco" font-size="38.0" fill="#1497FC" transform="matrix(1.00, 0.00, -0.00, -1.00, 855.3, 293.2)">a</text><text xml:space="preserve" font-family="Monaco,Monaco" font-size="38.0" fill="#1497FC" transform="matrix(1.00, 0.00, -0.00, -1.00, 878.1, 293.2)">l</text><text xml:space="preserve" font-family="Monaco,Monaco" font-size="38.0" fill="#1497FC" transform="matrix(1.00, 0.00, -0.00, -1.00, 900.9, 293.2)">\</text><text xml:space="preserve" font-family="Monaco,Monaco" font-size="38.0" fill="#1497FC" transform="matrix(1.00, 0.00, -0.00, -1.00, 923.8, 293.2)"> </text><text xml:space="preserve" font-family="Monaco,Monaco" font-size="38.0" fill="#1497FC" transform="matrix(1.00, 0.00, -0.00, -1.00, 57.2, 242.2)">N</text><text xml:space="preserve" font-family="Monaco,Monaco" font-size="38.0" fill="#1497FC" transform="matrix(1.00, 0.00, -0.00, -1.00, 80.0, 242.2)">u</text><text xml:space="preserve" font-family="Monaco,Monaco" font-size="38.0" fill="#1497FC" transform="matrix(1.00, 0.00, -0.00, -1.00, 102.8, 242.2)">m</text><text xml:space="preserve" font-family="Monaco,Monaco" font-size="38.0" fill="#1497FC" transform="matrix(1.00, 0.00, -0.00, -1.00, 125.6, 242.2)">b</text><text xml:space="preserve" font-family="Monaco,Monaco" font-size="38.0" fill="#1497FC" transform="matrix(1.00, 0.00, -0.00, -1.00, 148.4, 242.2)">e</text><text xml:space="preserve" font-family="Monaco,Monaco" font-size="38.0" fill="#1497FC" transform="matrix(1.00, 0.00, -0.00, -1.00, 171.2, 242.2)">r</text><text xml:space="preserve" font-family="Monaco,Monaco" font-size="38.0" fill="#1497FC" transform="matrix(1.00, 0.00, -0.00, -1.00, 194.0, 242.2)">\</text><text xml:space="preserve" font-family="Monaco,Monaco" font-size="38.0" fill="#1497FC" transform="matrix(1.00, 0.00, -0.00, -1.00, 216.8, 242.2)"> </text><text xml:space="preserve" font-family="Monaco,Monaco" font-size="38.0" fill="#1497FC" transform="matrix(1.00, 0.00, -0.00, -1.00, 239.6, 242.2)">\</text><text xml:space="preserve" font-family="Monaco,Monaco" font-size="38.0" fill="#1497FC" transform="matrix(1.00, 0.00, -0.00, -1.00, 262.4, 242.2)">(</text><text xml:space="preserve" font-family="Monaco,Monaco" font-size="38.0" fill="#1497FC" transform="matrix(1.00, 0.00, -0.00, -1.00, 285.3, 242.2)">s</text><text xml:space="preserve" font-family="Monaco,Monaco" font-size="38.0" fill="#1497FC" transform="matrix(1.00, 0.00, -0.00, -1.00, 308.1, 242.2)">y</text><text xml:space="preserve" font-family="Monaco,Monaco" font-size="38.0" fill="#1497FC" transform="matrix(1.00, 0.00, -0.00, -1.00, 330.9, 242.2)">s</text><text xml:space="preserve" font-family="Monaco,Monaco" font-size="38.0" fill="#1497FC" transform="matrix(1.00, 0.00, -0.00, -1.00, 353.7, 242.2)">t</text><text xml:space="preserve" font-family="Monaco,Monaco" font-size="38.0" fill="#1497FC" transform="matrix(1.00, 0.00, -0.00, -1.00, 376.5, 242.2)">e</text><text xml:space="preserve" font-family="Monaco,Monaco" font-size="38.0" fill="#1497FC" transform="matrix(1.00, 0.00, -0.00, -1.00, 399.3, 242.2)">m</text><text xml:space="preserve" font-family="Monaco,Monaco" font-size="38.0" fill="#1497FC" transform="matrix(1.00, 0.00, -0.00, -1.00, 422.1, 242.2)">\</text><text xml:space="preserve" font-family="Monaco,Monaco" font-size="38.0" fill="#1497FC" transform="matrix(1.00, 0.00, -0.00, -1.00, 444.9, 242.2)">)</text><text xml:space="preserve" font-family="Monaco,Monaco" font-size="38.0" fill="#1497FC" transform="matrix(1.00, 0.00, -0.00, -1.00, 467.7, 242.2)">:</text><text xml:space="preserve" font-family="Monaco,Monaco" font-size="38.0" fill="#1497FC" transform="matrix(1.00, 0.00, -0.00, -1.00, 490.5, 242.2)">\</text><text xml:space="preserve" font-family="Monaco,Monaco" font-size="38.0" fill="#1497FC" transform="matrix(1.00, 0.00, -0.00, -1.00, 513.3, 242.2)"> </text><text xml:space="preserve" font-family="Monaco,Monaco" font-size="38.0" fill="#37DE1B" transform="matrix(1.00, 0.00, -0.00, -1.00, 536.1, 242.2)">/</text><text xml:space="preserve" font-family="Monaco,Monaco" font-size="38.0" fill="#37DE1B" transform="matrix(1.00, 0.00, -0.00, -1.00, 558.9, 242.2)">/</text><text xml:space="preserve" font-family="Monaco,Monaco" font-size="38.0" fill="#37DE1B" transform="matrix(1.00, 0.00, -0.00, -1.00, 581.7, 242.2)">	</text><text xml:space="preserve" font-family="Monaco,Monaco" font-size="38.0" fill="#37DE1B" transform="matrix(1.00, 0.00, -0.00, -1.00, 57.2, 191.2)"> </text><text xml:space="preserve" font-family="Monaco,Monaco" font-size="38.0" fill="#37DE1B" transform="matrix(1.00, 0.00, -0.00, -1.00, 80.0, 191.2)">C</text><text xml:space="preserve" font-family="Monaco,Monaco" font-size="38.0" fill="#37DE1B" transform="matrix(1.00, 0.00, -0.00, -1.00, 102.8, 191.2)">0</text><text xml:space="preserve" font-family="Monaco,Monaco" font-size="38.0" fill="#37DE1B" transform="matrix(1.00, 0.00, -0.00, -1.00, 125.6, 191.2)">2</text><text xml:space="preserve" font-family="Monaco,Monaco" font-size="38.0" fill="#37DE1B" transform="matrix(1.00, 0.00, -0.00, -1.00, 148.4, 191.2)">F</text><text xml:space="preserve" font-family="Monaco,Monaco" font-size="38.0" fill="#37DE1B" transform="matrix(1.00, 0.00, -0.00, -1.00, 171.2, 191.2)">G</text><text xml:space="preserve" font-family="Monaco,Monaco" font-size="38.0" fill="#37DE1B" transform="matrix(1.00, 0.00, -0.00, -1.00, 194.0, 191.2)">7</text><text xml:space="preserve" font-family="Monaco,Monaco" font-size="38.0" fill="#37DE1B" transform="matrix(1.00, 0.00, -0.00, -1.00, 216.8, 191.2)">Q</text><text xml:space="preserve" font-family="Monaco,Monaco" font-size="38.0" fill="#37DE1B" transform="matrix(1.00, 0.00, -0.00, -1.00, 239.6, 191.2)">G</text><text xml:space="preserve" font-family="Monaco,Monaco" font-size="38.0" fill="#37DE1B" transform="matrix(1.00, 0.00, -0.00, -1.00, 262.4, 191.2)">F</text><text xml:space="preserve" font-family="Monaco,Monaco" font-size="38.0" fill="#37DE1B" transform="matrix(1.00, 0.00, -0.00, -1.00, 285.2, 191.2)">7</text><text xml:space="preserve" font-family="Monaco,Monaco" font-size="38.0" fill="#37DE1B" transform="matrix(1.00, 0.00, -0.00, -1.00, 308.0, 191.2)">F</text><text xml:space="preserve" font-family="Monaco,Monaco" font-size="38.0" fill="#37DE1B" transform="matrix(1.00, 0.00, -0.00, -1.00, 330.8, 191.2)">G</text></g></svg>