<?xml version="1.0" encoding="UTF-8" standalone="no"?><svg xmlns="http://www.w3.org/2000/svg" xmlns:xlink="http://www.w3.org/1999/xlink" clip-rule="evenodd" stroke-miterlimit="10" viewBox="0 0 1024 768"><desc>SVG generated by Keynote</desc><defs></defs><g transform="matrix(1.00, 0.00, -0.00, -1.00, 0.0, 768.0)"><path d="M 0.0 768.0 L 1024.0 768.0 L 1024.0 0.0 L 0.0 0.0 Z M 0.0 768.0 " fill="#000000"></path><image xlink:href="../../ACF26528-510F-4087-92A7-D9431E4A7675/assets/C07D05C049E9C3A813AD52BFC7182A2D.png" width="983.00" height="584.00" transform="matrix(1.00, 0.00, -0.00, -1.00, 10.2, 664.7)" opacity="0.75"></image><image xlink:href="../../ACF26528-510F-4087-92A7-D9431E4A7675/assets/B8B89F8D2E49298F363D8341A9D067FB.png" width="963.00" height="564.00" transform="matrix(1.00, 0.00, -0.00, -1.00, 30.0, 666.0)"></image><text xml:space="preserve" font-family="LucidaGrande,Lucida Grande" font-size="22.0" fill="#FEFFFE" transform="matrix(1.00, 0.00, -0.00, -1.00, 332.4, 11.6)">F</text><text xml:space="preserve" font-family="LucidaGrande,Lucida Grande" font-size="22.0" fill="#FEFFFE" transform="matrix(1.00, 0.00, -0.00, -1.00, 344.2, 11.6)">e</text><text xml:space="preserve" font-family="LucidaGrande,Lucida Grande" font-size="22.0" fill="#FEFFFE" transform="matrix(1.00, 0.00, -0.00, -1.00, 356.4, 11.6)">e</text><text xml:space="preserve" font-family="LucidaGrande,Lucida Grande" font-size="22.0" fill="#FEFFFE" transform="matrix(1.00, 0.00, -0.00, -1.00, 368.7, 11.6)">d</text><text xml:space="preserve" font-family="LucidaGrande,Lucida Grande" font-size="22.0" fill="#FEFFFE" transform="matrix(1.00, 0.00, -0.00, -1.00, 382.5, 11.6)">b</text><text xml:space="preserve" font-family="LucidaGrande,Lucida Grande" font-size="22.0" fill="#FEFFFE" transform="matrix(1.00, 0.00, -0.00, -1.00, 396.4, 11.6)">a</text><text xml:space="preserve" font-family="LucidaGrande,Lucida Grande" font-size="22.0" fill="#FEFFFE" transform="matrix(1.00, 0.00, -0.00, -1.00, 408.5, 11.6)">c</text><text xml:space="preserve" font-family="LucidaGrande,Lucida Grande" font-size="22.0" fill="#FEFFFE" transform="matrix(1.00, 0.00, -0.00, -1.00, 419.8, 11.6)">k</text><text xml:space="preserve" font-family="LucidaGrande,Lucida Grande" font-size="22.0" fill="#FEFFFE" transform="matrix(1.00, 0.00, -0.00, -1.00, 432.7, 11.6)">:</text><text xml:space="preserve" font-family="LucidaGrande,Lucida Grande" font-size="22.0" fill="#FEFFFE" transform="matrix(1.00, 0.00, -0.00, -1.00, 439.6, 11.6)"> </text><text xml:space="preserve" font-family="LucidaGrande,Lucida Grande" font-size="22.0" fill="#FEFFFE" transform="matrix(1.00, 0.00, -0.00, -1.00, 446.6, 11.6)">h</text><text xml:space="preserve" font-family="LucidaGrande,Lucida Grande" font-size="22.0" fill="#FEFFFE" transform="matrix(1.00, 0.00, -0.00, -1.00, 460.2, 11.6)">t</text><text xml:space="preserve" font-family="LucidaGrande,Lucida Grande" font-size="22.0" fill="#FEFFFE" transform="matrix(1.00, 0.00, -0.00, -1.00, 468.4, 11.6)">t</text><text xml:space="preserve" font-family="LucidaGrande,Lucida Grande" font-size="22.0" fill="#FEFFFE" transform="matrix(1.00, 0.00, -0.00, -1.00, 476.7, 11.6)">p</text><text xml:space="preserve" font-family="LucidaGrande,Lucida Grande" font-size="22.0" fill="#FEFFFE" transform="matrix(1.00, 0.00, -0.00, -1.00, 490.5, 11.6)">:</text><text xml:space="preserve" font-family="LucidaGrande,Lucida Grande" font-size="22.0" fill="#FEFFFE" transform="matrix(1.00, 0.00, -0.00, -1.00, 497.5, 11.6)">/</text><text xml:space="preserve" font-family="LucidaGrande,Lucida Grande" font-size="22.0" fill="#FEFFFE" transform="matrix(1.00, 0.00, -0.00, -1.00, 509.0, 11.6)">/</text><text xml:space="preserve" font-family="LucidaGrande,Lucida Grande" font-size="22.0" fill="#FEFFFE" transform="matrix(1.00, 0.00, -0.00, -1.00, 520.6, 11.6)">j</text><text xml:space="preserve" font-family="LucidaGrande,Lucida Grande" font-size="22.0" fill="#FEFFFE" transform="matrix(1.00, 0.00, -0.00, -1.00, 527.3, 11.6)">.</text><text xml:space="preserve" font-family="LucidaGrande,Lucida Grande" font-size="22.0" fill="#FEFFFE" transform="matrix(1.00, 0.00, -0.00, -1.00, 534.3, 11.6)">m</text><text xml:space="preserve" font-family="LucidaGrande,Lucida Grande" font-size="22.0" fill="#FEFFFE" transform="matrix(1.00, 0.00, -0.00, -1.00, 554.8, 11.6)">p</text><text xml:space="preserve" font-family="LucidaGrande,Lucida Grande" font-size="22.0" fill="#FEFFFE" transform="matrix(1.00, 0.00, -0.00, -1.00, 568.6, 11.6)">/</text><text xml:space="preserve" font-family="LucidaGrande,Lucida Grande" font-size="22.0" fill="#FEFFFE" transform="matrix(1.00, 0.00, -0.00, -1.00, 580.2, 11.6)">p</text><text xml:space="preserve" font-family="LucidaGrande,Lucida Grande" font-size="22.0" fill="#FEFFFE" transform="matrix(1.00, 0.00, -0.00, -1.00, 594.0, 11.6)">s</text><text xml:space="preserve" font-family="LucidaGrande,Lucida Grande" font-size="22.0" fill="#FEFFFE" transform="matrix(1.00, 0.00, -0.00, -1.00, 605.3, 11.6)">u</text><text xml:space="preserve" font-family="LucidaGrande,Lucida Grande" font-size="22.0" fill="#FEFFFE" transform="matrix(1.00, 0.00, -0.00, -1.00, 618.9, 11.6)">m</text><text xml:space="preserve" font-family="LucidaGrande,Lucida Grande" font-size="22.0" fill="#FEFFFE" transform="matrix(1.00, 0.00, -0.00, -1.00, 639.4, 11.6)">a</text><text xml:space="preserve" font-family="LucidaGrande,Lucida Grande" font-size="22.0" fill="#FEFFFE" transform="matrix(1.00, 0.00, -0.00, -1.00, 651.6, 11.6)">c</text><text xml:space="preserve" font-family="LucidaGrande,Lucida Grande" font-size="22.0" fill="#FEFFFE" transform="matrix(1.00, 0.00, -0.00, -1.00, 662.9, 11.6)">1</text><text xml:space="preserve" font-family="LucidaGrande,Lucida Grande" font-size="22.0" fill="#FEFFFE" transform="matrix(1.00, 0.00, -0.00, -1.00, 676.8, 11.6)">3</text><text xml:space="preserve" font-family="Monaco,Monaco" font-size="28.0" fill="#37DE1B" transform="matrix(1.00, 0.00, -0.00, -1.00, 57.2, 558.8)">N</text><text xml:space="preserve" font-family="Monaco,Monaco" font-size="28.0" fill="#37DE1B" transform="matrix(1.00, 0.00, -0.00, -1.00, 74.0, 558.8)">A</text><text xml:space="preserve" font-family="Monaco,Monaco" font-size="28.0" fill="#37DE1B" transform="matrix(1.00, 0.00, -0.00, -1.00, 90.8, 558.8)">M</text><text xml:space="preserve" font-family="Monaco,Monaco" font-size="28.0" fill="#37DE1B" transform="matrix(1.00, 0.00, -0.00, -1.00, 107.6, 558.8)">E</text><text xml:space="preserve" font-family="Monaco,Monaco" font-size="28.0" fill="#37DE1B" transform="matrix(1.00, 0.00, -0.00, -1.00, 124.4, 558.8)">	</text><text xml:space="preserve" font-family="Monaco,Monaco" font-size="28.0" fill="#37DE1B" transform="matrix(1.00, 0.00, -0.00, -1.00, 57.2, 521.8)"> </text><text xml:space="preserve" font-family="Monaco,Monaco" font-size="28.0" fill="#37DE1B" transform="matrix(1.00, 0.00, -0.00, -1.00, 74.0, 521.8)"> </text><text xml:space="preserve" font-family="Monaco,Monaco" font-size="28.0" fill="#37DE1B" transform="matrix(1.00, 0.00, -0.00, -1.00, 90.8, 521.8)"> </text><text xml:space="preserve" font-family="Monaco,Monaco" font-size="28.0" fill="#37DE1B" transform="matrix(1.00, 0.00, -0.00, -1.00, 107.6, 521.8)"> </text><text xml:space="preserve" font-family="Monaco,Monaco" font-size="28.0" fill="#37DE1B" transform="matrix(1.00, 0.00, -0.00, -1.00, 124.4, 521.8)"> </text><text xml:space="preserve" font-family="Monaco,Monaco" font-size="28.0" fill="#37DE1B" transform="matrix(1.00, 0.00, -0.00, -1.00, 141.2, 521.8)"> </text><text xml:space="preserve" font-family="Monaco,Monaco" font-size="28.0" fill="#37DE1B" transform="matrix(1.00, 0.00, -0.00, -1.00, 158.0, 521.8)"> </text><text xml:space="preserve" font-family="Monaco,Monaco" font-size="28.0" fill="#37DE1B" transform="matrix(1.00, 0.00, -0.00, -1.00, 174.8, 521.8)">c</text><text xml:space="preserve" font-family="Monaco,Monaco" font-size="28.0" fill="#37DE1B" transform="matrix(1.00, 0.00, -0.00, -1.00, 191.6, 521.8)">l</text><text xml:space="preserve" font-family="Monaco,Monaco" font-size="28.0" fill="#37DE1B" transform="matrix(1.00, 0.00, -0.00, -1.00, 208.4, 521.8)">e</text><text xml:space="preserve" font-family="Monaco,Monaco" font-size="28.0" fill="#37DE1B" transform="matrix(1.00, 0.00, -0.00, -1.00, 225.2, 521.8)">a</text><text xml:space="preserve" font-family="Monaco,Monaco" font-size="28.0" fill="#37DE1B" transform="matrix(1.00, 0.00, -0.00, -1.00, 242.0, 521.8)">r</text><text xml:space="preserve" font-family="Monaco,Monaco" font-size="28.0" fill="#37DE1B" transform="matrix(1.00, 0.00, -0.00, -1.00, 258.8, 521.8)"> </text><text xml:space="preserve" font-family="Monaco,Monaco" font-size="28.0" fill="#37DE1B" transform="matrix(1.00, 0.00, -0.00, -1.00, 275.6, 521.8)">-</text><text xml:space="preserve" font-family="Monaco,Monaco" font-size="28.0" fill="#37DE1B" transform="matrix(1.00, 0.00, -0.00, -1.00, 292.5, 521.8)"> </text><text xml:space="preserve" font-family="Monaco,Monaco" font-size="28.0" fill="#37DE1B" transform="matrix(1.00, 0.00, -0.00, -1.00, 309.3, 521.8)">c</text><text xml:space="preserve" font-family="Monaco,Monaco" font-size="28.0" fill="#37DE1B" transform="matrix(1.00, 0.00, -0.00, -1.00, 326.1, 521.8)">l</text><text xml:space="preserve" font-family="Monaco,Monaco" font-size="28.0" fill="#37DE1B" transform="matrix(1.00, 0.00, -0.00, -1.00, 342.9, 521.8)">e</text><text xml:space="preserve" font-family="Monaco,Monaco" font-size="28.0" fill="#37DE1B" transform="matrix(1.00, 0.00, -0.00, -1.00, 359.7, 521.8)">a</text><text xml:space="preserve" font-family="Monaco,Monaco" font-size="28.0" fill="#37DE1B" transform="matrix(1.00, 0.00, -0.00, -1.00, 376.5, 521.8)">r</text><text xml:space="preserve" font-family="Monaco,Monaco" font-size="28.0" fill="#37DE1B" transform="matrix(1.00, 0.00, -0.00, -1.00, 393.3, 521.8)"> </text><text xml:space="preserve" font-family="Monaco,Monaco" font-size="28.0" fill="#37DE1B" transform="matrix(1.00, 0.00, -0.00, -1.00, 410.1, 521.8)">t</text><text xml:space="preserve" font-family="Monaco,Monaco" font-size="28.0" fill="#37DE1B" transform="matrix(1.00, 0.00, -0.00, -1.00, 426.9, 521.8)">h</text><text xml:space="preserve" font-family="Monaco,Monaco" font-size="28.0" fill="#37DE1B" transform="matrix(1.00, 0.00, -0.00, -1.00, 443.7, 521.8)">e</text><text xml:space="preserve" font-family="Monaco,Monaco" font-size="28.0" fill="#37DE1B" transform="matrix(1.00, 0.00, -0.00, -1.00, 460.5, 521.8)"> </text><text xml:space="preserve" font-family="Monaco,Monaco" font-size="28.0" fill="#37DE1B" transform="matrix(1.00, 0.00, -0.00, -1.00, 477.3, 521.8)">t</text><text xml:space="preserve" font-family="Monaco,Monaco" font-size="28.0" fill="#37DE1B" transform="matrix(1.00, 0.00, -0.00, -1.00, 494.1, 521.8)">e</text><text xml:space="preserve" font-family="Monaco,Monaco" font-size="28.0" fill="#37DE1B" transform="matrix(1.00, 0.00, -0.00, -1.00, 510.9, 521.8)">r</text><text xml:space="preserve" font-family="Monaco,Monaco" font-size="28.0" fill="#37DE1B" transform="matrix(1.00, 0.00, -0.00, -1.00, 527.7, 521.8)">m</text><text xml:space="preserve" font-family="Monaco,Monaco" font-size="28.0" fill="#37DE1B" transform="matrix(1.00, 0.00, -0.00, -1.00, 544.5, 521.8)">i</text><text xml:space="preserve" font-family="Monaco,Monaco" font-size="28.0" fill="#37DE1B" transform="matrix(1.00, 0.00, -0.00, -1.00, 561.3, 521.8)">n</text><text xml:space="preserve" font-family="Monaco,Monaco" font-size="28.0" fill="#37DE1B" transform="matrix(1.00, 0.00, -0.00, -1.00, 578.1, 521.8)">a</text><text xml:space="preserve" font-family="Monaco,Monaco" font-size="28.0" fill="#37DE1B" transform="matrix(1.00, 0.00, -0.00, -1.00, 595.0, 521.8)">l</text><text xml:space="preserve" font-family="Monaco,Monaco" font-size="28.0" fill="#37DE1B" transform="matrix(1.00, 0.00, -0.00, -1.00, 611.8, 521.8)"> </text><text xml:space="preserve" font-family="Monaco,Monaco" font-size="28.0" fill="#37DE1B" transform="matrix(1.00, 0.00, -0.00, -1.00, 628.6, 521.8)">s</text><text xml:space="preserve" font-family="Monaco,Monaco" font-size="28.0" fill="#37DE1B" transform="matrix(1.00, 0.00, -0.00, -1.00, 645.4, 521.8)">c</text><text xml:space="preserve" font-family="Monaco,Monaco" font-size="28.0" fill="#37DE1B" transform="matrix(1.00, 0.00, -0.00, -1.00, 662.2, 521.8)">r</text><text xml:space="preserve" font-family="Monaco,Monaco" font-size="28.0" fill="#37DE1B" transform="matrix(1.00, 0.00, -0.00, -1.00, 679.0, 521.8)">e</text><text xml:space="preserve" font-family="Monaco,Monaco" font-size="28.0" fill="#37DE1B" transform="matrix(1.00, 0.00, -0.00, -1.00, 695.8, 521.8)">e</text><text xml:space="preserve" font-family="Monaco,Monaco" font-size="28.0" fill="#37DE1B" transform="matrix(1.00, 0.00, -0.00, -1.00, 712.6, 521.8)">n</text><text xml:space="preserve" font-family="Monaco,Monaco" font-size="28.0" fill="#37DE1B" transform="matrix(1.00, 0.00, -0.00, -1.00, 729.4, 521.8)">	</text><text xml:space="preserve" font-family="Monaco,Monaco" font-size="28.0" fill="#37DE1B" transform="matrix(1.00, 0.00, -0.00, -1.00, 57.2, 447.8)">S</text><text xml:space="preserve" font-family="Monaco,Monaco" font-size="28.0" fill="#37DE1B" transform="matrix(1.00, 0.00, -0.00, -1.00, 74.0, 447.8)">Y</text><text xml:space="preserve" font-family="Monaco,Monaco" font-size="28.0" fill="#37DE1B" transform="matrix(1.00, 0.00, -0.00, -1.00, 90.8, 447.8)">N</text><text xml:space="preserve" font-family="Monaco,Monaco" font-size="28.0" fill="#37DE1B" transform="matrix(1.00, 0.00, -0.00, -1.00, 107.6, 447.8)">O</text><text xml:space="preserve" font-family="Monaco,Monaco" font-size="28.0" fill="#37DE1B" transform="matrix(1.00, 0.00, -0.00, -1.00, 124.4, 447.8)">P</text><text xml:space="preserve" font-family="Monaco,Monaco" font-size="28.0" fill="#37DE1B" transform="matrix(1.00, 0.00, -0.00, -1.00, 141.2, 447.8)">S</text><text xml:space="preserve" font-family="Monaco,Monaco" font-size="28.0" fill="#37DE1B" transform="matrix(1.00, 0.00, -0.00, -1.00, 158.0, 447.8)">I</text><text xml:space="preserve" font-family="Monaco,Monaco" font-size="28.0" fill="#37DE1B" transform="matrix(1.00, 0.00, -0.00, -1.00, 174.8, 447.8)">S</text><text xml:space="preserve" font-family="Monaco,Monaco" font-size="28.0" fill="#37DE1B" transform="matrix(1.00, 0.00, -0.00, -1.00, 191.6, 447.8)">	</text><text xml:space="preserve" font-family="Monaco,Monaco" font-size="28.0" fill="#37DE1B" transform="matrix(1.00, 0.00, -0.00, -1.00, 57.2, 410.8)"> </text><text xml:space="preserve" font-family="Monaco,Monaco" font-size="28.0" fill="#37DE1B" transform="matrix(1.00, 0.00, -0.00, -1.00, 74.0, 410.8)"> </text><text xml:space="preserve" font-family="Monaco,Monaco" font-size="28.0" fill="#37DE1B" transform="matrix(1.00, 0.00, -0.00, -1.00, 90.8, 410.8)"> </text><text xml:space="preserve" font-family="Monaco,Monaco" font-size="28.0" fill="#37DE1B" transform="matrix(1.00, 0.00, -0.00, -1.00, 107.6, 410.8)"> </text><text xml:space="preserve" font-family="Monaco,Monaco" font-size="28.0" fill="#37DE1B" transform="matrix(1.00, 0.00, -0.00, -1.00, 124.4, 410.8)"> </text><text xml:space="preserve" font-family="Monaco,Monaco" font-size="28.0" fill="#37DE1B" transform="matrix(1.00, 0.00, -0.00, -1.00, 141.2, 410.8)"> </text><text xml:space="preserve" font-family="Monaco,Monaco" font-size="28.0" fill="#37DE1B" transform="matrix(1.00, 0.00, -0.00, -1.00, 158.0, 410.8)"> </text><text xml:space="preserve" font-family="Monaco,Monaco" font-size="28.0" fill="#37DE1B" transform="matrix(1.00, 0.00, -0.00, -1.00, 174.8, 410.8)">c</text><text xml:space="preserve" font-family="Monaco,Monaco" font-size="28.0" fill="#37DE1B" transform="matrix(1.00, 0.00, -0.00, -1.00, 191.6, 410.8)">l</text><text xml:space="preserve" font-family="Monaco,Monaco" font-size="28.0" fill="#37DE1B" transform="matrix(1.00, 0.00, -0.00, -1.00, 208.4, 410.8)">e</text><text xml:space="preserve" font-family="Monaco,Monaco" font-size="28.0" fill="#37DE1B" transform="matrix(1.00, 0.00, -0.00, -1.00, 225.2, 410.8)">a</text><text xml:space="preserve" font-family="Monaco,Monaco" font-size="28.0" fill="#37DE1B" transform="matrix(1.00, 0.00, -0.00, -1.00, 242.0, 410.8)">r</text><text xml:space="preserve" font-family="Monaco,Monaco" font-size="28.0" fill="#37DE1B" transform="matrix(1.00, 0.00, -0.00, -1.00, 258.8, 410.8)">	</text><text xml:space="preserve" font-family="Monaco,Monaco" font-size="28.0" fill="#37DE1B" transform="matrix(1.00, 0.00, -0.00, -1.00, 57.2, 336.8)">D</text><text xml:space="preserve" font-family="Monaco,Monaco" font-size="28.0" fill="#37DE1B" transform="matrix(1.00, 0.00, -0.00, -1.00, 74.0, 336.8)">E</text><text xml:space="preserve" font-family="Monaco,Monaco" font-size="28.0" fill="#37DE1B" transform="matrix(1.00, 0.00, -0.00, -1.00, 90.8, 336.8)">S</text><text xml:space="preserve" font-family="Monaco,Monaco" font-size="28.0" fill="#37DE1B" transform="matrix(1.00, 0.00, -0.00, -1.00, 107.6, 336.8)">C</text><text xml:space="preserve" font-family="Monaco,Monaco" font-size="28.0" fill="#37DE1B" transform="matrix(1.00, 0.00, -0.00, -1.00, 124.4, 336.8)">R</text><text xml:space="preserve" font-family="Monaco,Monaco" font-size="28.0" fill="#37DE1B" transform="matrix(1.00, 0.00, -0.00, -1.00, 141.2, 336.8)">I</text><text xml:space="preserve" font-family="Monaco,Monaco" font-size="28.0" fill="#37DE1B" transform="matrix(1.00, 0.00, -0.00, -1.00, 158.0, 336.8)">P</text><text xml:space="preserve" font-family="Monaco,Monaco" font-size="28.0" fill="#37DE1B" transform="matrix(1.00, 0.00, -0.00, -1.00, 174.8, 336.8)">T</text><text xml:space="preserve" font-family="Monaco,Monaco" font-size="28.0" fill="#37DE1B" transform="matrix(1.00, 0.00, -0.00, -1.00, 191.6, 336.8)">I</text><text xml:space="preserve" font-family="Monaco,Monaco" font-size="28.0" fill="#37DE1B" transform="matrix(1.00, 0.00, -0.00, -1.00, 208.4, 336.8)">O</text><text xml:space="preserve" font-family="Monaco,Monaco" font-size="28.0" fill="#37DE1B" transform="matrix(1.00, 0.00, -0.00, -1.00, 225.2, 336.8)">N</text><text xml:space="preserve" font-family="Monaco,Monaco" font-size="28.0" fill="#37DE1B" transform="matrix(1.00, 0.00, -0.00, -1.00, 242.0, 336.8)">	</text><text xml:space="preserve" font-family="Monaco,Monaco" font-size="28.0" fill="#37DE1B" transform="matrix(1.00, 0.00, -0.00, -1.00, 57.2, 299.8)"> </text><text xml:space="preserve" font-family="Monaco,Monaco" font-size="28.0" fill="#37DE1B" transform="matrix(1.00, 0.00, -0.00, -1.00, 74.0, 299.8)"> </text><text xml:space="preserve" font-family="Monaco,Monaco" font-size="28.0" fill="#37DE1B" transform="matrix(1.00, 0.00, -0.00, -1.00, 90.8, 299.8)"> </text><text xml:space="preserve" font-family="Monaco,Monaco" font-size="28.0" fill="#37DE1B" transform="matrix(1.00, 0.00, -0.00, -1.00, 107.6, 299.8)"> </text><text xml:space="preserve" font-family="Monaco,Monaco" font-size="28.0" fill="#37DE1B" transform="matrix(1.00, 0.00, -0.00, -1.00, 124.4, 299.8)"> </text><text xml:space="preserve" font-family="Monaco,Monaco" font-size="28.0" fill="#37DE1B" transform="matrix(1.00, 0.00, -0.00, -1.00, 141.2, 299.8)"> </text><text xml:space="preserve" font-family="Monaco,Monaco" font-size="28.0" fill="#37DE1B" transform="matrix(1.00, 0.00, -0.00, -1.00, 158.0, 299.8)"> </text><text xml:space="preserve" font-family="Monaco,Monaco" font-size="28.0" fill="#37DE1B" transform="matrix(1.00, 0.00, -0.00, -1.00, 174.8, 299.8)">c</text><text xml:space="preserve" font-family="Monaco,Monaco" font-size="28.0" fill="#37DE1B" transform="matrix(1.00, 0.00, -0.00, -1.00, 191.6, 299.8)">l</text><text xml:space="preserve" font-family="Monaco,Monaco" font-size="28.0" fill="#37DE1B" transform="matrix(1.00, 0.00, -0.00, -1.00, 208.4, 299.8)">e</text><text xml:space="preserve" font-family="Monaco,Monaco" font-size="28.0" fill="#37DE1B" transform="matrix(1.00, 0.00, -0.00, -1.00, 225.2, 299.8)">a</text><text xml:space="preserve" font-family="Monaco,Monaco" font-size="28.0" fill="#37DE1B" transform="matrix(1.00, 0.00, -0.00, -1.00, 242.0, 299.8)">r</text><text xml:space="preserve" font-family="Monaco,Monaco" font-size="28.0" fill="#37DE1B" transform="matrix(1.00, 0.00, -0.00, -1.00, 258.8, 299.8)"> </text><text xml:space="preserve" font-family="Monaco,Monaco" font-size="28.0" fill="#37DE1B" transform="matrix(1.00, 0.00, -0.00, -1.00, 275.6, 299.8)">c</text><text xml:space="preserve" font-family="Monaco,Monaco" font-size="28.0" fill="#37DE1B" transform="matrix(1.00, 0.00, -0.00, -1.00, 292.5, 299.8)">l</text><text xml:space="preserve" font-family="Monaco,Monaco" font-size="28.0" fill="#37DE1B" transform="matrix(1.00, 0.00, -0.00, -1.00, 309.3, 299.8)">e</text><text xml:space="preserve" font-family="Monaco,Monaco" font-size="28.0" fill="#37DE1B" transform="matrix(1.00, 0.00, -0.00, -1.00, 326.1, 299.8)">a</text><text xml:space="preserve" font-family="Monaco,Monaco" font-size="28.0" fill="#37DE1B" transform="matrix(1.00, 0.00, -0.00, -1.00, 342.9, 299.8)">r</text><text xml:space="preserve" font-family="Monaco,Monaco" font-size="28.0" fill="#37DE1B" transform="matrix(1.00, 0.00, -0.00, -1.00, 359.7, 299.8)">s</text><text xml:space="preserve" font-family="Monaco,Monaco" font-size="28.0" fill="#37DE1B" transform="matrix(1.00, 0.00, -0.00, -1.00, 376.5, 299.8)"> </text><text xml:space="preserve" font-family="Monaco,Monaco" font-size="28.0" fill="#37DE1B" transform="matrix(1.00, 0.00, -0.00, -1.00, 393.3, 299.8)">y</text><text xml:space="preserve" font-family="Monaco,Monaco" font-size="28.0" fill="#37DE1B" transform="matrix(1.00, 0.00, -0.00, -1.00, 410.1, 299.8)">o</text><text xml:space="preserve" font-family="Monaco,Monaco" font-size="28.0" fill="#37DE1B" transform="matrix(1.00, 0.00, -0.00, -1.00, 426.9, 299.8)">u</text><text xml:space="preserve" font-family="Monaco,Monaco" font-size="28.0" fill="#37DE1B" transform="matrix(1.00, 0.00, -0.00, -1.00, 443.7, 299.8)">r</text><text xml:space="preserve" font-family="Monaco,Monaco" font-size="28.0" fill="#37DE1B" transform="matrix(1.00, 0.00, -0.00, -1.00, 460.5, 299.8)"> </text><text xml:space="preserve" font-family="Monaco,Monaco" font-size="28.0" fill="#37DE1B" transform="matrix(1.00, 0.00, -0.00, -1.00, 477.3, 299.8)">s</text><text xml:space="preserve" font-family="Monaco,Monaco" font-size="28.0" fill="#37DE1B" transform="matrix(1.00, 0.00, -0.00, -1.00, 494.1, 299.8)">c</text><text xml:space="preserve" font-family="Monaco,Monaco" font-size="28.0" fill="#37DE1B" transform="matrix(1.00, 0.00, -0.00, -1.00, 510.9, 299.8)">r</text><text xml:space="preserve" font-family="Monaco,Monaco" font-size="28.0" fill="#37DE1B" transform="matrix(1.00, 0.00, -0.00, -1.00, 527.7, 299.8)">e</text><text xml:space="preserve" font-family="Monaco,Monaco" font-size="28.0" fill="#37DE1B" transform="matrix(1.00, 0.00, -0.00, -1.00, 544.5, 299.8)">e</text><text xml:space="preserve" font-family="Monaco,Monaco" font-size="28.0" fill="#37DE1B" transform="matrix(1.00, 0.00, -0.00, -1.00, 561.3, 299.8)">n</text><text xml:space="preserve" font-family="Monaco,Monaco" font-size="28.0" fill="#37DE1B" transform="matrix(1.00, 0.00, -0.00, -1.00, 578.1, 299.8)"> </text><text xml:space="preserve" font-family="Monaco,Monaco" font-size="28.0" fill="#37DE1B" transform="matrix(1.00, 0.00, -0.00, -1.00, 595.0, 299.8)">i</text><text xml:space="preserve" font-family="Monaco,Monaco" font-size="28.0" fill="#37DE1B" transform="matrix(1.00, 0.00, -0.00, -1.00, 611.8, 299.8)">f</text><text xml:space="preserve" font-family="Monaco,Monaco" font-size="28.0" fill="#37DE1B" transform="matrix(1.00, 0.00, -0.00, -1.00, 628.6, 299.8)"> </text><text xml:space="preserve" font-family="Monaco,Monaco" font-size="28.0" fill="#37DE1B" transform="matrix(1.00, 0.00, -0.00, -1.00, 645.4, 299.8)">t</text><text xml:space="preserve" font-family="Monaco,Monaco" font-size="28.0" fill="#37DE1B" transform="matrix(1.00, 0.00, -0.00, -1.00, 662.2, 299.8)">h</text><text xml:space="preserve" font-family="Monaco,Monaco" font-size="28.0" fill="#37DE1B" transform="matrix(1.00, 0.00, -0.00, -1.00, 679.0, 299.8)">i</text><text xml:space="preserve" font-family="Monaco,Monaco" font-size="28.0" fill="#37DE1B" transform="matrix(1.00, 0.00, -0.00, -1.00, 695.8, 299.8)">s</text><text xml:space="preserve" font-family="Monaco,Monaco" font-size="28.0" fill="#37DE1B" transform="matrix(1.00, 0.00, -0.00, -1.00, 712.6, 299.8)"> </text><text xml:space="preserve" font-family="Monaco,Monaco" font-size="28.0" fill="#37DE1B" transform="matrix(1.00, 0.00, -0.00, -1.00, 729.4, 299.8)">i</text><text xml:space="preserve" font-family="Monaco,Monaco" font-size="28.0" fill="#37DE1B" transform="matrix(1.00, 0.00, -0.00, -1.00, 746.2, 299.8)">s</text><text xml:space="preserve" font-family="Monaco,Monaco" font-size="28.0" fill="#37DE1B" transform="matrix(1.00, 0.00, -0.00, -1.00, 763.0, 299.8)"> </text><text xml:space="preserve" font-family="Monaco,Monaco" font-size="28.0" fill="#37DE1B" transform="matrix(1.00, 0.00, -0.00, -1.00, 779.8, 299.8)">p</text><text xml:space="preserve" font-family="Monaco,Monaco" font-size="28.0" fill="#37DE1B" transform="matrix(1.00, 0.00, -0.00, -1.00, 796.6, 299.8)">o</text><text xml:space="preserve" font-family="Monaco,Monaco" font-size="28.0" fill="#37DE1B" transform="matrix(1.00, 0.00, -0.00, -1.00, 813.4, 299.8)">s</text><text xml:space="preserve" font-family="Monaco,Monaco" font-size="28.0" fill="#37DE1B" transform="matrix(1.00, 0.00, -0.00, -1.00, 830.2, 299.8)">s</text><text xml:space="preserve" font-family="Monaco,Monaco" font-size="28.0" fill="#37DE1B" transform="matrix(1.00, 0.00, -0.00, -1.00, 847.0, 299.8)">i</text><text xml:space="preserve" font-family="Monaco,Monaco" font-size="28.0" fill="#37DE1B" transform="matrix(1.00, 0.00, -0.00, -1.00, 863.8, 299.8)">b</text><text xml:space="preserve" font-family="Monaco,Monaco" font-size="28.0" fill="#37DE1B" transform="matrix(1.00, 0.00, -0.00, -1.00, 880.6, 299.8)">l</text><text xml:space="preserve" font-family="Monaco,Monaco" font-size="28.0" fill="#37DE1B" transform="matrix(1.00, 0.00, -0.00, -1.00, 897.5, 299.8)">e</text><text xml:space="preserve" font-family="Monaco,Monaco" font-size="28.0" fill="#37DE1B" transform="matrix(1.00, 0.00, -0.00, -1.00, 914.3, 299.8)">.</text><text xml:space="preserve" font-family="Monaco,Monaco" font-size="28.0" fill="#37DE1B" transform="matrix(1.00, 0.00, -0.00, -1.00, 931.1, 299.8)"> </text><text xml:space="preserve" font-family="Monaco,Monaco" font-size="28.0" fill="#37DE1B" transform="matrix(1.00, 0.00, -0.00, -1.00, 947.9, 299.8)"> </text><text xml:space="preserve" font-family="Monaco,Monaco" font-size="28.0" fill="#37DE1B" transform="matrix(1.00, 0.00, -0.00, -1.00, 57.2, 262.8)">I</text><text xml:space="preserve" font-family="Monaco,Monaco" font-size="28.0" fill="#37DE1B" transform="matrix(1.00, 0.00, -0.00, -1.00, 74.0, 262.8)">t</text><text xml:space="preserve" font-family="Monaco,Monaco" font-size="28.0" fill="#37DE1B" transform="matrix(1.00, 0.00, -0.00, -1.00, 90.8, 262.8)"> </text><text xml:space="preserve" font-family="Monaco,Monaco" font-size="28.0" fill="#37DE1B" transform="matrix(1.00, 0.00, -0.00, -1.00, 107.6, 262.8)">l</text><text xml:space="preserve" font-family="Monaco,Monaco" font-size="28.0" fill="#37DE1B" transform="matrix(1.00, 0.00, -0.00, -1.00, 124.4, 262.8)">o</text><text xml:space="preserve" font-family="Monaco,Monaco" font-size="28.0" fill="#37DE1B" transform="matrix(1.00, 0.00, -0.00, -1.00, 141.2, 262.8)">o</text><text xml:space="preserve" font-family="Monaco,Monaco" font-size="28.0" fill="#37DE1B" transform="matrix(1.00, 0.00, -0.00, -1.00, 158.0, 262.8)">k</text><text xml:space="preserve" font-family="Monaco,Monaco" font-size="28.0" fill="#37DE1B" transform="matrix(1.00, 0.00, -0.00, -1.00, 174.8, 262.8)">s</text><text xml:space="preserve" font-family="Monaco,Monaco" font-size="28.0" fill="#37DE1B" transform="matrix(1.00, 0.00, -0.00, -1.00, 191.6, 262.8)"> </text><text xml:space="preserve" font-family="Monaco,Monaco" font-size="28.0" fill="#37DE1B" transform="matrix(1.00, 0.00, -0.00, -1.00, 208.4, 262.8)">i</text><text xml:space="preserve" font-family="Monaco,Monaco" font-size="28.0" fill="#37DE1B" transform="matrix(1.00, 0.00, -0.00, -1.00, 225.2, 262.8)">n</text><text xml:space="preserve" font-family="Monaco,Monaco" font-size="28.0" fill="#37DE1B" transform="matrix(1.00, 0.00, -0.00, -1.00, 242.0, 262.8)"> </text><text xml:space="preserve" font-family="Monaco,Monaco" font-size="28.0" fill="#37DE1B" transform="matrix(1.00, 0.00, -0.00, -1.00, 258.8, 262.8)">t</text><text xml:space="preserve" font-family="Monaco,Monaco" font-size="28.0" fill="#37DE1B" transform="matrix(1.00, 0.00, -0.00, -1.00, 275.6, 262.8)">h</text><text xml:space="preserve" font-family="Monaco,Monaco" font-size="28.0" fill="#37DE1B" transform="matrix(1.00, 0.00, -0.00, -1.00, 292.5, 262.8)">e</text><text xml:space="preserve" font-family="Monaco,Monaco" font-size="28.0" fill="#37DE1B" transform="matrix(1.00, 0.00, -0.00, -1.00, 309.3, 262.8)"> </text><text xml:space="preserve" font-family="Monaco,Monaco" font-size="28.0" fill="#37DE1B" transform="matrix(1.00, 0.00, -0.00, -1.00, 326.1, 262.8)">e</text><text xml:space="preserve" font-family="Monaco,Monaco" font-size="28.0" fill="#37DE1B" transform="matrix(1.00, 0.00, -0.00, -1.00, 342.9, 262.8)">n</text><text xml:space="preserve" font-family="Monaco,Monaco" font-size="28.0" fill="#37DE1B" transform="matrix(1.00, 0.00, -0.00, -1.00, 359.7, 262.8)">v</text><text xml:space="preserve" font-family="Monaco,Monaco" font-size="28.0" fill="#37DE1B" transform="matrix(1.00, 0.00, -0.00, -1.00, 376.5, 262.8)">i</text><text xml:space="preserve" font-family="Monaco,Monaco" font-size="28.0" fill="#37DE1B" transform="matrix(1.00, 0.00, -0.00, -1.00, 393.3, 262.8)">r</text><text xml:space="preserve" font-family="Monaco,Monaco" font-size="28.0" fill="#37DE1B" transform="matrix(1.00, 0.00, -0.00, -1.00, 410.1, 262.8)">o</text><text xml:space="preserve" font-family="Monaco,Monaco" font-size="28.0" fill="#37DE1B" transform="matrix(1.00, 0.00, -0.00, -1.00, 426.9, 262.8)">n</text><text xml:space="preserve" font-family="Monaco,Monaco" font-size="28.0" fill="#37DE1B" transform="matrix(1.00, 0.00, -0.00, -1.00, 443.7, 262.8)">m</text><text xml:space="preserve" font-family="Monaco,Monaco" font-size="28.0" fill="#37DE1B" transform="matrix(1.00, 0.00, -0.00, -1.00, 460.5, 262.8)">e</text><text xml:space="preserve" font-family="Monaco,Monaco" font-size="28.0" fill="#37DE1B" transform="matrix(1.00, 0.00, -0.00, -1.00, 477.3, 262.8)">n</text><text xml:space="preserve" font-family="Monaco,Monaco" font-size="28.0" fill="#37DE1B" transform="matrix(1.00, 0.00, -0.00, -1.00, 494.1, 262.8)">t</text><text xml:space="preserve" font-family="Monaco,Monaco" font-size="28.0" fill="#37DE1B" transform="matrix(1.00, 0.00, -0.00, -1.00, 510.9, 262.8)"> </text><text xml:space="preserve" font-family="Monaco,Monaco" font-size="28.0" fill="#37DE1B" transform="matrix(1.00, 0.00, -0.00, -1.00, 527.7, 262.8)">f</text><text xml:space="preserve" font-family="Monaco,Monaco" font-size="28.0" fill="#37DE1B" transform="matrix(1.00, 0.00, -0.00, -1.00, 544.5, 262.8)">o</text><text xml:space="preserve" font-family="Monaco,Monaco" font-size="28.0" fill="#37DE1B" transform="matrix(1.00, 0.00, -0.00, -1.00, 561.3, 262.8)">r</text><text xml:space="preserve" font-family="Monaco,Monaco" font-size="28.0" fill="#37DE1B" transform="matrix(1.00, 0.00, -0.00, -1.00, 578.1, 262.8)"> </text><text xml:space="preserve" font-family="Monaco,Monaco" font-size="28.0" fill="#37DE1B" transform="matrix(1.00, 0.00, -0.00, -1.00, 595.0, 262.8)">t</text><text xml:space="preserve" font-family="Monaco,Monaco" font-size="28.0" fill="#37DE1B" transform="matrix(1.00, 0.00, -0.00, -1.00, 611.8, 262.8)">h</text><text xml:space="preserve" font-family="Monaco,Monaco" font-size="28.0" fill="#37DE1B" transform="matrix(1.00, 0.00, -0.00, -1.00, 628.6, 262.8)">e</text><text xml:space="preserve" font-family="Monaco,Monaco" font-size="28.0" fill="#37DE1B" transform="matrix(1.00, 0.00, -0.00, -1.00, 645.4, 262.8)"> </text><text xml:space="preserve" font-family="Monaco,Monaco" font-size="28.0" fill="#37DE1B" transform="matrix(1.00, 0.00, -0.00, -1.00, 662.2, 262.8)">t</text><text xml:space="preserve" font-family="Monaco,Monaco" font-size="28.0" fill="#37DE1B" transform="matrix(1.00, 0.00, -0.00, -1.00, 679.0, 262.8)">e</text><text xml:space="preserve" font-family="Monaco,Monaco" font-size="28.0" fill="#37DE1B" transform="matrix(1.00, 0.00, -0.00, -1.00, 695.8, 262.8)">r</text><text xml:space="preserve" font-family="Monaco,Monaco" font-size="28.0" fill="#37DE1B" transform="matrix(1.00, 0.00, -0.00, -1.00, 712.6, 262.8)">m</text><text xml:space="preserve" font-family="Monaco,Monaco" font-size="28.0" fill="#37DE1B" transform="matrix(1.00, 0.00, -0.00, -1.00, 729.4, 262.8)">i</text><text xml:space="preserve" font-family="Monaco,Monaco" font-size="28.0" fill="#37DE1B" transform="matrix(1.00, 0.00, -0.00, -1.00, 746.2, 262.8)">n</text><text xml:space="preserve" font-family="Monaco,Monaco" font-size="28.0" fill="#37DE1B" transform="matrix(1.00, 0.00, -0.00, -1.00, 763.0, 262.8)">a</text><text xml:space="preserve" font-family="Monaco,Monaco" font-size="28.0" fill="#37DE1B" transform="matrix(1.00, 0.00, -0.00, -1.00, 779.8, 262.8)">l</text><text xml:space="preserve" font-family="Monaco,Monaco" font-size="28.0" fill="#37DE1B" transform="matrix(1.00, 0.00, -0.00, -1.00, 796.6, 262.8)"> </text><text xml:space="preserve" font-family="Monaco,Monaco" font-size="28.0" fill="#37DE1B" transform="matrix(1.00, 0.00, -0.00, -1.00, 813.4, 262.8)">t</text><text xml:space="preserve" font-family="Monaco,Monaco" font-size="28.0" fill="#37DE1B" transform="matrix(1.00, 0.00, -0.00, -1.00, 830.2, 262.8)">y</text><text xml:space="preserve" font-family="Monaco,Monaco" font-size="28.0" fill="#37DE1B" transform="matrix(1.00, 0.00, -0.00, -1.00, 847.0, 262.8)">p</text><text xml:space="preserve" font-family="Monaco,Monaco" font-size="28.0" fill="#37DE1B" transform="matrix(1.00, 0.00, -0.00, -1.00, 863.8, 262.8)">e</text><text xml:space="preserve" font-family="Monaco,Monaco" font-size="28.0" fill="#37DE1B" transform="matrix(1.00, 0.00, -0.00, -1.00, 880.6, 262.8)"> </text><text xml:space="preserve" font-family="Monaco,Monaco" font-size="28.0" fill="#37DE1B" transform="matrix(1.00, 0.00, -0.00, -1.00, 897.5, 262.8)">a</text><text xml:space="preserve" font-family="Monaco,Monaco" font-size="28.0" fill="#37DE1B" transform="matrix(1.00, 0.00, -0.00, -1.00, 914.3, 262.8)">n</text><text xml:space="preserve" font-family="Monaco,Monaco" font-size="28.0" fill="#37DE1B" transform="matrix(1.00, 0.00, -0.00, -1.00, 931.1, 262.8)">d</text><text xml:space="preserve" font-family="Monaco,Monaco" font-size="28.0" fill="#37DE1B" transform="matrix(1.00, 0.00, -0.00, -1.00, 947.9, 262.8)"> </text><text xml:space="preserve" font-family="Monaco,Monaco" font-size="28.0" fill="#37DE1B" transform="matrix(1.00, 0.00, -0.00, -1.00, 57.2, 225.8)">t</text><text xml:space="preserve" font-family="Monaco,Monaco" font-size="28.0" fill="#37DE1B" transform="matrix(1.00, 0.00, -0.00, -1.00, 74.0, 225.8)">h</text><text xml:space="preserve" font-family="Monaco,Monaco" font-size="28.0" fill="#37DE1B" transform="matrix(1.00, 0.00, -0.00, -1.00, 90.8, 225.8)">e</text><text xml:space="preserve" font-family="Monaco,Monaco" font-size="28.0" fill="#37DE1B" transform="matrix(1.00, 0.00, -0.00, -1.00, 107.6, 225.8)">n</text><text xml:space="preserve" font-family="Monaco,Monaco" font-size="28.0" fill="#37DE1B" transform="matrix(1.00, 0.00, -0.00, -1.00, 124.4, 225.8)"> </text><text xml:space="preserve" font-family="Monaco,Monaco" font-size="28.0" fill="#37DE1B" transform="matrix(1.00, 0.00, -0.00, -1.00, 141.2, 225.8)">i</text><text xml:space="preserve" font-family="Monaco,Monaco" font-size="28.0" fill="#37DE1B" transform="matrix(1.00, 0.00, -0.00, -1.00, 158.0, 225.8)">n</text><text xml:space="preserve" font-family="Monaco,Monaco" font-size="28.0" fill="#37DE1B" transform="matrix(1.00, 0.00, -0.00, -1.00, 174.8, 225.8)"> </text><text xml:space="preserve" font-family="Monaco,Monaco" font-size="28.0" fill="#37DE1B" transform="matrix(1.00, 0.00, -0.00, -1.00, 191.6, 225.8)">t</text><text xml:space="preserve" font-family="Monaco,Monaco" font-size="28.0" fill="#37DE1B" transform="matrix(1.00, 0.00, -0.00, -1.00, 208.4, 225.8)">h</text><text xml:space="preserve" font-family="Monaco,Monaco" font-size="28.0" fill="#37DE1B" transform="matrix(1.00, 0.00, -0.00, -1.00, 225.2, 225.8)">e</text><text xml:space="preserve" font-family="Monaco,Monaco" font-size="28.0" fill="#37DE1B" transform="matrix(1.00, 0.00, -0.00, -1.00, 242.0, 225.8)"> </text><text xml:space="preserve" font-family="Monaco,Monaco" font-size="28.0" fill="#37DE1B" transform="matrix(1.00, 0.00, -0.00, -1.00, 258.8, 225.8)">t</text><text xml:space="preserve" font-family="Monaco,Monaco" font-size="28.0" fill="#37DE1B" transform="matrix(1.00, 0.00, -0.00, -1.00, 275.6, 225.8)">e</text><text xml:space="preserve" font-family="Monaco,Monaco" font-size="28.0" fill="#37DE1B" transform="matrix(1.00, 0.00, -0.00, -1.00, 292.5, 225.8)">r</text><text xml:space="preserve" font-family="Monaco,Monaco" font-size="28.0" fill="#37DE1B" transform="matrix(1.00, 0.00, -0.00, -1.00, 309.3, 225.8)">m</text><text xml:space="preserve" font-family="Monaco,Monaco" font-size="28.0" fill="#37DE1B" transform="matrix(1.00, 0.00, -0.00, -1.00, 326.1, 225.8)">i</text><text xml:space="preserve" font-family="Monaco,Monaco" font-size="28.0" fill="#37DE1B" transform="matrix(1.00, 0.00, -0.00, -1.00, 342.9, 225.8)">n</text><text xml:space="preserve" font-family="Monaco,Monaco" font-size="28.0" fill="#37DE1B" transform="matrix(1.00, 0.00, -0.00, -1.00, 359.7, 225.8)">f</text><text xml:space="preserve" font-family="Monaco,Monaco" font-size="28.0" fill="#37DE1B" transform="matrix(1.00, 0.00, -0.00, -1.00, 376.5, 225.8)">o</text><text xml:space="preserve" font-family="Monaco,Monaco" font-size="28.0" fill="#37DE1B" transform="matrix(1.00, 0.00, -0.00, -1.00, 393.3, 225.8)"> </text><text xml:space="preserve" font-family="Monaco,Monaco" font-size="28.0" fill="#37DE1B" transform="matrix(1.00, 0.00, -0.00, -1.00, 410.1, 225.8)">d</text><text xml:space="preserve" font-family="Monaco,Monaco" font-size="28.0" fill="#37DE1B" transform="matrix(1.00, 0.00, -0.00, -1.00, 426.9, 225.8)">a</text><text xml:space="preserve" font-family="Monaco,Monaco" font-size="28.0" fill="#37DE1B" transform="matrix(1.00, 0.00, -0.00, -1.00, 443.7, 225.8)">t</text><text xml:space="preserve" font-family="Monaco,Monaco" font-size="28.0" fill="#37DE1B" transform="matrix(1.00, 0.00, -0.00, -1.00, 460.5, 225.8)">a</text><text xml:space="preserve" font-family="Monaco,Monaco" font-size="28.0" fill="#37DE1B" transform="matrix(1.00, 0.00, -0.00, -1.00, 477.3, 225.8)">b</text><text xml:space="preserve" font-family="Monaco,Monaco" font-size="28.0" fill="#37DE1B" transform="matrix(1.00, 0.00, -0.00, -1.00, 494.1, 225.8)">a</text><text xml:space="preserve" font-family="Monaco,Monaco" font-size="28.0" fill="#37DE1B" transform="matrix(1.00, 0.00, -0.00, -1.00, 510.9, 225.8)">s</text><text xml:space="preserve" font-family="Monaco,Monaco" font-size="28.0" fill="#37DE1B" transform="matrix(1.00, 0.00, -0.00, -1.00, 527.7, 225.8)">e</text><text xml:space="preserve" font-family="Monaco,Monaco" font-size="28.0" fill="#37DE1B" transform="matrix(1.00, 0.00, -0.00, -1.00, 544.5, 225.8)"> </text><text xml:space="preserve" font-family="Monaco,Monaco" font-size="28.0" fill="#37DE1B" transform="matrix(1.00, 0.00, -0.00, -1.00, 561.3, 225.8)">t</text><text xml:space="preserve" font-family="Monaco,Monaco" font-size="28.0" fill="#37DE1B" transform="matrix(1.00, 0.00, -0.00, -1.00, 578.1, 225.8)">o</text><text xml:space="preserve" font-family="Monaco,Monaco" font-size="28.0" fill="#37DE1B" transform="matrix(1.00, 0.00, -0.00, -1.00, 595.0, 225.8)">	</text><text xml:space="preserve" font-family="Monaco,Monaco" font-size="28.0" fill="#37DE1B" transform="matrix(1.00, 0.00, -0.00, -1.00, 57.2, 188.8)"> </text><text xml:space="preserve" font-family="Monaco,Monaco" font-size="28.0" fill="#37DE1B" transform="matrix(1.00, 0.00, -0.00, -1.00, 74.0, 188.8)"> </text><text xml:space="preserve" font-family="Monaco,Monaco" font-size="28.0" fill="#37DE1B" transform="matrix(1.00, 0.00, -0.00, -1.00, 90.8, 188.8)"> </text><text xml:space="preserve" font-family="Monaco,Monaco" font-size="28.0" fill="#37DE1B" transform="matrix(1.00, 0.00, -0.00, -1.00, 107.6, 188.8)"> </text><text xml:space="preserve" font-family="Monaco,Monaco" font-size="28.0" fill="#37DE1B" transform="matrix(1.00, 0.00, -0.00, -1.00, 124.4, 188.8)"> </text><text xml:space="preserve" font-family="Monaco,Monaco" font-size="28.0" fill="#37DE1B" transform="matrix(1.00, 0.00, -0.00, -1.00, 141.2, 188.8)"> </text><text xml:space="preserve" font-family="Monaco,Monaco" font-size="28.0" fill="#37DE1B" transform="matrix(1.00, 0.00, -0.00, -1.00, 158.0, 188.8)"> </text><text xml:space="preserve" font-family="Monaco,Monaco" font-size="28.0" fill="#37DE1B" transform="matrix(1.00, 0.00, -0.00, -1.00, 174.8, 188.8)">f</text><text xml:space="preserve" font-family="Monaco,Monaco" font-size="28.0" fill="#37DE1B" transform="matrix(1.00, 0.00, -0.00, -1.00, 191.6, 188.8)">i</text><text xml:space="preserve" font-family="Monaco,Monaco" font-size="28.0" fill="#37DE1B" transform="matrix(1.00, 0.00, -0.00, -1.00, 208.4, 188.8)">g</text><text xml:space="preserve" font-family="Monaco,Monaco" font-size="28.0" fill="#37DE1B" transform="matrix(1.00, 0.00, -0.00, -1.00, 225.2, 188.8)">u</text><text xml:space="preserve" font-family="Monaco,Monaco" font-size="28.0" fill="#37DE1B" transform="matrix(1.00, 0.00, -0.00, -1.00, 242.0, 188.8)">r</text><text xml:space="preserve" font-family="Monaco,Monaco" font-size="28.0" fill="#37DE1B" transform="matrix(1.00, 0.00, -0.00, -1.00, 258.8, 188.8)">e</text><text xml:space="preserve" font-family="Monaco,Monaco" font-size="28.0" fill="#37DE1B" transform="matrix(1.00, 0.00, -0.00, -1.00, 275.6, 188.8)"> </text><text xml:space="preserve" font-family="Monaco,Monaco" font-size="28.0" fill="#37DE1B" transform="matrix(1.00, 0.00, -0.00, -1.00, 292.5, 188.8)">o</text><text xml:space="preserve" font-family="Monaco,Monaco" font-size="28.0" fill="#37DE1B" transform="matrix(1.00, 0.00, -0.00, -1.00, 309.3, 188.8)">u</text><text xml:space="preserve" font-family="Monaco,Monaco" font-size="28.0" fill="#37DE1B" transform="matrix(1.00, 0.00, -0.00, -1.00, 326.1, 188.8)">t</text><text xml:space="preserve" font-family="Monaco,Monaco" font-size="28.0" fill="#37DE1B" transform="matrix(1.00, 0.00, -0.00, -1.00, 342.9, 188.8)"> </text><text xml:space="preserve" font-family="Monaco,Monaco" font-size="28.0" fill="#37DE1B" transform="matrix(1.00, 0.00, -0.00, -1.00, 359.7, 188.8)">h</text><text xml:space="preserve" font-family="Monaco,Monaco" font-size="28.0" fill="#37DE1B" transform="matrix(1.00, 0.00, -0.00, -1.00, 376.5, 188.8)">o</text><text xml:space="preserve" font-family="Monaco,Monaco" font-size="28.0" fill="#37DE1B" transform="matrix(1.00, 0.00, -0.00, -1.00, 393.3, 188.8)">w</text><text xml:space="preserve" font-family="Monaco,Monaco" font-size="28.0" fill="#37DE1B" transform="matrix(1.00, 0.00, -0.00, -1.00, 410.1, 188.8)"> </text><text xml:space="preserve" font-family="Monaco,Monaco" font-size="28.0" fill="#37DE1B" transform="matrix(1.00, 0.00, -0.00, -1.00, 426.9, 188.8)">t</text><text xml:space="preserve" font-family="Monaco,Monaco" font-size="28.0" fill="#37DE1B" transform="matrix(1.00, 0.00, -0.00, -1.00, 443.7, 188.8)">o</text><text xml:space="preserve" font-family="Monaco,Monaco" font-size="28.0" fill="#37DE1B" transform="matrix(1.00, 0.00, -0.00, -1.00, 460.5, 188.8)"> </text><text xml:space="preserve" font-family="Monaco,Monaco" font-size="28.0" fill="#37DE1B" transform="matrix(1.00, 0.00, -0.00, -1.00, 477.3, 188.8)">c</text><text xml:space="preserve" font-family="Monaco,Monaco" font-size="28.0" fill="#37DE1B" transform="matrix(1.00, 0.00, -0.00, -1.00, 494.1, 188.8)">l</text><text xml:space="preserve" font-family="Monaco,Monaco" font-size="28.0" fill="#37DE1B" transform="matrix(1.00, 0.00, -0.00, -1.00, 510.9, 188.8)">e</text><text xml:space="preserve" font-family="Monaco,Monaco" font-size="28.0" fill="#37DE1B" transform="matrix(1.00, 0.00, -0.00, -1.00, 527.7, 188.8)">a</text><text xml:space="preserve" font-family="Monaco,Monaco" font-size="28.0" fill="#37DE1B" transform="matrix(1.00, 0.00, -0.00, -1.00, 544.5, 188.8)">r</text><text xml:space="preserve" font-family="Monaco,Monaco" font-size="28.0" fill="#37DE1B" transform="matrix(1.00, 0.00, -0.00, -1.00, 561.3, 188.8)"> </text><text xml:space="preserve" font-family="Monaco,Monaco" font-size="28.0" fill="#37DE1B" transform="matrix(1.00, 0.00, -0.00, -1.00, 578.1, 188.8)">t</text><text xml:space="preserve" font-family="Monaco,Monaco" font-size="28.0" fill="#37DE1B" transform="matrix(1.00, 0.00, -0.00, -1.00, 595.0, 188.8)">h</text><text xml:space="preserve" font-family="Monaco,Monaco" font-size="28.0" fill="#37DE1B" transform="matrix(1.00, 0.00, -0.00, -1.00, 611.8, 188.8)">e</text><text xml:space="preserve" font-family="Monaco,Monaco" font-size="28.0" fill="#37DE1B" transform="matrix(1.00, 0.00, -0.00, -1.00, 628.6, 188.8)"> </text><text xml:space="preserve" font-family="Monaco,Monaco" font-size="28.0" fill="#37DE1B" transform="matrix(1.00, 0.00, -0.00, -1.00, 645.4, 188.8)">s</text><text xml:space="preserve" font-family="Monaco,Monaco" font-size="28.0" fill="#37DE1B" transform="matrix(1.00, 0.00, -0.00, -1.00, 662.2, 188.8)">c</text><text xml:space="preserve" font-family="Monaco,Monaco" font-size="28.0" fill="#37DE1B" transform="matrix(1.00, 0.00, -0.00, -1.00, 679.0, 188.8)">r</text><text xml:space="preserve" font-family="Monaco,Monaco" font-size="28.0" fill="#37DE1B" transform="matrix(1.00, 0.00, -0.00, -1.00, 695.8, 188.8)">e</text><text xml:space="preserve" font-family="Monaco,Monaco" font-size="28.0" fill="#37DE1B" transform="matrix(1.00, 0.00, -0.00, -1.00, 712.6, 188.8)">e</text><text xml:space="preserve" font-family="Monaco,Monaco" font-size="28.0" fill="#37DE1B" transform="matrix(1.00, 0.00, -0.00, -1.00, 729.4, 188.8)">n</text><text xml:space="preserve" font-family="Monaco,Monaco" font-size="28.0" fill="#37DE1B" transform="matrix(1.00, 0.00, -0.00, -1.00, 746.2, 188.8)">.</text></g></svg>