<?xml version="1.0" encoding="UTF-8" standalone="no"?><svg xmlns="http://www.w3.org/2000/svg" xmlns:xlink="http://www.w3.org/1999/xlink" clip-rule="evenodd" stroke-miterlimit="10" viewBox="0 0 1024 768"><desc>SVG generated by Keynote</desc><defs></defs><g transform="matrix(1.00, 0.00, -0.00, -1.00, 0.0, 768.0)"><path d="M 0.0 768.0 L 1024.0 768.0 L 1024.0 0.0 L 0.0 0.0 Z M 0.0 768.0 " fill="#000000"></path><image xlink:href="../../ACF26528-510F-4087-92A7-D9431E4A7675/assets/C07D05C049E9C3A813AD52BFC7182A2D.png" width="983.00" height="584.00" transform="matrix(1.00, 0.00, -0.00, -1.00, 10.2, 664.7)" opacity="0.75"></image><image xlink:href="../../ACF26528-510F-4087-92A7-D9431E4A7675/assets/B8B89F8D2E49298F363D8341A9D067FB.png" width="963.00" height="564.00" transform="matrix(1.00, 0.00, -0.00, -1.00, 30.0, 666.0)"></image><text xml:space="preserve" font-family="LucidaGrande,Lucida Grande" font-size="22.0" fill="#FEFFFE" transform="matrix(1.00, 0.00, -0.00, -1.00, 332.4, 11.6)">F</text><text xml:space="preserve" font-family="LucidaGrande,Lucida Grande" font-size="22.0" fill="#FEFFFE" transform="matrix(1.00, 0.00, -0.00, -1.00, 344.2, 11.6)">e</text><text xml:space="preserve" font-family="LucidaGrande,Lucida Grande" font-size="22.0" fill="#FEFFFE" transform="matrix(1.00, 0.00, -0.00, -1.00, 356.4, 11.6)">e</text><text xml:space="preserve" font-family="LucidaGrande,Lucida Grande" font-size="22.0" fill="#FEFFFE" transform="matrix(1.00, 0.00, -0.00, -1.00, 368.7, 11.6)">d</text><text xml:space="preserve" font-family="LucidaGrande,Lucida Grande" font-size="22.0" fill="#FEFFFE" transform="matrix(1.00, 0.00, -0.00, -1.00, 382.5, 11.6)">b</text><text xml:space="preserve" font-family="LucidaGrande,Lucida Grande" font-size="22.0" fill="#FEFFFE" transform="matrix(1.00, 0.00, -0.00, -1.00, 396.4, 11.6)">a</text><text xml:space="preserve" font-family="LucidaGrande,Lucida Grande" font-size="22.0" fill="#FEFFFE" transform="matrix(1.00, 0.00, -0.00, -1.00, 408.5, 11.6)">c</text><text xml:space="preserve" font-family="LucidaGrande,Lucida Grande" font-size="22.0" fill="#FEFFFE" transform="matrix(1.00, 0.00, -0.00, -1.00, 419.8, 11.6)">k</text><text xml:space="preserve" font-family="LucidaGrande,Lucida Grande" font-size="22.0" fill="#FEFFFE" transform="matrix(1.00, 0.00, -0.00, -1.00, 432.7, 11.6)">:</text><text xml:space="preserve" font-family="LucidaGrande,Lucida Grande" font-size="22.0" fill="#FEFFFE" transform="matrix(1.00, 0.00, -0.00, -1.00, 439.6, 11.6)"> </text><text xml:space="preserve" font-family="LucidaGrande,Lucida Grande" font-size="22.0" fill="#FEFFFE" transform="matrix(1.00, 0.00, -0.00, -1.00, 446.6, 11.6)">h</text><text xml:space="preserve" font-family="LucidaGrande,Lucida Grande" font-size="22.0" fill="#FEFFFE" transform="matrix(1.00, 0.00, -0.00, -1.00, 460.2, 11.6)">t</text><text xml:space="preserve" font-family="LucidaGrande,Lucida Grande" font-size="22.0" fill="#FEFFFE" transform="matrix(1.00, 0.00, -0.00, -1.00, 468.4, 11.6)">t</text><text xml:space="preserve" font-family="LucidaGrande,Lucida Grande" font-size="22.0" fill="#FEFFFE" transform="matrix(1.00, 0.00, -0.00, -1.00, 476.7, 11.6)">p</text><text xml:space="preserve" font-family="LucidaGrande,Lucida Grande" font-size="22.0" fill="#FEFFFE" transform="matrix(1.00, 0.00, -0.00, -1.00, 490.5, 11.6)">:</text><text xml:space="preserve" font-family="LucidaGrande,Lucida Grande" font-size="22.0" fill="#FEFFFE" transform="matrix(1.00, 0.00, -0.00, -1.00, 497.5, 11.6)">/</text><text xml:space="preserve" font-family="LucidaGrande,Lucida Grande" font-size="22.0" fill="#FEFFFE" transform="matrix(1.00, 0.00, -0.00, -1.00, 509.0, 11.6)">/</text><text xml:space="preserve" font-family="LucidaGrande,Lucida Grande" font-size="22.0" fill="#FEFFFE" transform="matrix(1.00, 0.00, -0.00, -1.00, 520.6, 11.6)">j</text><text xml:space="preserve" font-family="LucidaGrande,Lucida Grande" font-size="22.0" fill="#FEFFFE" transform="matrix(1.00, 0.00, -0.00, -1.00, 527.3, 11.6)">.</text><text xml:space="preserve" font-family="LucidaGrande,Lucida Grande" font-size="22.0" fill="#FEFFFE" transform="matrix(1.00, 0.00, -0.00, -1.00, 534.3, 11.6)">m</text><text xml:space="preserve" font-family="LucidaGrande,Lucida Grande" font-size="22.0" fill="#FEFFFE" transform="matrix(1.00, 0.00, -0.00, -1.00, 554.8, 11.6)">p</text><text xml:space="preserve" font-family="LucidaGrande,Lucida Grande" font-size="22.0" fill="#FEFFFE" transform="matrix(1.00, 0.00, -0.00, -1.00, 568.6, 11.6)">/</text><text xml:space="preserve" font-family="LucidaGrande,Lucida Grande" font-size="22.0" fill="#FEFFFE" transform="matrix(1.00, 0.00, -0.00, -1.00, 580.2, 11.6)">p</text><text xml:space="preserve" font-family="LucidaGrande,Lucida Grande" font-size="22.0" fill="#FEFFFE" transform="matrix(1.00, 0.00, -0.00, -1.00, 594.0, 11.6)">s</text><text xml:space="preserve" font-family="LucidaGrande,Lucida Grande" font-size="22.0" fill="#FEFFFE" transform="matrix(1.00, 0.00, -0.00, -1.00, 605.3, 11.6)">u</text><text xml:space="preserve" font-family="LucidaGrande,Lucida Grande" font-size="22.0" fill="#FEFFFE" transform="matrix(1.00, 0.00, -0.00, -1.00, 618.9, 11.6)">m</text><text xml:space="preserve" font-family="LucidaGrande,Lucida Grande" font-size="22.0" fill="#FEFFFE" transform="matrix(1.00, 0.00, -0.00, -1.00, 639.4, 11.6)">a</text><text xml:space="preserve" font-family="LucidaGrande,Lucida Grande" font-size="22.0" fill="#FEFFFE" transform="matrix(1.00, 0.00, -0.00, -1.00, 651.6, 11.6)">c</text><text xml:space="preserve" font-family="LucidaGrande,Lucida Grande" font-size="22.0" fill="#FEFFFE" transform="matrix(1.00, 0.00, -0.00, -1.00, 662.9, 11.6)">1</text><text xml:space="preserve" font-family="LucidaGrande,Lucida Grande" font-size="22.0" fill="#FEFFFE" transform="matrix(1.00, 0.00, -0.00, -1.00, 676.8, 11.6)">3</text><g opacity="0.30"><g><clipPath id="clip0x7f9c3ba9f8b0"><path d="M 258.0 499.0 L 396.0 499.0 L 396.0 748.0 L 258.0 748.0 Z M 258.0 499.0 "></path></clipPath><g clip-path="url(#clip0x7f9c3ba9f8b0)"><path d="M 270.2 745.0 L 270.0 707.0 L 260.8 541.4 L 263.2 502.0 L 333.0 501.0 L 333.0 541.4 L 378.8 666.4 L 392.3 706.6 L 393.8 744.0 L 270.2 745.0 Z M 270.2 745.4 " fill="#95D25F"></path><path d="M 9.4 0.4 L 9.2 38.4 L 0.0 204.1 L 2.4 243.4 L 72.2 244.4 L 72.2 204.0 L 118.0 79.0 L 131.5 38.8 L 133.0 1.4 L 9.4 0.4 Z M 9.4 0.0 " fill="none" stroke="#FEFFFF" stroke-width="2.00" transform="matrix(1.00, 0.00, 0.00, -1.00, 260.8, 745.4)"></path></g></g></g><text xml:space="preserve" font-family="Monaco,Monaco" font-size="42.0" fill="#37DE1B" transform="matrix(1.00, 0.00, -0.00, -1.00, 57.2, 567.8)">$</text><text xml:space="preserve" font-family="Monaco,Monaco" font-size="42.0" fill="#37DE1B" transform="matrix(1.00, 0.00, -0.00, -1.00, 82.4, 567.8)"> </text><text xml:space="preserve" font-family="Monaco,Monaco" font-size="42.0" fill="#37DE1B" transform="matrix(1.00, 0.00, -0.00, -1.00, 107.6, 567.8)">l</text><text xml:space="preserve" font-family="Monaco,Monaco" font-size="42.0" fill="#37DE1B" transform="matrix(1.00, 0.00, -0.00, -1.00, 132.8, 567.8)">s</text><text xml:space="preserve" font-family="Monaco,Monaco" font-size="42.0" fill="#37DE1B" transform="matrix(1.00, 0.00, -0.00, -1.00, 158.0, 567.8)"> </text><text xml:space="preserve" font-family="Monaco,Monaco" font-size="42.0" fill="#37DE1B" transform="matrix(1.00, 0.00, -0.00, -1.00, 183.2, 567.8)">-</text><text xml:space="preserve" font-family="Monaco,Monaco" font-size="42.0" fill="#37DE1B" transform="matrix(1.00, 0.00, -0.00, -1.00, 208.4, 567.8)">l</text><text xml:space="preserve" font-family="Monaco,Monaco" font-size="42.0" fill="#37DE1B" transform="matrix(1.00, 0.00, -0.00, -1.00, 233.6, 567.8)"> </text><text xml:space="preserve" font-family="Monaco,Monaco" font-size="42.0" fill="#37DE1B" transform="matrix(1.00, 0.00, -0.00, -1.00, 258.8, 567.8)">h</text><text xml:space="preserve" font-family="Monaco,Monaco" font-size="42.0" fill="#37DE1B" transform="matrix(1.00, 0.00, -0.00, -1.00, 284.1, 567.8)">e</text><text xml:space="preserve" font-family="Monaco,Monaco" font-size="42.0" fill="#37DE1B" transform="matrix(1.00, 0.00, -0.00, -1.00, 309.3, 567.8)">l</text><text xml:space="preserve" font-family="Monaco,Monaco" font-size="42.0" fill="#37DE1B" transform="matrix(1.00, 0.00, -0.00, -1.00, 334.5, 567.8)">l</text><text xml:space="preserve" font-family="Monaco,Monaco" font-size="42.0" fill="#37DE1B" transform="matrix(1.00, 0.00, -0.00, -1.00, 359.7, 567.8)">o</text><text xml:space="preserve" font-family="Monaco,Monaco" font-size="42.0" fill="#37DE1B" transform="matrix(1.00, 0.00, -0.00, -1.00, 384.9, 567.8)">.</text><text xml:space="preserve" font-family="Monaco,Monaco" font-size="42.0" fill="#37DE1B" transform="matrix(1.00, 0.00, -0.00, -1.00, 410.1, 567.8)">s</text><text xml:space="preserve" font-family="Monaco,Monaco" font-size="42.0" fill="#37DE1B" transform="matrix(1.00, 0.00, -0.00, -1.00, 435.3, 567.8)">h</text><text xml:space="preserve" font-family="Monaco,Monaco" font-size="42.0" fill="#37DE1B" transform="matrix(1.00, 0.00, -0.00, -1.00, 460.5, 567.8)">	</text><text xml:space="preserve" font-family="Monaco,Monaco" font-size="42.0" fill="#37DE1B" transform="matrix(1.00, 0.00, -0.00, -1.00, 57.2, 510.8)"> </text><text xml:space="preserve" font-family="Monaco,Monaco" font-size="42.0" fill="#37DE1B" transform="matrix(1.00, 0.00, -0.00, -1.00, 82.4, 510.8)">-</text><text xml:space="preserve" font-family="Monaco,Monaco" font-size="42.0" fill="#37DE1B" transform="matrix(1.00, 0.00, -0.00, -1.00, 107.6, 510.8)">r</text><text xml:space="preserve" font-family="Monaco,Monaco" font-size="42.0" fill="#37DE1B" transform="matrix(1.00, 0.00, -0.00, -1.00, 132.8, 510.8)">w</text><text xml:space="preserve" font-family="Monaco,Monaco" font-size="42.0" fill="#37DE1B" transform="matrix(1.00, 0.00, -0.00, -1.00, 158.0, 510.8)">-</text><text xml:space="preserve" font-family="Monaco,Monaco" font-size="42.0" fill="#37DE1B" transform="matrix(1.00, 0.00, -0.00, -1.00, 183.2, 510.8)">r</text><text xml:space="preserve" font-family="Monaco,Monaco" font-size="42.0" fill="#37DE1B" transform="matrix(1.00, 0.00, -0.00, -1.00, 208.4, 510.8)">-</text><text xml:space="preserve" font-family="Monaco,Monaco" font-size="42.0" fill="#37DE1B" transform="matrix(1.00, 0.00, -0.00, -1.00, 233.6, 510.8)">-</text><text xml:space="preserve" font-family="Monaco,Monaco" font-size="42.0" fill="#37DE1B" transform="matrix(1.00, 0.00, -0.00, -1.00, 258.8, 510.8)">r</text><text xml:space="preserve" font-family="Monaco,Monaco" font-size="42.0" fill="#37DE1B" transform="matrix(1.00, 0.00, -0.00, -1.00, 284.1, 510.8)">-</text><text xml:space="preserve" font-family="Monaco,Monaco" font-size="42.0" fill="#37DE1B" transform="matrix(1.00, 0.00, -0.00, -1.00, 309.3, 510.8)">-</text><text xml:space="preserve" font-family="Monaco,Monaco" font-size="42.0" fill="#37DE1B" transform="matrix(1.00, 0.00, -0.00, -1.00, 334.5, 510.8)">@</text><text xml:space="preserve" font-family="Monaco,Monaco" font-size="42.0" fill="#37DE1B" transform="matrix(1.00, 0.00, -0.00, -1.00, 359.7, 510.8)"> </text><text xml:space="preserve" font-family="Monaco,Monaco" font-size="42.0" fill="#37DE1B" transform="matrix(1.00, 0.00, -0.00, -1.00, 384.9, 510.8)">1</text><text xml:space="preserve" font-family="Monaco,Monaco" font-size="42.0" fill="#37DE1B" transform="matrix(1.00, 0.00, -0.00, -1.00, 410.1, 510.8)"> </text><text xml:space="preserve" font-family="Monaco,Monaco" font-size="42.0" fill="#37DE1B" transform="matrix(1.00, 0.00, -0.00, -1.00, 435.3, 510.8)">u</text><text xml:space="preserve" font-family="Monaco,Monaco" font-size="42.0" fill="#37DE1B" transform="matrix(1.00, 0.00, -0.00, -1.00, 460.5, 510.8)">s</text><text xml:space="preserve" font-family="Monaco,Monaco" font-size="42.0" fill="#37DE1B" transform="matrix(1.00, 0.00, -0.00, -1.00, 485.7, 510.8)">e</text><text xml:space="preserve" font-family="Monaco,Monaco" font-size="42.0" fill="#37DE1B" transform="matrix(1.00, 0.00, -0.00, -1.00, 510.9, 510.8)">r</text><text xml:space="preserve" font-family="Monaco,Monaco" font-size="42.0" fill="#37DE1B" transform="matrix(1.00, 0.00, -0.00, -1.00, 536.1, 510.8)">a</text><text xml:space="preserve" font-family="Monaco,Monaco" font-size="42.0" fill="#37DE1B" transform="matrix(1.00, 0.00, -0.00, -1.00, 561.3, 510.8)"> </text><text xml:space="preserve" font-family="Monaco,Monaco" font-size="42.0" fill="#37DE1B" transform="matrix(1.00, 0.00, -0.00, -1.00, 586.6, 510.8)"> </text><text xml:space="preserve" font-family="Monaco,Monaco" font-size="42.0" fill="#37DE1B" transform="matrix(1.00, 0.00, -0.00, -1.00, 611.8, 510.8)">s</text><text xml:space="preserve" font-family="Monaco,Monaco" font-size="42.0" fill="#37DE1B" transform="matrix(1.00, 0.00, -0.00, -1.00, 637.0, 510.8)">t</text><text xml:space="preserve" font-family="Monaco,Monaco" font-size="42.0" fill="#37DE1B" transform="matrix(1.00, 0.00, -0.00, -1.00, 662.2, 510.8)">a</text><text xml:space="preserve" font-family="Monaco,Monaco" font-size="42.0" fill="#37DE1B" transform="matrix(1.00, 0.00, -0.00, -1.00, 687.4, 510.8)">f</text><text xml:space="preserve" font-family="Monaco,Monaco" font-size="42.0" fill="#37DE1B" transform="matrix(1.00, 0.00, -0.00, -1.00, 712.6, 510.8)">f</text><text xml:space="preserve" font-family="Monaco,Monaco" font-size="42.0" fill="#37DE1B" transform="matrix(1.00, 0.00, -0.00, -1.00, 737.8, 510.8)">.</text><text xml:space="preserve" font-family="Monaco,Monaco" font-size="42.0" fill="#37DE1B" transform="matrix(1.00, 0.00, -0.00, -1.00, 763.0, 510.8)">.</text><text xml:space="preserve" font-family="Monaco,Monaco" font-size="42.0" fill="#37DE1B" transform="matrix(1.00, 0.00, -0.00, -1.00, 788.2, 510.8)">.</text><text xml:space="preserve" font-family="Monaco,Monaco" font-size="42.0" fill="#37DE1B" transform="matrix(1.00, 0.00, -0.00, -1.00, 813.4, 510.8)">.</text><text xml:space="preserve" font-family="Monaco,Monaco" font-size="42.0" fill="#37DE1B" transform="matrix(1.00, 0.00, -0.00, -1.00, 838.6, 510.8)">.</text><text xml:space="preserve" font-family="Monaco,Monaco" font-size="42.0" fill="#37DE1B" transform="matrix(1.00, 0.00, -0.00, -1.00, 863.8, 510.8)">.</text><text xml:space="preserve" font-family="Monaco,Monaco" font-size="42.0" fill="#37DE1B" transform="matrix(1.00, 0.00, -0.00, -1.00, 889.1, 510.8)">	</text><text xml:space="preserve" font-family="Monaco,Monaco" font-size="42.0" fill="#37DE1B" transform="matrix(1.00, 0.00, -0.00, -1.00, 57.2, 453.8)">$</text><text xml:space="preserve" font-family="Monaco,Monaco" font-size="42.0" fill="#37DE1B" transform="matrix(1.00, 0.00, -0.00, -1.00, 82.4, 453.8)">	</text><g opacity="0.40"><g><clipPath id="clip0x7f9c3babcaf0"><path d="M 16.0 496.0 L 183.0 496.0 L 183.0 747.0 L 16.0 747.0 Z M 16.0 496.0 "></path></clipPath><g clip-path="url(#clip0x7f9c3babcaf0)"><path d="M 18.4 744.0 L 18.0 700.4 L 111.0 537.5 L 111.0 500.0 L 180.0 501.0 L 181.0 532.9 L 111.0 700.9 L 111.0 745.0 L 18.4 744.0 Z M 18.4 744.2 " fill="#00C6FC"></path><path d="M 0.1 1.0 L -0.2 44.6 L 92.8 207.4 L 92.8 245.0 L 161.8 244.0 L 162.8 212.1 L 92.8 44.1 L 92.8 -0.0 L 0.1 1.0 Z M 0.1 0.7 " fill="none" stroke="#FEFFFF" stroke-width="2.00" transform="matrix(1.00, 0.00, 0.00, -1.00, 18.2, 745.0)"></path></g></g></g><text xml:space="preserve" font-family="GillSans,Gill Sans" font-size="42.0" fill="#FEFFFF" transform="matrix(1.00, 0.00, -0.00, -1.00, 24.3, 712.7)">U</text><text xml:space="preserve" font-family="GillSans,Gill Sans" font-size="42.0" fill="#FEFFFF" transform="matrix(1.00, 0.00, -0.00, -1.00, 54.0, 712.7)">s</text><text xml:space="preserve" font-family="GillSans,Gill Sans" font-size="42.0" fill="#FEFFFF" transform="matrix(1.00, 0.00, -0.00, -1.00, 70.2, 712.7)">e</text><text xml:space="preserve" font-family="GillSans,Gill Sans" font-size="42.0" fill="#FEFFFF" transform="matrix(1.00, 0.00, -0.00, -1.00, 90.3, 712.7)">r</text><g opacity="0.30"><g><clipPath id="clip0x7f9c3bac1690"><path d="M 123.0 497.0 L 259.0 497.0 L 259.0 749.0 L 123.0 749.0 Z M 123.0 497.0 "></path></clipPath><g clip-path="url(#clip0x7f9c3bac1690)"><path d="M 125.7 745.0 L 127.0 703.7 L 186.0 548.0 L 186.0 501.0 L 256.0 501.0 L 256.0 546.8 L 256.0 704.0 L 256.0 746.0 L 125.7 745.0 Z M 125.7 745.1 " fill="#E63B7A"></path><path d="M 0.0 1.0 L 1.3 42.3 L 60.3 198.0 L 60.3 245.0 L 130.3 245.0 L 130.3 199.2 L 130.3 42.0 L 130.3 0.0 L 0.0 1.0 Z M 0.0 0.9 " fill="none" stroke="#FEFFFF" stroke-width="2.00" transform="matrix(1.00, 0.00, 0.00, -1.00, 125.7, 746.0)"></path></g></g></g><text xml:space="preserve" font-family="GillSans,Gill Sans" font-size="42.0" fill="#FEFFFF" transform="matrix(1.00, 0.00, -0.00, -1.00, 134.7, 712.7)">G</text><text xml:space="preserve" font-family="GillSans,Gill Sans" font-size="42.0" fill="#FEFFFF" transform="matrix(1.00, 0.00, -0.00, -1.00, 165.8, 712.7)">r</text><text xml:space="preserve" font-family="GillSans,Gill Sans" font-size="42.0" fill="#FEFFFF" transform="matrix(1.00, 0.00, -0.00, -1.00, 181.3, 712.7)">o</text><text xml:space="preserve" font-family="GillSans,Gill Sans" font-size="42.0" fill="#FEFFFF" transform="matrix(1.00, 0.00, -0.00, -1.00, 204.5, 712.7)">u</text><text xml:space="preserve" font-family="GillSans,Gill Sans" font-size="42.0" fill="#FEFFFF" transform="matrix(1.00, 0.00, -0.00, -1.00, 225.5, 712.7)">p</text><text xml:space="preserve" font-family="GillSans,Gill Sans" font-size="42.0" fill="#FEFFFF" transform="matrix(1.00, 0.00, -0.00, -1.00, 274.4, 712.7)">O</text><text xml:space="preserve" font-family="GillSans,Gill Sans" font-size="42.0" fill="#FEFFFF" transform="matrix(1.00, 0.00, -0.00, -1.00, 309.0, 712.7)">t</text><text xml:space="preserve" font-family="GillSans,Gill Sans" font-size="42.0" fill="#FEFFFF" transform="matrix(1.00, 0.00, -0.00, -1.00, 323.0, 712.7)">h</text><text xml:space="preserve" font-family="GillSans,Gill Sans" font-size="42.0" fill="#FEFFFF" transform="matrix(1.00, 0.00, -0.00, -1.00, 344.0, 712.7)">e</text><text xml:space="preserve" font-family="GillSans,Gill Sans" font-size="42.0" fill="#FEFFFF" transform="matrix(1.00, 0.00, -0.00, -1.00, 364.1, 712.7)">r</text></g></svg>