<?xml version="1.0" encoding="UTF-8" standalone="no"?><svg xmlns="http://www.w3.org/2000/svg" xmlns:xlink="http://www.w3.org/1999/xlink" clip-rule="evenodd" stroke-miterlimit="10" viewBox="0 0 1024 768"><desc>SVG generated by Keynote</desc><defs></defs><g transform="matrix(1.00, 0.00, -0.00, -1.00, 0.0, 768.0)"><path d="M 0.0 768.0 L 1024.0 768.0 L 1024.0 0.0 L 0.0 0.0 Z M 0.0 768.0 " fill="#000000"></path><image xlink:href="../../ACF26528-510F-4087-92A7-D9431E4A7675/assets/C07D05C049E9C3A813AD52BFC7182A2D.png" width="983.00" height="584.00" transform="matrix(1.00, 0.00, -0.00, -1.00, 10.2, 664.7)" opacity="0.75"></image><image xlink:href="../../ACF26528-510F-4087-92A7-D9431E4A7675/assets/B8B89F8D2E49298F363D8341A9D067FB.png" width="963.00" height="564.00" transform="matrix(1.00, 0.00, -0.00, -1.00, 30.0, 666.0)"></image><text xml:space="preserve" font-family="LucidaGrande,Lucida Grande" font-size="22.0" fill="#FEFFFE" transform="matrix(1.00, 0.00, -0.00, -1.00, 332.4, 11.6)">F</text><text xml:space="preserve" font-family="LucidaGrande,Lucida Grande" font-size="22.0" fill="#FEFFFE" transform="matrix(1.00, 0.00, -0.00, -1.00, 344.2, 11.6)">e</text><text xml:space="preserve" font-family="LucidaGrande,Lucida Grande" font-size="22.0" fill="#FEFFFE" transform="matrix(1.00, 0.00, -0.00, -1.00, 356.4, 11.6)">e</text><text xml:space="preserve" font-family="LucidaGrande,Lucida Grande" font-size="22.0" fill="#FEFFFE" transform="matrix(1.00, 0.00, -0.00, -1.00, 368.7, 11.6)">d</text><text xml:space="preserve" font-family="LucidaGrande,Lucida Grande" font-size="22.0" fill="#FEFFFE" transform="matrix(1.00, 0.00, -0.00, -1.00, 382.5, 11.6)">b</text><text xml:space="preserve" font-family="LucidaGrande,Lucida Grande" font-size="22.0" fill="#FEFFFE" transform="matrix(1.00, 0.00, -0.00, -1.00, 396.4, 11.6)">a</text><text xml:space="preserve" font-family="LucidaGrande,Lucida Grande" font-size="22.0" fill="#FEFFFE" transform="matrix(1.00, 0.00, -0.00, -1.00, 408.5, 11.6)">c</text><text xml:space="preserve" font-family="LucidaGrande,Lucida Grande" font-size="22.0" fill="#FEFFFE" transform="matrix(1.00, 0.00, -0.00, -1.00, 419.8, 11.6)">k</text><text xml:space="preserve" font-family="LucidaGrande,Lucida Grande" font-size="22.0" fill="#FEFFFE" transform="matrix(1.00, 0.00, -0.00, -1.00, 432.7, 11.6)">:</text><text xml:space="preserve" font-family="LucidaGrande,Lucida Grande" font-size="22.0" fill="#FEFFFE" transform="matrix(1.00, 0.00, -0.00, -1.00, 439.6, 11.6)"> </text><text xml:space="preserve" font-family="LucidaGrande,Lucida Grande" font-size="22.0" fill="#FEFFFE" transform="matrix(1.00, 0.00, -0.00, -1.00, 446.6, 11.6)">h</text><text xml:space="preserve" font-family="LucidaGrande,Lucida Grande" font-size="22.0" fill="#FEFFFE" transform="matrix(1.00, 0.00, -0.00, -1.00, 460.2, 11.6)">t</text><text xml:space="preserve" font-family="LucidaGrande,Lucida Grande" font-size="22.0" fill="#FEFFFE" transform="matrix(1.00, 0.00, -0.00, -1.00, 468.4, 11.6)">t</text><text xml:space="preserve" font-family="LucidaGrande,Lucida Grande" font-size="22.0" fill="#FEFFFE" transform="matrix(1.00, 0.00, -0.00, -1.00, 476.7, 11.6)">p</text><text xml:space="preserve" font-family="LucidaGrande,Lucida Grande" font-size="22.0" fill="#FEFFFE" transform="matrix(1.00, 0.00, -0.00, -1.00, 490.5, 11.6)">:</text><text xml:space="preserve" font-family="LucidaGrande,Lucida Grande" font-size="22.0" fill="#FEFFFE" transform="matrix(1.00, 0.00, -0.00, -1.00, 497.5, 11.6)">/</text><text xml:space="preserve" font-family="LucidaGrande,Lucida Grande" font-size="22.0" fill="#FEFFFE" transform="matrix(1.00, 0.00, -0.00, -1.00, 509.0, 11.6)">/</text><text xml:space="preserve" font-family="LucidaGrande,Lucida Grande" font-size="22.0" fill="#FEFFFE" transform="matrix(1.00, 0.00, -0.00, -1.00, 520.6, 11.6)">j</text><text xml:space="preserve" font-family="LucidaGrande,Lucida Grande" font-size="22.0" fill="#FEFFFE" transform="matrix(1.00, 0.00, -0.00, -1.00, 527.3, 11.6)">.</text><text xml:space="preserve" font-family="LucidaGrande,Lucida Grande" font-size="22.0" fill="#FEFFFE" transform="matrix(1.00, 0.00, -0.00, -1.00, 534.3, 11.6)">m</text><text xml:space="preserve" font-family="LucidaGrande,Lucida Grande" font-size="22.0" fill="#FEFFFE" transform="matrix(1.00, 0.00, -0.00, -1.00, 554.8, 11.6)">p</text><text xml:space="preserve" font-family="LucidaGrande,Lucida Grande" font-size="22.0" fill="#FEFFFE" transform="matrix(1.00, 0.00, -0.00, -1.00, 568.6, 11.6)">/</text><text xml:space="preserve" font-family="LucidaGrande,Lucida Grande" font-size="22.0" fill="#FEFFFE" transform="matrix(1.00, 0.00, -0.00, -1.00, 580.2, 11.6)">p</text><text xml:space="preserve" font-family="LucidaGrande,Lucida Grande" font-size="22.0" fill="#FEFFFE" transform="matrix(1.00, 0.00, -0.00, -1.00, 594.0, 11.6)">s</text><text xml:space="preserve" font-family="LucidaGrande,Lucida Grande" font-size="22.0" fill="#FEFFFE" transform="matrix(1.00, 0.00, -0.00, -1.00, 605.3, 11.6)">u</text><text xml:space="preserve" font-family="LucidaGrande,Lucida Grande" font-size="22.0" fill="#FEFFFE" transform="matrix(1.00, 0.00, -0.00, -1.00, 618.9, 11.6)">m</text><text xml:space="preserve" font-family="LucidaGrande,Lucida Grande" font-size="22.0" fill="#FEFFFE" transform="matrix(1.00, 0.00, -0.00, -1.00, 639.4, 11.6)">a</text><text xml:space="preserve" font-family="LucidaGrande,Lucida Grande" font-size="22.0" fill="#FEFFFE" transform="matrix(1.00, 0.00, -0.00, -1.00, 651.6, 11.6)">c</text><text xml:space="preserve" font-family="LucidaGrande,Lucida Grande" font-size="22.0" fill="#FEFFFE" transform="matrix(1.00, 0.00, -0.00, -1.00, 662.9, 11.6)">1</text><text xml:space="preserve" font-family="LucidaGrande,Lucida Grande" font-size="22.0" fill="#FEFFFE" transform="matrix(1.00, 0.00, -0.00, -1.00, 676.8, 11.6)">3</text><text xml:space="preserve" font-family="Monaco,Monaco" font-size="25.0" fill="#37DE1B" transform="matrix(1.00, 0.00, -0.00, -1.00, 57.2, 539.8)">$</text><text xml:space="preserve" font-family="Monaco,Monaco" font-size="25.0" fill="#37DE1B" transform="matrix(1.00, 0.00, -0.00, -1.00, 72.2, 539.8)"> </text><text xml:space="preserve" font-family="Monaco,Monaco" font-size="25.0" fill="#37DE1B" transform="matrix(1.00, 0.00, -0.00, -1.00, 87.2, 539.8)">l</text><text xml:space="preserve" font-family="Monaco,Monaco" font-size="25.0" fill="#37DE1B" transform="matrix(1.00, 0.00, -0.00, -1.00, 102.2, 539.8)">s</text><text xml:space="preserve" font-family="Monaco,Monaco" font-size="25.0" fill="#37DE1B" transform="matrix(1.00, 0.00, -0.00, -1.00, 117.2, 539.8)"> </text><text xml:space="preserve" font-family="Monaco,Monaco" font-size="25.0" fill="#37DE1B" transform="matrix(1.00, 0.00, -0.00, -1.00, 132.2, 539.8)">-</text><text xml:space="preserve" font-family="Monaco,Monaco" font-size="25.0" fill="#37DE1B" transform="matrix(1.00, 0.00, -0.00, -1.00, 147.2, 539.8)">l</text><text xml:space="preserve" font-family="Monaco,Monaco" font-size="25.0" fill="#37DE1B" transform="matrix(1.00, 0.00, -0.00, -1.00, 162.2, 539.8)"> </text><text xml:space="preserve" font-family="Monaco,Monaco" font-size="25.0" fill="#37DE1B" transform="matrix(1.00, 0.00, -0.00, -1.00, 177.2, 539.8)">/</text><text xml:space="preserve" font-family="Monaco,Monaco" font-size="25.0" fill="#37DE1B" transform="matrix(1.00, 0.00, -0.00, -1.00, 192.2, 539.8)">d</text><text xml:space="preserve" font-family="Monaco,Monaco" font-size="25.0" fill="#37DE1B" transform="matrix(1.00, 0.00, -0.00, -1.00, 207.2, 539.8)">e</text><text xml:space="preserve" font-family="Monaco,Monaco" font-size="25.0" fill="#37DE1B" transform="matrix(1.00, 0.00, -0.00, -1.00, 222.2, 539.8)">v</text><text xml:space="preserve" font-family="Monaco,Monaco" font-size="25.0" fill="#37DE1B" transform="matrix(1.00, 0.00, -0.00, -1.00, 237.2, 539.8)">	</text><text xml:space="preserve" font-family="Monaco,Monaco" font-size="25.0" fill="#37DE1B" transform="matrix(1.00, 0.00, -0.00, -1.00, 57.2, 506.8)">t</text><text xml:space="preserve" font-family="Monaco,Monaco" font-size="25.0" fill="#37DE1B" transform="matrix(1.00, 0.00, -0.00, -1.00, 72.2, 506.8)">o</text><text xml:space="preserve" font-family="Monaco,Monaco" font-size="25.0" fill="#37DE1B" transform="matrix(1.00, 0.00, -0.00, -1.00, 87.2, 506.8)">t</text><text xml:space="preserve" font-family="Monaco,Monaco" font-size="25.0" fill="#37DE1B" transform="matrix(1.00, 0.00, -0.00, -1.00, 102.2, 506.8)">a</text><text xml:space="preserve" font-family="Monaco,Monaco" font-size="25.0" fill="#37DE1B" transform="matrix(1.00, 0.00, -0.00, -1.00, 117.2, 506.8)">l</text><text xml:space="preserve" font-family="Monaco,Monaco" font-size="25.0" fill="#37DE1B" transform="matrix(1.00, 0.00, -0.00, -1.00, 132.2, 506.8)"> </text><text xml:space="preserve" font-family="Monaco,Monaco" font-size="25.0" fill="#37DE1B" transform="matrix(1.00, 0.00, -0.00, -1.00, 147.2, 506.8)">0</text><text xml:space="preserve" font-family="Monaco,Monaco" font-size="25.0" fill="#37DE1B" transform="matrix(1.00, 0.00, -0.00, -1.00, 162.2, 506.8)">	</text><text xml:space="preserve" font-family="Monaco,Monaco" font-size="25.0" fill="#37DE1B" transform="matrix(1.00, 0.00, -0.00, -1.00, 57.2, 473.8)">c</text><text xml:space="preserve" font-family="Monaco,Monaco" font-size="25.0" fill="#37DE1B" transform="matrix(1.00, 0.00, -0.00, -1.00, 72.2, 473.8)">r</text><text xml:space="preserve" font-family="Monaco,Monaco" font-size="25.0" fill="#37DE1B" transform="matrix(1.00, 0.00, -0.00, -1.00, 87.2, 473.8)">w</text><text xml:space="preserve" font-family="Monaco,Monaco" font-size="25.0" fill="#37DE1B" transform="matrix(1.00, 0.00, -0.00, -1.00, 102.2, 473.8)">-</text><text xml:space="preserve" font-family="Monaco,Monaco" font-size="25.0" fill="#37DE1B" transform="matrix(1.00, 0.00, -0.00, -1.00, 117.2, 473.8)">-</text><text xml:space="preserve" font-family="Monaco,Monaco" font-size="25.0" fill="#37DE1B" transform="matrix(1.00, 0.00, -0.00, -1.00, 132.2, 473.8)">-</text><text xml:space="preserve" font-family="Monaco,Monaco" font-size="25.0" fill="#37DE1B" transform="matrix(1.00, 0.00, -0.00, -1.00, 147.2, 473.8)">-</text><text xml:space="preserve" font-family="Monaco,Monaco" font-size="25.0" fill="#37DE1B" transform="matrix(1.00, 0.00, -0.00, -1.00, 162.2, 473.8)">-</text><text xml:space="preserve" font-family="Monaco,Monaco" font-size="25.0" fill="#37DE1B" transform="matrix(1.00, 0.00, -0.00, -1.00, 177.2, 473.8)">-</text><text xml:space="preserve" font-family="Monaco,Monaco" font-size="25.0" fill="#37DE1B" transform="matrix(1.00, 0.00, -0.00, -1.00, 192.2, 473.8)">-</text><text xml:space="preserve" font-family="Monaco,Monaco" font-size="25.0" fill="#37DE1B" transform="matrix(1.00, 0.00, -0.00, -1.00, 207.2, 473.8)"> </text><text xml:space="preserve" font-family="Monaco,Monaco" font-size="25.0" fill="#37DE1B" transform="matrix(1.00, 0.00, -0.00, -1.00, 222.2, 473.8)">1</text><text xml:space="preserve" font-family="Monaco,Monaco" font-size="25.0" fill="#37DE1B" transform="matrix(1.00, 0.00, -0.00, -1.00, 237.2, 473.8)"> </text><text xml:space="preserve" font-family="Monaco,Monaco" font-size="25.0" fill="#37DE1B" transform="matrix(1.00, 0.00, -0.00, -1.00, 252.2, 473.8)">r</text><text xml:space="preserve" font-family="Monaco,Monaco" font-size="25.0" fill="#37DE1B" transform="matrix(1.00, 0.00, -0.00, -1.00, 267.2, 473.8)">o</text><text xml:space="preserve" font-family="Monaco,Monaco" font-size="25.0" fill="#37DE1B" transform="matrix(1.00, 0.00, -0.00, -1.00, 282.3, 473.8)">o</text><text xml:space="preserve" font-family="Monaco,Monaco" font-size="25.0" fill="#37DE1B" transform="matrix(1.00, 0.00, -0.00, -1.00, 297.3, 473.8)">t</text><text xml:space="preserve" font-family="Monaco,Monaco" font-size="25.0" fill="#37DE1B" transform="matrix(1.00, 0.00, -0.00, -1.00, 312.3, 473.8)"> </text><text xml:space="preserve" font-family="Monaco,Monaco" font-size="25.0" fill="#37DE1B" transform="matrix(1.00, 0.00, -0.00, -1.00, 327.3, 473.8)"> </text><text xml:space="preserve" font-family="Monaco,Monaco" font-size="25.0" fill="#37DE1B" transform="matrix(1.00, 0.00, -0.00, -1.00, 342.3, 473.8)"> </text><text xml:space="preserve" font-family="Monaco,Monaco" font-size="25.0" fill="#37DE1B" transform="matrix(1.00, 0.00, -0.00, -1.00, 357.3, 473.8)"> </text><text xml:space="preserve" font-family="Monaco,Monaco" font-size="25.0" fill="#37DE1B" transform="matrix(1.00, 0.00, -0.00, -1.00, 372.3, 473.8)">w</text><text xml:space="preserve" font-family="Monaco,Monaco" font-size="25.0" fill="#37DE1B" transform="matrix(1.00, 0.00, -0.00, -1.00, 387.3, 473.8)">h</text><text xml:space="preserve" font-family="Monaco,Monaco" font-size="25.0" fill="#37DE1B" transform="matrix(1.00, 0.00, -0.00, -1.00, 402.3, 473.8)">e</text><text xml:space="preserve" font-family="Monaco,Monaco" font-size="25.0" fill="#37DE1B" transform="matrix(1.00, 0.00, -0.00, -1.00, 417.3, 473.8)">e</text><text xml:space="preserve" font-family="Monaco,Monaco" font-size="25.0" fill="#37DE1B" transform="matrix(1.00, 0.00, -0.00, -1.00, 432.3, 473.8)">l</text><text xml:space="preserve" font-family="Monaco,Monaco" font-size="25.0" fill="#37DE1B" transform="matrix(1.00, 0.00, -0.00, -1.00, 447.3, 473.8)"> </text><text xml:space="preserve" font-family="Monaco,Monaco" font-size="25.0" fill="#37DE1B" transform="matrix(1.00, 0.00, -0.00, -1.00, 462.3, 473.8)"> </text><text xml:space="preserve" font-family="Monaco,Monaco" font-size="25.0" fill="#37DE1B" transform="matrix(1.00, 0.00, -0.00, -1.00, 477.3, 473.8)"> </text><text xml:space="preserve" font-family="Monaco,Monaco" font-size="25.0" fill="#37DE1B" transform="matrix(1.00, 0.00, -0.00, -1.00, 492.3, 473.8)"> </text><text xml:space="preserve" font-family="Monaco,Monaco" font-size="25.0" fill="#37DE1B" transform="matrix(1.00, 0.00, -0.00, -1.00, 507.3, 473.8)">1</text><text xml:space="preserve" font-family="Monaco,Monaco" font-size="25.0" fill="#37DE1B" transform="matrix(1.00, 0.00, -0.00, -1.00, 522.3, 473.8)">4</text><text xml:space="preserve" font-family="Monaco,Monaco" font-size="25.0" fill="#37DE1B" transform="matrix(1.00, 0.00, -0.00, -1.00, 537.3, 473.8)">,</text><text xml:space="preserve" font-family="Monaco,Monaco" font-size="25.0" fill="#37DE1B" transform="matrix(1.00, 0.00, -0.00, -1.00, 552.3, 473.8)"> </text><text xml:space="preserve" font-family="Monaco,Monaco" font-size="25.0" fill="#37DE1B" transform="matrix(1.00, 0.00, -0.00, -1.00, 567.3, 473.8)"> </text><text xml:space="preserve" font-family="Monaco,Monaco" font-size="25.0" fill="#37DE1B" transform="matrix(1.00, 0.00, -0.00, -1.00, 582.3, 473.8)">1</text><text xml:space="preserve" font-family="Monaco,Monaco" font-size="25.0" fill="#37DE1B" transform="matrix(1.00, 0.00, -0.00, -1.00, 597.4, 473.8)"> </text><text xml:space="preserve" font-family="Monaco,Monaco" font-size="25.0" fill="#37DE1B" transform="matrix(1.00, 0.00, -0.00, -1.00, 612.4, 473.8)">J</text><text xml:space="preserve" font-family="Monaco,Monaco" font-size="25.0" fill="#37DE1B" transform="matrix(1.00, 0.00, -0.00, -1.00, 627.4, 473.8)">u</text><text xml:space="preserve" font-family="Monaco,Monaco" font-size="25.0" fill="#37DE1B" transform="matrix(1.00, 0.00, -0.00, -1.00, 642.4, 473.8)">n</text><text xml:space="preserve" font-family="Monaco,Monaco" font-size="25.0" fill="#37DE1B" transform="matrix(1.00, 0.00, -0.00, -1.00, 657.4, 473.8)"> </text><text xml:space="preserve" font-family="Monaco,Monaco" font-size="25.0" fill="#37DE1B" transform="matrix(1.00, 0.00, -0.00, -1.00, 672.4, 473.8)">2</text><text xml:space="preserve" font-family="Monaco,Monaco" font-size="25.0" fill="#37DE1B" transform="matrix(1.00, 0.00, -0.00, -1.00, 687.4, 473.8)">1</text><text xml:space="preserve" font-family="Monaco,Monaco" font-size="25.0" fill="#37DE1B" transform="matrix(1.00, 0.00, -0.00, -1.00, 702.4, 473.8)"> </text><text xml:space="preserve" font-family="Monaco,Monaco" font-size="25.0" fill="#37DE1B" transform="matrix(1.00, 0.00, -0.00, -1.00, 717.4, 473.8)">2</text><text xml:space="preserve" font-family="Monaco,Monaco" font-size="25.0" fill="#37DE1B" transform="matrix(1.00, 0.00, -0.00, -1.00, 732.4, 473.8)">1</text><text xml:space="preserve" font-family="Monaco,Monaco" font-size="25.0" fill="#37DE1B" transform="matrix(1.00, 0.00, -0.00, -1.00, 747.4, 473.8)">:</text><text xml:space="preserve" font-family="Monaco,Monaco" font-size="25.0" fill="#37DE1B" transform="matrix(1.00, 0.00, -0.00, -1.00, 762.4, 473.8)">1</text><text xml:space="preserve" font-family="Monaco,Monaco" font-size="25.0" fill="#37DE1B" transform="matrix(1.00, 0.00, -0.00, -1.00, 777.4, 473.8)">1</text><text xml:space="preserve" font-family="Monaco,Monaco" font-size="25.0" fill="#37DE1B" transform="matrix(1.00, 0.00, -0.00, -1.00, 792.4, 473.8)"> </text><text xml:space="preserve" font-family="Monaco,Monaco" font-size="25.0" fill="#37DE1B" transform="matrix(1.00, 0.00, -0.00, -1.00, 807.4, 473.8)">a</text><text xml:space="preserve" font-family="Monaco,Monaco" font-size="25.0" fill="#37DE1B" transform="matrix(1.00, 0.00, -0.00, -1.00, 822.4, 473.8)">f</text><text xml:space="preserve" font-family="Monaco,Monaco" font-size="25.0" fill="#37DE1B" transform="matrix(1.00, 0.00, -0.00, -1.00, 837.4, 473.8)">s</text><text xml:space="preserve" font-family="Monaco,Monaco" font-size="25.0" fill="#37DE1B" transform="matrix(1.00, 0.00, -0.00, -1.00, 852.4, 473.8)">c</text><text xml:space="preserve" font-family="Monaco,Monaco" font-size="25.0" fill="#37DE1B" transform="matrix(1.00, 0.00, -0.00, -1.00, 867.4, 473.8)">_</text><text xml:space="preserve" font-family="Monaco,Monaco" font-size="25.0" fill="#37DE1B" transform="matrix(1.00, 0.00, -0.00, -1.00, 882.4, 473.8)">t</text><text xml:space="preserve" font-family="Monaco,Monaco" font-size="25.0" fill="#37DE1B" transform="matrix(1.00, 0.00, -0.00, -1.00, 897.5, 473.8)">y</text><text xml:space="preserve" font-family="Monaco,Monaco" font-size="25.0" fill="#37DE1B" transform="matrix(1.00, 0.00, -0.00, -1.00, 912.5, 473.8)">p</text><text xml:space="preserve" font-family="Monaco,Monaco" font-size="25.0" fill="#37DE1B" transform="matrix(1.00, 0.00, -0.00, -1.00, 927.5, 473.8)">e</text><text xml:space="preserve" font-family="Monaco,Monaco" font-size="25.0" fill="#37DE1B" transform="matrix(1.00, 0.00, -0.00, -1.00, 942.5, 473.8)">5</text><text xml:space="preserve" font-family="Monaco,Monaco" font-size="25.0" fill="#37DE1B" transform="matrix(1.00, 0.00, -0.00, -1.00, 957.5, 473.8)">	</text><text xml:space="preserve" font-family="Monaco,Monaco" font-size="25.0" fill="#37DE1B" transform="matrix(1.00, 0.00, -0.00, -1.00, 57.2, 440.8)">c</text><text xml:space="preserve" font-family="Monaco,Monaco" font-size="25.0" fill="#37DE1B" transform="matrix(1.00, 0.00, -0.00, -1.00, 72.2, 440.8)">r</text><text xml:space="preserve" font-family="Monaco,Monaco" font-size="25.0" fill="#37DE1B" transform="matrix(1.00, 0.00, -0.00, -1.00, 87.2, 440.8)">w</text><text xml:space="preserve" font-family="Monaco,Monaco" font-size="25.0" fill="#37DE1B" transform="matrix(1.00, 0.00, -0.00, -1.00, 102.2, 440.8)">-</text><text xml:space="preserve" font-family="Monaco,Monaco" font-size="25.0" fill="#37DE1B" transform="matrix(1.00, 0.00, -0.00, -1.00, 117.2, 440.8)">-</text><text xml:space="preserve" font-family="Monaco,Monaco" font-size="25.0" fill="#37DE1B" transform="matrix(1.00, 0.00, -0.00, -1.00, 132.2, 440.8)">-</text><text xml:space="preserve" font-family="Monaco,Monaco" font-size="25.0" fill="#37DE1B" transform="matrix(1.00, 0.00, -0.00, -1.00, 147.2, 440.8)">-</text><text xml:space="preserve" font-family="Monaco,Monaco" font-size="25.0" fill="#37DE1B" transform="matrix(1.00, 0.00, -0.00, -1.00, 162.2, 440.8)">-</text><text xml:space="preserve" font-family="Monaco,Monaco" font-size="25.0" fill="#37DE1B" transform="matrix(1.00, 0.00, -0.00, -1.00, 177.2, 440.8)">-</text><text xml:space="preserve" font-family="Monaco,Monaco" font-size="25.0" fill="#37DE1B" transform="matrix(1.00, 0.00, -0.00, -1.00, 192.2, 440.8)">-</text><text xml:space="preserve" font-family="Monaco,Monaco" font-size="25.0" fill="#37DE1B" transform="matrix(1.00, 0.00, -0.00, -1.00, 207.2, 440.8)"> </text><text xml:space="preserve" font-family="Monaco,Monaco" font-size="25.0" fill="#37DE1B" transform="matrix(1.00, 0.00, -0.00, -1.00, 222.2, 440.8)">1</text><text xml:space="preserve" font-family="Monaco,Monaco" font-size="25.0" fill="#37DE1B" transform="matrix(1.00, 0.00, -0.00, -1.00, 237.2, 440.8)"> </text><text xml:space="preserve" font-family="Monaco,Monaco" font-size="25.0" fill="#37DE1B" transform="matrix(1.00, 0.00, -0.00, -1.00, 252.2, 440.8)">r</text><text xml:space="preserve" font-family="Monaco,Monaco" font-size="25.0" fill="#37DE1B" transform="matrix(1.00, 0.00, -0.00, -1.00, 267.2, 440.8)">o</text><text xml:space="preserve" font-family="Monaco,Monaco" font-size="25.0" fill="#37DE1B" transform="matrix(1.00, 0.00, -0.00, -1.00, 282.3, 440.8)">o</text><text xml:space="preserve" font-family="Monaco,Monaco" font-size="25.0" fill="#37DE1B" transform="matrix(1.00, 0.00, -0.00, -1.00, 297.3, 440.8)">t</text><text xml:space="preserve" font-family="Monaco,Monaco" font-size="25.0" fill="#37DE1B" transform="matrix(1.00, 0.00, -0.00, -1.00, 312.3, 440.8)"> </text><text xml:space="preserve" font-family="Monaco,Monaco" font-size="25.0" fill="#37DE1B" transform="matrix(1.00, 0.00, -0.00, -1.00, 327.3, 440.8)"> </text><text xml:space="preserve" font-family="Monaco,Monaco" font-size="25.0" fill="#37DE1B" transform="matrix(1.00, 0.00, -0.00, -1.00, 342.3, 440.8)"> </text><text xml:space="preserve" font-family="Monaco,Monaco" font-size="25.0" fill="#37DE1B" transform="matrix(1.00, 0.00, -0.00, -1.00, 357.3, 440.8)"> </text><text xml:space="preserve" font-family="Monaco,Monaco" font-size="25.0" fill="#37DE1B" transform="matrix(1.00, 0.00, -0.00, -1.00, 372.3, 440.8)">w</text><text xml:space="preserve" font-family="Monaco,Monaco" font-size="25.0" fill="#37DE1B" transform="matrix(1.00, 0.00, -0.00, -1.00, 387.3, 440.8)">h</text><text xml:space="preserve" font-family="Monaco,Monaco" font-size="25.0" fill="#37DE1B" transform="matrix(1.00, 0.00, -0.00, -1.00, 402.3, 440.8)">e</text><text xml:space="preserve" font-family="Monaco,Monaco" font-size="25.0" fill="#37DE1B" transform="matrix(1.00, 0.00, -0.00, -1.00, 417.3, 440.8)">e</text><text xml:space="preserve" font-family="Monaco,Monaco" font-size="25.0" fill="#37DE1B" transform="matrix(1.00, 0.00, -0.00, -1.00, 432.3, 440.8)">l</text><text xml:space="preserve" font-family="Monaco,Monaco" font-size="25.0" fill="#37DE1B" transform="matrix(1.00, 0.00, -0.00, -1.00, 447.3, 440.8)"> </text><text xml:space="preserve" font-family="Monaco,Monaco" font-size="25.0" fill="#37DE1B" transform="matrix(1.00, 0.00, -0.00, -1.00, 462.3, 440.8)"> </text><text xml:space="preserve" font-family="Monaco,Monaco" font-size="25.0" fill="#37DE1B" transform="matrix(1.00, 0.00, -0.00, -1.00, 477.3, 440.8)"> </text><text xml:space="preserve" font-family="Monaco,Monaco" font-size="25.0" fill="#37DE1B" transform="matrix(1.00, 0.00, -0.00, -1.00, 492.3, 440.8)"> </text><text xml:space="preserve" font-family="Monaco,Monaco" font-size="25.0" fill="#37DE1B" transform="matrix(1.00, 0.00, -0.00, -1.00, 507.3, 440.8)"> </text><text xml:space="preserve" font-family="Monaco,Monaco" font-size="25.0" fill="#37DE1B" transform="matrix(1.00, 0.00, -0.00, -1.00, 522.3, 440.8)">8</text><text xml:space="preserve" font-family="Monaco,Monaco" font-size="25.0" fill="#37DE1B" transform="matrix(1.00, 0.00, -0.00, -1.00, 537.3, 440.8)">,</text><text xml:space="preserve" font-family="Monaco,Monaco" font-size="25.0" fill="#37DE1B" transform="matrix(1.00, 0.00, -0.00, -1.00, 552.3, 440.8)"> </text><text xml:space="preserve" font-family="Monaco,Monaco" font-size="25.0" fill="#37DE1B" transform="matrix(1.00, 0.00, -0.00, -1.00, 567.3, 440.8)"> </text><text xml:space="preserve" font-family="Monaco,Monaco" font-size="25.0" fill="#37DE1B" transform="matrix(1.00, 0.00, -0.00, -1.00, 582.3, 440.8)">1</text><text xml:space="preserve" font-family="Monaco,Monaco" font-size="25.0" fill="#37DE1B" transform="matrix(1.00, 0.00, -0.00, -1.00, 597.4, 440.8)"> </text><text xml:space="preserve" font-family="Monaco,Monaco" font-size="25.0" fill="#37DE1B" transform="matrix(1.00, 0.00, -0.00, -1.00, 612.4, 440.8)">J</text><text xml:space="preserve" font-family="Monaco,Monaco" font-size="25.0" fill="#37DE1B" transform="matrix(1.00, 0.00, -0.00, -1.00, 627.4, 440.8)">u</text><text xml:space="preserve" font-family="Monaco,Monaco" font-size="25.0" fill="#37DE1B" transform="matrix(1.00, 0.00, -0.00, -1.00, 642.4, 440.8)">n</text><text xml:space="preserve" font-family="Monaco,Monaco" font-size="25.0" fill="#37DE1B" transform="matrix(1.00, 0.00, -0.00, -1.00, 657.4, 440.8)"> </text><text xml:space="preserve" font-family="Monaco,Monaco" font-size="25.0" fill="#37DE1B" transform="matrix(1.00, 0.00, -0.00, -1.00, 672.4, 440.8)">2</text><text xml:space="preserve" font-family="Monaco,Monaco" font-size="25.0" fill="#37DE1B" transform="matrix(1.00, 0.00, -0.00, -1.00, 687.4, 440.8)">1</text><text xml:space="preserve" font-family="Monaco,Monaco" font-size="25.0" fill="#37DE1B" transform="matrix(1.00, 0.00, -0.00, -1.00, 702.4, 440.8)"> </text><text xml:space="preserve" font-family="Monaco,Monaco" font-size="25.0" fill="#37DE1B" transform="matrix(1.00, 0.00, -0.00, -1.00, 717.4, 440.8)">2</text><text xml:space="preserve" font-family="Monaco,Monaco" font-size="25.0" fill="#37DE1B" transform="matrix(1.00, 0.00, -0.00, -1.00, 732.4, 440.8)">1</text><text xml:space="preserve" font-family="Monaco,Monaco" font-size="25.0" fill="#37DE1B" transform="matrix(1.00, 0.00, -0.00, -1.00, 747.4, 440.8)">:</text><text xml:space="preserve" font-family="Monaco,Monaco" font-size="25.0" fill="#37DE1B" transform="matrix(1.00, 0.00, -0.00, -1.00, 762.4, 440.8)">1</text><text xml:space="preserve" font-family="Monaco,Monaco" font-size="25.0" fill="#37DE1B" transform="matrix(1.00, 0.00, -0.00, -1.00, 777.4, 440.8)">1</text><text xml:space="preserve" font-family="Monaco,Monaco" font-size="25.0" fill="#37DE1B" transform="matrix(1.00, 0.00, -0.00, -1.00, 792.4, 440.8)"> </text><text xml:space="preserve" font-family="Monaco,Monaco" font-size="25.0" fill="#37DE1B" transform="matrix(1.00, 0.00, -0.00, -1.00, 807.4, 440.8)">a</text><text xml:space="preserve" font-family="Monaco,Monaco" font-size="25.0" fill="#37DE1B" transform="matrix(1.00, 0.00, -0.00, -1.00, 822.4, 440.8)">u</text><text xml:space="preserve" font-family="Monaco,Monaco" font-size="25.0" fill="#37DE1B" transform="matrix(1.00, 0.00, -0.00, -1.00, 837.4, 440.8)">d</text><text xml:space="preserve" font-family="Monaco,Monaco" font-size="25.0" fill="#37DE1B" transform="matrix(1.00, 0.00, -0.00, -1.00, 852.4, 440.8)">i</text><text xml:space="preserve" font-family="Monaco,Monaco" font-size="25.0" fill="#37DE1B" transform="matrix(1.00, 0.00, -0.00, -1.00, 867.4, 440.8)">t</text><text xml:space="preserve" font-family="Monaco,Monaco" font-size="25.0" fill="#37DE1B" transform="matrix(1.00, 0.00, -0.00, -1.00, 882.4, 440.8)">p</text><text xml:space="preserve" font-family="Monaco,Monaco" font-size="25.0" fill="#37DE1B" transform="matrix(1.00, 0.00, -0.00, -1.00, 897.5, 440.8)">i</text><text xml:space="preserve" font-family="Monaco,Monaco" font-size="25.0" fill="#37DE1B" transform="matrix(1.00, 0.00, -0.00, -1.00, 912.5, 440.8)">p</text><text xml:space="preserve" font-family="Monaco,Monaco" font-size="25.0" fill="#37DE1B" transform="matrix(1.00, 0.00, -0.00, -1.00, 927.5, 440.8)">e</text><text xml:space="preserve" font-family="Monaco,Monaco" font-size="25.0" fill="#37DE1B" transform="matrix(1.00, 0.00, -0.00, -1.00, 942.3, 440.8)">	</text><text xml:space="preserve" font-family="Monaco,Monaco" font-size="25.0" fill="#37DE1B" transform="matrix(1.00, 0.00, -0.00, -1.00, 57.2, 407.8)">…</text><text xml:space="preserve" font-family="Monaco,Monaco" font-size="25.0" fill="#37DE1B" transform="matrix(1.00, 0.00, -0.00, -1.00, 72.2, 407.8)">	</text><text xml:space="preserve" font-family="Monaco,Monaco" font-size="25.0" fill="#37DE1B" transform="matrix(1.00, 0.00, -0.00, -1.00, 57.2, 374.8)">b</text><text xml:space="preserve" font-family="Monaco,Monaco" font-size="25.0" fill="#37DE1B" transform="matrix(1.00, 0.00, -0.00, -1.00, 72.2, 374.8)">r</text><text xml:space="preserve" font-family="Monaco,Monaco" font-size="25.0" fill="#37DE1B" transform="matrix(1.00, 0.00, -0.00, -1.00, 87.2, 374.8)">w</text><text xml:space="preserve" font-family="Monaco,Monaco" font-size="25.0" fill="#37DE1B" transform="matrix(1.00, 0.00, -0.00, -1.00, 102.2, 374.8)">-</text><text xml:space="preserve" font-family="Monaco,Monaco" font-size="25.0" fill="#37DE1B" transform="matrix(1.00, 0.00, -0.00, -1.00, 117.2, 374.8)">-</text><text xml:space="preserve" font-family="Monaco,Monaco" font-size="25.0" fill="#37DE1B" transform="matrix(1.00, 0.00, -0.00, -1.00, 132.2, 374.8)">-</text><text xml:space="preserve" font-family="Monaco,Monaco" font-size="25.0" fill="#37DE1B" transform="matrix(1.00, 0.00, -0.00, -1.00, 147.2, 374.8)">-</text><text xml:space="preserve" font-family="Monaco,Monaco" font-size="25.0" fill="#37DE1B" transform="matrix(1.00, 0.00, -0.00, -1.00, 162.2, 374.8)">-</text><text xml:space="preserve" font-family="Monaco,Monaco" font-size="25.0" fill="#37DE1B" transform="matrix(1.00, 0.00, -0.00, -1.00, 177.2, 374.8)">-</text><text xml:space="preserve" font-family="Monaco,Monaco" font-size="25.0" fill="#37DE1B" transform="matrix(1.00, 0.00, -0.00, -1.00, 192.2, 374.8)">-</text><text xml:space="preserve" font-family="Monaco,Monaco" font-size="25.0" fill="#37DE1B" transform="matrix(1.00, 0.00, -0.00, -1.00, 207.2, 374.8)"> </text><text xml:space="preserve" font-family="Monaco,Monaco" font-size="25.0" fill="#37DE1B" transform="matrix(1.00, 0.00, -0.00, -1.00, 222.2, 374.8)">1</text><text xml:space="preserve" font-family="Monaco,Monaco" font-size="25.0" fill="#37DE1B" transform="matrix(1.00, 0.00, -0.00, -1.00, 237.2, 374.8)"> </text><text xml:space="preserve" font-family="Monaco,Monaco" font-size="25.0" fill="#37DE1B" transform="matrix(1.00, 0.00, -0.00, -1.00, 252.2, 374.8)">r</text><text xml:space="preserve" font-family="Monaco,Monaco" font-size="25.0" fill="#37DE1B" transform="matrix(1.00, 0.00, -0.00, -1.00, 267.2, 374.8)">o</text><text xml:space="preserve" font-family="Monaco,Monaco" font-size="25.0" fill="#37DE1B" transform="matrix(1.00, 0.00, -0.00, -1.00, 282.3, 374.8)">o</text><text xml:space="preserve" font-family="Monaco,Monaco" font-size="25.0" fill="#37DE1B" transform="matrix(1.00, 0.00, -0.00, -1.00, 297.3, 374.8)">t</text><text xml:space="preserve" font-family="Monaco,Monaco" font-size="25.0" fill="#37DE1B" transform="matrix(1.00, 0.00, -0.00, -1.00, 312.3, 374.8)"> </text><text xml:space="preserve" font-family="Monaco,Monaco" font-size="25.0" fill="#37DE1B" transform="matrix(1.00, 0.00, -0.00, -1.00, 327.3, 374.8)"> </text><text xml:space="preserve" font-family="Monaco,Monaco" font-size="25.0" fill="#37DE1B" transform="matrix(1.00, 0.00, -0.00, -1.00, 342.3, 374.8)"> </text><text xml:space="preserve" font-family="Monaco,Monaco" font-size="25.0" fill="#37DE1B" transform="matrix(1.00, 0.00, -0.00, -1.00, 357.3, 374.8)"> </text><text xml:space="preserve" font-family="Monaco,Monaco" font-size="25.0" fill="#37DE1B" transform="matrix(1.00, 0.00, -0.00, -1.00, 372.3, 374.8)">o</text><text xml:space="preserve" font-family="Monaco,Monaco" font-size="25.0" fill="#37DE1B" transform="matrix(1.00, 0.00, -0.00, -1.00, 387.3, 374.8)">p</text><text xml:space="preserve" font-family="Monaco,Monaco" font-size="25.0" fill="#37DE1B" transform="matrix(1.00, 0.00, -0.00, -1.00, 402.3, 374.8)">e</text><text xml:space="preserve" font-family="Monaco,Monaco" font-size="25.0" fill="#37DE1B" transform="matrix(1.00, 0.00, -0.00, -1.00, 417.3, 374.8)">r</text><text xml:space="preserve" font-family="Monaco,Monaco" font-size="25.0" fill="#37DE1B" transform="matrix(1.00, 0.00, -0.00, -1.00, 432.3, 374.8)">a</text><text xml:space="preserve" font-family="Monaco,Monaco" font-size="25.0" fill="#37DE1B" transform="matrix(1.00, 0.00, -0.00, -1.00, 447.3, 374.8)">t</text><text xml:space="preserve" font-family="Monaco,Monaco" font-size="25.0" fill="#37DE1B" transform="matrix(1.00, 0.00, -0.00, -1.00, 462.3, 374.8)">o</text><text xml:space="preserve" font-family="Monaco,Monaco" font-size="25.0" fill="#37DE1B" transform="matrix(1.00, 0.00, -0.00, -1.00, 477.3, 374.8)">r</text><text xml:space="preserve" font-family="Monaco,Monaco" font-size="25.0" fill="#37DE1B" transform="matrix(1.00, 0.00, -0.00, -1.00, 492.3, 374.8)"> </text><text xml:space="preserve" font-family="Monaco,Monaco" font-size="25.0" fill="#37DE1B" transform="matrix(1.00, 0.00, -0.00, -1.00, 507.3, 374.8)"> </text><text xml:space="preserve" font-family="Monaco,Monaco" font-size="25.0" fill="#37DE1B" transform="matrix(1.00, 0.00, -0.00, -1.00, 522.3, 374.8)">2</text><text xml:space="preserve" font-family="Monaco,Monaco" font-size="25.0" fill="#37DE1B" transform="matrix(1.00, 0.00, -0.00, -1.00, 537.3, 374.8)">,</text><text xml:space="preserve" font-family="Monaco,Monaco" font-size="25.0" fill="#37DE1B" transform="matrix(1.00, 0.00, -0.00, -1.00, 552.3, 374.8)"> </text><text xml:space="preserve" font-family="Monaco,Monaco" font-size="25.0" fill="#37DE1B" transform="matrix(1.00, 0.00, -0.00, -1.00, 567.3, 374.8)"> </text><text xml:space="preserve" font-family="Monaco,Monaco" font-size="25.0" fill="#37DE1B" transform="matrix(1.00, 0.00, -0.00, -1.00, 582.3, 374.8)">3</text><text xml:space="preserve" font-family="Monaco,Monaco" font-size="25.0" fill="#37DE1B" transform="matrix(1.00, 0.00, -0.00, -1.00, 597.4, 374.8)"> </text><text xml:space="preserve" font-family="Monaco,Monaco" font-size="25.0" fill="#37DE1B" transform="matrix(1.00, 0.00, -0.00, -1.00, 612.4, 374.8)">J</text><text xml:space="preserve" font-family="Monaco,Monaco" font-size="25.0" fill="#37DE1B" transform="matrix(1.00, 0.00, -0.00, -1.00, 627.4, 374.8)">u</text><text xml:space="preserve" font-family="Monaco,Monaco" font-size="25.0" fill="#37DE1B" transform="matrix(1.00, 0.00, -0.00, -1.00, 642.4, 374.8)">n</text><text xml:space="preserve" font-family="Monaco,Monaco" font-size="25.0" fill="#37DE1B" transform="matrix(1.00, 0.00, -0.00, -1.00, 657.4, 374.8)"> </text><text xml:space="preserve" font-family="Monaco,Monaco" font-size="25.0" fill="#37DE1B" transform="matrix(1.00, 0.00, -0.00, -1.00, 672.4, 374.8)">2</text><text xml:space="preserve" font-family="Monaco,Monaco" font-size="25.0" fill="#37DE1B" transform="matrix(1.00, 0.00, -0.00, -1.00, 687.4, 374.8)">1</text><text xml:space="preserve" font-family="Monaco,Monaco" font-size="25.0" fill="#37DE1B" transform="matrix(1.00, 0.00, -0.00, -1.00, 702.4, 374.8)"> </text><text xml:space="preserve" font-family="Monaco,Monaco" font-size="25.0" fill="#37DE1B" transform="matrix(1.00, 0.00, -0.00, -1.00, 717.4, 374.8)">2</text><text xml:space="preserve" font-family="Monaco,Monaco" font-size="25.0" fill="#37DE1B" transform="matrix(1.00, 0.00, -0.00, -1.00, 732.4, 374.8)">1</text><text xml:space="preserve" font-family="Monaco,Monaco" font-size="25.0" fill="#37DE1B" transform="matrix(1.00, 0.00, -0.00, -1.00, 747.4, 374.8)">:</text><text xml:space="preserve" font-family="Monaco,Monaco" font-size="25.0" fill="#37DE1B" transform="matrix(1.00, 0.00, -0.00, -1.00, 762.4, 374.8)">1</text><text xml:space="preserve" font-family="Monaco,Monaco" font-size="25.0" fill="#37DE1B" transform="matrix(1.00, 0.00, -0.00, -1.00, 777.4, 374.8)">1</text><text xml:space="preserve" font-family="Monaco,Monaco" font-size="25.0" fill="#37DE1B" transform="matrix(1.00, 0.00, -0.00, -1.00, 792.4, 374.8)"> </text><text xml:space="preserve" font-family="Monaco,Monaco" font-size="25.0" fill="#37DE1B" transform="matrix(1.00, 0.00, -0.00, -1.00, 807.4, 374.8)">v</text><text xml:space="preserve" font-family="Monaco,Monaco" font-size="25.0" fill="#37DE1B" transform="matrix(1.00, 0.00, -0.00, -1.00, 822.4, 374.8)">n</text><text xml:space="preserve" font-family="Monaco,Monaco" font-size="25.0" fill="#37DE1B" transform="matrix(1.00, 0.00, -0.00, -1.00, 837.4, 374.8)">3</text><text xml:space="preserve" font-family="Monaco,Monaco" font-size="25.0" fill="#37DE1B" transform="matrix(1.00, 0.00, -0.00, -1.00, 852.4, 374.8)">	</text><text xml:space="preserve" font-family="Monaco,Monaco" font-size="25.0" fill="#37DE1B" transform="matrix(1.00, 0.00, -0.00, -1.00, 57.2, 341.8)">c</text><text xml:space="preserve" font-family="Monaco,Monaco" font-size="25.0" fill="#37DE1B" transform="matrix(1.00, 0.00, -0.00, -1.00, 72.2, 341.8)">r</text><text xml:space="preserve" font-family="Monaco,Monaco" font-size="25.0" fill="#37DE1B" transform="matrix(1.00, 0.00, -0.00, -1.00, 87.2, 341.8)">w</text><text xml:space="preserve" font-family="Monaco,Monaco" font-size="25.0" fill="#37DE1B" transform="matrix(1.00, 0.00, -0.00, -1.00, 102.2, 341.8)">-</text><text xml:space="preserve" font-family="Monaco,Monaco" font-size="25.0" fill="#37DE1B" transform="matrix(1.00, 0.00, -0.00, -1.00, 117.2, 341.8)">r</text><text xml:space="preserve" font-family="Monaco,Monaco" font-size="25.0" fill="#37DE1B" transform="matrix(1.00, 0.00, -0.00, -1.00, 132.2, 341.8)">w</text><text xml:space="preserve" font-family="Monaco,Monaco" font-size="25.0" fill="#37DE1B" transform="matrix(1.00, 0.00, -0.00, -1.00, 147.2, 341.8)">-</text><text xml:space="preserve" font-family="Monaco,Monaco" font-size="25.0" fill="#37DE1B" transform="matrix(1.00, 0.00, -0.00, -1.00, 162.2, 341.8)">r</text><text xml:space="preserve" font-family="Monaco,Monaco" font-size="25.0" fill="#37DE1B" transform="matrix(1.00, 0.00, -0.00, -1.00, 177.2, 341.8)">w</text><text xml:space="preserve" font-family="Monaco,Monaco" font-size="25.0" fill="#37DE1B" transform="matrix(1.00, 0.00, -0.00, -1.00, 192.2, 341.8)">-</text><text xml:space="preserve" font-family="Monaco,Monaco" font-size="25.0" fill="#37DE1B" transform="matrix(1.00, 0.00, -0.00, -1.00, 207.2, 341.8)"> </text><text xml:space="preserve" font-family="Monaco,Monaco" font-size="25.0" fill="#37DE1B" transform="matrix(1.00, 0.00, -0.00, -1.00, 222.2, 341.8)">1</text><text xml:space="preserve" font-family="Monaco,Monaco" font-size="25.0" fill="#37DE1B" transform="matrix(1.00, 0.00, -0.00, -1.00, 237.2, 341.8)"> </text><text xml:space="preserve" font-family="Monaco,Monaco" font-size="25.0" fill="#37DE1B" transform="matrix(1.00, 0.00, -0.00, -1.00, 252.2, 341.8)">r</text><text xml:space="preserve" font-family="Monaco,Monaco" font-size="25.0" fill="#37DE1B" transform="matrix(1.00, 0.00, -0.00, -1.00, 267.2, 341.8)">o</text><text xml:space="preserve" font-family="Monaco,Monaco" font-size="25.0" fill="#37DE1B" transform="matrix(1.00, 0.00, -0.00, -1.00, 282.3, 341.8)">o</text><text xml:space="preserve" font-family="Monaco,Monaco" font-size="25.0" fill="#37DE1B" transform="matrix(1.00, 0.00, -0.00, -1.00, 297.3, 341.8)">t</text><text xml:space="preserve" font-family="Monaco,Monaco" font-size="25.0" fill="#37DE1B" transform="matrix(1.00, 0.00, -0.00, -1.00, 312.3, 341.8)"> </text><text xml:space="preserve" font-family="Monaco,Monaco" font-size="25.0" fill="#37DE1B" transform="matrix(1.00, 0.00, -0.00, -1.00, 327.3, 341.8)"> </text><text xml:space="preserve" font-family="Monaco,Monaco" font-size="25.0" fill="#37DE1B" transform="matrix(1.00, 0.00, -0.00, -1.00, 342.3, 341.8)"> </text><text xml:space="preserve" font-family="Monaco,Monaco" font-size="25.0" fill="#37DE1B" transform="matrix(1.00, 0.00, -0.00, -1.00, 357.3, 341.8)"> </text><text xml:space="preserve" font-family="Monaco,Monaco" font-size="25.0" fill="#37DE1B" transform="matrix(1.00, 0.00, -0.00, -1.00, 372.3, 341.8)">w</text><text xml:space="preserve" font-family="Monaco,Monaco" font-size="25.0" fill="#37DE1B" transform="matrix(1.00, 0.00, -0.00, -1.00, 387.3, 341.8)">h</text><text xml:space="preserve" font-family="Monaco,Monaco" font-size="25.0" fill="#37DE1B" transform="matrix(1.00, 0.00, -0.00, -1.00, 402.3, 341.8)">e</text><text xml:space="preserve" font-family="Monaco,Monaco" font-size="25.0" fill="#37DE1B" transform="matrix(1.00, 0.00, -0.00, -1.00, 417.3, 341.8)">e</text><text xml:space="preserve" font-family="Monaco,Monaco" font-size="25.0" fill="#37DE1B" transform="matrix(1.00, 0.00, -0.00, -1.00, 432.3, 341.8)">l</text><text xml:space="preserve" font-family="Monaco,Monaco" font-size="25.0" fill="#37DE1B" transform="matrix(1.00, 0.00, -0.00, -1.00, 447.3, 341.8)"> </text><text xml:space="preserve" font-family="Monaco,Monaco" font-size="25.0" fill="#37DE1B" transform="matrix(1.00, 0.00, -0.00, -1.00, 462.3, 341.8)"> </text><text xml:space="preserve" font-family="Monaco,Monaco" font-size="25.0" fill="#37DE1B" transform="matrix(1.00, 0.00, -0.00, -1.00, 477.3, 341.8)"> </text><text xml:space="preserve" font-family="Monaco,Monaco" font-size="25.0" fill="#37DE1B" transform="matrix(1.00, 0.00, -0.00, -1.00, 492.3, 341.8)"> </text><text xml:space="preserve" font-family="Monaco,Monaco" font-size="25.0" fill="#37DE1B" transform="matrix(1.00, 0.00, -0.00, -1.00, 507.3, 341.8)"> </text><text xml:space="preserve" font-family="Monaco,Monaco" font-size="25.0" fill="#37DE1B" transform="matrix(1.00, 0.00, -0.00, -1.00, 522.3, 341.8)">3</text><text xml:space="preserve" font-family="Monaco,Monaco" font-size="25.0" fill="#37DE1B" transform="matrix(1.00, 0.00, -0.00, -1.00, 537.3, 341.8)">,</text><text xml:space="preserve" font-family="Monaco,Monaco" font-size="25.0" fill="#37DE1B" transform="matrix(1.00, 0.00, -0.00, -1.00, 552.3, 341.8)"> </text><text xml:space="preserve" font-family="Monaco,Monaco" font-size="25.0" fill="#37DE1B" transform="matrix(1.00, 0.00, -0.00, -1.00, 567.3, 341.8)"> </text><text xml:space="preserve" font-family="Monaco,Monaco" font-size="25.0" fill="#37DE1B" transform="matrix(1.00, 0.00, -0.00, -1.00, 582.3, 341.8)">3</text><text xml:space="preserve" font-family="Monaco,Monaco" font-size="25.0" fill="#37DE1B" transform="matrix(1.00, 0.00, -0.00, -1.00, 597.4, 341.8)"> </text><text xml:space="preserve" font-family="Monaco,Monaco" font-size="25.0" fill="#37DE1B" transform="matrix(1.00, 0.00, -0.00, -1.00, 612.4, 341.8)">J</text><text xml:space="preserve" font-family="Monaco,Monaco" font-size="25.0" fill="#37DE1B" transform="matrix(1.00, 0.00, -0.00, -1.00, 627.4, 341.8)">u</text><text xml:space="preserve" font-family="Monaco,Monaco" font-size="25.0" fill="#37DE1B" transform="matrix(1.00, 0.00, -0.00, -1.00, 642.4, 341.8)">n</text><text xml:space="preserve" font-family="Monaco,Monaco" font-size="25.0" fill="#37DE1B" transform="matrix(1.00, 0.00, -0.00, -1.00, 657.4, 341.8)"> </text><text xml:space="preserve" font-family="Monaco,Monaco" font-size="25.0" fill="#37DE1B" transform="matrix(1.00, 0.00, -0.00, -1.00, 672.4, 341.8)">2</text><text xml:space="preserve" font-family="Monaco,Monaco" font-size="25.0" fill="#37DE1B" transform="matrix(1.00, 0.00, -0.00, -1.00, 687.4, 341.8)">1</text><text xml:space="preserve" font-family="Monaco,Monaco" font-size="25.0" fill="#37DE1B" transform="matrix(1.00, 0.00, -0.00, -1.00, 702.4, 341.8)"> </text><text xml:space="preserve" font-family="Monaco,Monaco" font-size="25.0" fill="#37DE1B" transform="matrix(1.00, 0.00, -0.00, -1.00, 717.4, 341.8)">2</text><text xml:space="preserve" font-family="Monaco,Monaco" font-size="25.0" fill="#37DE1B" transform="matrix(1.00, 0.00, -0.00, -1.00, 732.4, 341.8)">1</text><text xml:space="preserve" font-family="Monaco,Monaco" font-size="25.0" fill="#37DE1B" transform="matrix(1.00, 0.00, -0.00, -1.00, 747.4, 341.8)">:</text><text xml:space="preserve" font-family="Monaco,Monaco" font-size="25.0" fill="#37DE1B" transform="matrix(1.00, 0.00, -0.00, -1.00, 762.4, 341.8)">1</text><text xml:space="preserve" font-family="Monaco,Monaco" font-size="25.0" fill="#37DE1B" transform="matrix(1.00, 0.00, -0.00, -1.00, 777.4, 341.8)">1</text><text xml:space="preserve" font-family="Monaco,Monaco" font-size="25.0" fill="#37DE1B" transform="matrix(1.00, 0.00, -0.00, -1.00, 792.4, 341.8)"> </text><text xml:space="preserve" font-family="Monaco,Monaco" font-size="25.0" fill="#37DE1B" transform="matrix(1.00, 0.00, -0.00, -1.00, 807.4, 341.8)">z</text><text xml:space="preserve" font-family="Monaco,Monaco" font-size="25.0" fill="#37DE1B" transform="matrix(1.00, 0.00, -0.00, -1.00, 822.4, 341.8)">e</text><text xml:space="preserve" font-family="Monaco,Monaco" font-size="25.0" fill="#37DE1B" transform="matrix(1.00, 0.00, -0.00, -1.00, 837.4, 341.8)">r</text><text xml:space="preserve" font-family="Monaco,Monaco" font-size="25.0" fill="#37DE1B" transform="matrix(1.00, 0.00, -0.00, -1.00, 852.4, 341.8)">o</text><text xml:space="preserve" font-family="Monaco,Monaco" font-size="25.0" fill="#37DE1B" transform="matrix(1.00, 0.00, -0.00, -1.00, 867.3, 341.8)">	</text></g></svg>