<?xml version="1.0" encoding="UTF-8" standalone="no"?><svg xmlns="http://www.w3.org/2000/svg" xmlns:xlink="http://www.w3.org/1999/xlink" clip-rule="evenodd" stroke-miterlimit="10" viewBox="0 0 1024 768"><desc>SVG generated by Keynote</desc><defs></defs><g transform="matrix(1.00, 0.00, -0.00, -1.00, 0.0, 768.0)"><path d="M 0.0 768.0 L 1024.0 768.0 L 1024.0 0.0 L 0.0 0.0 Z M 0.0 768.0 " fill="#000000"></path><image xlink:href="../../ACF26528-510F-4087-92A7-D9431E4A7675/assets/C07D05C049E9C3A813AD52BFC7182A2D.png" width="983.00" height="584.00" transform="matrix(1.00, 0.00, -0.00, -1.00, 10.2, 664.7)" opacity="0.75"></image><image xlink:href="../../ACF26528-510F-4087-92A7-D9431E4A7675/assets/B8B89F8D2E49298F363D8341A9D067FB.png" width="963.00" height="564.00" transform="matrix(1.00, 0.00, -0.00, -1.00, 30.0, 666.0)"></image><text xml:space="preserve" font-family="LucidaGrande,Lucida Grande" font-size="22.0" fill="#FEFFFE" transform="matrix(1.00, 0.00, -0.00, -1.00, 332.4, 11.6)">F</text><text xml:space="preserve" font-family="LucidaGrande,Lucida Grande" font-size="22.0" fill="#FEFFFE" transform="matrix(1.00, 0.00, -0.00, -1.00, 344.2, 11.6)">e</text><text xml:space="preserve" font-family="LucidaGrande,Lucida Grande" font-size="22.0" fill="#FEFFFE" transform="matrix(1.00, 0.00, -0.00, -1.00, 356.4, 11.6)">e</text><text xml:space="preserve" font-family="LucidaGrande,Lucida Grande" font-size="22.0" fill="#FEFFFE" transform="matrix(1.00, 0.00, -0.00, -1.00, 368.7, 11.6)">d</text><text xml:space="preserve" font-family="LucidaGrande,Lucida Grande" font-size="22.0" fill="#FEFFFE" transform="matrix(1.00, 0.00, -0.00, -1.00, 382.5, 11.6)">b</text><text xml:space="preserve" font-family="LucidaGrande,Lucida Grande" font-size="22.0" fill="#FEFFFE" transform="matrix(1.00, 0.00, -0.00, -1.00, 396.4, 11.6)">a</text><text xml:space="preserve" font-family="LucidaGrande,Lucida Grande" font-size="22.0" fill="#FEFFFE" transform="matrix(1.00, 0.00, -0.00, -1.00, 408.5, 11.6)">c</text><text xml:space="preserve" font-family="LucidaGrande,Lucida Grande" font-size="22.0" fill="#FEFFFE" transform="matrix(1.00, 0.00, -0.00, -1.00, 419.8, 11.6)">k</text><text xml:space="preserve" font-family="LucidaGrande,Lucida Grande" font-size="22.0" fill="#FEFFFE" transform="matrix(1.00, 0.00, -0.00, -1.00, 432.7, 11.6)">:</text><text xml:space="preserve" font-family="LucidaGrande,Lucida Grande" font-size="22.0" fill="#FEFFFE" transform="matrix(1.00, 0.00, -0.00, -1.00, 439.6, 11.6)"> </text><text xml:space="preserve" font-family="LucidaGrande,Lucida Grande" font-size="22.0" fill="#FEFFFE" transform="matrix(1.00, 0.00, -0.00, -1.00, 446.6, 11.6)">h</text><text xml:space="preserve" font-family="LucidaGrande,Lucida Grande" font-size="22.0" fill="#FEFFFE" transform="matrix(1.00, 0.00, -0.00, -1.00, 460.2, 11.6)">t</text><text xml:space="preserve" font-family="LucidaGrande,Lucida Grande" font-size="22.0" fill="#FEFFFE" transform="matrix(1.00, 0.00, -0.00, -1.00, 468.4, 11.6)">t</text><text xml:space="preserve" font-family="LucidaGrande,Lucida Grande" font-size="22.0" fill="#FEFFFE" transform="matrix(1.00, 0.00, -0.00, -1.00, 476.7, 11.6)">p</text><text xml:space="preserve" font-family="LucidaGrande,Lucida Grande" font-size="22.0" fill="#FEFFFE" transform="matrix(1.00, 0.00, -0.00, -1.00, 490.5, 11.6)">:</text><text xml:space="preserve" font-family="LucidaGrande,Lucida Grande" font-size="22.0" fill="#FEFFFE" transform="matrix(1.00, 0.00, -0.00, -1.00, 497.5, 11.6)">/</text><text xml:space="preserve" font-family="LucidaGrande,Lucida Grande" font-size="22.0" fill="#FEFFFE" transform="matrix(1.00, 0.00, -0.00, -1.00, 509.0, 11.6)">/</text><text xml:space="preserve" font-family="LucidaGrande,Lucida Grande" font-size="22.0" fill="#FEFFFE" transform="matrix(1.00, 0.00, -0.00, -1.00, 520.6, 11.6)">j</text><text xml:space="preserve" font-family="LucidaGrande,Lucida Grande" font-size="22.0" fill="#FEFFFE" transform="matrix(1.00, 0.00, -0.00, -1.00, 527.3, 11.6)">.</text><text xml:space="preserve" font-family="LucidaGrande,Lucida Grande" font-size="22.0" fill="#FEFFFE" transform="matrix(1.00, 0.00, -0.00, -1.00, 534.3, 11.6)">m</text><text xml:space="preserve" font-family="LucidaGrande,Lucida Grande" font-size="22.0" fill="#FEFFFE" transform="matrix(1.00, 0.00, -0.00, -1.00, 554.8, 11.6)">p</text><text xml:space="preserve" font-family="LucidaGrande,Lucida Grande" font-size="22.0" fill="#FEFFFE" transform="matrix(1.00, 0.00, -0.00, -1.00, 568.6, 11.6)">/</text><text xml:space="preserve" font-family="LucidaGrande,Lucida Grande" font-size="22.0" fill="#FEFFFE" transform="matrix(1.00, 0.00, -0.00, -1.00, 580.2, 11.6)">p</text><text xml:space="preserve" font-family="LucidaGrande,Lucida Grande" font-size="22.0" fill="#FEFFFE" transform="matrix(1.00, 0.00, -0.00, -1.00, 594.0, 11.6)">s</text><text xml:space="preserve" font-family="LucidaGrande,Lucida Grande" font-size="22.0" fill="#FEFFFE" transform="matrix(1.00, 0.00, -0.00, -1.00, 605.3, 11.6)">u</text><text xml:space="preserve" font-family="LucidaGrande,Lucida Grande" font-size="22.0" fill="#FEFFFE" transform="matrix(1.00, 0.00, -0.00, -1.00, 618.9, 11.6)">m</text><text xml:space="preserve" font-family="LucidaGrande,Lucida Grande" font-size="22.0" fill="#FEFFFE" transform="matrix(1.00, 0.00, -0.00, -1.00, 639.4, 11.6)">a</text><text xml:space="preserve" font-family="LucidaGrande,Lucida Grande" font-size="22.0" fill="#FEFFFE" transform="matrix(1.00, 0.00, -0.00, -1.00, 651.6, 11.6)">c</text><text xml:space="preserve" font-family="LucidaGrande,Lucida Grande" font-size="22.0" fill="#FEFFFE" transform="matrix(1.00, 0.00, -0.00, -1.00, 662.9, 11.6)">1</text><text xml:space="preserve" font-family="LucidaGrande,Lucida Grande" font-size="22.0" fill="#FEFFFE" transform="matrix(1.00, 0.00, -0.00, -1.00, 676.8, 11.6)">3</text><text xml:space="preserve" font-family="Monaco,Monaco" font-size="43.0" fill="#37DE1B" transform="matrix(1.00, 0.00, -0.00, -1.00, 57.2, 541.8)">$</text><text xml:space="preserve" font-family="Monaco,Monaco" font-size="43.0" fill="#37DE1B" transform="matrix(1.00, 0.00, -0.00, -1.00, 83.0, 541.8)"> </text><text xml:space="preserve" font-family="Monaco,Monaco" font-size="43.0" fill="#37DE1B" transform="matrix(1.00, 0.00, -0.00, -1.00, 108.8, 541.8)">c</text><text xml:space="preserve" font-family="Monaco,Monaco" font-size="43.0" fill="#37DE1B" transform="matrix(1.00, 0.00, -0.00, -1.00, 134.6, 541.8)">a</text><text xml:space="preserve" font-family="Monaco,Monaco" font-size="43.0" fill="#37DE1B" transform="matrix(1.00, 0.00, -0.00, -1.00, 160.4, 541.8)">t</text><text xml:space="preserve" font-family="Monaco,Monaco" font-size="43.0" fill="#37DE1B" transform="matrix(1.00, 0.00, -0.00, -1.00, 186.2, 541.8)"> </text><text xml:space="preserve" font-family="Monaco,Monaco" font-size="43.0" fill="#37DE1B" transform="matrix(1.00, 0.00, -0.00, -1.00, 212.0, 541.8)">l</text><text xml:space="preserve" font-family="Monaco,Monaco" font-size="43.0" fill="#37DE1B" transform="matrix(1.00, 0.00, -0.00, -1.00, 237.8, 541.8)">i</text><text xml:space="preserve" font-family="Monaco,Monaco" font-size="43.0" fill="#37DE1B" transform="matrix(1.00, 0.00, -0.00, -1.00, 263.6, 541.8)">s</text><text xml:space="preserve" font-family="Monaco,Monaco" font-size="43.0" fill="#37DE1B" transform="matrix(1.00, 0.00, -0.00, -1.00, 289.5, 541.8)">t</text><text xml:space="preserve" font-family="Monaco,Monaco" font-size="43.0" fill="#37DE1B" transform="matrix(1.00, 0.00, -0.00, -1.00, 315.3, 541.8)">.</text><text xml:space="preserve" font-family="Monaco,Monaco" font-size="43.0" fill="#37DE1B" transform="matrix(1.00, 0.00, -0.00, -1.00, 341.1, 541.8)">t</text><text xml:space="preserve" font-family="Monaco,Monaco" font-size="43.0" fill="#37DE1B" transform="matrix(1.00, 0.00, -0.00, -1.00, 366.9, 541.8)">x</text><text xml:space="preserve" font-family="Monaco,Monaco" font-size="43.0" fill="#37DE1B" transform="matrix(1.00, 0.00, -0.00, -1.00, 392.7, 541.8)">t</text><text xml:space="preserve" font-family="Monaco,Monaco" font-size="43.0" fill="#37DE1B" transform="matrix(1.00, 0.00, -0.00, -1.00, 418.5, 541.8)"> </text><text xml:space="preserve" font-family="Monaco,Monaco" font-size="43.0" fill="#37DE1B" transform="matrix(1.00, 0.00, -0.00, -1.00, 444.3, 541.8)">	</text><text xml:space="preserve" font-family="Monaco,Monaco" font-size="43.0" fill="#37DE1B" transform="matrix(1.00, 0.00, -0.00, -1.00, 57.2, 483.8)"> </text><text xml:space="preserve" font-family="Monaco,Monaco" font-size="43.0" fill="#37DE1B" transform="matrix(1.00, 0.00, -0.00, -1.00, 83.0, 483.8)">b</text><text xml:space="preserve" font-family="Monaco,Monaco" font-size="43.0" fill="#37DE1B" transform="matrix(1.00, 0.00, -0.00, -1.00, 108.8, 483.8)">a</text><text xml:space="preserve" font-family="Monaco,Monaco" font-size="43.0" fill="#37DE1B" transform="matrix(1.00, 0.00, -0.00, -1.00, 134.6, 483.8)">n</text><text xml:space="preserve" font-family="Monaco,Monaco" font-size="43.0" fill="#37DE1B" transform="matrix(1.00, 0.00, -0.00, -1.00, 160.4, 483.8)">a</text><text xml:space="preserve" font-family="Monaco,Monaco" font-size="43.0" fill="#37DE1B" transform="matrix(1.00, 0.00, -0.00, -1.00, 186.2, 483.8)">n</text><text xml:space="preserve" font-family="Monaco,Monaco" font-size="43.0" fill="#37DE1B" transform="matrix(1.00, 0.00, -0.00, -1.00, 212.0, 483.8)">a</text><text xml:space="preserve" font-family="Monaco,Monaco" font-size="43.0" fill="#37DE1B" transform="matrix(1.00, 0.00, -0.00, -1.00, 237.8, 483.8)">	</text><text xml:space="preserve" font-family="Monaco,Monaco" font-size="43.0" fill="#37DE1B" transform="matrix(1.00, 0.00, -0.00, -1.00, 57.2, 425.8)"> </text><text xml:space="preserve" font-family="Monaco,Monaco" font-size="43.0" fill="#37DE1B" transform="matrix(1.00, 0.00, -0.00, -1.00, 83.0, 425.8)">b</text><text xml:space="preserve" font-family="Monaco,Monaco" font-size="43.0" fill="#37DE1B" transform="matrix(1.00, 0.00, -0.00, -1.00, 108.8, 425.8)">r</text><text xml:space="preserve" font-family="Monaco,Monaco" font-size="43.0" fill="#37DE1B" transform="matrix(1.00, 0.00, -0.00, -1.00, 134.6, 425.8)">e</text><text xml:space="preserve" font-family="Monaco,Monaco" font-size="43.0" fill="#37DE1B" transform="matrix(1.00, 0.00, -0.00, -1.00, 160.4, 425.8)">a</text><text xml:space="preserve" font-family="Monaco,Monaco" font-size="43.0" fill="#37DE1B" transform="matrix(1.00, 0.00, -0.00, -1.00, 186.2, 425.8)">d</text><text xml:space="preserve" font-family="Monaco,Monaco" font-size="43.0" fill="#37DE1B" transform="matrix(1.00, 0.00, -0.00, -1.00, 212.0, 425.8)">	</text><text xml:space="preserve" font-family="Monaco,Monaco" font-size="43.0" fill="#37DE1B" transform="matrix(1.00, 0.00, -0.00, -1.00, 57.2, 367.8)"> </text><text xml:space="preserve" font-family="Monaco,Monaco" font-size="43.0" fill="#37DE1B" transform="matrix(1.00, 0.00, -0.00, -1.00, 83.0, 367.8)">l</text><text xml:space="preserve" font-family="Monaco,Monaco" font-size="43.0" fill="#37DE1B" transform="matrix(1.00, 0.00, -0.00, -1.00, 108.8, 367.8)">i</text><text xml:space="preserve" font-family="Monaco,Monaco" font-size="43.0" fill="#37DE1B" transform="matrix(1.00, 0.00, -0.00, -1.00, 134.6, 367.8)">g</text><text xml:space="preserve" font-family="Monaco,Monaco" font-size="43.0" fill="#37DE1B" transform="matrix(1.00, 0.00, -0.00, -1.00, 160.4, 367.8)">h</text><text xml:space="preserve" font-family="Monaco,Monaco" font-size="43.0" fill="#37DE1B" transform="matrix(1.00, 0.00, -0.00, -1.00, 186.2, 367.8)">t</text><text xml:space="preserve" font-family="Monaco,Monaco" font-size="43.0" fill="#37DE1B" transform="matrix(1.00, 0.00, -0.00, -1.00, 212.0, 367.8)"> </text><text xml:space="preserve" font-family="Monaco,Monaco" font-size="43.0" fill="#37DE1B" transform="matrix(1.00, 0.00, -0.00, -1.00, 237.8, 367.8)">b</text><text xml:space="preserve" font-family="Monaco,Monaco" font-size="43.0" fill="#37DE1B" transform="matrix(1.00, 0.00, -0.00, -1.00, 263.6, 367.8)">u</text><text xml:space="preserve" font-family="Monaco,Monaco" font-size="43.0" fill="#37DE1B" transform="matrix(1.00, 0.00, -0.00, -1.00, 289.4, 367.8)">l</text><text xml:space="preserve" font-family="Monaco,Monaco" font-size="43.0" fill="#37DE1B" transform="matrix(1.00, 0.00, -0.00, -1.00, 315.3, 367.8)">b</text><text xml:space="preserve" font-family="Monaco,Monaco" font-size="43.0" fill="#37DE1B" transform="matrix(1.00, 0.00, -0.00, -1.00, 341.1, 367.8)">s</text><text xml:space="preserve" font-family="Monaco,Monaco" font-size="43.0" fill="#37DE1B" transform="matrix(1.00, 0.00, -0.00, -1.00, 366.9, 367.8)">	</text><text xml:space="preserve" font-family="Monaco,Monaco" font-size="43.0" fill="#37DE1B" transform="matrix(1.00, 0.00, -0.00, -1.00, 57.2, 309.8)"> </text><text xml:space="preserve" font-family="Monaco,Monaco" font-size="43.0" fill="#37DE1B" transform="matrix(1.00, 0.00, -0.00, -1.00, 83.0, 309.8)">a</text><text xml:space="preserve" font-family="Monaco,Monaco" font-size="43.0" fill="#37DE1B" transform="matrix(1.00, 0.00, -0.00, -1.00, 108.8, 309.8)">p</text><text xml:space="preserve" font-family="Monaco,Monaco" font-size="43.0" fill="#37DE1B" transform="matrix(1.00, 0.00, -0.00, -1.00, 134.6, 309.8)">p</text><text xml:space="preserve" font-family="Monaco,Monaco" font-size="43.0" fill="#37DE1B" transform="matrix(1.00, 0.00, -0.00, -1.00, 160.4, 309.8)">l</text><text xml:space="preserve" font-family="Monaco,Monaco" font-size="43.0" fill="#37DE1B" transform="matrix(1.00, 0.00, -0.00, -1.00, 186.2, 309.8)">e</text><text xml:space="preserve" font-family="Monaco,Monaco" font-size="43.0" fill="#37DE1B" transform="matrix(1.00, 0.00, -0.00, -1.00, 212.0, 309.8)">s</text><text xml:space="preserve" font-family="Monaco,Monaco" font-size="43.0" fill="#37DE1B" transform="matrix(1.00, 0.00, -0.00, -1.00, 237.8, 309.8)">	</text><text xml:space="preserve" font-family="Monaco,Monaco" font-size="43.0" fill="#37DE1B" transform="matrix(1.00, 0.00, -0.00, -1.00, 57.2, 251.8)"> </text><text xml:space="preserve" font-family="Monaco,Monaco" font-size="43.0" fill="#37DE1B" transform="matrix(1.00, 0.00, -0.00, -1.00, 83.0, 251.8)">d</text><text xml:space="preserve" font-family="Monaco,Monaco" font-size="43.0" fill="#37DE1B" transform="matrix(1.00, 0.00, -0.00, -1.00, 108.8, 251.8)">o</text><text xml:space="preserve" font-family="Monaco,Monaco" font-size="43.0" fill="#37DE1B" transform="matrix(1.00, 0.00, -0.00, -1.00, 134.6, 251.8)">u</text><text xml:space="preserve" font-family="Monaco,Monaco" font-size="43.0" fill="#37DE1B" transform="matrix(1.00, 0.00, -0.00, -1.00, 160.4, 251.8)">g</text><text xml:space="preserve" font-family="Monaco,Monaco" font-size="43.0" fill="#37DE1B" transform="matrix(1.00, 0.00, -0.00, -1.00, 186.2, 251.8)">h</text><text xml:space="preserve" font-family="Monaco,Monaco" font-size="43.0" fill="#37DE1B" transform="matrix(1.00, 0.00, -0.00, -1.00, 212.0, 251.8)">n</text><text xml:space="preserve" font-family="Monaco,Monaco" font-size="43.0" fill="#37DE1B" transform="matrix(1.00, 0.00, -0.00, -1.00, 237.8, 251.8)">u</text><text xml:space="preserve" font-family="Monaco,Monaco" font-size="43.0" fill="#37DE1B" transform="matrix(1.00, 0.00, -0.00, -1.00, 263.6, 251.8)">t</text><text xml:space="preserve" font-family="Monaco,Monaco" font-size="43.0" fill="#37DE1B" transform="matrix(1.00, 0.00, -0.00, -1.00, 289.4, 251.8)">s</text><text xml:space="preserve" font-family="Monaco,Monaco" font-size="43.0" fill="#37DE1B" transform="matrix(1.00, 0.00, -0.00, -1.00, 315.3, 251.8)">	</text><text xml:space="preserve" font-family="Monaco,Monaco" font-size="43.0" fill="#37DE1B" transform="matrix(1.00, 0.00, -0.00, -1.00, 57.2, 193.8)"> </text><text xml:space="preserve" font-family="Monaco,Monaco" font-size="43.0" fill="#37DE1B" transform="matrix(1.00, 0.00, -0.00, -1.00, 83.0, 193.8)">s</text><text xml:space="preserve" font-family="Monaco,Monaco" font-size="43.0" fill="#37DE1B" transform="matrix(1.00, 0.00, -0.00, -1.00, 108.8, 193.8)">n</text><text xml:space="preserve" font-family="Monaco,Monaco" font-size="43.0" fill="#37DE1B" transform="matrix(1.00, 0.00, -0.00, -1.00, 134.6, 193.8)">i</text><text xml:space="preserve" font-family="Monaco,Monaco" font-size="43.0" fill="#37DE1B" transform="matrix(1.00, 0.00, -0.00, -1.00, 160.4, 193.8)">c</text><text xml:space="preserve" font-family="Monaco,Monaco" font-size="43.0" fill="#37DE1B" transform="matrix(1.00, 0.00, -0.00, -1.00, 186.2, 193.8)">k</text><text xml:space="preserve" font-family="Monaco,Monaco" font-size="43.0" fill="#37DE1B" transform="matrix(1.00, 0.00, -0.00, -1.00, 212.0, 193.8)">e</text><text xml:space="preserve" font-family="Monaco,Monaco" font-size="43.0" fill="#37DE1B" transform="matrix(1.00, 0.00, -0.00, -1.00, 237.8, 193.8)">r</text><text xml:space="preserve" font-family="Monaco,Monaco" font-size="43.0" fill="#37DE1B" transform="matrix(1.00, 0.00, -0.00, -1.00, 263.6, 193.8)">s</text><text xml:space="preserve" font-family="Monaco,Monaco" font-size="43.0" fill="#37DE1B" transform="matrix(1.00, 0.00, -0.00, -1.00, 289.4, 193.8)">	</text><text xml:space="preserve" font-family="Monaco,Monaco" font-size="43.0" fill="#37DE1B" transform="matrix(1.00, 0.00, -0.00, -1.00, 534.9, 541.8)">$</text><text xml:space="preserve" font-family="Monaco,Monaco" font-size="43.0" fill="#37DE1B" transform="matrix(1.00, 0.00, -0.00, -1.00, 560.7, 541.8)"> </text><text xml:space="preserve" font-family="Monaco,Monaco" font-size="43.0" fill="#37DE1B" transform="matrix(1.00, 0.00, -0.00, -1.00, 586.5, 541.8)">s</text><text xml:space="preserve" font-family="Monaco,Monaco" font-size="43.0" fill="#37DE1B" transform="matrix(1.00, 0.00, -0.00, -1.00, 612.4, 541.8)">o</text><text xml:space="preserve" font-family="Monaco,Monaco" font-size="43.0" fill="#37DE1B" transform="matrix(1.00, 0.00, -0.00, -1.00, 638.2, 541.8)">r</text><text xml:space="preserve" font-family="Monaco,Monaco" font-size="43.0" fill="#37DE1B" transform="matrix(1.00, 0.00, -0.00, -1.00, 664.0, 541.8)">t</text><text xml:space="preserve" font-family="Monaco,Monaco" font-size="43.0" fill="#37DE1B" transform="matrix(1.00, 0.00, -0.00, -1.00, 689.8, 541.8)"> </text><text xml:space="preserve" font-family="Monaco,Monaco" font-size="43.0" fill="#37DE1B" transform="matrix(1.00, 0.00, -0.00, -1.00, 715.6, 541.8)">l</text><text xml:space="preserve" font-family="Monaco,Monaco" font-size="43.0" fill="#37DE1B" transform="matrix(1.00, 0.00, -0.00, -1.00, 741.4, 541.8)">i</text><text xml:space="preserve" font-family="Monaco,Monaco" font-size="43.0" fill="#37DE1B" transform="matrix(1.00, 0.00, -0.00, -1.00, 767.2, 541.8)">s</text><text xml:space="preserve" font-family="Monaco,Monaco" font-size="43.0" fill="#37DE1B" transform="matrix(1.00, 0.00, -0.00, -1.00, 793.0, 541.8)">t</text><text xml:space="preserve" font-family="Monaco,Monaco" font-size="43.0" fill="#37DE1B" transform="matrix(1.00, 0.00, -0.00, -1.00, 818.8, 541.8)">.</text><text xml:space="preserve" font-family="Monaco,Monaco" font-size="43.0" fill="#37DE1B" transform="matrix(1.00, 0.00, -0.00, -1.00, 844.6, 541.8)">t</text><text xml:space="preserve" font-family="Monaco,Monaco" font-size="43.0" fill="#37DE1B" transform="matrix(1.00, 0.00, -0.00, -1.00, 870.4, 541.8)">x</text><text xml:space="preserve" font-family="Monaco,Monaco" font-size="43.0" fill="#37DE1B" transform="matrix(1.00, 0.00, -0.00, -1.00, 896.2, 541.8)">t</text><text xml:space="preserve" font-family="Monaco,Monaco" font-size="43.0" fill="#37DE1B" transform="matrix(1.00, 0.00, -0.00, -1.00, 922.1, 541.8)"> </text><text xml:space="preserve" font-family="Monaco,Monaco" font-size="43.0" fill="#37DE1B" transform="matrix(1.00, 0.00, -0.00, -1.00, 947.9, 541.8)">	</text><text xml:space="preserve" font-family="Monaco,Monaco" font-size="43.0" fill="#37DE1B" transform="matrix(1.00, 0.00, -0.00, -1.00, 534.9, 483.8)"> </text><text xml:space="preserve" font-family="Monaco,Monaco" font-size="43.0" fill="#37DE1B" transform="matrix(1.00, 0.00, -0.00, -1.00, 560.7, 483.8)">a</text><text xml:space="preserve" font-family="Monaco,Monaco" font-size="43.0" fill="#37DE1B" transform="matrix(1.00, 0.00, -0.00, -1.00, 586.5, 483.8)">p</text><text xml:space="preserve" font-family="Monaco,Monaco" font-size="43.0" fill="#37DE1B" transform="matrix(1.00, 0.00, -0.00, -1.00, 612.3, 483.8)">p</text><text xml:space="preserve" font-family="Monaco,Monaco" font-size="43.0" fill="#37DE1B" transform="matrix(1.00, 0.00, -0.00, -1.00, 638.2, 483.8)">l</text><text xml:space="preserve" font-family="Monaco,Monaco" font-size="43.0" fill="#37DE1B" transform="matrix(1.00, 0.00, -0.00, -1.00, 664.0, 483.8)">e</text><text xml:space="preserve" font-family="Monaco,Monaco" font-size="43.0" fill="#37DE1B" transform="matrix(1.00, 0.00, -0.00, -1.00, 689.8, 483.8)">s</text><text xml:space="preserve" font-family="Monaco,Monaco" font-size="43.0" fill="#37DE1B" transform="matrix(1.00, 0.00, -0.00, -1.00, 715.6, 483.8)">	</text><text xml:space="preserve" font-family="Monaco,Monaco" font-size="43.0" fill="#37DE1B" transform="matrix(1.00, 0.00, -0.00, -1.00, 534.9, 425.8)"> </text><text xml:space="preserve" font-family="Monaco,Monaco" font-size="43.0" fill="#37DE1B" transform="matrix(1.00, 0.00, -0.00, -1.00, 560.7, 425.8)">b</text><text xml:space="preserve" font-family="Monaco,Monaco" font-size="43.0" fill="#37DE1B" transform="matrix(1.00, 0.00, -0.00, -1.00, 586.5, 425.8)">a</text><text xml:space="preserve" font-family="Monaco,Monaco" font-size="43.0" fill="#37DE1B" transform="matrix(1.00, 0.00, -0.00, -1.00, 612.3, 425.8)">n</text><text xml:space="preserve" font-family="Monaco,Monaco" font-size="43.0" fill="#37DE1B" transform="matrix(1.00, 0.00, -0.00, -1.00, 638.2, 425.8)">a</text><text xml:space="preserve" font-family="Monaco,Monaco" font-size="43.0" fill="#37DE1B" transform="matrix(1.00, 0.00, -0.00, -1.00, 664.0, 425.8)">n</text><text xml:space="preserve" font-family="Monaco,Monaco" font-size="43.0" fill="#37DE1B" transform="matrix(1.00, 0.00, -0.00, -1.00, 689.8, 425.8)">a</text><text xml:space="preserve" font-family="Monaco,Monaco" font-size="43.0" fill="#37DE1B" transform="matrix(1.00, 0.00, -0.00, -1.00, 715.6, 425.8)">	</text><text xml:space="preserve" font-family="Monaco,Monaco" font-size="43.0" fill="#37DE1B" transform="matrix(1.00, 0.00, -0.00, -1.00, 534.9, 367.8)"> </text><text xml:space="preserve" font-family="Monaco,Monaco" font-size="43.0" fill="#37DE1B" transform="matrix(1.00, 0.00, -0.00, -1.00, 560.7, 367.8)">b</text><text xml:space="preserve" font-family="Monaco,Monaco" font-size="43.0" fill="#37DE1B" transform="matrix(1.00, 0.00, -0.00, -1.00, 586.5, 367.8)">r</text><text xml:space="preserve" font-family="Monaco,Monaco" font-size="43.0" fill="#37DE1B" transform="matrix(1.00, 0.00, -0.00, -1.00, 612.3, 367.8)">e</text><text xml:space="preserve" font-family="Monaco,Monaco" font-size="43.0" fill="#37DE1B" transform="matrix(1.00, 0.00, -0.00, -1.00, 638.2, 367.8)">a</text><text xml:space="preserve" font-family="Monaco,Monaco" font-size="43.0" fill="#37DE1B" transform="matrix(1.00, 0.00, -0.00, -1.00, 664.0, 367.8)">d</text><text xml:space="preserve" font-family="Monaco,Monaco" font-size="43.0" fill="#37DE1B" transform="matrix(1.00, 0.00, -0.00, -1.00, 689.8, 367.8)">	</text><text xml:space="preserve" font-family="Monaco,Monaco" font-size="43.0" fill="#37DE1B" transform="matrix(1.00, 0.00, -0.00, -1.00, 534.9, 309.8)"> </text><text xml:space="preserve" font-family="Monaco,Monaco" font-size="43.0" fill="#37DE1B" transform="matrix(1.00, 0.00, -0.00, -1.00, 560.7, 309.8)">d</text><text xml:space="preserve" font-family="Monaco,Monaco" font-size="43.0" fill="#37DE1B" transform="matrix(1.00, 0.00, -0.00, -1.00, 586.5, 309.8)">o</text><text xml:space="preserve" font-family="Monaco,Monaco" font-size="43.0" fill="#37DE1B" transform="matrix(1.00, 0.00, -0.00, -1.00, 612.3, 309.8)">u</text><text xml:space="preserve" font-family="Monaco,Monaco" font-size="43.0" fill="#37DE1B" transform="matrix(1.00, 0.00, -0.00, -1.00, 638.2, 309.8)">g</text><text xml:space="preserve" font-family="Monaco,Monaco" font-size="43.0" fill="#37DE1B" transform="matrix(1.00, 0.00, -0.00, -1.00, 664.0, 309.8)">h</text><text xml:space="preserve" font-family="Monaco,Monaco" font-size="43.0" fill="#37DE1B" transform="matrix(1.00, 0.00, -0.00, -1.00, 689.8, 309.8)">n</text><text xml:space="preserve" font-family="Monaco,Monaco" font-size="43.0" fill="#37DE1B" transform="matrix(1.00, 0.00, -0.00, -1.00, 715.6, 309.8)">u</text><text xml:space="preserve" font-family="Monaco,Monaco" font-size="43.0" fill="#37DE1B" transform="matrix(1.00, 0.00, -0.00, -1.00, 741.4, 309.8)">t</text><text xml:space="preserve" font-family="Monaco,Monaco" font-size="43.0" fill="#37DE1B" transform="matrix(1.00, 0.00, -0.00, -1.00, 767.2, 309.8)">s</text><text xml:space="preserve" font-family="Monaco,Monaco" font-size="43.0" fill="#37DE1B" transform="matrix(1.00, 0.00, -0.00, -1.00, 793.0, 309.8)">	</text><text xml:space="preserve" font-family="Monaco,Monaco" font-size="43.0" fill="#37DE1B" transform="matrix(1.00, 0.00, -0.00, -1.00, 534.9, 251.8)"> </text><text xml:space="preserve" font-family="Monaco,Monaco" font-size="43.0" fill="#37DE1B" transform="matrix(1.00, 0.00, -0.00, -1.00, 560.7, 251.8)">l</text><text xml:space="preserve" font-family="Monaco,Monaco" font-size="43.0" fill="#37DE1B" transform="matrix(1.00, 0.00, -0.00, -1.00, 586.5, 251.8)">i</text><text xml:space="preserve" font-family="Monaco,Monaco" font-size="43.0" fill="#37DE1B" transform="matrix(1.00, 0.00, -0.00, -1.00, 612.3, 251.8)">g</text><text xml:space="preserve" font-family="Monaco,Monaco" font-size="43.0" fill="#37DE1B" transform="matrix(1.00, 0.00, -0.00, -1.00, 638.2, 251.8)">h</text><text xml:space="preserve" font-family="Monaco,Monaco" font-size="43.0" fill="#37DE1B" transform="matrix(1.00, 0.00, -0.00, -1.00, 664.0, 251.8)">t</text><text xml:space="preserve" font-family="Monaco,Monaco" font-size="43.0" fill="#37DE1B" transform="matrix(1.00, 0.00, -0.00, -1.00, 689.8, 251.8)"> </text><text xml:space="preserve" font-family="Monaco,Monaco" font-size="43.0" fill="#37DE1B" transform="matrix(1.00, 0.00, -0.00, -1.00, 715.6, 251.8)">b</text><text xml:space="preserve" font-family="Monaco,Monaco" font-size="43.0" fill="#37DE1B" transform="matrix(1.00, 0.00, -0.00, -1.00, 741.4, 251.8)">u</text><text xml:space="preserve" font-family="Monaco,Monaco" font-size="43.0" fill="#37DE1B" transform="matrix(1.00, 0.00, -0.00, -1.00, 767.2, 251.8)">l</text><text xml:space="preserve" font-family="Monaco,Monaco" font-size="43.0" fill="#37DE1B" transform="matrix(1.00, 0.00, -0.00, -1.00, 793.0, 251.8)">b</text><text xml:space="preserve" font-family="Monaco,Monaco" font-size="43.0" fill="#37DE1B" transform="matrix(1.00, 0.00, -0.00, -1.00, 818.8, 251.8)">s</text><text xml:space="preserve" font-family="Monaco,Monaco" font-size="43.0" fill="#37DE1B" transform="matrix(1.00, 0.00, -0.00, -1.00, 844.6, 251.8)">	</text><text xml:space="preserve" font-family="Monaco,Monaco" font-size="43.0" fill="#37DE1B" transform="matrix(1.00, 0.00, -0.00, -1.00, 534.9, 193.8)"> </text><text xml:space="preserve" font-family="Monaco,Monaco" font-size="43.0" fill="#37DE1B" transform="matrix(1.00, 0.00, -0.00, -1.00, 560.7, 193.8)">s</text><text xml:space="preserve" font-family="Monaco,Monaco" font-size="43.0" fill="#37DE1B" transform="matrix(1.00, 0.00, -0.00, -1.00, 586.5, 193.8)">n</text><text xml:space="preserve" font-family="Monaco,Monaco" font-size="43.0" fill="#37DE1B" transform="matrix(1.00, 0.00, -0.00, -1.00, 612.3, 193.8)">i</text><text xml:space="preserve" font-family="Monaco,Monaco" font-size="43.0" fill="#37DE1B" transform="matrix(1.00, 0.00, -0.00, -1.00, 638.2, 193.8)">c</text><text xml:space="preserve" font-family="Monaco,Monaco" font-size="43.0" fill="#37DE1B" transform="matrix(1.00, 0.00, -0.00, -1.00, 664.0, 193.8)">k</text><text xml:space="preserve" font-family="Monaco,Monaco" font-size="43.0" fill="#37DE1B" transform="matrix(1.00, 0.00, -0.00, -1.00, 689.8, 193.8)">e</text><text xml:space="preserve" font-family="Monaco,Monaco" font-size="43.0" fill="#37DE1B" transform="matrix(1.00, 0.00, -0.00, -1.00, 715.6, 193.8)">r</text><text xml:space="preserve" font-family="Monaco,Monaco" font-size="43.0" fill="#37DE1B" transform="matrix(1.00, 0.00, -0.00, -1.00, 741.4, 193.8)">s</text></g></svg>