<?xml version="1.0" encoding="UTF-8" standalone="no"?><svg xmlns="http://www.w3.org/2000/svg" xmlns:xlink="http://www.w3.org/1999/xlink" clip-rule="evenodd" stroke-miterlimit="10" viewBox="0 0 1024 768"><desc>SVG generated by Keynote</desc><defs></defs><g transform="matrix(1.00, 0.00, -0.00, -1.00, 0.0, 768.0)"><path d="M 0.0 768.0 L 1024.0 768.0 L 1024.0 0.0 L 0.0 0.0 Z M 0.0 768.0 " fill="#000000"></path><image xlink:href="../../ACF26528-510F-4087-92A7-D9431E4A7675/assets/C07D05C049E9C3A813AD52BFC7182A2D.png" width="983.00" height="584.00" transform="matrix(1.00, 0.00, -0.00, -1.00, 10.2, 664.7)" opacity="0.75"></image><image xlink:href="../../ACF26528-510F-4087-92A7-D9431E4A7675/assets/B8B89F8D2E49298F363D8341A9D067FB.png" width="963.00" height="564.00" transform="matrix(1.00, 0.00, -0.00, -1.00, 30.0, 666.0)"></image><text xml:space="preserve" font-family="LucidaGrande,Lucida Grande" font-size="22.0" fill="#FEFFFE" transform="matrix(1.00, 0.00, -0.00, -1.00, 332.4, 11.6)">F</text><text xml:space="preserve" font-family="LucidaGrande,Lucida Grande" font-size="22.0" fill="#FEFFFE" transform="matrix(1.00, 0.00, -0.00, -1.00, 344.2, 11.6)">e</text><text xml:space="preserve" font-family="LucidaGrande,Lucida Grande" font-size="22.0" fill="#FEFFFE" transform="matrix(1.00, 0.00, -0.00, -1.00, 356.4, 11.6)">e</text><text xml:space="preserve" font-family="LucidaGrande,Lucida Grande" font-size="22.0" fill="#FEFFFE" transform="matrix(1.00, 0.00, -0.00, -1.00, 368.7, 11.6)">d</text><text xml:space="preserve" font-family="LucidaGrande,Lucida Grande" font-size="22.0" fill="#FEFFFE" transform="matrix(1.00, 0.00, -0.00, -1.00, 382.5, 11.6)">b</text><text xml:space="preserve" font-family="LucidaGrande,Lucida Grande" font-size="22.0" fill="#FEFFFE" transform="matrix(1.00, 0.00, -0.00, -1.00, 396.4, 11.6)">a</text><text xml:space="preserve" font-family="LucidaGrande,Lucida Grande" font-size="22.0" fill="#FEFFFE" transform="matrix(1.00, 0.00, -0.00, -1.00, 408.5, 11.6)">c</text><text xml:space="preserve" font-family="LucidaGrande,Lucida Grande" font-size="22.0" fill="#FEFFFE" transform="matrix(1.00, 0.00, -0.00, -1.00, 419.8, 11.6)">k</text><text xml:space="preserve" font-family="LucidaGrande,Lucida Grande" font-size="22.0" fill="#FEFFFE" transform="matrix(1.00, 0.00, -0.00, -1.00, 432.7, 11.6)">:</text><text xml:space="preserve" font-family="LucidaGrande,Lucida Grande" font-size="22.0" fill="#FEFFFE" transform="matrix(1.00, 0.00, -0.00, -1.00, 439.6, 11.6)"> </text><text xml:space="preserve" font-family="LucidaGrande,Lucida Grande" font-size="22.0" fill="#FEFFFE" transform="matrix(1.00, 0.00, -0.00, -1.00, 446.6, 11.6)">h</text><text xml:space="preserve" font-family="LucidaGrande,Lucida Grande" font-size="22.0" fill="#FEFFFE" transform="matrix(1.00, 0.00, -0.00, -1.00, 460.2, 11.6)">t</text><text xml:space="preserve" font-family="LucidaGrande,Lucida Grande" font-size="22.0" fill="#FEFFFE" transform="matrix(1.00, 0.00, -0.00, -1.00, 468.4, 11.6)">t</text><text xml:space="preserve" font-family="LucidaGrande,Lucida Grande" font-size="22.0" fill="#FEFFFE" transform="matrix(1.00, 0.00, -0.00, -1.00, 476.7, 11.6)">p</text><text xml:space="preserve" font-family="LucidaGrande,Lucida Grande" font-size="22.0" fill="#FEFFFE" transform="matrix(1.00, 0.00, -0.00, -1.00, 490.5, 11.6)">:</text><text xml:space="preserve" font-family="LucidaGrande,Lucida Grande" font-size="22.0" fill="#FEFFFE" transform="matrix(1.00, 0.00, -0.00, -1.00, 497.5, 11.6)">/</text><text xml:space="preserve" font-family="LucidaGrande,Lucida Grande" font-size="22.0" fill="#FEFFFE" transform="matrix(1.00, 0.00, -0.00, -1.00, 509.0, 11.6)">/</text><text xml:space="preserve" font-family="LucidaGrande,Lucida Grande" font-size="22.0" fill="#FEFFFE" transform="matrix(1.00, 0.00, -0.00, -1.00, 520.6, 11.6)">j</text><text xml:space="preserve" font-family="LucidaGrande,Lucida Grande" font-size="22.0" fill="#FEFFFE" transform="matrix(1.00, 0.00, -0.00, -1.00, 527.3, 11.6)">.</text><text xml:space="preserve" font-family="LucidaGrande,Lucida Grande" font-size="22.0" fill="#FEFFFE" transform="matrix(1.00, 0.00, -0.00, -1.00, 534.3, 11.6)">m</text><text xml:space="preserve" font-family="LucidaGrande,Lucida Grande" font-size="22.0" fill="#FEFFFE" transform="matrix(1.00, 0.00, -0.00, -1.00, 554.8, 11.6)">p</text><text xml:space="preserve" font-family="LucidaGrande,Lucida Grande" font-size="22.0" fill="#FEFFFE" transform="matrix(1.00, 0.00, -0.00, -1.00, 568.6, 11.6)">/</text><text xml:space="preserve" font-family="LucidaGrande,Lucida Grande" font-size="22.0" fill="#FEFFFE" transform="matrix(1.00, 0.00, -0.00, -1.00, 580.2, 11.6)">p</text><text xml:space="preserve" font-family="LucidaGrande,Lucida Grande" font-size="22.0" fill="#FEFFFE" transform="matrix(1.00, 0.00, -0.00, -1.00, 594.0, 11.6)">s</text><text xml:space="preserve" font-family="LucidaGrande,Lucida Grande" font-size="22.0" fill="#FEFFFE" transform="matrix(1.00, 0.00, -0.00, -1.00, 605.3, 11.6)">u</text><text xml:space="preserve" font-family="LucidaGrande,Lucida Grande" font-size="22.0" fill="#FEFFFE" transform="matrix(1.00, 0.00, -0.00, -1.00, 618.9, 11.6)">m</text><text xml:space="preserve" font-family="LucidaGrande,Lucida Grande" font-size="22.0" fill="#FEFFFE" transform="matrix(1.00, 0.00, -0.00, -1.00, 639.4, 11.6)">a</text><text xml:space="preserve" font-family="LucidaGrande,Lucida Grande" font-size="22.0" fill="#FEFFFE" transform="matrix(1.00, 0.00, -0.00, -1.00, 651.6, 11.6)">c</text><text xml:space="preserve" font-family="LucidaGrande,Lucida Grande" font-size="22.0" fill="#FEFFFE" transform="matrix(1.00, 0.00, -0.00, -1.00, 662.9, 11.6)">1</text><text xml:space="preserve" font-family="LucidaGrande,Lucida Grande" font-size="22.0" fill="#FEFFFE" transform="matrix(1.00, 0.00, -0.00, -1.00, 676.8, 11.6)">3</text><text xml:space="preserve" font-family="Monaco,Monaco" font-size="30.0" fill="#37DE1B" transform="matrix(1.00, 0.00, -0.00, -1.00, 57.2, 557.5)">$</text><text xml:space="preserve" font-family="Monaco,Monaco" font-size="30.0" fill="#37DE1B" transform="matrix(1.00, 0.00, -0.00, -1.00, 75.2, 557.5)"> </text><text xml:space="preserve" font-family="Monaco,Monaco" font-size="30.0" fill="#37DE1B" transform="matrix(1.00, 0.00, -0.00, -1.00, 93.2, 557.5)">b</text><text xml:space="preserve" font-family="Monaco,Monaco" font-size="30.0" fill="#37DE1B" transform="matrix(1.00, 0.00, -0.00, -1.00, 111.2, 557.5)">a</text><text xml:space="preserve" font-family="Monaco,Monaco" font-size="30.0" fill="#37DE1B" transform="matrix(1.00, 0.00, -0.00, -1.00, 129.2, 557.5)">s</text><text xml:space="preserve" font-family="Monaco,Monaco" font-size="30.0" fill="#37DE1B" transform="matrix(1.00, 0.00, -0.00, -1.00, 147.2, 557.5)">h</text><text xml:space="preserve" font-family="Monaco,Monaco" font-size="30.0" fill="#37DE1B" transform="matrix(1.00, 0.00, -0.00, -1.00, 165.2, 557.5)"> </text><text xml:space="preserve" font-family="Monaco,Monaco" font-size="30.0" fill="#37DE1B" transform="matrix(1.00, 0.00, -0.00, -1.00, 183.2, 557.5)">e</text><text xml:space="preserve" font-family="Monaco,Monaco" font-size="30.0" fill="#37DE1B" transform="matrix(1.00, 0.00, -0.00, -1.00, 201.2, 557.5)">r</text><text xml:space="preserve" font-family="Monaco,Monaco" font-size="30.0" fill="#37DE1B" transform="matrix(1.00, 0.00, -0.00, -1.00, 219.2, 557.5)">r</text><text xml:space="preserve" font-family="Monaco,Monaco" font-size="30.0" fill="#37DE1B" transform="matrix(1.00, 0.00, -0.00, -1.00, 237.2, 557.5)">o</text><text xml:space="preserve" font-family="Monaco,Monaco" font-size="30.0" fill="#37DE1B" transform="matrix(1.00, 0.00, -0.00, -1.00, 255.2, 557.5)">r</text><text xml:space="preserve" font-family="Monaco,Monaco" font-size="30.0" fill="#37DE1B" transform="matrix(1.00, 0.00, -0.00, -1.00, 273.2, 557.5)">C</text><text xml:space="preserve" font-family="Monaco,Monaco" font-size="30.0" fill="#37DE1B" transform="matrix(1.00, 0.00, -0.00, -1.00, 291.2, 557.5)">h</text><text xml:space="preserve" font-family="Monaco,Monaco" font-size="30.0" fill="#37DE1B" transform="matrix(1.00, 0.00, -0.00, -1.00, 309.3, 557.5)">k</text><text xml:space="preserve" font-family="Monaco,Monaco" font-size="30.0" fill="#37DE1B" transform="matrix(1.00, 0.00, -0.00, -1.00, 327.3, 557.5)">.</text><text xml:space="preserve" font-family="Monaco,Monaco" font-size="30.0" fill="#37DE1B" transform="matrix(1.00, 0.00, -0.00, -1.00, 345.3, 557.5)">s</text><text xml:space="preserve" font-family="Monaco,Monaco" font-size="30.0" fill="#37DE1B" transform="matrix(1.00, 0.00, -0.00, -1.00, 363.3, 557.5)">h</text><text xml:space="preserve" font-family="Monaco,Monaco" font-size="30.0" fill="#37DE1B" transform="matrix(1.00, 0.00, -0.00, -1.00, 381.3, 557.5)"> </text><text xml:space="preserve" font-family="Monaco,Monaco" font-size="30.0" fill="#37DE1B" transform="matrix(1.00, 0.00, -0.00, -1.00, 399.3, 557.5)">	</text><text xml:space="preserve" font-family="Monaco,Monaco" font-size="30.0" fill="#37DE1B" transform="matrix(1.00, 0.00, -0.00, -1.00, 57.2, 516.5)">	</text><text xml:space="preserve" font-family="Monaco,Monaco" font-size="30.0" fill="#37DE1B" transform="matrix(1.00, 0.00, -0.00, -1.00, 85.2, 516.5)">z</text><text xml:space="preserve" font-family="Monaco,Monaco" font-size="30.0" fill="#37DE1B" transform="matrix(1.00, 0.00, -0.00, -1.00, 103.2, 516.5)">i</text><text xml:space="preserve" font-family="Monaco,Monaco" font-size="30.0" fill="#37DE1B" transform="matrix(1.00, 0.00, -0.00, -1.00, 121.2, 516.5)">p</text><text xml:space="preserve" font-family="Monaco,Monaco" font-size="30.0" fill="#37DE1B" transform="matrix(1.00, 0.00, -0.00, -1.00, 139.2, 516.5)"> </text><text xml:space="preserve" font-family="Monaco,Monaco" font-size="30.0" fill="#37DE1B" transform="matrix(1.00, 0.00, -0.00, -1.00, 157.2, 516.5)">w</text><text xml:space="preserve" font-family="Monaco,Monaco" font-size="30.0" fill="#37DE1B" transform="matrix(1.00, 0.00, -0.00, -1.00, 175.2, 516.5)">a</text><text xml:space="preserve" font-family="Monaco,Monaco" font-size="30.0" fill="#37DE1B" transform="matrix(1.00, 0.00, -0.00, -1.00, 193.2, 516.5)">r</text><text xml:space="preserve" font-family="Monaco,Monaco" font-size="30.0" fill="#37DE1B" transform="matrix(1.00, 0.00, -0.00, -1.00, 211.3, 516.5)">n</text><text xml:space="preserve" font-family="Monaco,Monaco" font-size="30.0" fill="#37DE1B" transform="matrix(1.00, 0.00, -0.00, -1.00, 229.3, 516.5)">i</text><text xml:space="preserve" font-family="Monaco,Monaco" font-size="30.0" fill="#37DE1B" transform="matrix(1.00, 0.00, -0.00, -1.00, 247.3, 516.5)">n</text><text xml:space="preserve" font-family="Monaco,Monaco" font-size="30.0" fill="#37DE1B" transform="matrix(1.00, 0.00, -0.00, -1.00, 265.3, 516.5)">g</text><text xml:space="preserve" font-family="Monaco,Monaco" font-size="30.0" fill="#37DE1B" transform="matrix(1.00, 0.00, -0.00, -1.00, 283.3, 516.5)">:</text><text xml:space="preserve" font-family="Monaco,Monaco" font-size="30.0" fill="#37DE1B" transform="matrix(1.00, 0.00, -0.00, -1.00, 301.3, 516.5)"> </text><text xml:space="preserve" font-family="Monaco,Monaco" font-size="30.0" fill="#37DE1B" transform="matrix(1.00, 0.00, -0.00, -1.00, 319.3, 516.5)">n</text><text xml:space="preserve" font-family="Monaco,Monaco" font-size="30.0" fill="#37DE1B" transform="matrix(1.00, 0.00, -0.00, -1.00, 337.3, 516.5)">a</text><text xml:space="preserve" font-family="Monaco,Monaco" font-size="30.0" fill="#37DE1B" transform="matrix(1.00, 0.00, -0.00, -1.00, 355.4, 516.5)">m</text><text xml:space="preserve" font-family="Monaco,Monaco" font-size="30.0" fill="#37DE1B" transform="matrix(1.00, 0.00, -0.00, -1.00, 373.4, 516.5)">e</text><text xml:space="preserve" font-family="Monaco,Monaco" font-size="30.0" fill="#37DE1B" transform="matrix(1.00, 0.00, -0.00, -1.00, 391.4, 516.5)"> </text><text xml:space="preserve" font-family="Monaco,Monaco" font-size="30.0" fill="#37DE1B" transform="matrix(1.00, 0.00, -0.00, -1.00, 409.4, 516.5)">n</text><text xml:space="preserve" font-family="Monaco,Monaco" font-size="30.0" fill="#37DE1B" transform="matrix(1.00, 0.00, -0.00, -1.00, 427.4, 516.5)">o</text><text xml:space="preserve" font-family="Monaco,Monaco" font-size="30.0" fill="#37DE1B" transform="matrix(1.00, 0.00, -0.00, -1.00, 445.4, 516.5)">t</text><text xml:space="preserve" font-family="Monaco,Monaco" font-size="30.0" fill="#37DE1B" transform="matrix(1.00, 0.00, -0.00, -1.00, 463.4, 516.5)"> </text><text xml:space="preserve" font-family="Monaco,Monaco" font-size="30.0" fill="#37DE1B" transform="matrix(1.00, 0.00, -0.00, -1.00, 481.4, 516.5)">m</text><text xml:space="preserve" font-family="Monaco,Monaco" font-size="30.0" fill="#37DE1B" transform="matrix(1.00, 0.00, -0.00, -1.00, 499.5, 516.5)">a</text><text xml:space="preserve" font-family="Monaco,Monaco" font-size="30.0" fill="#37DE1B" transform="matrix(1.00, 0.00, -0.00, -1.00, 517.5, 516.5)">t</text><text xml:space="preserve" font-family="Monaco,Monaco" font-size="30.0" fill="#37DE1B" transform="matrix(1.00, 0.00, -0.00, -1.00, 535.5, 516.5)">c</text><text xml:space="preserve" font-family="Monaco,Monaco" font-size="30.0" fill="#37DE1B" transform="matrix(1.00, 0.00, -0.00, -1.00, 553.5, 516.5)">h</text><text xml:space="preserve" font-family="Monaco,Monaco" font-size="30.0" fill="#37DE1B" transform="matrix(1.00, 0.00, -0.00, -1.00, 571.5, 516.5)">e</text><text xml:space="preserve" font-family="Monaco,Monaco" font-size="30.0" fill="#37DE1B" transform="matrix(1.00, 0.00, -0.00, -1.00, 589.5, 516.5)">d</text><text xml:space="preserve" font-family="Monaco,Monaco" font-size="30.0" fill="#37DE1B" transform="matrix(1.00, 0.00, -0.00, -1.00, 607.5, 516.5)">:</text><text xml:space="preserve" font-family="Monaco,Monaco" font-size="30.0" fill="#37DE1B" transform="matrix(1.00, 0.00, -0.00, -1.00, 625.5, 516.5)"> </text><text xml:space="preserve" font-family="Monaco,Monaco" font-size="30.0" fill="#37DE1B" transform="matrix(1.00, 0.00, -0.00, -1.00, 643.5, 516.5)">/</text><text xml:space="preserve" font-family="Monaco,Monaco" font-size="30.0" fill="#37DE1B" transform="matrix(1.00, 0.00, -0.00, -1.00, 661.6, 516.5)">t</text><text xml:space="preserve" font-family="Monaco,Monaco" font-size="30.0" fill="#37DE1B" transform="matrix(1.00, 0.00, -0.00, -1.00, 679.6, 516.5)">m</text><text xml:space="preserve" font-family="Monaco,Monaco" font-size="30.0" fill="#37DE1B" transform="matrix(1.00, 0.00, -0.00, -1.00, 697.6, 516.5)">p</text><text xml:space="preserve" font-family="Monaco,Monaco" font-size="30.0" fill="#37DE1B" transform="matrix(1.00, 0.00, -0.00, -1.00, 715.6, 516.5)">/</text><text xml:space="preserve" font-family="Monaco,Monaco" font-size="30.0" fill="#37DE1B" transform="matrix(1.00, 0.00, -0.00, -1.00, 733.6, 516.5)">t</text><text xml:space="preserve" font-family="Monaco,Monaco" font-size="30.0" fill="#37DE1B" transform="matrix(1.00, 0.00, -0.00, -1.00, 751.6, 516.5)">o</text><text xml:space="preserve" font-family="Monaco,Monaco" font-size="30.0" fill="#37DE1B" transform="matrix(1.00, 0.00, -0.00, -1.00, 769.6, 516.5)">a</text><text xml:space="preserve" font-family="Monaco,Monaco" font-size="30.0" fill="#37DE1B" transform="matrix(1.00, 0.00, -0.00, -1.00, 787.6, 516.5)">s</text><text xml:space="preserve" font-family="Monaco,Monaco" font-size="30.0" fill="#37DE1B" transform="matrix(1.00, 0.00, -0.00, -1.00, 805.7, 516.5)">t</text><text xml:space="preserve" font-family="Monaco,Monaco" font-size="30.0" fill="#37DE1B" transform="matrix(1.00, 0.00, -0.00, -1.00, 823.7, 516.5)">.</text><text xml:space="preserve" font-family="Monaco,Monaco" font-size="30.0" fill="#37DE1B" transform="matrix(1.00, 0.00, -0.00, -1.00, 841.7, 516.5)">t</text><text xml:space="preserve" font-family="Monaco,Monaco" font-size="30.0" fill="#37DE1B" transform="matrix(1.00, 0.00, -0.00, -1.00, 859.7, 516.5)">x</text><text xml:space="preserve" font-family="Monaco,Monaco" font-size="30.0" fill="#37DE1B" transform="matrix(1.00, 0.00, -0.00, -1.00, 877.7, 516.5)">t</text><text xml:space="preserve" font-family="Monaco,Monaco" font-size="30.0" fill="#37DE1B" transform="matrix(1.00, 0.00, -0.00, -1.00, 895.7, 516.5)">	</text><text xml:space="preserve" font-family="Monaco,Monaco" font-size="30.0" fill="#37DE1B" transform="matrix(1.00, 0.00, -0.00, -1.00, 57.2, 434.5)">z</text><text xml:space="preserve" font-family="Monaco,Monaco" font-size="30.0" fill="#37DE1B" transform="matrix(1.00, 0.00, -0.00, -1.00, 75.2, 434.5)">i</text><text xml:space="preserve" font-family="Monaco,Monaco" font-size="30.0" fill="#37DE1B" transform="matrix(1.00, 0.00, -0.00, -1.00, 93.2, 434.5)">p</text><text xml:space="preserve" font-family="Monaco,Monaco" font-size="30.0" fill="#37DE1B" transform="matrix(1.00, 0.00, -0.00, -1.00, 111.2, 434.5)"> </text><text xml:space="preserve" font-family="Monaco,Monaco" font-size="30.0" fill="#37DE1B" transform="matrix(1.00, 0.00, -0.00, -1.00, 129.2, 434.5)">e</text><text xml:space="preserve" font-family="Monaco,Monaco" font-size="30.0" fill="#37DE1B" transform="matrix(1.00, 0.00, -0.00, -1.00, 147.2, 434.5)">r</text><text xml:space="preserve" font-family="Monaco,Monaco" font-size="30.0" fill="#37DE1B" transform="matrix(1.00, 0.00, -0.00, -1.00, 165.2, 434.5)">r</text><text xml:space="preserve" font-family="Monaco,Monaco" font-size="30.0" fill="#37DE1B" transform="matrix(1.00, 0.00, -0.00, -1.00, 183.2, 434.5)">o</text><text xml:space="preserve" font-family="Monaco,Monaco" font-size="30.0" fill="#37DE1B" transform="matrix(1.00, 0.00, -0.00, -1.00, 201.2, 434.5)">r</text><text xml:space="preserve" font-family="Monaco,Monaco" font-size="30.0" fill="#37DE1B" transform="matrix(1.00, 0.00, -0.00, -1.00, 219.2, 434.5)">:</text><text xml:space="preserve" font-family="Monaco,Monaco" font-size="30.0" fill="#37DE1B" transform="matrix(1.00, 0.00, -0.00, -1.00, 237.2, 434.5)"> </text><text xml:space="preserve" font-family="Monaco,Monaco" font-size="30.0" fill="#37DE1B" transform="matrix(1.00, 0.00, -0.00, -1.00, 255.2, 434.5)">N</text><text xml:space="preserve" font-family="Monaco,Monaco" font-size="30.0" fill="#37DE1B" transform="matrix(1.00, 0.00, -0.00, -1.00, 273.2, 434.5)">o</text><text xml:space="preserve" font-family="Monaco,Monaco" font-size="30.0" fill="#37DE1B" transform="matrix(1.00, 0.00, -0.00, -1.00, 291.3, 434.5)">t</text><text xml:space="preserve" font-family="Monaco,Monaco" font-size="30.0" fill="#37DE1B" transform="matrix(1.00, 0.00, -0.00, -1.00, 309.3, 434.5)">h</text><text xml:space="preserve" font-family="Monaco,Monaco" font-size="30.0" fill="#37DE1B" transform="matrix(1.00, 0.00, -0.00, -1.00, 327.3, 434.5)">i</text><text xml:space="preserve" font-family="Monaco,Monaco" font-size="30.0" fill="#37DE1B" transform="matrix(1.00, 0.00, -0.00, -1.00, 345.3, 434.5)">n</text><text xml:space="preserve" font-family="Monaco,Monaco" font-size="30.0" fill="#37DE1B" transform="matrix(1.00, 0.00, -0.00, -1.00, 363.3, 434.5)">g</text><text xml:space="preserve" font-family="Monaco,Monaco" font-size="30.0" fill="#37DE1B" transform="matrix(1.00, 0.00, -0.00, -1.00, 381.3, 434.5)"> </text><text xml:space="preserve" font-family="Monaco,Monaco" font-size="30.0" fill="#37DE1B" transform="matrix(1.00, 0.00, -0.00, -1.00, 399.3, 434.5)">t</text><text xml:space="preserve" font-family="Monaco,Monaco" font-size="30.0" fill="#37DE1B" transform="matrix(1.00, 0.00, -0.00, -1.00, 417.3, 434.5)">o</text><text xml:space="preserve" font-family="Monaco,Monaco" font-size="30.0" fill="#37DE1B" transform="matrix(1.00, 0.00, -0.00, -1.00, 435.3, 434.5)"> </text><text xml:space="preserve" font-family="Monaco,Monaco" font-size="30.0" fill="#37DE1B" transform="matrix(1.00, 0.00, -0.00, -1.00, 453.3, 434.5)">d</text><text xml:space="preserve" font-family="Monaco,Monaco" font-size="30.0" fill="#37DE1B" transform="matrix(1.00, 0.00, -0.00, -1.00, 471.3, 434.5)">o</text><text xml:space="preserve" font-family="Monaco,Monaco" font-size="30.0" fill="#37DE1B" transform="matrix(1.00, 0.00, -0.00, -1.00, 489.3, 434.5)">!</text><text xml:space="preserve" font-family="Monaco,Monaco" font-size="30.0" fill="#37DE1B" transform="matrix(1.00, 0.00, -0.00, -1.00, 507.3, 434.5)"> </text><text xml:space="preserve" font-family="Monaco,Monaco" font-size="30.0" fill="#37DE1B" transform="matrix(1.00, 0.00, -0.00, -1.00, 525.3, 434.5)">(</text><text xml:space="preserve" font-family="Monaco,Monaco" font-size="30.0" fill="#37DE1B" transform="matrix(1.00, 0.00, -0.00, -1.00, 543.3, 434.5)">f</text><text xml:space="preserve" font-family="Monaco,Monaco" font-size="30.0" fill="#37DE1B" transform="matrix(1.00, 0.00, -0.00, -1.00, 561.3, 434.5)">a</text><text xml:space="preserve" font-family="Monaco,Monaco" font-size="30.0" fill="#37DE1B" transform="matrix(1.00, 0.00, -0.00, -1.00, 579.3, 434.5)">i</text><text xml:space="preserve" font-family="Monaco,Monaco" font-size="30.0" fill="#37DE1B" transform="matrix(1.00, 0.00, -0.00, -1.00, 597.4, 434.5)">l</text><text xml:space="preserve" font-family="Monaco,Monaco" font-size="30.0" fill="#37DE1B" transform="matrix(1.00, 0.00, -0.00, -1.00, 615.4, 434.5)">.</text><text xml:space="preserve" font-family="Monaco,Monaco" font-size="30.0" fill="#37DE1B" transform="matrix(1.00, 0.00, -0.00, -1.00, 633.4, 434.5)">z</text><text xml:space="preserve" font-family="Monaco,Monaco" font-size="30.0" fill="#37DE1B" transform="matrix(1.00, 0.00, -0.00, -1.00, 651.4, 434.5)">i</text><text xml:space="preserve" font-family="Monaco,Monaco" font-size="30.0" fill="#37DE1B" transform="matrix(1.00, 0.00, -0.00, -1.00, 669.4, 434.5)">p</text><text xml:space="preserve" font-family="Monaco,Monaco" font-size="30.0" fill="#37DE1B" transform="matrix(1.00, 0.00, -0.00, -1.00, 687.4, 434.5)">)</text><text xml:space="preserve" font-family="Monaco,Monaco" font-size="30.0" fill="#37DE1B" transform="matrix(1.00, 0.00, -0.00, -1.00, 705.4, 434.5)">	</text><text xml:space="preserve" font-family="Monaco,Monaco" font-size="30.0" fill="#37DE1B" transform="matrix(1.00, 0.00, -0.00, -1.00, 57.2, 393.5)">1</text><text xml:space="preserve" font-family="Monaco,Monaco" font-size="30.0" fill="#37DE1B" transform="matrix(1.00, 0.00, -0.00, -1.00, 75.2, 393.5)">2</text><text xml:space="preserve" font-family="Monaco,Monaco" font-size="30.0" fill="#37DE1B" transform="matrix(1.00, 0.00, -0.00, -1.00, 93.2, 393.5)">	</text><text xml:space="preserve" font-family="Monaco,Monaco" font-size="30.0" fill="#37DE1B" transform="matrix(1.00, 0.00, -0.00, -1.00, 57.2, 352.5)">e</text><text xml:space="preserve" font-family="Monaco,Monaco" font-size="30.0" fill="#37DE1B" transform="matrix(1.00, 0.00, -0.00, -1.00, 75.2, 352.5)">r</text><text xml:space="preserve" font-family="Monaco,Monaco" font-size="30.0" fill="#37DE1B" transform="matrix(1.00, 0.00, -0.00, -1.00, 93.2, 352.5)">r</text><text xml:space="preserve" font-family="Monaco,Monaco" font-size="30.0" fill="#37DE1B" transform="matrix(1.00, 0.00, -0.00, -1.00, 111.2, 352.5)">o</text><text xml:space="preserve" font-family="Monaco,Monaco" font-size="30.0" fill="#37DE1B" transform="matrix(1.00, 0.00, -0.00, -1.00, 129.2, 352.5)">r</text><text xml:space="preserve" font-family="Monaco,Monaco" font-size="30.0" fill="#37DE1B" transform="matrix(1.00, 0.00, -0.00, -1.00, 147.2, 352.5)">C</text><text xml:space="preserve" font-family="Monaco,Monaco" font-size="30.0" fill="#37DE1B" transform="matrix(1.00, 0.00, -0.00, -1.00, 165.2, 352.5)">h</text><text xml:space="preserve" font-family="Monaco,Monaco" font-size="30.0" fill="#37DE1B" transform="matrix(1.00, 0.00, -0.00, -1.00, 183.2, 352.5)">k</text><text xml:space="preserve" font-family="Monaco,Monaco" font-size="30.0" fill="#37DE1B" transform="matrix(1.00, 0.00, -0.00, -1.00, 201.2, 352.5)">.</text><text xml:space="preserve" font-family="Monaco,Monaco" font-size="30.0" fill="#37DE1B" transform="matrix(1.00, 0.00, -0.00, -1.00, 219.2, 352.5)">s</text><text xml:space="preserve" font-family="Monaco,Monaco" font-size="30.0" fill="#37DE1B" transform="matrix(1.00, 0.00, -0.00, -1.00, 237.2, 352.5)">h</text><text xml:space="preserve" font-family="Monaco,Monaco" font-size="30.0" fill="#37DE1B" transform="matrix(1.00, 0.00, -0.00, -1.00, 255.2, 352.5)"> </text><text xml:space="preserve" font-family="Monaco,Monaco" font-size="30.0" fill="#37DE1B" transform="matrix(1.00, 0.00, -0.00, -1.00, 273.2, 352.5)">T</text><text xml:space="preserve" font-family="Monaco,Monaco" font-size="30.0" fill="#37DE1B" transform="matrix(1.00, 0.00, -0.00, -1.00, 291.3, 352.5)">i</text><text xml:space="preserve" font-family="Monaco,Monaco" font-size="30.0" fill="#37DE1B" transform="matrix(1.00, 0.00, -0.00, -1.00, 309.3, 352.5)">m</text><text xml:space="preserve" font-family="Monaco,Monaco" font-size="30.0" fill="#37DE1B" transform="matrix(1.00, 0.00, -0.00, -1.00, 327.3, 352.5)">e</text><text xml:space="preserve" font-family="Monaco,Monaco" font-size="30.0" fill="#37DE1B" transform="matrix(1.00, 0.00, -0.00, -1.00, 345.3, 352.5)">:</text><text xml:space="preserve" font-family="Monaco,Monaco" font-size="30.0" fill="#37DE1B" transform="matrix(1.00, 0.00, -0.00, -1.00, 363.3, 352.5)">2</text><text xml:space="preserve" font-family="Monaco,Monaco" font-size="30.0" fill="#37DE1B" transform="matrix(1.00, 0.00, -0.00, -1.00, 381.3, 352.5)">0</text><text xml:space="preserve" font-family="Monaco,Monaco" font-size="30.0" fill="#37DE1B" transform="matrix(1.00, 0.00, -0.00, -1.00, 399.3, 352.5)">1</text><text xml:space="preserve" font-family="Monaco,Monaco" font-size="30.0" fill="#37DE1B" transform="matrix(1.00, 0.00, -0.00, -1.00, 417.3, 352.5)">4</text><text xml:space="preserve" font-family="Monaco,Monaco" font-size="30.0" fill="#37DE1B" transform="matrix(1.00, 0.00, -0.00, -1.00, 435.3, 352.5)">-</text><text xml:space="preserve" font-family="Monaco,Monaco" font-size="30.0" fill="#37DE1B" transform="matrix(1.00, 0.00, -0.00, -1.00, 453.3, 352.5)">0</text><text xml:space="preserve" font-family="Monaco,Monaco" font-size="30.0" fill="#37DE1B" transform="matrix(1.00, 0.00, -0.00, -1.00, 471.3, 352.5)">7</text><text xml:space="preserve" font-family="Monaco,Monaco" font-size="30.0" fill="#37DE1B" transform="matrix(1.00, 0.00, -0.00, -1.00, 489.3, 352.5)">-</text><text xml:space="preserve" font-family="Monaco,Monaco" font-size="30.0" fill="#37DE1B" transform="matrix(1.00, 0.00, -0.00, -1.00, 507.3, 352.5)">0</text><text xml:space="preserve" font-family="Monaco,Monaco" font-size="30.0" fill="#37DE1B" transform="matrix(1.00, 0.00, -0.00, -1.00, 525.3, 352.5)">5</text><text xml:space="preserve" font-family="Monaco,Monaco" font-size="30.0" fill="#37DE1B" transform="matrix(1.00, 0.00, -0.00, -1.00, 543.3, 352.5)"> </text><text xml:space="preserve" font-family="Monaco,Monaco" font-size="30.0" fill="#37DE1B" transform="matrix(1.00, 0.00, -0.00, -1.00, 561.3, 352.5)">1</text><text xml:space="preserve" font-family="Monaco,Monaco" font-size="30.0" fill="#37DE1B" transform="matrix(1.00, 0.00, -0.00, -1.00, 579.3, 352.5)">0</text><text xml:space="preserve" font-family="Monaco,Monaco" font-size="30.0" fill="#37DE1B" transform="matrix(1.00, 0.00, -0.00, -1.00, 597.4, 352.5)">:</text><text xml:space="preserve" font-family="Monaco,Monaco" font-size="30.0" fill="#37DE1B" transform="matrix(1.00, 0.00, -0.00, -1.00, 615.4, 352.5)">3</text><text xml:space="preserve" font-family="Monaco,Monaco" font-size="30.0" fill="#37DE1B" transform="matrix(1.00, 0.00, -0.00, -1.00, 633.4, 352.5)">4</text><text xml:space="preserve" font-family="Monaco,Monaco" font-size="30.0" fill="#37DE1B" transform="matrix(1.00, 0.00, -0.00, -1.00, 651.4, 352.5)">:</text><text xml:space="preserve" font-family="Monaco,Monaco" font-size="30.0" fill="#37DE1B" transform="matrix(1.00, 0.00, -0.00, -1.00, 669.4, 352.5)">1</text><text xml:space="preserve" font-family="Monaco,Monaco" font-size="30.0" fill="#37DE1B" transform="matrix(1.00, 0.00, -0.00, -1.00, 687.4, 352.5)">6</text><text xml:space="preserve" font-family="Monaco,Monaco" font-size="30.0" fill="#37DE1B" transform="matrix(1.00, 0.00, -0.00, -1.00, 705.4, 352.5)"> </text><text xml:space="preserve" font-family="Monaco,Monaco" font-size="30.0" fill="#37DE1B" transform="matrix(1.00, 0.00, -0.00, -1.00, 723.4, 352.5)">F</text><text xml:space="preserve" font-family="Monaco,Monaco" font-size="30.0" fill="#37DE1B" transform="matrix(1.00, 0.00, -0.00, -1.00, 741.4, 352.5)">a</text><text xml:space="preserve" font-family="Monaco,Monaco" font-size="30.0" fill="#37DE1B" transform="matrix(1.00, 0.00, -0.00, -1.00, 759.4, 352.5)">i</text><text xml:space="preserve" font-family="Monaco,Monaco" font-size="30.0" fill="#37DE1B" transform="matrix(1.00, 0.00, -0.00, -1.00, 777.4, 352.5)">l</text><text xml:space="preserve" font-family="Monaco,Monaco" font-size="30.0" fill="#37DE1B" transform="matrix(1.00, 0.00, -0.00, -1.00, 795.4, 352.5)">e</text><text xml:space="preserve" font-family="Monaco,Monaco" font-size="30.0" fill="#37DE1B" transform="matrix(1.00, 0.00, -0.00, -1.00, 813.4, 352.5)">d</text><text xml:space="preserve" font-family="Monaco,Monaco" font-size="30.0" fill="#37DE1B" transform="matrix(1.00, 0.00, -0.00, -1.00, 831.4, 352.5)"> </text><text xml:space="preserve" font-family="Monaco,Monaco" font-size="30.0" fill="#37DE1B" transform="matrix(1.00, 0.00, -0.00, -1.00, 849.4, 352.5)">t</text><text xml:space="preserve" font-family="Monaco,Monaco" font-size="30.0" fill="#37DE1B" transform="matrix(1.00, 0.00, -0.00, -1.00, 867.4, 352.5)">o</text><text xml:space="preserve" font-family="Monaco,Monaco" font-size="30.0" fill="#37DE1B" transform="matrix(1.00, 0.00, -0.00, -1.00, 885.4, 352.5)"> </text><text xml:space="preserve" font-family="Monaco,Monaco" font-size="30.0" fill="#37DE1B" transform="matrix(1.00, 0.00, -0.00, -1.00, 903.5, 352.5)">s</text><text xml:space="preserve" font-family="Monaco,Monaco" font-size="30.0" fill="#37DE1B" transform="matrix(1.00, 0.00, -0.00, -1.00, 921.5, 352.5)">e</text><text xml:space="preserve" font-family="Monaco,Monaco" font-size="30.0" fill="#37DE1B" transform="matrix(1.00, 0.00, -0.00, -1.00, 939.5, 352.5)">t</text><text xml:space="preserve" font-family="Monaco,Monaco" font-size="30.0" fill="#37DE1B" transform="matrix(1.00, 0.00, -0.00, -1.00, 957.5, 352.5)"> </text><text xml:space="preserve" font-family="Monaco,Monaco" font-size="30.0" fill="#37DE1B" transform="matrix(1.00, 0.00, -0.00, -1.00, 57.2, 311.5)">i</text><text xml:space="preserve" font-family="Monaco,Monaco" font-size="30.0" fill="#37DE1B" transform="matrix(1.00, 0.00, -0.00, -1.00, 75.2, 311.5)">t</text><text xml:space="preserve" font-family="Monaco,Monaco" font-size="30.0" fill="#37DE1B" transform="matrix(1.00, 0.00, -0.00, -1.00, 93.2, 311.5)">!</text><text xml:space="preserve" font-family="Monaco,Monaco" font-size="30.0" fill="#37DE1B" transform="matrix(1.00, 0.00, -0.00, -1.00, 111.2, 311.5)"> </text><text xml:space="preserve" font-family="Monaco,Monaco" font-size="30.0" fill="#37DE1B" transform="matrix(1.00, 0.00, -0.00, -1.00, 129.2, 311.5)">E</text><text xml:space="preserve" font-family="Monaco,Monaco" font-size="30.0" fill="#37DE1B" transform="matrix(1.00, 0.00, -0.00, -1.00, 147.2, 311.5)">x</text><text xml:space="preserve" font-family="Monaco,Monaco" font-size="30.0" fill="#37DE1B" transform="matrix(1.00, 0.00, -0.00, -1.00, 165.2, 311.5)">i</text><text xml:space="preserve" font-family="Monaco,Monaco" font-size="30.0" fill="#37DE1B" transform="matrix(1.00, 0.00, -0.00, -1.00, 183.2, 311.5)">t</text><text xml:space="preserve" font-family="Monaco,Monaco" font-size="30.0" fill="#37DE1B" transform="matrix(1.00, 0.00, -0.00, -1.00, 201.2, 311.5)">:</text><text xml:space="preserve" font-family="Monaco,Monaco" font-size="30.0" fill="#37DE1B" transform="matrix(1.00, 0.00, -0.00, -1.00, 219.2, 311.5)"> </text><text xml:space="preserve" font-family="Monaco,Monaco" font-size="30.0" fill="#37DE1B" transform="matrix(1.00, 0.00, -0.00, -1.00, 237.2, 311.5)">1</text><text xml:space="preserve" font-family="Monaco,Monaco" font-size="30.0" fill="#37DE1B" transform="matrix(1.00, 0.00, -0.00, -1.00, 255.2, 311.5)">2</text><text xml:space="preserve" font-family="Monaco,Monaco" font-size="30.0" fill="#37DE1B" transform="matrix(1.00, 0.00, -0.00, -1.00, 273.2, 311.5)">	</text><text xml:space="preserve" font-family="Monaco,Monaco" font-size="30.0" fill="#37DE1B" transform="matrix(1.00, 0.00, -0.00, -1.00, 57.2, 229.5)">$</text><text xml:space="preserve" font-family="Monaco,Monaco" font-size="30.0" fill="#37DE1B" transform="matrix(1.00, 0.00, -0.00, -1.00, 75.2, 229.5)"> </text><text xml:space="preserve" font-family="Monaco,Monaco" font-size="30.0" fill="#37DE1B" transform="matrix(1.00, 0.00, -0.00, -1.00, 93.2, 229.5)">e</text><text xml:space="preserve" font-family="Monaco,Monaco" font-size="30.0" fill="#37DE1B" transform="matrix(1.00, 0.00, -0.00, -1.00, 111.2, 229.5)">c</text><text xml:space="preserve" font-family="Monaco,Monaco" font-size="30.0" fill="#37DE1B" transform="matrix(1.00, 0.00, -0.00, -1.00, 129.2, 229.5)">h</text><text xml:space="preserve" font-family="Monaco,Monaco" font-size="30.0" fill="#37DE1B" transform="matrix(1.00, 0.00, -0.00, -1.00, 147.2, 229.5)">o</text><text xml:space="preserve" font-family="Monaco,Monaco" font-size="30.0" fill="#37DE1B" transform="matrix(1.00, 0.00, -0.00, -1.00, 165.2, 229.5)"> </text><text xml:space="preserve" font-family="Monaco,Monaco" font-size="30.0" fill="#37DE1B" transform="matrix(1.00, 0.00, -0.00, -1.00, 183.2, 229.5)">$</text><text xml:space="preserve" font-family="Monaco,Monaco" font-size="30.0" fill="#37DE1B" transform="matrix(1.00, 0.00, -0.00, -1.00, 201.2, 229.5)">?</text><text xml:space="preserve" font-family="Monaco,Monaco" font-size="30.0" fill="#37DE1B" transform="matrix(1.00, 0.00, -0.00, -1.00, 219.2, 229.5)">	</text><text xml:space="preserve" font-family="Monaco,Monaco" font-size="30.0" fill="#37DE1B" transform="matrix(1.00, 0.00, -0.00, -1.00, 57.2, 188.5)">1</text><text xml:space="preserve" font-family="Monaco,Monaco" font-size="30.0" fill="#37DE1B" transform="matrix(1.00, 0.00, -0.00, -1.00, 75.2, 188.5)">2</text></g></svg>