<?xml version="1.0" encoding="UTF-8" standalone="no"?><svg xmlns="http://www.w3.org/2000/svg" xmlns:xlink="http://www.w3.org/1999/xlink" clip-rule="evenodd" stroke-miterlimit="10" viewBox="0 0 1024 768"><desc>SVG generated by Keynote</desc><defs></defs><g transform="matrix(1.00, 0.00, -0.00, -1.00, 0.0, 768.0)"><path d="M 0.0 768.0 L 1024.0 768.0 L 1024.0 0.0 L 0.0 0.0 Z M 0.0 768.0 " fill="#002451"></path><text xml:space="preserve" font-family="LucidaGrande,Lucida Grande" font-size="22.0" fill="#FEFFFE" transform="matrix(1.00, 0.00, -0.00, -1.00, 332.4, 11.6)">F</text><text xml:space="preserve" font-family="LucidaGrande,Lucida Grande" font-size="22.0" fill="#FEFFFE" transform="matrix(1.00, 0.00, -0.00, -1.00, 344.2, 11.6)">e</text><text xml:space="preserve" font-family="LucidaGrande,Lucida Grande" font-size="22.0" fill="#FEFFFE" transform="matrix(1.00, 0.00, -0.00, -1.00, 356.4, 11.6)">e</text><text xml:space="preserve" font-family="LucidaGrande,Lucida Grande" font-size="22.0" fill="#FEFFFE" transform="matrix(1.00, 0.00, -0.00, -1.00, 368.7, 11.6)">d</text><text xml:space="preserve" font-family="LucidaGrande,Lucida Grande" font-size="22.0" fill="#FEFFFE" transform="matrix(1.00, 0.00, -0.00, -1.00, 382.5, 11.6)">b</text><text xml:space="preserve" font-family="LucidaGrande,Lucida Grande" font-size="22.0" fill="#FEFFFE" transform="matrix(1.00, 0.00, -0.00, -1.00, 396.4, 11.6)">a</text><text xml:space="preserve" font-family="LucidaGrande,Lucida Grande" font-size="22.0" fill="#FEFFFE" transform="matrix(1.00, 0.00, -0.00, -1.00, 408.5, 11.6)">c</text><text xml:space="preserve" font-family="LucidaGrande,Lucida Grande" font-size="22.0" fill="#FEFFFE" transform="matrix(1.00, 0.00, -0.00, -1.00, 419.8, 11.6)">k</text><text xml:space="preserve" font-family="LucidaGrande,Lucida Grande" font-size="22.0" fill="#FEFFFE" transform="matrix(1.00, 0.00, -0.00, -1.00, 432.7, 11.6)">:</text><text xml:space="preserve" font-family="LucidaGrande,Lucida Grande" font-size="22.0" fill="#FEFFFE" transform="matrix(1.00, 0.00, -0.00, -1.00, 439.6, 11.6)"> </text><text xml:space="preserve" font-family="LucidaGrande,Lucida Grande" font-size="22.0" fill="#FEFFFE" transform="matrix(1.00, 0.00, -0.00, -1.00, 446.6, 11.6)">h</text><text xml:space="preserve" font-family="LucidaGrande,Lucida Grande" font-size="22.0" fill="#FEFFFE" transform="matrix(1.00, 0.00, -0.00, -1.00, 460.2, 11.6)">t</text><text xml:space="preserve" font-family="LucidaGrande,Lucida Grande" font-size="22.0" fill="#FEFFFE" transform="matrix(1.00, 0.00, -0.00, -1.00, 468.4, 11.6)">t</text><text xml:space="preserve" font-family="LucidaGrande,Lucida Grande" font-size="22.0" fill="#FEFFFE" transform="matrix(1.00, 0.00, -0.00, -1.00, 476.7, 11.6)">p</text><text xml:space="preserve" font-family="LucidaGrande,Lucida Grande" font-size="22.0" fill="#FEFFFE" transform="matrix(1.00, 0.00, -0.00, -1.00, 490.5, 11.6)">:</text><text xml:space="preserve" font-family="LucidaGrande,Lucida Grande" font-size="22.0" fill="#FEFFFE" transform="matrix(1.00, 0.00, -0.00, -1.00, 497.5, 11.6)">/</text><text xml:space="preserve" font-family="LucidaGrande,Lucida Grande" font-size="22.0" fill="#FEFFFE" transform="matrix(1.00, 0.00, -0.00, -1.00, 509.0, 11.6)">/</text><text xml:space="preserve" font-family="LucidaGrande,Lucida Grande" font-size="22.0" fill="#FEFFFE" transform="matrix(1.00, 0.00, -0.00, -1.00, 520.6, 11.6)">j</text><text xml:space="preserve" font-family="LucidaGrande,Lucida Grande" font-size="22.0" fill="#FEFFFE" transform="matrix(1.00, 0.00, -0.00, -1.00, 527.3, 11.6)">.</text><text xml:space="preserve" font-family="LucidaGrande,Lucida Grande" font-size="22.0" fill="#FEFFFE" transform="matrix(1.00, 0.00, -0.00, -1.00, 534.3, 11.6)">m</text><text xml:space="preserve" font-family="LucidaGrande,Lucida Grande" font-size="22.0" fill="#FEFFFE" transform="matrix(1.00, 0.00, -0.00, -1.00, 554.8, 11.6)">p</text><text xml:space="preserve" font-family="LucidaGrande,Lucida Grande" font-size="22.0" fill="#FEFFFE" transform="matrix(1.00, 0.00, -0.00, -1.00, 568.6, 11.6)">/</text><text xml:space="preserve" font-family="LucidaGrande,Lucida Grande" font-size="22.0" fill="#FEFFFE" transform="matrix(1.00, 0.00, -0.00, -1.00, 580.2, 11.6)">p</text><text xml:space="preserve" font-family="LucidaGrande,Lucida Grande" font-size="22.0" fill="#FEFFFE" transform="matrix(1.00, 0.00, -0.00, -1.00, 594.0, 11.6)">s</text><text xml:space="preserve" font-family="LucidaGrande,Lucida Grande" font-size="22.0" fill="#FEFFFE" transform="matrix(1.00, 0.00, -0.00, -1.00, 605.3, 11.6)">u</text><text xml:space="preserve" font-family="LucidaGrande,Lucida Grande" font-size="22.0" fill="#FEFFFE" transform="matrix(1.00, 0.00, -0.00, -1.00, 618.9, 11.6)">m</text><text xml:space="preserve" font-family="LucidaGrande,Lucida Grande" font-size="22.0" fill="#FEFFFE" transform="matrix(1.00, 0.00, -0.00, -1.00, 639.4, 11.6)">a</text><text xml:space="preserve" font-family="LucidaGrande,Lucida Grande" font-size="22.0" fill="#FEFFFE" transform="matrix(1.00, 0.00, -0.00, -1.00, 651.6, 11.6)">c</text><text xml:space="preserve" font-family="LucidaGrande,Lucida Grande" font-size="22.0" fill="#FEFFFE" transform="matrix(1.00, 0.00, -0.00, -1.00, 662.9, 11.6)">1</text><text xml:space="preserve" font-family="LucidaGrande,Lucida Grande" font-size="22.0" fill="#FEFFFE" transform="matrix(1.00, 0.00, -0.00, -1.00, 676.8, 11.6)">3</text><text xml:space="preserve" font-family="Monaco,Monaco" font-size="84.0" fill="#FEFFFF" transform="matrix(1.00, 0.00, -0.00, -1.00, 335.6, 620.0)">T</text><text xml:space="preserve" font-family="Monaco,Monaco" font-size="84.0" fill="#FEFFFF" transform="matrix(1.00, 0.00, -0.00, -1.00, 386.0, 620.0)">r</text><text xml:space="preserve" font-family="Monaco,Monaco" font-size="84.0" fill="#FEFFFF" transform="matrix(1.00, 0.00, -0.00, -1.00, 436.4, 620.0)">y</text><text xml:space="preserve" font-family="Monaco,Monaco" font-size="84.0" fill="#FEFFFF" transform="matrix(1.00, 0.00, -0.00, -1.00, 486.8, 620.0)"> </text><text xml:space="preserve" font-family="Monaco,Monaco" font-size="84.0" fill="#FEFFFF" transform="matrix(1.00, 0.00, -0.00, -1.00, 537.2, 620.0)">I</text><text xml:space="preserve" font-family="Monaco,Monaco" font-size="84.0" fill="#FEFFFF" transform="matrix(1.00, 0.00, -0.00, -1.00, 587.7, 620.0)">t</text><text xml:space="preserve" font-family="Monaco,Monaco" font-size="84.0" fill="#FEFFFF" transform="matrix(1.00, 0.00, -0.00, -1.00, 638.1, 620.0)">!</text><text xml:space="preserve" font-family="Monaco,Monaco" font-size="42.0" fill="#FEFFFF" transform="matrix(1.00, 0.00, -0.00, -1.00, 129.0, 499.0)">•</text><text xml:space="preserve" font-family="Monaco,Monaco" font-size="42.0" fill="#FEFFFF" transform="matrix(1.00, 0.00, -0.00, -1.00, 174.0, 499.0)">O</text><text xml:space="preserve" font-family="Monaco,Monaco" font-size="42.0" fill="#FEFFFF" transform="matrix(1.00, 0.00, -0.00, -1.00, 199.2, 499.0)">p</text><text xml:space="preserve" font-family="Monaco,Monaco" font-size="42.0" fill="#FEFFFF" transform="matrix(1.00, 0.00, -0.00, -1.00, 224.4, 499.0)">e</text><text xml:space="preserve" font-family="Monaco,Monaco" font-size="42.0" fill="#FEFFFF" transform="matrix(1.00, 0.00, -0.00, -1.00, 249.6, 499.0)">n</text><text xml:space="preserve" font-family="Monaco,Monaco" font-size="42.0" fill="#FEFFFF" transform="matrix(1.00, 0.00, -0.00, -1.00, 274.8, 499.0)"> </text><text xml:space="preserve" font-family="Monaco,Monaco" font-size="42.0" fill="#FEFFFF" transform="matrix(1.00, 0.00, -0.00, -1.00, 300.0, 499.0)">T</text><text xml:space="preserve" font-family="Monaco,Monaco" font-size="42.0" fill="#FEFFFF" transform="matrix(1.00, 0.00, -0.00, -1.00, 325.2, 499.0)">e</text><text xml:space="preserve" font-family="Monaco,Monaco" font-size="42.0" fill="#FEFFFF" transform="matrix(1.00, 0.00, -0.00, -1.00, 350.5, 499.0)">r</text><text xml:space="preserve" font-family="Monaco,Monaco" font-size="42.0" fill="#FEFFFF" transform="matrix(1.00, 0.00, -0.00, -1.00, 375.7, 499.0)">m</text><text xml:space="preserve" font-family="Monaco,Monaco" font-size="42.0" fill="#FEFFFF" transform="matrix(1.00, 0.00, -0.00, -1.00, 400.9, 499.0)">i</text><text xml:space="preserve" font-family="Monaco,Monaco" font-size="42.0" fill="#FEFFFF" transform="matrix(1.00, 0.00, -0.00, -1.00, 426.1, 499.0)">n</text><text xml:space="preserve" font-family="Monaco,Monaco" font-size="42.0" fill="#FEFFFF" transform="matrix(1.00, 0.00, -0.00, -1.00, 451.3, 499.0)">a</text><text xml:space="preserve" font-family="Monaco,Monaco" font-size="42.0" fill="#FEFFFF" transform="matrix(1.00, 0.00, -0.00, -1.00, 476.5, 499.0)">l</text><text xml:space="preserve" font-family="Monaco,Monaco" font-size="42.0" fill="#FEFFFF" transform="matrix(1.00, 0.00, -0.00, -1.00, 501.7, 499.0)">.</text><text xml:space="preserve" font-family="Monaco,Monaco" font-size="42.0" fill="#FEFFFF" transform="matrix(1.00, 0.00, -0.00, -1.00, 526.9, 499.0)">a</text><text xml:space="preserve" font-family="Monaco,Monaco" font-size="42.0" fill="#FEFFFF" transform="matrix(1.00, 0.00, -0.00, -1.00, 552.1, 499.0)">p</text><text xml:space="preserve" font-family="Monaco,Monaco" font-size="42.0" fill="#FEFFFF" transform="matrix(1.00, 0.00, -0.00, -1.00, 577.3, 499.0)">p</text><text xml:space="preserve" font-family="Monaco,Monaco" font-size="42.0" fill="#FEFFFF" transform="matrix(1.00, 0.00, -0.00, -1.00, 602.5, 499.0)">	</text><text xml:space="preserve" font-family="Monaco,Monaco" font-size="42.0" fill="#FEFFFF" transform="matrix(1.00, 0.00, -0.00, -1.00, 129.0, 418.0)">•</text><text xml:space="preserve" font-family="Monaco,Monaco" font-size="42.0" fill="#FEFFFF" transform="matrix(1.00, 0.00, -0.00, -1.00, 174.0, 418.0)">m</text><text xml:space="preserve" font-family="Monaco,Monaco" font-size="42.0" fill="#FEFFFF" transform="matrix(1.00, 0.00, -0.00, -1.00, 199.2, 418.0)">a</text><text xml:space="preserve" font-family="Monaco,Monaco" font-size="42.0" fill="#FEFFFF" transform="matrix(1.00, 0.00, -0.00, -1.00, 224.4, 418.0)">n</text><text xml:space="preserve" font-family="Monaco,Monaco" font-size="42.0" fill="#FEFFFF" transform="matrix(1.00, 0.00, -0.00, -1.00, 249.6, 418.0)">,</text><text xml:space="preserve" font-family="Monaco,Monaco" font-size="42.0" fill="#FEFFFF" transform="matrix(1.00, 0.00, -0.00, -1.00, 274.8, 418.0)"> </text><text xml:space="preserve" font-family="Monaco,Monaco" font-size="42.0" fill="#FEFFFF" transform="matrix(1.00, 0.00, -0.00, -1.00, 300.0, 418.0)">p</text><text xml:space="preserve" font-family="Monaco,Monaco" font-size="42.0" fill="#FEFFFF" transform="matrix(1.00, 0.00, -0.00, -1.00, 325.2, 418.0)">w</text><text xml:space="preserve" font-family="Monaco,Monaco" font-size="42.0" fill="#FEFFFF" transform="matrix(1.00, 0.00, -0.00, -1.00, 350.5, 418.0)">d</text><text xml:space="preserve" font-family="Monaco,Monaco" font-size="42.0" fill="#FEFFFF" transform="matrix(1.00, 0.00, -0.00, -1.00, 375.7, 418.0)">,</text><text xml:space="preserve" font-family="Monaco,Monaco" font-size="42.0" fill="#FEFFFF" transform="matrix(1.00, 0.00, -0.00, -1.00, 400.9, 418.0)"> </text><text xml:space="preserve" font-family="Monaco,Monaco" font-size="42.0" fill="#FEFFFF" transform="matrix(1.00, 0.00, -0.00, -1.00, 426.1, 418.0)">c</text><text xml:space="preserve" font-family="Monaco,Monaco" font-size="42.0" fill="#FEFFFF" transform="matrix(1.00, 0.00, -0.00, -1.00, 451.3, 418.0)">a</text><text xml:space="preserve" font-family="Monaco,Monaco" font-size="42.0" fill="#FEFFFF" transform="matrix(1.00, 0.00, -0.00, -1.00, 476.5, 418.0)">t</text><text xml:space="preserve" font-family="Monaco,Monaco" font-size="42.0" fill="#FEFFFF" transform="matrix(1.00, 0.00, -0.00, -1.00, 501.7, 418.0)">,</text><text xml:space="preserve" font-family="Monaco,Monaco" font-size="42.0" fill="#FEFFFF" transform="matrix(1.00, 0.00, -0.00, -1.00, 526.9, 418.0)"> </text><text xml:space="preserve" font-family="Monaco,Monaco" font-size="42.0" fill="#FEFFFF" transform="matrix(1.00, 0.00, -0.00, -1.00, 552.1, 418.0)">s</text><text xml:space="preserve" font-family="Monaco,Monaco" font-size="42.0" fill="#FEFFFF" transform="matrix(1.00, 0.00, -0.00, -1.00, 577.3, 418.0)">l</text><text xml:space="preserve" font-family="Monaco,Monaco" font-size="42.0" fill="#FEFFFF" transform="matrix(1.00, 0.00, -0.00, -1.00, 602.5, 418.0)">e</text><text xml:space="preserve" font-family="Monaco,Monaco" font-size="42.0" fill="#FEFFFF" transform="matrix(1.00, 0.00, -0.00, -1.00, 627.7, 418.0)">e</text><text xml:space="preserve" font-family="Monaco,Monaco" font-size="42.0" fill="#FEFFFF" transform="matrix(1.00, 0.00, -0.00, -1.00, 653.0, 418.0)">p</text><text xml:space="preserve" font-family="Monaco,Monaco" font-size="42.0" fill="#FEFFFF" transform="matrix(1.00, 0.00, -0.00, -1.00, 678.2, 418.0)">,</text><text xml:space="preserve" font-family="Monaco,Monaco" font-size="42.0" fill="#FEFFFF" transform="matrix(1.00, 0.00, -0.00, -1.00, 703.4, 418.0)"> </text><text xml:space="preserve" font-family="Monaco,Monaco" font-size="42.0" fill="#FEFFFF" transform="matrix(1.00, 0.00, -0.00, -1.00, 728.6, 418.0)">d</text><text xml:space="preserve" font-family="Monaco,Monaco" font-size="42.0" fill="#FEFFFF" transform="matrix(1.00, 0.00, -0.00, -1.00, 753.8, 418.0)">a</text><text xml:space="preserve" font-family="Monaco,Monaco" font-size="42.0" fill="#FEFFFF" transform="matrix(1.00, 0.00, -0.00, -1.00, 779.0, 418.0)">t</text><text xml:space="preserve" font-family="Monaco,Monaco" font-size="42.0" fill="#FEFFFF" transform="matrix(1.00, 0.00, -0.00, -1.00, 804.2, 418.0)">e</text><text xml:space="preserve" font-family="Monaco,Monaco" font-size="42.0" fill="#FEFFFF" transform="matrix(1.00, 0.00, -0.00, -1.00, 829.4, 418.0)">,</text><text xml:space="preserve" font-family="Monaco,Monaco" font-size="42.0" fill="#FEFFFF" transform="matrix(1.00, 0.00, -0.00, -1.00, 854.6, 418.0)"> </text><text xml:space="preserve" font-family="Monaco,Monaco" font-size="42.0" fill="#FEFFFF" transform="matrix(1.00, 0.00, -0.00, -1.00, 174.0, 361.0)">h</text><text xml:space="preserve" font-family="Monaco,Monaco" font-size="42.0" fill="#FEFFFF" transform="matrix(1.00, 0.00, -0.00, -1.00, 199.2, 361.0)">e</text><text xml:space="preserve" font-family="Monaco,Monaco" font-size="42.0" fill="#FEFFFF" transform="matrix(1.00, 0.00, -0.00, -1.00, 224.4, 361.0)">l</text><text xml:space="preserve" font-family="Monaco,Monaco" font-size="42.0" fill="#FEFFFF" transform="matrix(1.00, 0.00, -0.00, -1.00, 249.6, 361.0)">p</text><text xml:space="preserve" font-family="Monaco,Monaco" font-size="42.0" fill="#FEFFFF" transform="matrix(1.00, 0.00, -0.00, -1.00, 274.8, 361.0)">,</text><text xml:space="preserve" font-family="Monaco,Monaco" font-size="42.0" fill="#FEFFFF" transform="matrix(1.00, 0.00, -0.00, -1.00, 300.0, 361.0)"> </text><text xml:space="preserve" font-family="Monaco,Monaco" font-size="42.0" fill="#FEFFFF" transform="matrix(1.00, 0.00, -0.00, -1.00, 325.2, 361.0)">c</text><text xml:space="preserve" font-family="Monaco,Monaco" font-size="42.0" fill="#FEFFFF" transform="matrix(1.00, 0.00, -0.00, -1.00, 350.5, 361.0)">d</text><text xml:space="preserve" font-family="Monaco,Monaco" font-size="42.0" fill="#FEFFFF" transform="matrix(1.00, 0.00, -0.00, -1.00, 375.7, 361.0)">,</text><text xml:space="preserve" font-family="Monaco,Monaco" font-size="42.0" fill="#FEFFFF" transform="matrix(1.00, 0.00, -0.00, -1.00, 400.9, 361.0)"> </text><text xml:space="preserve" font-family="Monaco,Monaco" font-size="42.0" fill="#FEFFFF" transform="matrix(1.00, 0.00, -0.00, -1.00, 426.1, 361.0)">h</text><text xml:space="preserve" font-family="Monaco,Monaco" font-size="42.0" fill="#FEFFFF" transform="matrix(1.00, 0.00, -0.00, -1.00, 451.3, 361.0)">i</text><text xml:space="preserve" font-family="Monaco,Monaco" font-size="42.0" fill="#FEFFFF" transform="matrix(1.00, 0.00, -0.00, -1.00, 476.5, 361.0)">s</text><text xml:space="preserve" font-family="Monaco,Monaco" font-size="42.0" fill="#FEFFFF" transform="matrix(1.00, 0.00, -0.00, -1.00, 501.7, 361.0)">t</text><text xml:space="preserve" font-family="Monaco,Monaco" font-size="42.0" fill="#FEFFFF" transform="matrix(1.00, 0.00, -0.00, -1.00, 526.9, 361.0)">o</text><text xml:space="preserve" font-family="Monaco,Monaco" font-size="42.0" fill="#FEFFFF" transform="matrix(1.00, 0.00, -0.00, -1.00, 552.1, 361.0)">r</text><text xml:space="preserve" font-family="Monaco,Monaco" font-size="42.0" fill="#FEFFFF" transform="matrix(1.00, 0.00, -0.00, -1.00, 577.3, 361.0)">y</text><text xml:space="preserve" font-family="Monaco,Monaco" font-size="42.0" fill="#FEFFFF" transform="matrix(1.00, 0.00, -0.00, -1.00, 602.5, 361.0)">,</text><text xml:space="preserve" font-family="Monaco,Monaco" font-size="42.0" fill="#FEFFFF" transform="matrix(1.00, 0.00, -0.00, -1.00, 627.7, 361.0)"> </text><text xml:space="preserve" font-family="Monaco,Monaco" font-size="42.0" fill="#FEFFFF" transform="matrix(1.00, 0.00, -0.00, -1.00, 653.0, 361.0)">!</text><text xml:space="preserve" font-family="Monaco,Monaco" font-size="42.0" fill="#FEFFFF" transform="matrix(1.00, 0.00, -0.00, -1.00, 678.2, 361.0)">!</text><text xml:space="preserve" font-family="Monaco,Monaco" font-size="42.0" fill="#FEFFFF" transform="matrix(1.00, 0.00, -0.00, -1.00, 703.4, 361.0)">,</text><text xml:space="preserve" font-family="Monaco,Monaco" font-size="42.0" fill="#FEFFFF" transform="matrix(1.00, 0.00, -0.00, -1.00, 728.6, 361.0)"> </text><text xml:space="preserve" font-family="Monaco,Monaco" font-size="42.0" fill="#FEFFFF" transform="matrix(1.00, 0.00, -0.00, -1.00, 753.8, 361.0)">c</text><text xml:space="preserve" font-family="Monaco,Monaco" font-size="42.0" fill="#FEFFFF" transform="matrix(1.00, 0.00, -0.00, -1.00, 779.0, 361.0)">l</text><text xml:space="preserve" font-family="Monaco,Monaco" font-size="42.0" fill="#FEFFFF" transform="matrix(1.00, 0.00, -0.00, -1.00, 804.2, 361.0)">e</text><text xml:space="preserve" font-family="Monaco,Monaco" font-size="42.0" fill="#FEFFFF" transform="matrix(1.00, 0.00, -0.00, -1.00, 829.4, 361.0)">a</text><text xml:space="preserve" font-family="Monaco,Monaco" font-size="42.0" fill="#FEFFFF" transform="matrix(1.00, 0.00, -0.00, -1.00, 854.6, 361.0)">r</text><text xml:space="preserve" font-family="Monaco,Monaco" font-size="42.0" fill="#FEFFFF" transform="matrix(1.00, 0.00, -0.00, -1.00, 879.8, 361.0)">	</text><text xml:space="preserve" font-family="Monaco,Monaco" font-size="42.0" fill="#FEFFFF" transform="matrix(1.00, 0.00, -0.00, -1.00, 129.0, 280.0)">•</text><text xml:space="preserve" font-family="Monaco,Monaco" font-size="42.0" fill="#FEFFFF" transform="matrix(1.00, 0.00, -0.00, -1.00, 174.0, 280.0)">U</text><text xml:space="preserve" font-family="Monaco,Monaco" font-size="42.0" fill="#FEFFFF" transform="matrix(1.00, 0.00, -0.00, -1.00, 199.2, 280.0)">p</text><text xml:space="preserve" font-family="Monaco,Monaco" font-size="42.0" fill="#FEFFFF" transform="matrix(1.00, 0.00, -0.00, -1.00, 224.4, 280.0)"> </text><text xml:space="preserve" font-family="Monaco,Monaco" font-size="42.0" fill="#FEFFFF" transform="matrix(1.00, 0.00, -0.00, -1.00, 249.6, 280.0)">a</text><text xml:space="preserve" font-family="Monaco,Monaco" font-size="42.0" fill="#FEFFFF" transform="matrix(1.00, 0.00, -0.00, -1.00, 274.8, 280.0)">r</text><text xml:space="preserve" font-family="Monaco,Monaco" font-size="42.0" fill="#FEFFFF" transform="matrix(1.00, 0.00, -0.00, -1.00, 300.0, 280.0)">r</text><text xml:space="preserve" font-family="Monaco,Monaco" font-size="42.0" fill="#FEFFFF" transform="matrix(1.00, 0.00, -0.00, -1.00, 325.2, 280.0)">o</text><text xml:space="preserve" font-family="Monaco,Monaco" font-size="42.0" fill="#FEFFFF" transform="matrix(1.00, 0.00, -0.00, -1.00, 350.5, 280.0)">w</text><text xml:space="preserve" font-family="Monaco,Monaco" font-size="42.0" fill="#FEFFFF" transform="matrix(1.00, 0.00, -0.00, -1.00, 375.7, 280.0)"> </text><text xml:space="preserve" font-family="Monaco,Monaco" font-size="42.0" fill="#FEFFFF" transform="matrix(1.00, 0.00, -0.00, -1.00, 400.9, 280.0)">t</text><text xml:space="preserve" font-family="Monaco,Monaco" font-size="42.0" fill="#FEFFFF" transform="matrix(1.00, 0.00, -0.00, -1.00, 426.1, 280.0)">h</text><text xml:space="preserve" font-family="Monaco,Monaco" font-size="42.0" fill="#FEFFFF" transform="matrix(1.00, 0.00, -0.00, -1.00, 451.3, 280.0)">r</text><text xml:space="preserve" font-family="Monaco,Monaco" font-size="42.0" fill="#FEFFFF" transform="matrix(1.00, 0.00, -0.00, -1.00, 476.5, 280.0)">o</text><text xml:space="preserve" font-family="Monaco,Monaco" font-size="42.0" fill="#FEFFFF" transform="matrix(1.00, 0.00, -0.00, -1.00, 501.7, 280.0)">u</text><text xml:space="preserve" font-family="Monaco,Monaco" font-size="42.0" fill="#FEFFFF" transform="matrix(1.00, 0.00, -0.00, -1.00, 526.9, 280.0)">g</text><text xml:space="preserve" font-family="Monaco,Monaco" font-size="42.0" fill="#FEFFFF" transform="matrix(1.00, 0.00, -0.00, -1.00, 552.1, 280.0)">h</text><text xml:space="preserve" font-family="Monaco,Monaco" font-size="42.0" fill="#FEFFFF" transform="matrix(1.00, 0.00, -0.00, -1.00, 577.3, 280.0)"> </text><text xml:space="preserve" font-family="Monaco,Monaco" font-size="42.0" fill="#FEFFFF" transform="matrix(1.00, 0.00, -0.00, -1.00, 602.5, 280.0)">H</text><text xml:space="preserve" font-family="Monaco,Monaco" font-size="42.0" fill="#FEFFFF" transform="matrix(1.00, 0.00, -0.00, -1.00, 627.7, 280.0)">i</text><text xml:space="preserve" font-family="Monaco,Monaco" font-size="42.0" fill="#FEFFFF" transform="matrix(1.00, 0.00, -0.00, -1.00, 653.0, 280.0)">s</text><text xml:space="preserve" font-family="Monaco,Monaco" font-size="42.0" fill="#FEFFFF" transform="matrix(1.00, 0.00, -0.00, -1.00, 678.2, 280.0)">t</text><text xml:space="preserve" font-family="Monaco,Monaco" font-size="42.0" fill="#FEFFFF" transform="matrix(1.00, 0.00, -0.00, -1.00, 703.4, 280.0)">o</text><text xml:space="preserve" font-family="Monaco,Monaco" font-size="42.0" fill="#FEFFFF" transform="matrix(1.00, 0.00, -0.00, -1.00, 728.6, 280.0)">r</text><text xml:space="preserve" font-family="Monaco,Monaco" font-size="42.0" fill="#FEFFFF" transform="matrix(1.00, 0.00, -0.00, -1.00, 753.8, 280.0)">y</text><text xml:space="preserve" font-family="Monaco,Monaco" font-size="42.0" fill="#FEFFFF" transform="matrix(1.00, 0.00, -0.00, -1.00, 779.0, 280.0)">	</text><text xml:space="preserve" font-family="Monaco,Monaco" font-size="42.0" fill="#FEFFFF" transform="matrix(1.00, 0.00, -0.00, -1.00, 129.0, 199.0)">•</text><text xml:space="preserve" font-family="Monaco,Monaco" font-size="42.0" fill="#FEFFFF" transform="matrix(1.00, 0.00, -0.00, -1.00, 174.0, 199.0)">M</text><text xml:space="preserve" font-family="Monaco,Monaco" font-size="42.0" fill="#FEFFFF" transform="matrix(1.00, 0.00, -0.00, -1.00, 199.2, 199.0)">o</text><text xml:space="preserve" font-family="Monaco,Monaco" font-size="42.0" fill="#FEFFFF" transform="matrix(1.00, 0.00, -0.00, -1.00, 224.4, 199.0)">v</text><text xml:space="preserve" font-family="Monaco,Monaco" font-size="42.0" fill="#FEFFFF" transform="matrix(1.00, 0.00, -0.00, -1.00, 249.6, 199.0)">e</text><text xml:space="preserve" font-family="Monaco,Monaco" font-size="42.0" fill="#FEFFFF" transform="matrix(1.00, 0.00, -0.00, -1.00, 274.8, 199.0)"> </text><text xml:space="preserve" font-family="Monaco,Monaco" font-size="42.0" fill="#FEFFFF" transform="matrix(1.00, 0.00, -0.00, -1.00, 300.0, 199.0)">t</text><text xml:space="preserve" font-family="Monaco,Monaco" font-size="42.0" fill="#FEFFFF" transform="matrix(1.00, 0.00, -0.00, -1.00, 325.2, 199.0)">o</text><text xml:space="preserve" font-family="Monaco,Monaco" font-size="42.0" fill="#FEFFFF" transform="matrix(1.00, 0.00, -0.00, -1.00, 350.5, 199.0)"> </text><text xml:space="preserve" font-family="Monaco,Monaco" font-size="42.0" fill="#FEFFFF" transform="matrix(1.00, 0.00, -0.00, -1.00, 375.7, 199.0)">E</text><text xml:space="preserve" font-family="Monaco,Monaco" font-size="42.0" fill="#FEFFFF" transform="matrix(1.00, 0.00, -0.00, -1.00, 400.9, 199.0)">n</text><text xml:space="preserve" font-family="Monaco,Monaco" font-size="42.0" fill="#FEFFFF" transform="matrix(1.00, 0.00, -0.00, -1.00, 426.1, 199.0)">d</text><text xml:space="preserve" font-family="Monaco,Monaco" font-size="42.0" fill="#FEFFFF" transform="matrix(1.00, 0.00, -0.00, -1.00, 451.3, 199.0)"> </text><text xml:space="preserve" font-family="Monaco,Monaco" font-size="42.0" fill="#FEFFFF" transform="matrix(1.00, 0.00, -0.00, -1.00, 476.5, 199.0)">o</text><text xml:space="preserve" font-family="Monaco,Monaco" font-size="42.0" fill="#FEFFFF" transform="matrix(1.00, 0.00, -0.00, -1.00, 501.7, 199.0)">f</text><text xml:space="preserve" font-family="Monaco,Monaco" font-size="42.0" fill="#FEFFFF" transform="matrix(1.00, 0.00, -0.00, -1.00, 526.9, 199.0)"> </text><text xml:space="preserve" font-family="Monaco,Monaco" font-size="42.0" fill="#FEFFFF" transform="matrix(1.00, 0.00, -0.00, -1.00, 552.1, 199.0)">L</text><text xml:space="preserve" font-family="Monaco,Monaco" font-size="42.0" fill="#FEFFFF" transform="matrix(1.00, 0.00, -0.00, -1.00, 577.3, 199.0)">i</text><text xml:space="preserve" font-family="Monaco,Monaco" font-size="42.0" fill="#FEFFFF" transform="matrix(1.00, 0.00, -0.00, -1.00, 602.5, 199.0)">n</text><text xml:space="preserve" font-family="Monaco,Monaco" font-size="42.0" fill="#FEFFFF" transform="matrix(1.00, 0.00, -0.00, -1.00, 627.7, 199.0)">e</text><text xml:space="preserve" font-family="Monaco,Monaco" font-size="42.0" fill="#FEFFFF" transform="matrix(1.00, 0.00, -0.00, -1.00, 653.0, 199.0)">	</text><text xml:space="preserve" font-family="Monaco,Monaco" font-size="42.0" fill="#FEFFFF" transform="matrix(1.00, 0.00, -0.00, -1.00, 129.0, 118.0)">•</text><text xml:space="preserve" font-family="Monaco,Monaco" font-size="42.0" fill="#FEFFFF" transform="matrix(1.00, 0.00, -0.00, -1.00, 174.0, 118.0)">C</text><text xml:space="preserve" font-family="Monaco,Monaco" font-size="42.0" fill="#FEFFFF" transform="matrix(1.00, 0.00, -0.00, -1.00, 199.2, 118.0)">l</text><text xml:space="preserve" font-family="Monaco,Monaco" font-size="42.0" fill="#FEFFFF" transform="matrix(1.00, 0.00, -0.00, -1.00, 224.4, 118.0)">e</text><text xml:space="preserve" font-family="Monaco,Monaco" font-size="42.0" fill="#FEFFFF" transform="matrix(1.00, 0.00, -0.00, -1.00, 249.6, 118.0)">a</text><text xml:space="preserve" font-family="Monaco,Monaco" font-size="42.0" fill="#FEFFFF" transform="matrix(1.00, 0.00, -0.00, -1.00, 274.8, 118.0)">r</text><text xml:space="preserve" font-family="Monaco,Monaco" font-size="42.0" fill="#FEFFFF" transform="matrix(1.00, 0.00, -0.00, -1.00, 300.0, 118.0)"> </text><text xml:space="preserve" font-family="Monaco,Monaco" font-size="42.0" fill="#FEFFFF" transform="matrix(1.00, 0.00, -0.00, -1.00, 325.2, 118.0)">S</text><text xml:space="preserve" font-family="Monaco,Monaco" font-size="42.0" fill="#FEFFFF" transform="matrix(1.00, 0.00, -0.00, -1.00, 350.5, 118.0)">c</text><text xml:space="preserve" font-family="Monaco,Monaco" font-size="42.0" fill="#FEFFFF" transform="matrix(1.00, 0.00, -0.00, -1.00, 375.7, 118.0)">r</text><text xml:space="preserve" font-family="Monaco,Monaco" font-size="42.0" fill="#FEFFFF" transform="matrix(1.00, 0.00, -0.00, -1.00, 400.9, 118.0)">e</text><text xml:space="preserve" font-family="Monaco,Monaco" font-size="42.0" fill="#FEFFFF" transform="matrix(1.00, 0.00, -0.00, -1.00, 426.1, 118.0)">e</text><text xml:space="preserve" font-family="Monaco,Monaco" font-size="42.0" fill="#FEFFFF" transform="matrix(1.00, 0.00, -0.00, -1.00, 451.3, 118.0)">n</text></g></svg>