<?xml version="1.0" encoding="UTF-8" standalone="no"?><svg xmlns="http://www.w3.org/2000/svg" xmlns:xlink="http://www.w3.org/1999/xlink" clip-rule="evenodd" stroke-miterlimit="10" viewBox="0 0 1024 768"><desc>SVG generated by Keynote</desc><defs></defs><g transform="matrix(1.00, 0.00, -0.00, -1.00, 0.0, 768.0)"><path d="M 0.0 768.0 L 1024.0 768.0 L 1024.0 0.0 L 0.0 0.0 Z M 0.0 768.0 " fill="#000000"></path><text xml:space="preserve" font-family="LucidaGrande,Lucida Grande" font-size="22.0" fill="#FEFFFE" transform="matrix(1.00, 0.00, -0.00, -1.00, 332.4, 11.6)">F</text><text xml:space="preserve" font-family="LucidaGrande,Lucida Grande" font-size="22.0" fill="#FEFFFE" transform="matrix(1.00, 0.00, -0.00, -1.00, 344.2, 11.6)">e</text><text xml:space="preserve" font-family="LucidaGrande,Lucida Grande" font-size="22.0" fill="#FEFFFE" transform="matrix(1.00, 0.00, -0.00, -1.00, 356.4, 11.6)">e</text><text xml:space="preserve" font-family="LucidaGrande,Lucida Grande" font-size="22.0" fill="#FEFFFE" transform="matrix(1.00, 0.00, -0.00, -1.00, 368.7, 11.6)">d</text><text xml:space="preserve" font-family="LucidaGrande,Lucida Grande" font-size="22.0" fill="#FEFFFE" transform="matrix(1.00, 0.00, -0.00, -1.00, 382.5, 11.6)">b</text><text xml:space="preserve" font-family="LucidaGrande,Lucida Grande" font-size="22.0" fill="#FEFFFE" transform="matrix(1.00, 0.00, -0.00, -1.00, 396.4, 11.6)">a</text><text xml:space="preserve" font-family="LucidaGrande,Lucida Grande" font-size="22.0" fill="#FEFFFE" transform="matrix(1.00, 0.00, -0.00, -1.00, 408.5, 11.6)">c</text><text xml:space="preserve" font-family="LucidaGrande,Lucida Grande" font-size="22.0" fill="#FEFFFE" transform="matrix(1.00, 0.00, -0.00, -1.00, 419.8, 11.6)">k</text><text xml:space="preserve" font-family="LucidaGrande,Lucida Grande" font-size="22.0" fill="#FEFFFE" transform="matrix(1.00, 0.00, -0.00, -1.00, 432.7, 11.6)">:</text><text xml:space="preserve" font-family="LucidaGrande,Lucida Grande" font-size="22.0" fill="#FEFFFE" transform="matrix(1.00, 0.00, -0.00, -1.00, 439.6, 11.6)"> </text><text xml:space="preserve" font-family="LucidaGrande,Lucida Grande" font-size="22.0" fill="#FEFFFE" transform="matrix(1.00, 0.00, -0.00, -1.00, 446.6, 11.6)">h</text><text xml:space="preserve" font-family="LucidaGrande,Lucida Grande" font-size="22.0" fill="#FEFFFE" transform="matrix(1.00, 0.00, -0.00, -1.00, 460.2, 11.6)">t</text><text xml:space="preserve" font-family="LucidaGrande,Lucida Grande" font-size="22.0" fill="#FEFFFE" transform="matrix(1.00, 0.00, -0.00, -1.00, 468.4, 11.6)">t</text><text xml:space="preserve" font-family="LucidaGrande,Lucida Grande" font-size="22.0" fill="#FEFFFE" transform="matrix(1.00, 0.00, -0.00, -1.00, 476.7, 11.6)">p</text><text xml:space="preserve" font-family="LucidaGrande,Lucida Grande" font-size="22.0" fill="#FEFFFE" transform="matrix(1.00, 0.00, -0.00, -1.00, 490.5, 11.6)">:</text><text xml:space="preserve" font-family="LucidaGrande,Lucida Grande" font-size="22.0" fill="#FEFFFE" transform="matrix(1.00, 0.00, -0.00, -1.00, 497.5, 11.6)">/</text><text xml:space="preserve" font-family="LucidaGrande,Lucida Grande" font-size="22.0" fill="#FEFFFE" transform="matrix(1.00, 0.00, -0.00, -1.00, 509.0, 11.6)">/</text><text xml:space="preserve" font-family="LucidaGrande,Lucida Grande" font-size="22.0" fill="#FEFFFE" transform="matrix(1.00, 0.00, -0.00, -1.00, 520.6, 11.6)">j</text><text xml:space="preserve" font-family="LucidaGrande,Lucida Grande" font-size="22.0" fill="#FEFFFE" transform="matrix(1.00, 0.00, -0.00, -1.00, 527.3, 11.6)">.</text><text xml:space="preserve" font-family="LucidaGrande,Lucida Grande" font-size="22.0" fill="#FEFFFE" transform="matrix(1.00, 0.00, -0.00, -1.00, 534.3, 11.6)">m</text><text xml:space="preserve" font-family="LucidaGrande,Lucida Grande" font-size="22.0" fill="#FEFFFE" transform="matrix(1.00, 0.00, -0.00, -1.00, 554.8, 11.6)">p</text><text xml:space="preserve" font-family="LucidaGrande,Lucida Grande" font-size="22.0" fill="#FEFFFE" transform="matrix(1.00, 0.00, -0.00, -1.00, 568.6, 11.6)">/</text><text xml:space="preserve" font-family="LucidaGrande,Lucida Grande" font-size="22.0" fill="#FEFFFE" transform="matrix(1.00, 0.00, -0.00, -1.00, 580.2, 11.6)">p</text><text xml:space="preserve" font-family="LucidaGrande,Lucida Grande" font-size="22.0" fill="#FEFFFE" transform="matrix(1.00, 0.00, -0.00, -1.00, 594.0, 11.6)">s</text><text xml:space="preserve" font-family="LucidaGrande,Lucida Grande" font-size="22.0" fill="#FEFFFE" transform="matrix(1.00, 0.00, -0.00, -1.00, 605.3, 11.6)">u</text><text xml:space="preserve" font-family="LucidaGrande,Lucida Grande" font-size="22.0" fill="#FEFFFE" transform="matrix(1.00, 0.00, -0.00, -1.00, 618.9, 11.6)">m</text><text xml:space="preserve" font-family="LucidaGrande,Lucida Grande" font-size="22.0" fill="#FEFFFE" transform="matrix(1.00, 0.00, -0.00, -1.00, 639.4, 11.6)">a</text><text xml:space="preserve" font-family="LucidaGrande,Lucida Grande" font-size="22.0" fill="#FEFFFE" transform="matrix(1.00, 0.00, -0.00, -1.00, 651.6, 11.6)">c</text><text xml:space="preserve" font-family="LucidaGrande,Lucida Grande" font-size="22.0" fill="#FEFFFE" transform="matrix(1.00, 0.00, -0.00, -1.00, 662.9, 11.6)">1</text><text xml:space="preserve" font-family="LucidaGrande,Lucida Grande" font-size="22.0" fill="#FEFFFE" transform="matrix(1.00, 0.00, -0.00, -1.00, 676.8, 11.6)">3</text><text xml:space="preserve" font-family="Monaco,Monaco" font-size="84.0" fill="#FEFFFF" transform="matrix(1.00, 0.00, -0.00, -1.00, 335.6, 620.0)">J</text><text xml:space="preserve" font-family="Monaco,Monaco" font-size="84.0" fill="#FEFFFF" transform="matrix(1.00, 0.00, -0.00, -1.00, 386.0, 620.0)">u</text><text xml:space="preserve" font-family="Monaco,Monaco" font-size="84.0" fill="#FEFFFF" transform="matrix(1.00, 0.00, -0.00, -1.00, 436.4, 620.0)">m</text><text xml:space="preserve" font-family="Monaco,Monaco" font-size="84.0" fill="#FEFFFF" transform="matrix(1.00, 0.00, -0.00, -1.00, 486.8, 620.0)">p</text><text xml:space="preserve" font-family="Monaco,Monaco" font-size="84.0" fill="#FEFFFF" transform="matrix(1.00, 0.00, -0.00, -1.00, 537.2, 620.0)"> </text><text xml:space="preserve" font-family="Monaco,Monaco" font-size="84.0" fill="#FEFFFF" transform="matrix(1.00, 0.00, -0.00, -1.00, 587.7, 620.0)">I</text><text xml:space="preserve" font-family="Monaco,Monaco" font-size="84.0" fill="#FEFFFF" transform="matrix(1.00, 0.00, -0.00, -1.00, 638.1, 620.0)">n</text><text xml:space="preserve" font-family="Monaco,Monaco" font-size="38.2" fill="#5EF62C" transform="matrix(1.00, 0.00, -0.00, -1.00, 168.0, 507.7)">h</text><text xml:space="preserve" font-family="Monaco,Monaco" font-size="38.2" fill="#5EF62C" transform="matrix(1.00, 0.00, -0.00, -1.00, 190.9, 507.7)">t</text><text xml:space="preserve" font-family="Monaco,Monaco" font-size="38.2" fill="#5EF62C" transform="matrix(1.00, 0.00, -0.00, -1.00, 213.8, 507.7)">t</text><text xml:space="preserve" font-family="Monaco,Monaco" font-size="38.2" fill="#5EF62C" transform="matrix(1.00, 0.00, -0.00, -1.00, 236.8, 507.7)">p</text><text xml:space="preserve" font-family="Monaco,Monaco" font-size="38.2" fill="#5EF62C" transform="matrix(1.00, 0.00, -0.00, -1.00, 259.7, 507.7)">s</text><text xml:space="preserve" font-family="Monaco,Monaco" font-size="38.2" fill="#5EF62C" transform="matrix(1.00, 0.00, -0.00, -1.00, 282.7, 507.7)">:</text><text xml:space="preserve" font-family="Monaco,Monaco" font-size="38.2" fill="#5EF62C" transform="matrix(1.00, 0.00, -0.00, -1.00, 305.6, 507.7)">/</text><text xml:space="preserve" font-family="Monaco,Monaco" font-size="38.2" fill="#5EF62C" transform="matrix(1.00, 0.00, -0.00, -1.00, 328.5, 507.7)">/</text><text xml:space="preserve" font-family="Monaco,Monaco" font-size="38.2" fill="#5EF62C" transform="matrix(1.00, 0.00, -0.00, -1.00, 351.5, 507.7)">g</text><text xml:space="preserve" font-family="Monaco,Monaco" font-size="38.2" fill="#5EF62C" transform="matrix(1.00, 0.00, -0.00, -1.00, 374.4, 507.7)">i</text><text xml:space="preserve" font-family="Monaco,Monaco" font-size="38.2" fill="#5EF62C" transform="matrix(1.00, 0.00, -0.00, -1.00, 397.4, 507.7)">t</text><text xml:space="preserve" font-family="Monaco,Monaco" font-size="38.2" fill="#5EF62C" transform="matrix(1.00, 0.00, -0.00, -1.00, 420.3, 507.7)">h</text><text xml:space="preserve" font-family="Monaco,Monaco" font-size="38.2" fill="#5EF62C" transform="matrix(1.00, 0.00, -0.00, -1.00, 443.2, 507.7)">u</text><text xml:space="preserve" font-family="Monaco,Monaco" font-size="38.2" fill="#5EF62C" transform="matrix(1.00, 0.00, -0.00, -1.00, 466.2, 507.7)">b</text><text xml:space="preserve" font-family="Monaco,Monaco" font-size="38.2" fill="#5EF62C" transform="matrix(1.00, 0.00, -0.00, -1.00, 489.1, 507.7)">.</text><text xml:space="preserve" font-family="Monaco,Monaco" font-size="38.2" fill="#5EF62C" transform="matrix(1.00, 0.00, -0.00, -1.00, 512.1, 507.7)">c</text><text xml:space="preserve" font-family="Monaco,Monaco" font-size="38.2" fill="#5EF62C" transform="matrix(1.00, 0.00, -0.00, -1.00, 535.0, 507.7)">o</text><text xml:space="preserve" font-family="Monaco,Monaco" font-size="38.2" fill="#5EF62C" transform="matrix(1.00, 0.00, -0.00, -1.00, 557.9, 507.7)">m</text><text xml:space="preserve" font-family="Monaco,Monaco" font-size="38.2" fill="#5EF62C" transform="matrix(1.00, 0.00, -0.00, -1.00, 580.9, 507.7)">/</text><text xml:space="preserve" font-family="Monaco,Monaco" font-size="38.2" fill="#5EF62C" transform="matrix(1.00, 0.00, -0.00, -1.00, 603.8, 507.7)">r</text><text xml:space="preserve" font-family="Monaco,Monaco" font-size="38.2" fill="#5EF62C" transform="matrix(1.00, 0.00, -0.00, -1.00, 626.8, 507.7)">u</text><text xml:space="preserve" font-family="Monaco,Monaco" font-size="38.2" fill="#5EF62C" transform="matrix(1.00, 0.00, -0.00, -1.00, 649.7, 507.7)">s</text><text xml:space="preserve" font-family="Monaco,Monaco" font-size="38.2" fill="#5EF62C" transform="matrix(1.00, 0.00, -0.00, -1.00, 672.6, 507.7)">t</text><text xml:space="preserve" font-family="Monaco,Monaco" font-size="38.2" fill="#5EF62C" transform="matrix(1.00, 0.00, -0.00, -1.00, 695.6, 507.7)">y</text><text xml:space="preserve" font-family="Monaco,Monaco" font-size="38.2" fill="#5EF62C" transform="matrix(1.00, 0.00, -0.00, -1.00, 718.5, 507.7)">m</text><text xml:space="preserve" font-family="Monaco,Monaco" font-size="38.2" fill="#5EF62C" transform="matrix(1.00, 0.00, -0.00, -1.00, 741.5, 507.7)">y</text><text xml:space="preserve" font-family="Monaco,Monaco" font-size="38.2" fill="#5EF62C" transform="matrix(1.00, 0.00, -0.00, -1.00, 764.4, 507.7)">e</text><text xml:space="preserve" font-family="Monaco,Monaco" font-size="38.2" fill="#5EF62C" transform="matrix(1.00, 0.00, -0.00, -1.00, 787.3, 507.7)">r</text><text xml:space="preserve" font-family="Monaco,Monaco" font-size="38.2" fill="#5EF62C" transform="matrix(1.00, 0.00, -0.00, -1.00, 810.3, 507.7)">s</text><text xml:space="preserve" font-family="Monaco,Monaco" font-size="38.2" fill="#5EF62C" transform="matrix(1.00, 0.00, -0.00, -1.00, 833.2, 507.7)">/</text><text xml:space="preserve" font-family="Monaco,Monaco" font-size="38.2" fill="#5EF62C" transform="matrix(1.00, 0.00, -0.00, -1.00, 236.8, 456.7)">S</text><text xml:space="preserve" font-family="Monaco,Monaco" font-size="38.2" fill="#5EF62C" transform="matrix(1.00, 0.00, -0.00, -1.00, 259.7, 456.7)">h</text><text xml:space="preserve" font-family="Monaco,Monaco" font-size="38.2" fill="#5EF62C" transform="matrix(1.00, 0.00, -0.00, -1.00, 282.7, 456.7)">e</text><text xml:space="preserve" font-family="Monaco,Monaco" font-size="38.2" fill="#5EF62C" transform="matrix(1.00, 0.00, -0.00, -1.00, 305.6, 456.7)">l</text><text xml:space="preserve" font-family="Monaco,Monaco" font-size="38.2" fill="#5EF62C" transform="matrix(1.00, 0.00, -0.00, -1.00, 328.5, 456.7)">l</text><text xml:space="preserve" font-family="Monaco,Monaco" font-size="38.2" fill="#5EF62C" transform="matrix(1.00, 0.00, -0.00, -1.00, 351.5, 456.7)">S</text><text xml:space="preserve" font-family="Monaco,Monaco" font-size="38.2" fill="#5EF62C" transform="matrix(1.00, 0.00, -0.00, -1.00, 374.4, 456.7)">c</text><text xml:space="preserve" font-family="Monaco,Monaco" font-size="38.2" fill="#5EF62C" transform="matrix(1.00, 0.00, -0.00, -1.00, 397.3, 456.7)">r</text><text xml:space="preserve" font-family="Monaco,Monaco" font-size="38.2" fill="#5EF62C" transform="matrix(1.00, 0.00, -0.00, -1.00, 420.3, 456.7)">i</text><text xml:space="preserve" font-family="Monaco,Monaco" font-size="38.2" fill="#5EF62C" transform="matrix(1.00, 0.00, -0.00, -1.00, 443.2, 456.7)">p</text><text xml:space="preserve" font-family="Monaco,Monaco" font-size="38.2" fill="#5EF62C" transform="matrix(1.00, 0.00, -0.00, -1.00, 466.2, 456.7)">t</text><text xml:space="preserve" font-family="Monaco,Monaco" font-size="38.2" fill="#5EF62C" transform="matrix(1.00, 0.00, -0.00, -1.00, 489.1, 456.7)">i</text><text xml:space="preserve" font-family="Monaco,Monaco" font-size="38.2" fill="#5EF62C" transform="matrix(1.00, 0.00, -0.00, -1.00, 512.0, 456.7)">n</text><text xml:space="preserve" font-family="Monaco,Monaco" font-size="38.2" fill="#5EF62C" transform="matrix(1.00, 0.00, -0.00, -1.00, 535.0, 456.7)">g</text><text xml:space="preserve" font-family="Monaco,Monaco" font-size="38.2" fill="#5EF62C" transform="matrix(1.00, 0.00, -0.00, -1.00, 557.9, 456.7)">P</text><text xml:space="preserve" font-family="Monaco,Monaco" font-size="38.2" fill="#5EF62C" transform="matrix(1.00, 0.00, -0.00, -1.00, 580.9, 456.7)">S</text><text xml:space="preserve" font-family="Monaco,Monaco" font-size="38.2" fill="#5EF62C" transform="matrix(1.00, 0.00, -0.00, -1.00, 603.8, 456.7)">U</text><text xml:space="preserve" font-family="Monaco,Monaco" font-size="38.2" fill="#5EF62C" transform="matrix(1.00, 0.00, -0.00, -1.00, 626.7, 456.7)">M</text><text xml:space="preserve" font-family="Monaco,Monaco" font-size="38.2" fill="#5EF62C" transform="matrix(1.00, 0.00, -0.00, -1.00, 649.7, 456.7)">A</text><text xml:space="preserve" font-family="Monaco,Monaco" font-size="38.2" fill="#5EF62C" transform="matrix(1.00, 0.00, -0.00, -1.00, 672.6, 456.7)">C</text><text xml:space="preserve" font-family="Monaco,Monaco" font-size="38.2" fill="#5EF62C" transform="matrix(1.00, 0.00, -0.00, -1.00, 695.6, 456.7)">2</text><text xml:space="preserve" font-family="Monaco,Monaco" font-size="38.2" fill="#5EF62C" transform="matrix(1.00, 0.00, -0.00, -1.00, 718.5, 456.7)">0</text><text xml:space="preserve" font-family="Monaco,Monaco" font-size="38.2" fill="#5EF62C" transform="matrix(1.00, 0.00, -0.00, -1.00, 741.4, 456.7)">1</text><text xml:space="preserve" font-family="Monaco,Monaco" font-size="38.2" fill="#5EF62C" transform="matrix(1.00, 0.00, -0.00, -1.00, 764.4, 456.7)">4</text><text xml:space="preserve" font-family="Monaco,Monaco" font-size="38.2" fill="#5EF62C" transform="matrix(1.00, 0.00, -0.00, -1.00, 787.2, 456.7)">	</text><text xml:space="preserve" font-family="Monaco,Monaco" font-size="38.2" fill="#2F8B16" transform="matrix(1.00, 0.00, -0.00, -1.00, 351.4, 383.9)">"</text><text xml:space="preserve" font-family="Monaco,Monaco" font-size="38.2" fill="#2F8B16" transform="matrix(1.00, 0.00, -0.00, -1.00, 374.4, 383.9)">D</text><text xml:space="preserve" font-family="Monaco,Monaco" font-size="38.2" fill="#2F8B16" transform="matrix(1.00, 0.00, -0.00, -1.00, 397.3, 383.9)">o</text><text xml:space="preserve" font-family="Monaco,Monaco" font-size="38.2" fill="#2F8B16" transform="matrix(1.00, 0.00, -0.00, -1.00, 420.3, 383.9)">w</text><text xml:space="preserve" font-family="Monaco,Monaco" font-size="38.2" fill="#2F8B16" transform="matrix(1.00, 0.00, -0.00, -1.00, 443.2, 383.9)">n</text><text xml:space="preserve" font-family="Monaco,Monaco" font-size="38.2" fill="#2F8B16" transform="matrix(1.00, 0.00, -0.00, -1.00, 466.1, 383.9)">l</text><text xml:space="preserve" font-family="Monaco,Monaco" font-size="38.2" fill="#2F8B16" transform="matrix(1.00, 0.00, -0.00, -1.00, 489.1, 383.9)">o</text><text xml:space="preserve" font-family="Monaco,Monaco" font-size="38.2" fill="#2F8B16" transform="matrix(1.00, 0.00, -0.00, -1.00, 512.0, 383.9)">a</text><text xml:space="preserve" font-family="Monaco,Monaco" font-size="38.2" fill="#2F8B16" transform="matrix(1.00, 0.00, -0.00, -1.00, 535.0, 383.9)">d</text><text xml:space="preserve" font-family="Monaco,Monaco" font-size="38.2" fill="#2F8B16" transform="matrix(1.00, 0.00, -0.00, -1.00, 557.9, 383.9)"> </text><text xml:space="preserve" font-family="Monaco,Monaco" font-size="38.2" fill="#2F8B16" transform="matrix(1.00, 0.00, -0.00, -1.00, 580.8, 383.9)">Z</text><text xml:space="preserve" font-family="Monaco,Monaco" font-size="38.2" fill="#2F8B16" transform="matrix(1.00, 0.00, -0.00, -1.00, 603.8, 383.9)">i</text><text xml:space="preserve" font-family="Monaco,Monaco" font-size="38.2" fill="#2F8B16" transform="matrix(1.00, 0.00, -0.00, -1.00, 626.7, 383.9)">p</text><text xml:space="preserve" font-family="Monaco,Monaco" font-size="38.2" fill="#2F8B16" transform="matrix(1.00, 0.00, -0.00, -1.00, 649.7, 383.9)">"</text><text xml:space="preserve" font-family="Monaco,Monaco" font-size="38.2" fill="#2F8B16" transform="matrix(1.00, 0.00, -0.00, -1.00, 672.6, 383.9)">	</text><text xml:space="preserve" font-family="Monaco,Monaco" font-size="38.2" fill="#D35854" transform="matrix(1.00, 0.00, -0.00, -1.00, 374.4, 238.2)">T</text><text xml:space="preserve" font-family="Monaco,Monaco" font-size="38.2" fill="#D35854" transform="matrix(1.00, 0.00, -0.00, -1.00, 397.3, 238.2)">e</text><text xml:space="preserve" font-family="Monaco,Monaco" font-size="38.2" fill="#D35854" transform="matrix(1.00, 0.00, -0.00, -1.00, 420.3, 238.2)">x</text><text xml:space="preserve" font-family="Monaco,Monaco" font-size="38.2" fill="#D35854" transform="matrix(1.00, 0.00, -0.00, -1.00, 443.2, 238.2)">t</text><text xml:space="preserve" font-family="Monaco,Monaco" font-size="38.2" fill="#D35854" transform="matrix(1.00, 0.00, -0.00, -1.00, 466.1, 238.2)">W</text><text xml:space="preserve" font-family="Monaco,Monaco" font-size="38.2" fill="#D35854" transform="matrix(1.00, 0.00, -0.00, -1.00, 489.1, 238.2)">r</text><text xml:space="preserve" font-family="Monaco,Monaco" font-size="38.2" fill="#D35854" transform="matrix(1.00, 0.00, -0.00, -1.00, 512.0, 238.2)">a</text><text xml:space="preserve" font-family="Monaco,Monaco" font-size="38.2" fill="#D35854" transform="matrix(1.00, 0.00, -0.00, -1.00, 535.0, 238.2)">n</text><text xml:space="preserve" font-family="Monaco,Monaco" font-size="38.2" fill="#D35854" transform="matrix(1.00, 0.00, -0.00, -1.00, 557.9, 238.2)">g</text><text xml:space="preserve" font-family="Monaco,Monaco" font-size="38.2" fill="#D35854" transform="matrix(1.00, 0.00, -0.00, -1.00, 580.8, 238.2)">l</text><text xml:space="preserve" font-family="Monaco,Monaco" font-size="38.2" fill="#D35854" transform="matrix(1.00, 0.00, -0.00, -1.00, 603.8, 238.2)">e</text><text xml:space="preserve" font-family="Monaco,Monaco" font-size="38.2" fill="#D35854" transform="matrix(1.00, 0.00, -0.00, -1.00, 626.7, 238.2)">r</text><text xml:space="preserve" font-family="Monaco,Monaco" font-size="38.2" fill="#D35854" transform="matrix(1.00, 0.00, -0.00, -1.00, 649.7, 238.2)">	</text><text xml:space="preserve" font-family="Monaco,Monaco" font-size="38.2" fill="#D35854" transform="matrix(1.00, 0.00, -0.00, -1.00, 122.1, 165.4)">h</text><text xml:space="preserve" font-family="Monaco,Monaco" font-size="38.2" fill="#D35854" transform="matrix(1.00, 0.00, -0.00, -1.00, 145.0, 165.4)">t</text><text xml:space="preserve" font-family="Monaco,Monaco" font-size="38.2" fill="#D35854" transform="matrix(1.00, 0.00, -0.00, -1.00, 168.0, 165.4)">t</text><text xml:space="preserve" font-family="Monaco,Monaco" font-size="38.2" fill="#D35854" transform="matrix(1.00, 0.00, -0.00, -1.00, 190.9, 165.4)">p</text><text xml:space="preserve" font-family="Monaco,Monaco" font-size="38.2" fill="#D35854" transform="matrix(1.00, 0.00, -0.00, -1.00, 213.9, 165.4)">:</text><text xml:space="preserve" font-family="Monaco,Monaco" font-size="38.2" fill="#D35854" transform="matrix(1.00, 0.00, -0.00, -1.00, 236.8, 165.4)">/</text><text xml:space="preserve" font-family="Monaco,Monaco" font-size="38.2" fill="#D35854" transform="matrix(1.00, 0.00, -0.00, -1.00, 259.7, 165.4)">/</text><text xml:space="preserve" font-family="Monaco,Monaco" font-size="38.2" fill="#D35854" transform="matrix(1.00, 0.00, -0.00, -1.00, 282.7, 165.4)">w</text><text xml:space="preserve" font-family="Monaco,Monaco" font-size="38.2" fill="#D35854" transform="matrix(1.00, 0.00, -0.00, -1.00, 305.6, 165.4)">w</text><text xml:space="preserve" font-family="Monaco,Monaco" font-size="38.2" fill="#D35854" transform="matrix(1.00, 0.00, -0.00, -1.00, 328.5, 165.4)">w</text><text xml:space="preserve" font-family="Monaco,Monaco" font-size="38.2" fill="#D35854" transform="matrix(1.00, 0.00, -0.00, -1.00, 351.5, 165.4)">.</text><text xml:space="preserve" font-family="Monaco,Monaco" font-size="38.2" fill="#D35854" transform="matrix(1.00, 0.00, -0.00, -1.00, 374.4, 165.4)">b</text><text xml:space="preserve" font-family="Monaco,Monaco" font-size="38.2" fill="#D35854" transform="matrix(1.00, 0.00, -0.00, -1.00, 397.4, 165.4)">a</text><text xml:space="preserve" font-family="Monaco,Monaco" font-size="38.2" fill="#D35854" transform="matrix(1.00, 0.00, -0.00, -1.00, 420.3, 165.4)">r</text><text xml:space="preserve" font-family="Monaco,Monaco" font-size="38.2" fill="#D35854" transform="matrix(1.00, 0.00, -0.00, -1.00, 443.2, 165.4)">e</text><text xml:space="preserve" font-family="Monaco,Monaco" font-size="38.2" fill="#D35854" transform="matrix(1.00, 0.00, -0.00, -1.00, 466.2, 165.4)">b</text><text xml:space="preserve" font-family="Monaco,Monaco" font-size="38.2" fill="#D35854" transform="matrix(1.00, 0.00, -0.00, -1.00, 489.1, 165.4)">o</text><text xml:space="preserve" font-family="Monaco,Monaco" font-size="38.2" fill="#D35854" transform="matrix(1.00, 0.00, -0.00, -1.00, 512.1, 165.4)">n</text><text xml:space="preserve" font-family="Monaco,Monaco" font-size="38.2" fill="#D35854" transform="matrix(1.00, 0.00, -0.00, -1.00, 535.0, 165.4)">e</text><text xml:space="preserve" font-family="Monaco,Monaco" font-size="38.2" fill="#D35854" transform="matrix(1.00, 0.00, -0.00, -1.00, 557.9, 165.4)">s</text><text xml:space="preserve" font-family="Monaco,Monaco" font-size="38.2" fill="#D35854" transform="matrix(1.00, 0.00, -0.00, -1.00, 580.9, 165.4)">.</text><text xml:space="preserve" font-family="Monaco,Monaco" font-size="38.2" fill="#D35854" transform="matrix(1.00, 0.00, -0.00, -1.00, 603.8, 165.4)">c</text><text xml:space="preserve" font-family="Monaco,Monaco" font-size="38.2" fill="#D35854" transform="matrix(1.00, 0.00, -0.00, -1.00, 626.8, 165.4)">o</text><text xml:space="preserve" font-family="Monaco,Monaco" font-size="38.2" fill="#D35854" transform="matrix(1.00, 0.00, -0.00, -1.00, 649.7, 165.4)">m</text><text xml:space="preserve" font-family="Monaco,Monaco" font-size="38.2" fill="#D35854" transform="matrix(1.00, 0.00, -0.00, -1.00, 672.6, 165.4)">/</text><text xml:space="preserve" font-family="Monaco,Monaco" font-size="38.2" fill="#D35854" transform="matrix(1.00, 0.00, -0.00, -1.00, 695.6, 165.4)">p</text><text xml:space="preserve" font-family="Monaco,Monaco" font-size="38.2" fill="#D35854" transform="matrix(1.00, 0.00, -0.00, -1.00, 718.5, 165.4)">r</text><text xml:space="preserve" font-family="Monaco,Monaco" font-size="38.2" fill="#D35854" transform="matrix(1.00, 0.00, -0.00, -1.00, 741.5, 165.4)">o</text><text xml:space="preserve" font-family="Monaco,Monaco" font-size="38.2" fill="#D35854" transform="matrix(1.00, 0.00, -0.00, -1.00, 764.4, 165.4)">d</text><text xml:space="preserve" font-family="Monaco,Monaco" font-size="38.2" fill="#D35854" transform="matrix(1.00, 0.00, -0.00, -1.00, 787.3, 165.4)">u</text><text xml:space="preserve" font-family="Monaco,Monaco" font-size="38.2" fill="#D35854" transform="matrix(1.00, 0.00, -0.00, -1.00, 810.3, 165.4)">c</text><text xml:space="preserve" font-family="Monaco,Monaco" font-size="38.2" fill="#D35854" transform="matrix(1.00, 0.00, -0.00, -1.00, 833.2, 165.4)">t</text><text xml:space="preserve" font-family="Monaco,Monaco" font-size="38.2" fill="#D35854" transform="matrix(1.00, 0.00, -0.00, -1.00, 856.2, 165.4)">s</text><text xml:space="preserve" font-family="Monaco,Monaco" font-size="38.2" fill="#D35854" transform="matrix(1.00, 0.00, -0.00, -1.00, 879.1, 165.4)">/</text><text xml:space="preserve" font-family="Monaco,Monaco" font-size="38.2" fill="#D35854" transform="matrix(1.00, 0.00, -0.00, -1.00, 213.8, 114.4)">t</text><text xml:space="preserve" font-family="Monaco,Monaco" font-size="38.2" fill="#D35854" transform="matrix(1.00, 0.00, -0.00, -1.00, 236.8, 114.4)">e</text><text xml:space="preserve" font-family="Monaco,Monaco" font-size="38.2" fill="#D35854" transform="matrix(1.00, 0.00, -0.00, -1.00, 259.7, 114.4)">x</text><text xml:space="preserve" font-family="Monaco,Monaco" font-size="38.2" fill="#D35854" transform="matrix(1.00, 0.00, -0.00, -1.00, 282.7, 114.4)">t</text><text xml:space="preserve" font-family="Monaco,Monaco" font-size="38.2" fill="#D35854" transform="matrix(1.00, 0.00, -0.00, -1.00, 305.6, 114.4)">w</text><text xml:space="preserve" font-family="Monaco,Monaco" font-size="38.2" fill="#D35854" transform="matrix(1.00, 0.00, -0.00, -1.00, 328.5, 114.4)">r</text><text xml:space="preserve" font-family="Monaco,Monaco" font-size="38.2" fill="#D35854" transform="matrix(1.00, 0.00, -0.00, -1.00, 351.5, 114.4)">a</text><text xml:space="preserve" font-family="Monaco,Monaco" font-size="38.2" fill="#D35854" transform="matrix(1.00, 0.00, -0.00, -1.00, 374.4, 114.4)">n</text><text xml:space="preserve" font-family="Monaco,Monaco" font-size="38.2" fill="#D35854" transform="matrix(1.00, 0.00, -0.00, -1.00, 397.4, 114.4)">g</text><text xml:space="preserve" font-family="Monaco,Monaco" font-size="38.2" fill="#D35854" transform="matrix(1.00, 0.00, -0.00, -1.00, 420.3, 114.4)">l</text><text xml:space="preserve" font-family="Monaco,Monaco" font-size="38.2" fill="#D35854" transform="matrix(1.00, 0.00, -0.00, -1.00, 443.2, 114.4)">e</text><text xml:space="preserve" font-family="Monaco,Monaco" font-size="38.2" fill="#D35854" transform="matrix(1.00, 0.00, -0.00, -1.00, 466.2, 114.4)">r</text><text xml:space="preserve" font-family="Monaco,Monaco" font-size="38.2" fill="#D35854" transform="matrix(1.00, 0.00, -0.00, -1.00, 489.1, 114.4)">/</text><text xml:space="preserve" font-family="Monaco,Monaco" font-size="38.2" fill="#D35854" transform="matrix(1.00, 0.00, -0.00, -1.00, 512.0, 114.4)">d</text><text xml:space="preserve" font-family="Monaco,Monaco" font-size="38.2" fill="#D35854" transform="matrix(1.00, 0.00, -0.00, -1.00, 535.0, 114.4)">o</text><text xml:space="preserve" font-family="Monaco,Monaco" font-size="38.2" fill="#D35854" transform="matrix(1.00, 0.00, -0.00, -1.00, 557.9, 114.4)">w</text><text xml:space="preserve" font-family="Monaco,Monaco" font-size="38.2" fill="#D35854" transform="matrix(1.00, 0.00, -0.00, -1.00, 580.9, 114.4)">n</text><text xml:space="preserve" font-family="Monaco,Monaco" font-size="38.2" fill="#D35854" transform="matrix(1.00, 0.00, -0.00, -1.00, 603.8, 114.4)">l</text><text xml:space="preserve" font-family="Monaco,Monaco" font-size="38.2" fill="#D35854" transform="matrix(1.00, 0.00, -0.00, -1.00, 626.7, 114.4)">o</text><text xml:space="preserve" font-family="Monaco,Monaco" font-size="38.2" fill="#D35854" transform="matrix(1.00, 0.00, -0.00, -1.00, 649.7, 114.4)">a</text><text xml:space="preserve" font-family="Monaco,Monaco" font-size="38.2" fill="#D35854" transform="matrix(1.00, 0.00, -0.00, -1.00, 672.6, 114.4)">d</text><text xml:space="preserve" font-family="Monaco,Monaco" font-size="38.2" fill="#D35854" transform="matrix(1.00, 0.00, -0.00, -1.00, 695.6, 114.4)">.</text><text xml:space="preserve" font-family="Monaco,Monaco" font-size="38.2" fill="#D35854" transform="matrix(1.00, 0.00, -0.00, -1.00, 718.5, 114.4)">h</text><text xml:space="preserve" font-family="Monaco,Monaco" font-size="38.2" fill="#D35854" transform="matrix(1.00, 0.00, -0.00, -1.00, 741.4, 114.4)">t</text><text xml:space="preserve" font-family="Monaco,Monaco" font-size="38.2" fill="#D35854" transform="matrix(1.00, 0.00, -0.00, -1.00, 764.4, 114.4)">m</text><text xml:space="preserve" font-family="Monaco,Monaco" font-size="38.2" fill="#D35854" transform="matrix(1.00, 0.00, -0.00, -1.00, 787.3, 114.4)">l</text></g></svg>