<?xml version="1.0" encoding="UTF-8" standalone="no"?><svg xmlns="http://www.w3.org/2000/svg" xmlns:xlink="http://www.w3.org/1999/xlink" clip-rule="evenodd" stroke-miterlimit="10" viewBox="0 0 1024 768"><desc>SVG generated by Keynote</desc><defs></defs><g transform="matrix(1.00, 0.00, -0.00, -1.00, 0.0, 768.0)"><path d="M 0.0 768.0 L 1024.0 768.0 L 1024.0 0.0 L 0.0 0.0 Z M 0.0 768.0 " fill="#000000"></path><text xml:space="preserve" font-family="LucidaGrande,Lucida Grande" font-size="22.0" fill="#FEFFFE" transform="matrix(1.00, 0.00, -0.00, -1.00, 332.4, 11.6)">F</text><text xml:space="preserve" font-family="LucidaGrande,Lucida Grande" font-size="22.0" fill="#FEFFFE" transform="matrix(1.00, 0.00, -0.00, -1.00, 344.2, 11.6)">e</text><text xml:space="preserve" font-family="LucidaGrande,Lucida Grande" font-size="22.0" fill="#FEFFFE" transform="matrix(1.00, 0.00, -0.00, -1.00, 356.4, 11.6)">e</text><text xml:space="preserve" font-family="LucidaGrande,Lucida Grande" font-size="22.0" fill="#FEFFFE" transform="matrix(1.00, 0.00, -0.00, -1.00, 368.7, 11.6)">d</text><text xml:space="preserve" font-family="LucidaGrande,Lucida Grande" font-size="22.0" fill="#FEFFFE" transform="matrix(1.00, 0.00, -0.00, -1.00, 382.5, 11.6)">b</text><text xml:space="preserve" font-family="LucidaGrande,Lucida Grande" font-size="22.0" fill="#FEFFFE" transform="matrix(1.00, 0.00, -0.00, -1.00, 396.4, 11.6)">a</text><text xml:space="preserve" font-family="LucidaGrande,Lucida Grande" font-size="22.0" fill="#FEFFFE" transform="matrix(1.00, 0.00, -0.00, -1.00, 408.5, 11.6)">c</text><text xml:space="preserve" font-family="LucidaGrande,Lucida Grande" font-size="22.0" fill="#FEFFFE" transform="matrix(1.00, 0.00, -0.00, -1.00, 419.8, 11.6)">k</text><text xml:space="preserve" font-family="LucidaGrande,Lucida Grande" font-size="22.0" fill="#FEFFFE" transform="matrix(1.00, 0.00, -0.00, -1.00, 432.7, 11.6)">:</text><text xml:space="preserve" font-family="LucidaGrande,Lucida Grande" font-size="22.0" fill="#FEFFFE" transform="matrix(1.00, 0.00, -0.00, -1.00, 439.6, 11.6)"> </text><text xml:space="preserve" font-family="LucidaGrande,Lucida Grande" font-size="22.0" fill="#FEFFFE" transform="matrix(1.00, 0.00, -0.00, -1.00, 446.6, 11.6)">h</text><text xml:space="preserve" font-family="LucidaGrande,Lucida Grande" font-size="22.0" fill="#FEFFFE" transform="matrix(1.00, 0.00, -0.00, -1.00, 460.2, 11.6)">t</text><text xml:space="preserve" font-family="LucidaGrande,Lucida Grande" font-size="22.0" fill="#FEFFFE" transform="matrix(1.00, 0.00, -0.00, -1.00, 468.4, 11.6)">t</text><text xml:space="preserve" font-family="LucidaGrande,Lucida Grande" font-size="22.0" fill="#FEFFFE" transform="matrix(1.00, 0.00, -0.00, -1.00, 476.7, 11.6)">p</text><text xml:space="preserve" font-family="LucidaGrande,Lucida Grande" font-size="22.0" fill="#FEFFFE" transform="matrix(1.00, 0.00, -0.00, -1.00, 490.5, 11.6)">:</text><text xml:space="preserve" font-family="LucidaGrande,Lucida Grande" font-size="22.0" fill="#FEFFFE" transform="matrix(1.00, 0.00, -0.00, -1.00, 497.5, 11.6)">/</text><text xml:space="preserve" font-family="LucidaGrande,Lucida Grande" font-size="22.0" fill="#FEFFFE" transform="matrix(1.00, 0.00, -0.00, -1.00, 509.0, 11.6)">/</text><text xml:space="preserve" font-family="LucidaGrande,Lucida Grande" font-size="22.0" fill="#FEFFFE" transform="matrix(1.00, 0.00, -0.00, -1.00, 520.6, 11.6)">j</text><text xml:space="preserve" font-family="LucidaGrande,Lucida Grande" font-size="22.0" fill="#FEFFFE" transform="matrix(1.00, 0.00, -0.00, -1.00, 527.3, 11.6)">.</text><text xml:space="preserve" font-family="LucidaGrande,Lucida Grande" font-size="22.0" fill="#FEFFFE" transform="matrix(1.00, 0.00, -0.00, -1.00, 534.3, 11.6)">m</text><text xml:space="preserve" font-family="LucidaGrande,Lucida Grande" font-size="22.0" fill="#FEFFFE" transform="matrix(1.00, 0.00, -0.00, -1.00, 554.8, 11.6)">p</text><text xml:space="preserve" font-family="LucidaGrande,Lucida Grande" font-size="22.0" fill="#FEFFFE" transform="matrix(1.00, 0.00, -0.00, -1.00, 568.6, 11.6)">/</text><text xml:space="preserve" font-family="LucidaGrande,Lucida Grande" font-size="22.0" fill="#FEFFFE" transform="matrix(1.00, 0.00, -0.00, -1.00, 580.2, 11.6)">p</text><text xml:space="preserve" font-family="LucidaGrande,Lucida Grande" font-size="22.0" fill="#FEFFFE" transform="matrix(1.00, 0.00, -0.00, -1.00, 594.0, 11.6)">s</text><text xml:space="preserve" font-family="LucidaGrande,Lucida Grande" font-size="22.0" fill="#FEFFFE" transform="matrix(1.00, 0.00, -0.00, -1.00, 605.3, 11.6)">u</text><text xml:space="preserve" font-family="LucidaGrande,Lucida Grande" font-size="22.0" fill="#FEFFFE" transform="matrix(1.00, 0.00, -0.00, -1.00, 618.9, 11.6)">m</text><text xml:space="preserve" font-family="LucidaGrande,Lucida Grande" font-size="22.0" fill="#FEFFFE" transform="matrix(1.00, 0.00, -0.00, -1.00, 639.4, 11.6)">a</text><text xml:space="preserve" font-family="LucidaGrande,Lucida Grande" font-size="22.0" fill="#FEFFFE" transform="matrix(1.00, 0.00, -0.00, -1.00, 651.6, 11.6)">c</text><text xml:space="preserve" font-family="LucidaGrande,Lucida Grande" font-size="22.0" fill="#FEFFFE" transform="matrix(1.00, 0.00, -0.00, -1.00, 662.9, 11.6)">1</text><text xml:space="preserve" font-family="LucidaGrande,Lucida Grande" font-size="22.0" fill="#FEFFFE" transform="matrix(1.00, 0.00, -0.00, -1.00, 676.8, 11.6)">3</text><text xml:space="preserve" font-family="Monaco,Monaco" font-size="84.0" fill="#FEFFFF" transform="matrix(1.00, 0.00, -0.00, -1.00, 386.0, 620.0)">G</text><text xml:space="preserve" font-family="Monaco,Monaco" font-size="84.0" fill="#FEFFFF" transform="matrix(1.00, 0.00, -0.00, -1.00, 436.4, 620.0)">l</text><text xml:space="preserve" font-family="Monaco,Monaco" font-size="84.0" fill="#FEFFFF" transform="matrix(1.00, 0.00, -0.00, -1.00, 486.8, 620.0)">o</text><text xml:space="preserve" font-family="Monaco,Monaco" font-size="84.0" fill="#FEFFFF" transform="matrix(1.00, 0.00, -0.00, -1.00, 537.2, 620.0)">b</text><text xml:space="preserve" font-family="Monaco,Monaco" font-size="84.0" fill="#FEFFFF" transform="matrix(1.00, 0.00, -0.00, -1.00, 587.6, 620.0)">s</text><text xml:space="preserve" font-family="Monaco,Monaco" font-size="33.9" fill="#FEFFFF" transform="matrix(1.00, 0.00, -0.00, -1.00, 129.0, 510.3)">•</text><text xml:space="preserve" font-family="Monaco,Monaco" font-size="33.9" fill="#FEFFFF" transform="matrix(1.00, 0.00, -0.00, -1.00, 168.2, 510.3)">F</text><text xml:space="preserve" font-family="Monaco,Monaco" font-size="33.9" fill="#FEFFFF" transform="matrix(1.00, 0.00, -0.00, -1.00, 188.5, 510.3)">i</text><text xml:space="preserve" font-family="Monaco,Monaco" font-size="33.9" fill="#FEFFFF" transform="matrix(1.00, 0.00, -0.00, -1.00, 208.9, 510.3)">l</text><text xml:space="preserve" font-family="Monaco,Monaco" font-size="33.9" fill="#FEFFFF" transform="matrix(1.00, 0.00, -0.00, -1.00, 229.2, 510.3)">e</text><text xml:space="preserve" font-family="Monaco,Monaco" font-size="33.9" fill="#FEFFFF" transform="matrix(1.00, 0.00, -0.00, -1.00, 249.6, 510.3)">n</text><text xml:space="preserve" font-family="Monaco,Monaco" font-size="33.9" fill="#FEFFFF" transform="matrix(1.00, 0.00, -0.00, -1.00, 270.0, 510.3)">a</text><text xml:space="preserve" font-family="Monaco,Monaco" font-size="33.9" fill="#FEFFFF" transform="matrix(1.00, 0.00, -0.00, -1.00, 290.3, 510.3)">m</text><text xml:space="preserve" font-family="Monaco,Monaco" font-size="33.9" fill="#FEFFFF" transform="matrix(1.00, 0.00, -0.00, -1.00, 310.7, 510.3)">e</text><text xml:space="preserve" font-family="Monaco,Monaco" font-size="33.9" fill="#FEFFFF" transform="matrix(1.00, 0.00, -0.00, -1.00, 331.1, 510.3)"> </text><text xml:space="preserve" font-family="Monaco,Monaco" font-size="33.9" fill="#FEFFFF" transform="matrix(1.00, 0.00, -0.00, -1.00, 351.4, 510.3)">e</text><text xml:space="preserve" font-family="Monaco,Monaco" font-size="33.9" fill="#FEFFFF" transform="matrix(1.00, 0.00, -0.00, -1.00, 371.8, 510.3)">x</text><text xml:space="preserve" font-family="Monaco,Monaco" font-size="33.9" fill="#FEFFFF" transform="matrix(1.00, 0.00, -0.00, -1.00, 392.2, 510.3)">p</text><text xml:space="preserve" font-family="Monaco,Monaco" font-size="33.9" fill="#FEFFFF" transform="matrix(1.00, 0.00, -0.00, -1.00, 412.5, 510.3)">a</text><text xml:space="preserve" font-family="Monaco,Monaco" font-size="33.9" fill="#FEFFFF" transform="matrix(1.00, 0.00, -0.00, -1.00, 432.9, 510.3)">n</text><text xml:space="preserve" font-family="Monaco,Monaco" font-size="33.9" fill="#FEFFFF" transform="matrix(1.00, 0.00, -0.00, -1.00, 453.3, 510.3)">s</text><text xml:space="preserve" font-family="Monaco,Monaco" font-size="33.9" fill="#FEFFFF" transform="matrix(1.00, 0.00, -0.00, -1.00, 473.6, 510.3)">i</text><text xml:space="preserve" font-family="Monaco,Monaco" font-size="33.9" fill="#FEFFFF" transform="matrix(1.00, 0.00, -0.00, -1.00, 494.0, 510.3)">o</text><text xml:space="preserve" font-family="Monaco,Monaco" font-size="33.9" fill="#FEFFFF" transform="matrix(1.00, 0.00, -0.00, -1.00, 514.4, 510.3)">n</text><text xml:space="preserve" font-family="Monaco,Monaco" font-size="33.9" fill="#FEFFFF" transform="matrix(1.00, 0.00, -0.00, -1.00, 534.7, 510.3)"> </text><text xml:space="preserve" font-family="Monaco,Monaco" font-size="33.9" fill="#FEFFFF" transform="matrix(1.00, 0.00, -0.00, -1.00, 555.1, 510.3)">b</text><text xml:space="preserve" font-family="Monaco,Monaco" font-size="33.9" fill="#FEFFFF" transform="matrix(1.00, 0.00, -0.00, -1.00, 575.4, 510.3)">y</text><text xml:space="preserve" font-family="Monaco,Monaco" font-size="33.9" fill="#FEFFFF" transform="matrix(1.00, 0.00, -0.00, -1.00, 595.8, 510.3)"> </text><text xml:space="preserve" font-family="Monaco,Monaco" font-size="33.9" fill="#FEFFFF" transform="matrix(1.00, 0.00, -0.00, -1.00, 616.2, 510.3)">B</text><text xml:space="preserve" font-family="Monaco,Monaco" font-size="33.9" fill="#FEFFFF" transform="matrix(1.00, 0.00, -0.00, -1.00, 636.5, 510.3)">a</text><text xml:space="preserve" font-family="Monaco,Monaco" font-size="33.9" fill="#FEFFFF" transform="matrix(1.00, 0.00, -0.00, -1.00, 656.9, 510.3)">s</text><text xml:space="preserve" font-family="Monaco,Monaco" font-size="33.9" fill="#FEFFFF" transform="matrix(1.00, 0.00, -0.00, -1.00, 677.3, 510.3)">h</text><text xml:space="preserve" font-family="Monaco,Monaco" font-size="33.9" fill="#FEFFFF" transform="matrix(1.00, 0.00, -0.00, -1.00, 697.6, 510.3)">	</text><text xml:space="preserve" font-family="Monaco,Monaco" font-size="33.9" fill="#FEFFFF" transform="matrix(1.00, 0.00, -0.00, -1.00, 129.0, 444.4)">•</text><text xml:space="preserve" font-family="Monaco,Monaco" font-size="33.9" fill="#FEFFFF" transform="matrix(1.00, 0.00, -0.00, -1.00, 168.2, 444.4)">N</text><text xml:space="preserve" font-family="Monaco,Monaco" font-size="33.9" fill="#FEFFFF" transform="matrix(1.00, 0.00, -0.00, -1.00, 188.5, 444.4)">o</text><text xml:space="preserve" font-family="Monaco,Monaco" font-size="33.9" fill="#FEFFFF" transform="matrix(1.00, 0.00, -0.00, -1.00, 208.9, 444.4)">t</text><text xml:space="preserve" font-family="Monaco,Monaco" font-size="33.9" fill="#FEFFFF" transform="matrix(1.00, 0.00, -0.00, -1.00, 229.2, 444.4)"> </text><text xml:space="preserve" font-family="Monaco,Monaco" font-size="33.9" fill="#FEFFFF" transform="matrix(1.00, 0.00, -0.00, -1.00, 249.6, 444.4)">R</text><text xml:space="preserve" font-family="Monaco,Monaco" font-size="33.9" fill="#FEFFFF" transform="matrix(1.00, 0.00, -0.00, -1.00, 270.0, 444.4)">e</text><text xml:space="preserve" font-family="Monaco,Monaco" font-size="33.9" fill="#FEFFFF" transform="matrix(1.00, 0.00, -0.00, -1.00, 290.3, 444.4)">g</text><text xml:space="preserve" font-family="Monaco,Monaco" font-size="33.9" fill="#FEFFFF" transform="matrix(1.00, 0.00, -0.00, -1.00, 310.7, 444.4)">u</text><text xml:space="preserve" font-family="Monaco,Monaco" font-size="33.9" fill="#FEFFFF" transform="matrix(1.00, 0.00, -0.00, -1.00, 331.1, 444.4)">l</text><text xml:space="preserve" font-family="Monaco,Monaco" font-size="33.9" fill="#FEFFFF" transform="matrix(1.00, 0.00, -0.00, -1.00, 351.4, 444.4)">a</text><text xml:space="preserve" font-family="Monaco,Monaco" font-size="33.9" fill="#FEFFFF" transform="matrix(1.00, 0.00, -0.00, -1.00, 371.8, 444.4)">r</text><text xml:space="preserve" font-family="Monaco,Monaco" font-size="33.9" fill="#FEFFFF" transform="matrix(1.00, 0.00, -0.00, -1.00, 392.2, 444.4)"> </text><text xml:space="preserve" font-family="Monaco,Monaco" font-size="33.9" fill="#FEFFFF" transform="matrix(1.00, 0.00, -0.00, -1.00, 412.5, 444.4)">E</text><text xml:space="preserve" font-family="Monaco,Monaco" font-size="33.9" fill="#FEFFFF" transform="matrix(1.00, 0.00, -0.00, -1.00, 432.9, 444.4)">x</text><text xml:space="preserve" font-family="Monaco,Monaco" font-size="33.9" fill="#FEFFFF" transform="matrix(1.00, 0.00, -0.00, -1.00, 453.3, 444.4)">p</text><text xml:space="preserve" font-family="Monaco,Monaco" font-size="33.9" fill="#FEFFFF" transform="matrix(1.00, 0.00, -0.00, -1.00, 473.6, 444.4)">r</text><text xml:space="preserve" font-family="Monaco,Monaco" font-size="33.9" fill="#FEFFFF" transform="matrix(1.00, 0.00, -0.00, -1.00, 494.0, 444.4)">e</text><text xml:space="preserve" font-family="Monaco,Monaco" font-size="33.9" fill="#FEFFFF" transform="matrix(1.00, 0.00, -0.00, -1.00, 514.4, 444.4)">s</text><text xml:space="preserve" font-family="Monaco,Monaco" font-size="33.9" fill="#FEFFFF" transform="matrix(1.00, 0.00, -0.00, -1.00, 534.7, 444.4)">s</text><text xml:space="preserve" font-family="Monaco,Monaco" font-size="33.9" fill="#FEFFFF" transform="matrix(1.00, 0.00, -0.00, -1.00, 555.1, 444.4)">i</text><text xml:space="preserve" font-family="Monaco,Monaco" font-size="33.9" fill="#FEFFFF" transform="matrix(1.00, 0.00, -0.00, -1.00, 575.4, 444.4)">o</text><text xml:space="preserve" font-family="Monaco,Monaco" font-size="33.9" fill="#FEFFFF" transform="matrix(1.00, 0.00, -0.00, -1.00, 595.8, 444.4)">n</text><text xml:space="preserve" font-family="Monaco,Monaco" font-size="33.9" fill="#FEFFFF" transform="matrix(1.00, 0.00, -0.00, -1.00, 616.2, 444.4)">s</text><text xml:space="preserve" font-family="Monaco,Monaco" font-size="33.9" fill="#FEFFFF" transform="matrix(1.00, 0.00, -0.00, -1.00, 636.5, 444.4)"> </text><text xml:space="preserve" font-family="Monaco,Monaco" font-size="33.9" fill="#FEFFFF" transform="matrix(1.00, 0.00, -0.00, -1.00, 656.9, 444.4)">(</text><text xml:space="preserve" font-family="Monaco,Monaco" font-size="33.9" fill="#FEFFFF" transform="matrix(1.00, 0.00, -0.00, -1.00, 677.3, 444.4)">R</text><text xml:space="preserve" font-family="Monaco,Monaco" font-size="33.9" fill="#FEFFFF" transform="matrix(1.00, 0.00, -0.00, -1.00, 697.6, 444.4)">E</text><text xml:space="preserve" font-family="Monaco,Monaco" font-size="33.9" fill="#FEFFFF" transform="matrix(1.00, 0.00, -0.00, -1.00, 718.0, 444.4)">)</text><text xml:space="preserve" font-family="Monaco,Monaco" font-size="33.9" fill="#FEFFFF" transform="matrix(1.00, 0.00, -0.00, -1.00, 738.4, 444.4)">	</text><text xml:space="preserve" font-family="Monaco,Monaco" font-size="33.9" fill="#FEFFFF" transform="matrix(1.00, 0.00, -0.00, -1.00, 129.0, 378.6)">•</text><text xml:space="preserve" font-family="Monaco,Monaco" font-size="33.9" fill="#FEFFFF" transform="matrix(1.00, 0.00, -0.00, -1.00, 168.2, 378.6)">A</text><text xml:space="preserve" font-family="Monaco,Monaco" font-size="33.9" fill="#FEFFFF" transform="matrix(1.00, 0.00, -0.00, -1.00, 188.5, 378.6)">l</text><text xml:space="preserve" font-family="Monaco,Monaco" font-size="33.9" fill="#FEFFFF" transform="matrix(1.00, 0.00, -0.00, -1.00, 208.9, 378.6)">l</text><text xml:space="preserve" font-family="Monaco,Monaco" font-size="33.9" fill="#FEFFFF" transform="matrix(1.00, 0.00, -0.00, -1.00, 229.2, 378.6)"> </text><text xml:space="preserve" font-family="Monaco,Monaco" font-size="33.9" fill="#FEFFFF" transform="matrix(1.00, 0.00, -0.00, -1.00, 249.6, 378.6)">C</text><text xml:space="preserve" font-family="Monaco,Monaco" font-size="33.9" fill="#FEFFFF" transform="matrix(1.00, 0.00, -0.00, -1.00, 270.0, 378.6)">h</text><text xml:space="preserve" font-family="Monaco,Monaco" font-size="33.9" fill="#FEFFFF" transform="matrix(1.00, 0.00, -0.00, -1.00, 290.3, 378.6)">a</text><text xml:space="preserve" font-family="Monaco,Monaco" font-size="33.9" fill="#FEFFFF" transform="matrix(1.00, 0.00, -0.00, -1.00, 310.7, 378.6)">r</text><text xml:space="preserve" font-family="Monaco,Monaco" font-size="33.9" fill="#FEFFFF" transform="matrix(1.00, 0.00, -0.00, -1.00, 331.1, 378.6)">:</text><text xml:space="preserve" font-family="Monaco,Monaco" font-size="33.9" fill="#FEFFFF" transform="matrix(1.00, 0.00, -0.00, -1.00, 351.4, 378.6)"> </text><text xml:space="preserve" font-family="Monaco,Monaco" font-size="33.9" fill="#FEFFFF" transform="matrix(1.00, 0.00, -0.00, -1.00, 371.8, 378.6)">*</text><text xml:space="preserve" font-family="Monaco,Monaco" font-size="33.9" fill="#FEFFFF" transform="matrix(1.00, 0.00, -0.00, -1.00, 392.2, 378.6)"> </text><text xml:space="preserve" font-family="Monaco,Monaco" font-size="33.9" fill="#FEFFFF" transform="matrix(1.00, 0.00, -0.00, -1.00, 412.5, 378.6)">	</text><text xml:space="preserve" font-family="Monaco,Monaco" font-size="33.9" fill="#FEFFFF" transform="matrix(1.00, 0.00, -0.00, -1.00, 129.0, 312.7)">•</text><text xml:space="preserve" font-family="Monaco,Monaco" font-size="33.9" fill="#FEFFFF" transform="matrix(1.00, 0.00, -0.00, -1.00, 168.2, 312.7)">O</text><text xml:space="preserve" font-family="Monaco,Monaco" font-size="33.9" fill="#FEFFFF" transform="matrix(1.00, 0.00, -0.00, -1.00, 188.5, 312.7)">n</text><text xml:space="preserve" font-family="Monaco,Monaco" font-size="33.9" fill="#FEFFFF" transform="matrix(1.00, 0.00, -0.00, -1.00, 208.9, 312.7)">e</text><text xml:space="preserve" font-family="Monaco,Monaco" font-size="33.9" fill="#FEFFFF" transform="matrix(1.00, 0.00, -0.00, -1.00, 229.2, 312.7)"> </text><text xml:space="preserve" font-family="Monaco,Monaco" font-size="33.9" fill="#FEFFFF" transform="matrix(1.00, 0.00, -0.00, -1.00, 249.6, 312.7)">C</text><text xml:space="preserve" font-family="Monaco,Monaco" font-size="33.9" fill="#FEFFFF" transform="matrix(1.00, 0.00, -0.00, -1.00, 270.0, 312.7)">h</text><text xml:space="preserve" font-family="Monaco,Monaco" font-size="33.9" fill="#FEFFFF" transform="matrix(1.00, 0.00, -0.00, -1.00, 290.3, 312.7)">a</text><text xml:space="preserve" font-family="Monaco,Monaco" font-size="33.9" fill="#FEFFFF" transform="matrix(1.00, 0.00, -0.00, -1.00, 310.7, 312.7)">r</text><text xml:space="preserve" font-family="Monaco,Monaco" font-size="33.9" fill="#FEFFFF" transform="matrix(1.00, 0.00, -0.00, -1.00, 331.1, 312.7)">:</text><text xml:space="preserve" font-family="Monaco,Monaco" font-size="33.9" fill="#FEFFFF" transform="matrix(1.00, 0.00, -0.00, -1.00, 351.4, 312.7)"> </text><text xml:space="preserve" font-family="Monaco,Monaco" font-size="33.9" fill="#FEFFFF" transform="matrix(1.00, 0.00, -0.00, -1.00, 371.8, 312.7)">?</text><text xml:space="preserve" font-family="Monaco,Monaco" font-size="33.9" fill="#FEFFFF" transform="matrix(1.00, 0.00, -0.00, -1.00, 392.2, 312.7)"> </text><text xml:space="preserve" font-family="Monaco,Monaco" font-size="33.9" fill="#FEFFFF" transform="matrix(1.00, 0.00, -0.00, -1.00, 412.5, 312.7)">	</text><text xml:space="preserve" font-family="Monaco,Monaco" font-size="33.9" fill="#FEFFFF" transform="matrix(1.00, 0.00, -0.00, -1.00, 129.0, 246.8)">•</text><text xml:space="preserve" font-family="Monaco,Monaco" font-size="33.9" fill="#FEFFFF" transform="matrix(1.00, 0.00, -0.00, -1.00, 168.2, 246.8)">E</text><text xml:space="preserve" font-family="Monaco,Monaco" font-size="33.9" fill="#FEFFFF" transform="matrix(1.00, 0.00, -0.00, -1.00, 188.5, 246.8)">s</text><text xml:space="preserve" font-family="Monaco,Monaco" font-size="33.9" fill="#FEFFFF" transform="matrix(1.00, 0.00, -0.00, -1.00, 208.9, 246.8)">c</text><text xml:space="preserve" font-family="Monaco,Monaco" font-size="33.9" fill="#FEFFFF" transform="matrix(1.00, 0.00, -0.00, -1.00, 229.2, 246.8)">a</text><text xml:space="preserve" font-family="Monaco,Monaco" font-size="33.9" fill="#FEFFFF" transform="matrix(1.00, 0.00, -0.00, -1.00, 249.6, 246.8)">p</text><text xml:space="preserve" font-family="Monaco,Monaco" font-size="33.9" fill="#FEFFFF" transform="matrix(1.00, 0.00, -0.00, -1.00, 270.0, 246.8)">e</text><text xml:space="preserve" font-family="Monaco,Monaco" font-size="33.9" fill="#FEFFFF" transform="matrix(1.00, 0.00, -0.00, -1.00, 290.3, 246.8)"> </text><text xml:space="preserve" font-family="Monaco,Monaco" font-size="33.9" fill="#FEFFFF" transform="matrix(1.00, 0.00, -0.00, -1.00, 310.7, 246.8)">C</text><text xml:space="preserve" font-family="Monaco,Monaco" font-size="33.9" fill="#FEFFFF" transform="matrix(1.00, 0.00, -0.00, -1.00, 331.1, 246.8)">h</text><text xml:space="preserve" font-family="Monaco,Monaco" font-size="33.9" fill="#FEFFFF" transform="matrix(1.00, 0.00, -0.00, -1.00, 351.4, 246.8)">a</text><text xml:space="preserve" font-family="Monaco,Monaco" font-size="33.9" fill="#FEFFFF" transform="matrix(1.00, 0.00, -0.00, -1.00, 371.8, 246.8)">r</text><text xml:space="preserve" font-family="Monaco,Monaco" font-size="33.9" fill="#FEFFFF" transform="matrix(1.00, 0.00, -0.00, -1.00, 392.2, 246.8)">:</text><text xml:space="preserve" font-family="Monaco,Monaco" font-size="33.9" fill="#FEFFFF" transform="matrix(1.00, 0.00, -0.00, -1.00, 412.5, 246.8)"> </text><text xml:space="preserve" font-family="Monaco,Monaco" font-size="33.9" fill="#FEFFFF" transform="matrix(1.00, 0.00, -0.00, -1.00, 432.9, 246.8)">\</text><text xml:space="preserve" font-family="Monaco,Monaco" font-size="33.9" fill="#FEFFFF" transform="matrix(1.00, 0.00, -0.00, -1.00, 453.3, 246.8)">	</text><text xml:space="preserve" font-family="Monaco,Monaco" font-size="33.9" fill="#FEFFFF" transform="matrix(1.00, 0.00, -0.00, -1.00, 129.0, 180.9)">•</text><text xml:space="preserve" font-family="Monaco,Monaco" font-size="33.9" fill="#FEFFFF" transform="matrix(1.00, 0.00, -0.00, -1.00, 168.2, 180.9)">G</text><text xml:space="preserve" font-family="Monaco,Monaco" font-size="33.9" fill="#FEFFFF" transform="matrix(1.00, 0.00, -0.00, -1.00, 188.5, 180.9)">r</text><text xml:space="preserve" font-family="Monaco,Monaco" font-size="33.9" fill="#FEFFFF" transform="matrix(1.00, 0.00, -0.00, -1.00, 208.9, 180.9)">o</text><text xml:space="preserve" font-family="Monaco,Monaco" font-size="33.9" fill="#FEFFFF" transform="matrix(1.00, 0.00, -0.00, -1.00, 229.2, 180.9)">u</text><text xml:space="preserve" font-family="Monaco,Monaco" font-size="33.9" fill="#FEFFFF" transform="matrix(1.00, 0.00, -0.00, -1.00, 249.6, 180.9)">p</text><text xml:space="preserve" font-family="Monaco,Monaco" font-size="33.9" fill="#FEFFFF" transform="matrix(1.00, 0.00, -0.00, -1.00, 270.0, 180.9)"> </text><text xml:space="preserve" font-family="Monaco,Monaco" font-size="33.9" fill="#FEFFFF" transform="matrix(1.00, 0.00, -0.00, -1.00, 290.3, 180.9)">o</text><text xml:space="preserve" font-family="Monaco,Monaco" font-size="33.9" fill="#FEFFFF" transform="matrix(1.00, 0.00, -0.00, -1.00, 310.7, 180.9)">f</text><text xml:space="preserve" font-family="Monaco,Monaco" font-size="33.9" fill="#FEFFFF" transform="matrix(1.00, 0.00, -0.00, -1.00, 331.1, 180.9)"> </text><text xml:space="preserve" font-family="Monaco,Monaco" font-size="33.9" fill="#FEFFFF" transform="matrix(1.00, 0.00, -0.00, -1.00, 351.4, 180.9)">C</text><text xml:space="preserve" font-family="Monaco,Monaco" font-size="33.9" fill="#FEFFFF" transform="matrix(1.00, 0.00, -0.00, -1.00, 371.8, 180.9)">h</text><text xml:space="preserve" font-family="Monaco,Monaco" font-size="33.9" fill="#FEFFFF" transform="matrix(1.00, 0.00, -0.00, -1.00, 392.2, 180.9)">a</text><text xml:space="preserve" font-family="Monaco,Monaco" font-size="33.9" fill="#FEFFFF" transform="matrix(1.00, 0.00, -0.00, -1.00, 412.5, 180.9)">r</text><text xml:space="preserve" font-family="Monaco,Monaco" font-size="33.9" fill="#FEFFFF" transform="matrix(1.00, 0.00, -0.00, -1.00, 432.9, 180.9)">:</text><text xml:space="preserve" font-family="Monaco,Monaco" font-size="33.9" fill="#FEFFFF" transform="matrix(1.00, 0.00, -0.00, -1.00, 453.3, 180.9)"> </text><text xml:space="preserve" font-family="Monaco,Monaco" font-size="33.9" fill="#FEFFFF" transform="matrix(1.00, 0.00, -0.00, -1.00, 473.6, 180.9)">[</text><text xml:space="preserve" font-family="Monaco,Monaco" font-size="33.9" fill="#FEFFFF" transform="matrix(1.00, 0.00, -0.00, -1.00, 494.0, 180.9)"> </text><text xml:space="preserve" font-family="Monaco,Monaco" font-size="33.9" fill="#FEFFFF" transform="matrix(1.00, 0.00, -0.00, -1.00, 514.4, 180.9)">]</text><text xml:space="preserve" font-family="Monaco,Monaco" font-size="33.9" fill="#FEFFFF" transform="matrix(1.00, 0.00, -0.00, -1.00, 534.7, 180.9)"> </text><text xml:space="preserve" font-family="Monaco,Monaco" font-size="33.9" fill="#FEFFFF" transform="matrix(1.00, 0.00, -0.00, -1.00, 555.1, 180.9)">	</text><text xml:space="preserve" font-family="Monaco,Monaco" font-size="33.9" fill="#FEFFFF" transform="matrix(1.00, 0.00, -0.00, -1.00, 129.0, 115.0)">•</text><text xml:space="preserve" font-family="Monaco,Monaco" font-size="33.9" fill="#FEFFFF" transform="matrix(1.00, 0.00, -0.00, -1.00, 168.2, 115.0)">N</text><text xml:space="preserve" font-family="Monaco,Monaco" font-size="33.9" fill="#FEFFFF" transform="matrix(1.00, 0.00, -0.00, -1.00, 188.5, 115.0)">e</text><text xml:space="preserve" font-family="Monaco,Monaco" font-size="33.9" fill="#FEFFFF" transform="matrix(1.00, 0.00, -0.00, -1.00, 208.9, 115.0)">g</text><text xml:space="preserve" font-family="Monaco,Monaco" font-size="33.9" fill="#FEFFFF" transform="matrix(1.00, 0.00, -0.00, -1.00, 229.2, 115.0)">a</text><text xml:space="preserve" font-family="Monaco,Monaco" font-size="33.9" fill="#FEFFFF" transform="matrix(1.00, 0.00, -0.00, -1.00, 249.6, 115.0)">t</text><text xml:space="preserve" font-family="Monaco,Monaco" font-size="33.9" fill="#FEFFFF" transform="matrix(1.00, 0.00, -0.00, -1.00, 270.0, 115.0)">e</text><text xml:space="preserve" font-family="Monaco,Monaco" font-size="33.9" fill="#FEFFFF" transform="matrix(1.00, 0.00, -0.00, -1.00, 290.3, 115.0)"> </text><text xml:space="preserve" font-family="Monaco,Monaco" font-size="33.9" fill="#FEFFFF" transform="matrix(1.00, 0.00, -0.00, -1.00, 310.7, 115.0)">C</text><text xml:space="preserve" font-family="Monaco,Monaco" font-size="33.9" fill="#FEFFFF" transform="matrix(1.00, 0.00, -0.00, -1.00, 331.1, 115.0)">h</text><text xml:space="preserve" font-family="Monaco,Monaco" font-size="33.9" fill="#FEFFFF" transform="matrix(1.00, 0.00, -0.00, -1.00, 351.4, 115.0)">a</text><text xml:space="preserve" font-family="Monaco,Monaco" font-size="33.9" fill="#FEFFFF" transform="matrix(1.00, 0.00, -0.00, -1.00, 371.8, 115.0)">r</text><text xml:space="preserve" font-family="Monaco,Monaco" font-size="33.9" fill="#FEFFFF" transform="matrix(1.00, 0.00, -0.00, -1.00, 392.2, 115.0)">:</text><text xml:space="preserve" font-family="Monaco,Monaco" font-size="33.9" fill="#FEFFFF" transform="matrix(1.00, 0.00, -0.00, -1.00, 412.5, 115.0)"> </text><text xml:space="preserve" font-family="Monaco,Monaco" font-size="33.9" fill="#FEFFFF" transform="matrix(1.00, 0.00, -0.00, -1.00, 432.9, 115.0)">^</text></g></svg>