<?xml version="1.0" encoding="UTF-8" standalone="no"?><svg xmlns="http://www.w3.org/2000/svg" xmlns:xlink="http://www.w3.org/1999/xlink" clip-rule="evenodd" stroke-miterlimit="10" viewBox="0 0 1024 768"><desc>SVG generated by Keynote</desc><defs></defs><g transform="matrix(1.00, 0.00, -0.00, -1.00, 0.0, 768.0)"><path d="M 0.0 768.0 L 1024.0 768.0 L 1024.0 0.0 L 0.0 0.0 Z M 0.0 768.0 " fill="#000000"></path><image xlink:href="../../ACF26528-510F-4087-92A7-D9431E4A7675/assets/C07D05C049E9C3A813AD52BFC7182A2D.png" width="983.00" height="584.00" transform="matrix(1.00, 0.00, -0.00, -1.00, 10.2, 664.7)" opacity="0.75"></image><image xlink:href="../../ACF26528-510F-4087-92A7-D9431E4A7675/assets/B8B89F8D2E49298F363D8341A9D067FB.png" width="963.00" height="564.00" transform="matrix(1.00, 0.00, -0.00, -1.00, 30.0, 666.0)"></image><text xml:space="preserve" font-family="LucidaGrande,Lucida Grande" font-size="22.0" fill="#FEFFFE" transform="matrix(1.00, 0.00, -0.00, -1.00, 332.4, 11.6)">F</text><text xml:space="preserve" font-family="LucidaGrande,Lucida Grande" font-size="22.0" fill="#FEFFFE" transform="matrix(1.00, 0.00, -0.00, -1.00, 344.2, 11.6)">e</text><text xml:space="preserve" font-family="LucidaGrande,Lucida Grande" font-size="22.0" fill="#FEFFFE" transform="matrix(1.00, 0.00, -0.00, -1.00, 356.4, 11.6)">e</text><text xml:space="preserve" font-family="LucidaGrande,Lucida Grande" font-size="22.0" fill="#FEFFFE" transform="matrix(1.00, 0.00, -0.00, -1.00, 368.7, 11.6)">d</text><text xml:space="preserve" font-family="LucidaGrande,Lucida Grande" font-size="22.0" fill="#FEFFFE" transform="matrix(1.00, 0.00, -0.00, -1.00, 382.5, 11.6)">b</text><text xml:space="preserve" font-family="LucidaGrande,Lucida Grande" font-size="22.0" fill="#FEFFFE" transform="matrix(1.00, 0.00, -0.00, -1.00, 396.4, 11.6)">a</text><text xml:space="preserve" font-family="LucidaGrande,Lucida Grande" font-size="22.0" fill="#FEFFFE" transform="matrix(1.00, 0.00, -0.00, -1.00, 408.5, 11.6)">c</text><text xml:space="preserve" font-family="LucidaGrande,Lucida Grande" font-size="22.0" fill="#FEFFFE" transform="matrix(1.00, 0.00, -0.00, -1.00, 419.8, 11.6)">k</text><text xml:space="preserve" font-family="LucidaGrande,Lucida Grande" font-size="22.0" fill="#FEFFFE" transform="matrix(1.00, 0.00, -0.00, -1.00, 432.7, 11.6)">:</text><text xml:space="preserve" font-family="LucidaGrande,Lucida Grande" font-size="22.0" fill="#FEFFFE" transform="matrix(1.00, 0.00, -0.00, -1.00, 439.6, 11.6)"> </text><text xml:space="preserve" font-family="LucidaGrande,Lucida Grande" font-size="22.0" fill="#FEFFFE" transform="matrix(1.00, 0.00, -0.00, -1.00, 446.6, 11.6)">h</text><text xml:space="preserve" font-family="LucidaGrande,Lucida Grande" font-size="22.0" fill="#FEFFFE" transform="matrix(1.00, 0.00, -0.00, -1.00, 460.2, 11.6)">t</text><text xml:space="preserve" font-family="LucidaGrande,Lucida Grande" font-size="22.0" fill="#FEFFFE" transform="matrix(1.00, 0.00, -0.00, -1.00, 468.4, 11.6)">t</text><text xml:space="preserve" font-family="LucidaGrande,Lucida Grande" font-size="22.0" fill="#FEFFFE" transform="matrix(1.00, 0.00, -0.00, -1.00, 476.7, 11.6)">p</text><text xml:space="preserve" font-family="LucidaGrande,Lucida Grande" font-size="22.0" fill="#FEFFFE" transform="matrix(1.00, 0.00, -0.00, -1.00, 490.5, 11.6)">:</text><text xml:space="preserve" font-family="LucidaGrande,Lucida Grande" font-size="22.0" fill="#FEFFFE" transform="matrix(1.00, 0.00, -0.00, -1.00, 497.5, 11.6)">/</text><text xml:space="preserve" font-family="LucidaGrande,Lucida Grande" font-size="22.0" fill="#FEFFFE" transform="matrix(1.00, 0.00, -0.00, -1.00, 509.0, 11.6)">/</text><text xml:space="preserve" font-family="LucidaGrande,Lucida Grande" font-size="22.0" fill="#FEFFFE" transform="matrix(1.00, 0.00, -0.00, -1.00, 520.6, 11.6)">j</text><text xml:space="preserve" font-family="LucidaGrande,Lucida Grande" font-size="22.0" fill="#FEFFFE" transform="matrix(1.00, 0.00, -0.00, -1.00, 527.3, 11.6)">.</text><text xml:space="preserve" font-family="LucidaGrande,Lucida Grande" font-size="22.0" fill="#FEFFFE" transform="matrix(1.00, 0.00, -0.00, -1.00, 534.3, 11.6)">m</text><text xml:space="preserve" font-family="LucidaGrande,Lucida Grande" font-size="22.0" fill="#FEFFFE" transform="matrix(1.00, 0.00, -0.00, -1.00, 554.8, 11.6)">p</text><text xml:space="preserve" font-family="LucidaGrande,Lucida Grande" font-size="22.0" fill="#FEFFFE" transform="matrix(1.00, 0.00, -0.00, -1.00, 568.6, 11.6)">/</text><text xml:space="preserve" font-family="LucidaGrande,Lucida Grande" font-size="22.0" fill="#FEFFFE" transform="matrix(1.00, 0.00, -0.00, -1.00, 580.2, 11.6)">p</text><text xml:space="preserve" font-family="LucidaGrande,Lucida Grande" font-size="22.0" fill="#FEFFFE" transform="matrix(1.00, 0.00, -0.00, -1.00, 594.0, 11.6)">s</text><text xml:space="preserve" font-family="LucidaGrande,Lucida Grande" font-size="22.0" fill="#FEFFFE" transform="matrix(1.00, 0.00, -0.00, -1.00, 605.3, 11.6)">u</text><text xml:space="preserve" font-family="LucidaGrande,Lucida Grande" font-size="22.0" fill="#FEFFFE" transform="matrix(1.00, 0.00, -0.00, -1.00, 618.9, 11.6)">m</text><text xml:space="preserve" font-family="LucidaGrande,Lucida Grande" font-size="22.0" fill="#FEFFFE" transform="matrix(1.00, 0.00, -0.00, -1.00, 639.4, 11.6)">a</text><text xml:space="preserve" font-family="LucidaGrande,Lucida Grande" font-size="22.0" fill="#FEFFFE" transform="matrix(1.00, 0.00, -0.00, -1.00, 651.6, 11.6)">c</text><text xml:space="preserve" font-family="LucidaGrande,Lucida Grande" font-size="22.0" fill="#FEFFFE" transform="matrix(1.00, 0.00, -0.00, -1.00, 662.9, 11.6)">1</text><text xml:space="preserve" font-family="LucidaGrande,Lucida Grande" font-size="22.0" fill="#FEFFFE" transform="matrix(1.00, 0.00, -0.00, -1.00, 676.8, 11.6)">3</text><text xml:space="preserve" font-family="Monaco,Monaco" font-size="35.0" fill="#37DE1B" transform="matrix(1.00, 0.00, -0.00, -1.00, 57.2, 465.2)">$</text><text xml:space="preserve" font-family="Monaco,Monaco" font-size="35.0" fill="#37DE1B" transform="matrix(1.00, 0.00, -0.00, -1.00, 78.2, 465.2)"> </text><text xml:space="preserve" font-family="Monaco,Monaco" font-size="35.0" fill="#37DE1B" transform="matrix(1.00, 0.00, -0.00, -1.00, 99.2, 465.2)">s</text><text xml:space="preserve" font-family="Monaco,Monaco" font-size="35.0" fill="#37DE1B" transform="matrix(1.00, 0.00, -0.00, -1.00, 120.2, 465.2)">y</text><text xml:space="preserve" font-family="Monaco,Monaco" font-size="35.0" fill="#37DE1B" transform="matrix(1.00, 0.00, -0.00, -1.00, 141.2, 465.2)">s</text><text xml:space="preserve" font-family="Monaco,Monaco" font-size="35.0" fill="#37DE1B" transform="matrix(1.00, 0.00, -0.00, -1.00, 162.2, 465.2)">t</text><text xml:space="preserve" font-family="Monaco,Monaco" font-size="35.0" fill="#37DE1B" transform="matrix(1.00, 0.00, -0.00, -1.00, 183.2, 465.2)">e</text><text xml:space="preserve" font-family="Monaco,Monaco" font-size="35.0" fill="#37DE1B" transform="matrix(1.00, 0.00, -0.00, -1.00, 204.2, 465.2)">m</text><text xml:space="preserve" font-family="Monaco,Monaco" font-size="35.0" fill="#37DE1B" transform="matrix(1.00, 0.00, -0.00, -1.00, 225.2, 465.2)">_</text><text xml:space="preserve" font-family="Monaco,Monaco" font-size="35.0" fill="#37DE1B" transform="matrix(1.00, 0.00, -0.00, -1.00, 246.2, 465.2)">p</text><text xml:space="preserve" font-family="Monaco,Monaco" font-size="35.0" fill="#37DE1B" transform="matrix(1.00, 0.00, -0.00, -1.00, 267.2, 465.2)">r</text><text xml:space="preserve" font-family="Monaco,Monaco" font-size="35.0" fill="#37DE1B" transform="matrix(1.00, 0.00, -0.00, -1.00, 288.3, 465.2)">o</text><text xml:space="preserve" font-family="Monaco,Monaco" font-size="35.0" fill="#37DE1B" transform="matrix(1.00, 0.00, -0.00, -1.00, 309.3, 465.2)">f</text><text xml:space="preserve" font-family="Monaco,Monaco" font-size="35.0" fill="#37DE1B" transform="matrix(1.00, 0.00, -0.00, -1.00, 330.3, 465.2)">i</text><text xml:space="preserve" font-family="Monaco,Monaco" font-size="35.0" fill="#37DE1B" transform="matrix(1.00, 0.00, -0.00, -1.00, 351.3, 465.2)">l</text><text xml:space="preserve" font-family="Monaco,Monaco" font-size="35.0" fill="#37DE1B" transform="matrix(1.00, 0.00, -0.00, -1.00, 372.3, 465.2)">e</text><text xml:space="preserve" font-family="Monaco,Monaco" font-size="35.0" fill="#37DE1B" transform="matrix(1.00, 0.00, -0.00, -1.00, 393.3, 465.2)">r</text><text xml:space="preserve" font-family="Monaco,Monaco" font-size="35.0" fill="#37DE1B" transform="matrix(1.00, 0.00, -0.00, -1.00, 414.3, 465.2)"> </text><text xml:space="preserve" font-family="Monaco,Monaco" font-size="35.0" fill="#37DE1B" transform="matrix(1.00, 0.00, -0.00, -1.00, 435.3, 465.2)">S</text><text xml:space="preserve" font-family="Monaco,Monaco" font-size="35.0" fill="#37DE1B" transform="matrix(1.00, 0.00, -0.00, -1.00, 456.3, 465.2)">P</text><text xml:space="preserve" font-family="Monaco,Monaco" font-size="35.0" fill="#37DE1B" transform="matrix(1.00, 0.00, -0.00, -1.00, 477.3, 465.2)">H</text><text xml:space="preserve" font-family="Monaco,Monaco" font-size="35.0" fill="#37DE1B" transform="matrix(1.00, 0.00, -0.00, -1.00, 498.3, 465.2)">a</text><text xml:space="preserve" font-family="Monaco,Monaco" font-size="35.0" fill="#37DE1B" transform="matrix(1.00, 0.00, -0.00, -1.00, 519.3, 465.2)">r</text><text xml:space="preserve" font-family="Monaco,Monaco" font-size="35.0" fill="#37DE1B" transform="matrix(1.00, 0.00, -0.00, -1.00, 540.3, 465.2)">d</text><text xml:space="preserve" font-family="Monaco,Monaco" font-size="35.0" fill="#37DE1B" transform="matrix(1.00, 0.00, -0.00, -1.00, 561.3, 465.2)">w</text><text xml:space="preserve" font-family="Monaco,Monaco" font-size="35.0" fill="#37DE1B" transform="matrix(1.00, 0.00, -0.00, -1.00, 582.3, 465.2)">a</text><text xml:space="preserve" font-family="Monaco,Monaco" font-size="35.0" fill="#37DE1B" transform="matrix(1.00, 0.00, -0.00, -1.00, 603.4, 465.2)">r</text><text xml:space="preserve" font-family="Monaco,Monaco" font-size="35.0" fill="#37DE1B" transform="matrix(1.00, 0.00, -0.00, -1.00, 624.4, 465.2)">e</text><text xml:space="preserve" font-family="Monaco,Monaco" font-size="35.0" fill="#37DE1B" transform="matrix(1.00, 0.00, -0.00, -1.00, 645.4, 465.2)">D</text><text xml:space="preserve" font-family="Monaco,Monaco" font-size="35.0" fill="#37DE1B" transform="matrix(1.00, 0.00, -0.00, -1.00, 666.4, 465.2)">a</text><text xml:space="preserve" font-family="Monaco,Monaco" font-size="35.0" fill="#37DE1B" transform="matrix(1.00, 0.00, -0.00, -1.00, 687.4, 465.2)">t</text><text xml:space="preserve" font-family="Monaco,Monaco" font-size="35.0" fill="#37DE1B" transform="matrix(1.00, 0.00, -0.00, -1.00, 708.4, 465.2)">a</text><text xml:space="preserve" font-family="Monaco,Monaco" font-size="35.0" fill="#37DE1B" transform="matrix(1.00, 0.00, -0.00, -1.00, 729.4, 465.2)">T</text><text xml:space="preserve" font-family="Monaco,Monaco" font-size="35.0" fill="#37DE1B" transform="matrix(1.00, 0.00, -0.00, -1.00, 750.4, 465.2)">y</text><text xml:space="preserve" font-family="Monaco,Monaco" font-size="35.0" fill="#37DE1B" transform="matrix(1.00, 0.00, -0.00, -1.00, 771.4, 465.2)">p</text><text xml:space="preserve" font-family="Monaco,Monaco" font-size="35.0" fill="#37DE1B" transform="matrix(1.00, 0.00, -0.00, -1.00, 792.4, 465.2)">e</text><text xml:space="preserve" font-family="Monaco,Monaco" font-size="35.0" fill="#37DE1B" transform="matrix(1.00, 0.00, -0.00, -1.00, 813.4, 465.2)">|</text><text xml:space="preserve" font-family="Monaco,Monaco" font-size="35.0" fill="#37DE1B" transform="matrix(1.00, 0.00, -0.00, -1.00, 834.4, 465.2)">g</text><text xml:space="preserve" font-family="Monaco,Monaco" font-size="35.0" fill="#37DE1B" transform="matrix(1.00, 0.00, -0.00, -1.00, 855.4, 465.2)">r</text><text xml:space="preserve" font-family="Monaco,Monaco" font-size="35.0" fill="#37DE1B" transform="matrix(1.00, 0.00, -0.00, -1.00, 876.4, 465.2)">e</text><text xml:space="preserve" font-family="Monaco,Monaco" font-size="35.0" fill="#37DE1B" transform="matrix(1.00, 0.00, -0.00, -1.00, 897.5, 465.2)">p</text><text xml:space="preserve" font-family="Monaco,Monaco" font-size="35.0" fill="#37DE1B" transform="matrix(1.00, 0.00, -0.00, -1.00, 918.5, 465.2)"> </text><text xml:space="preserve" font-family="Monaco,Monaco" font-size="35.0" fill="#37DE1B" transform="matrix(1.00, 0.00, -0.00, -1.00, 57.2, 418.2)">"</text><text xml:space="preserve" font-family="Monaco,Monaco" font-size="35.0" fill="#37DE1B" transform="matrix(1.00, 0.00, -0.00, -1.00, 78.2, 418.2)">S</text><text xml:space="preserve" font-family="Monaco,Monaco" font-size="35.0" fill="#37DE1B" transform="matrix(1.00, 0.00, -0.00, -1.00, 99.2, 418.2)">e</text><text xml:space="preserve" font-family="Monaco,Monaco" font-size="35.0" fill="#37DE1B" transform="matrix(1.00, 0.00, -0.00, -1.00, 120.2, 418.2)">r</text><text xml:space="preserve" font-family="Monaco,Monaco" font-size="35.0" fill="#37DE1B" transform="matrix(1.00, 0.00, -0.00, -1.00, 141.2, 418.2)">i</text><text xml:space="preserve" font-family="Monaco,Monaco" font-size="35.0" fill="#37DE1B" transform="matrix(1.00, 0.00, -0.00, -1.00, 162.2, 418.2)">a</text><text xml:space="preserve" font-family="Monaco,Monaco" font-size="35.0" fill="#37DE1B" transform="matrix(1.00, 0.00, -0.00, -1.00, 183.2, 418.2)">l</text><text xml:space="preserve" font-family="Monaco,Monaco" font-size="35.0" fill="#37DE1B" transform="matrix(1.00, 0.00, -0.00, -1.00, 204.2, 418.2)"> </text><text xml:space="preserve" font-family="Monaco,Monaco" font-size="35.0" fill="#37DE1B" transform="matrix(1.00, 0.00, -0.00, -1.00, 225.2, 418.2)">N</text><text xml:space="preserve" font-family="Monaco,Monaco" font-size="35.0" fill="#37DE1B" transform="matrix(1.00, 0.00, -0.00, -1.00, 246.2, 418.2)">u</text><text xml:space="preserve" font-family="Monaco,Monaco" font-size="35.0" fill="#37DE1B" transform="matrix(1.00, 0.00, -0.00, -1.00, 267.2, 418.2)">m</text><text xml:space="preserve" font-family="Monaco,Monaco" font-size="35.0" fill="#37DE1B" transform="matrix(1.00, 0.00, -0.00, -1.00, 288.3, 418.2)">b</text><text xml:space="preserve" font-family="Monaco,Monaco" font-size="35.0" fill="#37DE1B" transform="matrix(1.00, 0.00, -0.00, -1.00, 309.3, 418.2)">e</text><text xml:space="preserve" font-family="Monaco,Monaco" font-size="35.0" fill="#37DE1B" transform="matrix(1.00, 0.00, -0.00, -1.00, 330.3, 418.2)">r</text><text xml:space="preserve" font-family="Monaco,Monaco" font-size="35.0" fill="#37DE1B" transform="matrix(1.00, 0.00, -0.00, -1.00, 351.3, 418.2)">"</text><text xml:space="preserve" font-family="Monaco,Monaco" font-size="35.0" fill="#37DE1B" transform="matrix(1.00, 0.00, -0.00, -1.00, 372.3, 418.2)">|</text><text xml:space="preserve" font-family="Monaco,Monaco" font-size="35.0" fill="#37DE1B" transform="matrix(1.00, 0.00, -0.00, -1.00, 393.3, 418.2)"> </text><text xml:space="preserve" font-family="Monaco,Monaco" font-size="35.0" fill="#37DE1B" transform="matrix(1.00, 0.00, -0.00, -1.00, 414.3, 418.2)">s</text><text xml:space="preserve" font-family="Monaco,Monaco" font-size="35.0" fill="#37DE1B" transform="matrix(1.00, 0.00, -0.00, -1.00, 435.3, 418.2)">e</text><text xml:space="preserve" font-family="Monaco,Monaco" font-size="35.0" fill="#37DE1B" transform="matrix(1.00, 0.00, -0.00, -1.00, 456.3, 418.2)">d</text><text xml:space="preserve" font-family="Monaco,Monaco" font-size="35.0" fill="#37DE1B" transform="matrix(1.00, 0.00, -0.00, -1.00, 477.3, 418.2)"> </text><text xml:space="preserve" font-family="Monaco,Monaco" font-size="35.0" fill="#37DE1B" transform="matrix(1.00, 0.00, -0.00, -1.00, 498.3, 418.2)">s</text><text xml:space="preserve" font-family="Monaco,Monaco" font-size="35.0" fill="#37DE1B" transform="matrix(1.00, 0.00, -0.00, -1.00, 519.3, 418.2)">/</text><text xml:space="preserve" font-family="Monaco,Monaco" font-size="35.0" fill="#37DE1B" transform="matrix(1.00, 0.00, -0.00, -1.00, 540.3, 418.2)">\</text><text xml:space="preserve" font-family="Monaco,Monaco" font-size="35.0" fill="#37DE1B" transform="matrix(1.00, 0.00, -0.00, -1.00, 561.3, 418.2)"> </text><text xml:space="preserve" font-family="Monaco,Monaco" font-size="35.0" fill="#37DE1B" transform="matrix(1.00, 0.00, -0.00, -1.00, 582.3, 418.2)">*</text><text xml:space="preserve" font-family="Monaco,Monaco" font-size="35.0" fill="#37DE1B" transform="matrix(1.00, 0.00, -0.00, -1.00, 603.4, 418.2)">S</text><text xml:space="preserve" font-family="Monaco,Monaco" font-size="35.0" fill="#37DE1B" transform="matrix(1.00, 0.00, -0.00, -1.00, 624.4, 418.2)">e</text><text xml:space="preserve" font-family="Monaco,Monaco" font-size="35.0" fill="#37DE1B" transform="matrix(1.00, 0.00, -0.00, -1.00, 645.4, 418.2)">r</text><text xml:space="preserve" font-family="Monaco,Monaco" font-size="35.0" fill="#37DE1B" transform="matrix(1.00, 0.00, -0.00, -1.00, 666.4, 418.2)">i</text><text xml:space="preserve" font-family="Monaco,Monaco" font-size="35.0" fill="#37DE1B" transform="matrix(1.00, 0.00, -0.00, -1.00, 687.4, 418.2)">a</text><text xml:space="preserve" font-family="Monaco,Monaco" font-size="35.0" fill="#37DE1B" transform="matrix(1.00, 0.00, -0.00, -1.00, 708.4, 418.2)">l</text><text xml:space="preserve" font-family="Monaco,Monaco" font-size="35.0" fill="#37DE1B" transform="matrix(1.00, 0.00, -0.00, -1.00, 729.4, 418.2)">\</text><text xml:space="preserve" font-family="Monaco,Monaco" font-size="35.0" fill="#37DE1B" transform="matrix(1.00, 0.00, -0.00, -1.00, 750.4, 418.2)"> </text><text xml:space="preserve" font-family="Monaco,Monaco" font-size="35.0" fill="#37DE1B" transform="matrix(1.00, 0.00, -0.00, -1.00, 771.4, 418.2)">N</text><text xml:space="preserve" font-family="Monaco,Monaco" font-size="35.0" fill="#37DE1B" transform="matrix(1.00, 0.00, -0.00, -1.00, 792.4, 418.2)">u</text><text xml:space="preserve" font-family="Monaco,Monaco" font-size="35.0" fill="#37DE1B" transform="matrix(1.00, 0.00, -0.00, -1.00, 813.4, 418.2)">m</text><text xml:space="preserve" font-family="Monaco,Monaco" font-size="35.0" fill="#37DE1B" transform="matrix(1.00, 0.00, -0.00, -1.00, 834.4, 418.2)">b</text><text xml:space="preserve" font-family="Monaco,Monaco" font-size="35.0" fill="#37DE1B" transform="matrix(1.00, 0.00, -0.00, -1.00, 855.4, 418.2)">e</text><text xml:space="preserve" font-family="Monaco,Monaco" font-size="35.0" fill="#37DE1B" transform="matrix(1.00, 0.00, -0.00, -1.00, 876.4, 418.2)">r</text><text xml:space="preserve" font-family="Monaco,Monaco" font-size="35.0" fill="#37DE1B" transform="matrix(1.00, 0.00, -0.00, -1.00, 897.5, 418.2)">\</text><text xml:space="preserve" font-family="Monaco,Monaco" font-size="35.0" fill="#37DE1B" transform="matrix(1.00, 0.00, -0.00, -1.00, 918.5, 418.2)"> </text><text xml:space="preserve" font-family="Monaco,Monaco" font-size="35.0" fill="#37DE1B" transform="matrix(1.00, 0.00, -0.00, -1.00, 939.5, 418.2)">\</text><text xml:space="preserve" font-family="Monaco,Monaco" font-size="35.0" fill="#37DE1B" transform="matrix(1.00, 0.00, -0.00, -1.00, 57.2, 371.2)">(</text><text xml:space="preserve" font-family="Monaco,Monaco" font-size="35.0" fill="#37DE1B" transform="matrix(1.00, 0.00, -0.00, -1.00, 78.2, 371.2)">s</text><text xml:space="preserve" font-family="Monaco,Monaco" font-size="35.0" fill="#37DE1B" transform="matrix(1.00, 0.00, -0.00, -1.00, 99.2, 371.2)">y</text><text xml:space="preserve" font-family="Monaco,Monaco" font-size="35.0" fill="#37DE1B" transform="matrix(1.00, 0.00, -0.00, -1.00, 120.2, 371.2)">s</text><text xml:space="preserve" font-family="Monaco,Monaco" font-size="35.0" fill="#37DE1B" transform="matrix(1.00, 0.00, -0.00, -1.00, 141.2, 371.2)">t</text><text xml:space="preserve" font-family="Monaco,Monaco" font-size="35.0" fill="#37DE1B" transform="matrix(1.00, 0.00, -0.00, -1.00, 162.2, 371.2)">e</text><text xml:space="preserve" font-family="Monaco,Monaco" font-size="35.0" fill="#37DE1B" transform="matrix(1.00, 0.00, -0.00, -1.00, 183.2, 371.2)">m</text><text xml:space="preserve" font-family="Monaco,Monaco" font-size="35.0" fill="#37DE1B" transform="matrix(1.00, 0.00, -0.00, -1.00, 204.2, 371.2)">\</text><text xml:space="preserve" font-family="Monaco,Monaco" font-size="35.0" fill="#37DE1B" transform="matrix(1.00, 0.00, -0.00, -1.00, 225.2, 371.2)">)</text><text xml:space="preserve" font-family="Monaco,Monaco" font-size="35.0" fill="#37DE1B" transform="matrix(1.00, 0.00, -0.00, -1.00, 246.2, 371.2)">:</text><text xml:space="preserve" font-family="Monaco,Monaco" font-size="35.0" fill="#37DE1B" transform="matrix(1.00, 0.00, -0.00, -1.00, 267.2, 371.2)">\</text><text xml:space="preserve" font-family="Monaco,Monaco" font-size="35.0" fill="#37DE1B" transform="matrix(1.00, 0.00, -0.00, -1.00, 288.3, 371.2)"> </text><text xml:space="preserve" font-family="Monaco,Monaco" font-size="35.0" fill="#37DE1B" transform="matrix(1.00, 0.00, -0.00, -1.00, 309.3, 371.2)">/</text><text xml:space="preserve" font-family="Monaco,Monaco" font-size="35.0" fill="#37DE1B" transform="matrix(1.00, 0.00, -0.00, -1.00, 330.3, 371.2)">/</text><text xml:space="preserve" font-family="Monaco,Monaco" font-size="35.0" fill="#37DE1B" transform="matrix(1.00, 0.00, -0.00, -1.00, 351.3, 371.2)">|</text><text xml:space="preserve" font-family="Monaco,Monaco" font-size="35.0" fill="#37DE1B" transform="matrix(1.00, 0.00, -0.00, -1.00, 372.2, 371.2)"> </text><text xml:space="preserve" font-family="Monaco,Monaco" font-size="35.0" fill="#37DE1B" transform="matrix(1.00, 0.00, -0.00, -1.00, 393.2, 371.2)">t</text><text xml:space="preserve" font-family="Monaco,Monaco" font-size="35.0" fill="#37DE1B" transform="matrix(1.00, 0.00, -0.00, -1.00, 414.2, 371.2)">r</text><text xml:space="preserve" font-family="Monaco,Monaco" font-size="35.0" fill="#37DE1B" transform="matrix(1.00, 0.00, -0.00, -1.00, 435.2, 371.2)"> </text><text xml:space="preserve" font-family="Monaco,Monaco" font-size="35.0" fill="#37DE1B" transform="matrix(1.00, 0.00, -0.00, -1.00, 456.3, 371.2)"> </text><text xml:space="preserve" font-family="Monaco,Monaco" font-size="35.0" fill="#37DE1B" transform="matrix(1.00, 0.00, -0.00, -1.00, 477.3, 371.2)">"</text><text xml:space="preserve" font-family="Monaco,Monaco" font-size="35.0" fill="#37DE1B" transform="matrix(1.00, 0.00, -0.00, -1.00, 498.3, 371.2)">[</text><text xml:space="preserve" font-family="Monaco,Monaco" font-size="35.0" fill="#37DE1B" transform="matrix(1.00, 0.00, -0.00, -1.00, 519.3, 371.2)">:</text><text xml:space="preserve" font-family="Monaco,Monaco" font-size="35.0" fill="#37DE1B" transform="matrix(1.00, 0.00, -0.00, -1.00, 540.3, 371.2)">u</text><text xml:space="preserve" font-family="Monaco,Monaco" font-size="35.0" fill="#37DE1B" transform="matrix(1.00, 0.00, -0.00, -1.00, 561.3, 371.2)">p</text><text xml:space="preserve" font-family="Monaco,Monaco" font-size="35.0" fill="#37DE1B" transform="matrix(1.00, 0.00, -0.00, -1.00, 582.3, 371.2)">p</text><text xml:space="preserve" font-family="Monaco,Monaco" font-size="35.0" fill="#37DE1B" transform="matrix(1.00, 0.00, -0.00, -1.00, 603.3, 371.2)">e</text><text xml:space="preserve" font-family="Monaco,Monaco" font-size="35.0" fill="#37DE1B" transform="matrix(1.00, 0.00, -0.00, -1.00, 624.3, 371.2)">r</text><text xml:space="preserve" font-family="Monaco,Monaco" font-size="35.0" fill="#37DE1B" transform="matrix(1.00, 0.00, -0.00, -1.00, 645.3, 371.2)">:</text><text xml:space="preserve" font-family="Monaco,Monaco" font-size="35.0" fill="#37DE1B" transform="matrix(1.00, 0.00, -0.00, -1.00, 666.3, 371.2)">]</text><text xml:space="preserve" font-family="Monaco,Monaco" font-size="35.0" fill="#37DE1B" transform="matrix(1.00, 0.00, -0.00, -1.00, 687.3, 371.2)">"</text><text xml:space="preserve" font-family="Monaco,Monaco" font-size="35.0" fill="#37DE1B" transform="matrix(1.00, 0.00, -0.00, -1.00, 708.3, 371.2)"> </text><text xml:space="preserve" font-family="Monaco,Monaco" font-size="35.0" fill="#37DE1B" transform="matrix(1.00, 0.00, -0.00, -1.00, 729.3, 371.2)">"</text><text xml:space="preserve" font-family="Monaco,Monaco" font-size="35.0" fill="#37DE1B" transform="matrix(1.00, 0.00, -0.00, -1.00, 750.4, 371.2)">[</text><text xml:space="preserve" font-family="Monaco,Monaco" font-size="35.0" fill="#37DE1B" transform="matrix(1.00, 0.00, -0.00, -1.00, 771.4, 371.2)">:</text><text xml:space="preserve" font-family="Monaco,Monaco" font-size="35.0" fill="#37DE1B" transform="matrix(1.00, 0.00, -0.00, -1.00, 792.4, 371.2)">l</text><text xml:space="preserve" font-family="Monaco,Monaco" font-size="35.0" fill="#37DE1B" transform="matrix(1.00, 0.00, -0.00, -1.00, 813.4, 371.2)">o</text><text xml:space="preserve" font-family="Monaco,Monaco" font-size="35.0" fill="#37DE1B" transform="matrix(1.00, 0.00, -0.00, -1.00, 834.4, 371.2)">w</text><text xml:space="preserve" font-family="Monaco,Monaco" font-size="35.0" fill="#37DE1B" transform="matrix(1.00, 0.00, -0.00, -1.00, 855.4, 371.2)">e</text><text xml:space="preserve" font-family="Monaco,Monaco" font-size="35.0" fill="#37DE1B" transform="matrix(1.00, 0.00, -0.00, -1.00, 876.4, 371.2)">r</text><text xml:space="preserve" font-family="Monaco,Monaco" font-size="35.0" fill="#37DE1B" transform="matrix(1.00, 0.00, -0.00, -1.00, 897.4, 371.2)">:</text><text xml:space="preserve" font-family="Monaco,Monaco" font-size="35.0" fill="#37DE1B" transform="matrix(1.00, 0.00, -0.00, -1.00, 918.4, 371.2)">]</text><text xml:space="preserve" font-family="Monaco,Monaco" font-size="35.0" fill="#37DE1B" transform="matrix(1.00, 0.00, -0.00, -1.00, 939.4, 371.2)">"</text><text xml:space="preserve" font-family="Monaco,Monaco" font-size="35.0" fill="#37DE1B" transform="matrix(1.00, 0.00, -0.00, -1.00, 960.4, 371.2)">	</text><text xml:space="preserve" font-family="Monaco,Monaco" font-size="35.0" fill="#37DE1B" transform="matrix(1.00, 0.00, -0.00, -1.00, 57.2, 324.2)">c</text><text xml:space="preserve" font-family="Monaco,Monaco" font-size="35.0" fill="#37DE1B" transform="matrix(1.00, 0.00, -0.00, -1.00, 78.2, 324.2)">0</text><text xml:space="preserve" font-family="Monaco,Monaco" font-size="35.0" fill="#37DE1B" transform="matrix(1.00, 0.00, -0.00, -1.00, 99.2, 324.2)">2</text><text xml:space="preserve" font-family="Monaco,Monaco" font-size="35.0" fill="#37DE1B" transform="matrix(1.00, 0.00, -0.00, -1.00, 120.2, 324.2)">f</text><text xml:space="preserve" font-family="Monaco,Monaco" font-size="35.0" fill="#37DE1B" transform="matrix(1.00, 0.00, -0.00, -1.00, 141.2, 324.2)">g</text><text xml:space="preserve" font-family="Monaco,Monaco" font-size="35.0" fill="#37DE1B" transform="matrix(1.00, 0.00, -0.00, -1.00, 162.2, 324.2)">7</text><text xml:space="preserve" font-family="Monaco,Monaco" font-size="35.0" fill="#37DE1B" transform="matrix(1.00, 0.00, -0.00, -1.00, 183.2, 324.2)">q</text><text xml:space="preserve" font-family="Monaco,Monaco" font-size="35.0" fill="#37DE1B" transform="matrix(1.00, 0.00, -0.00, -1.00, 204.2, 324.2)">g</text><text xml:space="preserve" font-family="Monaco,Monaco" font-size="35.0" fill="#37DE1B" transform="matrix(1.00, 0.00, -0.00, -1.00, 225.2, 324.2)">f</text><text xml:space="preserve" font-family="Monaco,Monaco" font-size="35.0" fill="#37DE1B" transform="matrix(1.00, 0.00, -0.00, -1.00, 246.2, 324.2)">7</text><text xml:space="preserve" font-family="Monaco,Monaco" font-size="35.0" fill="#37DE1B" transform="matrix(1.00, 0.00, -0.00, -1.00, 267.2, 324.2)">f</text><text xml:space="preserve" font-family="Monaco,Monaco" font-size="35.0" fill="#37DE1B" transform="matrix(1.00, 0.00, -0.00, -1.00, 288.3, 324.2)">g</text><text xml:space="preserve" font-family="Monaco,Monaco" font-size="35.0" fill="#37DE1B" transform="matrix(1.00, 0.00, -0.00, -1.00, 309.3, 324.2)">	</text></g></svg>