<?xml version="1.0" encoding="UTF-8" standalone="no"?><svg xmlns="http://www.w3.org/2000/svg" xmlns:xlink="http://www.w3.org/1999/xlink" clip-rule="evenodd" stroke-miterlimit="10" viewBox="0 0 1024 768"><desc>SVG generated by Keynote</desc><defs></defs><g transform="matrix(1.00, 0.00, -0.00, -1.00, 0.0, 768.0)"><path d="M 0.0 768.0 L 1024.0 768.0 L 1024.0 0.0 L 0.0 0.0 Z M 0.0 768.0 " fill="#000000"></path><image xlink:href="../../ACF26528-510F-4087-92A7-D9431E4A7675/assets/C07D05C049E9C3A813AD52BFC7182A2D.png" width="983.00" height="584.00" transform="matrix(1.00, 0.00, -0.00, -1.00, 10.2, 664.7)" opacity="0.75"></image><image xlink:href="../../ACF26528-510F-4087-92A7-D9431E4A7675/assets/B8B89F8D2E49298F363D8341A9D067FB.png" width="963.00" height="564.00" transform="matrix(1.00, 0.00, -0.00, -1.00, 30.0, 666.0)"></image><text xml:space="preserve" font-family="LucidaGrande,Lucida Grande" font-size="22.0" fill="#FEFFFE" transform="matrix(1.00, 0.00, -0.00, -1.00, 332.4, 11.6)">F</text><text xml:space="preserve" font-family="LucidaGrande,Lucida Grande" font-size="22.0" fill="#FEFFFE" transform="matrix(1.00, 0.00, -0.00, -1.00, 344.2, 11.6)">e</text><text xml:space="preserve" font-family="LucidaGrande,Lucida Grande" font-size="22.0" fill="#FEFFFE" transform="matrix(1.00, 0.00, -0.00, -1.00, 356.4, 11.6)">e</text><text xml:space="preserve" font-family="LucidaGrande,Lucida Grande" font-size="22.0" fill="#FEFFFE" transform="matrix(1.00, 0.00, -0.00, -1.00, 368.7, 11.6)">d</text><text xml:space="preserve" font-family="LucidaGrande,Lucida Grande" font-size="22.0" fill="#FEFFFE" transform="matrix(1.00, 0.00, -0.00, -1.00, 382.5, 11.6)">b</text><text xml:space="preserve" font-family="LucidaGrande,Lucida Grande" font-size="22.0" fill="#FEFFFE" transform="matrix(1.00, 0.00, -0.00, -1.00, 396.4, 11.6)">a</text><text xml:space="preserve" font-family="LucidaGrande,Lucida Grande" font-size="22.0" fill="#FEFFFE" transform="matrix(1.00, 0.00, -0.00, -1.00, 408.5, 11.6)">c</text><text xml:space="preserve" font-family="LucidaGrande,Lucida Grande" font-size="22.0" fill="#FEFFFE" transform="matrix(1.00, 0.00, -0.00, -1.00, 419.8, 11.6)">k</text><text xml:space="preserve" font-family="LucidaGrande,Lucida Grande" font-size="22.0" fill="#FEFFFE" transform="matrix(1.00, 0.00, -0.00, -1.00, 432.7, 11.6)">:</text><text xml:space="preserve" font-family="LucidaGrande,Lucida Grande" font-size="22.0" fill="#FEFFFE" transform="matrix(1.00, 0.00, -0.00, -1.00, 439.6, 11.6)"> </text><text xml:space="preserve" font-family="LucidaGrande,Lucida Grande" font-size="22.0" fill="#FEFFFE" transform="matrix(1.00, 0.00, -0.00, -1.00, 446.6, 11.6)">h</text><text xml:space="preserve" font-family="LucidaGrande,Lucida Grande" font-size="22.0" fill="#FEFFFE" transform="matrix(1.00, 0.00, -0.00, -1.00, 460.2, 11.6)">t</text><text xml:space="preserve" font-family="LucidaGrande,Lucida Grande" font-size="22.0" fill="#FEFFFE" transform="matrix(1.00, 0.00, -0.00, -1.00, 468.4, 11.6)">t</text><text xml:space="preserve" font-family="LucidaGrande,Lucida Grande" font-size="22.0" fill="#FEFFFE" transform="matrix(1.00, 0.00, -0.00, -1.00, 476.7, 11.6)">p</text><text xml:space="preserve" font-family="LucidaGrande,Lucida Grande" font-size="22.0" fill="#FEFFFE" transform="matrix(1.00, 0.00, -0.00, -1.00, 490.5, 11.6)">:</text><text xml:space="preserve" font-family="LucidaGrande,Lucida Grande" font-size="22.0" fill="#FEFFFE" transform="matrix(1.00, 0.00, -0.00, -1.00, 497.5, 11.6)">/</text><text xml:space="preserve" font-family="LucidaGrande,Lucida Grande" font-size="22.0" fill="#FEFFFE" transform="matrix(1.00, 0.00, -0.00, -1.00, 509.0, 11.6)">/</text><text xml:space="preserve" font-family="LucidaGrande,Lucida Grande" font-size="22.0" fill="#FEFFFE" transform="matrix(1.00, 0.00, -0.00, -1.00, 520.6, 11.6)">j</text><text xml:space="preserve" font-family="LucidaGrande,Lucida Grande" font-size="22.0" fill="#FEFFFE" transform="matrix(1.00, 0.00, -0.00, -1.00, 527.3, 11.6)">.</text><text xml:space="preserve" font-family="LucidaGrande,Lucida Grande" font-size="22.0" fill="#FEFFFE" transform="matrix(1.00, 0.00, -0.00, -1.00, 534.3, 11.6)">m</text><text xml:space="preserve" font-family="LucidaGrande,Lucida Grande" font-size="22.0" fill="#FEFFFE" transform="matrix(1.00, 0.00, -0.00, -1.00, 554.8, 11.6)">p</text><text xml:space="preserve" font-family="LucidaGrande,Lucida Grande" font-size="22.0" fill="#FEFFFE" transform="matrix(1.00, 0.00, -0.00, -1.00, 568.6, 11.6)">/</text><text xml:space="preserve" font-family="LucidaGrande,Lucida Grande" font-size="22.0" fill="#FEFFFE" transform="matrix(1.00, 0.00, -0.00, -1.00, 580.2, 11.6)">p</text><text xml:space="preserve" font-family="LucidaGrande,Lucida Grande" font-size="22.0" fill="#FEFFFE" transform="matrix(1.00, 0.00, -0.00, -1.00, 594.0, 11.6)">s</text><text xml:space="preserve" font-family="LucidaGrande,Lucida Grande" font-size="22.0" fill="#FEFFFE" transform="matrix(1.00, 0.00, -0.00, -1.00, 605.3, 11.6)">u</text><text xml:space="preserve" font-family="LucidaGrande,Lucida Grande" font-size="22.0" fill="#FEFFFE" transform="matrix(1.00, 0.00, -0.00, -1.00, 618.9, 11.6)">m</text><text xml:space="preserve" font-family="LucidaGrande,Lucida Grande" font-size="22.0" fill="#FEFFFE" transform="matrix(1.00, 0.00, -0.00, -1.00, 639.4, 11.6)">a</text><text xml:space="preserve" font-family="LucidaGrande,Lucida Grande" font-size="22.0" fill="#FEFFFE" transform="matrix(1.00, 0.00, -0.00, -1.00, 651.6, 11.6)">c</text><text xml:space="preserve" font-family="LucidaGrande,Lucida Grande" font-size="22.0" fill="#FEFFFE" transform="matrix(1.00, 0.00, -0.00, -1.00, 662.9, 11.6)">1</text><text xml:space="preserve" font-family="LucidaGrande,Lucida Grande" font-size="22.0" fill="#FEFFFE" transform="matrix(1.00, 0.00, -0.00, -1.00, 676.8, 11.6)">3</text><text xml:space="preserve" font-family="Monaco,Monaco" font-size="38.0" fill="#37DE1B" transform="matrix(1.00, 0.00, -0.00, -1.00, 57.0, 586.3)">$</text><text xml:space="preserve" font-family="Monaco,Monaco" font-size="38.0" fill="#37DE1B" transform="matrix(1.00, 0.00, -0.00, -1.00, 79.8, 586.3)"> </text><text xml:space="preserve" font-family="Monaco,Monaco" font-size="38.0" fill="#37DE1B" transform="matrix(1.00, 0.00, -0.00, -1.00, 102.6, 586.3)">V</text><text xml:space="preserve" font-family="Monaco,Monaco" font-size="38.0" fill="#37DE1B" transform="matrix(1.00, 0.00, -0.00, -1.00, 125.4, 586.3)">A</text><text xml:space="preserve" font-family="Monaco,Monaco" font-size="38.0" fill="#37DE1B" transform="matrix(1.00, 0.00, -0.00, -1.00, 148.2, 586.3)">R</text><text xml:space="preserve" font-family="Monaco,Monaco" font-size="38.0" fill="#37DE1B" transform="matrix(1.00, 0.00, -0.00, -1.00, 171.0, 586.3)">=</text><text xml:space="preserve" font-family="Monaco,Monaco" font-size="38.0" fill="#37DE1B" transform="matrix(1.00, 0.00, -0.00, -1.00, 193.8, 586.3)">0</text><text xml:space="preserve" font-family="Monaco,Monaco" font-size="38.0" fill="#37DE1B" transform="matrix(1.00, 0.00, -0.00, -1.00, 216.6, 586.3)">	</text><text xml:space="preserve" font-family="Monaco,Monaco" font-size="38.0" fill="#37DE1B" transform="matrix(1.00, 0.00, -0.00, -1.00, 57.0, 535.3)">$</text><text xml:space="preserve" font-family="Monaco,Monaco" font-size="38.0" fill="#37DE1B" transform="matrix(1.00, 0.00, -0.00, -1.00, 79.8, 535.3)"> </text><text xml:space="preserve" font-family="Monaco,Monaco" font-size="38.0" fill="#37DE1B" transform="matrix(1.00, 0.00, -0.00, -1.00, 102.6, 535.3)">f</text><text xml:space="preserve" font-family="Monaco,Monaco" font-size="38.0" fill="#37DE1B" transform="matrix(1.00, 0.00, -0.00, -1.00, 125.4, 535.3)">o</text><text xml:space="preserve" font-family="Monaco,Monaco" font-size="38.0" fill="#37DE1B" transform="matrix(1.00, 0.00, -0.00, -1.00, 148.2, 535.3)">r</text><text xml:space="preserve" font-family="Monaco,Monaco" font-size="38.0" fill="#37DE1B" transform="matrix(1.00, 0.00, -0.00, -1.00, 171.0, 535.3)"> </text><text xml:space="preserve" font-family="Monaco,Monaco" font-size="38.0" fill="#37DE1B" transform="matrix(1.00, 0.00, -0.00, -1.00, 193.8, 535.3)">V</text><text xml:space="preserve" font-family="Monaco,Monaco" font-size="38.0" fill="#37DE1B" transform="matrix(1.00, 0.00, -0.00, -1.00, 216.7, 535.3)">A</text><text xml:space="preserve" font-family="Monaco,Monaco" font-size="38.0" fill="#37DE1B" transform="matrix(1.00, 0.00, -0.00, -1.00, 239.5, 535.3)">R</text><text xml:space="preserve" font-family="Monaco,Monaco" font-size="38.0" fill="#37DE1B" transform="matrix(1.00, 0.00, -0.00, -1.00, 262.3, 535.3)"> </text><text xml:space="preserve" font-family="Monaco,Monaco" font-size="38.0" fill="#37DE1B" transform="matrix(1.00, 0.00, -0.00, -1.00, 285.1, 535.3)">i</text><text xml:space="preserve" font-family="Monaco,Monaco" font-size="38.0" fill="#37DE1B" transform="matrix(1.00, 0.00, -0.00, -1.00, 307.9, 535.3)">n</text><text xml:space="preserve" font-family="Monaco,Monaco" font-size="38.0" fill="#37DE1B" transform="matrix(1.00, 0.00, -0.00, -1.00, 330.7, 535.3)"> </text><text xml:space="preserve" font-family="Monaco,Monaco" font-size="38.0" fill="#37DE1B" transform="matrix(1.00, 0.00, -0.00, -1.00, 353.5, 535.3)">{</text><text xml:space="preserve" font-family="Monaco,Monaco" font-size="38.0" fill="#37DE1B" transform="matrix(1.00, 0.00, -0.00, -1.00, 376.3, 535.3)">1</text><text xml:space="preserve" font-family="Monaco,Monaco" font-size="38.0" fill="#37DE1B" transform="matrix(1.00, 0.00, -0.00, -1.00, 399.1, 535.3)">.</text><text xml:space="preserve" font-family="Monaco,Monaco" font-size="38.0" fill="#37DE1B" transform="matrix(1.00, 0.00, -0.00, -1.00, 421.9, 535.3)">.</text><text xml:space="preserve" font-family="Monaco,Monaco" font-size="38.0" fill="#37DE1B" transform="matrix(1.00, 0.00, -0.00, -1.00, 444.7, 535.3)">1</text><text xml:space="preserve" font-family="Monaco,Monaco" font-size="38.0" fill="#37DE1B" transform="matrix(1.00, 0.00, -0.00, -1.00, 467.5, 535.3)">0</text><text xml:space="preserve" font-family="Monaco,Monaco" font-size="38.0" fill="#37DE1B" transform="matrix(1.00, 0.00, -0.00, -1.00, 490.3, 535.3)">}</text><text xml:space="preserve" font-family="Monaco,Monaco" font-size="38.0" fill="#37DE1B" transform="matrix(1.00, 0.00, -0.00, -1.00, 513.2, 535.3)">;</text><text xml:space="preserve" font-family="Monaco,Monaco" font-size="38.0" fill="#37DE1B" transform="matrix(1.00, 0.00, -0.00, -1.00, 536.0, 535.3)"> </text><text xml:space="preserve" font-family="Monaco,Monaco" font-size="38.0" fill="#37DE1B" transform="matrix(1.00, 0.00, -0.00, -1.00, 558.8, 535.3)">d</text><text xml:space="preserve" font-family="Monaco,Monaco" font-size="38.0" fill="#37DE1B" transform="matrix(1.00, 0.00, -0.00, -1.00, 581.6, 535.3)">o</text><text xml:space="preserve" font-family="Monaco,Monaco" font-size="38.0" fill="#37DE1B" transform="matrix(1.00, 0.00, -0.00, -1.00, 604.3, 535.3)">	</text><text xml:space="preserve" font-family="Monaco,Monaco" font-size="38.0" fill="#37DE1B" transform="matrix(1.00, 0.00, -0.00, -1.00, 57.0, 484.3)">&gt;</text><text xml:space="preserve" font-family="Monaco,Monaco" font-size="38.0" fill="#37DE1B" transform="matrix(1.00, 0.00, -0.00, -1.00, 79.8, 484.3)"> </text><text xml:space="preserve" font-family="Monaco,Monaco" font-size="38.0" fill="#37DE1B" transform="matrix(1.00, 0.00, -0.00, -1.00, 102.6, 484.3)">e</text><text xml:space="preserve" font-family="Monaco,Monaco" font-size="38.0" fill="#37DE1B" transform="matrix(1.00, 0.00, -0.00, -1.00, 125.4, 484.3)">c</text><text xml:space="preserve" font-family="Monaco,Monaco" font-size="38.0" fill="#37DE1B" transform="matrix(1.00, 0.00, -0.00, -1.00, 148.2, 484.3)">h</text><text xml:space="preserve" font-family="Monaco,Monaco" font-size="38.0" fill="#37DE1B" transform="matrix(1.00, 0.00, -0.00, -1.00, 171.0, 484.3)">o</text><text xml:space="preserve" font-family="Monaco,Monaco" font-size="38.0" fill="#37DE1B" transform="matrix(1.00, 0.00, -0.00, -1.00, 193.8, 484.3)"> </text><text xml:space="preserve" font-family="Monaco,Monaco" font-size="38.0" fill="#37DE1B" transform="matrix(1.00, 0.00, -0.00, -1.00, 216.7, 484.3)">$</text><text xml:space="preserve" font-family="Monaco,Monaco" font-size="38.0" fill="#37DE1B" transform="matrix(1.00, 0.00, -0.00, -1.00, 239.5, 484.3)">V</text><text xml:space="preserve" font-family="Monaco,Monaco" font-size="38.0" fill="#37DE1B" transform="matrix(1.00, 0.00, -0.00, -1.00, 262.3, 484.3)">A</text><text xml:space="preserve" font-family="Monaco,Monaco" font-size="38.0" fill="#37DE1B" transform="matrix(1.00, 0.00, -0.00, -1.00, 285.1, 484.3)">R</text><text xml:space="preserve" font-family="Monaco,Monaco" font-size="38.0" fill="#37DE1B" transform="matrix(1.00, 0.00, -0.00, -1.00, 307.9, 484.3)">	</text><text xml:space="preserve" font-family="Monaco,Monaco" font-size="38.0" fill="#37DE1B" transform="matrix(1.00, 0.00, -0.00, -1.00, 57.0, 433.3)">&gt;</text><text xml:space="preserve" font-family="Monaco,Monaco" font-size="38.0" fill="#37DE1B" transform="matrix(1.00, 0.00, -0.00, -1.00, 79.8, 433.3)"> </text><text xml:space="preserve" font-family="Monaco,Monaco" font-size="38.0" fill="#37DE1B" transform="matrix(1.00, 0.00, -0.00, -1.00, 102.6, 433.3)">d</text><text xml:space="preserve" font-family="Monaco,Monaco" font-size="38.0" fill="#37DE1B" transform="matrix(1.00, 0.00, -0.00, -1.00, 125.4, 433.3)">o</text><text xml:space="preserve" font-family="Monaco,Monaco" font-size="38.0" fill="#37DE1B" transform="matrix(1.00, 0.00, -0.00, -1.00, 148.2, 433.3)">n</text><text xml:space="preserve" font-family="Monaco,Monaco" font-size="38.0" fill="#37DE1B" transform="matrix(1.00, 0.00, -0.00, -1.00, 171.0, 433.3)">e</text><text xml:space="preserve" font-family="Monaco,Monaco" font-size="38.0" fill="#37DE1B" transform="matrix(1.00, 0.00, -0.00, -1.00, 193.8, 433.3)">	</text><text xml:space="preserve" font-family="Monaco,Monaco" font-size="38.0" fill="#37DE1B" transform="matrix(1.00, 0.00, -0.00, -1.00, 57.0, 382.3)">1</text><text xml:space="preserve" font-family="Monaco,Monaco" font-size="38.0" fill="#37DE1B" transform="matrix(1.00, 0.00, -0.00, -1.00, 79.8, 382.3)">0</text><text xml:space="preserve" font-family="Monaco,Monaco" font-size="38.0" fill="#37DE1B" transform="matrix(1.00, 0.00, -0.00, -1.00, 102.6, 382.3)">	</text><text xml:space="preserve" font-family="Monaco,Monaco" font-size="38.0" fill="#37DE1B" transform="matrix(1.00, 0.00, -0.00, -1.00, 57.0, 331.3)">9</text><text xml:space="preserve" font-family="Monaco,Monaco" font-size="38.0" fill="#37DE1B" transform="matrix(1.00, 0.00, -0.00, -1.00, 79.8, 331.3)">	</text><text xml:space="preserve" font-family="Monaco,Monaco" font-size="38.0" fill="#37DE1B" transform="matrix(1.00, 0.00, -0.00, -1.00, 57.0, 280.3)">8</text><text xml:space="preserve" font-family="Monaco,Monaco" font-size="38.0" fill="#37DE1B" transform="matrix(1.00, 0.00, -0.00, -1.00, 79.8, 280.3)">	</text><text xml:space="preserve" font-family="Monaco,Monaco" font-size="38.0" fill="#37DE1B" transform="matrix(1.00, 0.00, -0.00, -1.00, 57.0, 229.3)">…</text><text xml:space="preserve" font-family="Monaco,Monaco" font-size="38.0" fill="#37DE1B" transform="matrix(1.00, 0.00, -0.00, -1.00, 79.8, 229.3)">	</text><text xml:space="preserve" font-family="Monaco,Monaco" font-size="38.0" fill="#37DE1B" transform="matrix(1.00, 0.00, -0.00, -1.00, 57.0, 178.3)">2</text><text xml:space="preserve" font-family="Monaco,Monaco" font-size="38.0" fill="#37DE1B" transform="matrix(1.00, 0.00, -0.00, -1.00, 79.8, 178.3)">	</text><text xml:space="preserve" font-family="Monaco,Monaco" font-size="38.0" fill="#37DE1B" transform="matrix(1.00, 0.00, -0.00, -1.00, 57.0, 127.3)">1</text></g></svg>