<?xml version="1.0" encoding="UTF-8" standalone="no"?><svg xmlns="http://www.w3.org/2000/svg" xmlns:xlink="http://www.w3.org/1999/xlink" clip-rule="evenodd" stroke-miterlimit="10" viewBox="0 0 1024 768"><desc>SVG generated by Keynote</desc><defs></defs><g transform="matrix(1.00, 0.00, -0.00, -1.00, 0.0, 768.0)"><path d="M 0.0 768.0 L 1024.0 768.0 L 1024.0 0.0 L 0.0 0.0 Z M 0.0 768.0 " fill="#000000"></path><image xlink:href="../../ACF26528-510F-4087-92A7-D9431E4A7675/assets/C07D05C049E9C3A813AD52BFC7182A2D.png" width="983.00" height="584.00" transform="matrix(1.00, 0.00, -0.00, -1.00, 10.2, 664.7)" opacity="0.75"></image><image xlink:href="../../ACF26528-510F-4087-92A7-D9431E4A7675/assets/B8B89F8D2E49298F363D8341A9D067FB.png" width="963.00" height="564.00" transform="matrix(1.00, 0.00, -0.00, -1.00, 30.0, 666.0)"></image><text xml:space="preserve" font-family="LucidaGrande,Lucida Grande" font-size="22.0" fill="#FEFFFE" transform="matrix(1.00, 0.00, -0.00, -1.00, 332.4, 11.6)">F</text><text xml:space="preserve" font-family="LucidaGrande,Lucida Grande" font-size="22.0" fill="#FEFFFE" transform="matrix(1.00, 0.00, -0.00, -1.00, 344.2, 11.6)">e</text><text xml:space="preserve" font-family="LucidaGrande,Lucida Grande" font-size="22.0" fill="#FEFFFE" transform="matrix(1.00, 0.00, -0.00, -1.00, 356.4, 11.6)">e</text><text xml:space="preserve" font-family="LucidaGrande,Lucida Grande" font-size="22.0" fill="#FEFFFE" transform="matrix(1.00, 0.00, -0.00, -1.00, 368.7, 11.6)">d</text><text xml:space="preserve" font-family="LucidaGrande,Lucida Grande" font-size="22.0" fill="#FEFFFE" transform="matrix(1.00, 0.00, -0.00, -1.00, 382.5, 11.6)">b</text><text xml:space="preserve" font-family="LucidaGrande,Lucida Grande" font-size="22.0" fill="#FEFFFE" transform="matrix(1.00, 0.00, -0.00, -1.00, 396.4, 11.6)">a</text><text xml:space="preserve" font-family="LucidaGrande,Lucida Grande" font-size="22.0" fill="#FEFFFE" transform="matrix(1.00, 0.00, -0.00, -1.00, 408.5, 11.6)">c</text><text xml:space="preserve" font-family="LucidaGrande,Lucida Grande" font-size="22.0" fill="#FEFFFE" transform="matrix(1.00, 0.00, -0.00, -1.00, 419.8, 11.6)">k</text><text xml:space="preserve" font-family="LucidaGrande,Lucida Grande" font-size="22.0" fill="#FEFFFE" transform="matrix(1.00, 0.00, -0.00, -1.00, 432.7, 11.6)">:</text><text xml:space="preserve" font-family="LucidaGrande,Lucida Grande" font-size="22.0" fill="#FEFFFE" transform="matrix(1.00, 0.00, -0.00, -1.00, 439.6, 11.6)"> </text><text xml:space="preserve" font-family="LucidaGrande,Lucida Grande" font-size="22.0" fill="#FEFFFE" transform="matrix(1.00, 0.00, -0.00, -1.00, 446.6, 11.6)">h</text><text xml:space="preserve" font-family="LucidaGrande,Lucida Grande" font-size="22.0" fill="#FEFFFE" transform="matrix(1.00, 0.00, -0.00, -1.00, 460.2, 11.6)">t</text><text xml:space="preserve" font-family="LucidaGrande,Lucida Grande" font-size="22.0" fill="#FEFFFE" transform="matrix(1.00, 0.00, -0.00, -1.00, 468.4, 11.6)">t</text><text xml:space="preserve" font-family="LucidaGrande,Lucida Grande" font-size="22.0" fill="#FEFFFE" transform="matrix(1.00, 0.00, -0.00, -1.00, 476.7, 11.6)">p</text><text xml:space="preserve" font-family="LucidaGrande,Lucida Grande" font-size="22.0" fill="#FEFFFE" transform="matrix(1.00, 0.00, -0.00, -1.00, 490.5, 11.6)">:</text><text xml:space="preserve" font-family="LucidaGrande,Lucida Grande" font-size="22.0" fill="#FEFFFE" transform="matrix(1.00, 0.00, -0.00, -1.00, 497.5, 11.6)">/</text><text xml:space="preserve" font-family="LucidaGrande,Lucida Grande" font-size="22.0" fill="#FEFFFE" transform="matrix(1.00, 0.00, -0.00, -1.00, 509.0, 11.6)">/</text><text xml:space="preserve" font-family="LucidaGrande,Lucida Grande" font-size="22.0" fill="#FEFFFE" transform="matrix(1.00, 0.00, -0.00, -1.00, 520.6, 11.6)">j</text><text xml:space="preserve" font-family="LucidaGrande,Lucida Grande" font-size="22.0" fill="#FEFFFE" transform="matrix(1.00, 0.00, -0.00, -1.00, 527.3, 11.6)">.</text><text xml:space="preserve" font-family="LucidaGrande,Lucida Grande" font-size="22.0" fill="#FEFFFE" transform="matrix(1.00, 0.00, -0.00, -1.00, 534.3, 11.6)">m</text><text xml:space="preserve" font-family="LucidaGrande,Lucida Grande" font-size="22.0" fill="#FEFFFE" transform="matrix(1.00, 0.00, -0.00, -1.00, 554.8, 11.6)">p</text><text xml:space="preserve" font-family="LucidaGrande,Lucida Grande" font-size="22.0" fill="#FEFFFE" transform="matrix(1.00, 0.00, -0.00, -1.00, 568.6, 11.6)">/</text><text xml:space="preserve" font-family="LucidaGrande,Lucida Grande" font-size="22.0" fill="#FEFFFE" transform="matrix(1.00, 0.00, -0.00, -1.00, 580.2, 11.6)">p</text><text xml:space="preserve" font-family="LucidaGrande,Lucida Grande" font-size="22.0" fill="#FEFFFE" transform="matrix(1.00, 0.00, -0.00, -1.00, 594.0, 11.6)">s</text><text xml:space="preserve" font-family="LucidaGrande,Lucida Grande" font-size="22.0" fill="#FEFFFE" transform="matrix(1.00, 0.00, -0.00, -1.00, 605.3, 11.6)">u</text><text xml:space="preserve" font-family="LucidaGrande,Lucida Grande" font-size="22.0" fill="#FEFFFE" transform="matrix(1.00, 0.00, -0.00, -1.00, 618.9, 11.6)">m</text><text xml:space="preserve" font-family="LucidaGrande,Lucida Grande" font-size="22.0" fill="#FEFFFE" transform="matrix(1.00, 0.00, -0.00, -1.00, 639.4, 11.6)">a</text><text xml:space="preserve" font-family="LucidaGrande,Lucida Grande" font-size="22.0" fill="#FEFFFE" transform="matrix(1.00, 0.00, -0.00, -1.00, 651.6, 11.6)">c</text><text xml:space="preserve" font-family="LucidaGrande,Lucida Grande" font-size="22.0" fill="#FEFFFE" transform="matrix(1.00, 0.00, -0.00, -1.00, 662.9, 11.6)">1</text><text xml:space="preserve" font-family="LucidaGrande,Lucida Grande" font-size="22.0" fill="#FEFFFE" transform="matrix(1.00, 0.00, -0.00, -1.00, 676.8, 11.6)">3</text><text xml:space="preserve" font-family="Monaco,Monaco" font-size="42.0" fill="#37DE1B" transform="matrix(1.00, 0.00, -0.00, -1.00, 57.2, 596.3)">$</text><text xml:space="preserve" font-family="Monaco,Monaco" font-size="42.0" fill="#37DE1B" transform="matrix(1.00, 0.00, -0.00, -1.00, 82.4, 596.3)"> </text><text xml:space="preserve" font-family="Monaco,Monaco" font-size="42.0" fill="#37DE1B" transform="matrix(1.00, 0.00, -0.00, -1.00, 107.6, 596.3)">f</text><text xml:space="preserve" font-family="Monaco,Monaco" font-size="42.0" fill="#37DE1B" transform="matrix(1.00, 0.00, -0.00, -1.00, 132.8, 596.3)">o</text><text xml:space="preserve" font-family="Monaco,Monaco" font-size="42.0" fill="#37DE1B" transform="matrix(1.00, 0.00, -0.00, -1.00, 158.0, 596.3)">r</text><text xml:space="preserve" font-family="Monaco,Monaco" font-size="42.0" fill="#37DE1B" transform="matrix(1.00, 0.00, -0.00, -1.00, 183.2, 596.3)"> </text><text xml:space="preserve" font-family="Monaco,Monaco" font-size="42.0" fill="#37DE1B" transform="matrix(1.00, 0.00, -0.00, -1.00, 208.4, 596.3)">i</text><text xml:space="preserve" font-family="Monaco,Monaco" font-size="42.0" fill="#37DE1B" transform="matrix(1.00, 0.00, -0.00, -1.00, 233.6, 596.3)"> </text><text xml:space="preserve" font-family="Monaco,Monaco" font-size="42.0" fill="#37DE1B" transform="matrix(1.00, 0.00, -0.00, -1.00, 258.8, 596.3)">i</text><text xml:space="preserve" font-family="Monaco,Monaco" font-size="42.0" fill="#37DE1B" transform="matrix(1.00, 0.00, -0.00, -1.00, 284.1, 596.3)">n</text><text xml:space="preserve" font-family="Monaco,Monaco" font-size="42.0" fill="#37DE1B" transform="matrix(1.00, 0.00, -0.00, -1.00, 309.3, 596.3)"> </text><text xml:space="preserve" font-family="Monaco,Monaco" font-size="42.0" fill="#37DE1B" transform="matrix(1.00, 0.00, -0.00, -1.00, 334.5, 596.3)">1</text><text xml:space="preserve" font-family="Monaco,Monaco" font-size="42.0" fill="#37DE1B" transform="matrix(1.00, 0.00, -0.00, -1.00, 359.7, 596.3)"> </text><text xml:space="preserve" font-family="Monaco,Monaco" font-size="42.0" fill="#37DE1B" transform="matrix(1.00, 0.00, -0.00, -1.00, 384.9, 596.3)">2</text><text xml:space="preserve" font-family="Monaco,Monaco" font-size="42.0" fill="#37DE1B" transform="matrix(1.00, 0.00, -0.00, -1.00, 410.1, 596.3)"> </text><text xml:space="preserve" font-family="Monaco,Monaco" font-size="42.0" fill="#37DE1B" transform="matrix(1.00, 0.00, -0.00, -1.00, 435.3, 596.3)">3</text><text xml:space="preserve" font-family="Monaco,Monaco" font-size="42.0" fill="#37DE1B" transform="matrix(1.00, 0.00, -0.00, -1.00, 460.5, 596.3)">;</text><text xml:space="preserve" font-family="Monaco,Monaco" font-size="42.0" fill="#37DE1B" transform="matrix(1.00, 0.00, -0.00, -1.00, 485.7, 596.3)"> </text><text xml:space="preserve" font-family="Monaco,Monaco" font-size="42.0" fill="#37DE1B" transform="matrix(1.00, 0.00, -0.00, -1.00, 510.9, 596.3)">d</text><text xml:space="preserve" font-family="Monaco,Monaco" font-size="42.0" fill="#37DE1B" transform="matrix(1.00, 0.00, -0.00, -1.00, 536.1, 596.3)">o</text><text xml:space="preserve" font-family="Monaco,Monaco" font-size="42.0" fill="#37DE1B" transform="matrix(1.00, 0.00, -0.00, -1.00, 561.3, 596.3)">	</text><text xml:space="preserve" font-family="Monaco,Monaco" font-size="42.0" fill="#37DE1B" transform="matrix(1.00, 0.00, -0.00, -1.00, 111.2, 539.3)">e</text><text xml:space="preserve" font-family="Monaco,Monaco" font-size="42.0" fill="#37DE1B" transform="matrix(1.00, 0.00, -0.00, -1.00, 136.4, 539.3)">c</text><text xml:space="preserve" font-family="Monaco,Monaco" font-size="42.0" fill="#37DE1B" transform="matrix(1.00, 0.00, -0.00, -1.00, 161.6, 539.3)">h</text><text xml:space="preserve" font-family="Monaco,Monaco" font-size="42.0" fill="#37DE1B" transform="matrix(1.00, 0.00, -0.00, -1.00, 186.8, 539.3)">o</text><text xml:space="preserve" font-family="Monaco,Monaco" font-size="42.0" fill="#37DE1B" transform="matrix(1.00, 0.00, -0.00, -1.00, 212.0, 539.3)"> </text><text xml:space="preserve" font-family="Monaco,Monaco" font-size="42.0" fill="#37DE1B" transform="matrix(1.00, 0.00, -0.00, -1.00, 237.2, 539.3)">"</text><text xml:space="preserve" font-family="Monaco,Monaco" font-size="42.0" fill="#37DE1B" transform="matrix(1.00, 0.00, -0.00, -1.00, 262.4, 539.3)">$</text><text xml:space="preserve" font-family="Monaco,Monaco" font-size="42.0" fill="#37DE1B" transform="matrix(1.00, 0.00, -0.00, -1.00, 287.6, 539.3)">i</text><text xml:space="preserve" font-family="Monaco,Monaco" font-size="42.0" fill="#37DE1B" transform="matrix(1.00, 0.00, -0.00, -1.00, 312.8, 539.3)">"</text><text xml:space="preserve" font-family="Monaco,Monaco" font-size="42.0" fill="#37DE1B" transform="matrix(1.00, 0.00, -0.00, -1.00, 338.1, 539.3)">	</text><text xml:space="preserve" font-family="Monaco,Monaco" font-size="42.0" fill="#37DE1B" transform="matrix(1.00, 0.00, -0.00, -1.00, 57.2, 482.3)"> </text><text xml:space="preserve" font-family="Monaco,Monaco" font-size="42.0" fill="#37DE1B" transform="matrix(1.00, 0.00, -0.00, -1.00, 82.4, 482.3)"> </text><text xml:space="preserve" font-family="Monaco,Monaco" font-size="42.0" fill="#37DE1B" transform="matrix(1.00, 0.00, -0.00, -1.00, 107.6, 482.3)"> </text><text xml:space="preserve" font-family="Monaco,Monaco" font-size="42.0" fill="#37DE1B" transform="matrix(1.00, 0.00, -0.00, -1.00, 132.8, 482.3)">d</text><text xml:space="preserve" font-family="Monaco,Monaco" font-size="42.0" fill="#37DE1B" transform="matrix(1.00, 0.00, -0.00, -1.00, 158.0, 482.3)">o</text><text xml:space="preserve" font-family="Monaco,Monaco" font-size="42.0" fill="#37DE1B" transform="matrix(1.00, 0.00, -0.00, -1.00, 183.2, 482.3)">n</text><text xml:space="preserve" font-family="Monaco,Monaco" font-size="42.0" fill="#37DE1B" transform="matrix(1.00, 0.00, -0.00, -1.00, 208.4, 482.3)">e</text><text xml:space="preserve" font-family="Monaco,Monaco" font-size="42.0" fill="#37DE1B" transform="matrix(1.00, 0.00, -0.00, -1.00, 233.6, 482.3)">	</text><text xml:space="preserve" font-family="Monaco,Monaco" font-size="42.0" fill="#37DE1B" transform="matrix(1.00, 0.00, -0.00, -1.00, 57.2, 425.3)">1</text><text xml:space="preserve" font-family="Monaco,Monaco" font-size="42.0" fill="#37DE1B" transform="matrix(1.00, 0.00, -0.00, -1.00, 82.4, 425.3)">	</text><text xml:space="preserve" font-family="Monaco,Monaco" font-size="42.0" fill="#37DE1B" transform="matrix(1.00, 0.00, -0.00, -1.00, 57.2, 368.3)">2</text><text xml:space="preserve" font-family="Monaco,Monaco" font-size="42.0" fill="#37DE1B" transform="matrix(1.00, 0.00, -0.00, -1.00, 82.4, 368.3)">	</text><text xml:space="preserve" font-family="Monaco,Monaco" font-size="42.0" fill="#37DE1B" transform="matrix(1.00, 0.00, -0.00, -1.00, 57.2, 311.3)">3</text><text xml:space="preserve" font-family="Monaco,Monaco" font-size="42.0" fill="#37DE1B" transform="matrix(1.00, 0.00, -0.00, -1.00, 82.4, 311.3)">	</text><text xml:space="preserve" font-family="Monaco,Monaco" font-size="42.0" fill="#37DE1B" transform="matrix(1.00, 0.00, -0.00, -1.00, 57.2, 197.3)">$</text><text xml:space="preserve" font-family="Monaco,Monaco" font-size="42.0" fill="#37DE1B" transform="matrix(1.00, 0.00, -0.00, -1.00, 82.4, 197.3)"> </text><text xml:space="preserve" font-family="Monaco,Monaco" font-size="42.0" fill="#37DE1B" transform="matrix(1.00, 0.00, -0.00, -1.00, 107.6, 197.3)">	</text></g></svg>