<?xml version="1.0" encoding="UTF-8" standalone="no"?><svg xmlns="http://www.w3.org/2000/svg" xmlns:xlink="http://www.w3.org/1999/xlink" clip-rule="evenodd" stroke-miterlimit="10" viewBox="0 0 1024 768"><desc>SVG generated by Keynote</desc><defs></defs><g transform="matrix(1.00, 0.00, -0.00, -1.00, 0.0, 768.0)"><path d="M 0.0 768.0 L 1024.0 768.0 L 1024.0 0.0 L 0.0 0.0 Z M 0.0 768.0 " fill="#000000"></path><image xlink:href="../../ACF26528-510F-4087-92A7-D9431E4A7675/assets/C07D05C049E9C3A813AD52BFC7182A2D.png" width="983.00" height="584.00" transform="matrix(1.00, 0.00, -0.00, -1.00, 10.2, 664.7)" opacity="0.75"></image><image xlink:href="../../ACF26528-510F-4087-92A7-D9431E4A7675/assets/B8B89F8D2E49298F363D8341A9D067FB.png" width="963.00" height="564.00" transform="matrix(1.00, 0.00, -0.00, -1.00, 30.0, 666.0)"></image><text xml:space="preserve" font-family="LucidaGrande,Lucida Grande" font-size="22.0" fill="#FEFFFE" transform="matrix(1.00, 0.00, -0.00, -1.00, 332.4, 11.6)">F</text><text xml:space="preserve" font-family="LucidaGrande,Lucida Grande" font-size="22.0" fill="#FEFFFE" transform="matrix(1.00, 0.00, -0.00, -1.00, 344.2, 11.6)">e</text><text xml:space="preserve" font-family="LucidaGrande,Lucida Grande" font-size="22.0" fill="#FEFFFE" transform="matrix(1.00, 0.00, -0.00, -1.00, 356.4, 11.6)">e</text><text xml:space="preserve" font-family="LucidaGrande,Lucida Grande" font-size="22.0" fill="#FEFFFE" transform="matrix(1.00, 0.00, -0.00, -1.00, 368.7, 11.6)">d</text><text xml:space="preserve" font-family="LucidaGrande,Lucida Grande" font-size="22.0" fill="#FEFFFE" transform="matrix(1.00, 0.00, -0.00, -1.00, 382.5, 11.6)">b</text><text xml:space="preserve" font-family="LucidaGrande,Lucida Grande" font-size="22.0" fill="#FEFFFE" transform="matrix(1.00, 0.00, -0.00, -1.00, 396.4, 11.6)">a</text><text xml:space="preserve" font-family="LucidaGrande,Lucida Grande" font-size="22.0" fill="#FEFFFE" transform="matrix(1.00, 0.00, -0.00, -1.00, 408.5, 11.6)">c</text><text xml:space="preserve" font-family="LucidaGrande,Lucida Grande" font-size="22.0" fill="#FEFFFE" transform="matrix(1.00, 0.00, -0.00, -1.00, 419.8, 11.6)">k</text><text xml:space="preserve" font-family="LucidaGrande,Lucida Grande" font-size="22.0" fill="#FEFFFE" transform="matrix(1.00, 0.00, -0.00, -1.00, 432.7, 11.6)">:</text><text xml:space="preserve" font-family="LucidaGrande,Lucida Grande" font-size="22.0" fill="#FEFFFE" transform="matrix(1.00, 0.00, -0.00, -1.00, 439.6, 11.6)"> </text><text xml:space="preserve" font-family="LucidaGrande,Lucida Grande" font-size="22.0" fill="#FEFFFE" transform="matrix(1.00, 0.00, -0.00, -1.00, 446.6, 11.6)">h</text><text xml:space="preserve" font-family="LucidaGrande,Lucida Grande" font-size="22.0" fill="#FEFFFE" transform="matrix(1.00, 0.00, -0.00, -1.00, 460.2, 11.6)">t</text><text xml:space="preserve" font-family="LucidaGrande,Lucida Grande" font-size="22.0" fill="#FEFFFE" transform="matrix(1.00, 0.00, -0.00, -1.00, 468.4, 11.6)">t</text><text xml:space="preserve" font-family="LucidaGrande,Lucida Grande" font-size="22.0" fill="#FEFFFE" transform="matrix(1.00, 0.00, -0.00, -1.00, 476.7, 11.6)">p</text><text xml:space="preserve" font-family="LucidaGrande,Lucida Grande" font-size="22.0" fill="#FEFFFE" transform="matrix(1.00, 0.00, -0.00, -1.00, 490.5, 11.6)">:</text><text xml:space="preserve" font-family="LucidaGrande,Lucida Grande" font-size="22.0" fill="#FEFFFE" transform="matrix(1.00, 0.00, -0.00, -1.00, 497.5, 11.6)">/</text><text xml:space="preserve" font-family="LucidaGrande,Lucida Grande" font-size="22.0" fill="#FEFFFE" transform="matrix(1.00, 0.00, -0.00, -1.00, 509.0, 11.6)">/</text><text xml:space="preserve" font-family="LucidaGrande,Lucida Grande" font-size="22.0" fill="#FEFFFE" transform="matrix(1.00, 0.00, -0.00, -1.00, 520.6, 11.6)">j</text><text xml:space="preserve" font-family="LucidaGrande,Lucida Grande" font-size="22.0" fill="#FEFFFE" transform="matrix(1.00, 0.00, -0.00, -1.00, 527.3, 11.6)">.</text><text xml:space="preserve" font-family="LucidaGrande,Lucida Grande" font-size="22.0" fill="#FEFFFE" transform="matrix(1.00, 0.00, -0.00, -1.00, 534.3, 11.6)">m</text><text xml:space="preserve" font-family="LucidaGrande,Lucida Grande" font-size="22.0" fill="#FEFFFE" transform="matrix(1.00, 0.00, -0.00, -1.00, 554.8, 11.6)">p</text><text xml:space="preserve" font-family="LucidaGrande,Lucida Grande" font-size="22.0" fill="#FEFFFE" transform="matrix(1.00, 0.00, -0.00, -1.00, 568.6, 11.6)">/</text><text xml:space="preserve" font-family="LucidaGrande,Lucida Grande" font-size="22.0" fill="#FEFFFE" transform="matrix(1.00, 0.00, -0.00, -1.00, 580.2, 11.6)">p</text><text xml:space="preserve" font-family="LucidaGrande,Lucida Grande" font-size="22.0" fill="#FEFFFE" transform="matrix(1.00, 0.00, -0.00, -1.00, 594.0, 11.6)">s</text><text xml:space="preserve" font-family="LucidaGrande,Lucida Grande" font-size="22.0" fill="#FEFFFE" transform="matrix(1.00, 0.00, -0.00, -1.00, 605.3, 11.6)">u</text><text xml:space="preserve" font-family="LucidaGrande,Lucida Grande" font-size="22.0" fill="#FEFFFE" transform="matrix(1.00, 0.00, -0.00, -1.00, 618.9, 11.6)">m</text><text xml:space="preserve" font-family="LucidaGrande,Lucida Grande" font-size="22.0" fill="#FEFFFE" transform="matrix(1.00, 0.00, -0.00, -1.00, 639.4, 11.6)">a</text><text xml:space="preserve" font-family="LucidaGrande,Lucida Grande" font-size="22.0" fill="#FEFFFE" transform="matrix(1.00, 0.00, -0.00, -1.00, 651.6, 11.6)">c</text><text xml:space="preserve" font-family="LucidaGrande,Lucida Grande" font-size="22.0" fill="#FEFFFE" transform="matrix(1.00, 0.00, -0.00, -1.00, 662.9, 11.6)">1</text><text xml:space="preserve" font-family="LucidaGrande,Lucida Grande" font-size="22.0" fill="#FEFFFE" transform="matrix(1.00, 0.00, -0.00, -1.00, 676.8, 11.6)">3</text><text xml:space="preserve" font-family="Monaco,Monaco" font-size="42.0" fill="#37DE1B" transform="matrix(1.00, 0.00, -0.00, -1.00, 57.2, 567.8)">$</text><text xml:space="preserve" font-family="Monaco,Monaco" font-size="42.0" fill="#37DE1B" transform="matrix(1.00, 0.00, -0.00, -1.00, 82.4, 567.8)"> </text><text xml:space="preserve" font-family="Monaco,Monaco" font-size="42.0" fill="#37DE1B" transform="matrix(1.00, 0.00, -0.00, -1.00, 107.6, 567.8)">l</text><text xml:space="preserve" font-family="Monaco,Monaco" font-size="42.0" fill="#37DE1B" transform="matrix(1.00, 0.00, -0.00, -1.00, 132.8, 567.8)">s</text><text xml:space="preserve" font-family="Monaco,Monaco" font-size="42.0" fill="#37DE1B" transform="matrix(1.00, 0.00, -0.00, -1.00, 158.0, 567.8)">	</text><text xml:space="preserve" font-family="Monaco,Monaco" font-size="42.0" fill="#37DE1B" transform="matrix(1.00, 0.00, -0.00, -1.00, 57.2, 510.8)"> </text><text xml:space="preserve" font-family="Monaco,Monaco" font-size="42.0" fill="#37DE1B" transform="matrix(1.00, 0.00, -0.00, -1.00, 82.4, 510.8)">a</text><text xml:space="preserve" font-family="Monaco,Monaco" font-size="42.0" fill="#37DE1B" transform="matrix(1.00, 0.00, -0.00, -1.00, 107.6, 510.8)">p</text><text xml:space="preserve" font-family="Monaco,Monaco" font-size="42.0" fill="#37DE1B" transform="matrix(1.00, 0.00, -0.00, -1.00, 132.8, 510.8)">p</text><text xml:space="preserve" font-family="Monaco,Monaco" font-size="42.0" fill="#37DE1B" transform="matrix(1.00, 0.00, -0.00, -1.00, 158.0, 510.8)">l</text><text xml:space="preserve" font-family="Monaco,Monaco" font-size="42.0" fill="#37DE1B" transform="matrix(1.00, 0.00, -0.00, -1.00, 183.2, 510.8)">e</text><text xml:space="preserve" font-family="Monaco,Monaco" font-size="42.0" fill="#37DE1B" transform="matrix(1.00, 0.00, -0.00, -1.00, 208.4, 510.8)">.</text><text xml:space="preserve" font-family="Monaco,Monaco" font-size="42.0" fill="#37DE1B" transform="matrix(1.00, 0.00, -0.00, -1.00, 233.6, 510.8)">s</text><text xml:space="preserve" font-family="Monaco,Monaco" font-size="42.0" fill="#37DE1B" transform="matrix(1.00, 0.00, -0.00, -1.00, 258.8, 510.8)">h</text><text xml:space="preserve" font-family="Monaco,Monaco" font-size="42.0" fill="#37DE1B" transform="matrix(1.00, 0.00, -0.00, -1.00, 284.1, 510.8)"> </text><text xml:space="preserve" font-family="Monaco,Monaco" font-size="42.0" fill="#37DE1B" transform="matrix(1.00, 0.00, -0.00, -1.00, 309.3, 510.8)"> </text><text xml:space="preserve" font-family="Monaco,Monaco" font-size="42.0" fill="#37DE1B" transform="matrix(1.00, 0.00, -0.00, -1.00, 334.5, 510.8)"> </text><text xml:space="preserve" font-family="Monaco,Monaco" font-size="42.0" fill="#37DE1B" transform="matrix(1.00, 0.00, -0.00, -1.00, 359.7, 510.8)"> </text><text xml:space="preserve" font-family="Monaco,Monaco" font-size="42.0" fill="#37DE1B" transform="matrix(1.00, 0.00, -0.00, -1.00, 384.9, 510.8)"> </text><text xml:space="preserve" font-family="Monaco,Monaco" font-size="42.0" fill="#37DE1B" transform="matrix(1.00, 0.00, -0.00, -1.00, 410.1, 510.8)"> </text><text xml:space="preserve" font-family="Monaco,Monaco" font-size="42.0" fill="#37DE1B" transform="matrix(1.00, 0.00, -0.00, -1.00, 435.3, 510.8)">s</text><text xml:space="preserve" font-family="Monaco,Monaco" font-size="42.0" fill="#37DE1B" transform="matrix(1.00, 0.00, -0.00, -1.00, 460.5, 510.8)">c</text><text xml:space="preserve" font-family="Monaco,Monaco" font-size="42.0" fill="#37DE1B" transform="matrix(1.00, 0.00, -0.00, -1.00, 485.7, 510.8)">r</text><text xml:space="preserve" font-family="Monaco,Monaco" font-size="42.0" fill="#37DE1B" transform="matrix(1.00, 0.00, -0.00, -1.00, 510.9, 510.8)">i</text><text xml:space="preserve" font-family="Monaco,Monaco" font-size="42.0" fill="#37DE1B" transform="matrix(1.00, 0.00, -0.00, -1.00, 536.1, 510.8)">p</text><text xml:space="preserve" font-family="Monaco,Monaco" font-size="42.0" fill="#37DE1B" transform="matrix(1.00, 0.00, -0.00, -1.00, 561.3, 510.8)">t</text><text xml:space="preserve" font-family="Monaco,Monaco" font-size="42.0" fill="#37DE1B" transform="matrix(1.00, 0.00, -0.00, -1.00, 586.6, 510.8)">1</text><text xml:space="preserve" font-family="Monaco,Monaco" font-size="42.0" fill="#37DE1B" transform="matrix(1.00, 0.00, -0.00, -1.00, 611.8, 510.8)">.</text><text xml:space="preserve" font-family="Monaco,Monaco" font-size="42.0" fill="#37DE1B" transform="matrix(1.00, 0.00, -0.00, -1.00, 637.0, 510.8)">s</text><text xml:space="preserve" font-family="Monaco,Monaco" font-size="42.0" fill="#37DE1B" transform="matrix(1.00, 0.00, -0.00, -1.00, 662.2, 510.8)">h</text><text xml:space="preserve" font-family="Monaco,Monaco" font-size="42.0" fill="#37DE1B" transform="matrix(1.00, 0.00, -0.00, -1.00, 687.4, 510.8)">	</text><text xml:space="preserve" font-family="Monaco,Monaco" font-size="42.0" fill="#37DE1B" transform="matrix(1.00, 0.00, -0.00, -1.00, 57.2, 453.8)"> </text><text xml:space="preserve" font-family="Monaco,Monaco" font-size="42.0" fill="#37DE1B" transform="matrix(1.00, 0.00, -0.00, -1.00, 82.4, 453.8)">b</text><text xml:space="preserve" font-family="Monaco,Monaco" font-size="42.0" fill="#37DE1B" transform="matrix(1.00, 0.00, -0.00, -1.00, 107.6, 453.8)">a</text><text xml:space="preserve" font-family="Monaco,Monaco" font-size="42.0" fill="#37DE1B" transform="matrix(1.00, 0.00, -0.00, -1.00, 132.8, 453.8)">n</text><text xml:space="preserve" font-family="Monaco,Monaco" font-size="42.0" fill="#37DE1B" transform="matrix(1.00, 0.00, -0.00, -1.00, 158.0, 453.8)">a</text><text xml:space="preserve" font-family="Monaco,Monaco" font-size="42.0" fill="#37DE1B" transform="matrix(1.00, 0.00, -0.00, -1.00, 183.2, 453.8)">n</text><text xml:space="preserve" font-family="Monaco,Monaco" font-size="42.0" fill="#37DE1B" transform="matrix(1.00, 0.00, -0.00, -1.00, 208.4, 453.8)">a</text><text xml:space="preserve" font-family="Monaco,Monaco" font-size="42.0" fill="#37DE1B" transform="matrix(1.00, 0.00, -0.00, -1.00, 233.6, 453.8)">.</text><text xml:space="preserve" font-family="Monaco,Monaco" font-size="42.0" fill="#37DE1B" transform="matrix(1.00, 0.00, -0.00, -1.00, 258.8, 453.8)">s</text><text xml:space="preserve" font-family="Monaco,Monaco" font-size="42.0" fill="#37DE1B" transform="matrix(1.00, 0.00, -0.00, -1.00, 284.1, 453.8)">h</text><text xml:space="preserve" font-family="Monaco,Monaco" font-size="42.0" fill="#37DE1B" transform="matrix(1.00, 0.00, -0.00, -1.00, 309.3, 453.8)"> </text><text xml:space="preserve" font-family="Monaco,Monaco" font-size="42.0" fill="#37DE1B" transform="matrix(1.00, 0.00, -0.00, -1.00, 334.5, 453.8)"> </text><text xml:space="preserve" font-family="Monaco,Monaco" font-size="42.0" fill="#37DE1B" transform="matrix(1.00, 0.00, -0.00, -1.00, 359.7, 453.8)"> </text><text xml:space="preserve" font-family="Monaco,Monaco" font-size="42.0" fill="#37DE1B" transform="matrix(1.00, 0.00, -0.00, -1.00, 384.9, 453.8)"> </text><text xml:space="preserve" font-family="Monaco,Monaco" font-size="42.0" fill="#37DE1B" transform="matrix(1.00, 0.00, -0.00, -1.00, 410.1, 453.8)"> </text><text xml:space="preserve" font-family="Monaco,Monaco" font-size="42.0" fill="#37DE1B" transform="matrix(1.00, 0.00, -0.00, -1.00, 435.3, 453.8)">s</text><text xml:space="preserve" font-family="Monaco,Monaco" font-size="42.0" fill="#37DE1B" transform="matrix(1.00, 0.00, -0.00, -1.00, 460.5, 453.8)">c</text><text xml:space="preserve" font-family="Monaco,Monaco" font-size="42.0" fill="#37DE1B" transform="matrix(1.00, 0.00, -0.00, -1.00, 485.7, 453.8)">r</text><text xml:space="preserve" font-family="Monaco,Monaco" font-size="42.0" fill="#37DE1B" transform="matrix(1.00, 0.00, -0.00, -1.00, 510.9, 453.8)">i</text><text xml:space="preserve" font-family="Monaco,Monaco" font-size="42.0" fill="#37DE1B" transform="matrix(1.00, 0.00, -0.00, -1.00, 536.1, 453.8)">p</text><text xml:space="preserve" font-family="Monaco,Monaco" font-size="42.0" fill="#37DE1B" transform="matrix(1.00, 0.00, -0.00, -1.00, 561.3, 453.8)">t</text><text xml:space="preserve" font-family="Monaco,Monaco" font-size="42.0" fill="#37DE1B" transform="matrix(1.00, 0.00, -0.00, -1.00, 586.6, 453.8)">2</text><text xml:space="preserve" font-family="Monaco,Monaco" font-size="42.0" fill="#37DE1B" transform="matrix(1.00, 0.00, -0.00, -1.00, 611.8, 453.8)">.</text><text xml:space="preserve" font-family="Monaco,Monaco" font-size="42.0" fill="#37DE1B" transform="matrix(1.00, 0.00, -0.00, -1.00, 637.0, 453.8)">s</text><text xml:space="preserve" font-family="Monaco,Monaco" font-size="42.0" fill="#37DE1B" transform="matrix(1.00, 0.00, -0.00, -1.00, 662.2, 453.8)">h</text><text xml:space="preserve" font-family="Monaco,Monaco" font-size="42.0" fill="#37DE1B" transform="matrix(1.00, 0.00, -0.00, -1.00, 687.3, 453.8)">	</text><text xml:space="preserve" font-family="Monaco,Monaco" font-size="42.0" fill="#37DE1B" transform="matrix(1.00, 0.00, -0.00, -1.00, 57.2, 396.8)"> </text><text xml:space="preserve" font-family="Monaco,Monaco" font-size="42.0" fill="#37DE1B" transform="matrix(1.00, 0.00, -0.00, -1.00, 82.4, 396.8)">c</text><text xml:space="preserve" font-family="Monaco,Monaco" font-size="42.0" fill="#37DE1B" transform="matrix(1.00, 0.00, -0.00, -1.00, 107.6, 396.8)">a</text><text xml:space="preserve" font-family="Monaco,Monaco" font-size="42.0" fill="#37DE1B" transform="matrix(1.00, 0.00, -0.00, -1.00, 132.8, 396.8)">t</text><text xml:space="preserve" font-family="Monaco,Monaco" font-size="42.0" fill="#37DE1B" transform="matrix(1.00, 0.00, -0.00, -1.00, 158.0, 396.8)">.</text><text xml:space="preserve" font-family="Monaco,Monaco" font-size="42.0" fill="#37DE1B" transform="matrix(1.00, 0.00, -0.00, -1.00, 183.2, 396.8)">s</text><text xml:space="preserve" font-family="Monaco,Monaco" font-size="42.0" fill="#37DE1B" transform="matrix(1.00, 0.00, -0.00, -1.00, 208.4, 396.8)">h</text><text xml:space="preserve" font-family="Monaco,Monaco" font-size="42.0" fill="#37DE1B" transform="matrix(1.00, 0.00, -0.00, -1.00, 233.6, 396.8)"> </text><text xml:space="preserve" font-family="Monaco,Monaco" font-size="42.0" fill="#37DE1B" transform="matrix(1.00, 0.00, -0.00, -1.00, 258.8, 396.8)"> </text><text xml:space="preserve" font-family="Monaco,Monaco" font-size="42.0" fill="#37DE1B" transform="matrix(1.00, 0.00, -0.00, -1.00, 284.1, 396.8)"> </text><text xml:space="preserve" font-family="Monaco,Monaco" font-size="42.0" fill="#37DE1B" transform="matrix(1.00, 0.00, -0.00, -1.00, 309.3, 396.8)"> </text><text xml:space="preserve" font-family="Monaco,Monaco" font-size="42.0" fill="#37DE1B" transform="matrix(1.00, 0.00, -0.00, -1.00, 334.5, 396.8)"> </text><text xml:space="preserve" font-family="Monaco,Monaco" font-size="42.0" fill="#37DE1B" transform="matrix(1.00, 0.00, -0.00, -1.00, 359.7, 396.8)"> </text><text xml:space="preserve" font-family="Monaco,Monaco" font-size="42.0" fill="#37DE1B" transform="matrix(1.00, 0.00, -0.00, -1.00, 384.9, 396.8)"> </text><text xml:space="preserve" font-family="Monaco,Monaco" font-size="42.0" fill="#37DE1B" transform="matrix(1.00, 0.00, -0.00, -1.00, 410.1, 396.8)"> </text><text xml:space="preserve" font-family="Monaco,Monaco" font-size="42.0" fill="#37DE1B" transform="matrix(1.00, 0.00, -0.00, -1.00, 435.3, 396.8)">s</text><text xml:space="preserve" font-family="Monaco,Monaco" font-size="42.0" fill="#37DE1B" transform="matrix(1.00, 0.00, -0.00, -1.00, 460.5, 396.8)">c</text><text xml:space="preserve" font-family="Monaco,Monaco" font-size="42.0" fill="#37DE1B" transform="matrix(1.00, 0.00, -0.00, -1.00, 485.7, 396.8)">r</text><text xml:space="preserve" font-family="Monaco,Monaco" font-size="42.0" fill="#37DE1B" transform="matrix(1.00, 0.00, -0.00, -1.00, 510.9, 396.8)">i</text><text xml:space="preserve" font-family="Monaco,Monaco" font-size="42.0" fill="#37DE1B" transform="matrix(1.00, 0.00, -0.00, -1.00, 536.1, 396.8)">p</text><text xml:space="preserve" font-family="Monaco,Monaco" font-size="42.0" fill="#37DE1B" transform="matrix(1.00, 0.00, -0.00, -1.00, 561.3, 396.8)">t</text><text xml:space="preserve" font-family="Monaco,Monaco" font-size="42.0" fill="#37DE1B" transform="matrix(1.00, 0.00, -0.00, -1.00, 586.6, 396.8)">1</text><text xml:space="preserve" font-family="Monaco,Monaco" font-size="42.0" fill="#37DE1B" transform="matrix(1.00, 0.00, -0.00, -1.00, 611.8, 396.8)">4</text><text xml:space="preserve" font-family="Monaco,Monaco" font-size="42.0" fill="#37DE1B" transform="matrix(1.00, 0.00, -0.00, -1.00, 637.0, 396.8)">.</text><text xml:space="preserve" font-family="Monaco,Monaco" font-size="42.0" fill="#37DE1B" transform="matrix(1.00, 0.00, -0.00, -1.00, 662.2, 396.8)">s</text><text xml:space="preserve" font-family="Monaco,Monaco" font-size="42.0" fill="#37DE1B" transform="matrix(1.00, 0.00, -0.00, -1.00, 687.4, 396.8)">h</text><text xml:space="preserve" font-family="Monaco,Monaco" font-size="42.0" fill="#37DE1B" transform="matrix(1.00, 0.00, -0.00, -1.00, 712.5, 396.8)">	</text><text xml:space="preserve" font-family="Monaco,Monaco" font-size="42.0" fill="#37DE1B" transform="matrix(1.00, 0.00, -0.00, -1.00, 57.2, 282.8)">$</text><text xml:space="preserve" font-family="Monaco,Monaco" font-size="42.0" fill="#37DE1B" transform="matrix(1.00, 0.00, -0.00, -1.00, 82.4, 282.8)"> </text><text xml:space="preserve" font-family="Monaco,Monaco" font-size="42.0" fill="#37DE1B" transform="matrix(1.00, 0.00, -0.00, -1.00, 107.6, 282.8)">l</text><text xml:space="preserve" font-family="Monaco,Monaco" font-size="42.0" fill="#37DE1B" transform="matrix(1.00, 0.00, -0.00, -1.00, 132.8, 282.8)">s</text><text xml:space="preserve" font-family="Monaco,Monaco" font-size="42.0" fill="#37DE1B" transform="matrix(1.00, 0.00, -0.00, -1.00, 158.0, 282.8)"> </text><text xml:space="preserve" font-family="Monaco,Monaco" font-size="42.0" fill="#37DE1B" transform="matrix(1.00, 0.00, -0.00, -1.00, 183.2, 282.8)">[</text><text xml:space="preserve" font-family="Monaco,Monaco" font-size="42.0" fill="#37DE1B" transform="matrix(1.00, 0.00, -0.00, -1.00, 208.4, 282.8)">^</text><text xml:space="preserve" font-family="Monaco,Monaco" font-size="42.0" fill="#37DE1B" transform="matrix(1.00, 0.00, -0.00, -1.00, 233.6, 282.8)">a</text><text xml:space="preserve" font-family="Monaco,Monaco" font-size="42.0" fill="#37DE1B" transform="matrix(1.00, 0.00, -0.00, -1.00, 258.8, 282.8)">-</text><text xml:space="preserve" font-family="Monaco,Monaco" font-size="42.0" fill="#37DE1B" transform="matrix(1.00, 0.00, -0.00, -1.00, 284.1, 282.8)">b</text><text xml:space="preserve" font-family="Monaco,Monaco" font-size="42.0" fill="#37DE1B" transform="matrix(1.00, 0.00, -0.00, -1.00, 309.3, 282.8)">]</text><text xml:space="preserve" font-family="Monaco,Monaco" font-size="42.0" fill="#37DE1B" transform="matrix(1.00, 0.00, -0.00, -1.00, 334.5, 282.8)">*</text><text xml:space="preserve" font-family="Monaco,Monaco" font-size="42.0" fill="#37DE1B" transform="matrix(1.00, 0.00, -0.00, -1.00, 359.6, 282.8)">	</text><text xml:space="preserve" font-family="Monaco,Monaco" font-size="42.0" fill="#37DE1B" transform="matrix(1.00, 0.00, -0.00, -1.00, 57.2, 225.8)"> </text><text xml:space="preserve" font-family="Monaco,Monaco" font-size="42.0" fill="#37DE1B" transform="matrix(1.00, 0.00, -0.00, -1.00, 82.4, 225.8)">c</text><text xml:space="preserve" font-family="Monaco,Monaco" font-size="42.0" fill="#37DE1B" transform="matrix(1.00, 0.00, -0.00, -1.00, 107.6, 225.8)">a</text><text xml:space="preserve" font-family="Monaco,Monaco" font-size="42.0" fill="#37DE1B" transform="matrix(1.00, 0.00, -0.00, -1.00, 132.8, 225.8)">t</text><text xml:space="preserve" font-family="Monaco,Monaco" font-size="42.0" fill="#37DE1B" transform="matrix(1.00, 0.00, -0.00, -1.00, 158.0, 225.8)">.</text><text xml:space="preserve" font-family="Monaco,Monaco" font-size="42.0" fill="#37DE1B" transform="matrix(1.00, 0.00, -0.00, -1.00, 183.2, 225.8)">s</text><text xml:space="preserve" font-family="Monaco,Monaco" font-size="42.0" fill="#37DE1B" transform="matrix(1.00, 0.00, -0.00, -1.00, 208.4, 225.8)">h</text><text xml:space="preserve" font-family="Monaco,Monaco" font-size="42.0" fill="#37DE1B" transform="matrix(1.00, 0.00, -0.00, -1.00, 233.6, 225.8)">	</text><text xml:space="preserve" font-family="Monaco,Monaco" font-size="42.0" fill="#37DE1B" transform="matrix(1.00, 0.00, -0.00, -1.00, 244.0, 225.8)"> </text><text xml:space="preserve" font-family="Monaco,Monaco" font-size="42.0" fill="#37DE1B" transform="matrix(1.00, 0.00, -0.00, -1.00, 269.2, 225.8)"> </text><text xml:space="preserve" font-family="Monaco,Monaco" font-size="42.0" fill="#37DE1B" transform="matrix(1.00, 0.00, -0.00, -1.00, 294.4, 225.8)"> </text><text xml:space="preserve" font-family="Monaco,Monaco" font-size="42.0" fill="#37DE1B" transform="matrix(1.00, 0.00, -0.00, -1.00, 319.6, 225.8)"> </text><text xml:space="preserve" font-family="Monaco,Monaco" font-size="42.0" fill="#37DE1B" transform="matrix(1.00, 0.00, -0.00, -1.00, 344.8, 225.8)"> </text><text xml:space="preserve" font-family="Monaco,Monaco" font-size="42.0" fill="#37DE1B" transform="matrix(1.00, 0.00, -0.00, -1.00, 370.0, 225.8)"> </text><text xml:space="preserve" font-family="Monaco,Monaco" font-size="42.0" fill="#37DE1B" transform="matrix(1.00, 0.00, -0.00, -1.00, 395.2, 225.8)"> </text><text xml:space="preserve" font-family="Monaco,Monaco" font-size="42.0" fill="#37DE1B" transform="matrix(1.00, 0.00, -0.00, -1.00, 420.5, 225.8)"> </text><text xml:space="preserve" font-family="Monaco,Monaco" font-size="42.0" fill="#37DE1B" transform="matrix(1.00, 0.00, -0.00, -1.00, 445.7, 225.8)">s</text><text xml:space="preserve" font-family="Monaco,Monaco" font-size="42.0" fill="#37DE1B" transform="matrix(1.00, 0.00, -0.00, -1.00, 470.9, 225.8)">c</text><text xml:space="preserve" font-family="Monaco,Monaco" font-size="42.0" fill="#37DE1B" transform="matrix(1.00, 0.00, -0.00, -1.00, 496.1, 225.8)">r</text><text xml:space="preserve" font-family="Monaco,Monaco" font-size="42.0" fill="#37DE1B" transform="matrix(1.00, 0.00, -0.00, -1.00, 521.3, 225.8)">i</text><text xml:space="preserve" font-family="Monaco,Monaco" font-size="42.0" fill="#37DE1B" transform="matrix(1.00, 0.00, -0.00, -1.00, 546.5, 225.8)">p</text><text xml:space="preserve" font-family="Monaco,Monaco" font-size="42.0" fill="#37DE1B" transform="matrix(1.00, 0.00, -0.00, -1.00, 571.7, 225.8)">t</text><text xml:space="preserve" font-family="Monaco,Monaco" font-size="42.0" fill="#37DE1B" transform="matrix(1.00, 0.00, -0.00, -1.00, 596.9, 225.8)">1</text><text xml:space="preserve" font-family="Monaco,Monaco" font-size="42.0" fill="#37DE1B" transform="matrix(1.00, 0.00, -0.00, -1.00, 622.1, 225.8)">.</text><text xml:space="preserve" font-family="Monaco,Monaco" font-size="42.0" fill="#37DE1B" transform="matrix(1.00, 0.00, -0.00, -1.00, 647.3, 225.8)">s</text><text xml:space="preserve" font-family="Monaco,Monaco" font-size="42.0" fill="#37DE1B" transform="matrix(1.00, 0.00, -0.00, -1.00, 672.5, 225.8)">h</text><text xml:space="preserve" font-family="Monaco,Monaco" font-size="42.0" fill="#37DE1B" transform="matrix(1.00, 0.00, -0.00, -1.00, 697.7, 225.8)">	</text><text xml:space="preserve" font-family="Monaco,Monaco" font-size="42.0" fill="#37DE1B" transform="matrix(1.00, 0.00, -0.00, -1.00, 701.2, 225.8)"> </text><text xml:space="preserve" font-family="Monaco,Monaco" font-size="42.0" fill="#37DE1B" transform="matrix(1.00, 0.00, -0.00, -1.00, 726.4, 225.8)">	</text><text xml:space="preserve" font-family="Monaco,Monaco" font-size="42.0" fill="#37DE1B" transform="matrix(1.00, 0.00, -0.00, -1.00, 57.2, 168.8)"> </text><text xml:space="preserve" font-family="Monaco,Monaco" font-size="42.0" fill="#37DE1B" transform="matrix(1.00, 0.00, -0.00, -1.00, 82.4, 168.8)">s</text><text xml:space="preserve" font-family="Monaco,Monaco" font-size="42.0" fill="#37DE1B" transform="matrix(1.00, 0.00, -0.00, -1.00, 107.6, 168.8)">c</text><text xml:space="preserve" font-family="Monaco,Monaco" font-size="42.0" fill="#37DE1B" transform="matrix(1.00, 0.00, -0.00, -1.00, 132.8, 168.8)">r</text><text xml:space="preserve" font-family="Monaco,Monaco" font-size="42.0" fill="#37DE1B" transform="matrix(1.00, 0.00, -0.00, -1.00, 158.0, 168.8)">i</text><text xml:space="preserve" font-family="Monaco,Monaco" font-size="42.0" fill="#37DE1B" transform="matrix(1.00, 0.00, -0.00, -1.00, 183.2, 168.8)">p</text><text xml:space="preserve" font-family="Monaco,Monaco" font-size="42.0" fill="#37DE1B" transform="matrix(1.00, 0.00, -0.00, -1.00, 208.4, 168.8)">t</text><text xml:space="preserve" font-family="Monaco,Monaco" font-size="42.0" fill="#37DE1B" transform="matrix(1.00, 0.00, -0.00, -1.00, 233.6, 168.8)">2</text><text xml:space="preserve" font-family="Monaco,Monaco" font-size="42.0" fill="#37DE1B" transform="matrix(1.00, 0.00, -0.00, -1.00, 258.8, 168.8)">.</text><text xml:space="preserve" font-family="Monaco,Monaco" font-size="42.0" fill="#37DE1B" transform="matrix(1.00, 0.00, -0.00, -1.00, 284.0, 168.8)">s</text><text xml:space="preserve" font-family="Monaco,Monaco" font-size="42.0" fill="#37DE1B" transform="matrix(1.00, 0.00, -0.00, -1.00, 309.3, 168.8)">h</text></g></svg>