<?xml version="1.0" encoding="UTF-8" standalone="no"?><svg xmlns="http://www.w3.org/2000/svg" xmlns:xlink="http://www.w3.org/1999/xlink" clip-rule="evenodd" stroke-miterlimit="10" viewBox="0 0 1024 768"><desc>SVG generated by Keynote</desc><defs></defs><g transform="matrix(1.00, 0.00, -0.00, -1.00, 0.0, 768.0)"><path d="M 0.0 768.0 L 1024.0 768.0 L 1024.0 0.0 L 0.0 0.0 Z M 0.0 768.0 " fill="#002451"></path><text xml:space="preserve" font-family="LucidaGrande,Lucida Grande" font-size="22.0" fill="#FEFFFE" transform="matrix(1.00, 0.00, -0.00, -1.00, 332.4, 11.6)">F</text><text xml:space="preserve" font-family="LucidaGrande,Lucida Grande" font-size="22.0" fill="#FEFFFE" transform="matrix(1.00, 0.00, -0.00, -1.00, 344.2, 11.6)">e</text><text xml:space="preserve" font-family="LucidaGrande,Lucida Grande" font-size="22.0" fill="#FEFFFE" transform="matrix(1.00, 0.00, -0.00, -1.00, 356.4, 11.6)">e</text><text xml:space="preserve" font-family="LucidaGrande,Lucida Grande" font-size="22.0" fill="#FEFFFE" transform="matrix(1.00, 0.00, -0.00, -1.00, 368.7, 11.6)">d</text><text xml:space="preserve" font-family="LucidaGrande,Lucida Grande" font-size="22.0" fill="#FEFFFE" transform="matrix(1.00, 0.00, -0.00, -1.00, 382.5, 11.6)">b</text><text xml:space="preserve" font-family="LucidaGrande,Lucida Grande" font-size="22.0" fill="#FEFFFE" transform="matrix(1.00, 0.00, -0.00, -1.00, 396.4, 11.6)">a</text><text xml:space="preserve" font-family="LucidaGrande,Lucida Grande" font-size="22.0" fill="#FEFFFE" transform="matrix(1.00, 0.00, -0.00, -1.00, 408.5, 11.6)">c</text><text xml:space="preserve" font-family="LucidaGrande,Lucida Grande" font-size="22.0" fill="#FEFFFE" transform="matrix(1.00, 0.00, -0.00, -1.00, 419.8, 11.6)">k</text><text xml:space="preserve" font-family="LucidaGrande,Lucida Grande" font-size="22.0" fill="#FEFFFE" transform="matrix(1.00, 0.00, -0.00, -1.00, 432.7, 11.6)">:</text><text xml:space="preserve" font-family="LucidaGrande,Lucida Grande" font-size="22.0" fill="#FEFFFE" transform="matrix(1.00, 0.00, -0.00, -1.00, 439.6, 11.6)"> </text><text xml:space="preserve" font-family="LucidaGrande,Lucida Grande" font-size="22.0" fill="#FEFFFE" transform="matrix(1.00, 0.00, -0.00, -1.00, 446.6, 11.6)">h</text><text xml:space="preserve" font-family="LucidaGrande,Lucida Grande" font-size="22.0" fill="#FEFFFE" transform="matrix(1.00, 0.00, -0.00, -1.00, 460.2, 11.6)">t</text><text xml:space="preserve" font-family="LucidaGrande,Lucida Grande" font-size="22.0" fill="#FEFFFE" transform="matrix(1.00, 0.00, -0.00, -1.00, 468.4, 11.6)">t</text><text xml:space="preserve" font-family="LucidaGrande,Lucida Grande" font-size="22.0" fill="#FEFFFE" transform="matrix(1.00, 0.00, -0.00, -1.00, 476.7, 11.6)">p</text><text xml:space="preserve" font-family="LucidaGrande,Lucida Grande" font-size="22.0" fill="#FEFFFE" transform="matrix(1.00, 0.00, -0.00, -1.00, 490.5, 11.6)">:</text><text xml:space="preserve" font-family="LucidaGrande,Lucida Grande" font-size="22.0" fill="#FEFFFE" transform="matrix(1.00, 0.00, -0.00, -1.00, 497.5, 11.6)">/</text><text xml:space="preserve" font-family="LucidaGrande,Lucida Grande" font-size="22.0" fill="#FEFFFE" transform="matrix(1.00, 0.00, -0.00, -1.00, 509.0, 11.6)">/</text><text xml:space="preserve" font-family="LucidaGrande,Lucida Grande" font-size="22.0" fill="#FEFFFE" transform="matrix(1.00, 0.00, -0.00, -1.00, 520.6, 11.6)">j</text><text xml:space="preserve" font-family="LucidaGrande,Lucida Grande" font-size="22.0" fill="#FEFFFE" transform="matrix(1.00, 0.00, -0.00, -1.00, 527.3, 11.6)">.</text><text xml:space="preserve" font-family="LucidaGrande,Lucida Grande" font-size="22.0" fill="#FEFFFE" transform="matrix(1.00, 0.00, -0.00, -1.00, 534.3, 11.6)">m</text><text xml:space="preserve" font-family="LucidaGrande,Lucida Grande" font-size="22.0" fill="#FEFFFE" transform="matrix(1.00, 0.00, -0.00, -1.00, 554.8, 11.6)">p</text><text xml:space="preserve" font-family="LucidaGrande,Lucida Grande" font-size="22.0" fill="#FEFFFE" transform="matrix(1.00, 0.00, -0.00, -1.00, 568.6, 11.6)">/</text><text xml:space="preserve" font-family="LucidaGrande,Lucida Grande" font-size="22.0" fill="#FEFFFE" transform="matrix(1.00, 0.00, -0.00, -1.00, 580.2, 11.6)">p</text><text xml:space="preserve" font-family="LucidaGrande,Lucida Grande" font-size="22.0" fill="#FEFFFE" transform="matrix(1.00, 0.00, -0.00, -1.00, 594.0, 11.6)">s</text><text xml:space="preserve" font-family="LucidaGrande,Lucida Grande" font-size="22.0" fill="#FEFFFE" transform="matrix(1.00, 0.00, -0.00, -1.00, 605.3, 11.6)">u</text><text xml:space="preserve" font-family="LucidaGrande,Lucida Grande" font-size="22.0" fill="#FEFFFE" transform="matrix(1.00, 0.00, -0.00, -1.00, 618.9, 11.6)">m</text><text xml:space="preserve" font-family="LucidaGrande,Lucida Grande" font-size="22.0" fill="#FEFFFE" transform="matrix(1.00, 0.00, -0.00, -1.00, 639.4, 11.6)">a</text><text xml:space="preserve" font-family="LucidaGrande,Lucida Grande" font-size="22.0" fill="#FEFFFE" transform="matrix(1.00, 0.00, -0.00, -1.00, 651.6, 11.6)">c</text><text xml:space="preserve" font-family="LucidaGrande,Lucida Grande" font-size="22.0" fill="#FEFFFE" transform="matrix(1.00, 0.00, -0.00, -1.00, 662.9, 11.6)">1</text><text xml:space="preserve" font-family="LucidaGrande,Lucida Grande" font-size="22.0" fill="#FEFFFE" transform="matrix(1.00, 0.00, -0.00, -1.00, 676.8, 11.6)">3</text><text xml:space="preserve" font-family="Monaco,Monaco" font-size="84.0" fill="#FEFFFF" transform="matrix(1.00, 0.00, -0.00, -1.00, 335.6, 620.0)">T</text><text xml:space="preserve" font-family="Monaco,Monaco" font-size="84.0" fill="#FEFFFF" transform="matrix(1.00, 0.00, -0.00, -1.00, 386.0, 620.0)">r</text><text xml:space="preserve" font-family="Monaco,Monaco" font-size="84.0" fill="#FEFFFF" transform="matrix(1.00, 0.00, -0.00, -1.00, 436.4, 620.0)">y</text><text xml:space="preserve" font-family="Monaco,Monaco" font-size="84.0" fill="#FEFFFF" transform="matrix(1.00, 0.00, -0.00, -1.00, 486.8, 620.0)"> </text><text xml:space="preserve" font-family="Monaco,Monaco" font-size="84.0" fill="#FEFFFF" transform="matrix(1.00, 0.00, -0.00, -1.00, 537.2, 620.0)">I</text><text xml:space="preserve" font-family="Monaco,Monaco" font-size="84.0" fill="#FEFFFF" transform="matrix(1.00, 0.00, -0.00, -1.00, 587.7, 620.0)">t</text><text xml:space="preserve" font-family="Monaco,Monaco" font-size="84.0" fill="#FEFFFF" transform="matrix(1.00, 0.00, -0.00, -1.00, 638.1, 620.0)">!</text><text xml:space="preserve" font-family="Monaco,Monaco" font-size="41.2" fill="#FEFFFF" transform="matrix(1.00, 0.00, -0.00, -1.00, 129.0, 503.7)">•</text><text xml:space="preserve" font-family="Monaco,Monaco" font-size="41.2" fill="#FEFFFF" transform="matrix(1.00, 0.00, -0.00, -1.00, 173.1, 503.7)">M</text><text xml:space="preserve" font-family="Monaco,Monaco" font-size="41.2" fill="#FEFFFF" transform="matrix(1.00, 0.00, -0.00, -1.00, 197.8, 503.7)">o</text><text xml:space="preserve" font-family="Monaco,Monaco" font-size="41.2" fill="#FEFFFF" transform="matrix(1.00, 0.00, -0.00, -1.00, 222.5, 503.7)">v</text><text xml:space="preserve" font-family="Monaco,Monaco" font-size="41.2" fill="#FEFFFF" transform="matrix(1.00, 0.00, -0.00, -1.00, 247.2, 503.7)">e</text><text xml:space="preserve" font-family="Monaco,Monaco" font-size="41.2" fill="#FEFFFF" transform="matrix(1.00, 0.00, -0.00, -1.00, 271.9, 503.7)"> </text><text xml:space="preserve" font-family="Monaco,Monaco" font-size="41.2" fill="#FEFFFF" transform="matrix(1.00, 0.00, -0.00, -1.00, 296.6, 503.7)">i</text><text xml:space="preserve" font-family="Monaco,Monaco" font-size="41.2" fill="#FEFFFF" transform="matrix(1.00, 0.00, -0.00, -1.00, 321.3, 503.7)">n</text><text xml:space="preserve" font-family="Monaco,Monaco" font-size="41.2" fill="#FEFFFF" transform="matrix(1.00, 0.00, -0.00, -1.00, 346.0, 503.7)">t</text><text xml:space="preserve" font-family="Monaco,Monaco" font-size="41.2" fill="#FEFFFF" transform="matrix(1.00, 0.00, -0.00, -1.00, 370.7, 503.7)">o</text><text xml:space="preserve" font-family="Monaco,Monaco" font-size="41.2" fill="#FEFFFF" transform="matrix(1.00, 0.00, -0.00, -1.00, 395.4, 503.7)"> </text><text xml:space="preserve" font-family="Monaco,Monaco" font-size="41.2" fill="#FEFFFF" transform="matrix(1.00, 0.00, -0.00, -1.00, 420.1, 503.7)">H</text><text xml:space="preserve" font-family="Monaco,Monaco" font-size="41.2" fill="#FEFFFF" transform="matrix(1.00, 0.00, -0.00, -1.00, 444.8, 503.7)">o</text><text xml:space="preserve" font-family="Monaco,Monaco" font-size="41.2" fill="#FEFFFF" transform="matrix(1.00, 0.00, -0.00, -1.00, 469.5, 503.7)">m</text><text xml:space="preserve" font-family="Monaco,Monaco" font-size="41.2" fill="#FEFFFF" transform="matrix(1.00, 0.00, -0.00, -1.00, 494.3, 503.7)">e</text><text xml:space="preserve" font-family="Monaco,Monaco" font-size="41.2" fill="#FEFFFF" transform="matrix(1.00, 0.00, -0.00, -1.00, 519.0, 503.7)"> </text><text xml:space="preserve" font-family="Monaco,Monaco" font-size="41.2" fill="#FEFFFF" transform="matrix(1.00, 0.00, -0.00, -1.00, 543.7, 503.7)">D</text><text xml:space="preserve" font-family="Monaco,Monaco" font-size="41.2" fill="#FEFFFF" transform="matrix(1.00, 0.00, -0.00, -1.00, 568.4, 503.7)">i</text><text xml:space="preserve" font-family="Monaco,Monaco" font-size="41.2" fill="#FEFFFF" transform="matrix(1.00, 0.00, -0.00, -1.00, 593.1, 503.7)">r</text><text xml:space="preserve" font-family="Monaco,Monaco" font-size="41.2" fill="#FEFFFF" transform="matrix(1.00, 0.00, -0.00, -1.00, 617.8, 503.7)">e</text><text xml:space="preserve" font-family="Monaco,Monaco" font-size="41.2" fill="#FEFFFF" transform="matrix(1.00, 0.00, -0.00, -1.00, 642.5, 503.7)">c</text><text xml:space="preserve" font-family="Monaco,Monaco" font-size="41.2" fill="#FEFFFF" transform="matrix(1.00, 0.00, -0.00, -1.00, 667.2, 503.7)">t</text><text xml:space="preserve" font-family="Monaco,Monaco" font-size="41.2" fill="#FEFFFF" transform="matrix(1.00, 0.00, -0.00, -1.00, 691.9, 503.7)">o</text><text xml:space="preserve" font-family="Monaco,Monaco" font-size="41.2" fill="#FEFFFF" transform="matrix(1.00, 0.00, -0.00, -1.00, 716.6, 503.7)">r</text><text xml:space="preserve" font-family="Monaco,Monaco" font-size="41.2" fill="#FEFFFF" transform="matrix(1.00, 0.00, -0.00, -1.00, 741.3, 503.7)">y</text><text xml:space="preserve" font-family="Monaco,Monaco" font-size="41.2" fill="#FEFFFF" transform="matrix(1.00, 0.00, -0.00, -1.00, 766.0, 503.7)">	</text><text xml:space="preserve" font-family="Monaco,Monaco" font-size="41.2" fill="#FEFFFF" transform="matrix(1.00, 0.00, -0.00, -1.00, 129.0, 426.2)">•</text><text xml:space="preserve" font-family="Monaco,Monaco" font-size="41.2" fill="#FEFFFF" transform="matrix(1.00, 0.00, -0.00, -1.00, 173.1, 426.2)">C</text><text xml:space="preserve" font-family="Monaco,Monaco" font-size="41.2" fill="#FEFFFF" transform="matrix(1.00, 0.00, -0.00, -1.00, 197.8, 426.2)">r</text><text xml:space="preserve" font-family="Monaco,Monaco" font-size="41.2" fill="#FEFFFF" transform="matrix(1.00, 0.00, -0.00, -1.00, 222.5, 426.2)">e</text><text xml:space="preserve" font-family="Monaco,Monaco" font-size="41.2" fill="#FEFFFF" transform="matrix(1.00, 0.00, -0.00, -1.00, 247.2, 426.2)">a</text><text xml:space="preserve" font-family="Monaco,Monaco" font-size="41.2" fill="#FEFFFF" transform="matrix(1.00, 0.00, -0.00, -1.00, 271.9, 426.2)">t</text><text xml:space="preserve" font-family="Monaco,Monaco" font-size="41.2" fill="#FEFFFF" transform="matrix(1.00, 0.00, -0.00, -1.00, 296.6, 426.2)">e</text><text xml:space="preserve" font-family="Monaco,Monaco" font-size="41.2" fill="#FEFFFF" transform="matrix(1.00, 0.00, -0.00, -1.00, 321.3, 426.2)"> </text><text xml:space="preserve" font-family="Monaco,Monaco" font-size="41.2" fill="#FEFFFF" transform="matrix(1.00, 0.00, -0.00, -1.00, 346.0, 426.2)">n</text><text xml:space="preserve" font-family="Monaco,Monaco" font-size="41.2" fill="#FEFFFF" transform="matrix(1.00, 0.00, -0.00, -1.00, 370.7, 426.2)">e</text><text xml:space="preserve" font-family="Monaco,Monaco" font-size="41.2" fill="#FEFFFF" transform="matrix(1.00, 0.00, -0.00, -1.00, 395.4, 426.2)">w</text><text xml:space="preserve" font-family="Monaco,Monaco" font-size="41.2" fill="#FEFFFF" transform="matrix(1.00, 0.00, -0.00, -1.00, 420.1, 426.2)"> </text><text xml:space="preserve" font-family="Monaco,Monaco" font-size="41.2" fill="#FEFFFF" transform="matrix(1.00, 0.00, -0.00, -1.00, 444.8, 426.2)">D</text><text xml:space="preserve" font-family="Monaco,Monaco" font-size="41.2" fill="#FEFFFF" transform="matrix(1.00, 0.00, -0.00, -1.00, 469.5, 426.2)">i</text><text xml:space="preserve" font-family="Monaco,Monaco" font-size="41.2" fill="#FEFFFF" transform="matrix(1.00, 0.00, -0.00, -1.00, 494.3, 426.2)">r</text><text xml:space="preserve" font-family="Monaco,Monaco" font-size="41.2" fill="#FEFFFF" transform="matrix(1.00, 0.00, -0.00, -1.00, 519.0, 426.2)">e</text><text xml:space="preserve" font-family="Monaco,Monaco" font-size="41.2" fill="#FEFFFF" transform="matrix(1.00, 0.00, -0.00, -1.00, 543.7, 426.2)">c</text><text xml:space="preserve" font-family="Monaco,Monaco" font-size="41.2" fill="#FEFFFF" transform="matrix(1.00, 0.00, -0.00, -1.00, 568.4, 426.2)">t</text><text xml:space="preserve" font-family="Monaco,Monaco" font-size="41.2" fill="#FEFFFF" transform="matrix(1.00, 0.00, -0.00, -1.00, 593.1, 426.2)">o</text><text xml:space="preserve" font-family="Monaco,Monaco" font-size="41.2" fill="#FEFFFF" transform="matrix(1.00, 0.00, -0.00, -1.00, 617.8, 426.2)">r</text><text xml:space="preserve" font-family="Monaco,Monaco" font-size="41.2" fill="#FEFFFF" transform="matrix(1.00, 0.00, -0.00, -1.00, 642.5, 426.2)">y</text><text xml:space="preserve" font-family="Monaco,Monaco" font-size="41.2" fill="#FEFFFF" transform="matrix(1.00, 0.00, -0.00, -1.00, 667.2, 426.2)">	</text><text xml:space="preserve" font-family="Monaco,Monaco" font-size="41.2" fill="#FEFFFF" transform="matrix(1.00, 0.00, -0.00, -1.00, 129.0, 348.7)">•</text><text xml:space="preserve" font-family="Monaco,Monaco" font-size="41.2" fill="#FEFFFF" transform="matrix(1.00, 0.00, -0.00, -1.00, 173.1, 348.7)">C</text><text xml:space="preserve" font-family="Monaco,Monaco" font-size="41.2" fill="#FEFFFF" transform="matrix(1.00, 0.00, -0.00, -1.00, 197.8, 348.7)">o</text><text xml:space="preserve" font-family="Monaco,Monaco" font-size="41.2" fill="#FEFFFF" transform="matrix(1.00, 0.00, -0.00, -1.00, 222.5, 348.7)">p</text><text xml:space="preserve" font-family="Monaco,Monaco" font-size="41.2" fill="#FEFFFF" transform="matrix(1.00, 0.00, -0.00, -1.00, 247.2, 348.7)">y</text><text xml:space="preserve" font-family="Monaco,Monaco" font-size="41.2" fill="#FEFFFF" transform="matrix(1.00, 0.00, -0.00, -1.00, 271.9, 348.7)"> </text><text xml:space="preserve" font-family="Monaco,Monaco" font-size="41.2" fill="#FEFFFF" transform="matrix(1.00, 0.00, -0.00, -1.00, 296.6, 348.7)">f</text><text xml:space="preserve" font-family="Monaco,Monaco" font-size="41.2" fill="#FEFFFF" transform="matrix(1.00, 0.00, -0.00, -1.00, 321.3, 348.7)">i</text><text xml:space="preserve" font-family="Monaco,Monaco" font-size="41.2" fill="#FEFFFF" transform="matrix(1.00, 0.00, -0.00, -1.00, 346.0, 348.7)">l</text><text xml:space="preserve" font-family="Monaco,Monaco" font-size="41.2" fill="#FEFFFF" transform="matrix(1.00, 0.00, -0.00, -1.00, 370.7, 348.7)">e</text><text xml:space="preserve" font-family="Monaco,Monaco" font-size="41.2" fill="#FEFFFF" transform="matrix(1.00, 0.00, -0.00, -1.00, 395.4, 348.7)"> </text><text xml:space="preserve" font-family="Monaco,Monaco" font-size="41.2" fill="#FEFFFF" transform="matrix(1.00, 0.00, -0.00, -1.00, 420.1, 348.7)">i</text><text xml:space="preserve" font-family="Monaco,Monaco" font-size="41.2" fill="#FEFFFF" transform="matrix(1.00, 0.00, -0.00, -1.00, 444.8, 348.7)">n</text><text xml:space="preserve" font-family="Monaco,Monaco" font-size="41.2" fill="#FEFFFF" transform="matrix(1.00, 0.00, -0.00, -1.00, 469.5, 348.7)">t</text><text xml:space="preserve" font-family="Monaco,Monaco" font-size="41.2" fill="#FEFFFF" transform="matrix(1.00, 0.00, -0.00, -1.00, 494.3, 348.7)">o</text><text xml:space="preserve" font-family="Monaco,Monaco" font-size="41.2" fill="#FEFFFF" transform="matrix(1.00, 0.00, -0.00, -1.00, 519.0, 348.7)"> </text><text xml:space="preserve" font-family="Monaco,Monaco" font-size="41.2" fill="#FEFFFF" transform="matrix(1.00, 0.00, -0.00, -1.00, 543.7, 348.7)">n</text><text xml:space="preserve" font-family="Monaco,Monaco" font-size="41.2" fill="#FEFFFF" transform="matrix(1.00, 0.00, -0.00, -1.00, 568.4, 348.7)">e</text><text xml:space="preserve" font-family="Monaco,Monaco" font-size="41.2" fill="#FEFFFF" transform="matrix(1.00, 0.00, -0.00, -1.00, 593.1, 348.7)">w</text><text xml:space="preserve" font-family="Monaco,Monaco" font-size="41.2" fill="#FEFFFF" transform="matrix(1.00, 0.00, -0.00, -1.00, 617.8, 348.7)"> </text><text xml:space="preserve" font-family="Monaco,Monaco" font-size="41.2" fill="#FEFFFF" transform="matrix(1.00, 0.00, -0.00, -1.00, 642.5, 348.7)">D</text><text xml:space="preserve" font-family="Monaco,Monaco" font-size="41.2" fill="#FEFFFF" transform="matrix(1.00, 0.00, -0.00, -1.00, 667.2, 348.7)">i</text><text xml:space="preserve" font-family="Monaco,Monaco" font-size="41.2" fill="#FEFFFF" transform="matrix(1.00, 0.00, -0.00, -1.00, 691.9, 348.7)">r</text><text xml:space="preserve" font-family="Monaco,Monaco" font-size="41.2" fill="#FEFFFF" transform="matrix(1.00, 0.00, -0.00, -1.00, 716.6, 348.7)">e</text><text xml:space="preserve" font-family="Monaco,Monaco" font-size="41.2" fill="#FEFFFF" transform="matrix(1.00, 0.00, -0.00, -1.00, 741.3, 348.7)">c</text><text xml:space="preserve" font-family="Monaco,Monaco" font-size="41.2" fill="#FEFFFF" transform="matrix(1.00, 0.00, -0.00, -1.00, 766.0, 348.7)">t</text><text xml:space="preserve" font-family="Monaco,Monaco" font-size="41.2" fill="#FEFFFF" transform="matrix(1.00, 0.00, -0.00, -1.00, 790.7, 348.7)">o</text><text xml:space="preserve" font-family="Monaco,Monaco" font-size="41.2" fill="#FEFFFF" transform="matrix(1.00, 0.00, -0.00, -1.00, 815.4, 348.7)">r</text><text xml:space="preserve" font-family="Monaco,Monaco" font-size="41.2" fill="#FEFFFF" transform="matrix(1.00, 0.00, -0.00, -1.00, 840.1, 348.7)">y</text><text xml:space="preserve" font-family="Monaco,Monaco" font-size="41.2" fill="#FEFFFF" transform="matrix(1.00, 0.00, -0.00, -1.00, 864.8, 348.7)">	</text><text xml:space="preserve" font-family="Monaco,Monaco" font-size="41.2" fill="#FEFFFF" transform="matrix(1.00, 0.00, -0.00, -1.00, 129.0, 271.2)">•</text><text xml:space="preserve" font-family="Monaco,Monaco" font-size="41.2" fill="#FEFFFF" transform="matrix(1.00, 0.00, -0.00, -1.00, 173.1, 271.2)">M</text><text xml:space="preserve" font-family="Monaco,Monaco" font-size="41.2" fill="#FEFFFF" transform="matrix(1.00, 0.00, -0.00, -1.00, 197.8, 271.2)">o</text><text xml:space="preserve" font-family="Monaco,Monaco" font-size="41.2" fill="#FEFFFF" transform="matrix(1.00, 0.00, -0.00, -1.00, 222.5, 271.2)">v</text><text xml:space="preserve" font-family="Monaco,Monaco" font-size="41.2" fill="#FEFFFF" transform="matrix(1.00, 0.00, -0.00, -1.00, 247.2, 271.2)">e</text><text xml:space="preserve" font-family="Monaco,Monaco" font-size="41.2" fill="#FEFFFF" transform="matrix(1.00, 0.00, -0.00, -1.00, 271.9, 271.2)"> </text><text xml:space="preserve" font-family="Monaco,Monaco" font-size="41.2" fill="#FEFFFF" transform="matrix(1.00, 0.00, -0.00, -1.00, 296.6, 271.2)">a</text><text xml:space="preserve" font-family="Monaco,Monaco" font-size="41.2" fill="#FEFFFF" transform="matrix(1.00, 0.00, -0.00, -1.00, 321.3, 271.2)"> </text><text xml:space="preserve" font-family="Monaco,Monaco" font-size="41.2" fill="#FEFFFF" transform="matrix(1.00, 0.00, -0.00, -1.00, 346.0, 271.2)">F</text><text xml:space="preserve" font-family="Monaco,Monaco" font-size="41.2" fill="#FEFFFF" transform="matrix(1.00, 0.00, -0.00, -1.00, 370.7, 271.2)">i</text><text xml:space="preserve" font-family="Monaco,Monaco" font-size="41.2" fill="#FEFFFF" transform="matrix(1.00, 0.00, -0.00, -1.00, 395.4, 271.2)">l</text><text xml:space="preserve" font-family="Monaco,Monaco" font-size="41.2" fill="#FEFFFF" transform="matrix(1.00, 0.00, -0.00, -1.00, 420.1, 271.2)">e</text><text xml:space="preserve" font-family="Monaco,Monaco" font-size="41.2" fill="#FEFFFF" transform="matrix(1.00, 0.00, -0.00, -1.00, 444.8, 271.2)">	</text><text xml:space="preserve" font-family="Monaco,Monaco" font-size="41.2" fill="#FEFFFF" transform="matrix(1.00, 0.00, -0.00, -1.00, 129.0, 193.6)">•</text><text xml:space="preserve" font-family="Monaco,Monaco" font-size="41.2" fill="#FEFFFF" transform="matrix(1.00, 0.00, -0.00, -1.00, 173.1, 193.6)">C</text><text xml:space="preserve" font-family="Monaco,Monaco" font-size="41.2" fill="#FEFFFF" transform="matrix(1.00, 0.00, -0.00, -1.00, 197.8, 193.6)">r</text><text xml:space="preserve" font-family="Monaco,Monaco" font-size="41.2" fill="#FEFFFF" transform="matrix(1.00, 0.00, -0.00, -1.00, 222.5, 193.6)">e</text><text xml:space="preserve" font-family="Monaco,Monaco" font-size="41.2" fill="#FEFFFF" transform="matrix(1.00, 0.00, -0.00, -1.00, 247.2, 193.6)">a</text><text xml:space="preserve" font-family="Monaco,Monaco" font-size="41.2" fill="#FEFFFF" transform="matrix(1.00, 0.00, -0.00, -1.00, 271.9, 193.6)">t</text><text xml:space="preserve" font-family="Monaco,Monaco" font-size="41.2" fill="#FEFFFF" transform="matrix(1.00, 0.00, -0.00, -1.00, 296.6, 193.6)">e</text><text xml:space="preserve" font-family="Monaco,Monaco" font-size="41.2" fill="#FEFFFF" transform="matrix(1.00, 0.00, -0.00, -1.00, 321.3, 193.6)"> </text><text xml:space="preserve" font-family="Monaco,Monaco" font-size="41.2" fill="#FEFFFF" transform="matrix(1.00, 0.00, -0.00, -1.00, 346.0, 193.6)">a</text><text xml:space="preserve" font-family="Monaco,Monaco" font-size="41.2" fill="#FEFFFF" transform="matrix(1.00, 0.00, -0.00, -1.00, 370.7, 193.6)"> </text><text xml:space="preserve" font-family="Monaco,Monaco" font-size="41.2" fill="#FEFFFF" transform="matrix(1.00, 0.00, -0.00, -1.00, 395.4, 193.6)">L</text><text xml:space="preserve" font-family="Monaco,Monaco" font-size="41.2" fill="#FEFFFF" transform="matrix(1.00, 0.00, -0.00, -1.00, 420.1, 193.6)">i</text><text xml:space="preserve" font-family="Monaco,Monaco" font-size="41.2" fill="#FEFFFF" transform="matrix(1.00, 0.00, -0.00, -1.00, 444.8, 193.6)">n</text><text xml:space="preserve" font-family="Monaco,Monaco" font-size="41.2" fill="#FEFFFF" transform="matrix(1.00, 0.00, -0.00, -1.00, 469.5, 193.6)">k</text><text xml:space="preserve" font-family="Monaco,Monaco" font-size="41.2" fill="#FEFFFF" transform="matrix(1.00, 0.00, -0.00, -1.00, 494.3, 193.6)">	</text><text xml:space="preserve" font-family="Monaco,Monaco" font-size="41.2" fill="#FEFFFF" transform="matrix(1.00, 0.00, -0.00, -1.00, 129.0, 116.1)">•</text><text xml:space="preserve" font-family="Monaco,Monaco" font-size="41.2" fill="#FEFFFF" transform="matrix(1.00, 0.00, -0.00, -1.00, 173.1, 116.1)">D</text><text xml:space="preserve" font-family="Monaco,Monaco" font-size="41.2" fill="#FEFFFF" transform="matrix(1.00, 0.00, -0.00, -1.00, 197.8, 116.1)">e</text><text xml:space="preserve" font-family="Monaco,Monaco" font-size="41.2" fill="#FEFFFF" transform="matrix(1.00, 0.00, -0.00, -1.00, 222.5, 116.1)">l</text><text xml:space="preserve" font-family="Monaco,Monaco" font-size="41.2" fill="#FEFFFF" transform="matrix(1.00, 0.00, -0.00, -1.00, 247.2, 116.1)">e</text><text xml:space="preserve" font-family="Monaco,Monaco" font-size="41.2" fill="#FEFFFF" transform="matrix(1.00, 0.00, -0.00, -1.00, 271.9, 116.1)">t</text><text xml:space="preserve" font-family="Monaco,Monaco" font-size="41.2" fill="#FEFFFF" transform="matrix(1.00, 0.00, -0.00, -1.00, 296.6, 116.1)">e</text><text xml:space="preserve" font-family="Monaco,Monaco" font-size="41.2" fill="#FEFFFF" transform="matrix(1.00, 0.00, -0.00, -1.00, 321.3, 116.1)"> </text><text xml:space="preserve" font-family="Monaco,Monaco" font-size="41.2" fill="#FEFFFF" transform="matrix(1.00, 0.00, -0.00, -1.00, 346.0, 116.1)">a</text><text xml:space="preserve" font-family="Monaco,Monaco" font-size="41.2" fill="#FEFFFF" transform="matrix(1.00, 0.00, -0.00, -1.00, 370.7, 116.1)"> </text><text xml:space="preserve" font-family="Monaco,Monaco" font-size="41.2" fill="#FEFFFF" transform="matrix(1.00, 0.00, -0.00, -1.00, 395.4, 116.1)">c</text><text xml:space="preserve" font-family="Monaco,Monaco" font-size="41.2" fill="#FEFFFF" transform="matrix(1.00, 0.00, -0.00, -1.00, 420.1, 116.1)">o</text><text xml:space="preserve" font-family="Monaco,Monaco" font-size="41.2" fill="#FEFFFF" transform="matrix(1.00, 0.00, -0.00, -1.00, 444.8, 116.1)">p</text><text xml:space="preserve" font-family="Monaco,Monaco" font-size="41.2" fill="#FEFFFF" transform="matrix(1.00, 0.00, -0.00, -1.00, 469.5, 116.1)">y</text></g></svg>