<?xml version="1.0" encoding="UTF-8" standalone="no"?><svg xmlns="http://www.w3.org/2000/svg" xmlns:xlink="http://www.w3.org/1999/xlink" clip-rule="evenodd" stroke-miterlimit="10" viewBox="0 0 1024 768"><desc>SVG generated by Keynote</desc><defs></defs><g transform="matrix(1.00, 0.00, -0.00, -1.00, 0.0, 768.0)"><path d="M 0.0 768.0 L 1024.0 768.0 L 1024.0 0.0 L 0.0 0.0 Z M 0.0 768.0 " fill="#000000"></path><image xlink:href="../../ACF26528-510F-4087-92A7-D9431E4A7675/assets/C07D05C049E9C3A813AD52BFC7182A2D.png" width="983.00" height="584.00" transform="matrix(1.00, 0.00, -0.00, -1.00, 10.2, 664.7)" opacity="0.75"></image><image xlink:href="../../ACF26528-510F-4087-92A7-D9431E4A7675/assets/B8B89F8D2E49298F363D8341A9D067FB.png" width="963.00" height="564.00" transform="matrix(1.00, 0.00, -0.00, -1.00, 30.0, 666.0)"></image><text xml:space="preserve" font-family="LucidaGrande,Lucida Grande" font-size="22.0" fill="#FEFFFE" transform="matrix(1.00, 0.00, -0.00, -1.00, 332.4, 11.6)">F</text><text xml:space="preserve" font-family="LucidaGrande,Lucida Grande" font-size="22.0" fill="#FEFFFE" transform="matrix(1.00, 0.00, -0.00, -1.00, 344.2, 11.6)">e</text><text xml:space="preserve" font-family="LucidaGrande,Lucida Grande" font-size="22.0" fill="#FEFFFE" transform="matrix(1.00, 0.00, -0.00, -1.00, 356.4, 11.6)">e</text><text xml:space="preserve" font-family="LucidaGrande,Lucida Grande" font-size="22.0" fill="#FEFFFE" transform="matrix(1.00, 0.00, -0.00, -1.00, 368.7, 11.6)">d</text><text xml:space="preserve" font-family="LucidaGrande,Lucida Grande" font-size="22.0" fill="#FEFFFE" transform="matrix(1.00, 0.00, -0.00, -1.00, 382.5, 11.6)">b</text><text xml:space="preserve" font-family="LucidaGrande,Lucida Grande" font-size="22.0" fill="#FEFFFE" transform="matrix(1.00, 0.00, -0.00, -1.00, 396.4, 11.6)">a</text><text xml:space="preserve" font-family="LucidaGrande,Lucida Grande" font-size="22.0" fill="#FEFFFE" transform="matrix(1.00, 0.00, -0.00, -1.00, 408.5, 11.6)">c</text><text xml:space="preserve" font-family="LucidaGrande,Lucida Grande" font-size="22.0" fill="#FEFFFE" transform="matrix(1.00, 0.00, -0.00, -1.00, 419.8, 11.6)">k</text><text xml:space="preserve" font-family="LucidaGrande,Lucida Grande" font-size="22.0" fill="#FEFFFE" transform="matrix(1.00, 0.00, -0.00, -1.00, 432.7, 11.6)">:</text><text xml:space="preserve" font-family="LucidaGrande,Lucida Grande" font-size="22.0" fill="#FEFFFE" transform="matrix(1.00, 0.00, -0.00, -1.00, 439.6, 11.6)"> </text><text xml:space="preserve" font-family="LucidaGrande,Lucida Grande" font-size="22.0" fill="#FEFFFE" transform="matrix(1.00, 0.00, -0.00, -1.00, 446.6, 11.6)">h</text><text xml:space="preserve" font-family="LucidaGrande,Lucida Grande" font-size="22.0" fill="#FEFFFE" transform="matrix(1.00, 0.00, -0.00, -1.00, 460.2, 11.6)">t</text><text xml:space="preserve" font-family="LucidaGrande,Lucida Grande" font-size="22.0" fill="#FEFFFE" transform="matrix(1.00, 0.00, -0.00, -1.00, 468.4, 11.6)">t</text><text xml:space="preserve" font-family="LucidaGrande,Lucida Grande" font-size="22.0" fill="#FEFFFE" transform="matrix(1.00, 0.00, -0.00, -1.00, 476.7, 11.6)">p</text><text xml:space="preserve" font-family="LucidaGrande,Lucida Grande" font-size="22.0" fill="#FEFFFE" transform="matrix(1.00, 0.00, -0.00, -1.00, 490.5, 11.6)">:</text><text xml:space="preserve" font-family="LucidaGrande,Lucida Grande" font-size="22.0" fill="#FEFFFE" transform="matrix(1.00, 0.00, -0.00, -1.00, 497.5, 11.6)">/</text><text xml:space="preserve" font-family="LucidaGrande,Lucida Grande" font-size="22.0" fill="#FEFFFE" transform="matrix(1.00, 0.00, -0.00, -1.00, 509.0, 11.6)">/</text><text xml:space="preserve" font-family="LucidaGrande,Lucida Grande" font-size="22.0" fill="#FEFFFE" transform="matrix(1.00, 0.00, -0.00, -1.00, 520.6, 11.6)">j</text><text xml:space="preserve" font-family="LucidaGrande,Lucida Grande" font-size="22.0" fill="#FEFFFE" transform="matrix(1.00, 0.00, -0.00, -1.00, 527.3, 11.6)">.</text><text xml:space="preserve" font-family="LucidaGrande,Lucida Grande" font-size="22.0" fill="#FEFFFE" transform="matrix(1.00, 0.00, -0.00, -1.00, 534.3, 11.6)">m</text><text xml:space="preserve" font-family="LucidaGrande,Lucida Grande" font-size="22.0" fill="#FEFFFE" transform="matrix(1.00, 0.00, -0.00, -1.00, 554.8, 11.6)">p</text><text xml:space="preserve" font-family="LucidaGrande,Lucida Grande" font-size="22.0" fill="#FEFFFE" transform="matrix(1.00, 0.00, -0.00, -1.00, 568.6, 11.6)">/</text><text xml:space="preserve" font-family="LucidaGrande,Lucida Grande" font-size="22.0" fill="#FEFFFE" transform="matrix(1.00, 0.00, -0.00, -1.00, 580.2, 11.6)">p</text><text xml:space="preserve" font-family="LucidaGrande,Lucida Grande" font-size="22.0" fill="#FEFFFE" transform="matrix(1.00, 0.00, -0.00, -1.00, 594.0, 11.6)">s</text><text xml:space="preserve" font-family="LucidaGrande,Lucida Grande" font-size="22.0" fill="#FEFFFE" transform="matrix(1.00, 0.00, -0.00, -1.00, 605.3, 11.6)">u</text><text xml:space="preserve" font-family="LucidaGrande,Lucida Grande" font-size="22.0" fill="#FEFFFE" transform="matrix(1.00, 0.00, -0.00, -1.00, 618.9, 11.6)">m</text><text xml:space="preserve" font-family="LucidaGrande,Lucida Grande" font-size="22.0" fill="#FEFFFE" transform="matrix(1.00, 0.00, -0.00, -1.00, 639.4, 11.6)">a</text><text xml:space="preserve" font-family="LucidaGrande,Lucida Grande" font-size="22.0" fill="#FEFFFE" transform="matrix(1.00, 0.00, -0.00, -1.00, 651.6, 11.6)">c</text><text xml:space="preserve" font-family="LucidaGrande,Lucida Grande" font-size="22.0" fill="#FEFFFE" transform="matrix(1.00, 0.00, -0.00, -1.00, 662.9, 11.6)">1</text><text xml:space="preserve" font-family="LucidaGrande,Lucida Grande" font-size="22.0" fill="#FEFFFE" transform="matrix(1.00, 0.00, -0.00, -1.00, 676.8, 11.6)">3</text><text xml:space="preserve" font-family="Monaco,Monaco" font-size="38.0" fill="#37DE1B" transform="matrix(1.00, 0.00, -0.00, -1.00, 57.2, 574.1)">$</text><text xml:space="preserve" font-family="Monaco,Monaco" font-size="38.0" fill="#37DE1B" transform="matrix(1.00, 0.00, -0.00, -1.00, 80.0, 574.1)"> </text><text xml:space="preserve" font-family="Monaco,Monaco" font-size="38.0" fill="#37DE1B" transform="matrix(1.00, 0.00, -0.00, -1.00, 102.8, 574.1)">n</text><text xml:space="preserve" font-family="Monaco,Monaco" font-size="38.0" fill="#37DE1B" transform="matrix(1.00, 0.00, -0.00, -1.00, 125.6, 574.1)">e</text><text xml:space="preserve" font-family="Monaco,Monaco" font-size="38.0" fill="#37DE1B" transform="matrix(1.00, 0.00, -0.00, -1.00, 148.4, 574.1)">t</text><text xml:space="preserve" font-family="Monaco,Monaco" font-size="38.0" fill="#37DE1B" transform="matrix(1.00, 0.00, -0.00, -1.00, 171.2, 574.1)">w</text><text xml:space="preserve" font-family="Monaco,Monaco" font-size="38.0" fill="#37DE1B" transform="matrix(1.00, 0.00, -0.00, -1.00, 194.0, 574.1)">o</text><text xml:space="preserve" font-family="Monaco,Monaco" font-size="38.0" fill="#37DE1B" transform="matrix(1.00, 0.00, -0.00, -1.00, 216.8, 574.1)">r</text><text xml:space="preserve" font-family="Monaco,Monaco" font-size="38.0" fill="#37DE1B" transform="matrix(1.00, 0.00, -0.00, -1.00, 239.6, 574.1)">k</text><text xml:space="preserve" font-family="Monaco,Monaco" font-size="38.0" fill="#37DE1B" transform="matrix(1.00, 0.00, -0.00, -1.00, 262.4, 574.1)">s</text><text xml:space="preserve" font-family="Monaco,Monaco" font-size="38.0" fill="#37DE1B" transform="matrix(1.00, 0.00, -0.00, -1.00, 285.3, 574.1)">e</text><text xml:space="preserve" font-family="Monaco,Monaco" font-size="38.0" fill="#37DE1B" transform="matrix(1.00, 0.00, -0.00, -1.00, 308.1, 574.1)">t</text><text xml:space="preserve" font-family="Monaco,Monaco" font-size="38.0" fill="#37DE1B" transform="matrix(1.00, 0.00, -0.00, -1.00, 330.9, 574.1)">u</text><text xml:space="preserve" font-family="Monaco,Monaco" font-size="38.0" fill="#37DE1B" transform="matrix(1.00, 0.00, -0.00, -1.00, 353.7, 574.1)">p</text><text xml:space="preserve" font-family="Monaco,Monaco" font-size="38.0" fill="#37DE1B" transform="matrix(1.00, 0.00, -0.00, -1.00, 376.5, 574.1)"> </text><text xml:space="preserve" font-family="Monaco,Monaco" font-size="38.0" fill="#37DE1B" transform="matrix(1.00, 0.00, -0.00, -1.00, 399.3, 574.1)">-</text><text xml:space="preserve" font-family="Monaco,Monaco" font-size="38.0" fill="#37DE1B" transform="matrix(1.00, 0.00, -0.00, -1.00, 422.1, 574.1)">g</text><text xml:space="preserve" font-family="Monaco,Monaco" font-size="38.0" fill="#37DE1B" transform="matrix(1.00, 0.00, -0.00, -1.00, 444.9, 574.1)">e</text><text xml:space="preserve" font-family="Monaco,Monaco" font-size="38.0" fill="#37DE1B" transform="matrix(1.00, 0.00, -0.00, -1.00, 467.7, 574.1)">t</text><text xml:space="preserve" font-family="Monaco,Monaco" font-size="38.0" fill="#37DE1B" transform="matrix(1.00, 0.00, -0.00, -1.00, 490.5, 574.1)">i</text><text xml:space="preserve" font-family="Monaco,Monaco" font-size="38.0" fill="#37DE1B" transform="matrix(1.00, 0.00, -0.00, -1.00, 513.3, 574.1)">n</text><text xml:space="preserve" font-family="Monaco,Monaco" font-size="38.0" fill="#37DE1B" transform="matrix(1.00, 0.00, -0.00, -1.00, 536.1, 574.1)">f</text><text xml:space="preserve" font-family="Monaco,Monaco" font-size="38.0" fill="#37DE1B" transform="matrix(1.00, 0.00, -0.00, -1.00, 558.9, 574.1)">o</text><text xml:space="preserve" font-family="Monaco,Monaco" font-size="38.0" fill="#37DE1B" transform="matrix(1.00, 0.00, -0.00, -1.00, 581.7, 574.1)"> </text><text xml:space="preserve" font-family="Monaco,Monaco" font-size="38.0" fill="#37DE1B" transform="matrix(1.00, 0.00, -0.00, -1.00, 604.6, 574.1)">W</text><text xml:space="preserve" font-family="Monaco,Monaco" font-size="38.0" fill="#37DE1B" transform="matrix(1.00, 0.00, -0.00, -1.00, 627.4, 574.1)">i</text><text xml:space="preserve" font-family="Monaco,Monaco" font-size="38.0" fill="#37DE1B" transform="matrix(1.00, 0.00, -0.00, -1.00, 650.2, 574.1)">-</text><text xml:space="preserve" font-family="Monaco,Monaco" font-size="38.0" fill="#37DE1B" transform="matrix(1.00, 0.00, -0.00, -1.00, 673.0, 574.1)">F</text><text xml:space="preserve" font-family="Monaco,Monaco" font-size="38.0" fill="#37DE1B" transform="matrix(1.00, 0.00, -0.00, -1.00, 695.8, 574.1)">i</text><text xml:space="preserve" font-family="Monaco,Monaco" font-size="38.0" fill="#37DE1B" transform="matrix(1.00, 0.00, -0.00, -1.00, 718.5, 574.1)">	</text><text xml:space="preserve" font-family="Monaco,Monaco" font-size="38.0" fill="#37DE1B" transform="matrix(1.00, 0.00, -0.00, -1.00, 57.2, 523.1)">M</text><text xml:space="preserve" font-family="Monaco,Monaco" font-size="38.0" fill="#37DE1B" transform="matrix(1.00, 0.00, -0.00, -1.00, 80.0, 523.1)">a</text><text xml:space="preserve" font-family="Monaco,Monaco" font-size="38.0" fill="#37DE1B" transform="matrix(1.00, 0.00, -0.00, -1.00, 102.8, 523.1)">n</text><text xml:space="preserve" font-family="Monaco,Monaco" font-size="38.0" fill="#37DE1B" transform="matrix(1.00, 0.00, -0.00, -1.00, 125.6, 523.1)">u</text><text xml:space="preserve" font-family="Monaco,Monaco" font-size="38.0" fill="#37DE1B" transform="matrix(1.00, 0.00, -0.00, -1.00, 148.4, 523.1)">a</text><text xml:space="preserve" font-family="Monaco,Monaco" font-size="38.0" fill="#37DE1B" transform="matrix(1.00, 0.00, -0.00, -1.00, 171.2, 523.1)">l</text><text xml:space="preserve" font-family="Monaco,Monaco" font-size="38.0" fill="#37DE1B" transform="matrix(1.00, 0.00, -0.00, -1.00, 194.0, 523.1)"> </text><text xml:space="preserve" font-family="Monaco,Monaco" font-size="38.0" fill="#37DE1B" transform="matrix(1.00, 0.00, -0.00, -1.00, 216.8, 523.1)">C</text><text xml:space="preserve" font-family="Monaco,Monaco" font-size="38.0" fill="#37DE1B" transform="matrix(1.00, 0.00, -0.00, -1.00, 239.6, 523.1)">o</text><text xml:space="preserve" font-family="Monaco,Monaco" font-size="38.0" fill="#37DE1B" transform="matrix(1.00, 0.00, -0.00, -1.00, 262.4, 523.1)">n</text><text xml:space="preserve" font-family="Monaco,Monaco" font-size="38.0" fill="#37DE1B" transform="matrix(1.00, 0.00, -0.00, -1.00, 285.3, 523.1)">f</text><text xml:space="preserve" font-family="Monaco,Monaco" font-size="38.0" fill="#37DE1B" transform="matrix(1.00, 0.00, -0.00, -1.00, 308.1, 523.1)">i</text><text xml:space="preserve" font-family="Monaco,Monaco" font-size="38.0" fill="#37DE1B" transform="matrix(1.00, 0.00, -0.00, -1.00, 330.9, 523.1)">g</text><text xml:space="preserve" font-family="Monaco,Monaco" font-size="38.0" fill="#37DE1B" transform="matrix(1.00, 0.00, -0.00, -1.00, 353.7, 523.1)">u</text><text xml:space="preserve" font-family="Monaco,Monaco" font-size="38.0" fill="#37DE1B" transform="matrix(1.00, 0.00, -0.00, -1.00, 376.5, 523.1)">r</text><text xml:space="preserve" font-family="Monaco,Monaco" font-size="38.0" fill="#37DE1B" transform="matrix(1.00, 0.00, -0.00, -1.00, 399.3, 523.1)">a</text><text xml:space="preserve" font-family="Monaco,Monaco" font-size="38.0" fill="#37DE1B" transform="matrix(1.00, 0.00, -0.00, -1.00, 422.1, 523.1)">t</text><text xml:space="preserve" font-family="Monaco,Monaco" font-size="38.0" fill="#37DE1B" transform="matrix(1.00, 0.00, -0.00, -1.00, 444.9, 523.1)">i</text><text xml:space="preserve" font-family="Monaco,Monaco" font-size="38.0" fill="#37DE1B" transform="matrix(1.00, 0.00, -0.00, -1.00, 467.7, 523.1)">o</text><text xml:space="preserve" font-family="Monaco,Monaco" font-size="38.0" fill="#37DE1B" transform="matrix(1.00, 0.00, -0.00, -1.00, 490.5, 523.1)">n</text><text xml:space="preserve" font-family="Monaco,Monaco" font-size="38.0" fill="#37DE1B" transform="matrix(1.00, 0.00, -0.00, -1.00, 513.3, 523.1)">	</text><text xml:space="preserve" font-family="Monaco,Monaco" font-size="38.0" fill="#37DE1B" transform="matrix(1.00, 0.00, -0.00, -1.00, 57.2, 472.1)">I</text><text xml:space="preserve" font-family="Monaco,Monaco" font-size="38.0" fill="#37DE1B" transform="matrix(1.00, 0.00, -0.00, -1.00, 80.0, 472.1)">P</text><text xml:space="preserve" font-family="Monaco,Monaco" font-size="38.0" fill="#37DE1B" transform="matrix(1.00, 0.00, -0.00, -1.00, 102.8, 472.1)"> </text><text xml:space="preserve" font-family="Monaco,Monaco" font-size="38.0" fill="#37DE1B" transform="matrix(1.00, 0.00, -0.00, -1.00, 125.6, 472.1)">a</text><text xml:space="preserve" font-family="Monaco,Monaco" font-size="38.0" fill="#37DE1B" transform="matrix(1.00, 0.00, -0.00, -1.00, 148.4, 472.1)">d</text><text xml:space="preserve" font-family="Monaco,Monaco" font-size="38.0" fill="#37DE1B" transform="matrix(1.00, 0.00, -0.00, -1.00, 171.2, 472.1)">d</text><text xml:space="preserve" font-family="Monaco,Monaco" font-size="38.0" fill="#37DE1B" transform="matrix(1.00, 0.00, -0.00, -1.00, 194.0, 472.1)">r</text><text xml:space="preserve" font-family="Monaco,Monaco" font-size="38.0" fill="#37DE1B" transform="matrix(1.00, 0.00, -0.00, -1.00, 216.8, 472.1)">e</text><text xml:space="preserve" font-family="Monaco,Monaco" font-size="38.0" fill="#37DE1B" transform="matrix(1.00, 0.00, -0.00, -1.00, 239.6, 472.1)">s</text><text xml:space="preserve" font-family="Monaco,Monaco" font-size="38.0" fill="#37DE1B" transform="matrix(1.00, 0.00, -0.00, -1.00, 262.4, 472.1)">s</text><text xml:space="preserve" font-family="Monaco,Monaco" font-size="38.0" fill="#37DE1B" transform="matrix(1.00, 0.00, -0.00, -1.00, 285.3, 472.1)">:</text><text xml:space="preserve" font-family="Monaco,Monaco" font-size="38.0" fill="#37DE1B" transform="matrix(1.00, 0.00, -0.00, -1.00, 308.1, 472.1)"> </text><text xml:space="preserve" font-family="Monaco,Monaco" font-size="38.0" fill="#37DE1B" transform="matrix(1.00, 0.00, -0.00, -1.00, 330.9, 472.1)">1</text><text xml:space="preserve" font-family="Monaco,Monaco" font-size="38.0" fill="#37DE1B" transform="matrix(1.00, 0.00, -0.00, -1.00, 353.7, 472.1)">9</text><text xml:space="preserve" font-family="Monaco,Monaco" font-size="38.0" fill="#37DE1B" transform="matrix(1.00, 0.00, -0.00, -1.00, 376.5, 472.1)">2</text><text xml:space="preserve" font-family="Monaco,Monaco" font-size="38.0" fill="#37DE1B" transform="matrix(1.00, 0.00, -0.00, -1.00, 399.3, 472.1)">.</text><text xml:space="preserve" font-family="Monaco,Monaco" font-size="38.0" fill="#37DE1B" transform="matrix(1.00, 0.00, -0.00, -1.00, 422.1, 472.1)">1</text><text xml:space="preserve" font-family="Monaco,Monaco" font-size="38.0" fill="#37DE1B" transform="matrix(1.00, 0.00, -0.00, -1.00, 444.9, 472.1)">6</text><text xml:space="preserve" font-family="Monaco,Monaco" font-size="38.0" fill="#37DE1B" transform="matrix(1.00, 0.00, -0.00, -1.00, 467.7, 472.1)">8</text><text xml:space="preserve" font-family="Monaco,Monaco" font-size="38.0" fill="#37DE1B" transform="matrix(1.00, 0.00, -0.00, -1.00, 490.5, 472.1)">.</text><text xml:space="preserve" font-family="Monaco,Monaco" font-size="38.0" fill="#37DE1B" transform="matrix(1.00, 0.00, -0.00, -1.00, 513.3, 472.1)">2</text><text xml:space="preserve" font-family="Monaco,Monaco" font-size="38.0" fill="#37DE1B" transform="matrix(1.00, 0.00, -0.00, -1.00, 536.1, 472.1)">.</text><text xml:space="preserve" font-family="Monaco,Monaco" font-size="38.0" fill="#37DE1B" transform="matrix(1.00, 0.00, -0.00, -1.00, 558.9, 472.1)">2</text><text xml:space="preserve" font-family="Monaco,Monaco" font-size="38.0" fill="#37DE1B" transform="matrix(1.00, 0.00, -0.00, -1.00, 581.7, 472.1)">0</text><text xml:space="preserve" font-family="Monaco,Monaco" font-size="38.0" fill="#37DE1B" transform="matrix(1.00, 0.00, -0.00, -1.00, 604.6, 472.1)">0</text><text xml:space="preserve" font-family="Monaco,Monaco" font-size="38.0" fill="#37DE1B" transform="matrix(1.00, 0.00, -0.00, -1.00, 627.3, 472.1)">	</text><text xml:space="preserve" font-family="Monaco,Monaco" font-size="38.0" fill="#37DE1B" transform="matrix(1.00, 0.00, -0.00, -1.00, 57.2, 421.1)">S</text><text xml:space="preserve" font-family="Monaco,Monaco" font-size="38.0" fill="#37DE1B" transform="matrix(1.00, 0.00, -0.00, -1.00, 80.0, 421.1)">u</text><text xml:space="preserve" font-family="Monaco,Monaco" font-size="38.0" fill="#37DE1B" transform="matrix(1.00, 0.00, -0.00, -1.00, 102.8, 421.1)">b</text><text xml:space="preserve" font-family="Monaco,Monaco" font-size="38.0" fill="#37DE1B" transform="matrix(1.00, 0.00, -0.00, -1.00, 125.6, 421.1)">n</text><text xml:space="preserve" font-family="Monaco,Monaco" font-size="38.0" fill="#37DE1B" transform="matrix(1.00, 0.00, -0.00, -1.00, 148.4, 421.1)">e</text><text xml:space="preserve" font-family="Monaco,Monaco" font-size="38.0" fill="#37DE1B" transform="matrix(1.00, 0.00, -0.00, -1.00, 171.2, 421.1)">t</text><text xml:space="preserve" font-family="Monaco,Monaco" font-size="38.0" fill="#37DE1B" transform="matrix(1.00, 0.00, -0.00, -1.00, 194.0, 421.1)"> </text><text xml:space="preserve" font-family="Monaco,Monaco" font-size="38.0" fill="#37DE1B" transform="matrix(1.00, 0.00, -0.00, -1.00, 216.8, 421.1)">m</text><text xml:space="preserve" font-family="Monaco,Monaco" font-size="38.0" fill="#37DE1B" transform="matrix(1.00, 0.00, -0.00, -1.00, 239.6, 421.1)">a</text><text xml:space="preserve" font-family="Monaco,Monaco" font-size="38.0" fill="#37DE1B" transform="matrix(1.00, 0.00, -0.00, -1.00, 262.4, 421.1)">s</text><text xml:space="preserve" font-family="Monaco,Monaco" font-size="38.0" fill="#37DE1B" transform="matrix(1.00, 0.00, -0.00, -1.00, 285.3, 421.1)">k</text><text xml:space="preserve" font-family="Monaco,Monaco" font-size="38.0" fill="#37DE1B" transform="matrix(1.00, 0.00, -0.00, -1.00, 308.1, 421.1)">:</text><text xml:space="preserve" font-family="Monaco,Monaco" font-size="38.0" fill="#37DE1B" transform="matrix(1.00, 0.00, -0.00, -1.00, 330.9, 421.1)"> </text><text xml:space="preserve" font-family="Monaco,Monaco" font-size="38.0" fill="#37DE1B" transform="matrix(1.00, 0.00, -0.00, -1.00, 353.7, 421.1)">2</text><text xml:space="preserve" font-family="Monaco,Monaco" font-size="38.0" fill="#37DE1B" transform="matrix(1.00, 0.00, -0.00, -1.00, 376.5, 421.1)">5</text><text xml:space="preserve" font-family="Monaco,Monaco" font-size="38.0" fill="#37DE1B" transform="matrix(1.00, 0.00, -0.00, -1.00, 399.3, 421.1)">5</text><text xml:space="preserve" font-family="Monaco,Monaco" font-size="38.0" fill="#37DE1B" transform="matrix(1.00, 0.00, -0.00, -1.00, 422.1, 421.1)">.</text><text xml:space="preserve" font-family="Monaco,Monaco" font-size="38.0" fill="#37DE1B" transform="matrix(1.00, 0.00, -0.00, -1.00, 444.9, 421.1)">2</text><text xml:space="preserve" font-family="Monaco,Monaco" font-size="38.0" fill="#37DE1B" transform="matrix(1.00, 0.00, -0.00, -1.00, 467.7, 421.1)">5</text><text xml:space="preserve" font-family="Monaco,Monaco" font-size="38.0" fill="#37DE1B" transform="matrix(1.00, 0.00, -0.00, -1.00, 490.5, 421.1)">5</text><text xml:space="preserve" font-family="Monaco,Monaco" font-size="38.0" fill="#37DE1B" transform="matrix(1.00, 0.00, -0.00, -1.00, 513.3, 421.1)">.</text><text xml:space="preserve" font-family="Monaco,Monaco" font-size="38.0" fill="#37DE1B" transform="matrix(1.00, 0.00, -0.00, -1.00, 536.1, 421.1)">2</text><text xml:space="preserve" font-family="Monaco,Monaco" font-size="38.0" fill="#37DE1B" transform="matrix(1.00, 0.00, -0.00, -1.00, 558.9, 421.1)">5</text><text xml:space="preserve" font-family="Monaco,Monaco" font-size="38.0" fill="#37DE1B" transform="matrix(1.00, 0.00, -0.00, -1.00, 581.7, 421.1)">5</text><text xml:space="preserve" font-family="Monaco,Monaco" font-size="38.0" fill="#37DE1B" transform="matrix(1.00, 0.00, -0.00, -1.00, 604.6, 421.1)">.</text><text xml:space="preserve" font-family="Monaco,Monaco" font-size="38.0" fill="#37DE1B" transform="matrix(1.00, 0.00, -0.00, -1.00, 627.4, 421.1)">0</text><text xml:space="preserve" font-family="Monaco,Monaco" font-size="38.0" fill="#37DE1B" transform="matrix(1.00, 0.00, -0.00, -1.00, 650.1, 421.1)">	</text><text xml:space="preserve" font-family="Monaco,Monaco" font-size="38.0" fill="#37DE1B" transform="matrix(1.00, 0.00, -0.00, -1.00, 57.2, 370.1)">R</text><text xml:space="preserve" font-family="Monaco,Monaco" font-size="38.0" fill="#37DE1B" transform="matrix(1.00, 0.00, -0.00, -1.00, 80.0, 370.1)">o</text><text xml:space="preserve" font-family="Monaco,Monaco" font-size="38.0" fill="#37DE1B" transform="matrix(1.00, 0.00, -0.00, -1.00, 102.8, 370.1)">u</text><text xml:space="preserve" font-family="Monaco,Monaco" font-size="38.0" fill="#37DE1B" transform="matrix(1.00, 0.00, -0.00, -1.00, 125.6, 370.1)">t</text><text xml:space="preserve" font-family="Monaco,Monaco" font-size="38.0" fill="#37DE1B" transform="matrix(1.00, 0.00, -0.00, -1.00, 148.4, 370.1)">e</text><text xml:space="preserve" font-family="Monaco,Monaco" font-size="38.0" fill="#37DE1B" transform="matrix(1.00, 0.00, -0.00, -1.00, 171.2, 370.1)">r</text><text xml:space="preserve" font-family="Monaco,Monaco" font-size="38.0" fill="#37DE1B" transform="matrix(1.00, 0.00, -0.00, -1.00, 194.0, 370.1)">:</text><text xml:space="preserve" font-family="Monaco,Monaco" font-size="38.0" fill="#37DE1B" transform="matrix(1.00, 0.00, -0.00, -1.00, 216.8, 370.1)"> </text><text xml:space="preserve" font-family="Monaco,Monaco" font-size="38.0" fill="#37DE1B" transform="matrix(1.00, 0.00, -0.00, -1.00, 239.6, 370.1)">1</text><text xml:space="preserve" font-family="Monaco,Monaco" font-size="38.0" fill="#37DE1B" transform="matrix(1.00, 0.00, -0.00, -1.00, 262.4, 370.1)">9</text><text xml:space="preserve" font-family="Monaco,Monaco" font-size="38.0" fill="#37DE1B" transform="matrix(1.00, 0.00, -0.00, -1.00, 285.3, 370.1)">2</text><text xml:space="preserve" font-family="Monaco,Monaco" font-size="38.0" fill="#37DE1B" transform="matrix(1.00, 0.00, -0.00, -1.00, 308.1, 370.1)">.</text><text xml:space="preserve" font-family="Monaco,Monaco" font-size="38.0" fill="#37DE1B" transform="matrix(1.00, 0.00, -0.00, -1.00, 330.9, 370.1)">1</text><text xml:space="preserve" font-family="Monaco,Monaco" font-size="38.0" fill="#37DE1B" transform="matrix(1.00, 0.00, -0.00, -1.00, 353.7, 370.1)">6</text><text xml:space="preserve" font-family="Monaco,Monaco" font-size="38.0" fill="#37DE1B" transform="matrix(1.00, 0.00, -0.00, -1.00, 376.5, 370.1)">8</text><text xml:space="preserve" font-family="Monaco,Monaco" font-size="38.0" fill="#37DE1B" transform="matrix(1.00, 0.00, -0.00, -1.00, 399.3, 370.1)">.</text><text xml:space="preserve" font-family="Monaco,Monaco" font-size="38.0" fill="#37DE1B" transform="matrix(1.00, 0.00, -0.00, -1.00, 422.1, 370.1)">2</text><text xml:space="preserve" font-family="Monaco,Monaco" font-size="38.0" fill="#37DE1B" transform="matrix(1.00, 0.00, -0.00, -1.00, 444.9, 370.1)">.</text><text xml:space="preserve" font-family="Monaco,Monaco" font-size="38.0" fill="#37DE1B" transform="matrix(1.00, 0.00, -0.00, -1.00, 467.7, 370.1)">1</text><text xml:space="preserve" font-family="Monaco,Monaco" font-size="38.0" fill="#37DE1B" transform="matrix(1.00, 0.00, -0.00, -1.00, 490.4, 370.1)">	</text><text xml:space="preserve" font-family="Monaco,Monaco" font-size="38.0" fill="#37DE1B" transform="matrix(1.00, 0.00, -0.00, -1.00, 57.2, 319.1)">I</text><text xml:space="preserve" font-family="Monaco,Monaco" font-size="38.0" fill="#37DE1B" transform="matrix(1.00, 0.00, -0.00, -1.00, 80.0, 319.1)">P</text><text xml:space="preserve" font-family="Monaco,Monaco" font-size="38.0" fill="#37DE1B" transform="matrix(1.00, 0.00, -0.00, -1.00, 102.8, 319.1)">v</text><text xml:space="preserve" font-family="Monaco,Monaco" font-size="38.0" fill="#37DE1B" transform="matrix(1.00, 0.00, -0.00, -1.00, 125.6, 319.1)">6</text><text xml:space="preserve" font-family="Monaco,Monaco" font-size="38.0" fill="#37DE1B" transform="matrix(1.00, 0.00, -0.00, -1.00, 148.4, 319.1)">:</text><text xml:space="preserve" font-family="Monaco,Monaco" font-size="38.0" fill="#37DE1B" transform="matrix(1.00, 0.00, -0.00, -1.00, 171.2, 319.1)"> </text><text xml:space="preserve" font-family="Monaco,Monaco" font-size="38.0" fill="#37DE1B" transform="matrix(1.00, 0.00, -0.00, -1.00, 194.0, 319.1)">A</text><text xml:space="preserve" font-family="Monaco,Monaco" font-size="38.0" fill="#37DE1B" transform="matrix(1.00, 0.00, -0.00, -1.00, 216.8, 319.1)">u</text><text xml:space="preserve" font-family="Monaco,Monaco" font-size="38.0" fill="#37DE1B" transform="matrix(1.00, 0.00, -0.00, -1.00, 239.6, 319.1)">t</text><text xml:space="preserve" font-family="Monaco,Monaco" font-size="38.0" fill="#37DE1B" transform="matrix(1.00, 0.00, -0.00, -1.00, 262.4, 319.1)">o</text><text xml:space="preserve" font-family="Monaco,Monaco" font-size="38.0" fill="#37DE1B" transform="matrix(1.00, 0.00, -0.00, -1.00, 285.3, 319.1)">m</text><text xml:space="preserve" font-family="Monaco,Monaco" font-size="38.0" fill="#37DE1B" transform="matrix(1.00, 0.00, -0.00, -1.00, 308.1, 319.1)">a</text><text xml:space="preserve" font-family="Monaco,Monaco" font-size="38.0" fill="#37DE1B" transform="matrix(1.00, 0.00, -0.00, -1.00, 330.9, 319.1)">t</text><text xml:space="preserve" font-family="Monaco,Monaco" font-size="38.0" fill="#37DE1B" transform="matrix(1.00, 0.00, -0.00, -1.00, 353.7, 319.1)">i</text><text xml:space="preserve" font-family="Monaco,Monaco" font-size="38.0" fill="#37DE1B" transform="matrix(1.00, 0.00, -0.00, -1.00, 376.5, 319.1)">c</text><text xml:space="preserve" font-family="Monaco,Monaco" font-size="38.0" fill="#37DE1B" transform="matrix(1.00, 0.00, -0.00, -1.00, 399.3, 319.1)">	</text><text xml:space="preserve" font-family="Monaco,Monaco" font-size="38.0" fill="#37DE1B" transform="matrix(1.00, 0.00, -0.00, -1.00, 57.2, 268.1)">I</text><text xml:space="preserve" font-family="Monaco,Monaco" font-size="38.0" fill="#37DE1B" transform="matrix(1.00, 0.00, -0.00, -1.00, 80.0, 268.1)">P</text><text xml:space="preserve" font-family="Monaco,Monaco" font-size="38.0" fill="#37DE1B" transform="matrix(1.00, 0.00, -0.00, -1.00, 102.8, 268.1)">v</text><text xml:space="preserve" font-family="Monaco,Monaco" font-size="38.0" fill="#37DE1B" transform="matrix(1.00, 0.00, -0.00, -1.00, 125.6, 268.1)">6</text><text xml:space="preserve" font-family="Monaco,Monaco" font-size="38.0" fill="#37DE1B" transform="matrix(1.00, 0.00, -0.00, -1.00, 148.4, 268.1)"> </text><text xml:space="preserve" font-family="Monaco,Monaco" font-size="38.0" fill="#37DE1B" transform="matrix(1.00, 0.00, -0.00, -1.00, 171.2, 268.1)">I</text><text xml:space="preserve" font-family="Monaco,Monaco" font-size="38.0" fill="#37DE1B" transform="matrix(1.00, 0.00, -0.00, -1.00, 194.0, 268.1)">P</text><text xml:space="preserve" font-family="Monaco,Monaco" font-size="38.0" fill="#37DE1B" transform="matrix(1.00, 0.00, -0.00, -1.00, 216.8, 268.1)"> </text><text xml:space="preserve" font-family="Monaco,Monaco" font-size="38.0" fill="#37DE1B" transform="matrix(1.00, 0.00, -0.00, -1.00, 239.6, 268.1)">a</text><text xml:space="preserve" font-family="Monaco,Monaco" font-size="38.0" fill="#37DE1B" transform="matrix(1.00, 0.00, -0.00, -1.00, 262.4, 268.1)">d</text><text xml:space="preserve" font-family="Monaco,Monaco" font-size="38.0" fill="#37DE1B" transform="matrix(1.00, 0.00, -0.00, -1.00, 285.3, 268.1)">d</text><text xml:space="preserve" font-family="Monaco,Monaco" font-size="38.0" fill="#37DE1B" transform="matrix(1.00, 0.00, -0.00, -1.00, 308.1, 268.1)">r</text><text xml:space="preserve" font-family="Monaco,Monaco" font-size="38.0" fill="#37DE1B" transform="matrix(1.00, 0.00, -0.00, -1.00, 330.9, 268.1)">e</text><text xml:space="preserve" font-family="Monaco,Monaco" font-size="38.0" fill="#37DE1B" transform="matrix(1.00, 0.00, -0.00, -1.00, 353.7, 268.1)">s</text><text xml:space="preserve" font-family="Monaco,Monaco" font-size="38.0" fill="#37DE1B" transform="matrix(1.00, 0.00, -0.00, -1.00, 376.5, 268.1)">s</text><text xml:space="preserve" font-family="Monaco,Monaco" font-size="38.0" fill="#37DE1B" transform="matrix(1.00, 0.00, -0.00, -1.00, 399.3, 268.1)">:</text><text xml:space="preserve" font-family="Monaco,Monaco" font-size="38.0" fill="#37DE1B" transform="matrix(1.00, 0.00, -0.00, -1.00, 422.1, 268.1)"> </text><text xml:space="preserve" font-family="Monaco,Monaco" font-size="38.0" fill="#37DE1B" transform="matrix(1.00, 0.00, -0.00, -1.00, 444.9, 268.1)">n</text><text xml:space="preserve" font-family="Monaco,Monaco" font-size="38.0" fill="#37DE1B" transform="matrix(1.00, 0.00, -0.00, -1.00, 467.7, 268.1)">o</text><text xml:space="preserve" font-family="Monaco,Monaco" font-size="38.0" fill="#37DE1B" transform="matrix(1.00, 0.00, -0.00, -1.00, 490.5, 268.1)">n</text><text xml:space="preserve" font-family="Monaco,Monaco" font-size="38.0" fill="#37DE1B" transform="matrix(1.00, 0.00, -0.00, -1.00, 513.3, 268.1)">e</text><text xml:space="preserve" font-family="Monaco,Monaco" font-size="38.0" fill="#37DE1B" transform="matrix(1.00, 0.00, -0.00, -1.00, 536.1, 268.1)">	</text><text xml:space="preserve" font-family="Monaco,Monaco" font-size="38.0" fill="#37DE1B" transform="matrix(1.00, 0.00, -0.00, -1.00, 57.2, 217.1)">I</text><text xml:space="preserve" font-family="Monaco,Monaco" font-size="38.0" fill="#37DE1B" transform="matrix(1.00, 0.00, -0.00, -1.00, 80.0, 217.1)">P</text><text xml:space="preserve" font-family="Monaco,Monaco" font-size="38.0" fill="#37DE1B" transform="matrix(1.00, 0.00, -0.00, -1.00, 102.8, 217.1)">v</text><text xml:space="preserve" font-family="Monaco,Monaco" font-size="38.0" fill="#37DE1B" transform="matrix(1.00, 0.00, -0.00, -1.00, 125.6, 217.1)">6</text><text xml:space="preserve" font-family="Monaco,Monaco" font-size="38.0" fill="#37DE1B" transform="matrix(1.00, 0.00, -0.00, -1.00, 148.4, 217.1)"> </text><text xml:space="preserve" font-family="Monaco,Monaco" font-size="38.0" fill="#37DE1B" transform="matrix(1.00, 0.00, -0.00, -1.00, 171.2, 217.1)">R</text><text xml:space="preserve" font-family="Monaco,Monaco" font-size="38.0" fill="#37DE1B" transform="matrix(1.00, 0.00, -0.00, -1.00, 194.0, 217.1)">o</text><text xml:space="preserve" font-family="Monaco,Monaco" font-size="38.0" fill="#37DE1B" transform="matrix(1.00, 0.00, -0.00, -1.00, 216.8, 217.1)">u</text><text xml:space="preserve" font-family="Monaco,Monaco" font-size="38.0" fill="#37DE1B" transform="matrix(1.00, 0.00, -0.00, -1.00, 239.6, 217.1)">t</text><text xml:space="preserve" font-family="Monaco,Monaco" font-size="38.0" fill="#37DE1B" transform="matrix(1.00, 0.00, -0.00, -1.00, 262.4, 217.1)">e</text><text xml:space="preserve" font-family="Monaco,Monaco" font-size="38.0" fill="#37DE1B" transform="matrix(1.00, 0.00, -0.00, -1.00, 285.3, 217.1)">r</text><text xml:space="preserve" font-family="Monaco,Monaco" font-size="38.0" fill="#37DE1B" transform="matrix(1.00, 0.00, -0.00, -1.00, 308.1, 217.1)">:</text><text xml:space="preserve" font-family="Monaco,Monaco" font-size="38.0" fill="#37DE1B" transform="matrix(1.00, 0.00, -0.00, -1.00, 330.9, 217.1)"> </text><text xml:space="preserve" font-family="Monaco,Monaco" font-size="38.0" fill="#37DE1B" transform="matrix(1.00, 0.00, -0.00, -1.00, 353.7, 217.1)">n</text><text xml:space="preserve" font-family="Monaco,Monaco" font-size="38.0" fill="#37DE1B" transform="matrix(1.00, 0.00, -0.00, -1.00, 376.5, 217.1)">o</text><text xml:space="preserve" font-family="Monaco,Monaco" font-size="38.0" fill="#37DE1B" transform="matrix(1.00, 0.00, -0.00, -1.00, 399.3, 217.1)">n</text><text xml:space="preserve" font-family="Monaco,Monaco" font-size="38.0" fill="#37DE1B" transform="matrix(1.00, 0.00, -0.00, -1.00, 422.1, 217.1)">e</text><text xml:space="preserve" font-family="Monaco,Monaco" font-size="38.0" fill="#37DE1B" transform="matrix(1.00, 0.00, -0.00, -1.00, 444.9, 217.1)">	</text><text xml:space="preserve" font-family="Monaco,Monaco" font-size="38.0" fill="#37DE1B" transform="matrix(1.00, 0.00, -0.00, -1.00, 57.2, 166.1)">E</text><text xml:space="preserve" font-family="Monaco,Monaco" font-size="38.0" fill="#37DE1B" transform="matrix(1.00, 0.00, -0.00, -1.00, 80.0, 166.1)">t</text><text xml:space="preserve" font-family="Monaco,Monaco" font-size="38.0" fill="#37DE1B" transform="matrix(1.00, 0.00, -0.00, -1.00, 102.8, 166.1)">h</text><text xml:space="preserve" font-family="Monaco,Monaco" font-size="38.0" fill="#37DE1B" transform="matrix(1.00, 0.00, -0.00, -1.00, 125.6, 166.1)">e</text><text xml:space="preserve" font-family="Monaco,Monaco" font-size="38.0" fill="#37DE1B" transform="matrix(1.00, 0.00, -0.00, -1.00, 148.4, 166.1)">r</text><text xml:space="preserve" font-family="Monaco,Monaco" font-size="38.0" fill="#37DE1B" transform="matrix(1.00, 0.00, -0.00, -1.00, 171.2, 166.1)">n</text><text xml:space="preserve" font-family="Monaco,Monaco" font-size="38.0" fill="#37DE1B" transform="matrix(1.00, 0.00, -0.00, -1.00, 194.0, 166.1)">e</text><text xml:space="preserve" font-family="Monaco,Monaco" font-size="38.0" fill="#37DE1B" transform="matrix(1.00, 0.00, -0.00, -1.00, 216.8, 166.1)">t</text><text xml:space="preserve" font-family="Monaco,Monaco" font-size="38.0" fill="#37DE1B" transform="matrix(1.00, 0.00, -0.00, -1.00, 239.6, 166.1)"> </text><text xml:space="preserve" font-family="Monaco,Monaco" font-size="38.0" fill="#37DE1B" transform="matrix(1.00, 0.00, -0.00, -1.00, 262.4, 166.1)">A</text><text xml:space="preserve" font-family="Monaco,Monaco" font-size="38.0" fill="#37DE1B" transform="matrix(1.00, 0.00, -0.00, -1.00, 285.3, 166.1)">d</text><text xml:space="preserve" font-family="Monaco,Monaco" font-size="38.0" fill="#37DE1B" transform="matrix(1.00, 0.00, -0.00, -1.00, 308.1, 166.1)">d</text><text xml:space="preserve" font-family="Monaco,Monaco" font-size="38.0" fill="#37DE1B" transform="matrix(1.00, 0.00, -0.00, -1.00, 330.9, 166.1)">r</text><text xml:space="preserve" font-family="Monaco,Monaco" font-size="38.0" fill="#37DE1B" transform="matrix(1.00, 0.00, -0.00, -1.00, 353.7, 166.1)">e</text><text xml:space="preserve" font-family="Monaco,Monaco" font-size="38.0" fill="#37DE1B" transform="matrix(1.00, 0.00, -0.00, -1.00, 376.5, 166.1)">s</text><text xml:space="preserve" font-family="Monaco,Monaco" font-size="38.0" fill="#37DE1B" transform="matrix(1.00, 0.00, -0.00, -1.00, 399.3, 166.1)">s</text><text xml:space="preserve" font-family="Monaco,Monaco" font-size="38.0" fill="#37DE1B" transform="matrix(1.00, 0.00, -0.00, -1.00, 422.1, 166.1)">:</text><text xml:space="preserve" font-family="Monaco,Monaco" font-size="38.0" fill="#37DE1B" transform="matrix(1.00, 0.00, -0.00, -1.00, 444.9, 166.1)"> </text><text xml:space="preserve" font-family="Monaco,Monaco" font-size="38.0" fill="#37DE1B" transform="matrix(1.00, 0.00, -0.00, -1.00, 467.7, 166.1)">c</text><text xml:space="preserve" font-family="Monaco,Monaco" font-size="38.0" fill="#37DE1B" transform="matrix(1.00, 0.00, -0.00, -1.00, 490.5, 166.1)">8</text><text xml:space="preserve" font-family="Monaco,Monaco" font-size="38.0" fill="#37DE1B" transform="matrix(1.00, 0.00, -0.00, -1.00, 513.3, 166.1)">:</text><text xml:space="preserve" font-family="Monaco,Monaco" font-size="38.0" fill="#37DE1B" transform="matrix(1.00, 0.00, -0.00, -1.00, 536.1, 166.1)">2</text><text xml:space="preserve" font-family="Monaco,Monaco" font-size="38.0" fill="#37DE1B" transform="matrix(1.00, 0.00, -0.00, -1.00, 558.9, 166.1)">a</text><text xml:space="preserve" font-family="Monaco,Monaco" font-size="38.0" fill="#37DE1B" transform="matrix(1.00, 0.00, -0.00, -1.00, 581.7, 166.1)">:</text><text xml:space="preserve" font-family="Monaco,Monaco" font-size="38.0" fill="#37DE1B" transform="matrix(1.00, 0.00, -0.00, -1.00, 604.6, 166.1)">1</text><text xml:space="preserve" font-family="Monaco,Monaco" font-size="38.0" fill="#37DE1B" transform="matrix(1.00, 0.00, -0.00, -1.00, 627.4, 166.1)">4</text><text xml:space="preserve" font-family="Monaco,Monaco" font-size="38.0" fill="#37DE1B" transform="matrix(1.00, 0.00, -0.00, -1.00, 650.2, 166.1)">:</text><text xml:space="preserve" font-family="Monaco,Monaco" font-size="38.0" fill="#37DE1B" transform="matrix(1.00, 0.00, -0.00, -1.00, 673.0, 166.1)">a</text><text xml:space="preserve" font-family="Monaco,Monaco" font-size="38.0" fill="#37DE1B" transform="matrix(1.00, 0.00, -0.00, -1.00, 695.8, 166.1)">0</text><text xml:space="preserve" font-family="Monaco,Monaco" font-size="38.0" fill="#37DE1B" transform="matrix(1.00, 0.00, -0.00, -1.00, 718.6, 166.1)">:</text><text xml:space="preserve" font-family="Monaco,Monaco" font-size="38.0" fill="#37DE1B" transform="matrix(1.00, 0.00, -0.00, -1.00, 741.4, 166.1)">c</text><text xml:space="preserve" font-family="Monaco,Monaco" font-size="38.0" fill="#37DE1B" transform="matrix(1.00, 0.00, -0.00, -1.00, 764.2, 166.1)">b</text><text xml:space="preserve" font-family="Monaco,Monaco" font-size="38.0" fill="#37DE1B" transform="matrix(1.00, 0.00, -0.00, -1.00, 787.0, 166.1)">:</text><text xml:space="preserve" font-family="Monaco,Monaco" font-size="38.0" fill="#37DE1B" transform="matrix(1.00, 0.00, -0.00, -1.00, 809.7, 166.1)">d</text><text xml:space="preserve" font-family="Monaco,Monaco" font-size="38.0" fill="#37DE1B" transform="matrix(1.00, 0.00, -0.00, -1.00, 832.5, 166.1)">3</text></g></svg>