<?xml version="1.0" encoding="UTF-8" standalone="no"?><svg xmlns="http://www.w3.org/2000/svg" xmlns:xlink="http://www.w3.org/1999/xlink" clip-rule="evenodd" stroke-miterlimit="10" viewBox="0 0 1024 768"><desc>SVG generated by Keynote</desc><defs></defs><g transform="matrix(1.00, 0.00, -0.00, -1.00, 0.0, 768.0)"><path d="M 0.0 768.0 L 1024.0 768.0 L 1024.0 0.0 L 0.0 0.0 Z M 0.0 768.0 " fill="#000000"></path><image xlink:href="../../ACF26528-510F-4087-92A7-D9431E4A7675/assets/C07D05C049E9C3A813AD52BFC7182A2D.png" width="983.00" height="584.00" transform="matrix(1.00, 0.00, -0.00, -1.00, 10.2, 664.7)" opacity="0.75"></image><image xlink:href="../../ACF26528-510F-4087-92A7-D9431E4A7675/assets/B8B89F8D2E49298F363D8341A9D067FB.png" width="963.00" height="564.00" transform="matrix(1.00, 0.00, -0.00, -1.00, 30.0, 666.0)"></image><text xml:space="preserve" font-family="LucidaGrande,Lucida Grande" font-size="22.0" fill="#FEFFFE" transform="matrix(1.00, 0.00, -0.00, -1.00, 332.4, 11.6)">F</text><text xml:space="preserve" font-family="LucidaGrande,Lucida Grande" font-size="22.0" fill="#FEFFFE" transform="matrix(1.00, 0.00, -0.00, -1.00, 344.2, 11.6)">e</text><text xml:space="preserve" font-family="LucidaGrande,Lucida Grande" font-size="22.0" fill="#FEFFFE" transform="matrix(1.00, 0.00, -0.00, -1.00, 356.4, 11.6)">e</text><text xml:space="preserve" font-family="LucidaGrande,Lucida Grande" font-size="22.0" fill="#FEFFFE" transform="matrix(1.00, 0.00, -0.00, -1.00, 368.7, 11.6)">d</text><text xml:space="preserve" font-family="LucidaGrande,Lucida Grande" font-size="22.0" fill="#FEFFFE" transform="matrix(1.00, 0.00, -0.00, -1.00, 382.5, 11.6)">b</text><text xml:space="preserve" font-family="LucidaGrande,Lucida Grande" font-size="22.0" fill="#FEFFFE" transform="matrix(1.00, 0.00, -0.00, -1.00, 396.4, 11.6)">a</text><text xml:space="preserve" font-family="LucidaGrande,Lucida Grande" font-size="22.0" fill="#FEFFFE" transform="matrix(1.00, 0.00, -0.00, -1.00, 408.5, 11.6)">c</text><text xml:space="preserve" font-family="LucidaGrande,Lucida Grande" font-size="22.0" fill="#FEFFFE" transform="matrix(1.00, 0.00, -0.00, -1.00, 419.8, 11.6)">k</text><text xml:space="preserve" font-family="LucidaGrande,Lucida Grande" font-size="22.0" fill="#FEFFFE" transform="matrix(1.00, 0.00, -0.00, -1.00, 432.7, 11.6)">:</text><text xml:space="preserve" font-family="LucidaGrande,Lucida Grande" font-size="22.0" fill="#FEFFFE" transform="matrix(1.00, 0.00, -0.00, -1.00, 439.6, 11.6)"> </text><text xml:space="preserve" font-family="LucidaGrande,Lucida Grande" font-size="22.0" fill="#FEFFFE" transform="matrix(1.00, 0.00, -0.00, -1.00, 446.6, 11.6)">h</text><text xml:space="preserve" font-family="LucidaGrande,Lucida Grande" font-size="22.0" fill="#FEFFFE" transform="matrix(1.00, 0.00, -0.00, -1.00, 460.2, 11.6)">t</text><text xml:space="preserve" font-family="LucidaGrande,Lucida Grande" font-size="22.0" fill="#FEFFFE" transform="matrix(1.00, 0.00, -0.00, -1.00, 468.4, 11.6)">t</text><text xml:space="preserve" font-family="LucidaGrande,Lucida Grande" font-size="22.0" fill="#FEFFFE" transform="matrix(1.00, 0.00, -0.00, -1.00, 476.7, 11.6)">p</text><text xml:space="preserve" font-family="LucidaGrande,Lucida Grande" font-size="22.0" fill="#FEFFFE" transform="matrix(1.00, 0.00, -0.00, -1.00, 490.5, 11.6)">:</text><text xml:space="preserve" font-family="LucidaGrande,Lucida Grande" font-size="22.0" fill="#FEFFFE" transform="matrix(1.00, 0.00, -0.00, -1.00, 497.5, 11.6)">/</text><text xml:space="preserve" font-family="LucidaGrande,Lucida Grande" font-size="22.0" fill="#FEFFFE" transform="matrix(1.00, 0.00, -0.00, -1.00, 509.0, 11.6)">/</text><text xml:space="preserve" font-family="LucidaGrande,Lucida Grande" font-size="22.0" fill="#FEFFFE" transform="matrix(1.00, 0.00, -0.00, -1.00, 520.6, 11.6)">j</text><text xml:space="preserve" font-family="LucidaGrande,Lucida Grande" font-size="22.0" fill="#FEFFFE" transform="matrix(1.00, 0.00, -0.00, -1.00, 527.3, 11.6)">.</text><text xml:space="preserve" font-family="LucidaGrande,Lucida Grande" font-size="22.0" fill="#FEFFFE" transform="matrix(1.00, 0.00, -0.00, -1.00, 534.3, 11.6)">m</text><text xml:space="preserve" font-family="LucidaGrande,Lucida Grande" font-size="22.0" fill="#FEFFFE" transform="matrix(1.00, 0.00, -0.00, -1.00, 554.8, 11.6)">p</text><text xml:space="preserve" font-family="LucidaGrande,Lucida Grande" font-size="22.0" fill="#FEFFFE" transform="matrix(1.00, 0.00, -0.00, -1.00, 568.6, 11.6)">/</text><text xml:space="preserve" font-family="LucidaGrande,Lucida Grande" font-size="22.0" fill="#FEFFFE" transform="matrix(1.00, 0.00, -0.00, -1.00, 580.2, 11.6)">p</text><text xml:space="preserve" font-family="LucidaGrande,Lucida Grande" font-size="22.0" fill="#FEFFFE" transform="matrix(1.00, 0.00, -0.00, -1.00, 594.0, 11.6)">s</text><text xml:space="preserve" font-family="LucidaGrande,Lucida Grande" font-size="22.0" fill="#FEFFFE" transform="matrix(1.00, 0.00, -0.00, -1.00, 605.3, 11.6)">u</text><text xml:space="preserve" font-family="LucidaGrande,Lucida Grande" font-size="22.0" fill="#FEFFFE" transform="matrix(1.00, 0.00, -0.00, -1.00, 618.9, 11.6)">m</text><text xml:space="preserve" font-family="LucidaGrande,Lucida Grande" font-size="22.0" fill="#FEFFFE" transform="matrix(1.00, 0.00, -0.00, -1.00, 639.4, 11.6)">a</text><text xml:space="preserve" font-family="LucidaGrande,Lucida Grande" font-size="22.0" fill="#FEFFFE" transform="matrix(1.00, 0.00, -0.00, -1.00, 651.6, 11.6)">c</text><text xml:space="preserve" font-family="LucidaGrande,Lucida Grande" font-size="22.0" fill="#FEFFFE" transform="matrix(1.00, 0.00, -0.00, -1.00, 662.9, 11.6)">1</text><text xml:space="preserve" font-family="LucidaGrande,Lucida Grande" font-size="22.0" fill="#FEFFFE" transform="matrix(1.00, 0.00, -0.00, -1.00, 676.8, 11.6)">3</text><text xml:space="preserve" font-family="Monaco,Monaco" font-size="36.0" fill="#37DE1B" transform="matrix(1.00, 0.00, -0.00, -1.00, 57.2, 562.5)">$</text><text xml:space="preserve" font-family="Monaco,Monaco" font-size="36.0" fill="#37DE1B" transform="matrix(1.00, 0.00, -0.00, -1.00, 78.8, 562.5)"> </text><text xml:space="preserve" font-family="Monaco,Monaco" font-size="36.0" fill="#37DE1B" transform="matrix(1.00, 0.00, -0.00, -1.00, 100.4, 562.5)">p</text><text xml:space="preserve" font-family="Monaco,Monaco" font-size="36.0" fill="#37DE1B" transform="matrix(1.00, 0.00, -0.00, -1.00, 122.0, 562.5)">w</text><text xml:space="preserve" font-family="Monaco,Monaco" font-size="36.0" fill="#37DE1B" transform="matrix(1.00, 0.00, -0.00, -1.00, 143.6, 562.5)">d</text><text xml:space="preserve" font-family="Monaco,Monaco" font-size="36.0" fill="#37DE1B" transform="matrix(1.00, 0.00, -0.00, -1.00, 165.2, 562.5)">	</text><text xml:space="preserve" font-family="Monaco,Monaco" font-size="36.0" fill="#37DE1B" transform="matrix(1.00, 0.00, -0.00, -1.00, 57.2, 514.5)"> </text><text xml:space="preserve" font-family="Monaco,Monaco" font-size="36.0" fill="#37DE1B" transform="matrix(1.00, 0.00, -0.00, -1.00, 78.8, 514.5)">/</text><text xml:space="preserve" font-family="Monaco,Monaco" font-size="36.0" fill="#37DE1B" transform="matrix(1.00, 0.00, -0.00, -1.00, 100.4, 514.5)">L</text><text xml:space="preserve" font-family="Monaco,Monaco" font-size="36.0" fill="#37DE1B" transform="matrix(1.00, 0.00, -0.00, -1.00, 122.0, 514.5)">i</text><text xml:space="preserve" font-family="Monaco,Monaco" font-size="36.0" fill="#37DE1B" transform="matrix(1.00, 0.00, -0.00, -1.00, 143.6, 514.5)">b</text><text xml:space="preserve" font-family="Monaco,Monaco" font-size="36.0" fill="#37DE1B" transform="matrix(1.00, 0.00, -0.00, -1.00, 165.2, 514.5)">r</text><text xml:space="preserve" font-family="Monaco,Monaco" font-size="36.0" fill="#37DE1B" transform="matrix(1.00, 0.00, -0.00, -1.00, 186.8, 514.5)">a</text><text xml:space="preserve" font-family="Monaco,Monaco" font-size="36.0" fill="#37DE1B" transform="matrix(1.00, 0.00, -0.00, -1.00, 208.4, 514.5)">r</text><text xml:space="preserve" font-family="Monaco,Monaco" font-size="36.0" fill="#37DE1B" transform="matrix(1.00, 0.00, -0.00, -1.00, 230.0, 514.5)">y</text><text xml:space="preserve" font-family="Monaco,Monaco" font-size="36.0" fill="#37DE1B" transform="matrix(1.00, 0.00, -0.00, -1.00, 251.6, 514.5)">/</text><text xml:space="preserve" font-family="Monaco,Monaco" font-size="36.0" fill="#37DE1B" transform="matrix(1.00, 0.00, -0.00, -1.00, 273.2, 514.5)">P</text><text xml:space="preserve" font-family="Monaco,Monaco" font-size="36.0" fill="#37DE1B" transform="matrix(1.00, 0.00, -0.00, -1.00, 294.8, 514.5)">r</text><text xml:space="preserve" font-family="Monaco,Monaco" font-size="36.0" fill="#37DE1B" transform="matrix(1.00, 0.00, -0.00, -1.00, 316.5, 514.5)">e</text><text xml:space="preserve" font-family="Monaco,Monaco" font-size="36.0" fill="#37DE1B" transform="matrix(1.00, 0.00, -0.00, -1.00, 338.1, 514.5)">f</text><text xml:space="preserve" font-family="Monaco,Monaco" font-size="36.0" fill="#37DE1B" transform="matrix(1.00, 0.00, -0.00, -1.00, 359.7, 514.5)">e</text><text xml:space="preserve" font-family="Monaco,Monaco" font-size="36.0" fill="#37DE1B" transform="matrix(1.00, 0.00, -0.00, -1.00, 381.3, 514.5)">r</text><text xml:space="preserve" font-family="Monaco,Monaco" font-size="36.0" fill="#37DE1B" transform="matrix(1.00, 0.00, -0.00, -1.00, 402.9, 514.5)">e</text><text xml:space="preserve" font-family="Monaco,Monaco" font-size="36.0" fill="#37DE1B" transform="matrix(1.00, 0.00, -0.00, -1.00, 424.5, 514.5)">n</text><text xml:space="preserve" font-family="Monaco,Monaco" font-size="36.0" fill="#37DE1B" transform="matrix(1.00, 0.00, -0.00, -1.00, 446.1, 514.5)">c</text><text xml:space="preserve" font-family="Monaco,Monaco" font-size="36.0" fill="#37DE1B" transform="matrix(1.00, 0.00, -0.00, -1.00, 467.7, 514.5)">e</text><text xml:space="preserve" font-family="Monaco,Monaco" font-size="36.0" fill="#37DE1B" transform="matrix(1.00, 0.00, -0.00, -1.00, 489.3, 514.5)">s</text><text xml:space="preserve" font-family="Monaco,Monaco" font-size="36.0" fill="#37DE1B" transform="matrix(1.00, 0.00, -0.00, -1.00, 510.9, 514.5)">	</text><text xml:space="preserve" font-family="Monaco,Monaco" font-size="36.0" fill="#37DE1B" transform="matrix(1.00, 0.00, -0.00, -1.00, 57.2, 418.5)">$</text><text xml:space="preserve" font-family="Monaco,Monaco" font-size="36.0" fill="#37DE1B" transform="matrix(1.00, 0.00, -0.00, -1.00, 78.8, 418.5)"> </text><text xml:space="preserve" font-family="Monaco,Monaco" font-size="36.0" fill="#37DE1B" transform="matrix(1.00, 0.00, -0.00, -1.00, 100.4, 418.5)">c</text><text xml:space="preserve" font-family="Monaco,Monaco" font-size="36.0" fill="#37DE1B" transform="matrix(1.00, 0.00, -0.00, -1.00, 122.0, 418.5)">a</text><text xml:space="preserve" font-family="Monaco,Monaco" font-size="36.0" fill="#37DE1B" transform="matrix(1.00, 0.00, -0.00, -1.00, 143.6, 418.5)">t</text><text xml:space="preserve" font-family="Monaco,Monaco" font-size="36.0" fill="#37DE1B" transform="matrix(1.00, 0.00, -0.00, -1.00, 165.2, 418.5)"> </text><text xml:space="preserve" font-family="Monaco,Monaco" font-size="36.0" fill="#37DE1B" transform="matrix(1.00, 0.00, -0.00, -1.00, 186.8, 418.5)">c</text><text xml:space="preserve" font-family="Monaco,Monaco" font-size="36.0" fill="#37DE1B" transform="matrix(1.00, 0.00, -0.00, -1.00, 208.4, 418.5)">o</text><text xml:space="preserve" font-family="Monaco,Monaco" font-size="36.0" fill="#37DE1B" transform="matrix(1.00, 0.00, -0.00, -1.00, 230.0, 418.5)">m</text><text xml:space="preserve" font-family="Monaco,Monaco" font-size="36.0" fill="#37DE1B" transform="matrix(1.00, 0.00, -0.00, -1.00, 251.6, 418.5)">.</text><text xml:space="preserve" font-family="Monaco,Monaco" font-size="36.0" fill="#37DE1B" transform="matrix(1.00, 0.00, -0.00, -1.00, 273.2, 418.5)">a</text><text xml:space="preserve" font-family="Monaco,Monaco" font-size="36.0" fill="#37DE1B" transform="matrix(1.00, 0.00, -0.00, -1.00, 294.9, 418.5)">p</text><text xml:space="preserve" font-family="Monaco,Monaco" font-size="36.0" fill="#37DE1B" transform="matrix(1.00, 0.00, -0.00, -1.00, 316.5, 418.5)">p</text><text xml:space="preserve" font-family="Monaco,Monaco" font-size="36.0" fill="#37DE1B" transform="matrix(1.00, 0.00, -0.00, -1.00, 338.1, 418.5)">l</text><text xml:space="preserve" font-family="Monaco,Monaco" font-size="36.0" fill="#37DE1B" transform="matrix(1.00, 0.00, -0.00, -1.00, 359.7, 418.5)">e</text><text xml:space="preserve" font-family="Monaco,Monaco" font-size="36.0" fill="#37DE1B" transform="matrix(1.00, 0.00, -0.00, -1.00, 381.3, 418.5)">.</text><text xml:space="preserve" font-family="Monaco,Monaco" font-size="36.0" fill="#37DE1B" transform="matrix(1.00, 0.00, -0.00, -1.00, 402.9, 418.5)">p</text><text xml:space="preserve" font-family="Monaco,Monaco" font-size="36.0" fill="#37DE1B" transform="matrix(1.00, 0.00, -0.00, -1.00, 424.5, 418.5)">l</text><text xml:space="preserve" font-family="Monaco,Monaco" font-size="36.0" fill="#37DE1B" transform="matrix(1.00, 0.00, -0.00, -1.00, 446.1, 418.5)">i</text><text xml:space="preserve" font-family="Monaco,Monaco" font-size="36.0" fill="#37DE1B" transform="matrix(1.00, 0.00, -0.00, -1.00, 467.7, 418.5)">s</text><text xml:space="preserve" font-family="Monaco,Monaco" font-size="36.0" fill="#37DE1B" transform="matrix(1.00, 0.00, -0.00, -1.00, 489.3, 418.5)">t</text><text xml:space="preserve" font-family="Monaco,Monaco" font-size="36.0" fill="#37DE1B" transform="matrix(1.00, 0.00, -0.00, -1.00, 510.9, 418.5)">	</text><text xml:space="preserve" font-family="Monaco,Monaco" font-size="36.0" fill="#37DE1B" transform="matrix(1.00, 0.00, -0.00, -1.00, 57.2, 370.5)">R</text><text xml:space="preserve" font-family="Monaco,Monaco" font-size="36.0" fill="#37DE1B" transform="matrix(1.00, 0.00, -0.00, -1.00, 78.8, 370.5)">e</text><text xml:space="preserve" font-family="Monaco,Monaco" font-size="36.0" fill="#37DE1B" transform="matrix(1.00, 0.00, -0.00, -1.00, 100.4, 370.5)">l</text><text xml:space="preserve" font-family="Monaco,Monaco" font-size="36.0" fill="#37DE1B" transform="matrix(1.00, 0.00, -0.00, -1.00, 122.0, 370.5)">a</text><text xml:space="preserve" font-family="Monaco,Monaco" font-size="36.0" fill="#37DE1B" transform="matrix(1.00, 0.00, -0.00, -1.00, 143.6, 370.5)">t</text><text xml:space="preserve" font-family="Monaco,Monaco" font-size="36.0" fill="#37DE1B" transform="matrix(1.00, 0.00, -0.00, -1.00, 165.2, 370.5)">i</text><text xml:space="preserve" font-family="Monaco,Monaco" font-size="36.0" fill="#37DE1B" transform="matrix(1.00, 0.00, -0.00, -1.00, 186.8, 370.5)">v</text><text xml:space="preserve" font-family="Monaco,Monaco" font-size="36.0" fill="#37DE1B" transform="matrix(1.00, 0.00, -0.00, -1.00, 208.4, 370.5)">e</text><text xml:space="preserve" font-family="Monaco,Monaco" font-size="36.0" fill="#37DE1B" transform="matrix(1.00, 0.00, -0.00, -1.00, 230.0, 370.5)"> </text><text xml:space="preserve" font-family="Monaco,Monaco" font-size="36.0" fill="#37DE1B" transform="matrix(1.00, 0.00, -0.00, -1.00, 251.6, 370.5)">o</text><text xml:space="preserve" font-family="Monaco,Monaco" font-size="36.0" fill="#37DE1B" transform="matrix(1.00, 0.00, -0.00, -1.00, 273.2, 370.5)">r</text><text xml:space="preserve" font-family="Monaco,Monaco" font-size="36.0" fill="#37DE1B" transform="matrix(1.00, 0.00, -0.00, -1.00, 294.8, 370.5)"> </text><text xml:space="preserve" font-family="Monaco,Monaco" font-size="36.0" fill="#52575F" transform="matrix(1.00, 0.00, -0.00, -1.00, 316.4, 370.5)">A</text><text xml:space="preserve" font-family="Monaco,Monaco" font-size="36.0" fill="#52575F" transform="matrix(1.00, 0.00, -0.00, -1.00, 338.0, 370.5)">b</text><text xml:space="preserve" font-family="Monaco,Monaco" font-size="36.0" fill="#52575F" transform="matrix(1.00, 0.00, -0.00, -1.00, 359.6, 370.5)">s</text><text xml:space="preserve" font-family="Monaco,Monaco" font-size="36.0" fill="#52575F" transform="matrix(1.00, 0.00, -0.00, -1.00, 381.2, 370.5)">o</text><text xml:space="preserve" font-family="Monaco,Monaco" font-size="36.0" fill="#52575F" transform="matrix(1.00, 0.00, -0.00, -1.00, 402.8, 370.5)">l</text><text xml:space="preserve" font-family="Monaco,Monaco" font-size="36.0" fill="#52575F" transform="matrix(1.00, 0.00, -0.00, -1.00, 424.5, 370.5)">u</text><text xml:space="preserve" font-family="Monaco,Monaco" font-size="36.0" fill="#52575F" transform="matrix(1.00, 0.00, -0.00, -1.00, 446.1, 370.5)">t</text><text xml:space="preserve" font-family="Monaco,Monaco" font-size="36.0" fill="#52575F" transform="matrix(1.00, 0.00, -0.00, -1.00, 467.7, 370.5)">e</text><text xml:space="preserve" font-family="Monaco,Monaco" font-size="36.0" fill="#37DE1B" transform="matrix(1.00, 0.00, -0.00, -1.00, 489.2, 370.5)">?</text><text xml:space="preserve" font-family="Monaco,Monaco" font-size="36.0" fill="#37DE1B" transform="matrix(1.00, 0.00, -0.00, -1.00, 510.9, 370.5)">	</text><g><clipPath id="clip0x7f8185a09790"><path d="M 56.2 366.8 L 230.0 366.8 L 230.0 371.5 L 56.2 371.5 Z M 56.2 366.8 "></path></clipPath><g clip-path="url(#clip0x7f8185a09790)"><path d="M 4.0 245.3 L 176.8 245.3 " fill="none" stroke="#37DE1B" stroke-width="2.72" transform="matrix(1.00, 0.00, 0.00, -1.00, 53.2, 614.5)"></path></g></g><text xml:space="preserve" font-family="Monaco,Monaco" font-size="36.0" fill="#37DE1B" transform="matrix(1.00, 0.00, -0.00, -1.00, 57.2, 274.5)">$</text><text xml:space="preserve" font-family="Monaco,Monaco" font-size="36.0" fill="#37DE1B" transform="matrix(1.00, 0.00, -0.00, -1.00, 78.8, 274.5)"> </text><text xml:space="preserve" font-family="Monaco,Monaco" font-size="36.0" fill="#37DE1B" transform="matrix(1.00, 0.00, -0.00, -1.00, 100.4, 274.5)">c</text><text xml:space="preserve" font-family="Monaco,Monaco" font-size="36.0" fill="#37DE1B" transform="matrix(1.00, 0.00, -0.00, -1.00, 122.0, 274.5)">a</text><text xml:space="preserve" font-family="Monaco,Monaco" font-size="36.0" fill="#37DE1B" transform="matrix(1.00, 0.00, -0.00, -1.00, 143.6, 274.5)">t</text><text xml:space="preserve" font-family="Monaco,Monaco" font-size="36.0" fill="#37DE1B" transform="matrix(1.00, 0.00, -0.00, -1.00, 165.2, 274.5)"> </text><text xml:space="preserve" font-family="Monaco,Monaco" font-size="36.0" fill="#37DE1B" transform="matrix(1.00, 0.00, -0.00, -1.00, 186.8, 274.5)">/</text><text xml:space="preserve" font-family="Monaco,Monaco" font-size="36.0" fill="#37DE1B" transform="matrix(1.00, 0.00, -0.00, -1.00, 208.4, 274.5)">L</text><text xml:space="preserve" font-family="Monaco,Monaco" font-size="36.0" fill="#37DE1B" transform="matrix(1.00, 0.00, -0.00, -1.00, 230.0, 274.5)">i</text><text xml:space="preserve" font-family="Monaco,Monaco" font-size="36.0" fill="#37DE1B" transform="matrix(1.00, 0.00, -0.00, -1.00, 251.6, 274.5)">b</text><text xml:space="preserve" font-family="Monaco,Monaco" font-size="36.0" fill="#37DE1B" transform="matrix(1.00, 0.00, -0.00, -1.00, 273.2, 274.5)">r</text><text xml:space="preserve" font-family="Monaco,Monaco" font-size="36.0" fill="#37DE1B" transform="matrix(1.00, 0.00, -0.00, -1.00, 294.9, 274.5)">a</text><text xml:space="preserve" font-family="Monaco,Monaco" font-size="36.0" fill="#37DE1B" transform="matrix(1.00, 0.00, -0.00, -1.00, 316.5, 274.5)">r</text><text xml:space="preserve" font-family="Monaco,Monaco" font-size="36.0" fill="#37DE1B" transform="matrix(1.00, 0.00, -0.00, -1.00, 338.1, 274.5)">y</text><text xml:space="preserve" font-family="Monaco,Monaco" font-size="36.0" fill="#37DE1B" transform="matrix(1.00, 0.00, -0.00, -1.00, 359.7, 274.5)">/</text><text xml:space="preserve" font-family="Monaco,Monaco" font-size="36.0" fill="#37DE1B" transform="matrix(1.00, 0.00, -0.00, -1.00, 381.3, 274.5)">P</text><text xml:space="preserve" font-family="Monaco,Monaco" font-size="36.0" fill="#37DE1B" transform="matrix(1.00, 0.00, -0.00, -1.00, 402.9, 274.5)">r</text><text xml:space="preserve" font-family="Monaco,Monaco" font-size="36.0" fill="#37DE1B" transform="matrix(1.00, 0.00, -0.00, -1.00, 424.5, 274.5)">e</text><text xml:space="preserve" font-family="Monaco,Monaco" font-size="36.0" fill="#37DE1B" transform="matrix(1.00, 0.00, -0.00, -1.00, 446.1, 274.5)">f</text><text xml:space="preserve" font-family="Monaco,Monaco" font-size="36.0" fill="#37DE1B" transform="matrix(1.00, 0.00, -0.00, -1.00, 467.7, 274.5)">e</text><text xml:space="preserve" font-family="Monaco,Monaco" font-size="36.0" fill="#37DE1B" transform="matrix(1.00, 0.00, -0.00, -1.00, 489.3, 274.5)">r</text><text xml:space="preserve" font-family="Monaco,Monaco" font-size="36.0" fill="#37DE1B" transform="matrix(1.00, 0.00, -0.00, -1.00, 510.9, 274.5)">e</text><text xml:space="preserve" font-family="Monaco,Monaco" font-size="36.0" fill="#37DE1B" transform="matrix(1.00, 0.00, -0.00, -1.00, 532.5, 274.5)">n</text><text xml:space="preserve" font-family="Monaco,Monaco" font-size="36.0" fill="#37DE1B" transform="matrix(1.00, 0.00, -0.00, -1.00, 554.1, 274.5)">c</text><text xml:space="preserve" font-family="Monaco,Monaco" font-size="36.0" fill="#37DE1B" transform="matrix(1.00, 0.00, -0.00, -1.00, 575.7, 274.5)">e</text><text xml:space="preserve" font-family="Monaco,Monaco" font-size="36.0" fill="#37DE1B" transform="matrix(1.00, 0.00, -0.00, -1.00, 597.4, 274.5)">s</text><text xml:space="preserve" font-family="Monaco,Monaco" font-size="36.0" fill="#37DE1B" transform="matrix(1.00, 0.00, -0.00, -1.00, 619.0, 274.5)">/</text><text xml:space="preserve" font-family="Monaco,Monaco" font-size="36.0" fill="#37DE1B" transform="matrix(1.00, 0.00, -0.00, -1.00, 640.5, 274.5)">c</text><text xml:space="preserve" font-family="Monaco,Monaco" font-size="36.0" fill="#37DE1B" transform="matrix(1.00, 0.00, -0.00, -1.00, 662.1, 274.5)">o</text><text xml:space="preserve" font-family="Monaco,Monaco" font-size="36.0" fill="#37DE1B" transform="matrix(1.00, 0.00, -0.00, -1.00, 683.7, 274.5)">m</text><text xml:space="preserve" font-family="Monaco,Monaco" font-size="36.0" fill="#37DE1B" transform="matrix(1.00, 0.00, -0.00, -1.00, 705.3, 274.5)">.</text><text xml:space="preserve" font-family="Monaco,Monaco" font-size="36.0" fill="#37DE1B" transform="matrix(1.00, 0.00, -0.00, -1.00, 726.9, 274.5)">a</text><text xml:space="preserve" font-family="Monaco,Monaco" font-size="36.0" fill="#37DE1B" transform="matrix(1.00, 0.00, -0.00, -1.00, 748.5, 274.5)">p</text><text xml:space="preserve" font-family="Monaco,Monaco" font-size="36.0" fill="#37DE1B" transform="matrix(1.00, 0.00, -0.00, -1.00, 770.1, 274.5)">p</text><text xml:space="preserve" font-family="Monaco,Monaco" font-size="36.0" fill="#37DE1B" transform="matrix(1.00, 0.00, -0.00, -1.00, 791.7, 274.5)">l</text><text xml:space="preserve" font-family="Monaco,Monaco" font-size="36.0" fill="#37DE1B" transform="matrix(1.00, 0.00, -0.00, -1.00, 813.3, 274.5)">e</text><text xml:space="preserve" font-family="Monaco,Monaco" font-size="36.0" fill="#37DE1B" transform="matrix(1.00, 0.00, -0.00, -1.00, 834.9, 274.5)">.</text><text xml:space="preserve" font-family="Monaco,Monaco" font-size="36.0" fill="#37DE1B" transform="matrix(1.00, 0.00, -0.00, -1.00, 856.5, 274.5)">p</text><text xml:space="preserve" font-family="Monaco,Monaco" font-size="36.0" fill="#37DE1B" transform="matrix(1.00, 0.00, -0.00, -1.00, 878.1, 274.5)">l</text><text xml:space="preserve" font-family="Monaco,Monaco" font-size="36.0" fill="#37DE1B" transform="matrix(1.00, 0.00, -0.00, -1.00, 899.8, 274.5)">i</text><text xml:space="preserve" font-family="Monaco,Monaco" font-size="36.0" fill="#37DE1B" transform="matrix(1.00, 0.00, -0.00, -1.00, 921.4, 274.5)">s</text><text xml:space="preserve" font-family="Monaco,Monaco" font-size="36.0" fill="#37DE1B" transform="matrix(1.00, 0.00, -0.00, -1.00, 943.0, 274.5)">t</text><text xml:space="preserve" font-family="Monaco,Monaco" font-size="36.0" fill="#37DE1B" transform="matrix(1.00, 0.00, -0.00, -1.00, 964.6, 274.5)">	</text><text xml:space="preserve" font-family="Monaco,Monaco" font-size="36.0" fill="#52575F" transform="matrix(1.00, 0.00, -0.00, -1.00, 57.2, 226.5)">R</text><text xml:space="preserve" font-family="Monaco,Monaco" font-size="36.0" fill="#52575F" transform="matrix(1.00, 0.00, -0.00, -1.00, 78.8, 226.5)">e</text><text xml:space="preserve" font-family="Monaco,Monaco" font-size="36.0" fill="#52575F" transform="matrix(1.00, 0.00, -0.00, -1.00, 100.4, 226.5)">l</text><text xml:space="preserve" font-family="Monaco,Monaco" font-size="36.0" fill="#52575F" transform="matrix(1.00, 0.00, -0.00, -1.00, 122.0, 226.5)">a</text><text xml:space="preserve" font-family="Monaco,Monaco" font-size="36.0" fill="#52575F" transform="matrix(1.00, 0.00, -0.00, -1.00, 143.6, 226.5)">t</text><text xml:space="preserve" font-family="Monaco,Monaco" font-size="36.0" fill="#52575F" transform="matrix(1.00, 0.00, -0.00, -1.00, 165.2, 226.5)">i</text><text xml:space="preserve" font-family="Monaco,Monaco" font-size="36.0" fill="#52575F" transform="matrix(1.00, 0.00, -0.00, -1.00, 186.8, 226.5)">v</text><text xml:space="preserve" font-family="Monaco,Monaco" font-size="36.0" fill="#52575F" transform="matrix(1.00, 0.00, -0.00, -1.00, 208.4, 226.5)">e</text><text xml:space="preserve" font-family="Monaco,Monaco" font-size="36.0" fill="#37DE1B" transform="matrix(1.00, 0.00, -0.00, -1.00, 230.0, 226.5)"> </text><text xml:space="preserve" font-family="Monaco,Monaco" font-size="36.0" fill="#37DE1B" transform="matrix(1.00, 0.00, -0.00, -1.00, 251.6, 226.5)">o</text><text xml:space="preserve" font-family="Monaco,Monaco" font-size="36.0" fill="#37DE1B" transform="matrix(1.00, 0.00, -0.00, -1.00, 273.2, 226.5)">r</text><text xml:space="preserve" font-family="Monaco,Monaco" font-size="36.0" fill="#37DE1B" transform="matrix(1.00, 0.00, -0.00, -1.00, 294.8, 226.5)"> </text><text xml:space="preserve" font-family="Monaco,Monaco" font-size="36.0" fill="#37DE1B" transform="matrix(1.00, 0.00, -0.00, -1.00, 316.4, 226.5)">A</text><text xml:space="preserve" font-family="Monaco,Monaco" font-size="36.0" fill="#37DE1B" transform="matrix(1.00, 0.00, -0.00, -1.00, 338.0, 226.5)">b</text><text xml:space="preserve" font-family="Monaco,Monaco" font-size="36.0" fill="#37DE1B" transform="matrix(1.00, 0.00, -0.00, -1.00, 359.6, 226.5)">s</text><text xml:space="preserve" font-family="Monaco,Monaco" font-size="36.0" fill="#37DE1B" transform="matrix(1.00, 0.00, -0.00, -1.00, 381.2, 226.5)">o</text><text xml:space="preserve" font-family="Monaco,Monaco" font-size="36.0" fill="#37DE1B" transform="matrix(1.00, 0.00, -0.00, -1.00, 402.8, 226.5)">l</text><text xml:space="preserve" font-family="Monaco,Monaco" font-size="36.0" fill="#37DE1B" transform="matrix(1.00, 0.00, -0.00, -1.00, 424.5, 226.5)">u</text><text xml:space="preserve" font-family="Monaco,Monaco" font-size="36.0" fill="#37DE1B" transform="matrix(1.00, 0.00, -0.00, -1.00, 446.1, 226.5)">t</text><text xml:space="preserve" font-family="Monaco,Monaco" font-size="36.0" fill="#37DE1B" transform="matrix(1.00, 0.00, -0.00, -1.00, 467.7, 226.5)">e</text><text xml:space="preserve" font-family="Monaco,Monaco" font-size="36.0" fill="#37DE1B" transform="matrix(1.00, 0.00, -0.00, -1.00, 489.2, 226.5)">?</text><text xml:space="preserve" font-family="Monaco,Monaco" font-size="36.0" fill="#37DE1B" transform="matrix(1.00, 0.00, -0.00, -1.00, 510.9, 226.5)">	</text><g><clipPath id="clip0x7f8185a26790"><path d="M 315.4 222.8 L 489.2 222.8 L 489.2 227.5 L 315.4 227.5 Z M 315.4 222.8 "></path></clipPath><g clip-path="url(#clip0x7f8185a26790)"><path d="M 263.2 389.3 L 436.1 389.3 " fill="none" stroke="#37DE1B" stroke-width="2.72" transform="matrix(1.00, 0.00, 0.00, -1.00, 53.2, 614.5)"></path></g></g></g></svg>