<?xml version="1.0" encoding="UTF-8" standalone="no"?><svg xmlns="http://www.w3.org/2000/svg" xmlns:xlink="http://www.w3.org/1999/xlink" clip-rule="evenodd" stroke-miterlimit="10" viewBox="0 0 1024 768"><desc>SVG generated by Keynote</desc><defs></defs><g transform="matrix(1.00, 0.00, -0.00, -1.00, 0.0, 768.0)"><path d="M 0.0 768.0 L 1024.0 768.0 L 1024.0 0.0 L 0.0 0.0 Z M 0.0 768.0 " fill="#000000"></path><image xlink:href="../../ACF26528-510F-4087-92A7-D9431E4A7675/assets/C07D05C049E9C3A813AD52BFC7182A2D.png" width="983.00" height="584.00" transform="matrix(1.00, 0.00, -0.00, -1.00, 10.2, 664.7)" opacity="0.75"></image><image xlink:href="../../ACF26528-510F-4087-92A7-D9431E4A7675/assets/B8B89F8D2E49298F363D8341A9D067FB.png" width="963.00" height="564.00" transform="matrix(1.00, 0.00, -0.00, -1.00, 30.0, 666.0)"></image><text xml:space="preserve" font-family="LucidaGrande,Lucida Grande" font-size="22.0" fill="#FEFFFE" transform="matrix(1.00, 0.00, -0.00, -1.00, 332.4, 11.6)">F</text><text xml:space="preserve" font-family="LucidaGrande,Lucida Grande" font-size="22.0" fill="#FEFFFE" transform="matrix(1.00, 0.00, -0.00, -1.00, 344.2, 11.6)">e</text><text xml:space="preserve" font-family="LucidaGrande,Lucida Grande" font-size="22.0" fill="#FEFFFE" transform="matrix(1.00, 0.00, -0.00, -1.00, 356.4, 11.6)">e</text><text xml:space="preserve" font-family="LucidaGrande,Lucida Grande" font-size="22.0" fill="#FEFFFE" transform="matrix(1.00, 0.00, -0.00, -1.00, 368.7, 11.6)">d</text><text xml:space="preserve" font-family="LucidaGrande,Lucida Grande" font-size="22.0" fill="#FEFFFE" transform="matrix(1.00, 0.00, -0.00, -1.00, 382.5, 11.6)">b</text><text xml:space="preserve" font-family="LucidaGrande,Lucida Grande" font-size="22.0" fill="#FEFFFE" transform="matrix(1.00, 0.00, -0.00, -1.00, 396.4, 11.6)">a</text><text xml:space="preserve" font-family="LucidaGrande,Lucida Grande" font-size="22.0" fill="#FEFFFE" transform="matrix(1.00, 0.00, -0.00, -1.00, 408.5, 11.6)">c</text><text xml:space="preserve" font-family="LucidaGrande,Lucida Grande" font-size="22.0" fill="#FEFFFE" transform="matrix(1.00, 0.00, -0.00, -1.00, 419.8, 11.6)">k</text><text xml:space="preserve" font-family="LucidaGrande,Lucida Grande" font-size="22.0" fill="#FEFFFE" transform="matrix(1.00, 0.00, -0.00, -1.00, 432.7, 11.6)">:</text><text xml:space="preserve" font-family="LucidaGrande,Lucida Grande" font-size="22.0" fill="#FEFFFE" transform="matrix(1.00, 0.00, -0.00, -1.00, 439.6, 11.6)"> </text><text xml:space="preserve" font-family="LucidaGrande,Lucida Grande" font-size="22.0" fill="#FEFFFE" transform="matrix(1.00, 0.00, -0.00, -1.00, 446.6, 11.6)">h</text><text xml:space="preserve" font-family="LucidaGrande,Lucida Grande" font-size="22.0" fill="#FEFFFE" transform="matrix(1.00, 0.00, -0.00, -1.00, 460.2, 11.6)">t</text><text xml:space="preserve" font-family="LucidaGrande,Lucida Grande" font-size="22.0" fill="#FEFFFE" transform="matrix(1.00, 0.00, -0.00, -1.00, 468.4, 11.6)">t</text><text xml:space="preserve" font-family="LucidaGrande,Lucida Grande" font-size="22.0" fill="#FEFFFE" transform="matrix(1.00, 0.00, -0.00, -1.00, 476.7, 11.6)">p</text><text xml:space="preserve" font-family="LucidaGrande,Lucida Grande" font-size="22.0" fill="#FEFFFE" transform="matrix(1.00, 0.00, -0.00, -1.00, 490.5, 11.6)">:</text><text xml:space="preserve" font-family="LucidaGrande,Lucida Grande" font-size="22.0" fill="#FEFFFE" transform="matrix(1.00, 0.00, -0.00, -1.00, 497.5, 11.6)">/</text><text xml:space="preserve" font-family="LucidaGrande,Lucida Grande" font-size="22.0" fill="#FEFFFE" transform="matrix(1.00, 0.00, -0.00, -1.00, 509.0, 11.6)">/</text><text xml:space="preserve" font-family="LucidaGrande,Lucida Grande" font-size="22.0" fill="#FEFFFE" transform="matrix(1.00, 0.00, -0.00, -1.00, 520.6, 11.6)">j</text><text xml:space="preserve" font-family="LucidaGrande,Lucida Grande" font-size="22.0" fill="#FEFFFE" transform="matrix(1.00, 0.00, -0.00, -1.00, 527.3, 11.6)">.</text><text xml:space="preserve" font-family="LucidaGrande,Lucida Grande" font-size="22.0" fill="#FEFFFE" transform="matrix(1.00, 0.00, -0.00, -1.00, 534.3, 11.6)">m</text><text xml:space="preserve" font-family="LucidaGrande,Lucida Grande" font-size="22.0" fill="#FEFFFE" transform="matrix(1.00, 0.00, -0.00, -1.00, 554.8, 11.6)">p</text><text xml:space="preserve" font-family="LucidaGrande,Lucida Grande" font-size="22.0" fill="#FEFFFE" transform="matrix(1.00, 0.00, -0.00, -1.00, 568.6, 11.6)">/</text><text xml:space="preserve" font-family="LucidaGrande,Lucida Grande" font-size="22.0" fill="#FEFFFE" transform="matrix(1.00, 0.00, -0.00, -1.00, 580.2, 11.6)">p</text><text xml:space="preserve" font-family="LucidaGrande,Lucida Grande" font-size="22.0" fill="#FEFFFE" transform="matrix(1.00, 0.00, -0.00, -1.00, 594.0, 11.6)">s</text><text xml:space="preserve" font-family="LucidaGrande,Lucida Grande" font-size="22.0" fill="#FEFFFE" transform="matrix(1.00, 0.00, -0.00, -1.00, 605.3, 11.6)">u</text><text xml:space="preserve" font-family="LucidaGrande,Lucida Grande" font-size="22.0" fill="#FEFFFE" transform="matrix(1.00, 0.00, -0.00, -1.00, 618.9, 11.6)">m</text><text xml:space="preserve" font-family="LucidaGrande,Lucida Grande" font-size="22.0" fill="#FEFFFE" transform="matrix(1.00, 0.00, -0.00, -1.00, 639.4, 11.6)">a</text><text xml:space="preserve" font-family="LucidaGrande,Lucida Grande" font-size="22.0" fill="#FEFFFE" transform="matrix(1.00, 0.00, -0.00, -1.00, 651.6, 11.6)">c</text><text xml:space="preserve" font-family="LucidaGrande,Lucida Grande" font-size="22.0" fill="#FEFFFE" transform="matrix(1.00, 0.00, -0.00, -1.00, 662.9, 11.6)">1</text><text xml:space="preserve" font-family="LucidaGrande,Lucida Grande" font-size="22.0" fill="#FEFFFE" transform="matrix(1.00, 0.00, -0.00, -1.00, 676.8, 11.6)">3</text><text xml:space="preserve" font-family="Monaco,Monaco" font-size="48.0" fill="#37DE1B" transform="matrix(1.00, 0.00, -0.00, -1.00, 57.2, 462.5)">$</text><text xml:space="preserve" font-family="Monaco,Monaco" font-size="48.0" fill="#37DE1B" transform="matrix(1.00, 0.00, -0.00, -1.00, 86.0, 462.5)"> </text><text xml:space="preserve" font-family="Monaco,Monaco" font-size="48.0" fill="#37DE1B" transform="matrix(1.00, 0.00, -0.00, -1.00, 114.8, 462.5)">i</text><text xml:space="preserve" font-family="Monaco,Monaco" font-size="48.0" fill="#37DE1B" transform="matrix(1.00, 0.00, -0.00, -1.00, 143.6, 462.5)">f</text><text xml:space="preserve" font-family="Monaco,Monaco" font-size="48.0" fill="#37DE1B" transform="matrix(1.00, 0.00, -0.00, -1.00, 172.4, 462.5)"> </text><text xml:space="preserve" font-family="Monaco,Monaco" font-size="48.0" fill="#37DE1B" transform="matrix(1.00, 0.00, -0.00, -1.00, 201.2, 462.5)">[</text><text xml:space="preserve" font-family="Monaco,Monaco" font-size="48.0" fill="#37DE1B" transform="matrix(1.00, 0.00, -0.00, -1.00, 230.0, 462.5)">[</text><text xml:space="preserve" font-family="Monaco,Monaco" font-size="48.0" fill="#37DE1B" transform="matrix(1.00, 0.00, -0.00, -1.00, 258.8, 462.5)"> </text><text xml:space="preserve" font-family="Monaco,Monaco" font-size="48.0" fill="#1497FC" transform="matrix(1.00, 0.00, -0.00, -1.00, 287.6, 462.5)">$</text><text xml:space="preserve" font-family="Monaco,Monaco" font-size="48.0" fill="#1497FC" transform="matrix(1.00, 0.00, -0.00, -1.00, 316.4, 462.5)">(</text><text xml:space="preserve" font-family="Monaco,Monaco" font-size="48.0" fill="#1497FC" transform="matrix(1.00, 0.00, -0.00, -1.00, 345.2, 462.5)">s</text><text xml:space="preserve" font-family="Monaco,Monaco" font-size="48.0" fill="#1497FC" transform="matrix(1.00, 0.00, -0.00, -1.00, 374.0, 462.5)">o</text><text xml:space="preserve" font-family="Monaco,Monaco" font-size="48.0" fill="#1497FC" transform="matrix(1.00, 0.00, -0.00, -1.00, 402.9, 462.5)">f</text><text xml:space="preserve" font-family="Monaco,Monaco" font-size="48.0" fill="#1497FC" transform="matrix(1.00, 0.00, -0.00, -1.00, 431.7, 462.5)">t</text><text xml:space="preserve" font-family="Monaco,Monaco" font-size="48.0" fill="#1497FC" transform="matrix(1.00, 0.00, -0.00, -1.00, 460.5, 462.5)">w</text><text xml:space="preserve" font-family="Monaco,Monaco" font-size="48.0" fill="#1497FC" transform="matrix(1.00, 0.00, -0.00, -1.00, 489.3, 462.5)">a</text><text xml:space="preserve" font-family="Monaco,Monaco" font-size="48.0" fill="#1497FC" transform="matrix(1.00, 0.00, -0.00, -1.00, 518.1, 462.5)">r</text><text xml:space="preserve" font-family="Monaco,Monaco" font-size="48.0" fill="#1497FC" transform="matrix(1.00, 0.00, -0.00, -1.00, 546.9, 462.5)">e</text><text xml:space="preserve" font-family="Monaco,Monaco" font-size="48.0" fill="#1497FC" transform="matrix(1.00, 0.00, -0.00, -1.00, 575.7, 462.5)">u</text><text xml:space="preserve" font-family="Monaco,Monaco" font-size="48.0" fill="#1497FC" transform="matrix(1.00, 0.00, -0.00, -1.00, 604.5, 462.5)">p</text><text xml:space="preserve" font-family="Monaco,Monaco" font-size="48.0" fill="#1497FC" transform="matrix(1.00, 0.00, -0.00, -1.00, 633.3, 462.5)">d</text><text xml:space="preserve" font-family="Monaco,Monaco" font-size="48.0" fill="#1497FC" transform="matrix(1.00, 0.00, -0.00, -1.00, 662.1, 462.5)">a</text><text xml:space="preserve" font-family="Monaco,Monaco" font-size="48.0" fill="#1497FC" transform="matrix(1.00, 0.00, -0.00, -1.00, 690.9, 462.5)">t</text><text xml:space="preserve" font-family="Monaco,Monaco" font-size="48.0" fill="#1497FC" transform="matrix(1.00, 0.00, -0.00, -1.00, 719.8, 462.5)">e</text><text xml:space="preserve" font-family="Monaco,Monaco" font-size="48.0" fill="#1497FC" transform="matrix(1.00, 0.00, -0.00, -1.00, 748.6, 462.5)"> </text><text xml:space="preserve" font-family="Monaco,Monaco" font-size="48.0" fill="#1497FC" transform="matrix(1.00, 0.00, -0.00, -1.00, 777.4, 462.5)">-</text><text xml:space="preserve" font-family="Monaco,Monaco" font-size="48.0" fill="#1497FC" transform="matrix(1.00, 0.00, -0.00, -1.00, 806.2, 462.5)">l</text><text xml:space="preserve" font-family="Monaco,Monaco" font-size="48.0" fill="#1497FC" transform="matrix(1.00, 0.00, -0.00, -1.00, 835.0, 462.5)">|</text><text xml:space="preserve" font-family="Monaco,Monaco" font-size="48.0" fill="#1497FC" transform="matrix(1.00, 0.00, -0.00, -1.00, 863.8, 462.5)"> </text><text xml:space="preserve" font-family="Monaco,Monaco" font-size="48.0" fill="#1497FC" transform="matrix(1.00, 0.00, -0.00, -1.00, 57.2, 398.5)">g</text><text xml:space="preserve" font-family="Monaco,Monaco" font-size="48.0" fill="#1497FC" transform="matrix(1.00, 0.00, -0.00, -1.00, 86.0, 398.5)">r</text><text xml:space="preserve" font-family="Monaco,Monaco" font-size="48.0" fill="#1497FC" transform="matrix(1.00, 0.00, -0.00, -1.00, 114.8, 398.5)">e</text><text xml:space="preserve" font-family="Monaco,Monaco" font-size="48.0" fill="#1497FC" transform="matrix(1.00, 0.00, -0.00, -1.00, 143.6, 398.5)">p</text><text xml:space="preserve" font-family="Monaco,Monaco" font-size="48.0" fill="#1497FC" transform="matrix(1.00, 0.00, -0.00, -1.00, 172.4, 398.5)"> </text><text xml:space="preserve" font-family="Monaco,Monaco" font-size="48.0" fill="#1497FC" transform="matrix(1.00, 0.00, -0.00, -1.00, 201.2, 398.5)">"</text><text xml:space="preserve" font-family="Monaco,Monaco" font-size="48.0" fill="#1497FC" transform="matrix(1.00, 0.00, -0.00, -1.00, 230.0, 398.5)">r</text><text xml:space="preserve" font-family="Monaco,Monaco" font-size="48.0" fill="#1497FC" transform="matrix(1.00, 0.00, -0.00, -1.00, 258.8, 398.5)">e</text><text xml:space="preserve" font-family="Monaco,Monaco" font-size="48.0" fill="#1497FC" transform="matrix(1.00, 0.00, -0.00, -1.00, 287.7, 398.5)">s</text><text xml:space="preserve" font-family="Monaco,Monaco" font-size="48.0" fill="#1497FC" transform="matrix(1.00, 0.00, -0.00, -1.00, 316.5, 398.5)">t</text><text xml:space="preserve" font-family="Monaco,Monaco" font-size="48.0" fill="#1497FC" transform="matrix(1.00, 0.00, -0.00, -1.00, 345.3, 398.5)">a</text><text xml:space="preserve" font-family="Monaco,Monaco" font-size="48.0" fill="#1497FC" transform="matrix(1.00, 0.00, -0.00, -1.00, 374.1, 398.5)">r</text><text xml:space="preserve" font-family="Monaco,Monaco" font-size="48.0" fill="#1497FC" transform="matrix(1.00, 0.00, -0.00, -1.00, 402.9, 398.5)">t</text><text xml:space="preserve" font-family="Monaco,Monaco" font-size="48.0" fill="#1497FC" transform="matrix(1.00, 0.00, -0.00, -1.00, 431.7, 398.5)">"</text><text xml:space="preserve" font-family="Monaco,Monaco" font-size="48.0" fill="#1497FC" transform="matrix(1.00, 0.00, -0.00, -1.00, 460.5, 398.5)">)</text><text xml:space="preserve" font-family="Monaco,Monaco" font-size="48.0" fill="#37DE1B" transform="matrix(1.00, 0.00, -0.00, -1.00, 489.2, 398.5)"> </text><text xml:space="preserve" font-family="Monaco,Monaco" font-size="48.0" fill="#37DE1B" transform="matrix(1.00, 0.00, -0.00, -1.00, 518.1, 398.5)"> </text><text xml:space="preserve" font-family="Monaco,Monaco" font-size="48.0" fill="#37DE1B" transform="matrix(1.00, 0.00, -0.00, -1.00, 546.9, 398.5)">]</text><text xml:space="preserve" font-family="Monaco,Monaco" font-size="48.0" fill="#37DE1B" transform="matrix(1.00, 0.00, -0.00, -1.00, 575.7, 398.5)">]</text><text xml:space="preserve" font-family="Monaco,Monaco" font-size="48.0" fill="#37DE1B" transform="matrix(1.00, 0.00, -0.00, -1.00, 604.5, 398.5)">;</text><text xml:space="preserve" font-family="Monaco,Monaco" font-size="48.0" fill="#37DE1B" transform="matrix(1.00, 0.00, -0.00, -1.00, 633.3, 398.5)"> </text><text xml:space="preserve" font-family="Monaco,Monaco" font-size="48.0" fill="#37DE1B" transform="matrix(1.00, 0.00, -0.00, -1.00, 662.1, 398.5)">t</text><text xml:space="preserve" font-family="Monaco,Monaco" font-size="48.0" fill="#37DE1B" transform="matrix(1.00, 0.00, -0.00, -1.00, 690.9, 398.5)">h</text><text xml:space="preserve" font-family="Monaco,Monaco" font-size="48.0" fill="#37DE1B" transform="matrix(1.00, 0.00, -0.00, -1.00, 719.7, 398.5)">e</text><text xml:space="preserve" font-family="Monaco,Monaco" font-size="48.0" fill="#37DE1B" transform="matrix(1.00, 0.00, -0.00, -1.00, 748.5, 398.5)">n</text><text xml:space="preserve" font-family="Monaco,Monaco" font-size="48.0" fill="#37DE1B" transform="matrix(1.00, 0.00, -0.00, -1.00, 777.3, 398.5)">	</text><text xml:space="preserve" font-family="Monaco,Monaco" font-size="48.0" fill="#37DE1B" transform="matrix(1.00, 0.00, -0.00, -1.00, 57.2, 334.5)">&gt;</text><text xml:space="preserve" font-family="Monaco,Monaco" font-size="48.0" fill="#37DE1B" transform="matrix(1.00, 0.00, -0.00, -1.00, 86.0, 334.5)"> </text><text xml:space="preserve" font-family="Monaco,Monaco" font-size="48.0" fill="#37DE1B" transform="matrix(1.00, 0.00, -0.00, -1.00, 114.8, 334.5)">e</text><text xml:space="preserve" font-family="Monaco,Monaco" font-size="48.0" fill="#37DE1B" transform="matrix(1.00, 0.00, -0.00, -1.00, 143.6, 334.5)">c</text><text xml:space="preserve" font-family="Monaco,Monaco" font-size="48.0" fill="#37DE1B" transform="matrix(1.00, 0.00, -0.00, -1.00, 172.4, 334.5)">h</text><text xml:space="preserve" font-family="Monaco,Monaco" font-size="48.0" fill="#37DE1B" transform="matrix(1.00, 0.00, -0.00, -1.00, 201.2, 334.5)">o</text><text xml:space="preserve" font-family="Monaco,Monaco" font-size="48.0" fill="#37DE1B" transform="matrix(1.00, 0.00, -0.00, -1.00, 230.0, 334.5)"> </text><text xml:space="preserve" font-family="Monaco,Monaco" font-size="48.0" fill="#37DE1B" transform="matrix(1.00, 0.00, -0.00, -1.00, 258.8, 334.5)">y</text><text xml:space="preserve" font-family="Monaco,Monaco" font-size="48.0" fill="#37DE1B" transform="matrix(1.00, 0.00, -0.00, -1.00, 287.7, 334.5)">e</text><text xml:space="preserve" font-family="Monaco,Monaco" font-size="48.0" fill="#37DE1B" transform="matrix(1.00, 0.00, -0.00, -1.00, 316.5, 334.5)">s</text><text xml:space="preserve" font-family="Monaco,Monaco" font-size="48.0" fill="#37DE1B" transform="matrix(1.00, 0.00, -0.00, -1.00, 345.2, 334.5)">	</text><text xml:space="preserve" font-family="Monaco,Monaco" font-size="48.0" fill="#37DE1B" transform="matrix(1.00, 0.00, -0.00, -1.00, 57.2, 270.5)">&gt;</text><text xml:space="preserve" font-family="Monaco,Monaco" font-size="48.0" fill="#37DE1B" transform="matrix(1.00, 0.00, -0.00, -1.00, 86.0, 270.5)"> </text><text xml:space="preserve" font-family="Monaco,Monaco" font-size="48.0" fill="#37DE1B" transform="matrix(1.00, 0.00, -0.00, -1.00, 114.8, 270.5)">f</text><text xml:space="preserve" font-family="Monaco,Monaco" font-size="48.0" fill="#37DE1B" transform="matrix(1.00, 0.00, -0.00, -1.00, 143.6, 270.5)">i</text></g></svg>