<?xml version="1.0" encoding="UTF-8" standalone="no"?><svg xmlns="http://www.w3.org/2000/svg" xmlns:xlink="http://www.w3.org/1999/xlink" clip-rule="evenodd" stroke-miterlimit="10" viewBox="0 0 1024 768"><desc>SVG generated by Keynote</desc><defs></defs><g transform="matrix(1.00, 0.00, -0.00, -1.00, 0.0, 768.0)"><path d="M 0.0 768.0 L 1024.0 768.0 L 1024.0 0.0 L 0.0 0.0 Z M 0.0 768.0 " fill="#000000"></path><image xlink:href="../../ACF26528-510F-4087-92A7-D9431E4A7675/assets/C07D05C049E9C3A813AD52BFC7182A2D.png" width="983.00" height="584.00" transform="matrix(1.00, 0.00, -0.00, -1.00, 10.2, 664.7)" opacity="0.75"></image><image xlink:href="../../ACF26528-510F-4087-92A7-D9431E4A7675/assets/B8B89F8D2E49298F363D8341A9D067FB.png" width="963.00" height="564.00" transform="matrix(1.00, 0.00, -0.00, -1.00, 30.0, 666.0)"></image><text xml:space="preserve" font-family="LucidaGrande,Lucida Grande" font-size="22.0" fill="#FEFFFE" transform="matrix(1.00, 0.00, -0.00, -1.00, 332.4, 11.6)">F</text><text xml:space="preserve" font-family="LucidaGrande,Lucida Grande" font-size="22.0" fill="#FEFFFE" transform="matrix(1.00, 0.00, -0.00, -1.00, 344.2, 11.6)">e</text><text xml:space="preserve" font-family="LucidaGrande,Lucida Grande" font-size="22.0" fill="#FEFFFE" transform="matrix(1.00, 0.00, -0.00, -1.00, 356.4, 11.6)">e</text><text xml:space="preserve" font-family="LucidaGrande,Lucida Grande" font-size="22.0" fill="#FEFFFE" transform="matrix(1.00, 0.00, -0.00, -1.00, 368.7, 11.6)">d</text><text xml:space="preserve" font-family="LucidaGrande,Lucida Grande" font-size="22.0" fill="#FEFFFE" transform="matrix(1.00, 0.00, -0.00, -1.00, 382.5, 11.6)">b</text><text xml:space="preserve" font-family="LucidaGrande,Lucida Grande" font-size="22.0" fill="#FEFFFE" transform="matrix(1.00, 0.00, -0.00, -1.00, 396.4, 11.6)">a</text><text xml:space="preserve" font-family="LucidaGrande,Lucida Grande" font-size="22.0" fill="#FEFFFE" transform="matrix(1.00, 0.00, -0.00, -1.00, 408.5, 11.6)">c</text><text xml:space="preserve" font-family="LucidaGrande,Lucida Grande" font-size="22.0" fill="#FEFFFE" transform="matrix(1.00, 0.00, -0.00, -1.00, 419.8, 11.6)">k</text><text xml:space="preserve" font-family="LucidaGrande,Lucida Grande" font-size="22.0" fill="#FEFFFE" transform="matrix(1.00, 0.00, -0.00, -1.00, 432.7, 11.6)">:</text><text xml:space="preserve" font-family="LucidaGrande,Lucida Grande" font-size="22.0" fill="#FEFFFE" transform="matrix(1.00, 0.00, -0.00, -1.00, 439.6, 11.6)"> </text><text xml:space="preserve" font-family="LucidaGrande,Lucida Grande" font-size="22.0" fill="#FEFFFE" transform="matrix(1.00, 0.00, -0.00, -1.00, 446.6, 11.6)">h</text><text xml:space="preserve" font-family="LucidaGrande,Lucida Grande" font-size="22.0" fill="#FEFFFE" transform="matrix(1.00, 0.00, -0.00, -1.00, 460.2, 11.6)">t</text><text xml:space="preserve" font-family="LucidaGrande,Lucida Grande" font-size="22.0" fill="#FEFFFE" transform="matrix(1.00, 0.00, -0.00, -1.00, 468.4, 11.6)">t</text><text xml:space="preserve" font-family="LucidaGrande,Lucida Grande" font-size="22.0" fill="#FEFFFE" transform="matrix(1.00, 0.00, -0.00, -1.00, 476.7, 11.6)">p</text><text xml:space="preserve" font-family="LucidaGrande,Lucida Grande" font-size="22.0" fill="#FEFFFE" transform="matrix(1.00, 0.00, -0.00, -1.00, 490.5, 11.6)">:</text><text xml:space="preserve" font-family="LucidaGrande,Lucida Grande" font-size="22.0" fill="#FEFFFE" transform="matrix(1.00, 0.00, -0.00, -1.00, 497.5, 11.6)">/</text><text xml:space="preserve" font-family="LucidaGrande,Lucida Grande" font-size="22.0" fill="#FEFFFE" transform="matrix(1.00, 0.00, -0.00, -1.00, 509.0, 11.6)">/</text><text xml:space="preserve" font-family="LucidaGrande,Lucida Grande" font-size="22.0" fill="#FEFFFE" transform="matrix(1.00, 0.00, -0.00, -1.00, 520.6, 11.6)">j</text><text xml:space="preserve" font-family="LucidaGrande,Lucida Grande" font-size="22.0" fill="#FEFFFE" transform="matrix(1.00, 0.00, -0.00, -1.00, 527.3, 11.6)">.</text><text xml:space="preserve" font-family="LucidaGrande,Lucida Grande" font-size="22.0" fill="#FEFFFE" transform="matrix(1.00, 0.00, -0.00, -1.00, 534.3, 11.6)">m</text><text xml:space="preserve" font-family="LucidaGrande,Lucida Grande" font-size="22.0" fill="#FEFFFE" transform="matrix(1.00, 0.00, -0.00, -1.00, 554.8, 11.6)">p</text><text xml:space="preserve" font-family="LucidaGrande,Lucida Grande" font-size="22.0" fill="#FEFFFE" transform="matrix(1.00, 0.00, -0.00, -1.00, 568.6, 11.6)">/</text><text xml:space="preserve" font-family="LucidaGrande,Lucida Grande" font-size="22.0" fill="#FEFFFE" transform="matrix(1.00, 0.00, -0.00, -1.00, 580.2, 11.6)">p</text><text xml:space="preserve" font-family="LucidaGrande,Lucida Grande" font-size="22.0" fill="#FEFFFE" transform="matrix(1.00, 0.00, -0.00, -1.00, 594.0, 11.6)">s</text><text xml:space="preserve" font-family="LucidaGrande,Lucida Grande" font-size="22.0" fill="#FEFFFE" transform="matrix(1.00, 0.00, -0.00, -1.00, 605.3, 11.6)">u</text><text xml:space="preserve" font-family="LucidaGrande,Lucida Grande" font-size="22.0" fill="#FEFFFE" transform="matrix(1.00, 0.00, -0.00, -1.00, 618.9, 11.6)">m</text><text xml:space="preserve" font-family="LucidaGrande,Lucida Grande" font-size="22.0" fill="#FEFFFE" transform="matrix(1.00, 0.00, -0.00, -1.00, 639.4, 11.6)">a</text><text xml:space="preserve" font-family="LucidaGrande,Lucida Grande" font-size="22.0" fill="#FEFFFE" transform="matrix(1.00, 0.00, -0.00, -1.00, 651.6, 11.6)">c</text><text xml:space="preserve" font-family="LucidaGrande,Lucida Grande" font-size="22.0" fill="#FEFFFE" transform="matrix(1.00, 0.00, -0.00, -1.00, 662.9, 11.6)">1</text><text xml:space="preserve" font-family="LucidaGrande,Lucida Grande" font-size="22.0" fill="#FEFFFE" transform="matrix(1.00, 0.00, -0.00, -1.00, 676.8, 11.6)">3</text><text xml:space="preserve" font-family="Monaco,Monaco" font-size="28.0" fill="#37DE1B" transform="matrix(1.00, 0.00, -0.00, -1.00, 57.2, 596.2)">$</text><text xml:space="preserve" font-family="Monaco,Monaco" font-size="28.0" fill="#37DE1B" transform="matrix(1.00, 0.00, -0.00, -1.00, 74.0, 596.2)">d</text><text xml:space="preserve" font-family="Monaco,Monaco" font-size="28.0" fill="#37DE1B" transform="matrix(1.00, 0.00, -0.00, -1.00, 90.8, 596.2)">e</text><text xml:space="preserve" font-family="Monaco,Monaco" font-size="28.0" fill="#37DE1B" transform="matrix(1.00, 0.00, -0.00, -1.00, 107.6, 596.2)">f</text><text xml:space="preserve" font-family="Monaco,Monaco" font-size="28.0" fill="#37DE1B" transform="matrix(1.00, 0.00, -0.00, -1.00, 124.4, 596.2)">a</text><text xml:space="preserve" font-family="Monaco,Monaco" font-size="28.0" fill="#37DE1B" transform="matrix(1.00, 0.00, -0.00, -1.00, 141.2, 596.2)">u</text><text xml:space="preserve" font-family="Monaco,Monaco" font-size="28.0" fill="#37DE1B" transform="matrix(1.00, 0.00, -0.00, -1.00, 158.0, 596.2)">l</text><text xml:space="preserve" font-family="Monaco,Monaco" font-size="28.0" fill="#37DE1B" transform="matrix(1.00, 0.00, -0.00, -1.00, 174.8, 596.2)">t</text><text xml:space="preserve" font-family="Monaco,Monaco" font-size="28.0" fill="#37DE1B" transform="matrix(1.00, 0.00, -0.00, -1.00, 191.6, 596.2)">s</text><text xml:space="preserve" font-family="Monaco,Monaco" font-size="28.0" fill="#37DE1B" transform="matrix(1.00, 0.00, -0.00, -1.00, 208.4, 596.2)"> </text><text xml:space="preserve" font-family="Monaco,Monaco" font-size="28.0" fill="#37DE1B" transform="matrix(1.00, 0.00, -0.00, -1.00, 225.2, 596.2)">r</text><text xml:space="preserve" font-family="Monaco,Monaco" font-size="28.0" fill="#37DE1B" transform="matrix(1.00, 0.00, -0.00, -1.00, 242.0, 596.2)">e</text><text xml:space="preserve" font-family="Monaco,Monaco" font-size="28.0" fill="#37DE1B" transform="matrix(1.00, 0.00, -0.00, -1.00, 258.8, 596.2)">a</text><text xml:space="preserve" font-family="Monaco,Monaco" font-size="28.0" fill="#37DE1B" transform="matrix(1.00, 0.00, -0.00, -1.00, 275.6, 596.2)">d</text><text xml:space="preserve" font-family="Monaco,Monaco" font-size="28.0" fill="#37DE1B" transform="matrix(1.00, 0.00, -0.00, -1.00, 292.5, 596.2)"> </text><text xml:space="preserve" font-family="Monaco,Monaco" font-size="28.0" fill="#37DE1B" transform="matrix(1.00, 0.00, -0.00, -1.00, 309.3, 596.2)">~</text><text xml:space="preserve" font-family="Monaco,Monaco" font-size="28.0" fill="#37DE1B" transform="matrix(1.00, 0.00, -0.00, -1.00, 326.1, 596.2)">/</text><text xml:space="preserve" font-family="Monaco,Monaco" font-size="28.0" fill="#37DE1B" transform="matrix(1.00, 0.00, -0.00, -1.00, 342.9, 596.2)">L</text><text xml:space="preserve" font-family="Monaco,Monaco" font-size="28.0" fill="#37DE1B" transform="matrix(1.00, 0.00, -0.00, -1.00, 359.7, 596.2)">i</text><text xml:space="preserve" font-family="Monaco,Monaco" font-size="28.0" fill="#37DE1B" transform="matrix(1.00, 0.00, -0.00, -1.00, 376.5, 596.2)">b</text><text xml:space="preserve" font-family="Monaco,Monaco" font-size="28.0" fill="#37DE1B" transform="matrix(1.00, 0.00, -0.00, -1.00, 393.3, 596.2)">r</text><text xml:space="preserve" font-family="Monaco,Monaco" font-size="28.0" fill="#37DE1B" transform="matrix(1.00, 0.00, -0.00, -1.00, 410.1, 596.2)">a</text><text xml:space="preserve" font-family="Monaco,Monaco" font-size="28.0" fill="#37DE1B" transform="matrix(1.00, 0.00, -0.00, -1.00, 426.9, 596.2)">r</text><text xml:space="preserve" font-family="Monaco,Monaco" font-size="28.0" fill="#37DE1B" transform="matrix(1.00, 0.00, -0.00, -1.00, 443.7, 596.2)">y</text><text xml:space="preserve" font-family="Monaco,Monaco" font-size="28.0" fill="#37DE1B" transform="matrix(1.00, 0.00, -0.00, -1.00, 460.5, 596.2)">/</text><text xml:space="preserve" font-family="Monaco,Monaco" font-size="28.0" fill="#37DE1B" transform="matrix(1.00, 0.00, -0.00, -1.00, 477.3, 596.2)">P</text><text xml:space="preserve" font-family="Monaco,Monaco" font-size="28.0" fill="#37DE1B" transform="matrix(1.00, 0.00, -0.00, -1.00, 494.1, 596.2)">r</text><text xml:space="preserve" font-family="Monaco,Monaco" font-size="28.0" fill="#37DE1B" transform="matrix(1.00, 0.00, -0.00, -1.00, 510.9, 596.2)">e</text><text xml:space="preserve" font-family="Monaco,Monaco" font-size="28.0" fill="#37DE1B" transform="matrix(1.00, 0.00, -0.00, -1.00, 527.7, 596.2)">f</text><text xml:space="preserve" font-family="Monaco,Monaco" font-size="28.0" fill="#37DE1B" transform="matrix(1.00, 0.00, -0.00, -1.00, 544.5, 596.2)">e</text><text xml:space="preserve" font-family="Monaco,Monaco" font-size="28.0" fill="#37DE1B" transform="matrix(1.00, 0.00, -0.00, -1.00, 561.3, 596.2)">r</text><text xml:space="preserve" font-family="Monaco,Monaco" font-size="28.0" fill="#37DE1B" transform="matrix(1.00, 0.00, -0.00, -1.00, 578.1, 596.2)">e</text><text xml:space="preserve" font-family="Monaco,Monaco" font-size="28.0" fill="#37DE1B" transform="matrix(1.00, 0.00, -0.00, -1.00, 595.0, 596.2)">n</text><text xml:space="preserve" font-family="Monaco,Monaco" font-size="28.0" fill="#37DE1B" transform="matrix(1.00, 0.00, -0.00, -1.00, 611.8, 596.2)">c</text><text xml:space="preserve" font-family="Monaco,Monaco" font-size="28.0" fill="#37DE1B" transform="matrix(1.00, 0.00, -0.00, -1.00, 628.6, 596.2)">e</text><text xml:space="preserve" font-family="Monaco,Monaco" font-size="28.0" fill="#37DE1B" transform="matrix(1.00, 0.00, -0.00, -1.00, 645.4, 596.2)">s</text><text xml:space="preserve" font-family="Monaco,Monaco" font-size="28.0" fill="#37DE1B" transform="matrix(1.00, 0.00, -0.00, -1.00, 662.2, 596.2)">/</text><text xml:space="preserve" font-family="Monaco,Monaco" font-size="28.0" fill="#37DE1B" transform="matrix(1.00, 0.00, -0.00, -1.00, 57.2, 559.2)">c</text><text xml:space="preserve" font-family="Monaco,Monaco" font-size="28.0" fill="#37DE1B" transform="matrix(1.00, 0.00, -0.00, -1.00, 74.0, 559.2)">o</text><text xml:space="preserve" font-family="Monaco,Monaco" font-size="28.0" fill="#37DE1B" transform="matrix(1.00, 0.00, -0.00, -1.00, 90.8, 559.2)">m</text><text xml:space="preserve" font-family="Monaco,Monaco" font-size="28.0" fill="#37DE1B" transform="matrix(1.00, 0.00, -0.00, -1.00, 107.6, 559.2)">.</text><text xml:space="preserve" font-family="Monaco,Monaco" font-size="28.0" fill="#37DE1B" transform="matrix(1.00, 0.00, -0.00, -1.00, 124.4, 559.2)">m</text><text xml:space="preserve" font-family="Monaco,Monaco" font-size="28.0" fill="#37DE1B" transform="matrix(1.00, 0.00, -0.00, -1.00, 141.2, 559.2)">i</text><text xml:space="preserve" font-family="Monaco,Monaco" font-size="28.0" fill="#37DE1B" transform="matrix(1.00, 0.00, -0.00, -1.00, 158.0, 559.2)">c</text><text xml:space="preserve" font-family="Monaco,Monaco" font-size="28.0" fill="#37DE1B" transform="matrix(1.00, 0.00, -0.00, -1.00, 174.8, 559.2)">r</text><text xml:space="preserve" font-family="Monaco,Monaco" font-size="28.0" fill="#37DE1B" transform="matrix(1.00, 0.00, -0.00, -1.00, 191.6, 559.2)">o</text><text xml:space="preserve" font-family="Monaco,Monaco" font-size="28.0" fill="#37DE1B" transform="matrix(1.00, 0.00, -0.00, -1.00, 208.4, 559.2)">s</text><text xml:space="preserve" font-family="Monaco,Monaco" font-size="28.0" fill="#37DE1B" transform="matrix(1.00, 0.00, -0.00, -1.00, 225.2, 559.2)">o</text><text xml:space="preserve" font-family="Monaco,Monaco" font-size="28.0" fill="#37DE1B" transform="matrix(1.00, 0.00, -0.00, -1.00, 242.0, 559.2)">f</text><text xml:space="preserve" font-family="Monaco,Monaco" font-size="28.0" fill="#37DE1B" transform="matrix(1.00, 0.00, -0.00, -1.00, 258.8, 559.2)">t</text><text xml:space="preserve" font-family="Monaco,Monaco" font-size="28.0" fill="#37DE1B" transform="matrix(1.00, 0.00, -0.00, -1.00, 275.6, 559.2)">.</text><text xml:space="preserve" font-family="Monaco,Monaco" font-size="28.0" fill="#37DE1B" transform="matrix(1.00, 0.00, -0.00, -1.00, 292.5, 559.2)">a</text><text xml:space="preserve" font-family="Monaco,Monaco" font-size="28.0" fill="#37DE1B" transform="matrix(1.00, 0.00, -0.00, -1.00, 309.3, 559.2)">u</text><text xml:space="preserve" font-family="Monaco,Monaco" font-size="28.0" fill="#37DE1B" transform="matrix(1.00, 0.00, -0.00, -1.00, 326.1, 559.2)">t</text><text xml:space="preserve" font-family="Monaco,Monaco" font-size="28.0" fill="#37DE1B" transform="matrix(1.00, 0.00, -0.00, -1.00, 342.9, 559.2)">o</text><text xml:space="preserve" font-family="Monaco,Monaco" font-size="28.0" fill="#37DE1B" transform="matrix(1.00, 0.00, -0.00, -1.00, 359.7, 559.2)">u</text><text xml:space="preserve" font-family="Monaco,Monaco" font-size="28.0" fill="#37DE1B" transform="matrix(1.00, 0.00, -0.00, -1.00, 376.5, 559.2)">p</text><text xml:space="preserve" font-family="Monaco,Monaco" font-size="28.0" fill="#37DE1B" transform="matrix(1.00, 0.00, -0.00, -1.00, 393.3, 559.2)">d</text><text xml:space="preserve" font-family="Monaco,Monaco" font-size="28.0" fill="#37DE1B" transform="matrix(1.00, 0.00, -0.00, -1.00, 410.1, 559.2)">a</text><text xml:space="preserve" font-family="Monaco,Monaco" font-size="28.0" fill="#37DE1B" transform="matrix(1.00, 0.00, -0.00, -1.00, 426.9, 559.2)">t</text><text xml:space="preserve" font-family="Monaco,Monaco" font-size="28.0" fill="#37DE1B" transform="matrix(1.00, 0.00, -0.00, -1.00, 443.7, 559.2)">e</text><text xml:space="preserve" font-family="Monaco,Monaco" font-size="28.0" fill="#37DE1B" transform="matrix(1.00, 0.00, -0.00, -1.00, 460.5, 559.2)">2</text><text xml:space="preserve" font-family="Monaco,Monaco" font-size="28.0" fill="#37DE1B" transform="matrix(1.00, 0.00, -0.00, -1.00, 477.3, 559.2)">.</text><text xml:space="preserve" font-family="Monaco,Monaco" font-size="28.0" fill="#37DE1B" transform="matrix(1.00, 0.00, -0.00, -1.00, 494.1, 559.2)">p</text><text xml:space="preserve" font-family="Monaco,Monaco" font-size="28.0" fill="#37DE1B" transform="matrix(1.00, 0.00, -0.00, -1.00, 510.9, 559.2)">l</text><text xml:space="preserve" font-family="Monaco,Monaco" font-size="28.0" fill="#37DE1B" transform="matrix(1.00, 0.00, -0.00, -1.00, 527.7, 559.2)">i</text><text xml:space="preserve" font-family="Monaco,Monaco" font-size="28.0" fill="#37DE1B" transform="matrix(1.00, 0.00, -0.00, -1.00, 544.5, 559.2)">s</text><text xml:space="preserve" font-family="Monaco,Monaco" font-size="28.0" fill="#37DE1B" transform="matrix(1.00, 0.00, -0.00, -1.00, 561.3, 559.2)">t</text><text xml:space="preserve" font-family="Monaco,Monaco" font-size="28.0" fill="#37DE1B" transform="matrix(1.00, 0.00, -0.00, -1.00, 578.1, 559.2)"> </text><text xml:space="preserve" font-family="Monaco,Monaco" font-size="28.0" fill="#37DE1B" transform="matrix(1.00, 0.00, -0.00, -1.00, 595.0, 559.2)">H</text><text xml:space="preserve" font-family="Monaco,Monaco" font-size="28.0" fill="#37DE1B" transform="matrix(1.00, 0.00, -0.00, -1.00, 611.8, 559.2)">o</text><text xml:space="preserve" font-family="Monaco,Monaco" font-size="28.0" fill="#37DE1B" transform="matrix(1.00, 0.00, -0.00, -1.00, 628.6, 559.2)">w</text><text xml:space="preserve" font-family="Monaco,Monaco" font-size="28.0" fill="#37DE1B" transform="matrix(1.00, 0.00, -0.00, -1.00, 645.4, 559.2)">T</text><text xml:space="preserve" font-family="Monaco,Monaco" font-size="28.0" fill="#37DE1B" transform="matrix(1.00, 0.00, -0.00, -1.00, 662.2, 559.2)">o</text><text xml:space="preserve" font-family="Monaco,Monaco" font-size="28.0" fill="#37DE1B" transform="matrix(1.00, 0.00, -0.00, -1.00, 679.0, 559.2)">C</text><text xml:space="preserve" font-family="Monaco,Monaco" font-size="28.0" fill="#37DE1B" transform="matrix(1.00, 0.00, -0.00, -1.00, 695.8, 559.2)">h</text><text xml:space="preserve" font-family="Monaco,Monaco" font-size="28.0" fill="#37DE1B" transform="matrix(1.00, 0.00, -0.00, -1.00, 712.6, 559.2)">e</text><text xml:space="preserve" font-family="Monaco,Monaco" font-size="28.0" fill="#37DE1B" transform="matrix(1.00, 0.00, -0.00, -1.00, 729.4, 559.2)">c</text><text xml:space="preserve" font-family="Monaco,Monaco" font-size="28.0" fill="#37DE1B" transform="matrix(1.00, 0.00, -0.00, -1.00, 746.2, 559.2)">k</text><text xml:space="preserve" font-family="Monaco,Monaco" font-size="28.0" fill="#37DE1B" transform="matrix(1.00, 0.00, -0.00, -1.00, 763.0, 559.2)">	</text><text xml:space="preserve" font-family="Monaco,Monaco" font-size="28.0" fill="#37DE1B" transform="matrix(1.00, 0.00, -0.00, -1.00, 57.2, 485.2)">M</text><text xml:space="preserve" font-family="Monaco,Monaco" font-size="28.0" fill="#37DE1B" transform="matrix(1.00, 0.00, -0.00, -1.00, 74.0, 485.2)">a</text><text xml:space="preserve" font-family="Monaco,Monaco" font-size="28.0" fill="#37DE1B" transform="matrix(1.00, 0.00, -0.00, -1.00, 90.8, 485.2)">n</text><text xml:space="preserve" font-family="Monaco,Monaco" font-size="28.0" fill="#37DE1B" transform="matrix(1.00, 0.00, -0.00, -1.00, 107.6, 485.2)">u</text><text xml:space="preserve" font-family="Monaco,Monaco" font-size="28.0" fill="#37DE1B" transform="matrix(1.00, 0.00, -0.00, -1.00, 124.4, 485.2)">a</text><text xml:space="preserve" font-family="Monaco,Monaco" font-size="28.0" fill="#37DE1B" transform="matrix(1.00, 0.00, -0.00, -1.00, 141.2, 485.2)">l</text><text xml:space="preserve" font-family="Monaco,Monaco" font-size="28.0" fill="#37DE1B" transform="matrix(1.00, 0.00, -0.00, -1.00, 158.0, 485.2)">	</text><text xml:space="preserve" font-family="Monaco,Monaco" font-size="28.0" fill="#37DE1B" transform="matrix(1.00, 0.00, -0.00, -1.00, 57.2, 411.2)">$</text><text xml:space="preserve" font-family="Monaco,Monaco" font-size="28.0" fill="#37DE1B" transform="matrix(1.00, 0.00, -0.00, -1.00, 74.0, 411.2)"> </text><text xml:space="preserve" font-family="Monaco,Monaco" font-size="28.0" fill="#37DE1B" transform="matrix(1.00, 0.00, -0.00, -1.00, 90.8, 411.2)">b</text><text xml:space="preserve" font-family="Monaco,Monaco" font-size="28.0" fill="#37DE1B" transform="matrix(1.00, 0.00, -0.00, -1.00, 107.6, 411.2)">a</text><text xml:space="preserve" font-family="Monaco,Monaco" font-size="28.0" fill="#37DE1B" transform="matrix(1.00, 0.00, -0.00, -1.00, 124.4, 411.2)">s</text><text xml:space="preserve" font-family="Monaco,Monaco" font-size="28.0" fill="#37DE1B" transform="matrix(1.00, 0.00, -0.00, -1.00, 141.2, 411.2)">h</text><text xml:space="preserve" font-family="Monaco,Monaco" font-size="28.0" fill="#37DE1B" transform="matrix(1.00, 0.00, -0.00, -1.00, 158.0, 411.2)"> </text><text xml:space="preserve" font-family="Monaco,Monaco" font-size="28.0" fill="#37DE1B" transform="matrix(1.00, 0.00, -0.00, -1.00, 174.8, 411.2)">O</text><text xml:space="preserve" font-family="Monaco,Monaco" font-size="28.0" fill="#37DE1B" transform="matrix(1.00, 0.00, -0.00, -1.00, 191.6, 411.2)">f</text><text xml:space="preserve" font-family="Monaco,Monaco" font-size="28.0" fill="#37DE1B" transform="matrix(1.00, 0.00, -0.00, -1.00, 208.4, 411.2)">f</text><text xml:space="preserve" font-family="Monaco,Monaco" font-size="28.0" fill="#37DE1B" transform="matrix(1.00, 0.00, -0.00, -1.00, 225.2, 411.2)">i</text><text xml:space="preserve" font-family="Monaco,Monaco" font-size="28.0" fill="#37DE1B" transform="matrix(1.00, 0.00, -0.00, -1.00, 242.0, 411.2)">c</text><text xml:space="preserve" font-family="Monaco,Monaco" font-size="28.0" fill="#37DE1B" transform="matrix(1.00, 0.00, -0.00, -1.00, 258.8, 411.2)">e</text><text xml:space="preserve" font-family="Monaco,Monaco" font-size="28.0" fill="#37DE1B" transform="matrix(1.00, 0.00, -0.00, -1.00, 275.6, 411.2)">U</text><text xml:space="preserve" font-family="Monaco,Monaco" font-size="28.0" fill="#37DE1B" transform="matrix(1.00, 0.00, -0.00, -1.00, 292.5, 411.2)">p</text><text xml:space="preserve" font-family="Monaco,Monaco" font-size="28.0" fill="#37DE1B" transform="matrix(1.00, 0.00, -0.00, -1.00, 309.3, 411.2)">d</text><text xml:space="preserve" font-family="Monaco,Monaco" font-size="28.0" fill="#37DE1B" transform="matrix(1.00, 0.00, -0.00, -1.00, 326.1, 411.2)">a</text><text xml:space="preserve" font-family="Monaco,Monaco" font-size="28.0" fill="#37DE1B" transform="matrix(1.00, 0.00, -0.00, -1.00, 342.9, 411.2)">t</text><text xml:space="preserve" font-family="Monaco,Monaco" font-size="28.0" fill="#37DE1B" transform="matrix(1.00, 0.00, -0.00, -1.00, 359.7, 411.2)">e</text><text xml:space="preserve" font-family="Monaco,Monaco" font-size="28.0" fill="#37DE1B" transform="matrix(1.00, 0.00, -0.00, -1.00, 376.5, 411.2)">s</text><text xml:space="preserve" font-family="Monaco,Monaco" font-size="28.0" fill="#37DE1B" transform="matrix(1.00, 0.00, -0.00, -1.00, 393.3, 411.2)">.</text><text xml:space="preserve" font-family="Monaco,Monaco" font-size="28.0" fill="#37DE1B" transform="matrix(1.00, 0.00, -0.00, -1.00, 410.1, 411.2)">s</text><text xml:space="preserve" font-family="Monaco,Monaco" font-size="28.0" fill="#37DE1B" transform="matrix(1.00, 0.00, -0.00, -1.00, 426.9, 411.2)">h</text><text xml:space="preserve" font-family="Monaco,Monaco" font-size="28.0" fill="#37DE1B" transform="matrix(1.00, 0.00, -0.00, -1.00, 443.7, 411.2)"> </text><text xml:space="preserve" font-family="Monaco,Monaco" font-size="28.0" fill="#37DE1B" transform="matrix(1.00, 0.00, -0.00, -1.00, 460.5, 411.2)">	</text><text xml:space="preserve" font-family="Monaco,Monaco" font-size="28.0" fill="#37DE1B" transform="matrix(1.00, 0.00, -0.00, -1.00, 57.2, 374.2)">&gt;</text><text xml:space="preserve" font-family="Monaco,Monaco" font-size="28.0" fill="#37DE1B" transform="matrix(1.00, 0.00, -0.00, -1.00, 74.0, 374.2)"> </text><text xml:space="preserve" font-family="Monaco,Monaco" font-size="28.0" fill="#37DE1B" transform="matrix(1.00, 0.00, -0.00, -1.00, 90.8, 374.2)">w</text><text xml:space="preserve" font-family="Monaco,Monaco" font-size="28.0" fill="#37DE1B" transform="matrix(1.00, 0.00, -0.00, -1.00, 107.6, 374.2)">o</text><text xml:space="preserve" font-family="Monaco,Monaco" font-size="28.0" fill="#37DE1B" transform="matrix(1.00, 0.00, -0.00, -1.00, 124.4, 374.2)">u</text><text xml:space="preserve" font-family="Monaco,Monaco" font-size="28.0" fill="#37DE1B" transform="matrix(1.00, 0.00, -0.00, -1.00, 141.2, 374.2)">l</text><text xml:space="preserve" font-family="Monaco,Monaco" font-size="28.0" fill="#37DE1B" transform="matrix(1.00, 0.00, -0.00, -1.00, 158.0, 374.2)">d</text><text xml:space="preserve" font-family="Monaco,Monaco" font-size="28.0" fill="#37DE1B" transform="matrix(1.00, 0.00, -0.00, -1.00, 174.8, 374.2)"> </text><text xml:space="preserve" font-family="Monaco,Monaco" font-size="28.0" fill="#37DE1B" transform="matrix(1.00, 0.00, -0.00, -1.00, 191.6, 374.2)">y</text><text xml:space="preserve" font-family="Monaco,Monaco" font-size="28.0" fill="#37DE1B" transform="matrix(1.00, 0.00, -0.00, -1.00, 208.4, 374.2)">o</text><text xml:space="preserve" font-family="Monaco,Monaco" font-size="28.0" fill="#37DE1B" transform="matrix(1.00, 0.00, -0.00, -1.00, 225.2, 374.2)">u</text><text xml:space="preserve" font-family="Monaco,Monaco" font-size="28.0" fill="#37DE1B" transform="matrix(1.00, 0.00, -0.00, -1.00, 242.0, 374.2)"> </text><text xml:space="preserve" font-family="Monaco,Monaco" font-size="28.0" fill="#37DE1B" transform="matrix(1.00, 0.00, -0.00, -1.00, 258.8, 374.2)">l</text><text xml:space="preserve" font-family="Monaco,Monaco" font-size="28.0" fill="#37DE1B" transform="matrix(1.00, 0.00, -0.00, -1.00, 275.6, 374.2)">i</text><text xml:space="preserve" font-family="Monaco,Monaco" font-size="28.0" fill="#37DE1B" transform="matrix(1.00, 0.00, -0.00, -1.00, 292.4, 374.2)">k</text><text xml:space="preserve" font-family="Monaco,Monaco" font-size="28.0" fill="#37DE1B" transform="matrix(1.00, 0.00, -0.00, -1.00, 309.3, 374.2)">e</text><text xml:space="preserve" font-family="Monaco,Monaco" font-size="28.0" fill="#37DE1B" transform="matrix(1.00, 0.00, -0.00, -1.00, 326.1, 374.2)"> </text><text xml:space="preserve" font-family="Monaco,Monaco" font-size="28.0" fill="#37DE1B" transform="matrix(1.00, 0.00, -0.00, -1.00, 342.9, 374.2)">t</text><text xml:space="preserve" font-family="Monaco,Monaco" font-size="28.0" fill="#37DE1B" transform="matrix(1.00, 0.00, -0.00, -1.00, 359.7, 374.2)">o</text><text xml:space="preserve" font-family="Monaco,Monaco" font-size="28.0" fill="#37DE1B" transform="matrix(1.00, 0.00, -0.00, -1.00, 376.5, 374.2)"> </text><text xml:space="preserve" font-family="Monaco,Monaco" font-size="28.0" fill="#37DE1B" transform="matrix(1.00, 0.00, -0.00, -1.00, 393.3, 374.2)">t</text><text xml:space="preserve" font-family="Monaco,Monaco" font-size="28.0" fill="#37DE1B" transform="matrix(1.00, 0.00, -0.00, -1.00, 410.1, 374.2)">u</text><text xml:space="preserve" font-family="Monaco,Monaco" font-size="28.0" fill="#37DE1B" transform="matrix(1.00, 0.00, -0.00, -1.00, 426.9, 374.2)">r</text><text xml:space="preserve" font-family="Monaco,Monaco" font-size="28.0" fill="#37DE1B" transform="matrix(1.00, 0.00, -0.00, -1.00, 443.7, 374.2)">n</text><text xml:space="preserve" font-family="Monaco,Monaco" font-size="28.0" fill="#37DE1B" transform="matrix(1.00, 0.00, -0.00, -1.00, 460.5, 374.2)"> </text><text xml:space="preserve" font-family="Monaco,Monaco" font-size="28.0" fill="#37DE1B" transform="matrix(1.00, 0.00, -0.00, -1.00, 477.3, 374.2)">a</text><text xml:space="preserve" font-family="Monaco,Monaco" font-size="28.0" fill="#37DE1B" transform="matrix(1.00, 0.00, -0.00, -1.00, 494.1, 374.2)">u</text><text xml:space="preserve" font-family="Monaco,Monaco" font-size="28.0" fill="#37DE1B" transform="matrix(1.00, 0.00, -0.00, -1.00, 510.9, 374.2)">t</text><text xml:space="preserve" font-family="Monaco,Monaco" font-size="28.0" fill="#37DE1B" transform="matrix(1.00, 0.00, -0.00, -1.00, 527.7, 374.2)">o</text><text xml:space="preserve" font-family="Monaco,Monaco" font-size="28.0" fill="#37DE1B" transform="matrix(1.00, 0.00, -0.00, -1.00, 544.5, 374.2)">m</text><text xml:space="preserve" font-family="Monaco,Monaco" font-size="28.0" fill="#37DE1B" transform="matrix(1.00, 0.00, -0.00, -1.00, 561.3, 374.2)">a</text><text xml:space="preserve" font-family="Monaco,Monaco" font-size="28.0" fill="#37DE1B" transform="matrix(1.00, 0.00, -0.00, -1.00, 578.1, 374.2)">t</text><text xml:space="preserve" font-family="Monaco,Monaco" font-size="28.0" fill="#37DE1B" transform="matrix(1.00, 0.00, -0.00, -1.00, 594.9, 374.2)">i</text><text xml:space="preserve" font-family="Monaco,Monaco" font-size="28.0" fill="#37DE1B" transform="matrix(1.00, 0.00, -0.00, -1.00, 611.8, 374.2)">c</text><text xml:space="preserve" font-family="Monaco,Monaco" font-size="28.0" fill="#37DE1B" transform="matrix(1.00, 0.00, -0.00, -1.00, 628.6, 374.2)"> </text><text xml:space="preserve" font-family="Monaco,Monaco" font-size="28.0" fill="#37DE1B" transform="matrix(1.00, 0.00, -0.00, -1.00, 645.4, 374.2)">u</text><text xml:space="preserve" font-family="Monaco,Monaco" font-size="28.0" fill="#37DE1B" transform="matrix(1.00, 0.00, -0.00, -1.00, 662.2, 374.2)">p</text><text xml:space="preserve" font-family="Monaco,Monaco" font-size="28.0" fill="#37DE1B" transform="matrix(1.00, 0.00, -0.00, -1.00, 679.0, 374.2)">d</text><text xml:space="preserve" font-family="Monaco,Monaco" font-size="28.0" fill="#37DE1B" transform="matrix(1.00, 0.00, -0.00, -1.00, 695.8, 374.2)">a</text><text xml:space="preserve" font-family="Monaco,Monaco" font-size="28.0" fill="#37DE1B" transform="matrix(1.00, 0.00, -0.00, -1.00, 712.6, 374.2)">t</text><text xml:space="preserve" font-family="Monaco,Monaco" font-size="28.0" fill="#37DE1B" transform="matrix(1.00, 0.00, -0.00, -1.00, 729.4, 374.2)">e</text><text xml:space="preserve" font-family="Monaco,Monaco" font-size="28.0" fill="#37DE1B" transform="matrix(1.00, 0.00, -0.00, -1.00, 746.2, 374.2)">s</text><text xml:space="preserve" font-family="Monaco,Monaco" font-size="28.0" fill="#37DE1B" transform="matrix(1.00, 0.00, -0.00, -1.00, 763.0, 374.2)"> </text><text xml:space="preserve" font-family="Monaco,Monaco" font-size="28.0" fill="#37DE1B" transform="matrix(1.00, 0.00, -0.00, -1.00, 779.8, 374.2)">o</text><text xml:space="preserve" font-family="Monaco,Monaco" font-size="28.0" fill="#37DE1B" transform="matrix(1.00, 0.00, -0.00, -1.00, 796.6, 374.2)">n</text><text xml:space="preserve" font-family="Monaco,Monaco" font-size="28.0" fill="#37DE1B" transform="matrix(1.00, 0.00, -0.00, -1.00, 813.4, 374.2)"> </text><text xml:space="preserve" font-family="Monaco,Monaco" font-size="28.0" fill="#37DE1B" transform="matrix(1.00, 0.00, -0.00, -1.00, 830.2, 374.2)">o</text><text xml:space="preserve" font-family="Monaco,Monaco" font-size="28.0" fill="#37DE1B" transform="matrix(1.00, 0.00, -0.00, -1.00, 847.0, 374.2)">r</text><text xml:space="preserve" font-family="Monaco,Monaco" font-size="28.0" fill="#37DE1B" transform="matrix(1.00, 0.00, -0.00, -1.00, 863.8, 374.2)"> </text><text xml:space="preserve" font-family="Monaco,Monaco" font-size="28.0" fill="#37DE1B" transform="matrix(1.00, 0.00, -0.00, -1.00, 880.6, 374.2)">o</text><text xml:space="preserve" font-family="Monaco,Monaco" font-size="28.0" fill="#37DE1B" transform="matrix(1.00, 0.00, -0.00, -1.00, 897.4, 374.2)">f</text><text xml:space="preserve" font-family="Monaco,Monaco" font-size="28.0" fill="#37DE1B" transform="matrix(1.00, 0.00, -0.00, -1.00, 914.3, 374.2)">f</text><text xml:space="preserve" font-family="Monaco,Monaco" font-size="28.0" fill="#37DE1B" transform="matrix(1.00, 0.00, -0.00, -1.00, 931.1, 374.2)">?</text><text xml:space="preserve" font-family="Monaco,Monaco" font-size="28.0" fill="#37DE1B" transform="matrix(1.00, 0.00, -0.00, -1.00, 947.9, 374.2)">:</text><text xml:space="preserve" font-family="Monaco,Monaco" font-size="28.0" fill="#37DE1B" transform="matrix(1.00, 0.00, -0.00, -1.00, 964.7, 374.2)">	</text><text xml:space="preserve" font-family="Monaco,Monaco" font-size="28.0" fill="#37DE1B" transform="matrix(1.00, 0.00, -0.00, -1.00, 57.2, 337.2)">o</text><text xml:space="preserve" font-family="Monaco,Monaco" font-size="28.0" fill="#37DE1B" transform="matrix(1.00, 0.00, -0.00, -1.00, 74.0, 337.2)">n</text><text xml:space="preserve" font-family="Monaco,Monaco" font-size="28.0" fill="#37DE1B" transform="matrix(1.00, 0.00, -0.00, -1.00, 90.8, 337.2)">	</text><text xml:space="preserve" font-family="Monaco,Monaco" font-size="28.0" fill="#37DE1B" transform="matrix(1.00, 0.00, -0.00, -1.00, 57.2, 263.2)">$</text><text xml:space="preserve" font-family="Monaco,Monaco" font-size="28.0" fill="#37DE1B" transform="matrix(1.00, 0.00, -0.00, -1.00, 74.0, 263.2)"> </text><text xml:space="preserve" font-family="Monaco,Monaco" font-size="28.0" fill="#37DE1B" transform="matrix(1.00, 0.00, -0.00, -1.00, 90.8, 263.2)">d</text><text xml:space="preserve" font-family="Monaco,Monaco" font-size="28.0" fill="#37DE1B" transform="matrix(1.00, 0.00, -0.00, -1.00, 107.6, 263.2)">e</text><text xml:space="preserve" font-family="Monaco,Monaco" font-size="28.0" fill="#37DE1B" transform="matrix(1.00, 0.00, -0.00, -1.00, 124.4, 263.2)">f</text><text xml:space="preserve" font-family="Monaco,Monaco" font-size="28.0" fill="#37DE1B" transform="matrix(1.00, 0.00, -0.00, -1.00, 141.2, 263.2)">a</text><text xml:space="preserve" font-family="Monaco,Monaco" font-size="28.0" fill="#37DE1B" transform="matrix(1.00, 0.00, -0.00, -1.00, 158.0, 263.2)">u</text><text xml:space="preserve" font-family="Monaco,Monaco" font-size="28.0" fill="#37DE1B" transform="matrix(1.00, 0.00, -0.00, -1.00, 174.8, 263.2)">l</text><text xml:space="preserve" font-family="Monaco,Monaco" font-size="28.0" fill="#37DE1B" transform="matrix(1.00, 0.00, -0.00, -1.00, 191.6, 263.2)">t</text><text xml:space="preserve" font-family="Monaco,Monaco" font-size="28.0" fill="#37DE1B" transform="matrix(1.00, 0.00, -0.00, -1.00, 208.4, 263.2)">s</text><text xml:space="preserve" font-family="Monaco,Monaco" font-size="28.0" fill="#37DE1B" transform="matrix(1.00, 0.00, -0.00, -1.00, 225.2, 263.2)"> </text><text xml:space="preserve" font-family="Monaco,Monaco" font-size="28.0" fill="#37DE1B" transform="matrix(1.00, 0.00, -0.00, -1.00, 242.0, 263.2)">r</text><text xml:space="preserve" font-family="Monaco,Monaco" font-size="28.0" fill="#37DE1B" transform="matrix(1.00, 0.00, -0.00, -1.00, 258.8, 263.2)">e</text><text xml:space="preserve" font-family="Monaco,Monaco" font-size="28.0" fill="#37DE1B" transform="matrix(1.00, 0.00, -0.00, -1.00, 275.6, 263.2)">a</text><text xml:space="preserve" font-family="Monaco,Monaco" font-size="28.0" fill="#37DE1B" transform="matrix(1.00, 0.00, -0.00, -1.00, 292.5, 263.2)">d</text><text xml:space="preserve" font-family="Monaco,Monaco" font-size="28.0" fill="#37DE1B" transform="matrix(1.00, 0.00, -0.00, -1.00, 309.3, 263.2)"> </text><text xml:space="preserve" font-family="Monaco,Monaco" font-size="28.0" fill="#37DE1B" transform="matrix(1.00, 0.00, -0.00, -1.00, 326.1, 263.2)">~</text><text xml:space="preserve" font-family="Monaco,Monaco" font-size="28.0" fill="#37DE1B" transform="matrix(1.00, 0.00, -0.00, -1.00, 342.9, 263.2)">/</text><text xml:space="preserve" font-family="Monaco,Monaco" font-size="28.0" fill="#37DE1B" transform="matrix(1.00, 0.00, -0.00, -1.00, 359.7, 263.2)">L</text><text xml:space="preserve" font-family="Monaco,Monaco" font-size="28.0" fill="#37DE1B" transform="matrix(1.00, 0.00, -0.00, -1.00, 376.5, 263.2)">i</text><text xml:space="preserve" font-family="Monaco,Monaco" font-size="28.0" fill="#37DE1B" transform="matrix(1.00, 0.00, -0.00, -1.00, 393.3, 263.2)">b</text><text xml:space="preserve" font-family="Monaco,Monaco" font-size="28.0" fill="#37DE1B" transform="matrix(1.00, 0.00, -0.00, -1.00, 410.1, 263.2)">r</text><text xml:space="preserve" font-family="Monaco,Monaco" font-size="28.0" fill="#37DE1B" transform="matrix(1.00, 0.00, -0.00, -1.00, 426.9, 263.2)">a</text><text xml:space="preserve" font-family="Monaco,Monaco" font-size="28.0" fill="#37DE1B" transform="matrix(1.00, 0.00, -0.00, -1.00, 443.7, 263.2)">r</text><text xml:space="preserve" font-family="Monaco,Monaco" font-size="28.0" fill="#37DE1B" transform="matrix(1.00, 0.00, -0.00, -1.00, 460.5, 263.2)">y</text><text xml:space="preserve" font-family="Monaco,Monaco" font-size="28.0" fill="#37DE1B" transform="matrix(1.00, 0.00, -0.00, -1.00, 477.3, 263.2)">/</text><text xml:space="preserve" font-family="Monaco,Monaco" font-size="28.0" fill="#37DE1B" transform="matrix(1.00, 0.00, -0.00, -1.00, 494.1, 263.2)">P</text><text xml:space="preserve" font-family="Monaco,Monaco" font-size="28.0" fill="#37DE1B" transform="matrix(1.00, 0.00, -0.00, -1.00, 510.9, 263.2)">r</text><text xml:space="preserve" font-family="Monaco,Monaco" font-size="28.0" fill="#37DE1B" transform="matrix(1.00, 0.00, -0.00, -1.00, 527.7, 263.2)">e</text><text xml:space="preserve" font-family="Monaco,Monaco" font-size="28.0" fill="#37DE1B" transform="matrix(1.00, 0.00, -0.00, -1.00, 544.5, 263.2)">f</text><text xml:space="preserve" font-family="Monaco,Monaco" font-size="28.0" fill="#37DE1B" transform="matrix(1.00, 0.00, -0.00, -1.00, 561.3, 263.2)">e</text><text xml:space="preserve" font-family="Monaco,Monaco" font-size="28.0" fill="#37DE1B" transform="matrix(1.00, 0.00, -0.00, -1.00, 578.1, 263.2)">r</text><text xml:space="preserve" font-family="Monaco,Monaco" font-size="28.0" fill="#37DE1B" transform="matrix(1.00, 0.00, -0.00, -1.00, 595.0, 263.2)">e</text><text xml:space="preserve" font-family="Monaco,Monaco" font-size="28.0" fill="#37DE1B" transform="matrix(1.00, 0.00, -0.00, -1.00, 611.8, 263.2)">n</text><text xml:space="preserve" font-family="Monaco,Monaco" font-size="28.0" fill="#37DE1B" transform="matrix(1.00, 0.00, -0.00, -1.00, 628.6, 263.2)">c</text><text xml:space="preserve" font-family="Monaco,Monaco" font-size="28.0" fill="#37DE1B" transform="matrix(1.00, 0.00, -0.00, -1.00, 645.4, 263.2)">e</text><text xml:space="preserve" font-family="Monaco,Monaco" font-size="28.0" fill="#37DE1B" transform="matrix(1.00, 0.00, -0.00, -1.00, 662.2, 263.2)">s</text><text xml:space="preserve" font-family="Monaco,Monaco" font-size="28.0" fill="#37DE1B" transform="matrix(1.00, 0.00, -0.00, -1.00, 679.0, 263.2)">/</text><text xml:space="preserve" font-family="Monaco,Monaco" font-size="28.0" fill="#37DE1B" transform="matrix(1.00, 0.00, -0.00, -1.00, 57.2, 226.2)">c</text><text xml:space="preserve" font-family="Monaco,Monaco" font-size="28.0" fill="#37DE1B" transform="matrix(1.00, 0.00, -0.00, -1.00, 74.0, 226.2)">o</text><text xml:space="preserve" font-family="Monaco,Monaco" font-size="28.0" fill="#37DE1B" transform="matrix(1.00, 0.00, -0.00, -1.00, 90.8, 226.2)">m</text><text xml:space="preserve" font-family="Monaco,Monaco" font-size="28.0" fill="#37DE1B" transform="matrix(1.00, 0.00, -0.00, -1.00, 107.6, 226.2)">.</text><text xml:space="preserve" font-family="Monaco,Monaco" font-size="28.0" fill="#37DE1B" transform="matrix(1.00, 0.00, -0.00, -1.00, 124.4, 226.2)">m</text><text xml:space="preserve" font-family="Monaco,Monaco" font-size="28.0" fill="#37DE1B" transform="matrix(1.00, 0.00, -0.00, -1.00, 141.2, 226.2)">i</text><text xml:space="preserve" font-family="Monaco,Monaco" font-size="28.0" fill="#37DE1B" transform="matrix(1.00, 0.00, -0.00, -1.00, 158.0, 226.2)">c</text><text xml:space="preserve" font-family="Monaco,Monaco" font-size="28.0" fill="#37DE1B" transform="matrix(1.00, 0.00, -0.00, -1.00, 174.8, 226.2)">r</text><text xml:space="preserve" font-family="Monaco,Monaco" font-size="28.0" fill="#37DE1B" transform="matrix(1.00, 0.00, -0.00, -1.00, 191.6, 226.2)">o</text><text xml:space="preserve" font-family="Monaco,Monaco" font-size="28.0" fill="#37DE1B" transform="matrix(1.00, 0.00, -0.00, -1.00, 208.4, 226.2)">s</text><text xml:space="preserve" font-family="Monaco,Monaco" font-size="28.0" fill="#37DE1B" transform="matrix(1.00, 0.00, -0.00, -1.00, 225.2, 226.2)">o</text><text xml:space="preserve" font-family="Monaco,Monaco" font-size="28.0" fill="#37DE1B" transform="matrix(1.00, 0.00, -0.00, -1.00, 242.0, 226.2)">f</text><text xml:space="preserve" font-family="Monaco,Monaco" font-size="28.0" fill="#37DE1B" transform="matrix(1.00, 0.00, -0.00, -1.00, 258.8, 226.2)">t</text><text xml:space="preserve" font-family="Monaco,Monaco" font-size="28.0" fill="#37DE1B" transform="matrix(1.00, 0.00, -0.00, -1.00, 275.6, 226.2)">.</text><text xml:space="preserve" font-family="Monaco,Monaco" font-size="28.0" fill="#37DE1B" transform="matrix(1.00, 0.00, -0.00, -1.00, 292.5, 226.2)">a</text><text xml:space="preserve" font-family="Monaco,Monaco" font-size="28.0" fill="#37DE1B" transform="matrix(1.00, 0.00, -0.00, -1.00, 309.3, 226.2)">u</text><text xml:space="preserve" font-family="Monaco,Monaco" font-size="28.0" fill="#37DE1B" transform="matrix(1.00, 0.00, -0.00, -1.00, 326.1, 226.2)">t</text><text xml:space="preserve" font-family="Monaco,Monaco" font-size="28.0" fill="#37DE1B" transform="matrix(1.00, 0.00, -0.00, -1.00, 342.9, 226.2)">o</text><text xml:space="preserve" font-family="Monaco,Monaco" font-size="28.0" fill="#37DE1B" transform="matrix(1.00, 0.00, -0.00, -1.00, 359.7, 226.2)">u</text><text xml:space="preserve" font-family="Monaco,Monaco" font-size="28.0" fill="#37DE1B" transform="matrix(1.00, 0.00, -0.00, -1.00, 376.5, 226.2)">p</text><text xml:space="preserve" font-family="Monaco,Monaco" font-size="28.0" fill="#37DE1B" transform="matrix(1.00, 0.00, -0.00, -1.00, 393.3, 226.2)">d</text><text xml:space="preserve" font-family="Monaco,Monaco" font-size="28.0" fill="#37DE1B" transform="matrix(1.00, 0.00, -0.00, -1.00, 410.1, 226.2)">a</text><text xml:space="preserve" font-family="Monaco,Monaco" font-size="28.0" fill="#37DE1B" transform="matrix(1.00, 0.00, -0.00, -1.00, 426.9, 226.2)">t</text><text xml:space="preserve" font-family="Monaco,Monaco" font-size="28.0" fill="#37DE1B" transform="matrix(1.00, 0.00, -0.00, -1.00, 443.7, 226.2)">e</text><text xml:space="preserve" font-family="Monaco,Monaco" font-size="28.0" fill="#37DE1B" transform="matrix(1.00, 0.00, -0.00, -1.00, 460.5, 226.2)">2</text><text xml:space="preserve" font-family="Monaco,Monaco" font-size="28.0" fill="#37DE1B" transform="matrix(1.00, 0.00, -0.00, -1.00, 477.3, 226.2)">.</text><text xml:space="preserve" font-family="Monaco,Monaco" font-size="28.0" fill="#37DE1B" transform="matrix(1.00, 0.00, -0.00, -1.00, 494.1, 226.2)">p</text><text xml:space="preserve" font-family="Monaco,Monaco" font-size="28.0" fill="#37DE1B" transform="matrix(1.00, 0.00, -0.00, -1.00, 510.9, 226.2)">l</text><text xml:space="preserve" font-family="Monaco,Monaco" font-size="28.0" fill="#37DE1B" transform="matrix(1.00, 0.00, -0.00, -1.00, 527.7, 226.2)">i</text><text xml:space="preserve" font-family="Monaco,Monaco" font-size="28.0" fill="#37DE1B" transform="matrix(1.00, 0.00, -0.00, -1.00, 544.5, 226.2)">s</text><text xml:space="preserve" font-family="Monaco,Monaco" font-size="28.0" fill="#37DE1B" transform="matrix(1.00, 0.00, -0.00, -1.00, 561.3, 226.2)">t</text><text xml:space="preserve" font-family="Monaco,Monaco" font-size="28.0" fill="#37DE1B" transform="matrix(1.00, 0.00, -0.00, -1.00, 578.1, 226.2)"> </text><text xml:space="preserve" font-family="Monaco,Monaco" font-size="28.0" fill="#37DE1B" transform="matrix(1.00, 0.00, -0.00, -1.00, 595.0, 226.2)">H</text><text xml:space="preserve" font-family="Monaco,Monaco" font-size="28.0" fill="#37DE1B" transform="matrix(1.00, 0.00, -0.00, -1.00, 611.8, 226.2)">o</text><text xml:space="preserve" font-family="Monaco,Monaco" font-size="28.0" fill="#37DE1B" transform="matrix(1.00, 0.00, -0.00, -1.00, 628.6, 226.2)">w</text><text xml:space="preserve" font-family="Monaco,Monaco" font-size="28.0" fill="#37DE1B" transform="matrix(1.00, 0.00, -0.00, -1.00, 645.4, 226.2)">T</text><text xml:space="preserve" font-family="Monaco,Monaco" font-size="28.0" fill="#37DE1B" transform="matrix(1.00, 0.00, -0.00, -1.00, 662.2, 226.2)">o</text><text xml:space="preserve" font-family="Monaco,Monaco" font-size="28.0" fill="#37DE1B" transform="matrix(1.00, 0.00, -0.00, -1.00, 679.0, 226.2)">C</text><text xml:space="preserve" font-family="Monaco,Monaco" font-size="28.0" fill="#37DE1B" transform="matrix(1.00, 0.00, -0.00, -1.00, 695.8, 226.2)">h</text><text xml:space="preserve" font-family="Monaco,Monaco" font-size="28.0" fill="#37DE1B" transform="matrix(1.00, 0.00, -0.00, -1.00, 712.6, 226.2)">e</text><text xml:space="preserve" font-family="Monaco,Monaco" font-size="28.0" fill="#37DE1B" transform="matrix(1.00, 0.00, -0.00, -1.00, 729.4, 226.2)">c</text><text xml:space="preserve" font-family="Monaco,Monaco" font-size="28.0" fill="#37DE1B" transform="matrix(1.00, 0.00, -0.00, -1.00, 746.2, 226.2)">k</text><text xml:space="preserve" font-family="Monaco,Monaco" font-size="28.0" fill="#37DE1B" transform="matrix(1.00, 0.00, -0.00, -1.00, 763.0, 226.2)">	</text><text xml:space="preserve" font-family="Monaco,Monaco" font-size="28.0" fill="#37DE1B" transform="matrix(1.00, 0.00, -0.00, -1.00, 57.2, 152.2)">A</text><text xml:space="preserve" font-family="Monaco,Monaco" font-size="28.0" fill="#37DE1B" transform="matrix(1.00, 0.00, -0.00, -1.00, 74.0, 152.2)">u</text><text xml:space="preserve" font-family="Monaco,Monaco" font-size="28.0" fill="#37DE1B" transform="matrix(1.00, 0.00, -0.00, -1.00, 90.8, 152.2)">t</text><text xml:space="preserve" font-family="Monaco,Monaco" font-size="28.0" fill="#37DE1B" transform="matrix(1.00, 0.00, -0.00, -1.00, 107.6, 152.2)">o</text><text xml:space="preserve" font-family="Monaco,Monaco" font-size="28.0" fill="#37DE1B" transform="matrix(1.00, 0.00, -0.00, -1.00, 124.4, 152.2)">m</text><text xml:space="preserve" font-family="Monaco,Monaco" font-size="28.0" fill="#37DE1B" transform="matrix(1.00, 0.00, -0.00, -1.00, 141.2, 152.2)">a</text><text xml:space="preserve" font-family="Monaco,Monaco" font-size="28.0" fill="#37DE1B" transform="matrix(1.00, 0.00, -0.00, -1.00, 158.0, 152.2)">t</text><text xml:space="preserve" font-family="Monaco,Monaco" font-size="28.0" fill="#37DE1B" transform="matrix(1.00, 0.00, -0.00, -1.00, 174.8, 152.2)">i</text><text xml:space="preserve" font-family="Monaco,Monaco" font-size="28.0" fill="#37DE1B" transform="matrix(1.00, 0.00, -0.00, -1.00, 191.6, 152.2)">c</text></g></svg>