<?xml version="1.0" encoding="UTF-8" standalone="no"?><svg xmlns="http://www.w3.org/2000/svg" xmlns:xlink="http://www.w3.org/1999/xlink" clip-rule="evenodd" stroke-miterlimit="10" viewBox="0 0 1024 768"><desc>SVG generated by Keynote</desc><defs></defs><g transform="matrix(1.00, 0.00, -0.00, -1.00, 0.0, 768.0)"><path d="M 0.0 768.0 L 1024.0 768.0 L 1024.0 0.0 L 0.0 0.0 Z M 0.0 768.0 " fill="#000000"></path><text xml:space="preserve" font-family="LucidaGrande,Lucida Grande" font-size="22.0" fill="#FEFFFE" transform="matrix(1.00, 0.00, -0.00, -1.00, 332.4, 11.6)">F</text><text xml:space="preserve" font-family="LucidaGrande,Lucida Grande" font-size="22.0" fill="#FEFFFE" transform="matrix(1.00, 0.00, -0.00, -1.00, 344.2, 11.6)">e</text><text xml:space="preserve" font-family="LucidaGrande,Lucida Grande" font-size="22.0" fill="#FEFFFE" transform="matrix(1.00, 0.00, -0.00, -1.00, 356.4, 11.6)">e</text><text xml:space="preserve" font-family="LucidaGrande,Lucida Grande" font-size="22.0" fill="#FEFFFE" transform="matrix(1.00, 0.00, -0.00, -1.00, 368.7, 11.6)">d</text><text xml:space="preserve" font-family="LucidaGrande,Lucida Grande" font-size="22.0" fill="#FEFFFE" transform="matrix(1.00, 0.00, -0.00, -1.00, 382.5, 11.6)">b</text><text xml:space="preserve" font-family="LucidaGrande,Lucida Grande" font-size="22.0" fill="#FEFFFE" transform="matrix(1.00, 0.00, -0.00, -1.00, 396.4, 11.6)">a</text><text xml:space="preserve" font-family="LucidaGrande,Lucida Grande" font-size="22.0" fill="#FEFFFE" transform="matrix(1.00, 0.00, -0.00, -1.00, 408.5, 11.6)">c</text><text xml:space="preserve" font-family="LucidaGrande,Lucida Grande" font-size="22.0" fill="#FEFFFE" transform="matrix(1.00, 0.00, -0.00, -1.00, 419.8, 11.6)">k</text><text xml:space="preserve" font-family="LucidaGrande,Lucida Grande" font-size="22.0" fill="#FEFFFE" transform="matrix(1.00, 0.00, -0.00, -1.00, 432.7, 11.6)">:</text><text xml:space="preserve" font-family="LucidaGrande,Lucida Grande" font-size="22.0" fill="#FEFFFE" transform="matrix(1.00, 0.00, -0.00, -1.00, 439.6, 11.6)"> </text><text xml:space="preserve" font-family="LucidaGrande,Lucida Grande" font-size="22.0" fill="#FEFFFE" transform="matrix(1.00, 0.00, -0.00, -1.00, 446.6, 11.6)">h</text><text xml:space="preserve" font-family="LucidaGrande,Lucida Grande" font-size="22.0" fill="#FEFFFE" transform="matrix(1.00, 0.00, -0.00, -1.00, 460.2, 11.6)">t</text><text xml:space="preserve" font-family="LucidaGrande,Lucida Grande" font-size="22.0" fill="#FEFFFE" transform="matrix(1.00, 0.00, -0.00, -1.00, 468.4, 11.6)">t</text><text xml:space="preserve" font-family="LucidaGrande,Lucida Grande" font-size="22.0" fill="#FEFFFE" transform="matrix(1.00, 0.00, -0.00, -1.00, 476.7, 11.6)">p</text><text xml:space="preserve" font-family="LucidaGrande,Lucida Grande" font-size="22.0" fill="#FEFFFE" transform="matrix(1.00, 0.00, -0.00, -1.00, 490.5, 11.6)">:</text><text xml:space="preserve" font-family="LucidaGrande,Lucida Grande" font-size="22.0" fill="#FEFFFE" transform="matrix(1.00, 0.00, -0.00, -1.00, 497.5, 11.6)">/</text><text xml:space="preserve" font-family="LucidaGrande,Lucida Grande" font-size="22.0" fill="#FEFFFE" transform="matrix(1.00, 0.00, -0.00, -1.00, 509.0, 11.6)">/</text><text xml:space="preserve" font-family="LucidaGrande,Lucida Grande" font-size="22.0" fill="#FEFFFE" transform="matrix(1.00, 0.00, -0.00, -1.00, 520.6, 11.6)">j</text><text xml:space="preserve" font-family="LucidaGrande,Lucida Grande" font-size="22.0" fill="#FEFFFE" transform="matrix(1.00, 0.00, -0.00, -1.00, 527.3, 11.6)">.</text><text xml:space="preserve" font-family="LucidaGrande,Lucida Grande" font-size="22.0" fill="#FEFFFE" transform="matrix(1.00, 0.00, -0.00, -1.00, 534.3, 11.6)">m</text><text xml:space="preserve" font-family="LucidaGrande,Lucida Grande" font-size="22.0" fill="#FEFFFE" transform="matrix(1.00, 0.00, -0.00, -1.00, 554.8, 11.6)">p</text><text xml:space="preserve" font-family="LucidaGrande,Lucida Grande" font-size="22.0" fill="#FEFFFE" transform="matrix(1.00, 0.00, -0.00, -1.00, 568.6, 11.6)">/</text><text xml:space="preserve" font-family="LucidaGrande,Lucida Grande" font-size="22.0" fill="#FEFFFE" transform="matrix(1.00, 0.00, -0.00, -1.00, 580.2, 11.6)">p</text><text xml:space="preserve" font-family="LucidaGrande,Lucida Grande" font-size="22.0" fill="#FEFFFE" transform="matrix(1.00, 0.00, -0.00, -1.00, 594.0, 11.6)">s</text><text xml:space="preserve" font-family="LucidaGrande,Lucida Grande" font-size="22.0" fill="#FEFFFE" transform="matrix(1.00, 0.00, -0.00, -1.00, 605.3, 11.6)">u</text><text xml:space="preserve" font-family="LucidaGrande,Lucida Grande" font-size="22.0" fill="#FEFFFE" transform="matrix(1.00, 0.00, -0.00, -1.00, 618.9, 11.6)">m</text><text xml:space="preserve" font-family="LucidaGrande,Lucida Grande" font-size="22.0" fill="#FEFFFE" transform="matrix(1.00, 0.00, -0.00, -1.00, 639.4, 11.6)">a</text><text xml:space="preserve" font-family="LucidaGrande,Lucida Grande" font-size="22.0" fill="#FEFFFE" transform="matrix(1.00, 0.00, -0.00, -1.00, 651.6, 11.6)">c</text><text xml:space="preserve" font-family="LucidaGrande,Lucida Grande" font-size="22.0" fill="#FEFFFE" transform="matrix(1.00, 0.00, -0.00, -1.00, 662.9, 11.6)">1</text><text xml:space="preserve" font-family="LucidaGrande,Lucida Grande" font-size="22.0" fill="#FEFFFE" transform="matrix(1.00, 0.00, -0.00, -1.00, 676.8, 11.6)">3</text><text xml:space="preserve" font-family="Monaco,Monaco" font-size="69.7" fill="#FEFFFF" transform="matrix(1.00, 0.00, -0.00, -1.00, 365.6, 672.3)">C</text><text xml:space="preserve" font-family="Monaco,Monaco" font-size="69.7" fill="#FEFFFF" transform="matrix(1.00, 0.00, -0.00, -1.00, 407.4, 672.3)">o</text><text xml:space="preserve" font-family="Monaco,Monaco" font-size="69.7" fill="#FEFFFF" transform="matrix(1.00, 0.00, -0.00, -1.00, 449.3, 672.3)">m</text><text xml:space="preserve" font-family="Monaco,Monaco" font-size="69.7" fill="#FEFFFF" transform="matrix(1.00, 0.00, -0.00, -1.00, 491.1, 672.3)">m</text><text xml:space="preserve" font-family="Monaco,Monaco" font-size="69.7" fill="#FEFFFF" transform="matrix(1.00, 0.00, -0.00, -1.00, 532.9, 672.3)">a</text><text xml:space="preserve" font-family="Monaco,Monaco" font-size="69.7" fill="#FEFFFF" transform="matrix(1.00, 0.00, -0.00, -1.00, 574.8, 672.3)">n</text><text xml:space="preserve" font-family="Monaco,Monaco" font-size="69.7" fill="#FEFFFF" transform="matrix(1.00, 0.00, -0.00, -1.00, 616.6, 672.3)">d</text><text xml:space="preserve" font-family="Monaco,Monaco" font-size="69.7" fill="#FEFFFF" transform="matrix(1.00, 0.00, -0.00, -1.00, 658.5, 672.3)"> </text><text xml:space="preserve" font-family="Monaco,Monaco" font-size="69.7" fill="#FEFFFF" transform="matrix(1.00, 0.00, -0.00, -1.00, 261.0, 579.3)">S</text><text xml:space="preserve" font-family="Monaco,Monaco" font-size="69.7" fill="#FEFFFF" transform="matrix(1.00, 0.00, -0.00, -1.00, 302.8, 579.3)">u</text><text xml:space="preserve" font-family="Monaco,Monaco" font-size="69.7" fill="#FEFFFF" transform="matrix(1.00, 0.00, -0.00, -1.00, 344.7, 579.3)">b</text><text xml:space="preserve" font-family="Monaco,Monaco" font-size="69.7" fill="#FEFFFF" transform="matrix(1.00, 0.00, -0.00, -1.00, 386.5, 579.3)">s</text><text xml:space="preserve" font-family="Monaco,Monaco" font-size="69.7" fill="#FEFFFF" transform="matrix(1.00, 0.00, -0.00, -1.00, 428.4, 579.3)">t</text><text xml:space="preserve" font-family="Monaco,Monaco" font-size="69.7" fill="#FEFFFF" transform="matrix(1.00, 0.00, -0.00, -1.00, 470.2, 579.3)">i</text><text xml:space="preserve" font-family="Monaco,Monaco" font-size="69.7" fill="#FEFFFF" transform="matrix(1.00, 0.00, -0.00, -1.00, 512.0, 579.3)">t</text><text xml:space="preserve" font-family="Monaco,Monaco" font-size="69.7" fill="#FEFFFF" transform="matrix(1.00, 0.00, -0.00, -1.00, 553.9, 579.3)">u</text><text xml:space="preserve" font-family="Monaco,Monaco" font-size="69.7" fill="#FEFFFF" transform="matrix(1.00, 0.00, -0.00, -1.00, 595.7, 579.3)">t</text><text xml:space="preserve" font-family="Monaco,Monaco" font-size="69.7" fill="#FEFFFF" transform="matrix(1.00, 0.00, -0.00, -1.00, 637.6, 579.3)">i</text><text xml:space="preserve" font-family="Monaco,Monaco" font-size="69.7" fill="#FEFFFF" transform="matrix(1.00, 0.00, -0.00, -1.00, 679.4, 579.3)">o</text><text xml:space="preserve" font-family="Monaco,Monaco" font-size="69.7" fill="#FEFFFF" transform="matrix(1.00, 0.00, -0.00, -1.00, 721.3, 579.3)">n</text><text xml:space="preserve" font-family="Monaco,Monaco" font-size="42.0" fill="#FEFFFF" transform="matrix(1.00, 0.00, -0.00, -1.00, 129.0, 378.0)">•</text><text xml:space="preserve" font-family="Monaco,Monaco" font-size="42.0" fill="#FEFFFF" transform="matrix(1.00, 0.00, -0.00, -1.00, 174.0, 378.0)">I</text><text xml:space="preserve" font-family="Monaco,Monaco" font-size="42.0" fill="#FEFFFF" transform="matrix(1.00, 0.00, -0.00, -1.00, 199.2, 378.0)">n</text><text xml:space="preserve" font-family="Monaco,Monaco" font-size="42.0" fill="#FEFFFF" transform="matrix(1.00, 0.00, -0.00, -1.00, 224.4, 378.0)">s</text><text xml:space="preserve" font-family="Monaco,Monaco" font-size="42.0" fill="#FEFFFF" transform="matrix(1.00, 0.00, -0.00, -1.00, 249.6, 378.0)">e</text><text xml:space="preserve" font-family="Monaco,Monaco" font-size="42.0" fill="#FEFFFF" transform="matrix(1.00, 0.00, -0.00, -1.00, 274.8, 378.0)">r</text><text xml:space="preserve" font-family="Monaco,Monaco" font-size="42.0" fill="#FEFFFF" transform="matrix(1.00, 0.00, -0.00, -1.00, 300.0, 378.0)">t</text><text xml:space="preserve" font-family="Monaco,Monaco" font-size="42.0" fill="#FEFFFF" transform="matrix(1.00, 0.00, -0.00, -1.00, 325.2, 378.0)">s</text><text xml:space="preserve" font-family="Monaco,Monaco" font-size="42.0" fill="#FEFFFF" transform="matrix(1.00, 0.00, -0.00, -1.00, 350.5, 378.0)"> </text><text xml:space="preserve" font-family="Monaco,Monaco" font-size="42.0" fill="#FEFFFF" transform="matrix(1.00, 0.00, -0.00, -1.00, 375.7, 378.0)">o</text><text xml:space="preserve" font-family="Monaco,Monaco" font-size="42.0" fill="#FEFFFF" transform="matrix(1.00, 0.00, -0.00, -1.00, 400.9, 378.0)">u</text><text xml:space="preserve" font-family="Monaco,Monaco" font-size="42.0" fill="#FEFFFF" transform="matrix(1.00, 0.00, -0.00, -1.00, 426.1, 378.0)">t</text><text xml:space="preserve" font-family="Monaco,Monaco" font-size="42.0" fill="#FEFFFF" transform="matrix(1.00, 0.00, -0.00, -1.00, 451.3, 378.0)">p</text><text xml:space="preserve" font-family="Monaco,Monaco" font-size="42.0" fill="#FEFFFF" transform="matrix(1.00, 0.00, -0.00, -1.00, 476.5, 378.0)">u</text><text xml:space="preserve" font-family="Monaco,Monaco" font-size="42.0" fill="#FEFFFF" transform="matrix(1.00, 0.00, -0.00, -1.00, 501.7, 378.0)">t</text><text xml:space="preserve" font-family="Monaco,Monaco" font-size="42.0" fill="#FEFFFF" transform="matrix(1.00, 0.00, -0.00, -1.00, 526.9, 378.0)"> </text><text xml:space="preserve" font-family="Monaco,Monaco" font-size="42.0" fill="#FEFFFF" transform="matrix(1.00, 0.00, -0.00, -1.00, 552.1, 378.0)">o</text><text xml:space="preserve" font-family="Monaco,Monaco" font-size="42.0" fill="#FEFFFF" transform="matrix(1.00, 0.00, -0.00, -1.00, 577.3, 378.0)">f</text><text xml:space="preserve" font-family="Monaco,Monaco" font-size="42.0" fill="#FEFFFF" transform="matrix(1.00, 0.00, -0.00, -1.00, 602.5, 378.0)"> </text><text xml:space="preserve" font-family="Monaco,Monaco" font-size="42.0" fill="#FEFFFF" transform="matrix(1.00, 0.00, -0.00, -1.00, 627.7, 378.0)">o</text><text xml:space="preserve" font-family="Monaco,Monaco" font-size="42.0" fill="#FEFFFF" transform="matrix(1.00, 0.00, -0.00, -1.00, 653.0, 378.0)">n</text><text xml:space="preserve" font-family="Monaco,Monaco" font-size="42.0" fill="#FEFFFF" transform="matrix(1.00, 0.00, -0.00, -1.00, 678.2, 378.0)">e</text><text xml:space="preserve" font-family="Monaco,Monaco" font-size="42.0" fill="#FEFFFF" transform="matrix(1.00, 0.00, -0.00, -1.00, 703.4, 378.0)"> </text><text xml:space="preserve" font-family="Monaco,Monaco" font-size="42.0" fill="#FEFFFF" transform="matrix(1.00, 0.00, -0.00, -1.00, 728.6, 378.0)">c</text><text xml:space="preserve" font-family="Monaco,Monaco" font-size="42.0" fill="#FEFFFF" transform="matrix(1.00, 0.00, -0.00, -1.00, 753.8, 378.0)">o</text><text xml:space="preserve" font-family="Monaco,Monaco" font-size="42.0" fill="#FEFFFF" transform="matrix(1.00, 0.00, -0.00, -1.00, 779.0, 378.0)">m</text><text xml:space="preserve" font-family="Monaco,Monaco" font-size="42.0" fill="#FEFFFF" transform="matrix(1.00, 0.00, -0.00, -1.00, 804.2, 378.0)">m</text><text xml:space="preserve" font-family="Monaco,Monaco" font-size="42.0" fill="#FEFFFF" transform="matrix(1.00, 0.00, -0.00, -1.00, 829.4, 378.0)">a</text><text xml:space="preserve" font-family="Monaco,Monaco" font-size="42.0" fill="#FEFFFF" transform="matrix(1.00, 0.00, -0.00, -1.00, 854.6, 378.0)">n</text><text xml:space="preserve" font-family="Monaco,Monaco" font-size="42.0" fill="#FEFFFF" transform="matrix(1.00, 0.00, -0.00, -1.00, 879.8, 378.0)">d</text><text xml:space="preserve" font-family="Monaco,Monaco" font-size="42.0" fill="#FEFFFF" transform="matrix(1.00, 0.00, -0.00, -1.00, 905.0, 378.0)"> </text><text xml:space="preserve" font-family="Monaco,Monaco" font-size="42.0" fill="#FEFFFF" transform="matrix(1.00, 0.00, -0.00, -1.00, 174.0, 321.0)">i</text><text xml:space="preserve" font-family="Monaco,Monaco" font-size="42.0" fill="#FEFFFF" transform="matrix(1.00, 0.00, -0.00, -1.00, 199.2, 321.0)">n</text><text xml:space="preserve" font-family="Monaco,Monaco" font-size="42.0" fill="#FEFFFF" transform="matrix(1.00, 0.00, -0.00, -1.00, 224.4, 321.0)">t</text><text xml:space="preserve" font-family="Monaco,Monaco" font-size="42.0" fill="#FEFFFF" transform="matrix(1.00, 0.00, -0.00, -1.00, 249.6, 321.0)">o</text><text xml:space="preserve" font-family="Monaco,Monaco" font-size="42.0" fill="#FEFFFF" transform="matrix(1.00, 0.00, -0.00, -1.00, 274.8, 321.0)"> </text><text xml:space="preserve" font-family="Monaco,Monaco" font-size="42.0" fill="#FEFFFF" transform="matrix(1.00, 0.00, -0.00, -1.00, 300.0, 321.0)">a</text><text xml:space="preserve" font-family="Monaco,Monaco" font-size="42.0" fill="#FEFFFF" transform="matrix(1.00, 0.00, -0.00, -1.00, 325.2, 321.0)">n</text><text xml:space="preserve" font-family="Monaco,Monaco" font-size="42.0" fill="#FEFFFF" transform="matrix(1.00, 0.00, -0.00, -1.00, 350.5, 321.0)">o</text><text xml:space="preserve" font-family="Monaco,Monaco" font-size="42.0" fill="#FEFFFF" transform="matrix(1.00, 0.00, -0.00, -1.00, 375.7, 321.0)">t</text><text xml:space="preserve" font-family="Monaco,Monaco" font-size="42.0" fill="#FEFFFF" transform="matrix(1.00, 0.00, -0.00, -1.00, 400.9, 321.0)">h</text><text xml:space="preserve" font-family="Monaco,Monaco" font-size="42.0" fill="#FEFFFF" transform="matrix(1.00, 0.00, -0.00, -1.00, 426.1, 321.0)">e</text><text xml:space="preserve" font-family="Monaco,Monaco" font-size="42.0" fill="#FEFFFF" transform="matrix(1.00, 0.00, -0.00, -1.00, 451.3, 321.0)">r</text><text xml:space="preserve" font-family="Monaco,Monaco" font-size="42.0" fill="#FEFFFF" transform="matrix(1.00, 0.00, -0.00, -1.00, 476.5, 321.0)">	</text><text xml:space="preserve" font-family="Monaco,Monaco" font-size="42.0" fill="#FEFFFF" transform="matrix(1.00, 0.00, -0.00, -1.00, 129.0, 240.0)">•</text><text xml:space="preserve" font-family="Monaco,Monaco" font-size="42.0" fill="#FEFFFF" transform="matrix(1.00, 0.00, -0.00, -1.00, 174.0, 240.0)">e</text><text xml:space="preserve" font-family="Monaco,Monaco" font-size="42.0" fill="#FEFFFF" transform="matrix(1.00, 0.00, -0.00, -1.00, 199.2, 240.0)">c</text><text xml:space="preserve" font-family="Monaco,Monaco" font-size="42.0" fill="#FEFFFF" transform="matrix(1.00, 0.00, -0.00, -1.00, 224.4, 240.0)">h</text><text xml:space="preserve" font-family="Monaco,Monaco" font-size="42.0" fill="#FEFFFF" transform="matrix(1.00, 0.00, -0.00, -1.00, 249.6, 240.0)">o</text><text xml:space="preserve" font-family="Monaco,Monaco" font-size="42.0" fill="#FEFFFF" transform="matrix(1.00, 0.00, -0.00, -1.00, 274.8, 240.0)"> </text><text xml:space="preserve" font-family="Monaco,Monaco" font-size="42.0" fill="#FEFFFF" transform="matrix(1.00, 0.00, -0.00, -1.00, 300.0, 240.0)">"</text><text xml:space="preserve" font-family="Monaco,Monaco" font-size="42.0" fill="#FEFFFF" transform="matrix(1.00, 0.00, -0.00, -1.00, 325.2, 240.0)">$</text><text xml:space="preserve" font-family="Monaco,Monaco" font-size="42.0" fill="#FEFFFF" transform="matrix(1.00, 0.00, -0.00, -1.00, 350.5, 240.0)">(</text><text xml:space="preserve" font-family="Monaco,Monaco" font-size="42.0" fill="#FEFFFF" transform="matrix(1.00, 0.00, -0.00, -1.00, 375.7, 240.0)"> </text><text xml:space="preserve" font-family="Monaco,Monaco" font-size="42.0" fill="#FEFFFF" transform="matrix(1.00, 0.00, -0.00, -1.00, 400.9, 240.0)">c</text><text xml:space="preserve" font-family="Monaco,Monaco" font-size="42.0" fill="#FEFFFF" transform="matrix(1.00, 0.00, -0.00, -1.00, 426.1, 240.0)">o</text><text xml:space="preserve" font-family="Monaco,Monaco" font-size="42.0" fill="#FEFFFF" transform="matrix(1.00, 0.00, -0.00, -1.00, 451.3, 240.0)">m</text><text xml:space="preserve" font-family="Monaco,Monaco" font-size="42.0" fill="#FEFFFF" transform="matrix(1.00, 0.00, -0.00, -1.00, 476.5, 240.0)">m</text><text xml:space="preserve" font-family="Monaco,Monaco" font-size="42.0" fill="#FEFFFF" transform="matrix(1.00, 0.00, -0.00, -1.00, 501.7, 240.0)">a</text><text xml:space="preserve" font-family="Monaco,Monaco" font-size="42.0" fill="#FEFFFF" transform="matrix(1.00, 0.00, -0.00, -1.00, 526.9, 240.0)">n</text><text xml:space="preserve" font-family="Monaco,Monaco" font-size="42.0" fill="#FEFFFF" transform="matrix(1.00, 0.00, -0.00, -1.00, 552.1, 240.0)">d</text><text xml:space="preserve" font-family="Monaco,Monaco" font-size="42.0" fill="#FEFFFF" transform="matrix(1.00, 0.00, -0.00, -1.00, 577.3, 240.0)">s</text><text xml:space="preserve" font-family="Monaco,Monaco" font-size="42.0" fill="#FEFFFF" transform="matrix(1.00, 0.00, -0.00, -1.00, 602.5, 240.0)"> </text><text xml:space="preserve" font-family="Monaco,Monaco" font-size="42.0" fill="#FEFFFF" transform="matrix(1.00, 0.00, -0.00, -1.00, 627.7, 240.0)">)</text><text xml:space="preserve" font-family="Monaco,Monaco" font-size="42.0" fill="#FEFFFF" transform="matrix(1.00, 0.00, -0.00, -1.00, 652.9, 240.0)">"</text></g></svg>