<?xml version="1.0" encoding="UTF-8" standalone="no"?><svg xmlns="http://www.w3.org/2000/svg" xmlns:xlink="http://www.w3.org/1999/xlink" clip-rule="evenodd" stroke-miterlimit="10" viewBox="0 0 1024 768"><desc>SVG generated by Keynote</desc><defs></defs><g transform="matrix(1.00, 0.00, -0.00, -1.00, 0.0, 768.0)"><path d="M 0.0 768.0 L 1024.0 768.0 L 1024.0 0.0 L 0.0 0.0 Z M 0.0 768.0 " fill="#000000"></path><image xlink:href="../../ACF26528-510F-4087-92A7-D9431E4A7675/assets/C07D05C049E9C3A813AD52BFC7182A2D.png" width="983.00" height="584.00" transform="matrix(1.00, 0.00, -0.00, -1.00, 10.2, 664.7)" opacity="0.75"></image><image xlink:href="../../ACF26528-510F-4087-92A7-D9431E4A7675/assets/B8B89F8D2E49298F363D8341A9D067FB.png" width="963.00" height="564.00" transform="matrix(1.00, 0.00, -0.00, -1.00, 30.0, 666.0)"></image><text xml:space="preserve" font-family="LucidaGrande,Lucida Grande" font-size="22.0" fill="#FEFFFE" transform="matrix(1.00, 0.00, -0.00, -1.00, 332.4, 11.6)">F</text><text xml:space="preserve" font-family="LucidaGrande,Lucida Grande" font-size="22.0" fill="#FEFFFE" transform="matrix(1.00, 0.00, -0.00, -1.00, 344.2, 11.6)">e</text><text xml:space="preserve" font-family="LucidaGrande,Lucida Grande" font-size="22.0" fill="#FEFFFE" transform="matrix(1.00, 0.00, -0.00, -1.00, 356.4, 11.6)">e</text><text xml:space="preserve" font-family="LucidaGrande,Lucida Grande" font-size="22.0" fill="#FEFFFE" transform="matrix(1.00, 0.00, -0.00, -1.00, 368.7, 11.6)">d</text><text xml:space="preserve" font-family="LucidaGrande,Lucida Grande" font-size="22.0" fill="#FEFFFE" transform="matrix(1.00, 0.00, -0.00, -1.00, 382.5, 11.6)">b</text><text xml:space="preserve" font-family="LucidaGrande,Lucida Grande" font-size="22.0" fill="#FEFFFE" transform="matrix(1.00, 0.00, -0.00, -1.00, 396.4, 11.6)">a</text><text xml:space="preserve" font-family="LucidaGrande,Lucida Grande" font-size="22.0" fill="#FEFFFE" transform="matrix(1.00, 0.00, -0.00, -1.00, 408.5, 11.6)">c</text><text xml:space="preserve" font-family="LucidaGrande,Lucida Grande" font-size="22.0" fill="#FEFFFE" transform="matrix(1.00, 0.00, -0.00, -1.00, 419.8, 11.6)">k</text><text xml:space="preserve" font-family="LucidaGrande,Lucida Grande" font-size="22.0" fill="#FEFFFE" transform="matrix(1.00, 0.00, -0.00, -1.00, 432.7, 11.6)">:</text><text xml:space="preserve" font-family="LucidaGrande,Lucida Grande" font-size="22.0" fill="#FEFFFE" transform="matrix(1.00, 0.00, -0.00, -1.00, 439.6, 11.6)"> </text><text xml:space="preserve" font-family="LucidaGrande,Lucida Grande" font-size="22.0" fill="#FEFFFE" transform="matrix(1.00, 0.00, -0.00, -1.00, 446.6, 11.6)">h</text><text xml:space="preserve" font-family="LucidaGrande,Lucida Grande" font-size="22.0" fill="#FEFFFE" transform="matrix(1.00, 0.00, -0.00, -1.00, 460.2, 11.6)">t</text><text xml:space="preserve" font-family="LucidaGrande,Lucida Grande" font-size="22.0" fill="#FEFFFE" transform="matrix(1.00, 0.00, -0.00, -1.00, 468.4, 11.6)">t</text><text xml:space="preserve" font-family="LucidaGrande,Lucida Grande" font-size="22.0" fill="#FEFFFE" transform="matrix(1.00, 0.00, -0.00, -1.00, 476.7, 11.6)">p</text><text xml:space="preserve" font-family="LucidaGrande,Lucida Grande" font-size="22.0" fill="#FEFFFE" transform="matrix(1.00, 0.00, -0.00, -1.00, 490.5, 11.6)">:</text><text xml:space="preserve" font-family="LucidaGrande,Lucida Grande" font-size="22.0" fill="#FEFFFE" transform="matrix(1.00, 0.00, -0.00, -1.00, 497.5, 11.6)">/</text><text xml:space="preserve" font-family="LucidaGrande,Lucida Grande" font-size="22.0" fill="#FEFFFE" transform="matrix(1.00, 0.00, -0.00, -1.00, 509.0, 11.6)">/</text><text xml:space="preserve" font-family="LucidaGrande,Lucida Grande" font-size="22.0" fill="#FEFFFE" transform="matrix(1.00, 0.00, -0.00, -1.00, 520.6, 11.6)">j</text><text xml:space="preserve" font-family="LucidaGrande,Lucida Grande" font-size="22.0" fill="#FEFFFE" transform="matrix(1.00, 0.00, -0.00, -1.00, 527.3, 11.6)">.</text><text xml:space="preserve" font-family="LucidaGrande,Lucida Grande" font-size="22.0" fill="#FEFFFE" transform="matrix(1.00, 0.00, -0.00, -1.00, 534.3, 11.6)">m</text><text xml:space="preserve" font-family="LucidaGrande,Lucida Grande" font-size="22.0" fill="#FEFFFE" transform="matrix(1.00, 0.00, -0.00, -1.00, 554.8, 11.6)">p</text><text xml:space="preserve" font-family="LucidaGrande,Lucida Grande" font-size="22.0" fill="#FEFFFE" transform="matrix(1.00, 0.00, -0.00, -1.00, 568.6, 11.6)">/</text><text xml:space="preserve" font-family="LucidaGrande,Lucida Grande" font-size="22.0" fill="#FEFFFE" transform="matrix(1.00, 0.00, -0.00, -1.00, 580.2, 11.6)">p</text><text xml:space="preserve" font-family="LucidaGrande,Lucida Grande" font-size="22.0" fill="#FEFFFE" transform="matrix(1.00, 0.00, -0.00, -1.00, 594.0, 11.6)">s</text><text xml:space="preserve" font-family="LucidaGrande,Lucida Grande" font-size="22.0" fill="#FEFFFE" transform="matrix(1.00, 0.00, -0.00, -1.00, 605.3, 11.6)">u</text><text xml:space="preserve" font-family="LucidaGrande,Lucida Grande" font-size="22.0" fill="#FEFFFE" transform="matrix(1.00, 0.00, -0.00, -1.00, 618.9, 11.6)">m</text><text xml:space="preserve" font-family="LucidaGrande,Lucida Grande" font-size="22.0" fill="#FEFFFE" transform="matrix(1.00, 0.00, -0.00, -1.00, 639.4, 11.6)">a</text><text xml:space="preserve" font-family="LucidaGrande,Lucida Grande" font-size="22.0" fill="#FEFFFE" transform="matrix(1.00, 0.00, -0.00, -1.00, 651.6, 11.6)">c</text><text xml:space="preserve" font-family="LucidaGrande,Lucida Grande" font-size="22.0" fill="#FEFFFE" transform="matrix(1.00, 0.00, -0.00, -1.00, 662.9, 11.6)">1</text><text xml:space="preserve" font-family="LucidaGrande,Lucida Grande" font-size="22.0" fill="#FEFFFE" transform="matrix(1.00, 0.00, -0.00, -1.00, 676.8, 11.6)">3</text><text xml:space="preserve" font-family="Monaco,Monaco" font-size="40.0" fill="#37DE1B" transform="matrix(1.00, 0.00, -0.00, -1.00, 57.0, 601.7)">$</text><text xml:space="preserve" font-family="Monaco,Monaco" font-size="40.0" fill="#37DE1B" transform="matrix(1.00, 0.00, -0.00, -1.00, 81.0, 601.7)"> </text><text xml:space="preserve" font-family="Monaco,Monaco" font-size="40.0" fill="#37DE1B" transform="matrix(1.00, 0.00, -0.00, -1.00, 105.0, 601.7)">.</text><text xml:space="preserve" font-family="Monaco,Monaco" font-size="40.0" fill="#37DE1B" transform="matrix(1.00, 0.00, -0.00, -1.00, 129.0, 601.7)">/</text><text xml:space="preserve" font-family="Monaco,Monaco" font-size="40.0" fill="#37DE1B" transform="matrix(1.00, 0.00, -0.00, -1.00, 153.0, 601.7)">i</text><text xml:space="preserve" font-family="Monaco,Monaco" font-size="40.0" fill="#37DE1B" transform="matrix(1.00, 0.00, -0.00, -1.00, 177.0, 601.7)">n</text><text xml:space="preserve" font-family="Monaco,Monaco" font-size="40.0" fill="#37DE1B" transform="matrix(1.00, 0.00, -0.00, -1.00, 201.0, 601.7)">v</text><text xml:space="preserve" font-family="Monaco,Monaco" font-size="40.0" fill="#37DE1B" transform="matrix(1.00, 0.00, -0.00, -1.00, 225.1, 601.7)">n</text><text xml:space="preserve" font-family="Monaco,Monaco" font-size="40.0" fill="#37DE1B" transform="matrix(1.00, 0.00, -0.00, -1.00, 249.1, 601.7)">t</text><text xml:space="preserve" font-family="Monaco,Monaco" font-size="40.0" fill="#37DE1B" transform="matrix(1.00, 0.00, -0.00, -1.00, 273.1, 601.7)">o</text><text xml:space="preserve" font-family="Monaco,Monaco" font-size="40.0" fill="#37DE1B" transform="matrix(1.00, 0.00, -0.00, -1.00, 297.1, 601.7)">r</text><text xml:space="preserve" font-family="Monaco,Monaco" font-size="40.0" fill="#37DE1B" transform="matrix(1.00, 0.00, -0.00, -1.00, 321.1, 601.7)">y</text><text xml:space="preserve" font-family="Monaco,Monaco" font-size="40.0" fill="#37DE1B" transform="matrix(1.00, 0.00, -0.00, -1.00, 345.1, 601.7)">.</text><text xml:space="preserve" font-family="Monaco,Monaco" font-size="40.0" fill="#37DE1B" transform="matrix(1.00, 0.00, -0.00, -1.00, 369.1, 601.7)">s</text><text xml:space="preserve" font-family="Monaco,Monaco" font-size="40.0" fill="#37DE1B" transform="matrix(1.00, 0.00, -0.00, -1.00, 393.1, 601.7)">h</text><text xml:space="preserve" font-family="Monaco,Monaco" font-size="40.0" fill="#37DE1B" transform="matrix(1.00, 0.00, -0.00, -1.00, 417.1, 601.7)"> </text><text xml:space="preserve" font-family="Monaco,Monaco" font-size="40.0" fill="#37DE1B" transform="matrix(1.00, 0.00, -0.00, -1.00, 441.1, 601.7)">|</text><text xml:space="preserve" font-family="Monaco,Monaco" font-size="40.0" fill="#37DE1B" transform="matrix(1.00, 0.00, -0.00, -1.00, 465.1, 601.7)"> </text><text xml:space="preserve" font-family="Monaco,Monaco" font-size="40.0" fill="#37DE1B" transform="matrix(1.00, 0.00, -0.00, -1.00, 489.1, 601.7)">t</text><text xml:space="preserve" font-family="Monaco,Monaco" font-size="40.0" fill="#37DE1B" transform="matrix(1.00, 0.00, -0.00, -1.00, 513.2, 601.7)">e</text><text xml:space="preserve" font-family="Monaco,Monaco" font-size="40.0" fill="#37DE1B" transform="matrix(1.00, 0.00, -0.00, -1.00, 537.2, 601.7)">e</text><text xml:space="preserve" font-family="Monaco,Monaco" font-size="40.0" fill="#37DE1B" transform="matrix(1.00, 0.00, -0.00, -1.00, 561.1, 601.7)"> </text><text xml:space="preserve" font-family="Monaco,Monaco" font-size="40.0" fill="#37DE1B" transform="matrix(1.00, 0.00, -0.00, -1.00, 57.0, 548.7)">i</text><text xml:space="preserve" font-family="Monaco,Monaco" font-size="40.0" fill="#37DE1B" transform="matrix(1.00, 0.00, -0.00, -1.00, 81.0, 548.7)">n</text><text xml:space="preserve" font-family="Monaco,Monaco" font-size="40.0" fill="#37DE1B" transform="matrix(1.00, 0.00, -0.00, -1.00, 105.0, 548.7)">v</text><text xml:space="preserve" font-family="Monaco,Monaco" font-size="40.0" fill="#37DE1B" transform="matrix(1.00, 0.00, -0.00, -1.00, 129.0, 548.7)">e</text><text xml:space="preserve" font-family="Monaco,Monaco" font-size="40.0" fill="#37DE1B" transform="matrix(1.00, 0.00, -0.00, -1.00, 153.0, 548.7)">n</text><text xml:space="preserve" font-family="Monaco,Monaco" font-size="40.0" fill="#37DE1B" transform="matrix(1.00, 0.00, -0.00, -1.00, 177.0, 548.7)">t</text><text xml:space="preserve" font-family="Monaco,Monaco" font-size="40.0" fill="#37DE1B" transform="matrix(1.00, 0.00, -0.00, -1.00, 201.0, 548.7)">o</text><text xml:space="preserve" font-family="Monaco,Monaco" font-size="40.0" fill="#37DE1B" transform="matrix(1.00, 0.00, -0.00, -1.00, 225.1, 548.7)">r</text><text xml:space="preserve" font-family="Monaco,Monaco" font-size="40.0" fill="#37DE1B" transform="matrix(1.00, 0.00, -0.00, -1.00, 249.1, 548.7)">y</text><text xml:space="preserve" font-family="Monaco,Monaco" font-size="40.0" fill="#37DE1B" transform="matrix(1.00, 0.00, -0.00, -1.00, 273.1, 548.7)">O</text><text xml:space="preserve" font-family="Monaco,Monaco" font-size="40.0" fill="#37DE1B" transform="matrix(1.00, 0.00, -0.00, -1.00, 297.1, 548.7)">u</text><text xml:space="preserve" font-family="Monaco,Monaco" font-size="40.0" fill="#37DE1B" transform="matrix(1.00, 0.00, -0.00, -1.00, 321.1, 548.7)">t</text><text xml:space="preserve" font-family="Monaco,Monaco" font-size="40.0" fill="#37DE1B" transform="matrix(1.00, 0.00, -0.00, -1.00, 345.1, 548.7)">p</text><text xml:space="preserve" font-family="Monaco,Monaco" font-size="40.0" fill="#37DE1B" transform="matrix(1.00, 0.00, -0.00, -1.00, 369.1, 548.7)">u</text><text xml:space="preserve" font-family="Monaco,Monaco" font-size="40.0" fill="#37DE1B" transform="matrix(1.00, 0.00, -0.00, -1.00, 393.1, 548.7)">t</text><text xml:space="preserve" font-family="Monaco,Monaco" font-size="40.0" fill="#37DE1B" transform="matrix(1.00, 0.00, -0.00, -1.00, 417.1, 548.7)">.</text><text xml:space="preserve" font-family="Monaco,Monaco" font-size="40.0" fill="#37DE1B" transform="matrix(1.00, 0.00, -0.00, -1.00, 441.1, 548.7)">t</text><text xml:space="preserve" font-family="Monaco,Monaco" font-size="40.0" fill="#37DE1B" transform="matrix(1.00, 0.00, -0.00, -1.00, 465.1, 548.7)">x</text><text xml:space="preserve" font-family="Monaco,Monaco" font-size="40.0" fill="#37DE1B" transform="matrix(1.00, 0.00, -0.00, -1.00, 489.1, 548.7)">t</text><text xml:space="preserve" font-family="Monaco,Monaco" font-size="40.0" fill="#37DE1B" transform="matrix(1.00, 0.00, -0.00, -1.00, 513.2, 548.7)">	</text><text xml:space="preserve" font-family="Monaco,Monaco" font-size="40.0" fill="#37DE1B" transform="matrix(1.00, 0.00, -0.00, -1.00, 57.0, 495.7)">S</text><text xml:space="preserve" font-family="Monaco,Monaco" font-size="40.0" fill="#37DE1B" transform="matrix(1.00, 0.00, -0.00, -1.00, 81.0, 495.7)">t</text><text xml:space="preserve" font-family="Monaco,Monaco" font-size="40.0" fill="#37DE1B" transform="matrix(1.00, 0.00, -0.00, -1.00, 105.0, 495.7)">a</text><text xml:space="preserve" font-family="Monaco,Monaco" font-size="40.0" fill="#37DE1B" transform="matrix(1.00, 0.00, -0.00, -1.00, 129.0, 495.7)">r</text><text xml:space="preserve" font-family="Monaco,Monaco" font-size="40.0" fill="#37DE1B" transform="matrix(1.00, 0.00, -0.00, -1.00, 153.0, 495.7)">t</text><text xml:space="preserve" font-family="Monaco,Monaco" font-size="40.0" fill="#37DE1B" transform="matrix(1.00, 0.00, -0.00, -1.00, 177.0, 495.7)">i</text><text xml:space="preserve" font-family="Monaco,Monaco" font-size="40.0" fill="#37DE1B" transform="matrix(1.00, 0.00, -0.00, -1.00, 201.0, 495.7)">n</text><text xml:space="preserve" font-family="Monaco,Monaco" font-size="40.0" fill="#37DE1B" transform="matrix(1.00, 0.00, -0.00, -1.00, 225.1, 495.7)">g</text><text xml:space="preserve" font-family="Monaco,Monaco" font-size="40.0" fill="#37DE1B" transform="matrix(1.00, 0.00, -0.00, -1.00, 249.1, 495.7)"> </text><text xml:space="preserve" font-family="Monaco,Monaco" font-size="40.0" fill="#37DE1B" transform="matrix(1.00, 0.00, -0.00, -1.00, 273.1, 495.7)">S</text><text xml:space="preserve" font-family="Monaco,Monaco" font-size="40.0" fill="#37DE1B" transform="matrix(1.00, 0.00, -0.00, -1.00, 297.1, 495.7)">c</text><text xml:space="preserve" font-family="Monaco,Monaco" font-size="40.0" fill="#37DE1B" transform="matrix(1.00, 0.00, -0.00, -1.00, 321.1, 495.7)">r</text><text xml:space="preserve" font-family="Monaco,Monaco" font-size="40.0" fill="#37DE1B" transform="matrix(1.00, 0.00, -0.00, -1.00, 345.1, 495.7)">i</text><text xml:space="preserve" font-family="Monaco,Monaco" font-size="40.0" fill="#37DE1B" transform="matrix(1.00, 0.00, -0.00, -1.00, 369.1, 495.7)">p</text><text xml:space="preserve" font-family="Monaco,Monaco" font-size="40.0" fill="#37DE1B" transform="matrix(1.00, 0.00, -0.00, -1.00, 393.1, 495.7)">t</text><text xml:space="preserve" font-family="Monaco,Monaco" font-size="40.0" fill="#37DE1B" transform="matrix(1.00, 0.00, -0.00, -1.00, 417.1, 495.7)"> </text><text xml:space="preserve" font-family="Monaco,Monaco" font-size="40.0" fill="#37DE1B" transform="matrix(1.00, 0.00, -0.00, -1.00, 441.1, 495.7)">I</text><text xml:space="preserve" font-family="Monaco,Monaco" font-size="40.0" fill="#37DE1B" transform="matrix(1.00, 0.00, -0.00, -1.00, 465.1, 495.7)">n</text><text xml:space="preserve" font-family="Monaco,Monaco" font-size="40.0" fill="#37DE1B" transform="matrix(1.00, 0.00, -0.00, -1.00, 489.1, 495.7)">v</text><text xml:space="preserve" font-family="Monaco,Monaco" font-size="40.0" fill="#37DE1B" transform="matrix(1.00, 0.00, -0.00, -1.00, 513.2, 495.7)">e</text><text xml:space="preserve" font-family="Monaco,Monaco" font-size="40.0" fill="#37DE1B" transform="matrix(1.00, 0.00, -0.00, -1.00, 537.2, 495.7)">n</text><text xml:space="preserve" font-family="Monaco,Monaco" font-size="40.0" fill="#37DE1B" transform="matrix(1.00, 0.00, -0.00, -1.00, 561.2, 495.7)">t</text><text xml:space="preserve" font-family="Monaco,Monaco" font-size="40.0" fill="#37DE1B" transform="matrix(1.00, 0.00, -0.00, -1.00, 585.2, 495.7)">o</text><text xml:space="preserve" font-family="Monaco,Monaco" font-size="40.0" fill="#37DE1B" transform="matrix(1.00, 0.00, -0.00, -1.00, 609.2, 495.7)">r</text><text xml:space="preserve" font-family="Monaco,Monaco" font-size="40.0" fill="#37DE1B" transform="matrix(1.00, 0.00, -0.00, -1.00, 633.2, 495.7)">y</text><text xml:space="preserve" font-family="Monaco,Monaco" font-size="40.0" fill="#37DE1B" transform="matrix(1.00, 0.00, -0.00, -1.00, 657.2, 495.7)"> </text><text xml:space="preserve" font-family="Monaco,Monaco" font-size="40.0" fill="#37DE1B" transform="matrix(1.00, 0.00, -0.00, -1.00, 681.2, 495.7)">S</text><text xml:space="preserve" font-family="Monaco,Monaco" font-size="40.0" fill="#37DE1B" transform="matrix(1.00, 0.00, -0.00, -1.00, 705.2, 495.7)">c</text><text xml:space="preserve" font-family="Monaco,Monaco" font-size="40.0" fill="#37DE1B" transform="matrix(1.00, 0.00, -0.00, -1.00, 729.2, 495.7)">r</text><text xml:space="preserve" font-family="Monaco,Monaco" font-size="40.0" fill="#37DE1B" transform="matrix(1.00, 0.00, -0.00, -1.00, 753.2, 495.7)">i</text><text xml:space="preserve" font-family="Monaco,Monaco" font-size="40.0" fill="#37DE1B" transform="matrix(1.00, 0.00, -0.00, -1.00, 777.2, 495.7)">p</text><text xml:space="preserve" font-family="Monaco,Monaco" font-size="40.0" fill="#37DE1B" transform="matrix(1.00, 0.00, -0.00, -1.00, 801.2, 495.7)">t</text><text xml:space="preserve" font-family="Monaco,Monaco" font-size="40.0" fill="#37DE1B" transform="matrix(1.00, 0.00, -0.00, -1.00, 825.3, 495.7)"> </text><text xml:space="preserve" font-family="Monaco,Monaco" font-size="40.0" fill="#37DE1B" transform="matrix(1.00, 0.00, -0.00, -1.00, 849.3, 495.7)">1</text><text xml:space="preserve" font-family="Monaco,Monaco" font-size="40.0" fill="#37DE1B" transform="matrix(1.00, 0.00, -0.00, -1.00, 873.3, 495.7)">.</text><text xml:space="preserve" font-family="Monaco,Monaco" font-size="40.0" fill="#37DE1B" transform="matrix(1.00, 0.00, -0.00, -1.00, 897.3, 495.7)">0</text><text xml:space="preserve" font-family="Monaco,Monaco" font-size="40.0" fill="#37DE1B" transform="matrix(1.00, 0.00, -0.00, -1.00, 921.3, 495.7)">	</text><text xml:space="preserve" font-family="Monaco,Monaco" font-size="40.0" fill="#37DE1B" transform="matrix(1.00, 0.00, -0.00, -1.00, 57.0, 442.7)">D</text><text xml:space="preserve" font-family="Monaco,Monaco" font-size="40.0" fill="#37DE1B" transform="matrix(1.00, 0.00, -0.00, -1.00, 81.0, 442.7)">H</text><text xml:space="preserve" font-family="Monaco,Monaco" font-size="40.0" fill="#37DE1B" transform="matrix(1.00, 0.00, -0.00, -1.00, 105.0, 442.7)">C</text><text xml:space="preserve" font-family="Monaco,Monaco" font-size="40.0" fill="#37DE1B" transform="matrix(1.00, 0.00, -0.00, -1.00, 129.0, 442.7)">P</text><text xml:space="preserve" font-family="Monaco,Monaco" font-size="40.0" fill="#37DE1B" transform="matrix(1.00, 0.00, -0.00, -1.00, 153.0, 442.7)"> </text><text xml:space="preserve" font-family="Monaco,Monaco" font-size="40.0" fill="#37DE1B" transform="matrix(1.00, 0.00, -0.00, -1.00, 177.0, 442.7)">C</text><text xml:space="preserve" font-family="Monaco,Monaco" font-size="40.0" fill="#37DE1B" transform="matrix(1.00, 0.00, -0.00, -1.00, 201.0, 442.7)">o</text><text xml:space="preserve" font-family="Monaco,Monaco" font-size="40.0" fill="#37DE1B" transform="matrix(1.00, 0.00, -0.00, -1.00, 225.1, 442.7)">n</text><text xml:space="preserve" font-family="Monaco,Monaco" font-size="40.0" fill="#37DE1B" transform="matrix(1.00, 0.00, -0.00, -1.00, 249.1, 442.7)">f</text><text xml:space="preserve" font-family="Monaco,Monaco" font-size="40.0" fill="#37DE1B" transform="matrix(1.00, 0.00, -0.00, -1.00, 273.1, 442.7)">i</text><text xml:space="preserve" font-family="Monaco,Monaco" font-size="40.0" fill="#37DE1B" transform="matrix(1.00, 0.00, -0.00, -1.00, 297.1, 442.7)">g</text><text xml:space="preserve" font-family="Monaco,Monaco" font-size="40.0" fill="#37DE1B" transform="matrix(1.00, 0.00, -0.00, -1.00, 321.1, 442.7)">u</text><text xml:space="preserve" font-family="Monaco,Monaco" font-size="40.0" fill="#37DE1B" transform="matrix(1.00, 0.00, -0.00, -1.00, 345.1, 442.7)">r</text><text xml:space="preserve" font-family="Monaco,Monaco" font-size="40.0" fill="#37DE1B" transform="matrix(1.00, 0.00, -0.00, -1.00, 369.1, 442.7)">a</text><text xml:space="preserve" font-family="Monaco,Monaco" font-size="40.0" fill="#37DE1B" transform="matrix(1.00, 0.00, -0.00, -1.00, 393.1, 442.7)">t</text><text xml:space="preserve" font-family="Monaco,Monaco" font-size="40.0" fill="#37DE1B" transform="matrix(1.00, 0.00, -0.00, -1.00, 417.1, 442.7)">i</text><text xml:space="preserve" font-family="Monaco,Monaco" font-size="40.0" fill="#37DE1B" transform="matrix(1.00, 0.00, -0.00, -1.00, 441.1, 442.7)">o</text><text xml:space="preserve" font-family="Monaco,Monaco" font-size="40.0" fill="#37DE1B" transform="matrix(1.00, 0.00, -0.00, -1.00, 465.1, 442.7)">n</text><text xml:space="preserve" font-family="Monaco,Monaco" font-size="40.0" fill="#37DE1B" transform="matrix(1.00, 0.00, -0.00, -1.00, 489.1, 442.7)">	</text><text xml:space="preserve" font-family="Monaco,Monaco" font-size="40.0" fill="#37DE1B" transform="matrix(1.00, 0.00, -0.00, -1.00, 57.0, 389.7)">I</text><text xml:space="preserve" font-family="Monaco,Monaco" font-size="40.0" fill="#37DE1B" transform="matrix(1.00, 0.00, -0.00, -1.00, 81.0, 389.7)">P</text><text xml:space="preserve" font-family="Monaco,Monaco" font-size="40.0" fill="#37DE1B" transform="matrix(1.00, 0.00, -0.00, -1.00, 105.0, 389.7)"> </text><text xml:space="preserve" font-family="Monaco,Monaco" font-size="40.0" fill="#37DE1B" transform="matrix(1.00, 0.00, -0.00, -1.00, 129.0, 389.7)">a</text><text xml:space="preserve" font-family="Monaco,Monaco" font-size="40.0" fill="#37DE1B" transform="matrix(1.00, 0.00, -0.00, -1.00, 153.0, 389.7)">d</text><text xml:space="preserve" font-family="Monaco,Monaco" font-size="40.0" fill="#37DE1B" transform="matrix(1.00, 0.00, -0.00, -1.00, 177.0, 389.7)">d</text><text xml:space="preserve" font-family="Monaco,Monaco" font-size="40.0" fill="#37DE1B" transform="matrix(1.00, 0.00, -0.00, -1.00, 201.0, 389.7)">r</text><text xml:space="preserve" font-family="Monaco,Monaco" font-size="40.0" fill="#37DE1B" transform="matrix(1.00, 0.00, -0.00, -1.00, 225.1, 389.7)">e</text><text xml:space="preserve" font-family="Monaco,Monaco" font-size="40.0" fill="#37DE1B" transform="matrix(1.00, 0.00, -0.00, -1.00, 249.1, 389.7)">s</text><text xml:space="preserve" font-family="Monaco,Monaco" font-size="40.0" fill="#37DE1B" transform="matrix(1.00, 0.00, -0.00, -1.00, 273.1, 389.7)">s</text><text xml:space="preserve" font-family="Monaco,Monaco" font-size="40.0" fill="#37DE1B" transform="matrix(1.00, 0.00, -0.00, -1.00, 297.1, 389.7)">:</text><text xml:space="preserve" font-family="Monaco,Monaco" font-size="40.0" fill="#37DE1B" transform="matrix(1.00, 0.00, -0.00, -1.00, 321.1, 389.7)"> </text><text xml:space="preserve" font-family="Monaco,Monaco" font-size="40.0" fill="#37DE1B" transform="matrix(1.00, 0.00, -0.00, -1.00, 345.1, 389.7)">1</text><text xml:space="preserve" font-family="Monaco,Monaco" font-size="40.0" fill="#37DE1B" transform="matrix(1.00, 0.00, -0.00, -1.00, 369.1, 389.7)">9</text><text xml:space="preserve" font-family="Monaco,Monaco" font-size="40.0" fill="#37DE1B" transform="matrix(1.00, 0.00, -0.00, -1.00, 393.1, 389.7)">2</text><text xml:space="preserve" font-family="Monaco,Monaco" font-size="40.0" fill="#37DE1B" transform="matrix(1.00, 0.00, -0.00, -1.00, 417.1, 389.7)">.</text><text xml:space="preserve" font-family="Monaco,Monaco" font-size="40.0" fill="#37DE1B" transform="matrix(1.00, 0.00, -0.00, -1.00, 441.1, 389.7)">1</text><text xml:space="preserve" font-family="Monaco,Monaco" font-size="40.0" fill="#37DE1B" transform="matrix(1.00, 0.00, -0.00, -1.00, 465.1, 389.7)">6</text><text xml:space="preserve" font-family="Monaco,Monaco" font-size="40.0" fill="#37DE1B" transform="matrix(1.00, 0.00, -0.00, -1.00, 489.1, 389.7)">8</text><text xml:space="preserve" font-family="Monaco,Monaco" font-size="40.0" fill="#37DE1B" transform="matrix(1.00, 0.00, -0.00, -1.00, 513.2, 389.7)">.</text><text xml:space="preserve" font-family="Monaco,Monaco" font-size="40.0" fill="#37DE1B" transform="matrix(1.00, 0.00, -0.00, -1.00, 537.2, 389.7)">4</text><text xml:space="preserve" font-family="Monaco,Monaco" font-size="40.0" fill="#37DE1B" transform="matrix(1.00, 0.00, -0.00, -1.00, 561.2, 389.7)">.</text><text xml:space="preserve" font-family="Monaco,Monaco" font-size="40.0" fill="#37DE1B" transform="matrix(1.00, 0.00, -0.00, -1.00, 585.2, 389.7)">5</text><text xml:space="preserve" font-family="Monaco,Monaco" font-size="40.0" fill="#37DE1B" transform="matrix(1.00, 0.00, -0.00, -1.00, 609.2, 389.7)">5</text><text xml:space="preserve" font-family="Monaco,Monaco" font-size="40.0" fill="#37DE1B" transform="matrix(1.00, 0.00, -0.00, -1.00, 633.2, 389.7)">	</text><text xml:space="preserve" font-family="Monaco,Monaco" font-size="40.0" fill="#37DE1B" transform="matrix(1.00, 0.00, -0.00, -1.00, 57.0, 283.7)">$</text><text xml:space="preserve" font-family="Monaco,Monaco" font-size="40.0" fill="#37DE1B" transform="matrix(1.00, 0.00, -0.00, -1.00, 81.0, 283.7)"> </text><text xml:space="preserve" font-family="Monaco,Monaco" font-size="40.0" fill="#37DE1B" transform="matrix(1.00, 0.00, -0.00, -1.00, 105.0, 283.7)">c</text><text xml:space="preserve" font-family="Monaco,Monaco" font-size="40.0" fill="#37DE1B" transform="matrix(1.00, 0.00, -0.00, -1.00, 129.0, 283.7)">a</text><text xml:space="preserve" font-family="Monaco,Monaco" font-size="40.0" fill="#37DE1B" transform="matrix(1.00, 0.00, -0.00, -1.00, 153.0, 283.7)">t</text><text xml:space="preserve" font-family="Monaco,Monaco" font-size="40.0" fill="#37DE1B" transform="matrix(1.00, 0.00, -0.00, -1.00, 177.0, 283.7)"> </text><text xml:space="preserve" font-family="Monaco,Monaco" font-size="40.0" fill="#37DE1B" transform="matrix(1.00, 0.00, -0.00, -1.00, 201.0, 283.7)">i</text><text xml:space="preserve" font-family="Monaco,Monaco" font-size="40.0" fill="#37DE1B" transform="matrix(1.00, 0.00, -0.00, -1.00, 225.1, 283.7)">n</text><text xml:space="preserve" font-family="Monaco,Monaco" font-size="40.0" fill="#37DE1B" transform="matrix(1.00, 0.00, -0.00, -1.00, 249.1, 283.7)">v</text><text xml:space="preserve" font-family="Monaco,Monaco" font-size="40.0" fill="#37DE1B" transform="matrix(1.00, 0.00, -0.00, -1.00, 273.1, 283.7)">e</text><text xml:space="preserve" font-family="Monaco,Monaco" font-size="40.0" fill="#37DE1B" transform="matrix(1.00, 0.00, -0.00, -1.00, 297.1, 283.7)">n</text><text xml:space="preserve" font-family="Monaco,Monaco" font-size="40.0" fill="#37DE1B" transform="matrix(1.00, 0.00, -0.00, -1.00, 321.1, 283.7)">t</text><text xml:space="preserve" font-family="Monaco,Monaco" font-size="40.0" fill="#37DE1B" transform="matrix(1.00, 0.00, -0.00, -1.00, 345.1, 283.7)">o</text><text xml:space="preserve" font-family="Monaco,Monaco" font-size="40.0" fill="#37DE1B" transform="matrix(1.00, 0.00, -0.00, -1.00, 369.1, 283.7)">r</text><text xml:space="preserve" font-family="Monaco,Monaco" font-size="40.0" fill="#37DE1B" transform="matrix(1.00, 0.00, -0.00, -1.00, 393.1, 283.7)">y</text><text xml:space="preserve" font-family="Monaco,Monaco" font-size="40.0" fill="#37DE1B" transform="matrix(1.00, 0.00, -0.00, -1.00, 417.1, 283.7)">O</text><text xml:space="preserve" font-family="Monaco,Monaco" font-size="40.0" fill="#37DE1B" transform="matrix(1.00, 0.00, -0.00, -1.00, 441.1, 283.7)">u</text><text xml:space="preserve" font-family="Monaco,Monaco" font-size="40.0" fill="#37DE1B" transform="matrix(1.00, 0.00, -0.00, -1.00, 465.1, 283.7)">t</text><text xml:space="preserve" font-family="Monaco,Monaco" font-size="40.0" fill="#37DE1B" transform="matrix(1.00, 0.00, -0.00, -1.00, 489.1, 283.7)">p</text><text xml:space="preserve" font-family="Monaco,Monaco" font-size="40.0" fill="#37DE1B" transform="matrix(1.00, 0.00, -0.00, -1.00, 513.2, 283.7)">u</text><text xml:space="preserve" font-family="Monaco,Monaco" font-size="40.0" fill="#37DE1B" transform="matrix(1.00, 0.00, -0.00, -1.00, 537.2, 283.7)">t</text><text xml:space="preserve" font-family="Monaco,Monaco" font-size="40.0" fill="#37DE1B" transform="matrix(1.00, 0.00, -0.00, -1.00, 561.2, 283.7)">.</text><text xml:space="preserve" font-family="Monaco,Monaco" font-size="40.0" fill="#37DE1B" transform="matrix(1.00, 0.00, -0.00, -1.00, 585.2, 283.7)">t</text><text xml:space="preserve" font-family="Monaco,Monaco" font-size="40.0" fill="#37DE1B" transform="matrix(1.00, 0.00, -0.00, -1.00, 609.2, 283.7)">x</text><text xml:space="preserve" font-family="Monaco,Monaco" font-size="40.0" fill="#37DE1B" transform="matrix(1.00, 0.00, -0.00, -1.00, 633.2, 283.7)">t</text><text xml:space="preserve" font-family="Monaco,Monaco" font-size="40.0" fill="#37DE1B" transform="matrix(1.00, 0.00, -0.00, -1.00, 657.2, 283.7)"> </text><text xml:space="preserve" font-family="Monaco,Monaco" font-size="40.0" fill="#37DE1B" transform="matrix(1.00, 0.00, -0.00, -1.00, 681.2, 283.7)">	</text><text xml:space="preserve" font-family="Monaco,Monaco" font-size="40.0" fill="#37DE1B" transform="matrix(1.00, 0.00, -0.00, -1.00, 57.0, 230.7)">S</text><text xml:space="preserve" font-family="Monaco,Monaco" font-size="40.0" fill="#37DE1B" transform="matrix(1.00, 0.00, -0.00, -1.00, 81.0, 230.7)">t</text><text xml:space="preserve" font-family="Monaco,Monaco" font-size="40.0" fill="#37DE1B" transform="matrix(1.00, 0.00, -0.00, -1.00, 105.0, 230.7)">a</text><text xml:space="preserve" font-family="Monaco,Monaco" font-size="40.0" fill="#37DE1B" transform="matrix(1.00, 0.00, -0.00, -1.00, 129.0, 230.7)">r</text><text xml:space="preserve" font-family="Monaco,Monaco" font-size="40.0" fill="#37DE1B" transform="matrix(1.00, 0.00, -0.00, -1.00, 153.0, 230.7)">t</text><text xml:space="preserve" font-family="Monaco,Monaco" font-size="40.0" fill="#37DE1B" transform="matrix(1.00, 0.00, -0.00, -1.00, 177.0, 230.7)">i</text><text xml:space="preserve" font-family="Monaco,Monaco" font-size="40.0" fill="#37DE1B" transform="matrix(1.00, 0.00, -0.00, -1.00, 201.0, 230.7)">n</text><text xml:space="preserve" font-family="Monaco,Monaco" font-size="40.0" fill="#37DE1B" transform="matrix(1.00, 0.00, -0.00, -1.00, 225.1, 230.7)">g</text><text xml:space="preserve" font-family="Monaco,Monaco" font-size="40.0" fill="#37DE1B" transform="matrix(1.00, 0.00, -0.00, -1.00, 249.1, 230.7)"> </text><text xml:space="preserve" font-family="Monaco,Monaco" font-size="40.0" fill="#37DE1B" transform="matrix(1.00, 0.00, -0.00, -1.00, 273.1, 230.7)">S</text><text xml:space="preserve" font-family="Monaco,Monaco" font-size="40.0" fill="#37DE1B" transform="matrix(1.00, 0.00, -0.00, -1.00, 297.1, 230.7)">c</text><text xml:space="preserve" font-family="Monaco,Monaco" font-size="40.0" fill="#37DE1B" transform="matrix(1.00, 0.00, -0.00, -1.00, 321.1, 230.7)">r</text><text xml:space="preserve" font-family="Monaco,Monaco" font-size="40.0" fill="#37DE1B" transform="matrix(1.00, 0.00, -0.00, -1.00, 345.1, 230.7)">i</text><text xml:space="preserve" font-family="Monaco,Monaco" font-size="40.0" fill="#37DE1B" transform="matrix(1.00, 0.00, -0.00, -1.00, 369.1, 230.7)">p</text><text xml:space="preserve" font-family="Monaco,Monaco" font-size="40.0" fill="#37DE1B" transform="matrix(1.00, 0.00, -0.00, -1.00, 393.1, 230.7)">t</text><text xml:space="preserve" font-family="Monaco,Monaco" font-size="40.0" fill="#37DE1B" transform="matrix(1.00, 0.00, -0.00, -1.00, 417.1, 230.7)"> </text><text xml:space="preserve" font-family="Monaco,Monaco" font-size="40.0" fill="#37DE1B" transform="matrix(1.00, 0.00, -0.00, -1.00, 441.1, 230.7)">I</text><text xml:space="preserve" font-family="Monaco,Monaco" font-size="40.0" fill="#37DE1B" transform="matrix(1.00, 0.00, -0.00, -1.00, 465.1, 230.7)">n</text><text xml:space="preserve" font-family="Monaco,Monaco" font-size="40.0" fill="#37DE1B" transform="matrix(1.00, 0.00, -0.00, -1.00, 489.1, 230.7)">v</text><text xml:space="preserve" font-family="Monaco,Monaco" font-size="40.0" fill="#37DE1B" transform="matrix(1.00, 0.00, -0.00, -1.00, 513.2, 230.7)">e</text><text xml:space="preserve" font-family="Monaco,Monaco" font-size="40.0" fill="#37DE1B" transform="matrix(1.00, 0.00, -0.00, -1.00, 537.2, 230.7)">n</text><text xml:space="preserve" font-family="Monaco,Monaco" font-size="40.0" fill="#37DE1B" transform="matrix(1.00, 0.00, -0.00, -1.00, 561.2, 230.7)">t</text><text xml:space="preserve" font-family="Monaco,Monaco" font-size="40.0" fill="#37DE1B" transform="matrix(1.00, 0.00, -0.00, -1.00, 585.2, 230.7)">o</text><text xml:space="preserve" font-family="Monaco,Monaco" font-size="40.0" fill="#37DE1B" transform="matrix(1.00, 0.00, -0.00, -1.00, 609.2, 230.7)">r</text><text xml:space="preserve" font-family="Monaco,Monaco" font-size="40.0" fill="#37DE1B" transform="matrix(1.00, 0.00, -0.00, -1.00, 633.2, 230.7)">y</text><text xml:space="preserve" font-family="Monaco,Monaco" font-size="40.0" fill="#37DE1B" transform="matrix(1.00, 0.00, -0.00, -1.00, 657.2, 230.7)"> </text><text xml:space="preserve" font-family="Monaco,Monaco" font-size="40.0" fill="#37DE1B" transform="matrix(1.00, 0.00, -0.00, -1.00, 681.2, 230.7)">S</text><text xml:space="preserve" font-family="Monaco,Monaco" font-size="40.0" fill="#37DE1B" transform="matrix(1.00, 0.00, -0.00, -1.00, 705.2, 230.7)">c</text><text xml:space="preserve" font-family="Monaco,Monaco" font-size="40.0" fill="#37DE1B" transform="matrix(1.00, 0.00, -0.00, -1.00, 729.2, 230.7)">r</text><text xml:space="preserve" font-family="Monaco,Monaco" font-size="40.0" fill="#37DE1B" transform="matrix(1.00, 0.00, -0.00, -1.00, 753.2, 230.7)">i</text><text xml:space="preserve" font-family="Monaco,Monaco" font-size="40.0" fill="#37DE1B" transform="matrix(1.00, 0.00, -0.00, -1.00, 777.2, 230.7)">p</text><text xml:space="preserve" font-family="Monaco,Monaco" font-size="40.0" fill="#37DE1B" transform="matrix(1.00, 0.00, -0.00, -1.00, 801.2, 230.7)">t</text><text xml:space="preserve" font-family="Monaco,Monaco" font-size="40.0" fill="#37DE1B" transform="matrix(1.00, 0.00, -0.00, -1.00, 825.3, 230.7)"> </text><text xml:space="preserve" font-family="Monaco,Monaco" font-size="40.0" fill="#37DE1B" transform="matrix(1.00, 0.00, -0.00, -1.00, 849.3, 230.7)">1</text><text xml:space="preserve" font-family="Monaco,Monaco" font-size="40.0" fill="#37DE1B" transform="matrix(1.00, 0.00, -0.00, -1.00, 873.3, 230.7)">.</text><text xml:space="preserve" font-family="Monaco,Monaco" font-size="40.0" fill="#37DE1B" transform="matrix(1.00, 0.00, -0.00, -1.00, 897.3, 230.7)">0</text><text xml:space="preserve" font-family="Monaco,Monaco" font-size="40.0" fill="#37DE1B" transform="matrix(1.00, 0.00, -0.00, -1.00, 921.3, 230.7)">	</text><text xml:space="preserve" font-family="Monaco,Monaco" font-size="40.0" fill="#37DE1B" transform="matrix(1.00, 0.00, -0.00, -1.00, 57.0, 177.7)">D</text><text xml:space="preserve" font-family="Monaco,Monaco" font-size="40.0" fill="#37DE1B" transform="matrix(1.00, 0.00, -0.00, -1.00, 81.0, 177.7)">H</text><text xml:space="preserve" font-family="Monaco,Monaco" font-size="40.0" fill="#37DE1B" transform="matrix(1.00, 0.00, -0.00, -1.00, 105.0, 177.7)">C</text><text xml:space="preserve" font-family="Monaco,Monaco" font-size="40.0" fill="#37DE1B" transform="matrix(1.00, 0.00, -0.00, -1.00, 129.0, 177.7)">P</text><text xml:space="preserve" font-family="Monaco,Monaco" font-size="40.0" fill="#37DE1B" transform="matrix(1.00, 0.00, -0.00, -1.00, 153.0, 177.7)"> </text><text xml:space="preserve" font-family="Monaco,Monaco" font-size="40.0" fill="#37DE1B" transform="matrix(1.00, 0.00, -0.00, -1.00, 177.0, 177.7)">C</text><text xml:space="preserve" font-family="Monaco,Monaco" font-size="40.0" fill="#37DE1B" transform="matrix(1.00, 0.00, -0.00, -1.00, 201.0, 177.7)">o</text><text xml:space="preserve" font-family="Monaco,Monaco" font-size="40.0" fill="#37DE1B" transform="matrix(1.00, 0.00, -0.00, -1.00, 225.1, 177.7)">n</text><text xml:space="preserve" font-family="Monaco,Monaco" font-size="40.0" fill="#37DE1B" transform="matrix(1.00, 0.00, -0.00, -1.00, 249.1, 177.7)">f</text><text xml:space="preserve" font-family="Monaco,Monaco" font-size="40.0" fill="#37DE1B" transform="matrix(1.00, 0.00, -0.00, -1.00, 273.1, 177.7)">i</text><text xml:space="preserve" font-family="Monaco,Monaco" font-size="40.0" fill="#37DE1B" transform="matrix(1.00, 0.00, -0.00, -1.00, 297.1, 177.7)">g</text><text xml:space="preserve" font-family="Monaco,Monaco" font-size="40.0" fill="#37DE1B" transform="matrix(1.00, 0.00, -0.00, -1.00, 321.1, 177.7)">u</text><text xml:space="preserve" font-family="Monaco,Monaco" font-size="40.0" fill="#37DE1B" transform="matrix(1.00, 0.00, -0.00, -1.00, 345.1, 177.7)">r</text><text xml:space="preserve" font-family="Monaco,Monaco" font-size="40.0" fill="#37DE1B" transform="matrix(1.00, 0.00, -0.00, -1.00, 369.1, 177.7)">a</text><text xml:space="preserve" font-family="Monaco,Monaco" font-size="40.0" fill="#37DE1B" transform="matrix(1.00, 0.00, -0.00, -1.00, 393.1, 177.7)">t</text><text xml:space="preserve" font-family="Monaco,Monaco" font-size="40.0" fill="#37DE1B" transform="matrix(1.00, 0.00, -0.00, -1.00, 417.1, 177.7)">i</text><text xml:space="preserve" font-family="Monaco,Monaco" font-size="40.0" fill="#37DE1B" transform="matrix(1.00, 0.00, -0.00, -1.00, 441.1, 177.7)">o</text><text xml:space="preserve" font-family="Monaco,Monaco" font-size="40.0" fill="#37DE1B" transform="matrix(1.00, 0.00, -0.00, -1.00, 465.1, 177.7)">n</text><text xml:space="preserve" font-family="Monaco,Monaco" font-size="40.0" fill="#37DE1B" transform="matrix(1.00, 0.00, -0.00, -1.00, 489.1, 177.7)">	</text><text xml:space="preserve" font-family="Monaco,Monaco" font-size="40.0" fill="#37DE1B" transform="matrix(1.00, 0.00, -0.00, -1.00, 57.0, 124.7)">I</text><text xml:space="preserve" font-family="Monaco,Monaco" font-size="40.0" fill="#37DE1B" transform="matrix(1.00, 0.00, -0.00, -1.00, 81.0, 124.7)">P</text><text xml:space="preserve" font-family="Monaco,Monaco" font-size="40.0" fill="#37DE1B" transform="matrix(1.00, 0.00, -0.00, -1.00, 105.0, 124.7)"> </text><text xml:space="preserve" font-family="Monaco,Monaco" font-size="40.0" fill="#37DE1B" transform="matrix(1.00, 0.00, -0.00, -1.00, 129.0, 124.7)">a</text><text xml:space="preserve" font-family="Monaco,Monaco" font-size="40.0" fill="#37DE1B" transform="matrix(1.00, 0.00, -0.00, -1.00, 153.0, 124.7)">d</text><text xml:space="preserve" font-family="Monaco,Monaco" font-size="40.0" fill="#37DE1B" transform="matrix(1.00, 0.00, -0.00, -1.00, 177.0, 124.7)">d</text><text xml:space="preserve" font-family="Monaco,Monaco" font-size="40.0" fill="#37DE1B" transform="matrix(1.00, 0.00, -0.00, -1.00, 201.0, 124.7)">r</text><text xml:space="preserve" font-family="Monaco,Monaco" font-size="40.0" fill="#37DE1B" transform="matrix(1.00, 0.00, -0.00, -1.00, 225.1, 124.7)">e</text><text xml:space="preserve" font-family="Monaco,Monaco" font-size="40.0" fill="#37DE1B" transform="matrix(1.00, 0.00, -0.00, -1.00, 249.1, 124.7)">s</text><text xml:space="preserve" font-family="Monaco,Monaco" font-size="40.0" fill="#37DE1B" transform="matrix(1.00, 0.00, -0.00, -1.00, 273.1, 124.7)">s</text><text xml:space="preserve" font-family="Monaco,Monaco" font-size="40.0" fill="#37DE1B" transform="matrix(1.00, 0.00, -0.00, -1.00, 297.1, 124.7)">:</text><text xml:space="preserve" font-family="Monaco,Monaco" font-size="40.0" fill="#37DE1B" transform="matrix(1.00, 0.00, -0.00, -1.00, 321.1, 124.7)"> </text><text xml:space="preserve" font-family="Monaco,Monaco" font-size="40.0" fill="#37DE1B" transform="matrix(1.00, 0.00, -0.00, -1.00, 345.1, 124.7)">1</text><text xml:space="preserve" font-family="Monaco,Monaco" font-size="40.0" fill="#37DE1B" transform="matrix(1.00, 0.00, -0.00, -1.00, 369.1, 124.7)">9</text><text xml:space="preserve" font-family="Monaco,Monaco" font-size="40.0" fill="#37DE1B" transform="matrix(1.00, 0.00, -0.00, -1.00, 393.1, 124.7)">2</text><text xml:space="preserve" font-family="Monaco,Monaco" font-size="40.0" fill="#37DE1B" transform="matrix(1.00, 0.00, -0.00, -1.00, 417.1, 124.7)">.</text><text xml:space="preserve" font-family="Monaco,Monaco" font-size="40.0" fill="#37DE1B" transform="matrix(1.00, 0.00, -0.00, -1.00, 441.1, 124.7)">1</text><text xml:space="preserve" font-family="Monaco,Monaco" font-size="40.0" fill="#37DE1B" transform="matrix(1.00, 0.00, -0.00, -1.00, 465.1, 124.7)">6</text><text xml:space="preserve" font-family="Monaco,Monaco" font-size="40.0" fill="#37DE1B" transform="matrix(1.00, 0.00, -0.00, -1.00, 489.1, 124.7)">8</text><text xml:space="preserve" font-family="Monaco,Monaco" font-size="40.0" fill="#37DE1B" transform="matrix(1.00, 0.00, -0.00, -1.00, 513.2, 124.7)">.</text><text xml:space="preserve" font-family="Monaco,Monaco" font-size="40.0" fill="#37DE1B" transform="matrix(1.00, 0.00, -0.00, -1.00, 537.2, 124.7)">4</text><text xml:space="preserve" font-family="Monaco,Monaco" font-size="40.0" fill="#37DE1B" transform="matrix(1.00, 0.00, -0.00, -1.00, 561.2, 124.7)">.</text><text xml:space="preserve" font-family="Monaco,Monaco" font-size="40.0" fill="#37DE1B" transform="matrix(1.00, 0.00, -0.00, -1.00, 585.2, 124.7)">5</text><text xml:space="preserve" font-family="Monaco,Monaco" font-size="40.0" fill="#37DE1B" transform="matrix(1.00, 0.00, -0.00, -1.00, 609.2, 124.7)">5</text></g></svg>