<?xml version="1.0" encoding="UTF-8" standalone="no"?><svg xmlns="http://www.w3.org/2000/svg" xmlns:xlink="http://www.w3.org/1999/xlink" clip-rule="evenodd" stroke-miterlimit="10" viewBox="0 0 1024 768"><desc>SVG generated by Keynote</desc><defs></defs><g transform="matrix(1.00, 0.00, -0.00, -1.00, 0.0, 768.0)"><path d="M 0.0 768.0 L 1024.0 768.0 L 1024.0 0.0 L 0.0 0.0 Z M 0.0 768.0 " fill="#000000"></path><image xlink:href="../../ACF26528-510F-4087-92A7-D9431E4A7675/assets/C07D05C049E9C3A813AD52BFC7182A2D.png" width="983.00" height="584.00" transform="matrix(1.00, 0.00, -0.00, -1.00, 10.2, 664.7)" opacity="0.75"></image><image xlink:href="../../ACF26528-510F-4087-92A7-D9431E4A7675/assets/B8B89F8D2E49298F363D8341A9D067FB.png" width="963.00" height="564.00" transform="matrix(1.00, 0.00, -0.00, -1.00, 30.0, 666.0)"></image><text xml:space="preserve" font-family="LucidaGrande,Lucida Grande" font-size="22.0" fill="#FEFFFE" transform="matrix(1.00, 0.00, -0.00, -1.00, 332.4, 11.6)">F</text><text xml:space="preserve" font-family="LucidaGrande,Lucida Grande" font-size="22.0" fill="#FEFFFE" transform="matrix(1.00, 0.00, -0.00, -1.00, 344.2, 11.6)">e</text><text xml:space="preserve" font-family="LucidaGrande,Lucida Grande" font-size="22.0" fill="#FEFFFE" transform="matrix(1.00, 0.00, -0.00, -1.00, 356.4, 11.6)">e</text><text xml:space="preserve" font-family="LucidaGrande,Lucida Grande" font-size="22.0" fill="#FEFFFE" transform="matrix(1.00, 0.00, -0.00, -1.00, 368.7, 11.6)">d</text><text xml:space="preserve" font-family="LucidaGrande,Lucida Grande" font-size="22.0" fill="#FEFFFE" transform="matrix(1.00, 0.00, -0.00, -1.00, 382.5, 11.6)">b</text><text xml:space="preserve" font-family="LucidaGrande,Lucida Grande" font-size="22.0" fill="#FEFFFE" transform="matrix(1.00, 0.00, -0.00, -1.00, 396.4, 11.6)">a</text><text xml:space="preserve" font-family="LucidaGrande,Lucida Grande" font-size="22.0" fill="#FEFFFE" transform="matrix(1.00, 0.00, -0.00, -1.00, 408.5, 11.6)">c</text><text xml:space="preserve" font-family="LucidaGrande,Lucida Grande" font-size="22.0" fill="#FEFFFE" transform="matrix(1.00, 0.00, -0.00, -1.00, 419.8, 11.6)">k</text><text xml:space="preserve" font-family="LucidaGrande,Lucida Grande" font-size="22.0" fill="#FEFFFE" transform="matrix(1.00, 0.00, -0.00, -1.00, 432.7, 11.6)">:</text><text xml:space="preserve" font-family="LucidaGrande,Lucida Grande" font-size="22.0" fill="#FEFFFE" transform="matrix(1.00, 0.00, -0.00, -1.00, 439.6, 11.6)"> </text><text xml:space="preserve" font-family="LucidaGrande,Lucida Grande" font-size="22.0" fill="#FEFFFE" transform="matrix(1.00, 0.00, -0.00, -1.00, 446.6, 11.6)">h</text><text xml:space="preserve" font-family="LucidaGrande,Lucida Grande" font-size="22.0" fill="#FEFFFE" transform="matrix(1.00, 0.00, -0.00, -1.00, 460.2, 11.6)">t</text><text xml:space="preserve" font-family="LucidaGrande,Lucida Grande" font-size="22.0" fill="#FEFFFE" transform="matrix(1.00, 0.00, -0.00, -1.00, 468.4, 11.6)">t</text><text xml:space="preserve" font-family="LucidaGrande,Lucida Grande" font-size="22.0" fill="#FEFFFE" transform="matrix(1.00, 0.00, -0.00, -1.00, 476.7, 11.6)">p</text><text xml:space="preserve" font-family="LucidaGrande,Lucida Grande" font-size="22.0" fill="#FEFFFE" transform="matrix(1.00, 0.00, -0.00, -1.00, 490.5, 11.6)">:</text><text xml:space="preserve" font-family="LucidaGrande,Lucida Grande" font-size="22.0" fill="#FEFFFE" transform="matrix(1.00, 0.00, -0.00, -1.00, 497.5, 11.6)">/</text><text xml:space="preserve" font-family="LucidaGrande,Lucida Grande" font-size="22.0" fill="#FEFFFE" transform="matrix(1.00, 0.00, -0.00, -1.00, 509.0, 11.6)">/</text><text xml:space="preserve" font-family="LucidaGrande,Lucida Grande" font-size="22.0" fill="#FEFFFE" transform="matrix(1.00, 0.00, -0.00, -1.00, 520.6, 11.6)">j</text><text xml:space="preserve" font-family="LucidaGrande,Lucida Grande" font-size="22.0" fill="#FEFFFE" transform="matrix(1.00, 0.00, -0.00, -1.00, 527.3, 11.6)">.</text><text xml:space="preserve" font-family="LucidaGrande,Lucida Grande" font-size="22.0" fill="#FEFFFE" transform="matrix(1.00, 0.00, -0.00, -1.00, 534.3, 11.6)">m</text><text xml:space="preserve" font-family="LucidaGrande,Lucida Grande" font-size="22.0" fill="#FEFFFE" transform="matrix(1.00, 0.00, -0.00, -1.00, 554.8, 11.6)">p</text><text xml:space="preserve" font-family="LucidaGrande,Lucida Grande" font-size="22.0" fill="#FEFFFE" transform="matrix(1.00, 0.00, -0.00, -1.00, 568.6, 11.6)">/</text><text xml:space="preserve" font-family="LucidaGrande,Lucida Grande" font-size="22.0" fill="#FEFFFE" transform="matrix(1.00, 0.00, -0.00, -1.00, 580.2, 11.6)">p</text><text xml:space="preserve" font-family="LucidaGrande,Lucida Grande" font-size="22.0" fill="#FEFFFE" transform="matrix(1.00, 0.00, -0.00, -1.00, 594.0, 11.6)">s</text><text xml:space="preserve" font-family="LucidaGrande,Lucida Grande" font-size="22.0" fill="#FEFFFE" transform="matrix(1.00, 0.00, -0.00, -1.00, 605.3, 11.6)">u</text><text xml:space="preserve" font-family="LucidaGrande,Lucida Grande" font-size="22.0" fill="#FEFFFE" transform="matrix(1.00, 0.00, -0.00, -1.00, 618.9, 11.6)">m</text><text xml:space="preserve" font-family="LucidaGrande,Lucida Grande" font-size="22.0" fill="#FEFFFE" transform="matrix(1.00, 0.00, -0.00, -1.00, 639.4, 11.6)">a</text><text xml:space="preserve" font-family="LucidaGrande,Lucida Grande" font-size="22.0" fill="#FEFFFE" transform="matrix(1.00, 0.00, -0.00, -1.00, 651.6, 11.6)">c</text><text xml:space="preserve" font-family="LucidaGrande,Lucida Grande" font-size="22.0" fill="#FEFFFE" transform="matrix(1.00, 0.00, -0.00, -1.00, 662.9, 11.6)">1</text><text xml:space="preserve" font-family="LucidaGrande,Lucida Grande" font-size="22.0" fill="#FEFFFE" transform="matrix(1.00, 0.00, -0.00, -1.00, 676.8, 11.6)">3</text><text xml:space="preserve" font-family="Monaco,Monaco" font-size="29.0" fill="#37DE1B" transform="matrix(1.00, 0.00, -0.00, -1.00, 57.2, 526.2)">N</text><text xml:space="preserve" font-family="Monaco,Monaco" font-size="29.0" fill="#37DE1B" transform="matrix(1.00, 0.00, -0.00, -1.00, 74.6, 526.2)">A</text><text xml:space="preserve" font-family="Monaco,Monaco" font-size="29.0" fill="#37DE1B" transform="matrix(1.00, 0.00, -0.00, -1.00, 92.0, 526.2)">M</text><text xml:space="preserve" font-family="Monaco,Monaco" font-size="29.0" fill="#37DE1B" transform="matrix(1.00, 0.00, -0.00, -1.00, 109.4, 526.2)">E</text><text xml:space="preserve" font-family="Monaco,Monaco" font-size="29.0" fill="#37DE1B" transform="matrix(1.00, 0.00, -0.00, -1.00, 126.8, 526.2)">	</text><text xml:space="preserve" font-family="Monaco,Monaco" font-size="29.0" fill="#37DE1B" transform="matrix(1.00, 0.00, -0.00, -1.00, 57.2, 488.2)"> </text><text xml:space="preserve" font-family="Monaco,Monaco" font-size="29.0" fill="#37DE1B" transform="matrix(1.00, 0.00, -0.00, -1.00, 74.6, 488.2)"> </text><text xml:space="preserve" font-family="Monaco,Monaco" font-size="29.0" fill="#37DE1B" transform="matrix(1.00, 0.00, -0.00, -1.00, 92.0, 488.2)"> </text><text xml:space="preserve" font-family="Monaco,Monaco" font-size="29.0" fill="#37DE1B" transform="matrix(1.00, 0.00, -0.00, -1.00, 109.4, 488.2)"> </text><text xml:space="preserve" font-family="Monaco,Monaco" font-size="29.0" fill="#37DE1B" transform="matrix(1.00, 0.00, -0.00, -1.00, 126.8, 488.2)"> </text><text xml:space="preserve" font-family="Monaco,Monaco" font-size="29.0" fill="#37DE1B" transform="matrix(1.00, 0.00, -0.00, -1.00, 144.2, 488.2)">l</text><text xml:space="preserve" font-family="Monaco,Monaco" font-size="29.0" fill="#37DE1B" transform="matrix(1.00, 0.00, -0.00, -1.00, 161.6, 488.2)">a</text><text xml:space="preserve" font-family="Monaco,Monaco" font-size="29.0" fill="#37DE1B" transform="matrix(1.00, 0.00, -0.00, -1.00, 179.0, 488.2)">u</text><text xml:space="preserve" font-family="Monaco,Monaco" font-size="29.0" fill="#37DE1B" transform="matrix(1.00, 0.00, -0.00, -1.00, 196.4, 488.2)">n</text><text xml:space="preserve" font-family="Monaco,Monaco" font-size="29.0" fill="#37DE1B" transform="matrix(1.00, 0.00, -0.00, -1.00, 213.8, 488.2)">c</text><text xml:space="preserve" font-family="Monaco,Monaco" font-size="29.0" fill="#37DE1B" transform="matrix(1.00, 0.00, -0.00, -1.00, 231.2, 488.2)">h</text><text xml:space="preserve" font-family="Monaco,Monaco" font-size="29.0" fill="#37DE1B" transform="matrix(1.00, 0.00, -0.00, -1.00, 248.6, 488.2)">c</text><text xml:space="preserve" font-family="Monaco,Monaco" font-size="29.0" fill="#37DE1B" transform="matrix(1.00, 0.00, -0.00, -1.00, 266.0, 488.2)">t</text><text xml:space="preserve" font-family="Monaco,Monaco" font-size="29.0" fill="#37DE1B" transform="matrix(1.00, 0.00, -0.00, -1.00, 283.5, 488.2)">l</text><text xml:space="preserve" font-family="Monaco,Monaco" font-size="29.0" fill="#37DE1B" transform="matrix(1.00, 0.00, -0.00, -1.00, 300.9, 488.2)"> </text><text xml:space="preserve" font-family="Monaco,Monaco" font-size="29.0" fill="#37DE1B" transform="matrix(1.00, 0.00, -0.00, -1.00, 318.3, 488.2)">-</text><text xml:space="preserve" font-family="Monaco,Monaco" font-size="29.0" fill="#37DE1B" transform="matrix(1.00, 0.00, -0.00, -1.00, 335.7, 488.2)">-</text><text xml:space="preserve" font-family="Monaco,Monaco" font-size="29.0" fill="#37DE1B" transform="matrix(1.00, 0.00, -0.00, -1.00, 353.1, 488.2)"> </text><text xml:space="preserve" font-family="Monaco,Monaco" font-size="29.0" fill="#37DE1B" transform="matrix(1.00, 0.00, -0.00, -1.00, 370.5, 488.2)">I</text><text xml:space="preserve" font-family="Monaco,Monaco" font-size="29.0" fill="#37DE1B" transform="matrix(1.00, 0.00, -0.00, -1.00, 387.9, 488.2)">n</text><text xml:space="preserve" font-family="Monaco,Monaco" font-size="29.0" fill="#37DE1B" transform="matrix(1.00, 0.00, -0.00, -1.00, 405.3, 488.2)">t</text><text xml:space="preserve" font-family="Monaco,Monaco" font-size="29.0" fill="#37DE1B" transform="matrix(1.00, 0.00, -0.00, -1.00, 422.7, 488.2)">e</text><text xml:space="preserve" font-family="Monaco,Monaco" font-size="29.0" fill="#37DE1B" transform="matrix(1.00, 0.00, -0.00, -1.00, 440.1, 488.2)">r</text><text xml:space="preserve" font-family="Monaco,Monaco" font-size="29.0" fill="#37DE1B" transform="matrix(1.00, 0.00, -0.00, -1.00, 457.5, 488.2)">f</text><text xml:space="preserve" font-family="Monaco,Monaco" font-size="29.0" fill="#37DE1B" transform="matrix(1.00, 0.00, -0.00, -1.00, 474.9, 488.2)">a</text><text xml:space="preserve" font-family="Monaco,Monaco" font-size="29.0" fill="#37DE1B" transform="matrix(1.00, 0.00, -0.00, -1.00, 492.3, 488.2)">c</text><text xml:space="preserve" font-family="Monaco,Monaco" font-size="29.0" fill="#37DE1B" transform="matrix(1.00, 0.00, -0.00, -1.00, 509.7, 488.2)">e</text><text xml:space="preserve" font-family="Monaco,Monaco" font-size="29.0" fill="#37DE1B" transform="matrix(1.00, 0.00, -0.00, -1.00, 527.1, 488.2)">s</text><text xml:space="preserve" font-family="Monaco,Monaco" font-size="29.0" fill="#37DE1B" transform="matrix(1.00, 0.00, -0.00, -1.00, 544.5, 488.2)"> </text><text xml:space="preserve" font-family="Monaco,Monaco" font-size="29.0" fill="#37DE1B" transform="matrix(1.00, 0.00, -0.00, -1.00, 561.9, 488.2)">w</text><text xml:space="preserve" font-family="Monaco,Monaco" font-size="29.0" fill="#37DE1B" transform="matrix(1.00, 0.00, -0.00, -1.00, 579.3, 488.2)">i</text><text xml:space="preserve" font-family="Monaco,Monaco" font-size="29.0" fill="#37DE1B" transform="matrix(1.00, 0.00, -0.00, -1.00, 596.8, 488.2)">t</text><text xml:space="preserve" font-family="Monaco,Monaco" font-size="29.0" fill="#37DE1B" transform="matrix(1.00, 0.00, -0.00, -1.00, 614.2, 488.2)">h</text><text xml:space="preserve" font-family="Monaco,Monaco" font-size="29.0" fill="#37DE1B" transform="matrix(1.00, 0.00, -0.00, -1.00, 631.6, 488.2)"> </text><text xml:space="preserve" font-family="Monaco,Monaco" font-size="29.0" fill="#37DE1B" transform="matrix(1.00, 0.00, -0.00, -1.00, 649.0, 488.2)">l</text><text xml:space="preserve" font-family="Monaco,Monaco" font-size="29.0" fill="#37DE1B" transform="matrix(1.00, 0.00, -0.00, -1.00, 666.4, 488.2)">a</text><text xml:space="preserve" font-family="Monaco,Monaco" font-size="29.0" fill="#37DE1B" transform="matrix(1.00, 0.00, -0.00, -1.00, 683.8, 488.2)">u</text><text xml:space="preserve" font-family="Monaco,Monaco" font-size="29.0" fill="#37DE1B" transform="matrix(1.00, 0.00, -0.00, -1.00, 701.2, 488.2)">n</text><text xml:space="preserve" font-family="Monaco,Monaco" font-size="29.0" fill="#37DE1B" transform="matrix(1.00, 0.00, -0.00, -1.00, 718.6, 488.2)">c</text><text xml:space="preserve" font-family="Monaco,Monaco" font-size="29.0" fill="#37DE1B" transform="matrix(1.00, 0.00, -0.00, -1.00, 736.0, 488.2)">h</text><text xml:space="preserve" font-family="Monaco,Monaco" font-size="29.0" fill="#37DE1B" transform="matrix(1.00, 0.00, -0.00, -1.00, 753.4, 488.2)">d</text><text xml:space="preserve" font-family="Monaco,Monaco" font-size="29.0" fill="#37DE1B" transform="matrix(1.00, 0.00, -0.00, -1.00, 770.8, 488.2)">	</text><text xml:space="preserve" font-family="Monaco,Monaco" font-size="29.0" fill="#37DE1B" transform="matrix(1.00, 0.00, -0.00, -1.00, 57.2, 412.2)">S</text><text xml:space="preserve" font-family="Monaco,Monaco" font-size="29.0" fill="#37DE1B" transform="matrix(1.00, 0.00, -0.00, -1.00, 74.6, 412.2)">Y</text><text xml:space="preserve" font-family="Monaco,Monaco" font-size="29.0" fill="#37DE1B" transform="matrix(1.00, 0.00, -0.00, -1.00, 92.0, 412.2)">N</text><text xml:space="preserve" font-family="Monaco,Monaco" font-size="29.0" fill="#37DE1B" transform="matrix(1.00, 0.00, -0.00, -1.00, 109.4, 412.2)">O</text><text xml:space="preserve" font-family="Monaco,Monaco" font-size="29.0" fill="#37DE1B" transform="matrix(1.00, 0.00, -0.00, -1.00, 126.8, 412.2)">P</text><text xml:space="preserve" font-family="Monaco,Monaco" font-size="29.0" fill="#37DE1B" transform="matrix(1.00, 0.00, -0.00, -1.00, 144.2, 412.2)">S</text><text xml:space="preserve" font-family="Monaco,Monaco" font-size="29.0" fill="#37DE1B" transform="matrix(1.00, 0.00, -0.00, -1.00, 161.6, 412.2)">I</text><text xml:space="preserve" font-family="Monaco,Monaco" font-size="29.0" fill="#37DE1B" transform="matrix(1.00, 0.00, -0.00, -1.00, 179.0, 412.2)">S</text><text xml:space="preserve" font-family="Monaco,Monaco" font-size="29.0" fill="#37DE1B" transform="matrix(1.00, 0.00, -0.00, -1.00, 196.4, 412.2)">	</text><text xml:space="preserve" font-family="Monaco,Monaco" font-size="29.0" fill="#37DE1B" transform="matrix(1.00, 0.00, -0.00, -1.00, 57.2, 374.2)"> </text><text xml:space="preserve" font-family="Monaco,Monaco" font-size="29.0" fill="#37DE1B" transform="matrix(1.00, 0.00, -0.00, -1.00, 74.6, 374.2)"> </text><text xml:space="preserve" font-family="Monaco,Monaco" font-size="29.0" fill="#37DE1B" transform="matrix(1.00, 0.00, -0.00, -1.00, 92.0, 374.2)"> </text><text xml:space="preserve" font-family="Monaco,Monaco" font-size="29.0" fill="#37DE1B" transform="matrix(1.00, 0.00, -0.00, -1.00, 109.4, 374.2)"> </text><text xml:space="preserve" font-family="Monaco,Monaco" font-size="29.0" fill="#37DE1B" transform="matrix(1.00, 0.00, -0.00, -1.00, 126.8, 374.2)"> </text><text xml:space="preserve" font-family="Monaco,Monaco" font-size="29.0" fill="#37DE1B" transform="matrix(1.00, 0.00, -0.00, -1.00, 144.2, 374.2)">l</text><text xml:space="preserve" font-family="Monaco,Monaco" font-size="29.0" fill="#37DE1B" transform="matrix(1.00, 0.00, -0.00, -1.00, 161.6, 374.2)">a</text><text xml:space="preserve" font-family="Monaco,Monaco" font-size="29.0" fill="#37DE1B" transform="matrix(1.00, 0.00, -0.00, -1.00, 179.0, 374.2)">u</text><text xml:space="preserve" font-family="Monaco,Monaco" font-size="29.0" fill="#37DE1B" transform="matrix(1.00, 0.00, -0.00, -1.00, 196.4, 374.2)">n</text><text xml:space="preserve" font-family="Monaco,Monaco" font-size="29.0" fill="#37DE1B" transform="matrix(1.00, 0.00, -0.00, -1.00, 213.8, 374.2)">c</text><text xml:space="preserve" font-family="Monaco,Monaco" font-size="29.0" fill="#37DE1B" transform="matrix(1.00, 0.00, -0.00, -1.00, 231.2, 374.2)">h</text><text xml:space="preserve" font-family="Monaco,Monaco" font-size="29.0" fill="#37DE1B" transform="matrix(1.00, 0.00, -0.00, -1.00, 248.6, 374.2)">c</text><text xml:space="preserve" font-family="Monaco,Monaco" font-size="29.0" fill="#37DE1B" transform="matrix(1.00, 0.00, -0.00, -1.00, 266.0, 374.2)">t</text><text xml:space="preserve" font-family="Monaco,Monaco" font-size="29.0" fill="#37DE1B" transform="matrix(1.00, 0.00, -0.00, -1.00, 283.5, 374.2)">l</text><text xml:space="preserve" font-family="Monaco,Monaco" font-size="29.0" fill="#37DE1B" transform="matrix(1.00, 0.00, -0.00, -1.00, 300.9, 374.2)"> </text><text xml:space="preserve" font-family="Monaco,Monaco" font-size="29.0" fill="#37DE1B" transform="matrix(1.00, 0.00, -0.00, -1.00, 318.3, 374.2)">[</text><text xml:space="preserve" font-family="Monaco,Monaco" font-size="29.0" fill="#37DE1B" transform="matrix(1.00, 0.00, -0.00, -1.00, 335.7, 374.2)">s</text><text xml:space="preserve" font-family="Monaco,Monaco" font-size="29.0" fill="#37DE1B" transform="matrix(1.00, 0.00, -0.00, -1.00, 353.1, 374.2)">u</text><text xml:space="preserve" font-family="Monaco,Monaco" font-size="29.0" fill="#37DE1B" transform="matrix(1.00, 0.00, -0.00, -1.00, 370.5, 374.2)">b</text><text xml:space="preserve" font-family="Monaco,Monaco" font-size="29.0" fill="#37DE1B" transform="matrix(1.00, 0.00, -0.00, -1.00, 387.9, 374.2)">c</text><text xml:space="preserve" font-family="Monaco,Monaco" font-size="29.0" fill="#37DE1B" transform="matrix(1.00, 0.00, -0.00, -1.00, 405.3, 374.2)">o</text><text xml:space="preserve" font-family="Monaco,Monaco" font-size="29.0" fill="#37DE1B" transform="matrix(1.00, 0.00, -0.00, -1.00, 422.7, 374.2)">m</text><text xml:space="preserve" font-family="Monaco,Monaco" font-size="29.0" fill="#37DE1B" transform="matrix(1.00, 0.00, -0.00, -1.00, 440.1, 374.2)">m</text><text xml:space="preserve" font-family="Monaco,Monaco" font-size="29.0" fill="#37DE1B" transform="matrix(1.00, 0.00, -0.00, -1.00, 457.5, 374.2)">a</text><text xml:space="preserve" font-family="Monaco,Monaco" font-size="29.0" fill="#37DE1B" transform="matrix(1.00, 0.00, -0.00, -1.00, 474.9, 374.2)">n</text><text xml:space="preserve" font-family="Monaco,Monaco" font-size="29.0" fill="#37DE1B" transform="matrix(1.00, 0.00, -0.00, -1.00, 492.3, 374.2)">d</text><text xml:space="preserve" font-family="Monaco,Monaco" font-size="29.0" fill="#37DE1B" transform="matrix(1.00, 0.00, -0.00, -1.00, 509.7, 374.2)"> </text><text xml:space="preserve" font-family="Monaco,Monaco" font-size="29.0" fill="#37DE1B" transform="matrix(1.00, 0.00, -0.00, -1.00, 527.1, 374.2)">[</text><text xml:space="preserve" font-family="Monaco,Monaco" font-size="29.0" fill="#37DE1B" transform="matrix(1.00, 0.00, -0.00, -1.00, 544.5, 374.2)">a</text><text xml:space="preserve" font-family="Monaco,Monaco" font-size="29.0" fill="#37DE1B" transform="matrix(1.00, 0.00, -0.00, -1.00, 561.9, 374.2)">r</text><text xml:space="preserve" font-family="Monaco,Monaco" font-size="29.0" fill="#37DE1B" transform="matrix(1.00, 0.00, -0.00, -1.00, 579.3, 374.2)">g</text><text xml:space="preserve" font-family="Monaco,Monaco" font-size="29.0" fill="#37DE1B" transform="matrix(1.00, 0.00, -0.00, -1.00, 596.8, 374.2)">u</text><text xml:space="preserve" font-family="Monaco,Monaco" font-size="29.0" fill="#37DE1B" transform="matrix(1.00, 0.00, -0.00, -1.00, 614.2, 374.2)">m</text><text xml:space="preserve" font-family="Monaco,Monaco" font-size="29.0" fill="#37DE1B" transform="matrix(1.00, 0.00, -0.00, -1.00, 631.6, 374.2)">e</text><text xml:space="preserve" font-family="Monaco,Monaco" font-size="29.0" fill="#37DE1B" transform="matrix(1.00, 0.00, -0.00, -1.00, 649.0, 374.2)">n</text><text xml:space="preserve" font-family="Monaco,Monaco" font-size="29.0" fill="#37DE1B" transform="matrix(1.00, 0.00, -0.00, -1.00, 666.4, 374.2)">t</text><text xml:space="preserve" font-family="Monaco,Monaco" font-size="29.0" fill="#37DE1B" transform="matrix(1.00, 0.00, -0.00, -1.00, 683.8, 374.2)">s</text><text xml:space="preserve" font-family="Monaco,Monaco" font-size="29.0" fill="#37DE1B" transform="matrix(1.00, 0.00, -0.00, -1.00, 701.2, 374.2)"> </text><text xml:space="preserve" font-family="Monaco,Monaco" font-size="29.0" fill="#37DE1B" transform="matrix(1.00, 0.00, -0.00, -1.00, 718.6, 374.2)">.</text><text xml:space="preserve" font-family="Monaco,Monaco" font-size="29.0" fill="#37DE1B" transform="matrix(1.00, 0.00, -0.00, -1.00, 736.0, 374.2)">.</text><text xml:space="preserve" font-family="Monaco,Monaco" font-size="29.0" fill="#37DE1B" transform="matrix(1.00, 0.00, -0.00, -1.00, 753.4, 374.2)">.</text><text xml:space="preserve" font-family="Monaco,Monaco" font-size="29.0" fill="#37DE1B" transform="matrix(1.00, 0.00, -0.00, -1.00, 770.8, 374.2)">]</text><text xml:space="preserve" font-family="Monaco,Monaco" font-size="29.0" fill="#37DE1B" transform="matrix(1.00, 0.00, -0.00, -1.00, 788.2, 374.2)">]</text><text xml:space="preserve" font-family="Monaco,Monaco" font-size="29.0" fill="#37DE1B" transform="matrix(1.00, 0.00, -0.00, -1.00, 805.6, 374.2)">	</text><text xml:space="preserve" font-family="Monaco,Monaco" font-size="29.0" fill="#37DE1B" transform="matrix(1.00, 0.00, -0.00, -1.00, 57.2, 298.2)">D</text><text xml:space="preserve" font-family="Monaco,Monaco" font-size="29.0" fill="#37DE1B" transform="matrix(1.00, 0.00, -0.00, -1.00, 74.6, 298.2)">E</text><text xml:space="preserve" font-family="Monaco,Monaco" font-size="29.0" fill="#37DE1B" transform="matrix(1.00, 0.00, -0.00, -1.00, 92.0, 298.2)">S</text><text xml:space="preserve" font-family="Monaco,Monaco" font-size="29.0" fill="#37DE1B" transform="matrix(1.00, 0.00, -0.00, -1.00, 109.4, 298.2)">C</text><text xml:space="preserve" font-family="Monaco,Monaco" font-size="29.0" fill="#37DE1B" transform="matrix(1.00, 0.00, -0.00, -1.00, 126.8, 298.2)">R</text><text xml:space="preserve" font-family="Monaco,Monaco" font-size="29.0" fill="#37DE1B" transform="matrix(1.00, 0.00, -0.00, -1.00, 144.2, 298.2)">I</text><text xml:space="preserve" font-family="Monaco,Monaco" font-size="29.0" fill="#37DE1B" transform="matrix(1.00, 0.00, -0.00, -1.00, 161.6, 298.2)">P</text><text xml:space="preserve" font-family="Monaco,Monaco" font-size="29.0" fill="#37DE1B" transform="matrix(1.00, 0.00, -0.00, -1.00, 179.0, 298.2)">T</text><text xml:space="preserve" font-family="Monaco,Monaco" font-size="29.0" fill="#37DE1B" transform="matrix(1.00, 0.00, -0.00, -1.00, 196.4, 298.2)">I</text><text xml:space="preserve" font-family="Monaco,Monaco" font-size="29.0" fill="#37DE1B" transform="matrix(1.00, 0.00, -0.00, -1.00, 213.8, 298.2)">O</text><text xml:space="preserve" font-family="Monaco,Monaco" font-size="29.0" fill="#37DE1B" transform="matrix(1.00, 0.00, -0.00, -1.00, 231.2, 298.2)">N</text><text xml:space="preserve" font-family="Monaco,Monaco" font-size="29.0" fill="#37DE1B" transform="matrix(1.00, 0.00, -0.00, -1.00, 248.6, 298.2)">	</text><text xml:space="preserve" font-family="Monaco,Monaco" font-size="29.0" fill="#37DE1B" transform="matrix(1.00, 0.00, -0.00, -1.00, 57.2, 260.2)"> </text><text xml:space="preserve" font-family="Monaco,Monaco" font-size="29.0" fill="#37DE1B" transform="matrix(1.00, 0.00, -0.00, -1.00, 74.6, 260.2)"> </text><text xml:space="preserve" font-family="Monaco,Monaco" font-size="29.0" fill="#37DE1B" transform="matrix(1.00, 0.00, -0.00, -1.00, 92.0, 260.2)"> </text><text xml:space="preserve" font-family="Monaco,Monaco" font-size="29.0" fill="#37DE1B" transform="matrix(1.00, 0.00, -0.00, -1.00, 109.4, 260.2)"> </text><text xml:space="preserve" font-family="Monaco,Monaco" font-size="29.0" fill="#37DE1B" transform="matrix(1.00, 0.00, -0.00, -1.00, 126.8, 260.2)"> </text><text xml:space="preserve" font-family="Monaco,Monaco" font-size="29.0" fill="#37DE1B" transform="matrix(1.00, 0.00, -0.00, -1.00, 144.2, 260.2)">l</text><text xml:space="preserve" font-family="Monaco,Monaco" font-size="29.0" fill="#37DE1B" transform="matrix(1.00, 0.00, -0.00, -1.00, 161.6, 260.2)">a</text><text xml:space="preserve" font-family="Monaco,Monaco" font-size="29.0" fill="#37DE1B" transform="matrix(1.00, 0.00, -0.00, -1.00, 179.0, 260.2)">u</text><text xml:space="preserve" font-family="Monaco,Monaco" font-size="29.0" fill="#37DE1B" transform="matrix(1.00, 0.00, -0.00, -1.00, 196.4, 260.2)">n</text><text xml:space="preserve" font-family="Monaco,Monaco" font-size="29.0" fill="#37DE1B" transform="matrix(1.00, 0.00, -0.00, -1.00, 213.8, 260.2)">c</text><text xml:space="preserve" font-family="Monaco,Monaco" font-size="29.0" fill="#37DE1B" transform="matrix(1.00, 0.00, -0.00, -1.00, 231.2, 260.2)">h</text><text xml:space="preserve" font-family="Monaco,Monaco" font-size="29.0" fill="#37DE1B" transform="matrix(1.00, 0.00, -0.00, -1.00, 248.6, 260.2)">c</text><text xml:space="preserve" font-family="Monaco,Monaco" font-size="29.0" fill="#37DE1B" transform="matrix(1.00, 0.00, -0.00, -1.00, 266.0, 260.2)">t</text><text xml:space="preserve" font-family="Monaco,Monaco" font-size="29.0" fill="#37DE1B" transform="matrix(1.00, 0.00, -0.00, -1.00, 283.5, 260.2)">l</text><text xml:space="preserve" font-family="Monaco,Monaco" font-size="29.0" fill="#37DE1B" transform="matrix(1.00, 0.00, -0.00, -1.00, 300.9, 260.2)"> </text><text xml:space="preserve" font-family="Monaco,Monaco" font-size="29.0" fill="#37DE1B" transform="matrix(1.00, 0.00, -0.00, -1.00, 318.3, 260.2)">i</text><text xml:space="preserve" font-family="Monaco,Monaco" font-size="29.0" fill="#37DE1B" transform="matrix(1.00, 0.00, -0.00, -1.00, 335.7, 260.2)">n</text><text xml:space="preserve" font-family="Monaco,Monaco" font-size="29.0" fill="#37DE1B" transform="matrix(1.00, 0.00, -0.00, -1.00, 353.1, 260.2)">t</text><text xml:space="preserve" font-family="Monaco,Monaco" font-size="29.0" fill="#37DE1B" transform="matrix(1.00, 0.00, -0.00, -1.00, 370.5, 260.2)">e</text><text xml:space="preserve" font-family="Monaco,Monaco" font-size="29.0" fill="#37DE1B" transform="matrix(1.00, 0.00, -0.00, -1.00, 387.9, 260.2)">r</text><text xml:space="preserve" font-family="Monaco,Monaco" font-size="29.0" fill="#37DE1B" transform="matrix(1.00, 0.00, -0.00, -1.00, 405.3, 260.2)">f</text><text xml:space="preserve" font-family="Monaco,Monaco" font-size="29.0" fill="#37DE1B" transform="matrix(1.00, 0.00, -0.00, -1.00, 422.7, 260.2)">a</text><text xml:space="preserve" font-family="Monaco,Monaco" font-size="29.0" fill="#37DE1B" transform="matrix(1.00, 0.00, -0.00, -1.00, 440.1, 260.2)">c</text><text xml:space="preserve" font-family="Monaco,Monaco" font-size="29.0" fill="#37DE1B" transform="matrix(1.00, 0.00, -0.00, -1.00, 457.5, 260.2)">e</text><text xml:space="preserve" font-family="Monaco,Monaco" font-size="29.0" fill="#37DE1B" transform="matrix(1.00, 0.00, -0.00, -1.00, 474.9, 260.2)">s</text><text xml:space="preserve" font-family="Monaco,Monaco" font-size="29.0" fill="#37DE1B" transform="matrix(1.00, 0.00, -0.00, -1.00, 492.3, 260.2)"> </text><text xml:space="preserve" font-family="Monaco,Monaco" font-size="29.0" fill="#37DE1B" transform="matrix(1.00, 0.00, -0.00, -1.00, 509.7, 260.2)">w</text><text xml:space="preserve" font-family="Monaco,Monaco" font-size="29.0" fill="#37DE1B" transform="matrix(1.00, 0.00, -0.00, -1.00, 527.1, 260.2)">i</text><text xml:space="preserve" font-family="Monaco,Monaco" font-size="29.0" fill="#37DE1B" transform="matrix(1.00, 0.00, -0.00, -1.00, 544.5, 260.2)">t</text><text xml:space="preserve" font-family="Monaco,Monaco" font-size="29.0" fill="#37DE1B" transform="matrix(1.00, 0.00, -0.00, -1.00, 561.9, 260.2)">h</text><text xml:space="preserve" font-family="Monaco,Monaco" font-size="29.0" fill="#37DE1B" transform="matrix(1.00, 0.00, -0.00, -1.00, 579.3, 260.2)"> </text><text xml:space="preserve" font-family="Monaco,Monaco" font-size="29.0" fill="#37DE1B" transform="matrix(1.00, 0.00, -0.00, -1.00, 596.8, 260.2)">l</text><text xml:space="preserve" font-family="Monaco,Monaco" font-size="29.0" fill="#37DE1B" transform="matrix(1.00, 0.00, -0.00, -1.00, 614.2, 260.2)">a</text><text xml:space="preserve" font-family="Monaco,Monaco" font-size="29.0" fill="#37DE1B" transform="matrix(1.00, 0.00, -0.00, -1.00, 631.6, 260.2)">u</text><text xml:space="preserve" font-family="Monaco,Monaco" font-size="29.0" fill="#37DE1B" transform="matrix(1.00, 0.00, -0.00, -1.00, 649.0, 260.2)">n</text><text xml:space="preserve" font-family="Monaco,Monaco" font-size="29.0" fill="#37DE1B" transform="matrix(1.00, 0.00, -0.00, -1.00, 666.4, 260.2)">c</text><text xml:space="preserve" font-family="Monaco,Monaco" font-size="29.0" fill="#37DE1B" transform="matrix(1.00, 0.00, -0.00, -1.00, 683.8, 260.2)">h</text><text xml:space="preserve" font-family="Monaco,Monaco" font-size="29.0" fill="#37DE1B" transform="matrix(1.00, 0.00, -0.00, -1.00, 701.2, 260.2)">d</text><text xml:space="preserve" font-family="Monaco,Monaco" font-size="29.0" fill="#37DE1B" transform="matrix(1.00, 0.00, -0.00, -1.00, 718.6, 260.2)"> </text><text xml:space="preserve" font-family="Monaco,Monaco" font-size="29.0" fill="#37DE1B" transform="matrix(1.00, 0.00, -0.00, -1.00, 736.0, 260.2)">t</text><text xml:space="preserve" font-family="Monaco,Monaco" font-size="29.0" fill="#37DE1B" transform="matrix(1.00, 0.00, -0.00, -1.00, 753.4, 260.2)">o</text><text xml:space="preserve" font-family="Monaco,Monaco" font-size="29.0" fill="#37DE1B" transform="matrix(1.00, 0.00, -0.00, -1.00, 770.8, 260.2)"> </text><text xml:space="preserve" font-family="Monaco,Monaco" font-size="29.0" fill="#37DE1B" transform="matrix(1.00, 0.00, -0.00, -1.00, 788.2, 260.2)">l</text><text xml:space="preserve" font-family="Monaco,Monaco" font-size="29.0" fill="#37DE1B" transform="matrix(1.00, 0.00, -0.00, -1.00, 805.6, 260.2)">o</text><text xml:space="preserve" font-family="Monaco,Monaco" font-size="29.0" fill="#37DE1B" transform="matrix(1.00, 0.00, -0.00, -1.00, 823.0, 260.2)">a</text><text xml:space="preserve" font-family="Monaco,Monaco" font-size="29.0" fill="#37DE1B" transform="matrix(1.00, 0.00, -0.00, -1.00, 840.4, 260.2)">d</text><text xml:space="preserve" font-family="Monaco,Monaco" font-size="29.0" fill="#37DE1B" transform="matrix(1.00, 0.00, -0.00, -1.00, 857.8, 260.2)">,</text><text xml:space="preserve" font-family="Monaco,Monaco" font-size="29.0" fill="#37DE1B" transform="matrix(1.00, 0.00, -0.00, -1.00, 875.2, 260.2)"> </text><text xml:space="preserve" font-family="Monaco,Monaco" font-size="29.0" fill="#37DE1B" transform="matrix(1.00, 0.00, -0.00, -1.00, 57.2, 222.2)">u</text><text xml:space="preserve" font-family="Monaco,Monaco" font-size="29.0" fill="#37DE1B" transform="matrix(1.00, 0.00, -0.00, -1.00, 74.6, 222.2)">n</text><text xml:space="preserve" font-family="Monaco,Monaco" font-size="29.0" fill="#37DE1B" transform="matrix(1.00, 0.00, -0.00, -1.00, 92.0, 222.2)">l</text><text xml:space="preserve" font-family="Monaco,Monaco" font-size="29.0" fill="#37DE1B" transform="matrix(1.00, 0.00, -0.00, -1.00, 109.4, 222.2)">o</text><text xml:space="preserve" font-family="Monaco,Monaco" font-size="29.0" fill="#37DE1B" transform="matrix(1.00, 0.00, -0.00, -1.00, 126.8, 222.2)">a</text><text xml:space="preserve" font-family="Monaco,Monaco" font-size="29.0" fill="#37DE1B" transform="matrix(1.00, 0.00, -0.00, -1.00, 144.2, 222.2)">d</text><text xml:space="preserve" font-family="Monaco,Monaco" font-size="29.0" fill="#37DE1B" transform="matrix(1.00, 0.00, -0.00, -1.00, 161.6, 222.2)"> </text><text xml:space="preserve" font-family="Monaco,Monaco" font-size="29.0" fill="#37DE1B" transform="matrix(1.00, 0.00, -0.00, -1.00, 179.0, 222.2)">d</text><text xml:space="preserve" font-family="Monaco,Monaco" font-size="29.0" fill="#37DE1B" transform="matrix(1.00, 0.00, -0.00, -1.00, 196.4, 222.2)">a</text><text xml:space="preserve" font-family="Monaco,Monaco" font-size="29.0" fill="#37DE1B" transform="matrix(1.00, 0.00, -0.00, -1.00, 213.8, 222.2)">e</text><text xml:space="preserve" font-family="Monaco,Monaco" font-size="29.0" fill="#37DE1B" transform="matrix(1.00, 0.00, -0.00, -1.00, 231.2, 222.2)">m</text><text xml:space="preserve" font-family="Monaco,Monaco" font-size="29.0" fill="#37DE1B" transform="matrix(1.00, 0.00, -0.00, -1.00, 248.6, 222.2)">o</text><text xml:space="preserve" font-family="Monaco,Monaco" font-size="29.0" fill="#37DE1B" transform="matrix(1.00, 0.00, -0.00, -1.00, 266.0, 222.2)">n</text><text xml:space="preserve" font-family="Monaco,Monaco" font-size="29.0" fill="#37DE1B" transform="matrix(1.00, 0.00, -0.00, -1.00, 283.5, 222.2)">s</text><text xml:space="preserve" font-family="Monaco,Monaco" font-size="29.0" fill="#37DE1B" transform="matrix(1.00, 0.00, -0.00, -1.00, 300.9, 222.2)">/</text><text xml:space="preserve" font-family="Monaco,Monaco" font-size="29.0" fill="#37DE1B" transform="matrix(1.00, 0.00, -0.00, -1.00, 318.3, 222.2)">a</text><text xml:space="preserve" font-family="Monaco,Monaco" font-size="29.0" fill="#37DE1B" transform="matrix(1.00, 0.00, -0.00, -1.00, 335.7, 222.2)">g</text><text xml:space="preserve" font-family="Monaco,Monaco" font-size="29.0" fill="#37DE1B" transform="matrix(1.00, 0.00, -0.00, -1.00, 353.1, 222.2)">e</text><text xml:space="preserve" font-family="Monaco,Monaco" font-size="29.0" fill="#37DE1B" transform="matrix(1.00, 0.00, -0.00, -1.00, 370.5, 222.2)">n</text><text xml:space="preserve" font-family="Monaco,Monaco" font-size="29.0" fill="#37DE1B" transform="matrix(1.00, 0.00, -0.00, -1.00, 387.9, 222.2)">t</text><text xml:space="preserve" font-family="Monaco,Monaco" font-size="29.0" fill="#37DE1B" transform="matrix(1.00, 0.00, -0.00, -1.00, 405.3, 222.2)">s</text><text xml:space="preserve" font-family="Monaco,Monaco" font-size="29.0" fill="#37DE1B" transform="matrix(1.00, 0.00, -0.00, -1.00, 422.7, 222.2)"> </text><text xml:space="preserve" font-family="Monaco,Monaco" font-size="29.0" fill="#37DE1B" transform="matrix(1.00, 0.00, -0.00, -1.00, 440.1, 222.2)">a</text><text xml:space="preserve" font-family="Monaco,Monaco" font-size="29.0" fill="#37DE1B" transform="matrix(1.00, 0.00, -0.00, -1.00, 457.5, 222.2)">n</text><text xml:space="preserve" font-family="Monaco,Monaco" font-size="29.0" fill="#37DE1B" transform="matrix(1.00, 0.00, -0.00, -1.00, 474.9, 222.2)">d</text><text xml:space="preserve" font-family="Monaco,Monaco" font-size="29.0" fill="#37DE1B" transform="matrix(1.00, 0.00, -0.00, -1.00, 492.3, 222.2)"> </text><text xml:space="preserve" font-family="Monaco,Monaco" font-size="29.0" fill="#37DE1B" transform="matrix(1.00, 0.00, -0.00, -1.00, 509.7, 222.2)">g</text><text xml:space="preserve" font-family="Monaco,Monaco" font-size="29.0" fill="#37DE1B" transform="matrix(1.00, 0.00, -0.00, -1.00, 527.1, 222.2)">e</text><text xml:space="preserve" font-family="Monaco,Monaco" font-size="29.0" fill="#37DE1B" transform="matrix(1.00, 0.00, -0.00, -1.00, 544.5, 222.2)">n</text><text xml:space="preserve" font-family="Monaco,Monaco" font-size="29.0" fill="#37DE1B" transform="matrix(1.00, 0.00, -0.00, -1.00, 561.9, 222.2)">e</text><text xml:space="preserve" font-family="Monaco,Monaco" font-size="29.0" fill="#37DE1B" transform="matrix(1.00, 0.00, -0.00, -1.00, 579.3, 222.2)">r</text><text xml:space="preserve" font-family="Monaco,Monaco" font-size="29.0" fill="#37DE1B" transform="matrix(1.00, 0.00, -0.00, -1.00, 596.8, 222.2)">a</text><text xml:space="preserve" font-family="Monaco,Monaco" font-size="29.0" fill="#37DE1B" transform="matrix(1.00, 0.00, -0.00, -1.00, 614.2, 222.2)">l</text><text xml:space="preserve" font-family="Monaco,Monaco" font-size="29.0" fill="#37DE1B" transform="matrix(1.00, 0.00, -0.00, -1.00, 631.6, 222.2)">l</text><text xml:space="preserve" font-family="Monaco,Monaco" font-size="29.0" fill="#37DE1B" transform="matrix(1.00, 0.00, -0.00, -1.00, 649.0, 222.2)">y</text><text xml:space="preserve" font-family="Monaco,Monaco" font-size="29.0" fill="#37DE1B" transform="matrix(1.00, 0.00, -0.00, -1.00, 666.4, 222.2)"> </text><text xml:space="preserve" font-family="Monaco,Monaco" font-size="29.0" fill="#37DE1B" transform="matrix(1.00, 0.00, -0.00, -1.00, 683.8, 222.2)">c</text><text xml:space="preserve" font-family="Monaco,Monaco" font-size="29.0" fill="#37DE1B" transform="matrix(1.00, 0.00, -0.00, -1.00, 701.2, 222.2)">o</text><text xml:space="preserve" font-family="Monaco,Monaco" font-size="29.0" fill="#37DE1B" transform="matrix(1.00, 0.00, -0.00, -1.00, 718.6, 222.2)">n</text><text xml:space="preserve" font-family="Monaco,Monaco" font-size="29.0" fill="#37DE1B" transform="matrix(1.00, 0.00, -0.00, -1.00, 736.0, 222.2)">t</text><text xml:space="preserve" font-family="Monaco,Monaco" font-size="29.0" fill="#37DE1B" transform="matrix(1.00, 0.00, -0.00, -1.00, 753.4, 222.2)">r</text><text xml:space="preserve" font-family="Monaco,Monaco" font-size="29.0" fill="#37DE1B" transform="matrix(1.00, 0.00, -0.00, -1.00, 770.8, 222.2)">o</text><text xml:space="preserve" font-family="Monaco,Monaco" font-size="29.0" fill="#37DE1B" transform="matrix(1.00, 0.00, -0.00, -1.00, 788.2, 222.2)">l</text><text xml:space="preserve" font-family="Monaco,Monaco" font-size="29.0" fill="#37DE1B" transform="matrix(1.00, 0.00, -0.00, -1.00, 805.6, 222.2)"> </text><text xml:space="preserve" font-family="Monaco,Monaco" font-size="29.0" fill="#37DE1B" transform="matrix(1.00, 0.00, -0.00, -1.00, 823.0, 222.2)">l</text><text xml:space="preserve" font-family="Monaco,Monaco" font-size="29.0" fill="#37DE1B" transform="matrix(1.00, 0.00, -0.00, -1.00, 840.4, 222.2)">a</text><text xml:space="preserve" font-family="Monaco,Monaco" font-size="29.0" fill="#37DE1B" transform="matrix(1.00, 0.00, -0.00, -1.00, 857.8, 222.2)">u</text><text xml:space="preserve" font-family="Monaco,Monaco" font-size="29.0" fill="#37DE1B" transform="matrix(1.00, 0.00, -0.00, -1.00, 875.2, 222.2)">n</text><text xml:space="preserve" font-family="Monaco,Monaco" font-size="29.0" fill="#37DE1B" transform="matrix(1.00, 0.00, -0.00, -1.00, 892.7, 222.2)">c</text><text xml:space="preserve" font-family="Monaco,Monaco" font-size="29.0" fill="#37DE1B" transform="matrix(1.00, 0.00, -0.00, -1.00, 910.1, 222.2)">h</text><text xml:space="preserve" font-family="Monaco,Monaco" font-size="29.0" fill="#37DE1B" transform="matrix(1.00, 0.00, -0.00, -1.00, 927.5, 222.2)">d</text><text xml:space="preserve" font-family="Monaco,Monaco" font-size="29.0" fill="#37DE1B" transform="matrix(1.00, 0.00, -0.00, -1.00, 944.9, 222.2)">.</text></g></svg>