<?xml version="1.0" encoding="UTF-8" standalone="no"?><svg xmlns="http://www.w3.org/2000/svg" xmlns:xlink="http://www.w3.org/1999/xlink" clip-rule="evenodd" stroke-miterlimit="10" viewBox="0 0 1024 768"><desc>SVG generated by Keynote</desc><defs></defs><g transform="matrix(1.00, 0.00, -0.00, -1.00, 0.0, 768.0)"><path d="M 0.0 768.0 L 1024.0 768.0 L 1024.0 0.0 L 0.0 0.0 Z M 0.0 768.0 " fill="#000000"></path><text xml:space="preserve" font-family="Monaco,Monaco" font-size="135.0" fill="#FEFFFF" transform="matrix(1.00, 0.00, -0.00, -1.00, 106.9, 601.0)">T</text><text xml:space="preserve" font-family="Monaco,Monaco" font-size="135.0" fill="#FEFFFF" transform="matrix(1.00, 0.00, -0.00, -1.00, 188.0, 601.0)">h</text><text xml:space="preserve" font-family="Monaco,Monaco" font-size="135.0" fill="#FEFFFF" transform="matrix(1.00, 0.00, -0.00, -1.00, 269.0, 601.0)">a</text><text xml:space="preserve" font-family="Monaco,Monaco" font-size="135.0" fill="#FEFFFF" transform="matrix(1.00, 0.00, -0.00, -1.00, 350.0, 601.0)">n</text><text xml:space="preserve" font-family="Monaco,Monaco" font-size="135.0" fill="#FEFFFF" transform="matrix(1.00, 0.00, -0.00, -1.00, 431.0, 601.0)">k</text><text xml:space="preserve" font-family="Monaco,Monaco" font-size="135.0" fill="#FEFFFF" transform="matrix(1.00, 0.00, -0.00, -1.00, 512.1, 601.0)"> </text><text xml:space="preserve" font-family="Monaco,Monaco" font-size="135.0" fill="#FEFFFF" transform="matrix(1.00, 0.00, -0.00, -1.00, 593.1, 601.0)">Y</text><text xml:space="preserve" font-family="Monaco,Monaco" font-size="135.0" fill="#FEFFFF" transform="matrix(1.00, 0.00, -0.00, -1.00, 674.1, 601.0)">o</text><text xml:space="preserve" font-family="Monaco,Monaco" font-size="135.0" fill="#FEFFFF" transform="matrix(1.00, 0.00, -0.00, -1.00, 755.1, 601.0)">u</text><text xml:space="preserve" font-family="Monaco,Monaco" font-size="135.0" fill="#FEFFFF" transform="matrix(1.00, 0.00, -0.00, -1.00, 836.2, 601.0)">!</text><text xml:space="preserve" font-family="Monaco,Monaco" font-size="34.0" fill="#FEFFFF" transform="matrix(1.00, 0.00, -0.00, -1.00, 206.0, 484.3)">M</text><text xml:space="preserve" font-family="Monaco,Monaco" font-size="34.0" fill="#FEFFFF" transform="matrix(1.00, 0.00, -0.00, -1.00, 226.4, 484.3)">a</text><text xml:space="preserve" font-family="Monaco,Monaco" font-size="34.0" fill="#FEFFFF" transform="matrix(1.00, 0.00, -0.00, -1.00, 246.8, 484.3)">n</text><text xml:space="preserve" font-family="Monaco,Monaco" font-size="34.0" fill="#FEFFFF" transform="matrix(1.00, 0.00, -0.00, -1.00, 267.2, 484.3)">y</text><text xml:space="preserve" font-family="Monaco,Monaco" font-size="34.0" fill="#FEFFFF" transform="matrix(1.00, 0.00, -0.00, -1.00, 287.6, 484.3)"> </text><text xml:space="preserve" font-family="Monaco,Monaco" font-size="34.0" fill="#FEFFFF" transform="matrix(1.00, 0.00, -0.00, -1.00, 308.0, 484.3)">t</text><text xml:space="preserve" font-family="Monaco,Monaco" font-size="34.0" fill="#FEFFFF" transform="matrix(1.00, 0.00, -0.00, -1.00, 328.4, 484.3)">h</text><text xml:space="preserve" font-family="Monaco,Monaco" font-size="34.0" fill="#FEFFFF" transform="matrix(1.00, 0.00, -0.00, -1.00, 348.8, 484.3)">a</text><text xml:space="preserve" font-family="Monaco,Monaco" font-size="34.0" fill="#FEFFFF" transform="matrix(1.00, 0.00, -0.00, -1.00, 369.2, 484.3)">n</text><text xml:space="preserve" font-family="Monaco,Monaco" font-size="34.0" fill="#FEFFFF" transform="matrix(1.00, 0.00, -0.00, -1.00, 389.6, 484.3)">k</text><text xml:space="preserve" font-family="Monaco,Monaco" font-size="34.0" fill="#FEFFFF" transform="matrix(1.00, 0.00, -0.00, -1.00, 410.0, 484.3)">s</text><text xml:space="preserve" font-family="Monaco,Monaco" font-size="34.0" fill="#FEFFFF" transform="matrix(1.00, 0.00, -0.00, -1.00, 430.4, 484.3)"> </text><text xml:space="preserve" font-family="Monaco,Monaco" font-size="34.0" fill="#FEFFFF" transform="matrix(1.00, 0.00, -0.00, -1.00, 450.8, 484.3)">t</text><text xml:space="preserve" font-family="Monaco,Monaco" font-size="34.0" fill="#FEFFFF" transform="matrix(1.00, 0.00, -0.00, -1.00, 471.2, 484.3)">o</text><text xml:space="preserve" font-family="Monaco,Monaco" font-size="34.0" fill="#FEFFFF" transform="matrix(1.00, 0.00, -0.00, -1.00, 491.6, 484.3)"> </text><text xml:space="preserve" font-family="Monaco,Monaco" font-size="34.0" fill="#FEFFFF" transform="matrix(1.00, 0.00, -0.00, -1.00, 512.1, 484.3)">e</text><text xml:space="preserve" font-family="Monaco,Monaco" font-size="34.0" fill="#FEFFFF" transform="matrix(1.00, 0.00, -0.00, -1.00, 532.5, 484.3)">v</text><text xml:space="preserve" font-family="Monaco,Monaco" font-size="34.0" fill="#FEFFFF" transform="matrix(1.00, 0.00, -0.00, -1.00, 552.9, 484.3)">e</text><text xml:space="preserve" font-family="Monaco,Monaco" font-size="34.0" fill="#FEFFFF" transform="matrix(1.00, 0.00, -0.00, -1.00, 573.3, 484.3)">r</text><text xml:space="preserve" font-family="Monaco,Monaco" font-size="34.0" fill="#FEFFFF" transform="matrix(1.00, 0.00, -0.00, -1.00, 593.7, 484.3)">y</text><text xml:space="preserve" font-family="Monaco,Monaco" font-size="34.0" fill="#FEFFFF" transform="matrix(1.00, 0.00, -0.00, -1.00, 614.1, 484.3)">o</text><text xml:space="preserve" font-family="Monaco,Monaco" font-size="34.0" fill="#FEFFFF" transform="matrix(1.00, 0.00, -0.00, -1.00, 634.5, 484.3)">n</text><text xml:space="preserve" font-family="Monaco,Monaco" font-size="34.0" fill="#FEFFFF" transform="matrix(1.00, 0.00, -0.00, -1.00, 654.9, 484.3)">e</text><text xml:space="preserve" font-family="Monaco,Monaco" font-size="34.0" fill="#FEFFFF" transform="matrix(1.00, 0.00, -0.00, -1.00, 675.3, 484.3)"> </text><text xml:space="preserve" font-family="Monaco,Monaco" font-size="34.0" fill="#FEFFFF" transform="matrix(1.00, 0.00, -0.00, -1.00, 695.7, 484.3)">a</text><text xml:space="preserve" font-family="Monaco,Monaco" font-size="34.0" fill="#FEFFFF" transform="matrix(1.00, 0.00, -0.00, -1.00, 716.1, 484.3)">t</text><text xml:space="preserve" font-family="Monaco,Monaco" font-size="34.0" fill="#FEFFFF" transform="matrix(1.00, 0.00, -0.00, -1.00, 736.5, 484.3)"> </text><text xml:space="preserve" font-family="Monaco,Monaco" font-size="34.0" fill="#FEFFFF" transform="matrix(1.00, 0.00, -0.00, -1.00, 756.9, 484.3)">t</text><text xml:space="preserve" font-family="Monaco,Monaco" font-size="34.0" fill="#FEFFFF" transform="matrix(1.00, 0.00, -0.00, -1.00, 777.3, 484.3)">h</text><text xml:space="preserve" font-family="Monaco,Monaco" font-size="34.0" fill="#FEFFFF" transform="matrix(1.00, 0.00, -0.00, -1.00, 797.7, 484.3)">e</text><text xml:space="preserve" font-family="Monaco,Monaco" font-size="34.0" fill="#FEFFFF" transform="matrix(1.00, 0.00, -0.00, -1.00, 818.2, 484.3)">	</text><text xml:space="preserve" font-family="Monaco,Monaco" font-size="34.0" fill="#FEFFFF" transform="matrix(1.00, 0.00, -0.00, -1.00, 114.1, 438.3)">#</text><text xml:space="preserve" font-family="Monaco,Monaco" font-size="34.0" fill="#FEFFFF" transform="matrix(1.00, 0.00, -0.00, -1.00, 134.5, 438.3)">b</text><text xml:space="preserve" font-family="Monaco,Monaco" font-size="34.0" fill="#FEFFFF" transform="matrix(1.00, 0.00, -0.00, -1.00, 154.9, 438.3)">a</text><text xml:space="preserve" font-family="Monaco,Monaco" font-size="34.0" fill="#FEFFFF" transform="matrix(1.00, 0.00, -0.00, -1.00, 175.4, 438.3)">s</text><text xml:space="preserve" font-family="Monaco,Monaco" font-size="34.0" fill="#FEFFFF" transform="matrix(1.00, 0.00, -0.00, -1.00, 195.8, 438.3)">h</text><text xml:space="preserve" font-family="Monaco,Monaco" font-size="34.0" fill="#FEFFFF" transform="matrix(1.00, 0.00, -0.00, -1.00, 216.2, 438.3)"> </text><text xml:space="preserve" font-family="Monaco,Monaco" font-size="34.0" fill="#FEFFFF" transform="matrix(1.00, 0.00, -0.00, -1.00, 236.6, 438.3)">c</text><text xml:space="preserve" font-family="Monaco,Monaco" font-size="34.0" fill="#FEFFFF" transform="matrix(1.00, 0.00, -0.00, -1.00, 257.0, 438.3)">h</text><text xml:space="preserve" font-family="Monaco,Monaco" font-size="34.0" fill="#FEFFFF" transform="matrix(1.00, 0.00, -0.00, -1.00, 277.4, 438.3)">a</text><text xml:space="preserve" font-family="Monaco,Monaco" font-size="34.0" fill="#FEFFFF" transform="matrix(1.00, 0.00, -0.00, -1.00, 297.8, 438.3)">n</text><text xml:space="preserve" font-family="Monaco,Monaco" font-size="34.0" fill="#FEFFFF" transform="matrix(1.00, 0.00, -0.00, -1.00, 318.2, 438.3)">n</text><text xml:space="preserve" font-family="Monaco,Monaco" font-size="34.0" fill="#FEFFFF" transform="matrix(1.00, 0.00, -0.00, -1.00, 338.6, 438.3)">e</text><text xml:space="preserve" font-family="Monaco,Monaco" font-size="34.0" fill="#FEFFFF" transform="matrix(1.00, 0.00, -0.00, -1.00, 359.0, 438.3)">l</text><text xml:space="preserve" font-family="Monaco,Monaco" font-size="34.0" fill="#FEFFFF" transform="matrix(1.00, 0.00, -0.00, -1.00, 379.4, 438.3)"> </text><text xml:space="preserve" font-family="Monaco,Monaco" font-size="34.0" fill="#FEFFFF" transform="matrix(1.00, 0.00, -0.00, -1.00, 399.8, 438.3)">o</text><text xml:space="preserve" font-family="Monaco,Monaco" font-size="34.0" fill="#FEFFFF" transform="matrix(1.00, 0.00, -0.00, -1.00, 420.2, 438.3)">n</text><text xml:space="preserve" font-family="Monaco,Monaco" font-size="34.0" fill="#FEFFFF" transform="matrix(1.00, 0.00, -0.00, -1.00, 440.6, 438.3)"> </text><text xml:space="preserve" font-family="Monaco,Monaco" font-size="34.0" fill="#FEFFFF" transform="matrix(1.00, 0.00, -0.00, -1.00, 461.0, 438.3)">F</text><text xml:space="preserve" font-family="Monaco,Monaco" font-size="34.0" fill="#FEFFFF" transform="matrix(1.00, 0.00, -0.00, -1.00, 481.5, 438.3)">r</text><text xml:space="preserve" font-family="Monaco,Monaco" font-size="34.0" fill="#FEFFFF" transform="matrix(1.00, 0.00, -0.00, -1.00, 501.9, 438.3)">e</text><text xml:space="preserve" font-family="Monaco,Monaco" font-size="34.0" fill="#FEFFFF" transform="matrix(1.00, 0.00, -0.00, -1.00, 522.3, 438.3)">e</text><text xml:space="preserve" font-family="Monaco,Monaco" font-size="34.0" fill="#FEFFFF" transform="matrix(1.00, 0.00, -0.00, -1.00, 542.7, 438.3)">n</text><text xml:space="preserve" font-family="Monaco,Monaco" font-size="34.0" fill="#FEFFFF" transform="matrix(1.00, 0.00, -0.00, -1.00, 563.1, 438.3)">o</text><text xml:space="preserve" font-family="Monaco,Monaco" font-size="34.0" fill="#FEFFFF" transform="matrix(1.00, 0.00, -0.00, -1.00, 583.5, 438.3)">d</text><text xml:space="preserve" font-family="Monaco,Monaco" font-size="34.0" fill="#FEFFFF" transform="matrix(1.00, 0.00, -0.00, -1.00, 603.9, 438.3)">e</text><text xml:space="preserve" font-family="Monaco,Monaco" font-size="34.0" fill="#FEFFFF" transform="matrix(1.00, 0.00, -0.00, -1.00, 624.3, 438.3)"> </text><text xml:space="preserve" font-family="Monaco,Monaco" font-size="34.0" fill="#FEFFFF" transform="matrix(1.00, 0.00, -0.00, -1.00, 644.7, 438.3)">f</text><text xml:space="preserve" font-family="Monaco,Monaco" font-size="34.0" fill="#FEFFFF" transform="matrix(1.00, 0.00, -0.00, -1.00, 665.1, 438.3)">o</text><text xml:space="preserve" font-family="Monaco,Monaco" font-size="34.0" fill="#FEFFFF" transform="matrix(1.00, 0.00, -0.00, -1.00, 685.5, 438.3)">r</text><text xml:space="preserve" font-family="Monaco,Monaco" font-size="34.0" fill="#FEFFFF" transform="matrix(1.00, 0.00, -0.00, -1.00, 705.9, 438.3)"> </text><text xml:space="preserve" font-family="Monaco,Monaco" font-size="34.0" fill="#FEFFFF" transform="matrix(1.00, 0.00, -0.00, -1.00, 726.3, 438.3)">g</text><text xml:space="preserve" font-family="Monaco,Monaco" font-size="34.0" fill="#FEFFFF" transform="matrix(1.00, 0.00, -0.00, -1.00, 746.7, 438.3)">u</text><text xml:space="preserve" font-family="Monaco,Monaco" font-size="34.0" fill="#FEFFFF" transform="matrix(1.00, 0.00, -0.00, -1.00, 767.2, 438.3)">i</text><text xml:space="preserve" font-family="Monaco,Monaco" font-size="34.0" fill="#FEFFFF" transform="matrix(1.00, 0.00, -0.00, -1.00, 787.6, 438.3)">d</text><text xml:space="preserve" font-family="Monaco,Monaco" font-size="34.0" fill="#FEFFFF" transform="matrix(1.00, 0.00, -0.00, -1.00, 808.0, 438.3)">a</text><text xml:space="preserve" font-family="Monaco,Monaco" font-size="34.0" fill="#FEFFFF" transform="matrix(1.00, 0.00, -0.00, -1.00, 828.4, 438.3)">n</text><text xml:space="preserve" font-family="Monaco,Monaco" font-size="34.0" fill="#FEFFFF" transform="matrix(1.00, 0.00, -0.00, -1.00, 848.8, 438.3)">c</text><text xml:space="preserve" font-family="Monaco,Monaco" font-size="34.0" fill="#FEFFFF" transform="matrix(1.00, 0.00, -0.00, -1.00, 869.2, 438.3)">e</text><text xml:space="preserve" font-family="Monaco,Monaco" font-size="34.0" fill="#FEFFFF" transform="matrix(1.00, 0.00, -0.00, -1.00, 889.6, 438.3)">.</text><text xml:space="preserve" font-family="Monaco,Monaco" font-size="34.0" fill="#FEFFFF" transform="matrix(1.00, 0.00, -0.00, -1.00, 910.0, 438.3)">	</text><text xml:space="preserve" font-family="Monaco,Monaco" font-size="34.0" fill="#FEFFFF" transform="matrix(1.00, 0.00, -0.00, -1.00, 236.6, 392.3)">S</text><text xml:space="preserve" font-family="Monaco,Monaco" font-size="34.0" fill="#FEFFFF" transform="matrix(1.00, 0.00, -0.00, -1.00, 257.0, 392.3)">h</text><text xml:space="preserve" font-family="Monaco,Monaco" font-size="34.0" fill="#FEFFFF" transform="matrix(1.00, 0.00, -0.00, -1.00, 277.4, 392.3)">o</text><text xml:space="preserve" font-family="Monaco,Monaco" font-size="34.0" fill="#FEFFFF" transform="matrix(1.00, 0.00, -0.00, -1.00, 297.8, 392.3)">u</text><text xml:space="preserve" font-family="Monaco,Monaco" font-size="34.0" fill="#FEFFFF" transform="matrix(1.00, 0.00, -0.00, -1.00, 318.2, 392.3)">t</text><text xml:space="preserve" font-family="Monaco,Monaco" font-size="34.0" fill="#FEFFFF" transform="matrix(1.00, 0.00, -0.00, -1.00, 338.6, 392.3)"> </text><text xml:space="preserve" font-family="Monaco,Monaco" font-size="34.0" fill="#FEFFFF" transform="matrix(1.00, 0.00, -0.00, -1.00, 359.0, 392.3)">o</text><text xml:space="preserve" font-family="Monaco,Monaco" font-size="34.0" fill="#FEFFFF" transform="matrix(1.00, 0.00, -0.00, -1.00, 379.4, 392.3)">u</text><text xml:space="preserve" font-family="Monaco,Monaco" font-size="34.0" fill="#FEFFFF" transform="matrix(1.00, 0.00, -0.00, -1.00, 399.8, 392.3)">t</text><text xml:space="preserve" font-family="Monaco,Monaco" font-size="34.0" fill="#FEFFFF" transform="matrix(1.00, 0.00, -0.00, -1.00, 420.2, 392.3)"> </text><text xml:space="preserve" font-family="Monaco,Monaco" font-size="34.0" fill="#FEFFFF" transform="matrix(1.00, 0.00, -0.00, -1.00, 440.6, 392.3)">t</text><text xml:space="preserve" font-family="Monaco,Monaco" font-size="34.0" fill="#FEFFFF" transform="matrix(1.00, 0.00, -0.00, -1.00, 461.0, 392.3)">o</text><text xml:space="preserve" font-family="Monaco,Monaco" font-size="34.0" fill="#FEFFFF" transform="matrix(1.00, 0.00, -0.00, -1.00, 481.4, 392.3)"> </text><text xml:space="preserve" font-family="Monaco,Monaco" font-size="34.0" fill="#FEFFFF" transform="matrix(1.00, 0.00, -0.00, -1.00, 501.8, 392.3)">g</text><text xml:space="preserve" font-family="Monaco,Monaco" font-size="34.0" fill="#FEFFFF" transform="matrix(1.00, 0.00, -0.00, -1.00, 522.2, 392.3)">r</text><text xml:space="preserve" font-family="Monaco,Monaco" font-size="34.0" fill="#FEFFFF" transform="matrix(1.00, 0.00, -0.00, -1.00, 542.7, 392.3)">e</text><text xml:space="preserve" font-family="Monaco,Monaco" font-size="34.0" fill="#FEFFFF" transform="matrix(1.00, 0.00, -0.00, -1.00, 563.1, 392.3)">y</text><text xml:space="preserve" font-family="Monaco,Monaco" font-size="34.0" fill="#FEFFFF" transform="matrix(1.00, 0.00, -0.00, -1.00, 583.5, 392.3)">b</text><text xml:space="preserve" font-family="Monaco,Monaco" font-size="34.0" fill="#FEFFFF" transform="matrix(1.00, 0.00, -0.00, -1.00, 603.9, 392.3)">o</text><text xml:space="preserve" font-family="Monaco,Monaco" font-size="34.0" fill="#FEFFFF" transform="matrix(1.00, 0.00, -0.00, -1.00, 624.3, 392.3)">t</text><text xml:space="preserve" font-family="Monaco,Monaco" font-size="34.0" fill="#FEFFFF" transform="matrix(1.00, 0.00, -0.00, -1.00, 644.7, 392.3)">.</text><text xml:space="preserve" font-family="Monaco,Monaco" font-size="34.0" fill="#FEFFFF" transform="matrix(1.00, 0.00, -0.00, -1.00, 665.1, 392.3)"> </text><text xml:space="preserve" font-family="Monaco,Monaco" font-size="34.0" fill="#FEFFFF" transform="matrix(1.00, 0.00, -0.00, -1.00, 685.5, 392.3)">Y</text><text xml:space="preserve" font-family="Monaco,Monaco" font-size="34.0" fill="#FEFFFF" transform="matrix(1.00, 0.00, -0.00, -1.00, 705.9, 392.3)">T</text><text xml:space="preserve" font-family="Monaco,Monaco" font-size="34.0" fill="#FEFFFF" transform="matrix(1.00, 0.00, -0.00, -1.00, 726.3, 392.3)">M</text><text xml:space="preserve" font-family="Monaco,Monaco" font-size="34.0" fill="#FEFFFF" transform="matrix(1.00, 0.00, -0.00, -1.00, 746.7, 392.3)">N</text><text xml:space="preserve" font-family="Monaco,Monaco" font-size="34.0" fill="#FEFFFF" transform="matrix(1.00, 0.00, -0.00, -1.00, 767.1, 392.3)">D</text><text xml:space="preserve" font-family="Monaco,Monaco" font-size="34.0" fill="#FEFFFF" transform="matrix(1.00, 0.00, -0.00, -1.00, 787.5, 392.3)">	</text><text xml:space="preserve" font-family="GillSans,Gill Sans" font-size="91.0" fill="#FEFFFF" transform="matrix(1.00, 0.00, -0.00, -1.00, 328.3, 251.0)">F</text><text xml:space="preserve" font-family="GillSans,Gill Sans" font-size="91.0" fill="#FEFFFF" transform="matrix(1.00, 0.00, -0.00, -1.00, 369.7, 251.0)">e</text><text xml:space="preserve" font-family="GillSans,Gill Sans" font-size="91.0" fill="#FEFFFF" transform="matrix(1.00, 0.00, -0.00, -1.00, 413.3, 251.0)">e</text><text xml:space="preserve" font-family="GillSans,Gill Sans" font-size="91.0" fill="#FEFFFF" transform="matrix(1.00, 0.00, -0.00, -1.00, 456.9, 251.0)">d</text><text xml:space="preserve" font-family="GillSans,Gill Sans" font-size="91.0" fill="#FEFFFF" transform="matrix(1.00, 0.00, -0.00, -1.00, 503.2, 251.0)">b</text><text xml:space="preserve" font-family="GillSans,Gill Sans" font-size="91.0" fill="#FEFFFF" transform="matrix(1.00, 0.00, -0.00, -1.00, 548.7, 251.0)">a</text><text xml:space="preserve" font-family="GillSans,Gill Sans" font-size="91.0" fill="#FEFFFF" transform="matrix(1.00, 0.00, -0.00, -1.00, 587.5, 251.0)">c</text><text xml:space="preserve" font-family="GillSans,Gill Sans" font-size="91.0" fill="#FEFFFF" transform="matrix(1.00, 0.00, -0.00, -1.00, 627.4, 251.0)">k</text><text xml:space="preserve" font-family="GillSans,Gill Sans" font-size="91.0" fill="#FEFFFF" transform="matrix(1.00, 0.00, -0.00, -1.00, 671.0, 251.0)">!</text><text xml:space="preserve" font-family="GillSans,Gill Sans" font-size="91.0" fill="#FEFFFF" transform="matrix(1.00, 0.00, -0.00, -1.00, 695.7, 251.0)">	</text><text xml:space="preserve" font-family="GillSans,Gill Sans" font-size="91.0" fill="#FEFFFF" transform="matrix(1.00, 0.00, -0.00, -1.00, 723.7, 251.0)">
</text><text xml:space="preserve" font-family="GillSans,Gill Sans" font-size="91.0" fill="#FEFFFF" transform="matrix(1.00, 0.00, -0.00, -1.00, 723.7, 251.0)"></text><text xml:space="preserve" font-family="GillSans,Gill Sans" font-size="86.0" fill="#FEFFFF" transform="matrix(1.00, 0.00, -0.00, -1.00, 148.3, 150.8)">h</text><text xml:space="preserve" font-family="GillSans,Gill Sans" font-size="86.0" fill="#FEFFFF" transform="matrix(1.00, 0.00, -0.00, -1.00, 191.3, 150.8)">t</text><text xml:space="preserve" font-family="GillSans,Gill Sans" font-size="86.0" fill="#FEFFFF" transform="matrix(1.00, 0.00, -0.00, -1.00, 220.0, 150.8)">t</text><text xml:space="preserve" font-family="GillSans,Gill Sans" font-size="86.0" fill="#FEFFFF" transform="matrix(1.00, 0.00, -0.00, -1.00, 248.6, 150.8)">p</text><text xml:space="preserve" font-family="GillSans,Gill Sans" font-size="86.0" fill="#FEFFFF" transform="matrix(1.00, 0.00, -0.00, -1.00, 291.6, 150.8)">:</text><text xml:space="preserve" font-family="GillSans,Gill Sans" font-size="86.0" fill="#FEFFFF" transform="matrix(1.00, 0.00, -0.00, -1.00, 310.5, 150.8)">/</text><text xml:space="preserve" font-family="GillSans,Gill Sans" font-size="86.0" fill="#FEFFFF" transform="matrix(1.00, 0.00, -0.00, -1.00, 334.6, 150.8)">/</text><text xml:space="preserve" font-family="GillSans,Gill Sans" font-size="86.0" fill="#FEFFFF" transform="matrix(1.00, 0.00, -0.00, -1.00, 358.7, 150.8)">j</text><text xml:space="preserve" font-family="GillSans,Gill Sans" font-size="86.0" fill="#FEFFFF" transform="matrix(1.00, 0.00, -0.00, -1.00, 377.6, 150.8)">.</text><text xml:space="preserve" font-family="GillSans,Gill Sans" font-size="86.0" fill="#FEFFFF" transform="matrix(1.00, 0.00, -0.00, -1.00, 396.5, 150.8)">m</text><text xml:space="preserve" font-family="GillSans,Gill Sans" font-size="86.0" fill="#FEFFFF" transform="matrix(1.00, 0.00, -0.00, -1.00, 462.8, 150.8)">p</text><text xml:space="preserve" font-family="GillSans,Gill Sans" font-size="86.0" fill="#FEFFFF" transform="matrix(1.00, 0.00, -0.00, -1.00, 505.8, 150.8)">/</text><text xml:space="preserve" font-family="GillSans,Gill Sans" font-size="86.0" fill="#FEFFFF" transform="matrix(1.00, 0.00, -0.00, -1.00, 529.9, 150.8)">p</text><text xml:space="preserve" font-family="GillSans,Gill Sans" font-size="86.0" fill="#FEFFFF" transform="matrix(1.00, 0.00, -0.00, -1.00, 572.9, 150.8)">s</text><text xml:space="preserve" font-family="GillSans,Gill Sans" font-size="86.0" fill="#FEFFFF" transform="matrix(1.00, 0.00, -0.00, -1.00, 606.0, 150.8)">u</text><text xml:space="preserve" font-family="GillSans,Gill Sans" font-size="86.0" fill="#FEFFFF" transform="matrix(1.00, 0.00, -0.00, -1.00, 649.0, 150.8)">m</text><text xml:space="preserve" font-family="GillSans,Gill Sans" font-size="86.0" fill="#FEFFFF" transform="matrix(1.00, 0.00, -0.00, -1.00, 715.3, 150.8)">a</text><text xml:space="preserve" font-family="GillSans,Gill Sans" font-size="86.0" fill="#FEFFFF" transform="matrix(1.00, 0.00, -0.00, -1.00, 752.0, 150.8)">c</text><text xml:space="preserve" font-family="GillSans,Gill Sans" font-size="86.0" fill="#FEFFFF" transform="matrix(1.00, 0.00, -0.00, -1.00, 789.6, 150.8)">1</text><text xml:space="preserve" font-family="GillSans,Gill Sans" font-size="86.0" fill="#FEFFFF" transform="matrix(1.00, 0.00, -0.00, -1.00, 832.6, 150.8)">3</text><g><clipPath id="clip0x7f815d810020"><path d="M 147.3 141.2 L 875.7 141.2 L 875.7 147.5 L 147.3 147.5 Z M 147.3 141.2 "></path></clipPath><g clip-path="url(#clip0x7f815d810020)"><path d="M 48.9 378.6 L 776.2 378.6 " fill="none" stroke="#FEFFFF" stroke-width="4.28" transform="matrix(1.00, 0.00, 0.00, -1.00, 99.4, 523.0)"></path></g></g></g></svg>