<?xml version="1.0" encoding="UTF-8" standalone="no"?><svg xmlns="http://www.w3.org/2000/svg" xmlns:xlink="http://www.w3.org/1999/xlink" clip-rule="evenodd" stroke-miterlimit="10" viewBox="0 0 1024 768"><desc>SVG generated by Keynote</desc><defs></defs><g transform="matrix(1.00, 0.00, -0.00, -1.00, 0.0, 768.0)"><path d="M 0.0 768.0 L 1024.0 768.0 L 1024.0 0.0 L 0.0 0.0 Z M 0.0 768.0 " fill="#000000"></path><image xlink:href="../../ACF26528-510F-4087-92A7-D9431E4A7675/assets/C07D05C049E9C3A813AD52BFC7182A2D.png" width="983.00" height="584.00" transform="matrix(1.00, 0.00, -0.00, -1.00, 10.2, 664.7)" opacity="0.75"></image><image xlink:href="../../ACF26528-510F-4087-92A7-D9431E4A7675/assets/B8B89F8D2E49298F363D8341A9D067FB.png" width="963.00" height="564.00" transform="matrix(1.00, 0.00, -0.00, -1.00, 30.0, 666.0)"></image><text xml:space="preserve" font-family="LucidaGrande,Lucida Grande" font-size="22.0" fill="#FEFFFE" transform="matrix(1.00, 0.00, -0.00, -1.00, 332.4, 11.6)">F</text><text xml:space="preserve" font-family="LucidaGrande,Lucida Grande" font-size="22.0" fill="#FEFFFE" transform="matrix(1.00, 0.00, -0.00, -1.00, 344.2, 11.6)">e</text><text xml:space="preserve" font-family="LucidaGrande,Lucida Grande" font-size="22.0" fill="#FEFFFE" transform="matrix(1.00, 0.00, -0.00, -1.00, 356.4, 11.6)">e</text><text xml:space="preserve" font-family="LucidaGrande,Lucida Grande" font-size="22.0" fill="#FEFFFE" transform="matrix(1.00, 0.00, -0.00, -1.00, 368.7, 11.6)">d</text><text xml:space="preserve" font-family="LucidaGrande,Lucida Grande" font-size="22.0" fill="#FEFFFE" transform="matrix(1.00, 0.00, -0.00, -1.00, 382.5, 11.6)">b</text><text xml:space="preserve" font-family="LucidaGrande,Lucida Grande" font-size="22.0" fill="#FEFFFE" transform="matrix(1.00, 0.00, -0.00, -1.00, 396.4, 11.6)">a</text><text xml:space="preserve" font-family="LucidaGrande,Lucida Grande" font-size="22.0" fill="#FEFFFE" transform="matrix(1.00, 0.00, -0.00, -1.00, 408.5, 11.6)">c</text><text xml:space="preserve" font-family="LucidaGrande,Lucida Grande" font-size="22.0" fill="#FEFFFE" transform="matrix(1.00, 0.00, -0.00, -1.00, 419.8, 11.6)">k</text><text xml:space="preserve" font-family="LucidaGrande,Lucida Grande" font-size="22.0" fill="#FEFFFE" transform="matrix(1.00, 0.00, -0.00, -1.00, 432.7, 11.6)">:</text><text xml:space="preserve" font-family="LucidaGrande,Lucida Grande" font-size="22.0" fill="#FEFFFE" transform="matrix(1.00, 0.00, -0.00, -1.00, 439.6, 11.6)"> </text><text xml:space="preserve" font-family="LucidaGrande,Lucida Grande" font-size="22.0" fill="#FEFFFE" transform="matrix(1.00, 0.00, -0.00, -1.00, 446.6, 11.6)">h</text><text xml:space="preserve" font-family="LucidaGrande,Lucida Grande" font-size="22.0" fill="#FEFFFE" transform="matrix(1.00, 0.00, -0.00, -1.00, 460.2, 11.6)">t</text><text xml:space="preserve" font-family="LucidaGrande,Lucida Grande" font-size="22.0" fill="#FEFFFE" transform="matrix(1.00, 0.00, -0.00, -1.00, 468.4, 11.6)">t</text><text xml:space="preserve" font-family="LucidaGrande,Lucida Grande" font-size="22.0" fill="#FEFFFE" transform="matrix(1.00, 0.00, -0.00, -1.00, 476.7, 11.6)">p</text><text xml:space="preserve" font-family="LucidaGrande,Lucida Grande" font-size="22.0" fill="#FEFFFE" transform="matrix(1.00, 0.00, -0.00, -1.00, 490.5, 11.6)">:</text><text xml:space="preserve" font-family="LucidaGrande,Lucida Grande" font-size="22.0" fill="#FEFFFE" transform="matrix(1.00, 0.00, -0.00, -1.00, 497.5, 11.6)">/</text><text xml:space="preserve" font-family="LucidaGrande,Lucida Grande" font-size="22.0" fill="#FEFFFE" transform="matrix(1.00, 0.00, -0.00, -1.00, 509.0, 11.6)">/</text><text xml:space="preserve" font-family="LucidaGrande,Lucida Grande" font-size="22.0" fill="#FEFFFE" transform="matrix(1.00, 0.00, -0.00, -1.00, 520.6, 11.6)">j</text><text xml:space="preserve" font-family="LucidaGrande,Lucida Grande" font-size="22.0" fill="#FEFFFE" transform="matrix(1.00, 0.00, -0.00, -1.00, 527.3, 11.6)">.</text><text xml:space="preserve" font-family="LucidaGrande,Lucida Grande" font-size="22.0" fill="#FEFFFE" transform="matrix(1.00, 0.00, -0.00, -1.00, 534.3, 11.6)">m</text><text xml:space="preserve" font-family="LucidaGrande,Lucida Grande" font-size="22.0" fill="#FEFFFE" transform="matrix(1.00, 0.00, -0.00, -1.00, 554.8, 11.6)">p</text><text xml:space="preserve" font-family="LucidaGrande,Lucida Grande" font-size="22.0" fill="#FEFFFE" transform="matrix(1.00, 0.00, -0.00, -1.00, 568.6, 11.6)">/</text><text xml:space="preserve" font-family="LucidaGrande,Lucida Grande" font-size="22.0" fill="#FEFFFE" transform="matrix(1.00, 0.00, -0.00, -1.00, 580.2, 11.6)">p</text><text xml:space="preserve" font-family="LucidaGrande,Lucida Grande" font-size="22.0" fill="#FEFFFE" transform="matrix(1.00, 0.00, -0.00, -1.00, 594.0, 11.6)">s</text><text xml:space="preserve" font-family="LucidaGrande,Lucida Grande" font-size="22.0" fill="#FEFFFE" transform="matrix(1.00, 0.00, -0.00, -1.00, 605.3, 11.6)">u</text><text xml:space="preserve" font-family="LucidaGrande,Lucida Grande" font-size="22.0" fill="#FEFFFE" transform="matrix(1.00, 0.00, -0.00, -1.00, 618.9, 11.6)">m</text><text xml:space="preserve" font-family="LucidaGrande,Lucida Grande" font-size="22.0" fill="#FEFFFE" transform="matrix(1.00, 0.00, -0.00, -1.00, 639.4, 11.6)">a</text><text xml:space="preserve" font-family="LucidaGrande,Lucida Grande" font-size="22.0" fill="#FEFFFE" transform="matrix(1.00, 0.00, -0.00, -1.00, 651.6, 11.6)">c</text><text xml:space="preserve" font-family="LucidaGrande,Lucida Grande" font-size="22.0" fill="#FEFFFE" transform="matrix(1.00, 0.00, -0.00, -1.00, 662.9, 11.6)">1</text><text xml:space="preserve" font-family="LucidaGrande,Lucida Grande" font-size="22.0" fill="#FEFFFE" transform="matrix(1.00, 0.00, -0.00, -1.00, 676.8, 11.6)">3</text><text xml:space="preserve" font-family="Monaco,Monaco" font-size="30.0" fill="#37DE1B" transform="matrix(1.00, 0.00, -0.00, -1.00, 57.2, 598.3)">N</text><text xml:space="preserve" font-family="Monaco,Monaco" font-size="30.0" fill="#37DE1B" transform="matrix(1.00, 0.00, -0.00, -1.00, 75.2, 598.3)">A</text><text xml:space="preserve" font-family="Monaco,Monaco" font-size="30.0" fill="#37DE1B" transform="matrix(1.00, 0.00, -0.00, -1.00, 93.2, 598.3)">M</text><text xml:space="preserve" font-family="Monaco,Monaco" font-size="30.0" fill="#37DE1B" transform="matrix(1.00, 0.00, -0.00, -1.00, 111.2, 598.3)">E</text><text xml:space="preserve" font-family="Monaco,Monaco" font-size="30.0" fill="#37DE1B" transform="matrix(1.00, 0.00, -0.00, -1.00, 129.2, 598.3)">	</text><text xml:space="preserve" font-family="Monaco,Monaco" font-size="30.0" fill="#37DE1B" transform="matrix(1.00, 0.00, -0.00, -1.00, 57.2, 557.3)"> </text><text xml:space="preserve" font-family="Monaco,Monaco" font-size="30.0" fill="#37DE1B" transform="matrix(1.00, 0.00, -0.00, -1.00, 75.2, 557.3)"> </text><text xml:space="preserve" font-family="Monaco,Monaco" font-size="30.0" fill="#37DE1B" transform="matrix(1.00, 0.00, -0.00, -1.00, 93.2, 557.3)"> </text><text xml:space="preserve" font-family="Monaco,Monaco" font-size="30.0" fill="#37DE1B" transform="matrix(1.00, 0.00, -0.00, -1.00, 111.2, 557.3)"> </text><text xml:space="preserve" font-family="Monaco,Monaco" font-size="30.0" fill="#37DE1B" transform="matrix(1.00, 0.00, -0.00, -1.00, 129.2, 557.3)"> </text><text xml:space="preserve" font-family="Monaco,Monaco" font-size="30.0" fill="#37DE1B" transform="matrix(1.00, 0.00, -0.00, -1.00, 147.2, 557.3)">h</text><text xml:space="preserve" font-family="Monaco,Monaco" font-size="30.0" fill="#37DE1B" transform="matrix(1.00, 0.00, -0.00, -1.00, 165.2, 557.3)">d</text><text xml:space="preserve" font-family="Monaco,Monaco" font-size="30.0" fill="#37DE1B" transform="matrix(1.00, 0.00, -0.00, -1.00, 183.2, 557.3)">i</text><text xml:space="preserve" font-family="Monaco,Monaco" font-size="30.0" fill="#37DE1B" transform="matrix(1.00, 0.00, -0.00, -1.00, 201.2, 557.3)">u</text><text xml:space="preserve" font-family="Monaco,Monaco" font-size="30.0" fill="#37DE1B" transform="matrix(1.00, 0.00, -0.00, -1.00, 219.2, 557.3)">t</text><text xml:space="preserve" font-family="Monaco,Monaco" font-size="30.0" fill="#37DE1B" transform="matrix(1.00, 0.00, -0.00, -1.00, 237.2, 557.3)">i</text><text xml:space="preserve" font-family="Monaco,Monaco" font-size="30.0" fill="#37DE1B" transform="matrix(1.00, 0.00, -0.00, -1.00, 255.2, 557.3)">l</text><text xml:space="preserve" font-family="Monaco,Monaco" font-size="30.0" fill="#37DE1B" transform="matrix(1.00, 0.00, -0.00, -1.00, 273.2, 557.3)"> </text><text xml:space="preserve" font-family="Monaco,Monaco" font-size="30.0" fill="#37DE1B" transform="matrix(1.00, 0.00, -0.00, -1.00, 291.3, 557.3)">-</text><text xml:space="preserve" font-family="Monaco,Monaco" font-size="30.0" fill="#37DE1B" transform="matrix(1.00, 0.00, -0.00, -1.00, 309.3, 557.3)">-</text><text xml:space="preserve" font-family="Monaco,Monaco" font-size="30.0" fill="#37DE1B" transform="matrix(1.00, 0.00, -0.00, -1.00, 327.3, 557.3)"> </text><text xml:space="preserve" font-family="Monaco,Monaco" font-size="30.0" fill="#37DE1B" transform="matrix(1.00, 0.00, -0.00, -1.00, 345.3, 557.3)">m</text><text xml:space="preserve" font-family="Monaco,Monaco" font-size="30.0" fill="#37DE1B" transform="matrix(1.00, 0.00, -0.00, -1.00, 363.3, 557.3)">a</text><text xml:space="preserve" font-family="Monaco,Monaco" font-size="30.0" fill="#37DE1B" transform="matrix(1.00, 0.00, -0.00, -1.00, 381.3, 557.3)">n</text><text xml:space="preserve" font-family="Monaco,Monaco" font-size="30.0" fill="#37DE1B" transform="matrix(1.00, 0.00, -0.00, -1.00, 399.3, 557.3)">i</text><text xml:space="preserve" font-family="Monaco,Monaco" font-size="30.0" fill="#37DE1B" transform="matrix(1.00, 0.00, -0.00, -1.00, 417.3, 557.3)">p</text><text xml:space="preserve" font-family="Monaco,Monaco" font-size="30.0" fill="#37DE1B" transform="matrix(1.00, 0.00, -0.00, -1.00, 435.3, 557.3)">u</text><text xml:space="preserve" font-family="Monaco,Monaco" font-size="30.0" fill="#37DE1B" transform="matrix(1.00, 0.00, -0.00, -1.00, 453.3, 557.3)">l</text><text xml:space="preserve" font-family="Monaco,Monaco" font-size="30.0" fill="#37DE1B" transform="matrix(1.00, 0.00, -0.00, -1.00, 471.3, 557.3)">a</text><text xml:space="preserve" font-family="Monaco,Monaco" font-size="30.0" fill="#37DE1B" transform="matrix(1.00, 0.00, -0.00, -1.00, 489.3, 557.3)">t</text><text xml:space="preserve" font-family="Monaco,Monaco" font-size="30.0" fill="#37DE1B" transform="matrix(1.00, 0.00, -0.00, -1.00, 507.3, 557.3)">e</text><text xml:space="preserve" font-family="Monaco,Monaco" font-size="30.0" fill="#37DE1B" transform="matrix(1.00, 0.00, -0.00, -1.00, 525.3, 557.3)"> </text><text xml:space="preserve" font-family="Monaco,Monaco" font-size="30.0" fill="#37DE1B" transform="matrix(1.00, 0.00, -0.00, -1.00, 543.3, 557.3)">d</text><text xml:space="preserve" font-family="Monaco,Monaco" font-size="30.0" fill="#37DE1B" transform="matrix(1.00, 0.00, -0.00, -1.00, 561.3, 557.3)">i</text><text xml:space="preserve" font-family="Monaco,Monaco" font-size="30.0" fill="#37DE1B" transform="matrix(1.00, 0.00, -0.00, -1.00, 579.3, 557.3)">s</text><text xml:space="preserve" font-family="Monaco,Monaco" font-size="30.0" fill="#37DE1B" transform="matrix(1.00, 0.00, -0.00, -1.00, 597.4, 557.3)">k</text><text xml:space="preserve" font-family="Monaco,Monaco" font-size="30.0" fill="#37DE1B" transform="matrix(1.00, 0.00, -0.00, -1.00, 615.4, 557.3)"> </text><text xml:space="preserve" font-family="Monaco,Monaco" font-size="30.0" fill="#37DE1B" transform="matrix(1.00, 0.00, -0.00, -1.00, 633.4, 557.3)">i</text><text xml:space="preserve" font-family="Monaco,Monaco" font-size="30.0" fill="#37DE1B" transform="matrix(1.00, 0.00, -0.00, -1.00, 651.4, 557.3)">m</text><text xml:space="preserve" font-family="Monaco,Monaco" font-size="30.0" fill="#37DE1B" transform="matrix(1.00, 0.00, -0.00, -1.00, 669.4, 557.3)">a</text><text xml:space="preserve" font-family="Monaco,Monaco" font-size="30.0" fill="#37DE1B" transform="matrix(1.00, 0.00, -0.00, -1.00, 687.4, 557.3)">g</text><text xml:space="preserve" font-family="Monaco,Monaco" font-size="30.0" fill="#37DE1B" transform="matrix(1.00, 0.00, -0.00, -1.00, 705.4, 557.3)">e</text><text xml:space="preserve" font-family="Monaco,Monaco" font-size="30.0" fill="#37DE1B" transform="matrix(1.00, 0.00, -0.00, -1.00, 723.4, 557.3)">s</text><text xml:space="preserve" font-family="Monaco,Monaco" font-size="30.0" fill="#37DE1B" transform="matrix(1.00, 0.00, -0.00, -1.00, 741.4, 557.3)"> </text><text xml:space="preserve" font-family="Monaco,Monaco" font-size="30.0" fill="#37DE1B" transform="matrix(1.00, 0.00, -0.00, -1.00, 759.4, 557.3)">(</text><text xml:space="preserve" font-family="Monaco,Monaco" font-size="30.0" fill="#37DE1B" transform="matrix(1.00, 0.00, -0.00, -1.00, 777.4, 557.3)">a</text><text xml:space="preserve" font-family="Monaco,Monaco" font-size="30.0" fill="#37DE1B" transform="matrix(1.00, 0.00, -0.00, -1.00, 795.4, 557.3)">t</text><text xml:space="preserve" font-family="Monaco,Monaco" font-size="30.0" fill="#37DE1B" transform="matrix(1.00, 0.00, -0.00, -1.00, 813.4, 557.3)">t</text><text xml:space="preserve" font-family="Monaco,Monaco" font-size="30.0" fill="#37DE1B" transform="matrix(1.00, 0.00, -0.00, -1.00, 831.4, 557.3)">a</text><text xml:space="preserve" font-family="Monaco,Monaco" font-size="30.0" fill="#37DE1B" transform="matrix(1.00, 0.00, -0.00, -1.00, 849.4, 557.3)">c</text><text xml:space="preserve" font-family="Monaco,Monaco" font-size="30.0" fill="#37DE1B" transform="matrix(1.00, 0.00, -0.00, -1.00, 867.4, 557.3)">h</text><text xml:space="preserve" font-family="Monaco,Monaco" font-size="30.0" fill="#37DE1B" transform="matrix(1.00, 0.00, -0.00, -1.00, 885.4, 557.3)">,</text><text xml:space="preserve" font-family="Monaco,Monaco" font-size="30.0" fill="#37DE1B" transform="matrix(1.00, 0.00, -0.00, -1.00, 903.5, 557.3)"> </text><text xml:space="preserve" font-family="Monaco,Monaco" font-size="30.0" fill="#37DE1B" transform="matrix(1.00, 0.00, -0.00, -1.00, 57.2, 516.3)">v</text><text xml:space="preserve" font-family="Monaco,Monaco" font-size="30.0" fill="#37DE1B" transform="matrix(1.00, 0.00, -0.00, -1.00, 75.2, 516.3)">e</text><text xml:space="preserve" font-family="Monaco,Monaco" font-size="30.0" fill="#37DE1B" transform="matrix(1.00, 0.00, -0.00, -1.00, 93.2, 516.3)">r</text><text xml:space="preserve" font-family="Monaco,Monaco" font-size="30.0" fill="#37DE1B" transform="matrix(1.00, 0.00, -0.00, -1.00, 111.2, 516.3)">i</text><text xml:space="preserve" font-family="Monaco,Monaco" font-size="30.0" fill="#37DE1B" transform="matrix(1.00, 0.00, -0.00, -1.00, 129.2, 516.3)">f</text><text xml:space="preserve" font-family="Monaco,Monaco" font-size="30.0" fill="#37DE1B" transform="matrix(1.00, 0.00, -0.00, -1.00, 147.2, 516.3)">y</text><text xml:space="preserve" font-family="Monaco,Monaco" font-size="30.0" fill="#37DE1B" transform="matrix(1.00, 0.00, -0.00, -1.00, 165.2, 516.3)">,</text><text xml:space="preserve" font-family="Monaco,Monaco" font-size="30.0" fill="#37DE1B" transform="matrix(1.00, 0.00, -0.00, -1.00, 183.2, 516.3)"> </text><text xml:space="preserve" font-family="Monaco,Monaco" font-size="30.0" fill="#37DE1B" transform="matrix(1.00, 0.00, -0.00, -1.00, 201.2, 516.3)">b</text><text xml:space="preserve" font-family="Monaco,Monaco" font-size="30.0" fill="#37DE1B" transform="matrix(1.00, 0.00, -0.00, -1.00, 219.2, 516.3)">u</text><text xml:space="preserve" font-family="Monaco,Monaco" font-size="30.0" fill="#37DE1B" transform="matrix(1.00, 0.00, -0.00, -1.00, 237.2, 516.3)">r</text><text xml:space="preserve" font-family="Monaco,Monaco" font-size="30.0" fill="#37DE1B" transform="matrix(1.00, 0.00, -0.00, -1.00, 255.2, 516.3)">n</text><text xml:space="preserve" font-family="Monaco,Monaco" font-size="30.0" fill="#37DE1B" transform="matrix(1.00, 0.00, -0.00, -1.00, 273.2, 516.3)">,</text><text xml:space="preserve" font-family="Monaco,Monaco" font-size="30.0" fill="#37DE1B" transform="matrix(1.00, 0.00, -0.00, -1.00, 291.3, 516.3)"> </text><text xml:space="preserve" font-family="Monaco,Monaco" font-size="30.0" fill="#37DE1B" transform="matrix(1.00, 0.00, -0.00, -1.00, 309.3, 516.3)">e</text><text xml:space="preserve" font-family="Monaco,Monaco" font-size="30.0" fill="#37DE1B" transform="matrix(1.00, 0.00, -0.00, -1.00, 327.3, 516.3)">t</text><text xml:space="preserve" font-family="Monaco,Monaco" font-size="30.0" fill="#37DE1B" transform="matrix(1.00, 0.00, -0.00, -1.00, 345.3, 516.3)">c</text><text xml:space="preserve" font-family="Monaco,Monaco" font-size="30.0" fill="#37DE1B" transform="matrix(1.00, 0.00, -0.00, -1.00, 363.3, 516.3)">)</text><text xml:space="preserve" font-family="Monaco,Monaco" font-size="30.0" fill="#37DE1B" transform="matrix(1.00, 0.00, -0.00, -1.00, 381.3, 516.3)">	</text><text xml:space="preserve" font-family="Monaco,Monaco" font-size="30.0" fill="#37DE1B" transform="matrix(1.00, 0.00, -0.00, -1.00, 57.2, 434.3)">S</text><text xml:space="preserve" font-family="Monaco,Monaco" font-size="30.0" fill="#37DE1B" transform="matrix(1.00, 0.00, -0.00, -1.00, 75.2, 434.3)">Y</text><text xml:space="preserve" font-family="Monaco,Monaco" font-size="30.0" fill="#37DE1B" transform="matrix(1.00, 0.00, -0.00, -1.00, 93.2, 434.3)">N</text><text xml:space="preserve" font-family="Monaco,Monaco" font-size="30.0" fill="#37DE1B" transform="matrix(1.00, 0.00, -0.00, -1.00, 111.2, 434.3)">O</text><text xml:space="preserve" font-family="Monaco,Monaco" font-size="30.0" fill="#37DE1B" transform="matrix(1.00, 0.00, -0.00, -1.00, 129.2, 434.3)">P</text><text xml:space="preserve" font-family="Monaco,Monaco" font-size="30.0" fill="#37DE1B" transform="matrix(1.00, 0.00, -0.00, -1.00, 147.2, 434.3)">S</text><text xml:space="preserve" font-family="Monaco,Monaco" font-size="30.0" fill="#37DE1B" transform="matrix(1.00, 0.00, -0.00, -1.00, 165.2, 434.3)">I</text><text xml:space="preserve" font-family="Monaco,Monaco" font-size="30.0" fill="#37DE1B" transform="matrix(1.00, 0.00, -0.00, -1.00, 183.2, 434.3)">S</text><text xml:space="preserve" font-family="Monaco,Monaco" font-size="30.0" fill="#37DE1B" transform="matrix(1.00, 0.00, -0.00, -1.00, 201.2, 434.3)">	</text><text xml:space="preserve" font-family="Monaco,Monaco" font-size="30.0" fill="#37DE1B" transform="matrix(1.00, 0.00, -0.00, -1.00, 57.2, 393.3)"> </text><text xml:space="preserve" font-family="Monaco,Monaco" font-size="30.0" fill="#37DE1B" transform="matrix(1.00, 0.00, -0.00, -1.00, 75.2, 393.3)"> </text><text xml:space="preserve" font-family="Monaco,Monaco" font-size="30.0" fill="#37DE1B" transform="matrix(1.00, 0.00, -0.00, -1.00, 93.2, 393.3)"> </text><text xml:space="preserve" font-family="Monaco,Monaco" font-size="30.0" fill="#37DE1B" transform="matrix(1.00, 0.00, -0.00, -1.00, 111.2, 393.3)"> </text><text xml:space="preserve" font-family="Monaco,Monaco" font-size="30.0" fill="#37DE1B" transform="matrix(1.00, 0.00, -0.00, -1.00, 129.2, 393.3)"> </text><text xml:space="preserve" font-family="Monaco,Monaco" font-size="30.0" fill="#37DE1B" transform="matrix(1.00, 0.00, -0.00, -1.00, 147.2, 393.3)">h</text><text xml:space="preserve" font-family="Monaco,Monaco" font-size="30.0" fill="#37DE1B" transform="matrix(1.00, 0.00, -0.00, -1.00, 165.2, 393.3)">d</text><text xml:space="preserve" font-family="Monaco,Monaco" font-size="30.0" fill="#37DE1B" transform="matrix(1.00, 0.00, -0.00, -1.00, 183.2, 393.3)">i</text><text xml:space="preserve" font-family="Monaco,Monaco" font-size="30.0" fill="#37DE1B" transform="matrix(1.00, 0.00, -0.00, -1.00, 201.2, 393.3)">u</text><text xml:space="preserve" font-family="Monaco,Monaco" font-size="30.0" fill="#37DE1B" transform="matrix(1.00, 0.00, -0.00, -1.00, 219.2, 393.3)">t</text><text xml:space="preserve" font-family="Monaco,Monaco" font-size="30.0" fill="#37DE1B" transform="matrix(1.00, 0.00, -0.00, -1.00, 237.2, 393.3)">i</text><text xml:space="preserve" font-family="Monaco,Monaco" font-size="30.0" fill="#37DE1B" transform="matrix(1.00, 0.00, -0.00, -1.00, 255.2, 393.3)">l</text><text xml:space="preserve" font-family="Monaco,Monaco" font-size="30.0" fill="#37DE1B" transform="matrix(1.00, 0.00, -0.00, -1.00, 273.2, 393.3)"> </text><text xml:space="preserve" font-family="Monaco,Monaco" font-size="30.0" fill="#37DE1B" transform="matrix(1.00, 0.00, -0.00, -1.00, 291.3, 393.3)">v</text><text xml:space="preserve" font-family="Monaco,Monaco" font-size="30.0" fill="#37DE1B" transform="matrix(1.00, 0.00, -0.00, -1.00, 309.3, 393.3)">e</text><text xml:space="preserve" font-family="Monaco,Monaco" font-size="30.0" fill="#37DE1B" transform="matrix(1.00, 0.00, -0.00, -1.00, 327.3, 393.3)">r</text><text xml:space="preserve" font-family="Monaco,Monaco" font-size="30.0" fill="#37DE1B" transform="matrix(1.00, 0.00, -0.00, -1.00, 345.3, 393.3)">b</text><text xml:space="preserve" font-family="Monaco,Monaco" font-size="30.0" fill="#37DE1B" transform="matrix(1.00, 0.00, -0.00, -1.00, 363.3, 393.3)"> </text><text xml:space="preserve" font-family="Monaco,Monaco" font-size="30.0" fill="#37DE1B" transform="matrix(1.00, 0.00, -0.00, -1.00, 381.3, 393.3)">[</text><text xml:space="preserve" font-family="Monaco,Monaco" font-size="30.0" fill="#37DE1B" transform="matrix(1.00, 0.00, -0.00, -1.00, 399.3, 393.3)">o</text><text xml:space="preserve" font-family="Monaco,Monaco" font-size="30.0" fill="#37DE1B" transform="matrix(1.00, 0.00, -0.00, -1.00, 417.3, 393.3)">p</text><text xml:space="preserve" font-family="Monaco,Monaco" font-size="30.0" fill="#37DE1B" transform="matrix(1.00, 0.00, -0.00, -1.00, 435.3, 393.3)">t</text><text xml:space="preserve" font-family="Monaco,Monaco" font-size="30.0" fill="#37DE1B" transform="matrix(1.00, 0.00, -0.00, -1.00, 453.3, 393.3)">i</text><text xml:space="preserve" font-family="Monaco,Monaco" font-size="30.0" fill="#37DE1B" transform="matrix(1.00, 0.00, -0.00, -1.00, 471.3, 393.3)">o</text><text xml:space="preserve" font-family="Monaco,Monaco" font-size="30.0" fill="#37DE1B" transform="matrix(1.00, 0.00, -0.00, -1.00, 489.3, 393.3)">n</text><text xml:space="preserve" font-family="Monaco,Monaco" font-size="30.0" fill="#37DE1B" transform="matrix(1.00, 0.00, -0.00, -1.00, 507.3, 393.3)">s</text><text xml:space="preserve" font-family="Monaco,Monaco" font-size="30.0" fill="#37DE1B" transform="matrix(1.00, 0.00, -0.00, -1.00, 525.3, 393.3)">]</text><text xml:space="preserve" font-family="Monaco,Monaco" font-size="30.0" fill="#37DE1B" transform="matrix(1.00, 0.00, -0.00, -1.00, 543.3, 393.3)">	</text><text xml:space="preserve" font-family="Monaco,Monaco" font-size="30.0" fill="#37DE1B" transform="matrix(1.00, 0.00, -0.00, -1.00, 57.2, 311.3)">D</text><text xml:space="preserve" font-family="Monaco,Monaco" font-size="30.0" fill="#37DE1B" transform="matrix(1.00, 0.00, -0.00, -1.00, 75.2, 311.3)">E</text><text xml:space="preserve" font-family="Monaco,Monaco" font-size="30.0" fill="#37DE1B" transform="matrix(1.00, 0.00, -0.00, -1.00, 93.2, 311.3)">S</text><text xml:space="preserve" font-family="Monaco,Monaco" font-size="30.0" fill="#37DE1B" transform="matrix(1.00, 0.00, -0.00, -1.00, 111.2, 311.3)">C</text><text xml:space="preserve" font-family="Monaco,Monaco" font-size="30.0" fill="#37DE1B" transform="matrix(1.00, 0.00, -0.00, -1.00, 129.2, 311.3)">R</text><text xml:space="preserve" font-family="Monaco,Monaco" font-size="30.0" fill="#37DE1B" transform="matrix(1.00, 0.00, -0.00, -1.00, 147.2, 311.3)">I</text><text xml:space="preserve" font-family="Monaco,Monaco" font-size="30.0" fill="#37DE1B" transform="matrix(1.00, 0.00, -0.00, -1.00, 165.2, 311.3)">P</text><text xml:space="preserve" font-family="Monaco,Monaco" font-size="30.0" fill="#37DE1B" transform="matrix(1.00, 0.00, -0.00, -1.00, 183.2, 311.3)">T</text><text xml:space="preserve" font-family="Monaco,Monaco" font-size="30.0" fill="#37DE1B" transform="matrix(1.00, 0.00, -0.00, -1.00, 201.2, 311.3)">I</text><text xml:space="preserve" font-family="Monaco,Monaco" font-size="30.0" fill="#37DE1B" transform="matrix(1.00, 0.00, -0.00, -1.00, 219.2, 311.3)">O</text><text xml:space="preserve" font-family="Monaco,Monaco" font-size="30.0" fill="#37DE1B" transform="matrix(1.00, 0.00, -0.00, -1.00, 237.2, 311.3)">N</text><text xml:space="preserve" font-family="Monaco,Monaco" font-size="30.0" fill="#37DE1B" transform="matrix(1.00, 0.00, -0.00, -1.00, 255.2, 311.3)">	</text><text xml:space="preserve" font-family="Monaco,Monaco" font-size="30.0" fill="#37DE1B" transform="matrix(1.00, 0.00, -0.00, -1.00, 57.2, 270.3)"> </text><text xml:space="preserve" font-family="Monaco,Monaco" font-size="30.0" fill="#37DE1B" transform="matrix(1.00, 0.00, -0.00, -1.00, 75.2, 270.3)"> </text><text xml:space="preserve" font-family="Monaco,Monaco" font-size="30.0" fill="#37DE1B" transform="matrix(1.00, 0.00, -0.00, -1.00, 93.2, 270.3)"> </text><text xml:space="preserve" font-family="Monaco,Monaco" font-size="30.0" fill="#37DE1B" transform="matrix(1.00, 0.00, -0.00, -1.00, 111.2, 270.3)"> </text><text xml:space="preserve" font-family="Monaco,Monaco" font-size="30.0" fill="#37DE1B" transform="matrix(1.00, 0.00, -0.00, -1.00, 129.2, 270.3)"> </text><text xml:space="preserve" font-family="Monaco,Monaco" font-size="30.0" fill="#37DE1B" transform="matrix(1.00, 0.00, -0.00, -1.00, 147.2, 270.3)">h</text><text xml:space="preserve" font-family="Monaco,Monaco" font-size="30.0" fill="#37DE1B" transform="matrix(1.00, 0.00, -0.00, -1.00, 165.2, 270.3)">d</text><text xml:space="preserve" font-family="Monaco,Monaco" font-size="30.0" fill="#37DE1B" transform="matrix(1.00, 0.00, -0.00, -1.00, 183.2, 270.3)">i</text><text xml:space="preserve" font-family="Monaco,Monaco" font-size="30.0" fill="#37DE1B" transform="matrix(1.00, 0.00, -0.00, -1.00, 201.2, 270.3)">u</text><text xml:space="preserve" font-family="Monaco,Monaco" font-size="30.0" fill="#37DE1B" transform="matrix(1.00, 0.00, -0.00, -1.00, 219.2, 270.3)">t</text><text xml:space="preserve" font-family="Monaco,Monaco" font-size="30.0" fill="#37DE1B" transform="matrix(1.00, 0.00, -0.00, -1.00, 237.2, 270.3)">i</text><text xml:space="preserve" font-family="Monaco,Monaco" font-size="30.0" fill="#37DE1B" transform="matrix(1.00, 0.00, -0.00, -1.00, 255.2, 270.3)">l</text><text xml:space="preserve" font-family="Monaco,Monaco" font-size="30.0" fill="#37DE1B" transform="matrix(1.00, 0.00, -0.00, -1.00, 273.2, 270.3)"> </text><text xml:space="preserve" font-family="Monaco,Monaco" font-size="30.0" fill="#37DE1B" transform="matrix(1.00, 0.00, -0.00, -1.00, 291.3, 270.3)">u</text><text xml:space="preserve" font-family="Monaco,Monaco" font-size="30.0" fill="#37DE1B" transform="matrix(1.00, 0.00, -0.00, -1.00, 309.3, 270.3)">s</text><text xml:space="preserve" font-family="Monaco,Monaco" font-size="30.0" fill="#37DE1B" transform="matrix(1.00, 0.00, -0.00, -1.00, 327.3, 270.3)">e</text><text xml:space="preserve" font-family="Monaco,Monaco" font-size="30.0" fill="#37DE1B" transform="matrix(1.00, 0.00, -0.00, -1.00, 345.3, 270.3)">s</text><text xml:space="preserve" font-family="Monaco,Monaco" font-size="30.0" fill="#37DE1B" transform="matrix(1.00, 0.00, -0.00, -1.00, 363.3, 270.3)"> </text><text xml:space="preserve" font-family="Monaco,Monaco" font-size="30.0" fill="#37DE1B" transform="matrix(1.00, 0.00, -0.00, -1.00, 381.3, 270.3)">t</text><text xml:space="preserve" font-family="Monaco,Monaco" font-size="30.0" fill="#37DE1B" transform="matrix(1.00, 0.00, -0.00, -1.00, 399.3, 270.3)">h</text><text xml:space="preserve" font-family="Monaco,Monaco" font-size="30.0" fill="#37DE1B" transform="matrix(1.00, 0.00, -0.00, -1.00, 417.3, 270.3)">e</text><text xml:space="preserve" font-family="Monaco,Monaco" font-size="30.0" fill="#37DE1B" transform="matrix(1.00, 0.00, -0.00, -1.00, 435.3, 270.3)"> </text><text xml:space="preserve" font-family="Monaco,Monaco" font-size="30.0" fill="#37DE1B" transform="matrix(1.00, 0.00, -0.00, -1.00, 453.3, 270.3)">D</text><text xml:space="preserve" font-family="Monaco,Monaco" font-size="30.0" fill="#37DE1B" transform="matrix(1.00, 0.00, -0.00, -1.00, 471.3, 270.3)">i</text><text xml:space="preserve" font-family="Monaco,Monaco" font-size="30.0" fill="#37DE1B" transform="matrix(1.00, 0.00, -0.00, -1.00, 489.3, 270.3)">s</text><text xml:space="preserve" font-family="Monaco,Monaco" font-size="30.0" fill="#37DE1B" transform="matrix(1.00, 0.00, -0.00, -1.00, 507.3, 270.3)">k</text><text xml:space="preserve" font-family="Monaco,Monaco" font-size="30.0" fill="#37DE1B" transform="matrix(1.00, 0.00, -0.00, -1.00, 525.3, 270.3)">I</text><text xml:space="preserve" font-family="Monaco,Monaco" font-size="30.0" fill="#37DE1B" transform="matrix(1.00, 0.00, -0.00, -1.00, 543.3, 270.3)">m</text><text xml:space="preserve" font-family="Monaco,Monaco" font-size="30.0" fill="#37DE1B" transform="matrix(1.00, 0.00, -0.00, -1.00, 561.3, 270.3)">a</text><text xml:space="preserve" font-family="Monaco,Monaco" font-size="30.0" fill="#37DE1B" transform="matrix(1.00, 0.00, -0.00, -1.00, 579.3, 270.3)">g</text><text xml:space="preserve" font-family="Monaco,Monaco" font-size="30.0" fill="#37DE1B" transform="matrix(1.00, 0.00, -0.00, -1.00, 597.4, 270.3)">e</text><text xml:space="preserve" font-family="Monaco,Monaco" font-size="30.0" fill="#37DE1B" transform="matrix(1.00, 0.00, -0.00, -1.00, 615.4, 270.3)">s</text><text xml:space="preserve" font-family="Monaco,Monaco" font-size="30.0" fill="#37DE1B" transform="matrix(1.00, 0.00, -0.00, -1.00, 633.4, 270.3)"> </text><text xml:space="preserve" font-family="Monaco,Monaco" font-size="30.0" fill="#37DE1B" transform="matrix(1.00, 0.00, -0.00, -1.00, 651.4, 270.3)">f</text><text xml:space="preserve" font-family="Monaco,Monaco" font-size="30.0" fill="#37DE1B" transform="matrix(1.00, 0.00, -0.00, -1.00, 669.4, 270.3)">r</text><text xml:space="preserve" font-family="Monaco,Monaco" font-size="30.0" fill="#37DE1B" transform="matrix(1.00, 0.00, -0.00, -1.00, 687.4, 270.3)">a</text><text xml:space="preserve" font-family="Monaco,Monaco" font-size="30.0" fill="#37DE1B" transform="matrix(1.00, 0.00, -0.00, -1.00, 705.4, 270.3)">m</text><text xml:space="preserve" font-family="Monaco,Monaco" font-size="30.0" fill="#37DE1B" transform="matrix(1.00, 0.00, -0.00, -1.00, 723.4, 270.3)">e</text><text xml:space="preserve" font-family="Monaco,Monaco" font-size="30.0" fill="#37DE1B" transform="matrix(1.00, 0.00, -0.00, -1.00, 741.4, 270.3)">w</text><text xml:space="preserve" font-family="Monaco,Monaco" font-size="30.0" fill="#37DE1B" transform="matrix(1.00, 0.00, -0.00, -1.00, 759.4, 270.3)">o</text><text xml:space="preserve" font-family="Monaco,Monaco" font-size="30.0" fill="#37DE1B" transform="matrix(1.00, 0.00, -0.00, -1.00, 777.4, 270.3)">r</text><text xml:space="preserve" font-family="Monaco,Monaco" font-size="30.0" fill="#37DE1B" transform="matrix(1.00, 0.00, -0.00, -1.00, 795.4, 270.3)">k</text><text xml:space="preserve" font-family="Monaco,Monaco" font-size="30.0" fill="#37DE1B" transform="matrix(1.00, 0.00, -0.00, -1.00, 813.4, 270.3)"> </text><text xml:space="preserve" font-family="Monaco,Monaco" font-size="30.0" fill="#37DE1B" transform="matrix(1.00, 0.00, -0.00, -1.00, 831.4, 270.3)">t</text><text xml:space="preserve" font-family="Monaco,Monaco" font-size="30.0" fill="#37DE1B" transform="matrix(1.00, 0.00, -0.00, -1.00, 849.4, 270.3)">o</text><text xml:space="preserve" font-family="Monaco,Monaco" font-size="30.0" fill="#37DE1B" transform="matrix(1.00, 0.00, -0.00, -1.00, 867.4, 270.3)"> </text><text xml:space="preserve" font-family="Monaco,Monaco" font-size="30.0" fill="#37DE1B" transform="matrix(1.00, 0.00, -0.00, -1.00, 57.2, 229.3)">m</text><text xml:space="preserve" font-family="Monaco,Monaco" font-size="30.0" fill="#37DE1B" transform="matrix(1.00, 0.00, -0.00, -1.00, 75.2, 229.3)">a</text><text xml:space="preserve" font-family="Monaco,Monaco" font-size="30.0" fill="#37DE1B" transform="matrix(1.00, 0.00, -0.00, -1.00, 93.2, 229.3)">n</text><text xml:space="preserve" font-family="Monaco,Monaco" font-size="30.0" fill="#37DE1B" transform="matrix(1.00, 0.00, -0.00, -1.00, 111.2, 229.3)">i</text><text xml:space="preserve" font-family="Monaco,Monaco" font-size="30.0" fill="#37DE1B" transform="matrix(1.00, 0.00, -0.00, -1.00, 129.2, 229.3)">p</text><text xml:space="preserve" font-family="Monaco,Monaco" font-size="30.0" fill="#37DE1B" transform="matrix(1.00, 0.00, -0.00, -1.00, 147.2, 229.3)">u</text><text xml:space="preserve" font-family="Monaco,Monaco" font-size="30.0" fill="#37DE1B" transform="matrix(1.00, 0.00, -0.00, -1.00, 165.2, 229.3)">l</text><text xml:space="preserve" font-family="Monaco,Monaco" font-size="30.0" fill="#37DE1B" transform="matrix(1.00, 0.00, -0.00, -1.00, 183.2, 229.3)">a</text><text xml:space="preserve" font-family="Monaco,Monaco" font-size="30.0" fill="#37DE1B" transform="matrix(1.00, 0.00, -0.00, -1.00, 201.2, 229.3)">t</text><text xml:space="preserve" font-family="Monaco,Monaco" font-size="30.0" fill="#37DE1B" transform="matrix(1.00, 0.00, -0.00, -1.00, 219.2, 229.3)">e</text><text xml:space="preserve" font-family="Monaco,Monaco" font-size="30.0" fill="#37DE1B" transform="matrix(1.00, 0.00, -0.00, -1.00, 237.2, 229.3)"> </text><text xml:space="preserve" font-family="Monaco,Monaco" font-size="30.0" fill="#37DE1B" transform="matrix(1.00, 0.00, -0.00, -1.00, 255.2, 229.3)">d</text><text xml:space="preserve" font-family="Monaco,Monaco" font-size="30.0" fill="#37DE1B" transform="matrix(1.00, 0.00, -0.00, -1.00, 273.2, 229.3)">i</text><text xml:space="preserve" font-family="Monaco,Monaco" font-size="30.0" fill="#37DE1B" transform="matrix(1.00, 0.00, -0.00, -1.00, 291.3, 229.3)">s</text><text xml:space="preserve" font-family="Monaco,Monaco" font-size="30.0" fill="#37DE1B" transform="matrix(1.00, 0.00, -0.00, -1.00, 309.3, 229.3)">k</text><text xml:space="preserve" font-family="Monaco,Monaco" font-size="30.0" fill="#37DE1B" transform="matrix(1.00, 0.00, -0.00, -1.00, 327.3, 229.3)"> </text><text xml:space="preserve" font-family="Monaco,Monaco" font-size="30.0" fill="#37DE1B" transform="matrix(1.00, 0.00, -0.00, -1.00, 345.3, 229.3)">i</text><text xml:space="preserve" font-family="Monaco,Monaco" font-size="30.0" fill="#37DE1B" transform="matrix(1.00, 0.00, -0.00, -1.00, 363.3, 229.3)">m</text><text xml:space="preserve" font-family="Monaco,Monaco" font-size="30.0" fill="#37DE1B" transform="matrix(1.00, 0.00, -0.00, -1.00, 381.3, 229.3)">a</text><text xml:space="preserve" font-family="Monaco,Monaco" font-size="30.0" fill="#37DE1B" transform="matrix(1.00, 0.00, -0.00, -1.00, 399.3, 229.3)">g</text><text xml:space="preserve" font-family="Monaco,Monaco" font-size="30.0" fill="#37DE1B" transform="matrix(1.00, 0.00, -0.00, -1.00, 417.3, 229.3)">e</text><text xml:space="preserve" font-family="Monaco,Monaco" font-size="30.0" fill="#37DE1B" transform="matrix(1.00, 0.00, -0.00, -1.00, 435.3, 229.3)">s</text><text xml:space="preserve" font-family="Monaco,Monaco" font-size="30.0" fill="#37DE1B" transform="matrix(1.00, 0.00, -0.00, -1.00, 453.3, 229.3)">.</text><text xml:space="preserve" font-family="Monaco,Monaco" font-size="30.0" fill="#37DE1B" transform="matrix(1.00, 0.00, -0.00, -1.00, 471.3, 229.3)"> </text><text xml:space="preserve" font-family="Monaco,Monaco" font-size="30.0" fill="#37DE1B" transform="matrix(1.00, 0.00, -0.00, -1.00, 489.3, 229.3)"> </text><text xml:space="preserve" font-family="Monaco,Monaco" font-size="30.0" fill="#37DE1B" transform="matrix(1.00, 0.00, -0.00, -1.00, 507.3, 229.3)">C</text><text xml:space="preserve" font-family="Monaco,Monaco" font-size="30.0" fill="#37DE1B" transform="matrix(1.00, 0.00, -0.00, -1.00, 525.3, 229.3)">o</text><text xml:space="preserve" font-family="Monaco,Monaco" font-size="30.0" fill="#37DE1B" transform="matrix(1.00, 0.00, -0.00, -1.00, 543.3, 229.3)">m</text><text xml:space="preserve" font-family="Monaco,Monaco" font-size="30.0" fill="#37DE1B" transform="matrix(1.00, 0.00, -0.00, -1.00, 561.3, 229.3)">m</text><text xml:space="preserve" font-family="Monaco,Monaco" font-size="30.0" fill="#37DE1B" transform="matrix(1.00, 0.00, -0.00, -1.00, 579.3, 229.3)">o</text><text xml:space="preserve" font-family="Monaco,Monaco" font-size="30.0" fill="#37DE1B" transform="matrix(1.00, 0.00, -0.00, -1.00, 597.4, 229.3)">n</text><text xml:space="preserve" font-family="Monaco,Monaco" font-size="30.0" fill="#37DE1B" transform="matrix(1.00, 0.00, -0.00, -1.00, 615.4, 229.3)"> </text><text xml:space="preserve" font-family="Monaco,Monaco" font-size="30.0" fill="#37DE1B" transform="matrix(1.00, 0.00, -0.00, -1.00, 633.4, 229.3)">v</text><text xml:space="preserve" font-family="Monaco,Monaco" font-size="30.0" fill="#37DE1B" transform="matrix(1.00, 0.00, -0.00, -1.00, 651.4, 229.3)">e</text><text xml:space="preserve" font-family="Monaco,Monaco" font-size="30.0" fill="#37DE1B" transform="matrix(1.00, 0.00, -0.00, -1.00, 669.4, 229.3)">r</text><text xml:space="preserve" font-family="Monaco,Monaco" font-size="30.0" fill="#37DE1B" transform="matrix(1.00, 0.00, -0.00, -1.00, 687.4, 229.3)">b</text><text xml:space="preserve" font-family="Monaco,Monaco" font-size="30.0" fill="#37DE1B" transform="matrix(1.00, 0.00, -0.00, -1.00, 705.4, 229.3)">s</text><text xml:space="preserve" font-family="Monaco,Monaco" font-size="30.0" fill="#37DE1B" transform="matrix(1.00, 0.00, -0.00, -1.00, 723.4, 229.3)"> </text><text xml:space="preserve" font-family="Monaco,Monaco" font-size="30.0" fill="#37DE1B" transform="matrix(1.00, 0.00, -0.00, -1.00, 741.4, 229.3)">i</text><text xml:space="preserve" font-family="Monaco,Monaco" font-size="30.0" fill="#37DE1B" transform="matrix(1.00, 0.00, -0.00, -1.00, 759.4, 229.3)">n</text><text xml:space="preserve" font-family="Monaco,Monaco" font-size="30.0" fill="#37DE1B" transform="matrix(1.00, 0.00, -0.00, -1.00, 777.4, 229.3)">c</text><text xml:space="preserve" font-family="Monaco,Monaco" font-size="30.0" fill="#37DE1B" transform="matrix(1.00, 0.00, -0.00, -1.00, 795.4, 229.3)">l</text><text xml:space="preserve" font-family="Monaco,Monaco" font-size="30.0" fill="#37DE1B" transform="matrix(1.00, 0.00, -0.00, -1.00, 813.4, 229.3)">u</text><text xml:space="preserve" font-family="Monaco,Monaco" font-size="30.0" fill="#37DE1B" transform="matrix(1.00, 0.00, -0.00, -1.00, 831.4, 229.3)">d</text><text xml:space="preserve" font-family="Monaco,Monaco" font-size="30.0" fill="#37DE1B" transform="matrix(1.00, 0.00, -0.00, -1.00, 849.4, 229.3)">e</text><text xml:space="preserve" font-family="Monaco,Monaco" font-size="30.0" fill="#37DE1B" transform="matrix(1.00, 0.00, -0.00, -1.00, 867.4, 229.3)"> </text><text xml:space="preserve" font-family="Monaco,Monaco" font-size="30.0" fill="#37DE1B" transform="matrix(1.00, 0.00, -0.00, -1.00, 57.2, 188.3)">a</text><text xml:space="preserve" font-family="Monaco,Monaco" font-size="30.0" fill="#37DE1B" transform="matrix(1.00, 0.00, -0.00, -1.00, 75.2, 188.3)">t</text><text xml:space="preserve" font-family="Monaco,Monaco" font-size="30.0" fill="#37DE1B" transform="matrix(1.00, 0.00, -0.00, -1.00, 93.2, 188.3)">t</text><text xml:space="preserve" font-family="Monaco,Monaco" font-size="30.0" fill="#37DE1B" transform="matrix(1.00, 0.00, -0.00, -1.00, 111.2, 188.3)">a</text><text xml:space="preserve" font-family="Monaco,Monaco" font-size="30.0" fill="#37DE1B" transform="matrix(1.00, 0.00, -0.00, -1.00, 129.2, 188.3)">c</text><text xml:space="preserve" font-family="Monaco,Monaco" font-size="30.0" fill="#37DE1B" transform="matrix(1.00, 0.00, -0.00, -1.00, 147.2, 188.3)">h</text><text xml:space="preserve" font-family="Monaco,Monaco" font-size="30.0" fill="#37DE1B" transform="matrix(1.00, 0.00, -0.00, -1.00, 165.2, 188.3)">,</text><text xml:space="preserve" font-family="Monaco,Monaco" font-size="30.0" fill="#37DE1B" transform="matrix(1.00, 0.00, -0.00, -1.00, 183.2, 188.3)"> </text><text xml:space="preserve" font-family="Monaco,Monaco" font-size="30.0" fill="#37DE1B" transform="matrix(1.00, 0.00, -0.00, -1.00, 201.2, 188.3)">d</text><text xml:space="preserve" font-family="Monaco,Monaco" font-size="30.0" fill="#37DE1B" transform="matrix(1.00, 0.00, -0.00, -1.00, 219.2, 188.3)">e</text><text xml:space="preserve" font-family="Monaco,Monaco" font-size="30.0" fill="#37DE1B" transform="matrix(1.00, 0.00, -0.00, -1.00, 237.2, 188.3)">t</text><text xml:space="preserve" font-family="Monaco,Monaco" font-size="30.0" fill="#37DE1B" transform="matrix(1.00, 0.00, -0.00, -1.00, 255.2, 188.3)">a</text><text xml:space="preserve" font-family="Monaco,Monaco" font-size="30.0" fill="#37DE1B" transform="matrix(1.00, 0.00, -0.00, -1.00, 273.2, 188.3)">c</text><text xml:space="preserve" font-family="Monaco,Monaco" font-size="30.0" fill="#37DE1B" transform="matrix(1.00, 0.00, -0.00, -1.00, 291.3, 188.3)">h</text><text xml:space="preserve" font-family="Monaco,Monaco" font-size="30.0" fill="#37DE1B" transform="matrix(1.00, 0.00, -0.00, -1.00, 309.3, 188.3)">,</text><text xml:space="preserve" font-family="Monaco,Monaco" font-size="30.0" fill="#37DE1B" transform="matrix(1.00, 0.00, -0.00, -1.00, 327.3, 188.3)"> </text><text xml:space="preserve" font-family="Monaco,Monaco" font-size="30.0" fill="#37DE1B" transform="matrix(1.00, 0.00, -0.00, -1.00, 345.3, 188.3)">v</text><text xml:space="preserve" font-family="Monaco,Monaco" font-size="30.0" fill="#37DE1B" transform="matrix(1.00, 0.00, -0.00, -1.00, 363.3, 188.3)">e</text><text xml:space="preserve" font-family="Monaco,Monaco" font-size="30.0" fill="#37DE1B" transform="matrix(1.00, 0.00, -0.00, -1.00, 381.3, 188.3)">r</text><text xml:space="preserve" font-family="Monaco,Monaco" font-size="30.0" fill="#37DE1B" transform="matrix(1.00, 0.00, -0.00, -1.00, 399.3, 188.3)">i</text><text xml:space="preserve" font-family="Monaco,Monaco" font-size="30.0" fill="#37DE1B" transform="matrix(1.00, 0.00, -0.00, -1.00, 417.3, 188.3)">f</text><text xml:space="preserve" font-family="Monaco,Monaco" font-size="30.0" fill="#37DE1B" transform="matrix(1.00, 0.00, -0.00, -1.00, 435.3, 188.3)">y</text><text xml:space="preserve" font-family="Monaco,Monaco" font-size="30.0" fill="#37DE1B" transform="matrix(1.00, 0.00, -0.00, -1.00, 453.3, 188.3)">,</text><text xml:space="preserve" font-family="Monaco,Monaco" font-size="30.0" fill="#37DE1B" transform="matrix(1.00, 0.00, -0.00, -1.00, 471.3, 188.3)"> </text><text xml:space="preserve" font-family="Monaco,Monaco" font-size="30.0" fill="#37DE1B" transform="matrix(1.00, 0.00, -0.00, -1.00, 489.3, 188.3)">c</text><text xml:space="preserve" font-family="Monaco,Monaco" font-size="30.0" fill="#37DE1B" transform="matrix(1.00, 0.00, -0.00, -1.00, 507.3, 188.3)">r</text><text xml:space="preserve" font-family="Monaco,Monaco" font-size="30.0" fill="#37DE1B" transform="matrix(1.00, 0.00, -0.00, -1.00, 525.3, 188.3)">e</text><text xml:space="preserve" font-family="Monaco,Monaco" font-size="30.0" fill="#37DE1B" transform="matrix(1.00, 0.00, -0.00, -1.00, 543.3, 188.3)">a</text><text xml:space="preserve" font-family="Monaco,Monaco" font-size="30.0" fill="#37DE1B" transform="matrix(1.00, 0.00, -0.00, -1.00, 561.3, 188.3)">t</text><text xml:space="preserve" font-family="Monaco,Monaco" font-size="30.0" fill="#37DE1B" transform="matrix(1.00, 0.00, -0.00, -1.00, 579.3, 188.3)">e</text><text xml:space="preserve" font-family="Monaco,Monaco" font-size="30.0" fill="#37DE1B" transform="matrix(1.00, 0.00, -0.00, -1.00, 597.4, 188.3)">,</text><text xml:space="preserve" font-family="Monaco,Monaco" font-size="30.0" fill="#37DE1B" transform="matrix(1.00, 0.00, -0.00, -1.00, 615.4, 188.3)"> </text><text xml:space="preserve" font-family="Monaco,Monaco" font-size="30.0" fill="#37DE1B" transform="matrix(1.00, 0.00, -0.00, -1.00, 633.4, 188.3)">c</text><text xml:space="preserve" font-family="Monaco,Monaco" font-size="30.0" fill="#37DE1B" transform="matrix(1.00, 0.00, -0.00, -1.00, 651.4, 188.3)">o</text><text xml:space="preserve" font-family="Monaco,Monaco" font-size="30.0" fill="#37DE1B" transform="matrix(1.00, 0.00, -0.00, -1.00, 669.4, 188.3)">n</text><text xml:space="preserve" font-family="Monaco,Monaco" font-size="30.0" fill="#37DE1B" transform="matrix(1.00, 0.00, -0.00, -1.00, 687.4, 188.3)">v</text><text xml:space="preserve" font-family="Monaco,Monaco" font-size="30.0" fill="#37DE1B" transform="matrix(1.00, 0.00, -0.00, -1.00, 705.4, 188.3)">e</text><text xml:space="preserve" font-family="Monaco,Monaco" font-size="30.0" fill="#37DE1B" transform="matrix(1.00, 0.00, -0.00, -1.00, 723.4, 188.3)">r</text><text xml:space="preserve" font-family="Monaco,Monaco" font-size="30.0" fill="#37DE1B" transform="matrix(1.00, 0.00, -0.00, -1.00, 741.4, 188.3)">t</text><text xml:space="preserve" font-family="Monaco,Monaco" font-size="30.0" fill="#37DE1B" transform="matrix(1.00, 0.00, -0.00, -1.00, 759.4, 188.3)">,</text><text xml:space="preserve" font-family="Monaco,Monaco" font-size="30.0" fill="#37DE1B" transform="matrix(1.00, 0.00, -0.00, -1.00, 777.4, 188.3)"> </text><text xml:space="preserve" font-family="Monaco,Monaco" font-size="30.0" fill="#37DE1B" transform="matrix(1.00, 0.00, -0.00, -1.00, 795.3, 188.3)">c</text><text xml:space="preserve" font-family="Monaco,Monaco" font-size="30.0" fill="#37DE1B" transform="matrix(1.00, 0.00, -0.00, -1.00, 813.3, 188.3)">o</text><text xml:space="preserve" font-family="Monaco,Monaco" font-size="30.0" fill="#37DE1B" transform="matrix(1.00, 0.00, -0.00, -1.00, 831.3, 188.3)">m</text><text xml:space="preserve" font-family="Monaco,Monaco" font-size="30.0" fill="#37DE1B" transform="matrix(1.00, 0.00, -0.00, -1.00, 849.3, 188.3)">p</text><text xml:space="preserve" font-family="Monaco,Monaco" font-size="30.0" fill="#37DE1B" transform="matrix(1.00, 0.00, -0.00, -1.00, 867.3, 188.3)">a</text><text xml:space="preserve" font-family="Monaco,Monaco" font-size="30.0" fill="#37DE1B" transform="matrix(1.00, 0.00, -0.00, -1.00, 885.3, 188.3)">c</text><text xml:space="preserve" font-family="Monaco,Monaco" font-size="30.0" fill="#37DE1B" transform="matrix(1.00, 0.00, -0.00, -1.00, 903.3, 188.3)">t</text><text xml:space="preserve" font-family="Monaco,Monaco" font-size="30.0" fill="#37DE1B" transform="matrix(1.00, 0.00, -0.00, -1.00, 921.3, 188.3)">,</text><text xml:space="preserve" font-family="Monaco,Monaco" font-size="30.0" fill="#37DE1B" transform="matrix(1.00, 0.00, -0.00, -1.00, 939.3, 188.3)"> </text><text xml:space="preserve" font-family="Monaco,Monaco" font-size="30.0" fill="#37DE1B" transform="matrix(1.00, 0.00, -0.00, -1.00, 57.2, 147.3)">a</text><text xml:space="preserve" font-family="Monaco,Monaco" font-size="30.0" fill="#37DE1B" transform="matrix(1.00, 0.00, -0.00, -1.00, 75.2, 147.3)">n</text><text xml:space="preserve" font-family="Monaco,Monaco" font-size="30.0" fill="#37DE1B" transform="matrix(1.00, 0.00, -0.00, -1.00, 93.2, 147.3)">d</text><text xml:space="preserve" font-family="Monaco,Monaco" font-size="30.0" fill="#37DE1B" transform="matrix(1.00, 0.00, -0.00, -1.00, 111.2, 147.3)"> </text><text xml:space="preserve" font-family="Monaco,Monaco" font-size="30.0" fill="#37DE1B" transform="matrix(1.00, 0.00, -0.00, -1.00, 129.2, 147.3)">b</text><text xml:space="preserve" font-family="Monaco,Monaco" font-size="30.0" fill="#37DE1B" transform="matrix(1.00, 0.00, -0.00, -1.00, 147.2, 147.3)">u</text><text xml:space="preserve" font-family="Monaco,Monaco" font-size="30.0" fill="#37DE1B" transform="matrix(1.00, 0.00, -0.00, -1.00, 165.2, 147.3)">r</text><text xml:space="preserve" font-family="Monaco,Monaco" font-size="30.0" fill="#37DE1B" transform="matrix(1.00, 0.00, -0.00, -1.00, 183.2, 147.3)">n</text><text xml:space="preserve" font-family="Monaco,Monaco" font-size="30.0" fill="#37DE1B" transform="matrix(1.00, 0.00, -0.00, -1.00, 201.2, 147.3)">.</text></g></svg>