<?xml version="1.0" encoding="UTF-8" standalone="no"?><svg xmlns="http://www.w3.org/2000/svg" xmlns:xlink="http://www.w3.org/1999/xlink" clip-rule="evenodd" stroke-miterlimit="10" viewBox="0 0 1024 768"><desc>SVG generated by Keynote</desc><defs></defs><g transform="matrix(1.00, 0.00, -0.00, -1.00, 0.0, 768.0)"><path d="M 0.0 768.0 L 1024.0 768.0 L 1024.0 0.0 L 0.0 0.0 Z M 0.0 768.0 " fill="#000000"></path><image xlink:href="../../ACF26528-510F-4087-92A7-D9431E4A7675/assets/C07D05C049E9C3A813AD52BFC7182A2D.png" width="983.00" height="584.00" transform="matrix(1.00, 0.00, -0.00, -1.00, 10.2, 664.7)" opacity="0.75"></image><image xlink:href="../../ACF26528-510F-4087-92A7-D9431E4A7675/assets/B8B89F8D2E49298F363D8341A9D067FB.png" width="963.00" height="564.00" transform="matrix(1.00, 0.00, -0.00, -1.00, 30.0, 666.0)"></image><text xml:space="preserve" font-family="LucidaGrande,Lucida Grande" font-size="22.0" fill="#FEFFFE" transform="matrix(1.00, 0.00, -0.00, -1.00, 332.4, 11.6)">F</text><text xml:space="preserve" font-family="LucidaGrande,Lucida Grande" font-size="22.0" fill="#FEFFFE" transform="matrix(1.00, 0.00, -0.00, -1.00, 344.2, 11.6)">e</text><text xml:space="preserve" font-family="LucidaGrande,Lucida Grande" font-size="22.0" fill="#FEFFFE" transform="matrix(1.00, 0.00, -0.00, -1.00, 356.4, 11.6)">e</text><text xml:space="preserve" font-family="LucidaGrande,Lucida Grande" font-size="22.0" fill="#FEFFFE" transform="matrix(1.00, 0.00, -0.00, -1.00, 368.7, 11.6)">d</text><text xml:space="preserve" font-family="LucidaGrande,Lucida Grande" font-size="22.0" fill="#FEFFFE" transform="matrix(1.00, 0.00, -0.00, -1.00, 382.5, 11.6)">b</text><text xml:space="preserve" font-family="LucidaGrande,Lucida Grande" font-size="22.0" fill="#FEFFFE" transform="matrix(1.00, 0.00, -0.00, -1.00, 396.4, 11.6)">a</text><text xml:space="preserve" font-family="LucidaGrande,Lucida Grande" font-size="22.0" fill="#FEFFFE" transform="matrix(1.00, 0.00, -0.00, -1.00, 408.5, 11.6)">c</text><text xml:space="preserve" font-family="LucidaGrande,Lucida Grande" font-size="22.0" fill="#FEFFFE" transform="matrix(1.00, 0.00, -0.00, -1.00, 419.8, 11.6)">k</text><text xml:space="preserve" font-family="LucidaGrande,Lucida Grande" font-size="22.0" fill="#FEFFFE" transform="matrix(1.00, 0.00, -0.00, -1.00, 432.7, 11.6)">:</text><text xml:space="preserve" font-family="LucidaGrande,Lucida Grande" font-size="22.0" fill="#FEFFFE" transform="matrix(1.00, 0.00, -0.00, -1.00, 439.6, 11.6)"> </text><text xml:space="preserve" font-family="LucidaGrande,Lucida Grande" font-size="22.0" fill="#FEFFFE" transform="matrix(1.00, 0.00, -0.00, -1.00, 446.6, 11.6)">h</text><text xml:space="preserve" font-family="LucidaGrande,Lucida Grande" font-size="22.0" fill="#FEFFFE" transform="matrix(1.00, 0.00, -0.00, -1.00, 460.2, 11.6)">t</text><text xml:space="preserve" font-family="LucidaGrande,Lucida Grande" font-size="22.0" fill="#FEFFFE" transform="matrix(1.00, 0.00, -0.00, -1.00, 468.4, 11.6)">t</text><text xml:space="preserve" font-family="LucidaGrande,Lucida Grande" font-size="22.0" fill="#FEFFFE" transform="matrix(1.00, 0.00, -0.00, -1.00, 476.7, 11.6)">p</text><text xml:space="preserve" font-family="LucidaGrande,Lucida Grande" font-size="22.0" fill="#FEFFFE" transform="matrix(1.00, 0.00, -0.00, -1.00, 490.5, 11.6)">:</text><text xml:space="preserve" font-family="LucidaGrande,Lucida Grande" font-size="22.0" fill="#FEFFFE" transform="matrix(1.00, 0.00, -0.00, -1.00, 497.5, 11.6)">/</text><text xml:space="preserve" font-family="LucidaGrande,Lucida Grande" font-size="22.0" fill="#FEFFFE" transform="matrix(1.00, 0.00, -0.00, -1.00, 509.0, 11.6)">/</text><text xml:space="preserve" font-family="LucidaGrande,Lucida Grande" font-size="22.0" fill="#FEFFFE" transform="matrix(1.00, 0.00, -0.00, -1.00, 520.6, 11.6)">j</text><text xml:space="preserve" font-family="LucidaGrande,Lucida Grande" font-size="22.0" fill="#FEFFFE" transform="matrix(1.00, 0.00, -0.00, -1.00, 527.3, 11.6)">.</text><text xml:space="preserve" font-family="LucidaGrande,Lucida Grande" font-size="22.0" fill="#FEFFFE" transform="matrix(1.00, 0.00, -0.00, -1.00, 534.3, 11.6)">m</text><text xml:space="preserve" font-family="LucidaGrande,Lucida Grande" font-size="22.0" fill="#FEFFFE" transform="matrix(1.00, 0.00, -0.00, -1.00, 554.8, 11.6)">p</text><text xml:space="preserve" font-family="LucidaGrande,Lucida Grande" font-size="22.0" fill="#FEFFFE" transform="matrix(1.00, 0.00, -0.00, -1.00, 568.6, 11.6)">/</text><text xml:space="preserve" font-family="LucidaGrande,Lucida Grande" font-size="22.0" fill="#FEFFFE" transform="matrix(1.00, 0.00, -0.00, -1.00, 580.2, 11.6)">p</text><text xml:space="preserve" font-family="LucidaGrande,Lucida Grande" font-size="22.0" fill="#FEFFFE" transform="matrix(1.00, 0.00, -0.00, -1.00, 594.0, 11.6)">s</text><text xml:space="preserve" font-family="LucidaGrande,Lucida Grande" font-size="22.0" fill="#FEFFFE" transform="matrix(1.00, 0.00, -0.00, -1.00, 605.3, 11.6)">u</text><text xml:space="preserve" font-family="LucidaGrande,Lucida Grande" font-size="22.0" fill="#FEFFFE" transform="matrix(1.00, 0.00, -0.00, -1.00, 618.9, 11.6)">m</text><text xml:space="preserve" font-family="LucidaGrande,Lucida Grande" font-size="22.0" fill="#FEFFFE" transform="matrix(1.00, 0.00, -0.00, -1.00, 639.4, 11.6)">a</text><text xml:space="preserve" font-family="LucidaGrande,Lucida Grande" font-size="22.0" fill="#FEFFFE" transform="matrix(1.00, 0.00, -0.00, -1.00, 651.6, 11.6)">c</text><text xml:space="preserve" font-family="LucidaGrande,Lucida Grande" font-size="22.0" fill="#FEFFFE" transform="matrix(1.00, 0.00, -0.00, -1.00, 662.9, 11.6)">1</text><text xml:space="preserve" font-family="LucidaGrande,Lucida Grande" font-size="22.0" fill="#FEFFFE" transform="matrix(1.00, 0.00, -0.00, -1.00, 676.8, 11.6)">3</text><text xml:space="preserve" font-family="Monaco,Monaco" font-size="32.0" fill="#37DE1B" transform="matrix(1.00, 0.00, -0.00, -1.00, 57.2, 566.2)">$</text><text xml:space="preserve" font-family="Monaco,Monaco" font-size="32.0" fill="#37DE1B" transform="matrix(1.00, 0.00, -0.00, -1.00, 76.4, 566.2)"> </text><text xml:space="preserve" font-family="Monaco,Monaco" font-size="32.0" fill="#37DE1B" transform="matrix(1.00, 0.00, -0.00, -1.00, 95.6, 566.2)">b</text><text xml:space="preserve" font-family="Monaco,Monaco" font-size="32.0" fill="#37DE1B" transform="matrix(1.00, 0.00, -0.00, -1.00, 114.8, 566.2)">a</text><text xml:space="preserve" font-family="Monaco,Monaco" font-size="32.0" fill="#37DE1B" transform="matrix(1.00, 0.00, -0.00, -1.00, 134.0, 566.2)">s</text><text xml:space="preserve" font-family="Monaco,Monaco" font-size="32.0" fill="#37DE1B" transform="matrix(1.00, 0.00, -0.00, -1.00, 153.2, 566.2)">h</text><text xml:space="preserve" font-family="Monaco,Monaco" font-size="32.0" fill="#37DE1B" transform="matrix(1.00, 0.00, -0.00, -1.00, 172.4, 566.2)"> </text><text xml:space="preserve" font-family="Monaco,Monaco" font-size="32.0" fill="#37DE1B" transform="matrix(1.00, 0.00, -0.00, -1.00, 191.6, 566.2)">h</text><text xml:space="preserve" font-family="Monaco,Monaco" font-size="32.0" fill="#37DE1B" transform="matrix(1.00, 0.00, -0.00, -1.00, 210.8, 566.2)">e</text><text xml:space="preserve" font-family="Monaco,Monaco" font-size="32.0" fill="#37DE1B" transform="matrix(1.00, 0.00, -0.00, -1.00, 230.0, 566.2)">l</text><text xml:space="preserve" font-family="Monaco,Monaco" font-size="32.0" fill="#37DE1B" transform="matrix(1.00, 0.00, -0.00, -1.00, 249.2, 566.2)">l</text><text xml:space="preserve" font-family="Monaco,Monaco" font-size="32.0" fill="#37DE1B" transform="matrix(1.00, 0.00, -0.00, -1.00, 268.4, 566.2)">o</text><text xml:space="preserve" font-family="Monaco,Monaco" font-size="32.0" fill="#37DE1B" transform="matrix(1.00, 0.00, -0.00, -1.00, 287.6, 566.2)">.</text><text xml:space="preserve" font-family="Monaco,Monaco" font-size="32.0" fill="#37DE1B" transform="matrix(1.00, 0.00, -0.00, -1.00, 306.9, 566.2)">s</text><text xml:space="preserve" font-family="Monaco,Monaco" font-size="32.0" fill="#37DE1B" transform="matrix(1.00, 0.00, -0.00, -1.00, 326.1, 566.2)">h</text><text xml:space="preserve" font-family="Monaco,Monaco" font-size="32.0" fill="#37DE1B" transform="matrix(1.00, 0.00, -0.00, -1.00, 345.3, 566.2)">	</text><text xml:space="preserve" font-family="Monaco,Monaco" font-size="32.0" fill="#37DE1B" transform="matrix(1.00, 0.00, -0.00, -1.00, 57.2, 523.2)"> </text><text xml:space="preserve" font-family="Monaco,Monaco" font-size="32.0" fill="#37DE1B" transform="matrix(1.00, 0.00, -0.00, -1.00, 76.4, 523.2)"> </text><text xml:space="preserve" font-family="Monaco,Monaco" font-size="32.0" fill="#37DE1B" transform="matrix(1.00, 0.00, -0.00, -1.00, 95.6, 523.2)">h</text><text xml:space="preserve" font-family="Monaco,Monaco" font-size="32.0" fill="#37DE1B" transform="matrix(1.00, 0.00, -0.00, -1.00, 114.8, 523.2)">e</text><text xml:space="preserve" font-family="Monaco,Monaco" font-size="32.0" fill="#37DE1B" transform="matrix(1.00, 0.00, -0.00, -1.00, 134.0, 523.2)">l</text><text xml:space="preserve" font-family="Monaco,Monaco" font-size="32.0" fill="#37DE1B" transform="matrix(1.00, 0.00, -0.00, -1.00, 153.2, 523.2)">l</text><text xml:space="preserve" font-family="Monaco,Monaco" font-size="32.0" fill="#37DE1B" transform="matrix(1.00, 0.00, -0.00, -1.00, 172.4, 523.2)">o</text><text xml:space="preserve" font-family="Monaco,Monaco" font-size="32.0" fill="#37DE1B" transform="matrix(1.00, 0.00, -0.00, -1.00, 191.6, 523.2)"> </text><text xml:space="preserve" font-family="Monaco,Monaco" font-size="32.0" fill="#37DE1B" transform="matrix(1.00, 0.00, -0.00, -1.00, 210.8, 523.2)">M</text><text xml:space="preserve" font-family="Monaco,Monaco" font-size="32.0" fill="#37DE1B" transform="matrix(1.00, 0.00, -0.00, -1.00, 230.0, 523.2)">a</text><text xml:space="preserve" font-family="Monaco,Monaco" font-size="32.0" fill="#37DE1B" transform="matrix(1.00, 0.00, -0.00, -1.00, 249.2, 523.2)">c</text><text xml:space="preserve" font-family="Monaco,Monaco" font-size="32.0" fill="#37DE1B" transform="matrix(1.00, 0.00, -0.00, -1.00, 268.4, 523.2)">A</text><text xml:space="preserve" font-family="Monaco,Monaco" font-size="32.0" fill="#37DE1B" transform="matrix(1.00, 0.00, -0.00, -1.00, 287.7, 523.2)">d</text><text xml:space="preserve" font-family="Monaco,Monaco" font-size="32.0" fill="#37DE1B" transform="matrix(1.00, 0.00, -0.00, -1.00, 306.9, 523.2)">m</text><text xml:space="preserve" font-family="Monaco,Monaco" font-size="32.0" fill="#37DE1B" transform="matrix(1.00, 0.00, -0.00, -1.00, 326.1, 523.2)">i</text><text xml:space="preserve" font-family="Monaco,Monaco" font-size="32.0" fill="#37DE1B" transform="matrix(1.00, 0.00, -0.00, -1.00, 345.3, 523.2)">n</text><text xml:space="preserve" font-family="Monaco,Monaco" font-size="32.0" fill="#37DE1B" transform="matrix(1.00, 0.00, -0.00, -1.00, 364.5, 523.2)">s</text><text xml:space="preserve" font-family="Monaco,Monaco" font-size="32.0" fill="#37DE1B" transform="matrix(1.00, 0.00, -0.00, -1.00, 383.7, 523.2)">	</text><text xml:space="preserve" font-family="Monaco,Monaco" font-size="32.0" fill="#37DE1B" transform="matrix(1.00, 0.00, -0.00, -1.00, 57.2, 437.2)">$</text><text xml:space="preserve" font-family="Monaco,Monaco" font-size="32.0" fill="#37DE1B" transform="matrix(1.00, 0.00, -0.00, -1.00, 76.4, 437.2)"> </text><text xml:space="preserve" font-family="Monaco,Monaco" font-size="32.0" fill="#37DE1B" transform="matrix(1.00, 0.00, -0.00, -1.00, 95.6, 437.2)">.</text><text xml:space="preserve" font-family="Monaco,Monaco" font-size="32.0" fill="#37DE1B" transform="matrix(1.00, 0.00, -0.00, -1.00, 114.8, 437.2)">/</text><text xml:space="preserve" font-family="Monaco,Monaco" font-size="32.0" fill="#37DE1B" transform="matrix(1.00, 0.00, -0.00, -1.00, 134.0, 437.2)">h</text><text xml:space="preserve" font-family="Monaco,Monaco" font-size="32.0" fill="#37DE1B" transform="matrix(1.00, 0.00, -0.00, -1.00, 153.2, 437.2)">e</text><text xml:space="preserve" font-family="Monaco,Monaco" font-size="32.0" fill="#37DE1B" transform="matrix(1.00, 0.00, -0.00, -1.00, 172.4, 437.2)">l</text><text xml:space="preserve" font-family="Monaco,Monaco" font-size="32.0" fill="#37DE1B" transform="matrix(1.00, 0.00, -0.00, -1.00, 191.6, 437.2)">l</text><text xml:space="preserve" font-family="Monaco,Monaco" font-size="32.0" fill="#37DE1B" transform="matrix(1.00, 0.00, -0.00, -1.00, 210.8, 437.2)">o</text><text xml:space="preserve" font-family="Monaco,Monaco" font-size="32.0" fill="#37DE1B" transform="matrix(1.00, 0.00, -0.00, -1.00, 230.0, 437.2)">.</text><text xml:space="preserve" font-family="Monaco,Monaco" font-size="32.0" fill="#37DE1B" transform="matrix(1.00, 0.00, -0.00, -1.00, 249.2, 437.2)">s</text><text xml:space="preserve" font-family="Monaco,Monaco" font-size="32.0" fill="#37DE1B" transform="matrix(1.00, 0.00, -0.00, -1.00, 268.4, 437.2)">h</text><text xml:space="preserve" font-family="Monaco,Monaco" font-size="32.0" fill="#37DE1B" transform="matrix(1.00, 0.00, -0.00, -1.00, 287.7, 437.2)">	</text><text xml:space="preserve" font-family="Monaco,Monaco" font-size="32.0" fill="#37DE1B" transform="matrix(1.00, 0.00, -0.00, -1.00, 57.2, 394.2)">-</text><text xml:space="preserve" font-family="Monaco,Monaco" font-size="32.0" fill="#37DE1B" transform="matrix(1.00, 0.00, -0.00, -1.00, 76.4, 394.2)">b</text><text xml:space="preserve" font-family="Monaco,Monaco" font-size="32.0" fill="#37DE1B" transform="matrix(1.00, 0.00, -0.00, -1.00, 95.6, 394.2)">a</text><text xml:space="preserve" font-family="Monaco,Monaco" font-size="32.0" fill="#37DE1B" transform="matrix(1.00, 0.00, -0.00, -1.00, 114.8, 394.2)">s</text><text xml:space="preserve" font-family="Monaco,Monaco" font-size="32.0" fill="#37DE1B" transform="matrix(1.00, 0.00, -0.00, -1.00, 134.0, 394.2)">h</text><text xml:space="preserve" font-family="Monaco,Monaco" font-size="32.0" fill="#37DE1B" transform="matrix(1.00, 0.00, -0.00, -1.00, 153.2, 394.2)">:</text><text xml:space="preserve" font-family="Monaco,Monaco" font-size="32.0" fill="#37DE1B" transform="matrix(1.00, 0.00, -0.00, -1.00, 172.4, 394.2)"> </text><text xml:space="preserve" font-family="Monaco,Monaco" font-size="32.0" fill="#37DE1B" transform="matrix(1.00, 0.00, -0.00, -1.00, 191.6, 394.2)">/</text><text xml:space="preserve" font-family="Monaco,Monaco" font-size="32.0" fill="#37DE1B" transform="matrix(1.00, 0.00, -0.00, -1.00, 210.8, 394.2)">U</text><text xml:space="preserve" font-family="Monaco,Monaco" font-size="32.0" fill="#37DE1B" transform="matrix(1.00, 0.00, -0.00, -1.00, 230.0, 394.2)">s</text><text xml:space="preserve" font-family="Monaco,Monaco" font-size="32.0" fill="#37DE1B" transform="matrix(1.00, 0.00, -0.00, -1.00, 249.2, 394.2)">e</text><text xml:space="preserve" font-family="Monaco,Monaco" font-size="32.0" fill="#37DE1B" transform="matrix(1.00, 0.00, -0.00, -1.00, 268.4, 394.2)">r</text><text xml:space="preserve" font-family="Monaco,Monaco" font-size="32.0" fill="#37DE1B" transform="matrix(1.00, 0.00, -0.00, -1.00, 287.7, 394.2)">s</text><text xml:space="preserve" font-family="Monaco,Monaco" font-size="32.0" fill="#37DE1B" transform="matrix(1.00, 0.00, -0.00, -1.00, 306.9, 394.2)">/</text><text xml:space="preserve" font-family="Monaco,Monaco" font-size="32.0" fill="#37DE1B" transform="matrix(1.00, 0.00, -0.00, -1.00, 326.1, 394.2)">u</text><text xml:space="preserve" font-family="Monaco,Monaco" font-size="32.0" fill="#37DE1B" transform="matrix(1.00, 0.00, -0.00, -1.00, 345.3, 394.2)">s</text><text xml:space="preserve" font-family="Monaco,Monaco" font-size="32.0" fill="#37DE1B" transform="matrix(1.00, 0.00, -0.00, -1.00, 364.5, 394.2)">e</text><text xml:space="preserve" font-family="Monaco,Monaco" font-size="32.0" fill="#37DE1B" transform="matrix(1.00, 0.00, -0.00, -1.00, 383.7, 394.2)">r</text><text xml:space="preserve" font-family="Monaco,Monaco" font-size="32.0" fill="#37DE1B" transform="matrix(1.00, 0.00, -0.00, -1.00, 402.9, 394.2)">a</text><text xml:space="preserve" font-family="Monaco,Monaco" font-size="32.0" fill="#37DE1B" transform="matrix(1.00, 0.00, -0.00, -1.00, 422.1, 394.2)">/</text><text xml:space="preserve" font-family="Monaco,Monaco" font-size="32.0" fill="#37DE1B" transform="matrix(1.00, 0.00, -0.00, -1.00, 441.3, 394.2)">h</text><text xml:space="preserve" font-family="Monaco,Monaco" font-size="32.0" fill="#37DE1B" transform="matrix(1.00, 0.00, -0.00, -1.00, 460.5, 394.2)">e</text><text xml:space="preserve" font-family="Monaco,Monaco" font-size="32.0" fill="#37DE1B" transform="matrix(1.00, 0.00, -0.00, -1.00, 479.7, 394.2)">l</text><text xml:space="preserve" font-family="Monaco,Monaco" font-size="32.0" fill="#37DE1B" transform="matrix(1.00, 0.00, -0.00, -1.00, 498.9, 394.2)">l</text><text xml:space="preserve" font-family="Monaco,Monaco" font-size="32.0" fill="#37DE1B" transform="matrix(1.00, 0.00, -0.00, -1.00, 518.1, 394.2)">o</text><text xml:space="preserve" font-family="Monaco,Monaco" font-size="32.0" fill="#37DE1B" transform="matrix(1.00, 0.00, -0.00, -1.00, 537.3, 394.2)">.</text><text xml:space="preserve" font-family="Monaco,Monaco" font-size="32.0" fill="#37DE1B" transform="matrix(1.00, 0.00, -0.00, -1.00, 556.5, 394.2)">s</text><text xml:space="preserve" font-family="Monaco,Monaco" font-size="32.0" fill="#37DE1B" transform="matrix(1.00, 0.00, -0.00, -1.00, 575.7, 394.2)">h</text><text xml:space="preserve" font-family="Monaco,Monaco" font-size="32.0" fill="#37DE1B" transform="matrix(1.00, 0.00, -0.00, -1.00, 595.0, 394.2)">:</text><text xml:space="preserve" font-family="Monaco,Monaco" font-size="32.0" fill="#37DE1B" transform="matrix(1.00, 0.00, -0.00, -1.00, 614.2, 394.2)"> </text><text xml:space="preserve" font-family="Monaco,Monaco" font-size="32.0" fill="#37DE1B" transform="matrix(1.00, 0.00, -0.00, -1.00, 633.4, 394.2)">P</text><text xml:space="preserve" font-family="Monaco,Monaco" font-size="32.0" fill="#37DE1B" transform="matrix(1.00, 0.00, -0.00, -1.00, 652.6, 394.2)">e</text><text xml:space="preserve" font-family="Monaco,Monaco" font-size="32.0" fill="#37DE1B" transform="matrix(1.00, 0.00, -0.00, -1.00, 671.8, 394.2)">r</text><text xml:space="preserve" font-family="Monaco,Monaco" font-size="32.0" fill="#37DE1B" transform="matrix(1.00, 0.00, -0.00, -1.00, 691.0, 394.2)">m</text><text xml:space="preserve" font-family="Monaco,Monaco" font-size="32.0" fill="#37DE1B" transform="matrix(1.00, 0.00, -0.00, -1.00, 710.2, 394.2)">i</text><text xml:space="preserve" font-family="Monaco,Monaco" font-size="32.0" fill="#37DE1B" transform="matrix(1.00, 0.00, -0.00, -1.00, 729.4, 394.2)">s</text><text xml:space="preserve" font-family="Monaco,Monaco" font-size="32.0" fill="#37DE1B" transform="matrix(1.00, 0.00, -0.00, -1.00, 748.6, 394.2)">s</text><text xml:space="preserve" font-family="Monaco,Monaco" font-size="32.0" fill="#37DE1B" transform="matrix(1.00, 0.00, -0.00, -1.00, 767.8, 394.2)">i</text><text xml:space="preserve" font-family="Monaco,Monaco" font-size="32.0" fill="#37DE1B" transform="matrix(1.00, 0.00, -0.00, -1.00, 787.0, 394.2)">o</text><text xml:space="preserve" font-family="Monaco,Monaco" font-size="32.0" fill="#37DE1B" transform="matrix(1.00, 0.00, -0.00, -1.00, 806.2, 394.2)">n</text><text xml:space="preserve" font-family="Monaco,Monaco" font-size="32.0" fill="#37DE1B" transform="matrix(1.00, 0.00, -0.00, -1.00, 825.4, 394.2)"> </text><text xml:space="preserve" font-family="Monaco,Monaco" font-size="32.0" fill="#37DE1B" transform="matrix(1.00, 0.00, -0.00, -1.00, 844.6, 394.2)">d</text><text xml:space="preserve" font-family="Monaco,Monaco" font-size="32.0" fill="#37DE1B" transform="matrix(1.00, 0.00, -0.00, -1.00, 863.8, 394.2)">e</text><text xml:space="preserve" font-family="Monaco,Monaco" font-size="32.0" fill="#37DE1B" transform="matrix(1.00, 0.00, -0.00, -1.00, 883.0, 394.2)">n</text><text xml:space="preserve" font-family="Monaco,Monaco" font-size="32.0" fill="#37DE1B" transform="matrix(1.00, 0.00, -0.00, -1.00, 902.3, 394.2)">i</text><text xml:space="preserve" font-family="Monaco,Monaco" font-size="32.0" fill="#37DE1B" transform="matrix(1.00, 0.00, -0.00, -1.00, 921.5, 394.2)">e</text><text xml:space="preserve" font-family="Monaco,Monaco" font-size="32.0" fill="#37DE1B" transform="matrix(1.00, 0.00, -0.00, -1.00, 940.7, 394.2)">d</text><text xml:space="preserve" font-family="Monaco,Monaco" font-size="32.0" fill="#37DE1B" transform="matrix(1.00, 0.00, -0.00, -1.00, 959.7, 394.2)">	</text></g></svg>