<?xml version="1.0" encoding="UTF-8" standalone="no"?><svg xmlns="http://www.w3.org/2000/svg" xmlns:xlink="http://www.w3.org/1999/xlink" clip-rule="evenodd" stroke-miterlimit="10" viewBox="0 0 1024 768"><desc>SVG generated by Keynote</desc><defs></defs><g transform="matrix(1.00, 0.00, -0.00, -1.00, 0.0, 768.0)"><path d="M 0.0 768.0 L 1024.0 768.0 L 1024.0 0.0 L 0.0 0.0 Z M 0.0 768.0 " fill="#000000"></path><text xml:space="preserve" font-family="LucidaGrande,Lucida Grande" font-size="22.0" fill="#FEFFFE" transform="matrix(1.00, 0.00, -0.00, -1.00, 332.4, 11.6)">F</text><text xml:space="preserve" font-family="LucidaGrande,Lucida Grande" font-size="22.0" fill="#FEFFFE" transform="matrix(1.00, 0.00, -0.00, -1.00, 344.2, 11.6)">e</text><text xml:space="preserve" font-family="LucidaGrande,Lucida Grande" font-size="22.0" fill="#FEFFFE" transform="matrix(1.00, 0.00, -0.00, -1.00, 356.4, 11.6)">e</text><text xml:space="preserve" font-family="LucidaGrande,Lucida Grande" font-size="22.0" fill="#FEFFFE" transform="matrix(1.00, 0.00, -0.00, -1.00, 368.7, 11.6)">d</text><text xml:space="preserve" font-family="LucidaGrande,Lucida Grande" font-size="22.0" fill="#FEFFFE" transform="matrix(1.00, 0.00, -0.00, -1.00, 382.5, 11.6)">b</text><text xml:space="preserve" font-family="LucidaGrande,Lucida Grande" font-size="22.0" fill="#FEFFFE" transform="matrix(1.00, 0.00, -0.00, -1.00, 396.4, 11.6)">a</text><text xml:space="preserve" font-family="LucidaGrande,Lucida Grande" font-size="22.0" fill="#FEFFFE" transform="matrix(1.00, 0.00, -0.00, -1.00, 408.5, 11.6)">c</text><text xml:space="preserve" font-family="LucidaGrande,Lucida Grande" font-size="22.0" fill="#FEFFFE" transform="matrix(1.00, 0.00, -0.00, -1.00, 419.8, 11.6)">k</text><text xml:space="preserve" font-family="LucidaGrande,Lucida Grande" font-size="22.0" fill="#FEFFFE" transform="matrix(1.00, 0.00, -0.00, -1.00, 432.7, 11.6)">:</text><text xml:space="preserve" font-family="LucidaGrande,Lucida Grande" font-size="22.0" fill="#FEFFFE" transform="matrix(1.00, 0.00, -0.00, -1.00, 439.6, 11.6)"> </text><text xml:space="preserve" font-family="LucidaGrande,Lucida Grande" font-size="22.0" fill="#FEFFFE" transform="matrix(1.00, 0.00, -0.00, -1.00, 446.6, 11.6)">h</text><text xml:space="preserve" font-family="LucidaGrande,Lucida Grande" font-size="22.0" fill="#FEFFFE" transform="matrix(1.00, 0.00, -0.00, -1.00, 460.2, 11.6)">t</text><text xml:space="preserve" font-family="LucidaGrande,Lucida Grande" font-size="22.0" fill="#FEFFFE" transform="matrix(1.00, 0.00, -0.00, -1.00, 468.4, 11.6)">t</text><text xml:space="preserve" font-family="LucidaGrande,Lucida Grande" font-size="22.0" fill="#FEFFFE" transform="matrix(1.00, 0.00, -0.00, -1.00, 476.7, 11.6)">p</text><text xml:space="preserve" font-family="LucidaGrande,Lucida Grande" font-size="22.0" fill="#FEFFFE" transform="matrix(1.00, 0.00, -0.00, -1.00, 490.5, 11.6)">:</text><text xml:space="preserve" font-family="LucidaGrande,Lucida Grande" font-size="22.0" fill="#FEFFFE" transform="matrix(1.00, 0.00, -0.00, -1.00, 497.5, 11.6)">/</text><text xml:space="preserve" font-family="LucidaGrande,Lucida Grande" font-size="22.0" fill="#FEFFFE" transform="matrix(1.00, 0.00, -0.00, -1.00, 509.0, 11.6)">/</text><text xml:space="preserve" font-family="LucidaGrande,Lucida Grande" font-size="22.0" fill="#FEFFFE" transform="matrix(1.00, 0.00, -0.00, -1.00, 520.6, 11.6)">j</text><text xml:space="preserve" font-family="LucidaGrande,Lucida Grande" font-size="22.0" fill="#FEFFFE" transform="matrix(1.00, 0.00, -0.00, -1.00, 527.3, 11.6)">.</text><text xml:space="preserve" font-family="LucidaGrande,Lucida Grande" font-size="22.0" fill="#FEFFFE" transform="matrix(1.00, 0.00, -0.00, -1.00, 534.3, 11.6)">m</text><text xml:space="preserve" font-family="LucidaGrande,Lucida Grande" font-size="22.0" fill="#FEFFFE" transform="matrix(1.00, 0.00, -0.00, -1.00, 554.8, 11.6)">p</text><text xml:space="preserve" font-family="LucidaGrande,Lucida Grande" font-size="22.0" fill="#FEFFFE" transform="matrix(1.00, 0.00, -0.00, -1.00, 568.6, 11.6)">/</text><text xml:space="preserve" font-family="LucidaGrande,Lucida Grande" font-size="22.0" fill="#FEFFFE" transform="matrix(1.00, 0.00, -0.00, -1.00, 580.2, 11.6)">p</text><text xml:space="preserve" font-family="LucidaGrande,Lucida Grande" font-size="22.0" fill="#FEFFFE" transform="matrix(1.00, 0.00, -0.00, -1.00, 594.0, 11.6)">s</text><text xml:space="preserve" font-family="LucidaGrande,Lucida Grande" font-size="22.0" fill="#FEFFFE" transform="matrix(1.00, 0.00, -0.00, -1.00, 605.3, 11.6)">u</text><text xml:space="preserve" font-family="LucidaGrande,Lucida Grande" font-size="22.0" fill="#FEFFFE" transform="matrix(1.00, 0.00, -0.00, -1.00, 618.9, 11.6)">m</text><text xml:space="preserve" font-family="LucidaGrande,Lucida Grande" font-size="22.0" fill="#FEFFFE" transform="matrix(1.00, 0.00, -0.00, -1.00, 639.4, 11.6)">a</text><text xml:space="preserve" font-family="LucidaGrande,Lucida Grande" font-size="22.0" fill="#FEFFFE" transform="matrix(1.00, 0.00, -0.00, -1.00, 651.6, 11.6)">c</text><text xml:space="preserve" font-family="LucidaGrande,Lucida Grande" font-size="22.0" fill="#FEFFFE" transform="matrix(1.00, 0.00, -0.00, -1.00, 662.9, 11.6)">1</text><text xml:space="preserve" font-family="LucidaGrande,Lucida Grande" font-size="22.0" fill="#FEFFFE" transform="matrix(1.00, 0.00, -0.00, -1.00, 676.8, 11.6)">3</text><text xml:space="preserve" font-family="Monaco,Monaco" font-size="84.0" fill="#FEFFFF" transform="matrix(1.00, 0.00, -0.00, -1.00, 285.2, 620.0)">i</text><text xml:space="preserve" font-family="Monaco,Monaco" font-size="84.0" fill="#FEFFFF" transform="matrix(1.00, 0.00, -0.00, -1.00, 335.6, 620.0)">n</text><text xml:space="preserve" font-family="Monaco,Monaco" font-size="84.0" fill="#FEFFFF" transform="matrix(1.00, 0.00, -0.00, -1.00, 386.0, 620.0)">s</text><text xml:space="preserve" font-family="Monaco,Monaco" font-size="84.0" fill="#FEFFFF" transform="matrix(1.00, 0.00, -0.00, -1.00, 436.4, 620.0)">t</text><text xml:space="preserve" font-family="Monaco,Monaco" font-size="84.0" fill="#FEFFFF" transform="matrix(1.00, 0.00, -0.00, -1.00, 486.8, 620.0)">a</text><text xml:space="preserve" font-family="Monaco,Monaco" font-size="84.0" fill="#FEFFFF" transform="matrix(1.00, 0.00, -0.00, -1.00, 537.2, 620.0)">l</text><text xml:space="preserve" font-family="Monaco,Monaco" font-size="84.0" fill="#FEFFFF" transform="matrix(1.00, 0.00, -0.00, -1.00, 587.7, 620.0)">l</text><text xml:space="preserve" font-family="Monaco,Monaco" font-size="84.0" fill="#FEFFFF" transform="matrix(1.00, 0.00, -0.00, -1.00, 638.1, 620.0)">e</text><text xml:space="preserve" font-family="Monaco,Monaco" font-size="84.0" fill="#FEFFFF" transform="matrix(1.00, 0.00, -0.00, -1.00, 688.5, 620.0)">r</text><text xml:space="preserve" font-family="Monaco,Monaco" font-size="36.0" fill="#FEFFFF" transform="matrix(1.00, 0.00, -0.00, -1.00, 129.0, 419.0)">•</text><text xml:space="preserve" font-family="Monaco,Monaco" font-size="36.0" fill="#FEFFFF" transform="matrix(1.00, 0.00, -0.00, -1.00, 174.0, 419.0)">P</text><text xml:space="preserve" font-family="Monaco,Monaco" font-size="36.0" fill="#FEFFFF" transform="matrix(1.00, 0.00, -0.00, -1.00, 195.6, 419.0)">a</text><text xml:space="preserve" font-family="Monaco,Monaco" font-size="36.0" fill="#FEFFFF" transform="matrix(1.00, 0.00, -0.00, -1.00, 217.2, 419.0)">c</text><text xml:space="preserve" font-family="Monaco,Monaco" font-size="36.0" fill="#FEFFFF" transform="matrix(1.00, 0.00, -0.00, -1.00, 238.8, 419.0)">k</text><text xml:space="preserve" font-family="Monaco,Monaco" font-size="36.0" fill="#FEFFFF" transform="matrix(1.00, 0.00, -0.00, -1.00, 260.4, 419.0)">a</text><text xml:space="preserve" font-family="Monaco,Monaco" font-size="36.0" fill="#FEFFFF" transform="matrix(1.00, 0.00, -0.00, -1.00, 282.0, 419.0)">g</text><text xml:space="preserve" font-family="Monaco,Monaco" font-size="36.0" fill="#FEFFFF" transform="matrix(1.00, 0.00, -0.00, -1.00, 303.6, 419.0)">e</text><text xml:space="preserve" font-family="Monaco,Monaco" font-size="36.0" fill="#FEFFFF" transform="matrix(1.00, 0.00, -0.00, -1.00, 325.2, 419.0)"> </text><text xml:space="preserve" font-family="Monaco,Monaco" font-size="36.0" fill="#FEFFFF" transform="matrix(1.00, 0.00, -0.00, -1.00, 346.9, 419.0)">i</text><text xml:space="preserve" font-family="Monaco,Monaco" font-size="36.0" fill="#FEFFFF" transform="matrix(1.00, 0.00, -0.00, -1.00, 368.5, 419.0)">n</text><text xml:space="preserve" font-family="Monaco,Monaco" font-size="36.0" fill="#FEFFFF" transform="matrix(1.00, 0.00, -0.00, -1.00, 390.1, 419.0)">s</text><text xml:space="preserve" font-family="Monaco,Monaco" font-size="36.0" fill="#FEFFFF" transform="matrix(1.00, 0.00, -0.00, -1.00, 411.7, 419.0)">t</text><text xml:space="preserve" font-family="Monaco,Monaco" font-size="36.0" fill="#FEFFFF" transform="matrix(1.00, 0.00, -0.00, -1.00, 433.3, 419.0)">a</text><text xml:space="preserve" font-family="Monaco,Monaco" font-size="36.0" fill="#FEFFFF" transform="matrix(1.00, 0.00, -0.00, -1.00, 454.9, 419.0)">l</text><text xml:space="preserve" font-family="Monaco,Monaco" font-size="36.0" fill="#FEFFFF" transform="matrix(1.00, 0.00, -0.00, -1.00, 476.5, 419.0)">l</text><text xml:space="preserve" font-family="Monaco,Monaco" font-size="36.0" fill="#FEFFFF" transform="matrix(1.00, 0.00, -0.00, -1.00, 498.1, 419.0)">e</text><text xml:space="preserve" font-family="Monaco,Monaco" font-size="36.0" fill="#FEFFFF" transform="matrix(1.00, 0.00, -0.00, -1.00, 519.7, 419.0)">r</text><text xml:space="preserve" font-family="Monaco,Monaco" font-size="36.0" fill="#FEFFFF" transform="matrix(1.00, 0.00, -0.00, -1.00, 541.3, 419.0)"> </text><text xml:space="preserve" font-family="Monaco,Monaco" font-size="36.0" fill="#FEFFFF" transform="matrix(1.00, 0.00, -0.00, -1.00, 562.9, 419.0)">c</text><text xml:space="preserve" font-family="Monaco,Monaco" font-size="36.0" fill="#FEFFFF" transform="matrix(1.00, 0.00, -0.00, -1.00, 584.5, 419.0)">o</text><text xml:space="preserve" font-family="Monaco,Monaco" font-size="36.0" fill="#FEFFFF" transform="matrix(1.00, 0.00, -0.00, -1.00, 606.1, 419.0)">m</text><text xml:space="preserve" font-family="Monaco,Monaco" font-size="36.0" fill="#FEFFFF" transform="matrix(1.00, 0.00, -0.00, -1.00, 627.7, 419.0)">m</text><text xml:space="preserve" font-family="Monaco,Monaco" font-size="36.0" fill="#FEFFFF" transform="matrix(1.00, 0.00, -0.00, -1.00, 649.4, 419.0)">a</text><text xml:space="preserve" font-family="Monaco,Monaco" font-size="36.0" fill="#FEFFFF" transform="matrix(1.00, 0.00, -0.00, -1.00, 671.0, 419.0)">n</text><text xml:space="preserve" font-family="Monaco,Monaco" font-size="36.0" fill="#FEFFFF" transform="matrix(1.00, 0.00, -0.00, -1.00, 692.6, 419.0)">d</text><text xml:space="preserve" font-family="Monaco,Monaco" font-size="36.0" fill="#FEFFFF" transform="matrix(1.00, 0.00, -0.00, -1.00, 714.2, 419.0)">	</text><text xml:space="preserve" font-family="Monaco,Monaco" font-size="36.0" fill="#FEFFFF" transform="matrix(1.00, 0.00, -0.00, -1.00, 129.0, 347.0)">•</text><text xml:space="preserve" font-family="Monaco,Monaco" font-size="36.0" fill="#7ADA45" transform="matrix(1.00, 0.00, -0.00, -1.00, 174.0, 347.0)">i</text><text xml:space="preserve" font-family="Monaco,Monaco" font-size="36.0" fill="#7ADA45" transform="matrix(1.00, 0.00, -0.00, -1.00, 195.6, 347.0)">n</text><text xml:space="preserve" font-family="Monaco,Monaco" font-size="36.0" fill="#7ADA45" transform="matrix(1.00, 0.00, -0.00, -1.00, 217.2, 347.0)">s</text><text xml:space="preserve" font-family="Monaco,Monaco" font-size="36.0" fill="#7ADA45" transform="matrix(1.00, 0.00, -0.00, -1.00, 238.8, 347.0)">t</text><text xml:space="preserve" font-family="Monaco,Monaco" font-size="36.0" fill="#7ADA45" transform="matrix(1.00, 0.00, -0.00, -1.00, 260.4, 347.0)">a</text><text xml:space="preserve" font-family="Monaco,Monaco" font-size="36.0" fill="#7ADA45" transform="matrix(1.00, 0.00, -0.00, -1.00, 282.0, 347.0)">l</text><text xml:space="preserve" font-family="Monaco,Monaco" font-size="36.0" fill="#7ADA45" transform="matrix(1.00, 0.00, -0.00, -1.00, 303.6, 347.0)">l</text><text xml:space="preserve" font-family="Monaco,Monaco" font-size="36.0" fill="#7ADA45" transform="matrix(1.00, 0.00, -0.00, -1.00, 325.2, 347.0)">e</text><text xml:space="preserve" font-family="Monaco,Monaco" font-size="36.0" fill="#7ADA45" transform="matrix(1.00, 0.00, -0.00, -1.00, 346.9, 347.0)">r</text><text xml:space="preserve" font-family="Monaco,Monaco" font-size="36.0" fill="#FEFFFF" transform="matrix(1.00, 0.00, -0.00, -1.00, 368.4, 347.0)"> </text><text xml:space="preserve" font-family="Monaco,Monaco" font-size="36.0" fill="#E7A432" transform="matrix(1.00, 0.00, -0.00, -1.00, 390.0, 347.0)">-</text><text xml:space="preserve" font-family="Monaco,Monaco" font-size="36.0" fill="#E7A432" transform="matrix(1.00, 0.00, -0.00, -1.00, 411.6, 347.0)">p</text><text xml:space="preserve" font-family="Monaco,Monaco" font-size="36.0" fill="#E7A432" transform="matrix(1.00, 0.00, -0.00, -1.00, 433.2, 347.0)">k</text><text xml:space="preserve" font-family="Monaco,Monaco" font-size="36.0" fill="#E7A432" transform="matrix(1.00, 0.00, -0.00, -1.00, 454.9, 347.0)">g</text><text xml:space="preserve" font-family="Monaco,Monaco" font-size="36.0" fill="#FEFFFF" transform="matrix(1.00, 0.00, -0.00, -1.00, 476.4, 347.0)"> </text><text xml:space="preserve" font-family="Monaco,Monaco" font-size="36.0" fill="#1497FC" transform="matrix(1.00, 0.00, -0.00, -1.00, 498.1, 347.0)">a</text><text xml:space="preserve" font-family="Monaco,Monaco" font-size="36.0" fill="#1497FC" transform="matrix(1.00, 0.00, -0.00, -1.00, 519.7, 347.0)">r</text><text xml:space="preserve" font-family="Monaco,Monaco" font-size="36.0" fill="#1497FC" transform="matrix(1.00, 0.00, -0.00, -1.00, 541.3, 347.0)">g</text><text xml:space="preserve" font-family="Monaco,Monaco" font-size="36.0" fill="#1497FC" transform="matrix(1.00, 0.00, -0.00, -1.00, 562.9, 347.0)">1</text><text xml:space="preserve" font-family="Monaco,Monaco" font-size="36.0" fill="#FEFFFF" transform="matrix(1.00, 0.00, -0.00, -1.00, 584.5, 347.0)"> </text><text xml:space="preserve" font-family="Monaco,Monaco" font-size="36.0" fill="#E7A432" transform="matrix(1.00, 0.00, -0.00, -1.00, 606.1, 347.0)">-</text><text xml:space="preserve" font-family="Monaco,Monaco" font-size="36.0" fill="#E7A432" transform="matrix(1.00, 0.00, -0.00, -1.00, 627.7, 347.0)">t</text><text xml:space="preserve" font-family="Monaco,Monaco" font-size="36.0" fill="#E7A432" transform="matrix(1.00, 0.00, -0.00, -1.00, 649.3, 347.0)">a</text><text xml:space="preserve" font-family="Monaco,Monaco" font-size="36.0" fill="#E7A432" transform="matrix(1.00, 0.00, -0.00, -1.00, 670.9, 347.0)">r</text><text xml:space="preserve" font-family="Monaco,Monaco" font-size="36.0" fill="#E7A432" transform="matrix(1.00, 0.00, -0.00, -1.00, 692.5, 347.0)">g</text><text xml:space="preserve" font-family="Monaco,Monaco" font-size="36.0" fill="#E7A432" transform="matrix(1.00, 0.00, -0.00, -1.00, 714.1, 347.0)">e</text><text xml:space="preserve" font-family="Monaco,Monaco" font-size="36.0" fill="#E7A432" transform="matrix(1.00, 0.00, -0.00, -1.00, 735.7, 347.0)">t</text><text xml:space="preserve" font-family="Monaco,Monaco" font-size="36.0" fill="#FEFFFF" transform="matrix(1.00, 0.00, -0.00, -1.00, 757.3, 347.0)"> </text><text xml:space="preserve" font-family="Monaco,Monaco" font-size="36.0" fill="#D35854" transform="matrix(1.00, 0.00, -0.00, -1.00, 778.9, 347.0)">a</text><text xml:space="preserve" font-family="Monaco,Monaco" font-size="36.0" fill="#D35854" transform="matrix(1.00, 0.00, -0.00, -1.00, 800.5, 347.0)">r</text><text xml:space="preserve" font-family="Monaco,Monaco" font-size="36.0" fill="#D35854" transform="matrix(1.00, 0.00, -0.00, -1.00, 822.1, 347.0)">g</text><text xml:space="preserve" font-family="Monaco,Monaco" font-size="36.0" fill="#D35854" transform="matrix(1.00, 0.00, -0.00, -1.00, 843.7, 347.0)">2</text><text xml:space="preserve" font-family="Monaco,Monaco" font-size="36.0" fill="#D35854" transform="matrix(1.00, 0.00, -0.00, -1.00, 865.3, 347.0)"> </text><text xml:space="preserve" font-family="Monaco,Monaco" font-size="36.0" fill="#D35854" transform="matrix(1.00, 0.00, -0.00, -1.00, 174.0, 299.0)"> </text><text xml:space="preserve" font-family="Monaco,Monaco" font-size="36.0" fill="#7ADA45" transform="matrix(1.00, 0.00, -0.00, -1.00, 174.0, 251.0)">i</text><text xml:space="preserve" font-family="Monaco,Monaco" font-size="36.0" fill="#7ADA45" transform="matrix(1.00, 0.00, -0.00, -1.00, 195.6, 251.0)">n</text><text xml:space="preserve" font-family="Monaco,Monaco" font-size="36.0" fill="#7ADA45" transform="matrix(1.00, 0.00, -0.00, -1.00, 217.2, 251.0)">s</text><text xml:space="preserve" font-family="Monaco,Monaco" font-size="36.0" fill="#7ADA45" transform="matrix(1.00, 0.00, -0.00, -1.00, 238.8, 251.0)">t</text><text xml:space="preserve" font-family="Monaco,Monaco" font-size="36.0" fill="#7ADA45" transform="matrix(1.00, 0.00, -0.00, -1.00, 260.4, 251.0)">a</text><text xml:space="preserve" font-family="Monaco,Monaco" font-size="36.0" fill="#7ADA45" transform="matrix(1.00, 0.00, -0.00, -1.00, 282.0, 251.0)">l</text><text xml:space="preserve" font-family="Monaco,Monaco" font-size="36.0" fill="#7ADA45" transform="matrix(1.00, 0.00, -0.00, -1.00, 303.6, 251.0)">l</text><text xml:space="preserve" font-family="Monaco,Monaco" font-size="36.0" fill="#7ADA45" transform="matrix(1.00, 0.00, -0.00, -1.00, 325.2, 251.0)">e</text><text xml:space="preserve" font-family="Monaco,Monaco" font-size="36.0" fill="#7ADA45" transform="matrix(1.00, 0.00, -0.00, -1.00, 346.9, 251.0)">r</text><text xml:space="preserve" font-family="Monaco,Monaco" font-size="36.0" fill="#7ADA45" transform="matrix(1.00, 0.00, -0.00, -1.00, 368.5, 251.0)"> </text><text xml:space="preserve" font-family="Monaco,Monaco" font-size="36.0" fill="#E7A432" transform="matrix(1.00, 0.00, -0.00, -1.00, 390.0, 251.0)">-</text><text xml:space="preserve" font-family="Monaco,Monaco" font-size="36.0" fill="#E7A432" transform="matrix(1.00, 0.00, -0.00, -1.00, 411.6, 251.0)">p</text><text xml:space="preserve" font-family="Monaco,Monaco" font-size="36.0" fill="#E7A432" transform="matrix(1.00, 0.00, -0.00, -1.00, 433.2, 251.0)">k</text><text xml:space="preserve" font-family="Monaco,Monaco" font-size="36.0" fill="#E7A432" transform="matrix(1.00, 0.00, -0.00, -1.00, 454.9, 251.0)">g</text><text xml:space="preserve" font-family="Monaco,Monaco" font-size="36.0" fill="#FEFFFF" transform="matrix(1.00, 0.00, -0.00, -1.00, 476.4, 251.0)"> </text><text xml:space="preserve" font-family="Monaco,Monaco" font-size="36.0" fill="#1497FC" transform="matrix(1.00, 0.00, -0.00, -1.00, 498.1, 251.0)">/</text><text xml:space="preserve" font-family="Monaco,Monaco" font-size="36.0" fill="#1497FC" transform="matrix(1.00, 0.00, -0.00, -1.00, 519.7, 251.0)">t</text><text xml:space="preserve" font-family="Monaco,Monaco" font-size="36.0" fill="#1497FC" transform="matrix(1.00, 0.00, -0.00, -1.00, 541.3, 251.0)">m</text><text xml:space="preserve" font-family="Monaco,Monaco" font-size="36.0" fill="#1497FC" transform="matrix(1.00, 0.00, -0.00, -1.00, 562.9, 251.0)">p</text><text xml:space="preserve" font-family="Monaco,Monaco" font-size="36.0" fill="#1497FC" transform="matrix(1.00, 0.00, -0.00, -1.00, 584.5, 251.0)">/</text><text xml:space="preserve" font-family="Monaco,Monaco" font-size="36.0" fill="#1497FC" transform="matrix(1.00, 0.00, -0.00, -1.00, 606.1, 251.0)">k</text><text xml:space="preserve" font-family="Monaco,Monaco" font-size="36.0" fill="#1497FC" transform="matrix(1.00, 0.00, -0.00, -1.00, 627.7, 251.0)">2</text><text xml:space="preserve" font-family="Monaco,Monaco" font-size="36.0" fill="#1497FC" transform="matrix(1.00, 0.00, -0.00, -1.00, 649.3, 251.0)">C</text><text xml:space="preserve" font-family="Monaco,Monaco" font-size="36.0" fill="#1497FC" transform="matrix(1.00, 0.00, -0.00, -1.00, 670.9, 251.0)">l</text><text xml:space="preserve" font-family="Monaco,Monaco" font-size="36.0" fill="#1497FC" transform="matrix(1.00, 0.00, -0.00, -1.00, 692.5, 251.0)">i</text><text xml:space="preserve" font-family="Monaco,Monaco" font-size="36.0" fill="#1497FC" transform="matrix(1.00, 0.00, -0.00, -1.00, 714.1, 251.0)">e</text><text xml:space="preserve" font-family="Monaco,Monaco" font-size="36.0" fill="#1497FC" transform="matrix(1.00, 0.00, -0.00, -1.00, 735.7, 251.0)">n</text><text xml:space="preserve" font-family="Monaco,Monaco" font-size="36.0" fill="#1497FC" transform="matrix(1.00, 0.00, -0.00, -1.00, 757.3, 251.0)">t</text><text xml:space="preserve" font-family="Monaco,Monaco" font-size="36.0" fill="#1497FC" transform="matrix(1.00, 0.00, -0.00, -1.00, 778.9, 251.0)">.</text><text xml:space="preserve" font-family="Monaco,Monaco" font-size="36.0" fill="#1497FC" transform="matrix(1.00, 0.00, -0.00, -1.00, 800.6, 251.0)">p</text><text xml:space="preserve" font-family="Monaco,Monaco" font-size="36.0" fill="#1497FC" transform="matrix(1.00, 0.00, -0.00, -1.00, 822.2, 251.0)">k</text><text xml:space="preserve" font-family="Monaco,Monaco" font-size="36.0" fill="#1497FC" transform="matrix(1.00, 0.00, -0.00, -1.00, 843.8, 251.0)">g</text><text xml:space="preserve" font-family="Monaco,Monaco" font-size="36.0" fill="#1497FC" transform="matrix(1.00, 0.00, -0.00, -1.00, 865.4, 251.0)"> </text><text xml:space="preserve" font-family="Monaco,Monaco" font-size="36.0" fill="#1497FC" transform="matrix(1.00, 0.00, -0.00, -1.00, 887.0, 251.0)"> </text><text xml:space="preserve" font-family="Monaco,Monaco" font-size="36.0" fill="#1497FC" transform="matrix(1.00, 0.00, -0.00, -1.00, 174.0, 203.0)"> </text><text xml:space="preserve" font-family="Monaco,Monaco" font-size="36.0" fill="#E7A432" transform="matrix(1.00, 0.00, -0.00, -1.00, 195.6, 203.0)">-</text><text xml:space="preserve" font-family="Monaco,Monaco" font-size="36.0" fill="#E7A432" transform="matrix(1.00, 0.00, -0.00, -1.00, 217.2, 203.0)">t</text><text xml:space="preserve" font-family="Monaco,Monaco" font-size="36.0" fill="#E7A432" transform="matrix(1.00, 0.00, -0.00, -1.00, 238.8, 203.0)">a</text><text xml:space="preserve" font-family="Monaco,Monaco" font-size="36.0" fill="#E7A432" transform="matrix(1.00, 0.00, -0.00, -1.00, 260.4, 203.0)">r</text><text xml:space="preserve" font-family="Monaco,Monaco" font-size="36.0" fill="#E7A432" transform="matrix(1.00, 0.00, -0.00, -1.00, 282.0, 203.0)">g</text><text xml:space="preserve" font-family="Monaco,Monaco" font-size="36.0" fill="#E7A432" transform="matrix(1.00, 0.00, -0.00, -1.00, 303.6, 203.0)">e</text><text xml:space="preserve" font-family="Monaco,Monaco" font-size="36.0" fill="#E7A432" transform="matrix(1.00, 0.00, -0.00, -1.00, 325.2, 203.0)">t</text><text xml:space="preserve" font-family="Monaco,Monaco" font-size="36.0" fill="#FEFFFF" transform="matrix(1.00, 0.00, -0.00, -1.00, 346.8, 203.0)"> </text><text xml:space="preserve" font-family="Monaco,Monaco" font-size="36.0" fill="#D35854" transform="matrix(1.00, 0.00, -0.00, -1.00, 368.4, 203.0)">/</text></g></svg>