<?xml version="1.0" encoding="UTF-8" standalone="no"?><svg xmlns="http://www.w3.org/2000/svg" xmlns:xlink="http://www.w3.org/1999/xlink" clip-rule="evenodd" stroke-miterlimit="10" viewBox="0 0 1024 768"><desc>SVG generated by Keynote</desc><defs></defs><g transform="matrix(1.00, 0.00, -0.00, -1.00, 0.0, 768.0)"><path d="M 0.0 768.0 L 1024.0 768.0 L 1024.0 0.0 L 0.0 0.0 Z M 0.0 768.0 " fill="#000000"></path><image xlink:href="../../ACF26528-510F-4087-92A7-D9431E4A7675/assets/C07D05C049E9C3A813AD52BFC7182A2D.png" width="983.00" height="584.00" transform="matrix(1.00, 0.00, -0.00, -1.00, 10.2, 664.7)" opacity="0.75"></image><image xlink:href="../../ACF26528-510F-4087-92A7-D9431E4A7675/assets/B8B89F8D2E49298F363D8341A9D067FB.png" width="963.00" height="564.00" transform="matrix(1.00, 0.00, -0.00, -1.00, 30.0, 666.0)"></image><text xml:space="preserve" font-family="LucidaGrande,Lucida Grande" font-size="22.0" fill="#FEFFFE" transform="matrix(1.00, 0.00, -0.00, -1.00, 332.4, 11.6)">F</text><text xml:space="preserve" font-family="LucidaGrande,Lucida Grande" font-size="22.0" fill="#FEFFFE" transform="matrix(1.00, 0.00, -0.00, -1.00, 344.2, 11.6)">e</text><text xml:space="preserve" font-family="LucidaGrande,Lucida Grande" font-size="22.0" fill="#FEFFFE" transform="matrix(1.00, 0.00, -0.00, -1.00, 356.4, 11.6)">e</text><text xml:space="preserve" font-family="LucidaGrande,Lucida Grande" font-size="22.0" fill="#FEFFFE" transform="matrix(1.00, 0.00, -0.00, -1.00, 368.7, 11.6)">d</text><text xml:space="preserve" font-family="LucidaGrande,Lucida Grande" font-size="22.0" fill="#FEFFFE" transform="matrix(1.00, 0.00, -0.00, -1.00, 382.5, 11.6)">b</text><text xml:space="preserve" font-family="LucidaGrande,Lucida Grande" font-size="22.0" fill="#FEFFFE" transform="matrix(1.00, 0.00, -0.00, -1.00, 396.4, 11.6)">a</text><text xml:space="preserve" font-family="LucidaGrande,Lucida Grande" font-size="22.0" fill="#FEFFFE" transform="matrix(1.00, 0.00, -0.00, -1.00, 408.5, 11.6)">c</text><text xml:space="preserve" font-family="LucidaGrande,Lucida Grande" font-size="22.0" fill="#FEFFFE" transform="matrix(1.00, 0.00, -0.00, -1.00, 419.8, 11.6)">k</text><text xml:space="preserve" font-family="LucidaGrande,Lucida Grande" font-size="22.0" fill="#FEFFFE" transform="matrix(1.00, 0.00, -0.00, -1.00, 432.7, 11.6)">:</text><text xml:space="preserve" font-family="LucidaGrande,Lucida Grande" font-size="22.0" fill="#FEFFFE" transform="matrix(1.00, 0.00, -0.00, -1.00, 439.6, 11.6)"> </text><text xml:space="preserve" font-family="LucidaGrande,Lucida Grande" font-size="22.0" fill="#FEFFFE" transform="matrix(1.00, 0.00, -0.00, -1.00, 446.6, 11.6)">h</text><text xml:space="preserve" font-family="LucidaGrande,Lucida Grande" font-size="22.0" fill="#FEFFFE" transform="matrix(1.00, 0.00, -0.00, -1.00, 460.2, 11.6)">t</text><text xml:space="preserve" font-family="LucidaGrande,Lucida Grande" font-size="22.0" fill="#FEFFFE" transform="matrix(1.00, 0.00, -0.00, -1.00, 468.4, 11.6)">t</text><text xml:space="preserve" font-family="LucidaGrande,Lucida Grande" font-size="22.0" fill="#FEFFFE" transform="matrix(1.00, 0.00, -0.00, -1.00, 476.7, 11.6)">p</text><text xml:space="preserve" font-family="LucidaGrande,Lucida Grande" font-size="22.0" fill="#FEFFFE" transform="matrix(1.00, 0.00, -0.00, -1.00, 490.5, 11.6)">:</text><text xml:space="preserve" font-family="LucidaGrande,Lucida Grande" font-size="22.0" fill="#FEFFFE" transform="matrix(1.00, 0.00, -0.00, -1.00, 497.5, 11.6)">/</text><text xml:space="preserve" font-family="LucidaGrande,Lucida Grande" font-size="22.0" fill="#FEFFFE" transform="matrix(1.00, 0.00, -0.00, -1.00, 509.0, 11.6)">/</text><text xml:space="preserve" font-family="LucidaGrande,Lucida Grande" font-size="22.0" fill="#FEFFFE" transform="matrix(1.00, 0.00, -0.00, -1.00, 520.6, 11.6)">j</text><text xml:space="preserve" font-family="LucidaGrande,Lucida Grande" font-size="22.0" fill="#FEFFFE" transform="matrix(1.00, 0.00, -0.00, -1.00, 527.3, 11.6)">.</text><text xml:space="preserve" font-family="LucidaGrande,Lucida Grande" font-size="22.0" fill="#FEFFFE" transform="matrix(1.00, 0.00, -0.00, -1.00, 534.3, 11.6)">m</text><text xml:space="preserve" font-family="LucidaGrande,Lucida Grande" font-size="22.0" fill="#FEFFFE" transform="matrix(1.00, 0.00, -0.00, -1.00, 554.8, 11.6)">p</text><text xml:space="preserve" font-family="LucidaGrande,Lucida Grande" font-size="22.0" fill="#FEFFFE" transform="matrix(1.00, 0.00, -0.00, -1.00, 568.6, 11.6)">/</text><text xml:space="preserve" font-family="LucidaGrande,Lucida Grande" font-size="22.0" fill="#FEFFFE" transform="matrix(1.00, 0.00, -0.00, -1.00, 580.2, 11.6)">p</text><text xml:space="preserve" font-family="LucidaGrande,Lucida Grande" font-size="22.0" fill="#FEFFFE" transform="matrix(1.00, 0.00, -0.00, -1.00, 594.0, 11.6)">s</text><text xml:space="preserve" font-family="LucidaGrande,Lucida Grande" font-size="22.0" fill="#FEFFFE" transform="matrix(1.00, 0.00, -0.00, -1.00, 605.3, 11.6)">u</text><text xml:space="preserve" font-family="LucidaGrande,Lucida Grande" font-size="22.0" fill="#FEFFFE" transform="matrix(1.00, 0.00, -0.00, -1.00, 618.9, 11.6)">m</text><text xml:space="preserve" font-family="LucidaGrande,Lucida Grande" font-size="22.0" fill="#FEFFFE" transform="matrix(1.00, 0.00, -0.00, -1.00, 639.4, 11.6)">a</text><text xml:space="preserve" font-family="LucidaGrande,Lucida Grande" font-size="22.0" fill="#FEFFFE" transform="matrix(1.00, 0.00, -0.00, -1.00, 651.6, 11.6)">c</text><text xml:space="preserve" font-family="LucidaGrande,Lucida Grande" font-size="22.0" fill="#FEFFFE" transform="matrix(1.00, 0.00, -0.00, -1.00, 662.9, 11.6)">1</text><text xml:space="preserve" font-family="LucidaGrande,Lucida Grande" font-size="22.0" fill="#FEFFFE" transform="matrix(1.00, 0.00, -0.00, -1.00, 676.8, 11.6)">3</text><text xml:space="preserve" font-family="Monaco,Monaco" font-size="36.0" fill="#37DE1B" transform="matrix(1.00, 0.00, -0.00, -1.00, 57.2, 442.5)">$</text><text xml:space="preserve" font-family="Monaco,Monaco" font-size="36.0" fill="#37DE1B" transform="matrix(1.00, 0.00, -0.00, -1.00, 78.8, 442.5)"> </text><text xml:space="preserve" font-family="Monaco,Monaco" font-size="36.0" fill="#37DE1B" transform="matrix(1.00, 0.00, -0.00, -1.00, 100.4, 442.5)">d</text><text xml:space="preserve" font-family="Monaco,Monaco" font-size="36.0" fill="#37DE1B" transform="matrix(1.00, 0.00, -0.00, -1.00, 122.0, 442.5)">e</text><text xml:space="preserve" font-family="Monaco,Monaco" font-size="36.0" fill="#37DE1B" transform="matrix(1.00, 0.00, -0.00, -1.00, 143.6, 442.5)">f</text><text xml:space="preserve" font-family="Monaco,Monaco" font-size="36.0" fill="#37DE1B" transform="matrix(1.00, 0.00, -0.00, -1.00, 165.2, 442.5)">a</text><text xml:space="preserve" font-family="Monaco,Monaco" font-size="36.0" fill="#37DE1B" transform="matrix(1.00, 0.00, -0.00, -1.00, 186.8, 442.5)">u</text><text xml:space="preserve" font-family="Monaco,Monaco" font-size="36.0" fill="#37DE1B" transform="matrix(1.00, 0.00, -0.00, -1.00, 208.4, 442.5)">l</text><text xml:space="preserve" font-family="Monaco,Monaco" font-size="36.0" fill="#37DE1B" transform="matrix(1.00, 0.00, -0.00, -1.00, 230.0, 442.5)">t</text><text xml:space="preserve" font-family="Monaco,Monaco" font-size="36.0" fill="#37DE1B" transform="matrix(1.00, 0.00, -0.00, -1.00, 251.6, 442.5)">s</text><text xml:space="preserve" font-family="Monaco,Monaco" font-size="36.0" fill="#37DE1B" transform="matrix(1.00, 0.00, -0.00, -1.00, 273.2, 442.5)"> </text><text xml:space="preserve" font-family="Monaco,Monaco" font-size="36.0" fill="#37DE1B" transform="matrix(1.00, 0.00, -0.00, -1.00, 294.9, 442.5)">r</text><text xml:space="preserve" font-family="Monaco,Monaco" font-size="36.0" fill="#37DE1B" transform="matrix(1.00, 0.00, -0.00, -1.00, 316.5, 442.5)">e</text><text xml:space="preserve" font-family="Monaco,Monaco" font-size="36.0" fill="#37DE1B" transform="matrix(1.00, 0.00, -0.00, -1.00, 338.1, 442.5)">a</text><text xml:space="preserve" font-family="Monaco,Monaco" font-size="36.0" fill="#37DE1B" transform="matrix(1.00, 0.00, -0.00, -1.00, 359.7, 442.5)">d</text><text xml:space="preserve" font-family="Monaco,Monaco" font-size="36.0" fill="#37DE1B" transform="matrix(1.00, 0.00, -0.00, -1.00, 381.3, 442.5)"> </text><text xml:space="preserve" font-family="Monaco,Monaco" font-size="36.0" fill="#1497FC" transform="matrix(1.00, 0.00, -0.00, -1.00, 402.8, 442.5)">~</text><text xml:space="preserve" font-family="Monaco,Monaco" font-size="36.0" fill="#1497FC" transform="matrix(1.00, 0.00, -0.00, -1.00, 424.4, 442.5)">/</text><text xml:space="preserve" font-family="Monaco,Monaco" font-size="36.0" fill="#1497FC" transform="matrix(1.00, 0.00, -0.00, -1.00, 446.0, 442.5)">L</text><text xml:space="preserve" font-family="Monaco,Monaco" font-size="36.0" fill="#1497FC" transform="matrix(1.00, 0.00, -0.00, -1.00, 467.7, 442.5)">i</text><text xml:space="preserve" font-family="Monaco,Monaco" font-size="36.0" fill="#1497FC" transform="matrix(1.00, 0.00, -0.00, -1.00, 489.3, 442.5)">b</text><text xml:space="preserve" font-family="Monaco,Monaco" font-size="36.0" fill="#1497FC" transform="matrix(1.00, 0.00, -0.00, -1.00, 510.9, 442.5)">r</text><text xml:space="preserve" font-family="Monaco,Monaco" font-size="36.0" fill="#1497FC" transform="matrix(1.00, 0.00, -0.00, -1.00, 532.5, 442.5)">a</text><text xml:space="preserve" font-family="Monaco,Monaco" font-size="36.0" fill="#1497FC" transform="matrix(1.00, 0.00, -0.00, -1.00, 554.1, 442.5)">r</text><text xml:space="preserve" font-family="Monaco,Monaco" font-size="36.0" fill="#1497FC" transform="matrix(1.00, 0.00, -0.00, -1.00, 575.7, 442.5)">y</text><text xml:space="preserve" font-family="Monaco,Monaco" font-size="36.0" fill="#1497FC" transform="matrix(1.00, 0.00, -0.00, -1.00, 597.3, 442.5)">/</text><text xml:space="preserve" font-family="Monaco,Monaco" font-size="36.0" fill="#1497FC" transform="matrix(1.00, 0.00, -0.00, -1.00, 618.9, 442.5)">P</text><text xml:space="preserve" font-family="Monaco,Monaco" font-size="36.0" fill="#1497FC" transform="matrix(1.00, 0.00, -0.00, -1.00, 640.5, 442.5)">r</text><text xml:space="preserve" font-family="Monaco,Monaco" font-size="36.0" fill="#1497FC" transform="matrix(1.00, 0.00, -0.00, -1.00, 662.1, 442.5)">e</text><text xml:space="preserve" font-family="Monaco,Monaco" font-size="36.0" fill="#1497FC" transform="matrix(1.00, 0.00, -0.00, -1.00, 683.7, 442.5)">f</text><text xml:space="preserve" font-family="Monaco,Monaco" font-size="36.0" fill="#1497FC" transform="matrix(1.00, 0.00, -0.00, -1.00, 705.3, 442.5)">e</text><text xml:space="preserve" font-family="Monaco,Monaco" font-size="36.0" fill="#1497FC" transform="matrix(1.00, 0.00, -0.00, -1.00, 726.9, 442.5)">r</text><text xml:space="preserve" font-family="Monaco,Monaco" font-size="36.0" fill="#1497FC" transform="matrix(1.00, 0.00, -0.00, -1.00, 748.5, 442.5)">e</text><text xml:space="preserve" font-family="Monaco,Monaco" font-size="36.0" fill="#1497FC" transform="matrix(1.00, 0.00, -0.00, -1.00, 770.2, 442.5)">n</text><text xml:space="preserve" font-family="Monaco,Monaco" font-size="36.0" fill="#1497FC" transform="matrix(1.00, 0.00, -0.00, -1.00, 791.8, 442.5)">c</text><text xml:space="preserve" font-family="Monaco,Monaco" font-size="36.0" fill="#1497FC" transform="matrix(1.00, 0.00, -0.00, -1.00, 813.4, 442.5)">e</text><text xml:space="preserve" font-family="Monaco,Monaco" font-size="36.0" fill="#1497FC" transform="matrix(1.00, 0.00, -0.00, -1.00, 835.0, 442.5)">s</text><text xml:space="preserve" font-family="Monaco,Monaco" font-size="36.0" fill="#1497FC" transform="matrix(1.00, 0.00, -0.00, -1.00, 856.6, 442.5)">/</text><text xml:space="preserve" font-family="Monaco,Monaco" font-size="36.0" fill="#1497FC" transform="matrix(1.00, 0.00, -0.00, -1.00, 57.2, 394.5)">c</text><text xml:space="preserve" font-family="Monaco,Monaco" font-size="36.0" fill="#1497FC" transform="matrix(1.00, 0.00, -0.00, -1.00, 78.8, 394.5)">o</text><text xml:space="preserve" font-family="Monaco,Monaco" font-size="36.0" fill="#1497FC" transform="matrix(1.00, 0.00, -0.00, -1.00, 100.4, 394.5)">m</text><text xml:space="preserve" font-family="Monaco,Monaco" font-size="36.0" fill="#1497FC" transform="matrix(1.00, 0.00, -0.00, -1.00, 122.0, 394.5)">.</text><text xml:space="preserve" font-family="Monaco,Monaco" font-size="36.0" fill="#1497FC" transform="matrix(1.00, 0.00, -0.00, -1.00, 143.6, 394.5)">m</text><text xml:space="preserve" font-family="Monaco,Monaco" font-size="36.0" fill="#1497FC" transform="matrix(1.00, 0.00, -0.00, -1.00, 165.2, 394.5)">i</text><text xml:space="preserve" font-family="Monaco,Monaco" font-size="36.0" fill="#1497FC" transform="matrix(1.00, 0.00, -0.00, -1.00, 186.8, 394.5)">c</text><text xml:space="preserve" font-family="Monaco,Monaco" font-size="36.0" fill="#1497FC" transform="matrix(1.00, 0.00, -0.00, -1.00, 208.4, 394.5)">r</text><text xml:space="preserve" font-family="Monaco,Monaco" font-size="36.0" fill="#1497FC" transform="matrix(1.00, 0.00, -0.00, -1.00, 230.0, 394.5)">o</text><text xml:space="preserve" font-family="Monaco,Monaco" font-size="36.0" fill="#1497FC" transform="matrix(1.00, 0.00, -0.00, -1.00, 251.6, 394.5)">s</text><text xml:space="preserve" font-family="Monaco,Monaco" font-size="36.0" fill="#1497FC" transform="matrix(1.00, 0.00, -0.00, -1.00, 273.2, 394.5)">o</text><text xml:space="preserve" font-family="Monaco,Monaco" font-size="36.0" fill="#1497FC" transform="matrix(1.00, 0.00, -0.00, -1.00, 294.9, 394.5)">f</text><text xml:space="preserve" font-family="Monaco,Monaco" font-size="36.0" fill="#1497FC" transform="matrix(1.00, 0.00, -0.00, -1.00, 316.5, 394.5)">t</text><text xml:space="preserve" font-family="Monaco,Monaco" font-size="36.0" fill="#1497FC" transform="matrix(1.00, 0.00, -0.00, -1.00, 338.1, 394.5)">.</text><text xml:space="preserve" font-family="Monaco,Monaco" font-size="36.0" fill="#1497FC" transform="matrix(1.00, 0.00, -0.00, -1.00, 359.7, 394.5)">a</text><text xml:space="preserve" font-family="Monaco,Monaco" font-size="36.0" fill="#1497FC" transform="matrix(1.00, 0.00, -0.00, -1.00, 381.3, 394.5)">u</text><text xml:space="preserve" font-family="Monaco,Monaco" font-size="36.0" fill="#1497FC" transform="matrix(1.00, 0.00, -0.00, -1.00, 402.9, 394.5)">t</text><text xml:space="preserve" font-family="Monaco,Monaco" font-size="36.0" fill="#1497FC" transform="matrix(1.00, 0.00, -0.00, -1.00, 424.5, 394.5)">o</text><text xml:space="preserve" font-family="Monaco,Monaco" font-size="36.0" fill="#1497FC" transform="matrix(1.00, 0.00, -0.00, -1.00, 446.1, 394.5)">u</text><text xml:space="preserve" font-family="Monaco,Monaco" font-size="36.0" fill="#1497FC" transform="matrix(1.00, 0.00, -0.00, -1.00, 467.7, 394.5)">p</text><text xml:space="preserve" font-family="Monaco,Monaco" font-size="36.0" fill="#1497FC" transform="matrix(1.00, 0.00, -0.00, -1.00, 489.3, 394.5)">d</text><text xml:space="preserve" font-family="Monaco,Monaco" font-size="36.0" fill="#1497FC" transform="matrix(1.00, 0.00, -0.00, -1.00, 510.9, 394.5)">a</text><text xml:space="preserve" font-family="Monaco,Monaco" font-size="36.0" fill="#1497FC" transform="matrix(1.00, 0.00, -0.00, -1.00, 532.5, 394.5)">t</text><text xml:space="preserve" font-family="Monaco,Monaco" font-size="36.0" fill="#1497FC" transform="matrix(1.00, 0.00, -0.00, -1.00, 554.1, 394.5)">e</text><text xml:space="preserve" font-family="Monaco,Monaco" font-size="36.0" fill="#1497FC" transform="matrix(1.00, 0.00, -0.00, -1.00, 575.7, 394.5)">2</text><text xml:space="preserve" font-family="Monaco,Monaco" font-size="36.0" fill="#1497FC" transform="matrix(1.00, 0.00, -0.00, -1.00, 597.4, 394.5)">.</text><text xml:space="preserve" font-family="Monaco,Monaco" font-size="36.0" fill="#1497FC" transform="matrix(1.00, 0.00, -0.00, -1.00, 619.0, 394.5)">p</text><text xml:space="preserve" font-family="Monaco,Monaco" font-size="36.0" fill="#1497FC" transform="matrix(1.00, 0.00, -0.00, -1.00, 640.6, 394.5)">l</text><text xml:space="preserve" font-family="Monaco,Monaco" font-size="36.0" fill="#1497FC" transform="matrix(1.00, 0.00, -0.00, -1.00, 662.2, 394.5)">i</text><text xml:space="preserve" font-family="Monaco,Monaco" font-size="36.0" fill="#1497FC" transform="matrix(1.00, 0.00, -0.00, -1.00, 683.8, 394.5)">s</text><text xml:space="preserve" font-family="Monaco,Monaco" font-size="36.0" fill="#1497FC" transform="matrix(1.00, 0.00, -0.00, -1.00, 705.4, 394.5)">t</text><text xml:space="preserve" font-family="Monaco,Monaco" font-size="36.0" fill="#37DE1B" transform="matrix(1.00, 0.00, -0.00, -1.00, 726.9, 394.5)"> </text><text xml:space="preserve" font-family="Monaco,Monaco" font-size="36.0" fill="#D35854" transform="matrix(1.00, 0.00, -0.00, -1.00, 748.5, 394.5)">H</text><text xml:space="preserve" font-family="Monaco,Monaco" font-size="36.0" fill="#D35854" transform="matrix(1.00, 0.00, -0.00, -1.00, 770.1, 394.5)">o</text><text xml:space="preserve" font-family="Monaco,Monaco" font-size="36.0" fill="#D35854" transform="matrix(1.00, 0.00, -0.00, -1.00, 791.7, 394.5)">w</text><text xml:space="preserve" font-family="Monaco,Monaco" font-size="36.0" fill="#D35854" transform="matrix(1.00, 0.00, -0.00, -1.00, 813.3, 394.5)">T</text><text xml:space="preserve" font-family="Monaco,Monaco" font-size="36.0" fill="#D35854" transform="matrix(1.00, 0.00, -0.00, -1.00, 834.9, 394.5)">o</text><text xml:space="preserve" font-family="Monaco,Monaco" font-size="36.0" fill="#D35854" transform="matrix(1.00, 0.00, -0.00, -1.00, 856.5, 394.5)">C</text><text xml:space="preserve" font-family="Monaco,Monaco" font-size="36.0" fill="#D35854" transform="matrix(1.00, 0.00, -0.00, -1.00, 878.1, 394.5)">h</text><text xml:space="preserve" font-family="Monaco,Monaco" font-size="36.0" fill="#D35854" transform="matrix(1.00, 0.00, -0.00, -1.00, 899.7, 394.5)">e</text><text xml:space="preserve" font-family="Monaco,Monaco" font-size="36.0" fill="#D35854" transform="matrix(1.00, 0.00, -0.00, -1.00, 921.3, 394.5)">c</text><text xml:space="preserve" font-family="Monaco,Monaco" font-size="36.0" fill="#D35854" transform="matrix(1.00, 0.00, -0.00, -1.00, 943.0, 394.5)">k</text><text xml:space="preserve" font-family="Monaco,Monaco" font-size="36.0" fill="#37DE1B" transform="matrix(1.00, 0.00, -0.00, -1.00, 964.5, 394.5)">	</text><text xml:space="preserve" font-family="Monaco,Monaco" font-size="36.0" fill="#37DE1B" transform="matrix(1.00, 0.00, -0.00, -1.00, 57.2, 298.5)">A</text><text xml:space="preserve" font-family="Monaco,Monaco" font-size="36.0" fill="#37DE1B" transform="matrix(1.00, 0.00, -0.00, -1.00, 78.8, 298.5)">u</text><text xml:space="preserve" font-family="Monaco,Monaco" font-size="36.0" fill="#37DE1B" transform="matrix(1.00, 0.00, -0.00, -1.00, 100.4, 298.5)">t</text><text xml:space="preserve" font-family="Monaco,Monaco" font-size="36.0" fill="#37DE1B" transform="matrix(1.00, 0.00, -0.00, -1.00, 122.0, 298.5)">o</text><text xml:space="preserve" font-family="Monaco,Monaco" font-size="36.0" fill="#37DE1B" transform="matrix(1.00, 0.00, -0.00, -1.00, 143.6, 298.5)">m</text><text xml:space="preserve" font-family="Monaco,Monaco" font-size="36.0" fill="#37DE1B" transform="matrix(1.00, 0.00, -0.00, -1.00, 165.2, 298.5)">a</text><text xml:space="preserve" font-family="Monaco,Monaco" font-size="36.0" fill="#37DE1B" transform="matrix(1.00, 0.00, -0.00, -1.00, 186.8, 298.5)">t</text><text xml:space="preserve" font-family="Monaco,Monaco" font-size="36.0" fill="#37DE1B" transform="matrix(1.00, 0.00, -0.00, -1.00, 208.4, 298.5)">i</text><text xml:space="preserve" font-family="Monaco,Monaco" font-size="36.0" fill="#37DE1B" transform="matrix(1.00, 0.00, -0.00, -1.00, 230.0, 298.5)">c</text></g></svg>