<?xml version="1.0" encoding="UTF-8" standalone="no"?><svg xmlns="http://www.w3.org/2000/svg" xmlns:xlink="http://www.w3.org/1999/xlink" clip-rule="evenodd" stroke-miterlimit="10" viewBox="0 0 1024 768"><desc>SVG generated by Keynote</desc><defs></defs><g transform="matrix(1.00, 0.00, -0.00, -1.00, 0.0, 768.0)"><path d="M 0.0 768.0 L 1024.0 768.0 L 1024.0 0.0 L 0.0 0.0 Z M 0.0 768.0 " fill="#000000"></path><image xlink:href="../../ACF26528-510F-4087-92A7-D9431E4A7675/assets/C07D05C049E9C3A813AD52BFC7182A2D.png" width="983.00" height="584.00" transform="matrix(1.00, 0.00, -0.00, -1.00, 10.2, 664.7)" opacity="0.75"></image><image xlink:href="../../ACF26528-510F-4087-92A7-D9431E4A7675/assets/B8B89F8D2E49298F363D8341A9D067FB.png" width="963.00" height="564.00" transform="matrix(1.00, 0.00, -0.00, -1.00, 30.0, 666.0)"></image><text xml:space="preserve" font-family="LucidaGrande,Lucida Grande" font-size="22.0" fill="#FEFFFE" transform="matrix(1.00, 0.00, -0.00, -1.00, 332.4, 11.6)">F</text><text xml:space="preserve" font-family="LucidaGrande,Lucida Grande" font-size="22.0" fill="#FEFFFE" transform="matrix(1.00, 0.00, -0.00, -1.00, 344.2, 11.6)">e</text><text xml:space="preserve" font-family="LucidaGrande,Lucida Grande" font-size="22.0" fill="#FEFFFE" transform="matrix(1.00, 0.00, -0.00, -1.00, 356.4, 11.6)">e</text><text xml:space="preserve" font-family="LucidaGrande,Lucida Grande" font-size="22.0" fill="#FEFFFE" transform="matrix(1.00, 0.00, -0.00, -1.00, 368.7, 11.6)">d</text><text xml:space="preserve" font-family="LucidaGrande,Lucida Grande" font-size="22.0" fill="#FEFFFE" transform="matrix(1.00, 0.00, -0.00, -1.00, 382.5, 11.6)">b</text><text xml:space="preserve" font-family="LucidaGrande,Lucida Grande" font-size="22.0" fill="#FEFFFE" transform="matrix(1.00, 0.00, -0.00, -1.00, 396.4, 11.6)">a</text><text xml:space="preserve" font-family="LucidaGrande,Lucida Grande" font-size="22.0" fill="#FEFFFE" transform="matrix(1.00, 0.00, -0.00, -1.00, 408.5, 11.6)">c</text><text xml:space="preserve" font-family="LucidaGrande,Lucida Grande" font-size="22.0" fill="#FEFFFE" transform="matrix(1.00, 0.00, -0.00, -1.00, 419.8, 11.6)">k</text><text xml:space="preserve" font-family="LucidaGrande,Lucida Grande" font-size="22.0" fill="#FEFFFE" transform="matrix(1.00, 0.00, -0.00, -1.00, 432.7, 11.6)">:</text><text xml:space="preserve" font-family="LucidaGrande,Lucida Grande" font-size="22.0" fill="#FEFFFE" transform="matrix(1.00, 0.00, -0.00, -1.00, 439.6, 11.6)"> </text><text xml:space="preserve" font-family="LucidaGrande,Lucida Grande" font-size="22.0" fill="#FEFFFE" transform="matrix(1.00, 0.00, -0.00, -1.00, 446.6, 11.6)">h</text><text xml:space="preserve" font-family="LucidaGrande,Lucida Grande" font-size="22.0" fill="#FEFFFE" transform="matrix(1.00, 0.00, -0.00, -1.00, 460.2, 11.6)">t</text><text xml:space="preserve" font-family="LucidaGrande,Lucida Grande" font-size="22.0" fill="#FEFFFE" transform="matrix(1.00, 0.00, -0.00, -1.00, 468.4, 11.6)">t</text><text xml:space="preserve" font-family="LucidaGrande,Lucida Grande" font-size="22.0" fill="#FEFFFE" transform="matrix(1.00, 0.00, -0.00, -1.00, 476.7, 11.6)">p</text><text xml:space="preserve" font-family="LucidaGrande,Lucida Grande" font-size="22.0" fill="#FEFFFE" transform="matrix(1.00, 0.00, -0.00, -1.00, 490.5, 11.6)">:</text><text xml:space="preserve" font-family="LucidaGrande,Lucida Grande" font-size="22.0" fill="#FEFFFE" transform="matrix(1.00, 0.00, -0.00, -1.00, 497.5, 11.6)">/</text><text xml:space="preserve" font-family="LucidaGrande,Lucida Grande" font-size="22.0" fill="#FEFFFE" transform="matrix(1.00, 0.00, -0.00, -1.00, 509.0, 11.6)">/</text><text xml:space="preserve" font-family="LucidaGrande,Lucida Grande" font-size="22.0" fill="#FEFFFE" transform="matrix(1.00, 0.00, -0.00, -1.00, 520.6, 11.6)">j</text><text xml:space="preserve" font-family="LucidaGrande,Lucida Grande" font-size="22.0" fill="#FEFFFE" transform="matrix(1.00, 0.00, -0.00, -1.00, 527.3, 11.6)">.</text><text xml:space="preserve" font-family="LucidaGrande,Lucida Grande" font-size="22.0" fill="#FEFFFE" transform="matrix(1.00, 0.00, -0.00, -1.00, 534.3, 11.6)">m</text><text xml:space="preserve" font-family="LucidaGrande,Lucida Grande" font-size="22.0" fill="#FEFFFE" transform="matrix(1.00, 0.00, -0.00, -1.00, 554.8, 11.6)">p</text><text xml:space="preserve" font-family="LucidaGrande,Lucida Grande" font-size="22.0" fill="#FEFFFE" transform="matrix(1.00, 0.00, -0.00, -1.00, 568.6, 11.6)">/</text><text xml:space="preserve" font-family="LucidaGrande,Lucida Grande" font-size="22.0" fill="#FEFFFE" transform="matrix(1.00, 0.00, -0.00, -1.00, 580.2, 11.6)">p</text><text xml:space="preserve" font-family="LucidaGrande,Lucida Grande" font-size="22.0" fill="#FEFFFE" transform="matrix(1.00, 0.00, -0.00, -1.00, 594.0, 11.6)">s</text><text xml:space="preserve" font-family="LucidaGrande,Lucida Grande" font-size="22.0" fill="#FEFFFE" transform="matrix(1.00, 0.00, -0.00, -1.00, 605.3, 11.6)">u</text><text xml:space="preserve" font-family="LucidaGrande,Lucida Grande" font-size="22.0" fill="#FEFFFE" transform="matrix(1.00, 0.00, -0.00, -1.00, 618.9, 11.6)">m</text><text xml:space="preserve" font-family="LucidaGrande,Lucida Grande" font-size="22.0" fill="#FEFFFE" transform="matrix(1.00, 0.00, -0.00, -1.00, 639.4, 11.6)">a</text><text xml:space="preserve" font-family="LucidaGrande,Lucida Grande" font-size="22.0" fill="#FEFFFE" transform="matrix(1.00, 0.00, -0.00, -1.00, 651.6, 11.6)">c</text><text xml:space="preserve" font-family="LucidaGrande,Lucida Grande" font-size="22.0" fill="#FEFFFE" transform="matrix(1.00, 0.00, -0.00, -1.00, 662.9, 11.6)">1</text><text xml:space="preserve" font-family="LucidaGrande,Lucida Grande" font-size="22.0" fill="#FEFFFE" transform="matrix(1.00, 0.00, -0.00, -1.00, 676.8, 11.6)">3</text><text xml:space="preserve" font-family="Monaco,Monaco" font-size="37.0" fill="#37DE1B" transform="matrix(1.00, 0.00, -0.00, -1.00, 57.2, 541.8)">$</text><text xml:space="preserve" font-family="Monaco,Monaco" font-size="37.0" fill="#37DE1B" transform="matrix(1.00, 0.00, -0.00, -1.00, 79.4, 541.8)"> </text><text xml:space="preserve" font-family="Monaco,Monaco" font-size="37.0" fill="#37DE1B" transform="matrix(1.00, 0.00, -0.00, -1.00, 101.6, 541.8)">s</text><text xml:space="preserve" font-family="Monaco,Monaco" font-size="37.0" fill="#37DE1B" transform="matrix(1.00, 0.00, -0.00, -1.00, 123.8, 541.8)">u</text><text xml:space="preserve" font-family="Monaco,Monaco" font-size="37.0" fill="#37DE1B" transform="matrix(1.00, 0.00, -0.00, -1.00, 146.0, 541.8)">d</text><text xml:space="preserve" font-family="Monaco,Monaco" font-size="37.0" fill="#37DE1B" transform="matrix(1.00, 0.00, -0.00, -1.00, 168.2, 541.8)">o</text><text xml:space="preserve" font-family="Monaco,Monaco" font-size="37.0" fill="#37DE1B" transform="matrix(1.00, 0.00, -0.00, -1.00, 190.4, 541.8)"> </text><text xml:space="preserve" font-family="Monaco,Monaco" font-size="37.0" fill="#37DE1B" transform="matrix(1.00, 0.00, -0.00, -1.00, 212.6, 541.8)">s</text><text xml:space="preserve" font-family="Monaco,Monaco" font-size="37.0" fill="#37DE1B" transform="matrix(1.00, 0.00, -0.00, -1.00, 234.8, 541.8)">y</text><text xml:space="preserve" font-family="Monaco,Monaco" font-size="37.0" fill="#37DE1B" transform="matrix(1.00, 0.00, -0.00, -1.00, 257.0, 541.8)">s</text><text xml:space="preserve" font-family="Monaco,Monaco" font-size="37.0" fill="#37DE1B" transform="matrix(1.00, 0.00, -0.00, -1.00, 279.2, 541.8)">t</text><text xml:space="preserve" font-family="Monaco,Monaco" font-size="37.0" fill="#37DE1B" transform="matrix(1.00, 0.00, -0.00, -1.00, 301.5, 541.8)">e</text><text xml:space="preserve" font-family="Monaco,Monaco" font-size="37.0" fill="#37DE1B" transform="matrix(1.00, 0.00, -0.00, -1.00, 323.7, 541.8)">m</text><text xml:space="preserve" font-family="Monaco,Monaco" font-size="37.0" fill="#37DE1B" transform="matrix(1.00, 0.00, -0.00, -1.00, 345.9, 541.8)">s</text><text xml:space="preserve" font-family="Monaco,Monaco" font-size="37.0" fill="#37DE1B" transform="matrix(1.00, 0.00, -0.00, -1.00, 368.1, 541.8)">e</text><text xml:space="preserve" font-family="Monaco,Monaco" font-size="37.0" fill="#37DE1B" transform="matrix(1.00, 0.00, -0.00, -1.00, 390.3, 541.8)">t</text><text xml:space="preserve" font-family="Monaco,Monaco" font-size="37.0" fill="#37DE1B" transform="matrix(1.00, 0.00, -0.00, -1.00, 412.5, 541.8)">u</text><text xml:space="preserve" font-family="Monaco,Monaco" font-size="37.0" fill="#37DE1B" transform="matrix(1.00, 0.00, -0.00, -1.00, 434.7, 541.8)">p</text><text xml:space="preserve" font-family="Monaco,Monaco" font-size="37.0" fill="#37DE1B" transform="matrix(1.00, 0.00, -0.00, -1.00, 456.9, 541.8)"> </text><text xml:space="preserve" font-family="Monaco,Monaco" font-size="37.0" fill="#37DE1B" transform="matrix(1.00, 0.00, -0.00, -1.00, 479.1, 541.8)">-</text><text xml:space="preserve" font-family="Monaco,Monaco" font-size="37.0" fill="#37DE1B" transform="matrix(1.00, 0.00, -0.00, -1.00, 501.3, 541.8)">g</text><text xml:space="preserve" font-family="Monaco,Monaco" font-size="37.0" fill="#37DE1B" transform="matrix(1.00, 0.00, -0.00, -1.00, 523.5, 541.8)">e</text><text xml:space="preserve" font-family="Monaco,Monaco" font-size="37.0" fill="#37DE1B" transform="matrix(1.00, 0.00, -0.00, -1.00, 545.7, 541.8)">t</text><text xml:space="preserve" font-family="Monaco,Monaco" font-size="37.0" fill="#37DE1B" transform="matrix(1.00, 0.00, -0.00, -1.00, 567.9, 541.8)">c</text><text xml:space="preserve" font-family="Monaco,Monaco" font-size="37.0" fill="#37DE1B" transform="matrix(1.00, 0.00, -0.00, -1.00, 590.2, 541.8)">o</text><text xml:space="preserve" font-family="Monaco,Monaco" font-size="37.0" fill="#37DE1B" transform="matrix(1.00, 0.00, -0.00, -1.00, 612.4, 541.8)">m</text><text xml:space="preserve" font-family="Monaco,Monaco" font-size="37.0" fill="#37DE1B" transform="matrix(1.00, 0.00, -0.00, -1.00, 634.6, 541.8)">p</text><text xml:space="preserve" font-family="Monaco,Monaco" font-size="37.0" fill="#37DE1B" transform="matrix(1.00, 0.00, -0.00, -1.00, 656.8, 541.8)">u</text><text xml:space="preserve" font-family="Monaco,Monaco" font-size="37.0" fill="#37DE1B" transform="matrix(1.00, 0.00, -0.00, -1.00, 679.0, 541.8)">t</text><text xml:space="preserve" font-family="Monaco,Monaco" font-size="37.0" fill="#37DE1B" transform="matrix(1.00, 0.00, -0.00, -1.00, 701.2, 541.8)">e</text><text xml:space="preserve" font-family="Monaco,Monaco" font-size="37.0" fill="#37DE1B" transform="matrix(1.00, 0.00, -0.00, -1.00, 723.4, 541.8)">r</text><text xml:space="preserve" font-family="Monaco,Monaco" font-size="37.0" fill="#37DE1B" transform="matrix(1.00, 0.00, -0.00, -1.00, 745.6, 541.8)">n</text><text xml:space="preserve" font-family="Monaco,Monaco" font-size="37.0" fill="#37DE1B" transform="matrix(1.00, 0.00, -0.00, -1.00, 767.8, 541.8)">a</text><text xml:space="preserve" font-family="Monaco,Monaco" font-size="37.0" fill="#37DE1B" transform="matrix(1.00, 0.00, -0.00, -1.00, 790.0, 541.8)">m</text><text xml:space="preserve" font-family="Monaco,Monaco" font-size="37.0" fill="#37DE1B" transform="matrix(1.00, 0.00, -0.00, -1.00, 812.2, 541.8)">e</text><text xml:space="preserve" font-family="Monaco,Monaco" font-size="37.0" fill="#37DE1B" transform="matrix(1.00, 0.00, -0.00, -1.00, 834.4, 541.8)">	</text><text xml:space="preserve" font-family="Monaco,Monaco" font-size="37.0" fill="#37DE1B" transform="matrix(1.00, 0.00, -0.00, -1.00, 57.2, 492.8)"> </text><text xml:space="preserve" font-family="Monaco,Monaco" font-size="37.0" fill="#37DE1B" transform="matrix(1.00, 0.00, -0.00, -1.00, 79.4, 492.8)">C</text><text xml:space="preserve" font-family="Monaco,Monaco" font-size="37.0" fill="#37DE1B" transform="matrix(1.00, 0.00, -0.00, -1.00, 101.6, 492.8)">o</text><text xml:space="preserve" font-family="Monaco,Monaco" font-size="37.0" fill="#37DE1B" transform="matrix(1.00, 0.00, -0.00, -1.00, 123.8, 492.8)">m</text><text xml:space="preserve" font-family="Monaco,Monaco" font-size="37.0" fill="#37DE1B" transform="matrix(1.00, 0.00, -0.00, -1.00, 146.0, 492.8)">p</text><text xml:space="preserve" font-family="Monaco,Monaco" font-size="37.0" fill="#37DE1B" transform="matrix(1.00, 0.00, -0.00, -1.00, 168.2, 492.8)">u</text><text xml:space="preserve" font-family="Monaco,Monaco" font-size="37.0" fill="#37DE1B" transform="matrix(1.00, 0.00, -0.00, -1.00, 190.4, 492.8)">t</text><text xml:space="preserve" font-family="Monaco,Monaco" font-size="37.0" fill="#37DE1B" transform="matrix(1.00, 0.00, -0.00, -1.00, 212.6, 492.8)">e</text><text xml:space="preserve" font-family="Monaco,Monaco" font-size="37.0" fill="#37DE1B" transform="matrix(1.00, 0.00, -0.00, -1.00, 234.8, 492.8)">r</text><text xml:space="preserve" font-family="Monaco,Monaco" font-size="37.0" fill="#37DE1B" transform="matrix(1.00, 0.00, -0.00, -1.00, 257.0, 492.8)"> </text><text xml:space="preserve" font-family="Monaco,Monaco" font-size="37.0" fill="#37DE1B" transform="matrix(1.00, 0.00, -0.00, -1.00, 279.2, 492.8)">N</text><text xml:space="preserve" font-family="Monaco,Monaco" font-size="37.0" fill="#37DE1B" transform="matrix(1.00, 0.00, -0.00, -1.00, 301.5, 492.8)">a</text><text xml:space="preserve" font-family="Monaco,Monaco" font-size="37.0" fill="#37DE1B" transform="matrix(1.00, 0.00, -0.00, -1.00, 323.7, 492.8)">m</text><text xml:space="preserve" font-family="Monaco,Monaco" font-size="37.0" fill="#37DE1B" transform="matrix(1.00, 0.00, -0.00, -1.00, 345.9, 492.8)">e</text><text xml:space="preserve" font-family="Monaco,Monaco" font-size="37.0" fill="#37DE1B" transform="matrix(1.00, 0.00, -0.00, -1.00, 368.1, 492.8)">:</text><text xml:space="preserve" font-family="Monaco,Monaco" font-size="37.0" fill="#37DE1B" transform="matrix(1.00, 0.00, -0.00, -1.00, 390.3, 492.8)"> </text><text xml:space="preserve" font-family="Monaco,Monaco" font-size="37.0" fill="#37DE1B" transform="matrix(1.00, 0.00, -0.00, -1.00, 412.5, 492.8)">m</text><text xml:space="preserve" font-family="Monaco,Monaco" font-size="37.0" fill="#37DE1B" transform="matrix(1.00, 0.00, -0.00, -1.00, 434.7, 492.8)">a</text><text xml:space="preserve" font-family="Monaco,Monaco" font-size="37.0" fill="#37DE1B" transform="matrix(1.00, 0.00, -0.00, -1.00, 456.9, 492.8)">c</text><text xml:space="preserve" font-family="Monaco,Monaco" font-size="37.0" fill="#37DE1B" transform="matrix(1.00, 0.00, -0.00, -1.00, 479.1, 492.8)">p</text><text xml:space="preserve" font-family="Monaco,Monaco" font-size="37.0" fill="#37DE1B" transform="matrix(1.00, 0.00, -0.00, -1.00, 501.3, 492.8)">r</text><text xml:space="preserve" font-family="Monaco,Monaco" font-size="37.0" fill="#37DE1B" transform="matrix(1.00, 0.00, -0.00, -1.00, 523.5, 492.8)">e</text><text xml:space="preserve" font-family="Monaco,Monaco" font-size="37.0" fill="#37DE1B" transform="matrix(1.00, 0.00, -0.00, -1.00, 545.7, 492.8)">s</text><text xml:space="preserve" font-family="Monaco,Monaco" font-size="37.0" fill="#37DE1B" transform="matrix(1.00, 0.00, -0.00, -1.00, 567.9, 492.8)">e</text><text xml:space="preserve" font-family="Monaco,Monaco" font-size="37.0" fill="#37DE1B" transform="matrix(1.00, 0.00, -0.00, -1.00, 590.2, 492.8)">n</text><text xml:space="preserve" font-family="Monaco,Monaco" font-size="37.0" fill="#37DE1B" transform="matrix(1.00, 0.00, -0.00, -1.00, 612.4, 492.8)">t</text><text xml:space="preserve" font-family="Monaco,Monaco" font-size="37.0" fill="#37DE1B" transform="matrix(1.00, 0.00, -0.00, -1.00, 634.6, 492.8)">e</text><text xml:space="preserve" font-family="Monaco,Monaco" font-size="37.0" fill="#37DE1B" transform="matrix(1.00, 0.00, -0.00, -1.00, 656.8, 492.8)">r</text><text xml:space="preserve" font-family="Monaco,Monaco" font-size="37.0" fill="#37DE1B" transform="matrix(1.00, 0.00, -0.00, -1.00, 678.9, 492.8)">	</text><text xml:space="preserve" font-family="Monaco,Monaco" font-size="37.0" fill="#37DE1B" transform="matrix(1.00, 0.00, -0.00, -1.00, 57.2, 443.8)">$</text><text xml:space="preserve" font-family="Monaco,Monaco" font-size="37.0" fill="#37DE1B" transform="matrix(1.00, 0.00, -0.00, -1.00, 79.4, 443.8)"> </text><text xml:space="preserve" font-family="Monaco,Monaco" font-size="37.0" fill="#37DE1B" transform="matrix(1.00, 0.00, -0.00, -1.00, 101.6, 443.8)">s</text><text xml:space="preserve" font-family="Monaco,Monaco" font-size="37.0" fill="#37DE1B" transform="matrix(1.00, 0.00, -0.00, -1.00, 123.8, 443.8)">u</text><text xml:space="preserve" font-family="Monaco,Monaco" font-size="37.0" fill="#37DE1B" transform="matrix(1.00, 0.00, -0.00, -1.00, 146.0, 443.8)">d</text><text xml:space="preserve" font-family="Monaco,Monaco" font-size="37.0" fill="#37DE1B" transform="matrix(1.00, 0.00, -0.00, -1.00, 168.2, 443.8)">o</text><text xml:space="preserve" font-family="Monaco,Monaco" font-size="37.0" fill="#37DE1B" transform="matrix(1.00, 0.00, -0.00, -1.00, 190.4, 443.8)"> </text><text xml:space="preserve" font-family="Monaco,Monaco" font-size="37.0" fill="#37DE1B" transform="matrix(1.00, 0.00, -0.00, -1.00, 212.6, 443.8)">s</text><text xml:space="preserve" font-family="Monaco,Monaco" font-size="37.0" fill="#37DE1B" transform="matrix(1.00, 0.00, -0.00, -1.00, 234.8, 443.8)">y</text><text xml:space="preserve" font-family="Monaco,Monaco" font-size="37.0" fill="#37DE1B" transform="matrix(1.00, 0.00, -0.00, -1.00, 257.0, 443.8)">s</text><text xml:space="preserve" font-family="Monaco,Monaco" font-size="37.0" fill="#37DE1B" transform="matrix(1.00, 0.00, -0.00, -1.00, 279.2, 443.8)">t</text><text xml:space="preserve" font-family="Monaco,Monaco" font-size="37.0" fill="#37DE1B" transform="matrix(1.00, 0.00, -0.00, -1.00, 301.4, 443.8)">e</text><text xml:space="preserve" font-family="Monaco,Monaco" font-size="37.0" fill="#37DE1B" transform="matrix(1.00, 0.00, -0.00, -1.00, 323.7, 443.8)">m</text><text xml:space="preserve" font-family="Monaco,Monaco" font-size="37.0" fill="#37DE1B" transform="matrix(1.00, 0.00, -0.00, -1.00, 345.9, 443.8)">s</text><text xml:space="preserve" font-family="Monaco,Monaco" font-size="37.0" fill="#37DE1B" transform="matrix(1.00, 0.00, -0.00, -1.00, 368.1, 443.8)">e</text><text xml:space="preserve" font-family="Monaco,Monaco" font-size="37.0" fill="#37DE1B" transform="matrix(1.00, 0.00, -0.00, -1.00, 390.3, 443.8)">t</text><text xml:space="preserve" font-family="Monaco,Monaco" font-size="37.0" fill="#37DE1B" transform="matrix(1.00, 0.00, -0.00, -1.00, 412.5, 443.8)">u</text><text xml:space="preserve" font-family="Monaco,Monaco" font-size="37.0" fill="#37DE1B" transform="matrix(1.00, 0.00, -0.00, -1.00, 434.7, 443.8)">p</text><text xml:space="preserve" font-family="Monaco,Monaco" font-size="37.0" fill="#37DE1B" transform="matrix(1.00, 0.00, -0.00, -1.00, 456.9, 443.8)"> </text><text xml:space="preserve" font-family="Monaco,Monaco" font-size="37.0" fill="#37DE1B" transform="matrix(1.00, 0.00, -0.00, -1.00, 479.1, 443.8)">-</text><text xml:space="preserve" font-family="Monaco,Monaco" font-size="37.0" fill="#37DE1B" transform="matrix(1.00, 0.00, -0.00, -1.00, 501.3, 443.8)">g</text><text xml:space="preserve" font-family="Monaco,Monaco" font-size="37.0" fill="#37DE1B" transform="matrix(1.00, 0.00, -0.00, -1.00, 523.5, 443.8)">e</text><text xml:space="preserve" font-family="Monaco,Monaco" font-size="37.0" fill="#37DE1B" transform="matrix(1.00, 0.00, -0.00, -1.00, 545.7, 443.8)">t</text><text xml:space="preserve" font-family="Monaco,Monaco" font-size="37.0" fill="#37DE1B" transform="matrix(1.00, 0.00, -0.00, -1.00, 567.9, 443.8)">n</text><text xml:space="preserve" font-family="Monaco,Monaco" font-size="37.0" fill="#37DE1B" transform="matrix(1.00, 0.00, -0.00, -1.00, 590.1, 443.8)">e</text><text xml:space="preserve" font-family="Monaco,Monaco" font-size="37.0" fill="#37DE1B" transform="matrix(1.00, 0.00, -0.00, -1.00, 612.4, 443.8)">t</text><text xml:space="preserve" font-family="Monaco,Monaco" font-size="37.0" fill="#37DE1B" transform="matrix(1.00, 0.00, -0.00, -1.00, 634.6, 443.8)">w</text><text xml:space="preserve" font-family="Monaco,Monaco" font-size="37.0" fill="#37DE1B" transform="matrix(1.00, 0.00, -0.00, -1.00, 656.8, 443.8)">o</text><text xml:space="preserve" font-family="Monaco,Monaco" font-size="37.0" fill="#37DE1B" transform="matrix(1.00, 0.00, -0.00, -1.00, 679.0, 443.8)">r</text><text xml:space="preserve" font-family="Monaco,Monaco" font-size="37.0" fill="#37DE1B" transform="matrix(1.00, 0.00, -0.00, -1.00, 701.2, 443.8)">k</text><text xml:space="preserve" font-family="Monaco,Monaco" font-size="37.0" fill="#37DE1B" transform="matrix(1.00, 0.00, -0.00, -1.00, 723.4, 443.8)">t</text><text xml:space="preserve" font-family="Monaco,Monaco" font-size="37.0" fill="#37DE1B" transform="matrix(1.00, 0.00, -0.00, -1.00, 745.6, 443.8)">i</text><text xml:space="preserve" font-family="Monaco,Monaco" font-size="37.0" fill="#37DE1B" transform="matrix(1.00, 0.00, -0.00, -1.00, 767.8, 443.8)">m</text><text xml:space="preserve" font-family="Monaco,Monaco" font-size="37.0" fill="#37DE1B" transform="matrix(1.00, 0.00, -0.00, -1.00, 790.0, 443.8)">e</text><text xml:space="preserve" font-family="Monaco,Monaco" font-size="37.0" fill="#37DE1B" transform="matrix(1.00, 0.00, -0.00, -1.00, 812.2, 443.8)">s</text><text xml:space="preserve" font-family="Monaco,Monaco" font-size="37.0" fill="#37DE1B" transform="matrix(1.00, 0.00, -0.00, -1.00, 834.4, 443.8)">e</text><text xml:space="preserve" font-family="Monaco,Monaco" font-size="37.0" fill="#37DE1B" transform="matrix(1.00, 0.00, -0.00, -1.00, 856.6, 443.8)">r</text><text xml:space="preserve" font-family="Monaco,Monaco" font-size="37.0" fill="#37DE1B" transform="matrix(1.00, 0.00, -0.00, -1.00, 878.8, 443.8)">v</text><text xml:space="preserve" font-family="Monaco,Monaco" font-size="37.0" fill="#37DE1B" transform="matrix(1.00, 0.00, -0.00, -1.00, 901.0, 443.8)">e</text><text xml:space="preserve" font-family="Monaco,Monaco" font-size="37.0" fill="#37DE1B" transform="matrix(1.00, 0.00, -0.00, -1.00, 923.3, 443.8)">r</text><text xml:space="preserve" font-family="Monaco,Monaco" font-size="37.0" fill="#37DE1B" transform="matrix(1.00, 0.00, -0.00, -1.00, 945.5, 443.8)">	</text><text xml:space="preserve" font-family="Monaco,Monaco" font-size="37.0" fill="#37DE1B" transform="matrix(1.00, 0.00, -0.00, -1.00, 57.2, 394.8)"> </text><text xml:space="preserve" font-family="Monaco,Monaco" font-size="37.0" fill="#37DE1B" transform="matrix(1.00, 0.00, -0.00, -1.00, 79.4, 394.8)">N</text><text xml:space="preserve" font-family="Monaco,Monaco" font-size="37.0" fill="#37DE1B" transform="matrix(1.00, 0.00, -0.00, -1.00, 101.6, 394.8)">e</text><text xml:space="preserve" font-family="Monaco,Monaco" font-size="37.0" fill="#37DE1B" transform="matrix(1.00, 0.00, -0.00, -1.00, 123.8, 394.8)">t</text><text xml:space="preserve" font-family="Monaco,Monaco" font-size="37.0" fill="#37DE1B" transform="matrix(1.00, 0.00, -0.00, -1.00, 146.0, 394.8)">w</text><text xml:space="preserve" font-family="Monaco,Monaco" font-size="37.0" fill="#37DE1B" transform="matrix(1.00, 0.00, -0.00, -1.00, 168.2, 394.8)">o</text><text xml:space="preserve" font-family="Monaco,Monaco" font-size="37.0" fill="#37DE1B" transform="matrix(1.00, 0.00, -0.00, -1.00, 190.4, 394.8)">r</text><text xml:space="preserve" font-family="Monaco,Monaco" font-size="37.0" fill="#37DE1B" transform="matrix(1.00, 0.00, -0.00, -1.00, 212.6, 394.8)">k</text><text xml:space="preserve" font-family="Monaco,Monaco" font-size="37.0" fill="#37DE1B" transform="matrix(1.00, 0.00, -0.00, -1.00, 234.8, 394.8)"> </text><text xml:space="preserve" font-family="Monaco,Monaco" font-size="37.0" fill="#37DE1B" transform="matrix(1.00, 0.00, -0.00, -1.00, 257.0, 394.8)">T</text><text xml:space="preserve" font-family="Monaco,Monaco" font-size="37.0" fill="#37DE1B" transform="matrix(1.00, 0.00, -0.00, -1.00, 279.2, 394.8)">i</text><text xml:space="preserve" font-family="Monaco,Monaco" font-size="37.0" fill="#37DE1B" transform="matrix(1.00, 0.00, -0.00, -1.00, 301.5, 394.8)">m</text><text xml:space="preserve" font-family="Monaco,Monaco" font-size="37.0" fill="#37DE1B" transform="matrix(1.00, 0.00, -0.00, -1.00, 323.7, 394.8)">e</text><text xml:space="preserve" font-family="Monaco,Monaco" font-size="37.0" fill="#37DE1B" transform="matrix(1.00, 0.00, -0.00, -1.00, 345.9, 394.8)"> </text><text xml:space="preserve" font-family="Monaco,Monaco" font-size="37.0" fill="#37DE1B" transform="matrix(1.00, 0.00, -0.00, -1.00, 368.1, 394.8)">S</text><text xml:space="preserve" font-family="Monaco,Monaco" font-size="37.0" fill="#37DE1B" transform="matrix(1.00, 0.00, -0.00, -1.00, 390.3, 394.8)">e</text><text xml:space="preserve" font-family="Monaco,Monaco" font-size="37.0" fill="#37DE1B" transform="matrix(1.00, 0.00, -0.00, -1.00, 412.5, 394.8)">r</text><text xml:space="preserve" font-family="Monaco,Monaco" font-size="37.0" fill="#37DE1B" transform="matrix(1.00, 0.00, -0.00, -1.00, 434.7, 394.8)">v</text><text xml:space="preserve" font-family="Monaco,Monaco" font-size="37.0" fill="#37DE1B" transform="matrix(1.00, 0.00, -0.00, -1.00, 456.9, 394.8)">e</text><text xml:space="preserve" font-family="Monaco,Monaco" font-size="37.0" fill="#37DE1B" transform="matrix(1.00, 0.00, -0.00, -1.00, 479.1, 394.8)">r</text><text xml:space="preserve" font-family="Monaco,Monaco" font-size="37.0" fill="#37DE1B" transform="matrix(1.00, 0.00, -0.00, -1.00, 501.3, 394.8)">:</text><text xml:space="preserve" font-family="Monaco,Monaco" font-size="37.0" fill="#37DE1B" transform="matrix(1.00, 0.00, -0.00, -1.00, 523.5, 394.8)"> </text><text xml:space="preserve" font-family="Monaco,Monaco" font-size="37.0" fill="#37DE1B" transform="matrix(1.00, 0.00, -0.00, -1.00, 545.7, 394.8)">c</text><text xml:space="preserve" font-family="Monaco,Monaco" font-size="37.0" fill="#37DE1B" transform="matrix(1.00, 0.00, -0.00, -1.00, 567.9, 394.8)">l</text><text xml:space="preserve" font-family="Monaco,Monaco" font-size="37.0" fill="#37DE1B" transform="matrix(1.00, 0.00, -0.00, -1.00, 590.1, 394.8)">o</text><text xml:space="preserve" font-family="Monaco,Monaco" font-size="37.0" fill="#37DE1B" transform="matrix(1.00, 0.00, -0.00, -1.00, 612.3, 394.8)">c</text><text xml:space="preserve" font-family="Monaco,Monaco" font-size="37.0" fill="#37DE1B" transform="matrix(1.00, 0.00, -0.00, -1.00, 634.5, 394.8)">k</text><text xml:space="preserve" font-family="Monaco,Monaco" font-size="37.0" fill="#37DE1B" transform="matrix(1.00, 0.00, -0.00, -1.00, 656.7, 394.8)">.</text><text xml:space="preserve" font-family="Monaco,Monaco" font-size="37.0" fill="#37DE1B" transform="matrix(1.00, 0.00, -0.00, -1.00, 678.9, 394.8)">p</text><text xml:space="preserve" font-family="Monaco,Monaco" font-size="37.0" fill="#37DE1B" transform="matrix(1.00, 0.00, -0.00, -1.00, 701.1, 394.8)">s</text><text xml:space="preserve" font-family="Monaco,Monaco" font-size="37.0" fill="#37DE1B" transform="matrix(1.00, 0.00, -0.00, -1.00, 723.3, 394.8)">u</text><text xml:space="preserve" font-family="Monaco,Monaco" font-size="37.0" fill="#37DE1B" transform="matrix(1.00, 0.00, -0.00, -1.00, 745.5, 394.8)">.</text><text xml:space="preserve" font-family="Monaco,Monaco" font-size="37.0" fill="#37DE1B" transform="matrix(1.00, 0.00, -0.00, -1.00, 767.7, 394.8)">e</text><text xml:space="preserve" font-family="Monaco,Monaco" font-size="37.0" fill="#37DE1B" transform="matrix(1.00, 0.00, -0.00, -1.00, 789.9, 394.8)">d</text><text xml:space="preserve" font-family="Monaco,Monaco" font-size="37.0" fill="#37DE1B" transform="matrix(1.00, 0.00, -0.00, -1.00, 812.1, 394.8)">u</text><text xml:space="preserve" font-family="Monaco,Monaco" font-size="37.0" fill="#37DE1B" transform="matrix(1.00, 0.00, -0.00, -1.00, 834.3, 394.8)">	</text><g><clipPath id="clip0x7f9c3ef542e0"><path d="M 544.7 391.0 L 834.3 391.0 L 834.3 395.8 L 544.7 395.8 Z M 544.7 391.0 "></path></clipPath><g clip-path="url(#clip0x7f9c3ef542e0)"><path d="M 492.5 221.1 L 781.1 221.1 " fill="none" stroke="#37DE1B" stroke-width="2.80" transform="matrix(1.00, 0.00, 0.00, -1.00, 53.2, 614.5)"></path></g></g></g></svg>